<svg width="85" height="77" viewBox="0 0 85 77" fill="none" xmlns="http://www.w3.org/2000/svg">
<path d="M18.3605 52.4542C26.2815 52.4542 32.2343 45.5675 35.7866 40.1256C35.3546 41.3296 35.1146 42.5335 35.1146 43.6895C35.1146 46.8679 36.9388 49.1314 40.5393 49.1314C45.4838 49.1314 50.7645 44.797 53.5009 40.1256C53.3089 40.7999 53.2129 41.426 53.2129 42.0038C53.2129 44.2191 54.4611 45.6157 57.0052 45.6157C65.0223 45.6157 73.0874 31.4091 73.0874 18.9841C73.0874 9.3043 68.1906 0.780273 55.9013 0.780273C34.2984 0.780273 11.0156 27.1711 11.0156 44.2191C11.0156 50.9132 14.6161 52.4542 18.3605 52.4542ZM48.4602 17.9246C48.4602 15.5167 49.8043 13.8312 51.7727 13.8312C53.6929 13.8312 55.0371 15.5167 55.0371 17.9246C55.0371 20.3326 53.6929 22.0663 51.7727 22.0663C49.8043 22.0663 48.4602 20.3326 48.4602 17.9246ZM58.7336 17.9246C58.7336 15.5167 60.0778 13.8312 62.0459 13.8312C63.9661 13.8312 65.3103 15.5167 65.3103 17.9246C65.3103 20.3326 63.9661 22.0663 62.0459 22.0663C60.0778 22.0663 58.7336 20.3326 58.7336 17.9246Z" fill="white"/>
<path d="M0 76.4037H3.16806V73.2957C3.16806 71.8369 3.04136 71.2872 2.30216 69.8072L2.70339 69.5957C3.78056 72.1118 5.30129 73.0208 6.86416 73.0208C9.37749 73.0208 11.3839 70.822 11.3839 67.4181C11.3839 64.1621 9.54643 61.7729 6.90639 61.7729C5.34353 61.7729 3.78056 62.6609 2.70339 65.1981L2.30216 64.9866C2.80908 63.9718 3.16806 63.0204 3.16806 62.1112H0V76.4037ZM3.16806 67.3969C3.16806 66.0015 4.22412 64.4581 5.78698 64.4581C7.05421 64.4581 8.08915 65.4941 8.08915 67.3757C8.08915 69.2363 7.09645 70.3358 5.76587 70.3358C4.28747 70.3358 3.16806 68.8346 3.16806 67.3969Z" fill="white"/>
<path d="M12.5391 72.6831H15.7071V68.962C15.7071 66.3403 16.6365 64.4798 18.3683 64.4798C19.4666 64.4798 19.8045 65.2198 19.8045 67.0592V72.6831H22.9726V66.5518C22.9726 63.2112 21.7687 61.7735 19.4666 61.7735C17.1011 61.7735 16.3196 63.3592 15.4115 65.2832L15.0102 65.0718C15.5593 63.8878 15.7071 63.1689 15.7071 62.1118V58.4541H12.5391V72.6831Z" fill="white"/>
<path d="M27.6026 73.0208C29.6513 73.0208 30.8551 71.6678 31.7633 69.934L32.1435 70.1243C31.7421 70.9489 31.362 71.9003 31.362 72.6826H34.4668V66.9317C34.4668 63.5067 33.0305 61.7729 29.6724 61.7729C26.3776 61.7729 24.7513 63.4221 24.4345 65.1558L27.4759 65.6844C27.5815 64.7752 28.3207 64.1621 29.5034 64.1621C30.6862 64.1621 31.362 64.7541 31.362 65.4729C31.362 66.1918 30.6651 66.5301 28.8065 66.5512C26.0608 66.5935 24.0332 67.5872 24.0332 69.7015C24.0332 71.4351 25.406 73.0208 27.6026 73.0208ZM27.1802 69.49C27.1802 67.8197 29.8413 68.9826 31.2987 67.6929V68.0734C31.2987 69.5746 29.9681 70.674 28.6374 70.674C27.9405 70.674 27.1802 70.378 27.1802 69.49Z" fill="white"/>
<path d="M35.7246 72.6826H38.8927V68.9614C38.8927 66.3398 39.8219 64.4792 41.5538 64.4792C42.6521 64.4792 42.99 65.2192 42.99 67.0586V72.6826H46.1582V66.5512C46.1582 63.2107 44.9543 61.7729 42.6521 61.7729C40.2866 61.7729 39.5052 63.3587 38.5969 65.2826L38.1957 65.0712C38.7449 63.8872 38.8927 63.1684 38.8927 62.1112H35.7246V72.6826Z" fill="white"/>
<path d="M54.5948 72.7251V70.1033C53.919 70.336 52.0392 70.7376 52.0392 69.1943V64.6486H54.5737V62.1114H52.0392V59.2783L48.8501 60.2297V62.1114H46.9492V64.6486H48.8501L48.8712 69.448C48.8712 72.9788 52.0181 73.4862 54.5948 72.7251Z" fill="white"/>
<path d="M61.0291 73.0208C64.2394 73.0208 66.6893 70.5683 66.6893 67.3757C66.6893 64.2044 64.2394 61.7729 61.0291 61.7729C57.8188 61.7729 55.3477 64.2044 55.3477 67.3757C55.3477 70.5683 57.8188 73.0208 61.0291 73.0208ZM58.6213 67.3969C58.6213 65.6421 59.614 64.4158 61.0291 64.4158C62.4441 64.4158 63.4157 65.6421 63.4157 67.3969C63.4157 69.1517 62.4441 70.378 61.0291 70.378C59.614 70.378 58.6213 69.1517 58.6213 67.3969Z" fill="white"/>
<path d="M67.6719 72.6826H70.8394V68.9614C70.8394 66.234 71.7054 64.4792 73.0994 64.4792C74.008 64.4792 74.3034 65.1981 74.3034 67.0586V72.6826H77.472V68.9614C77.472 66.4032 78.401 64.4792 79.7319 64.4792C80.6182 64.4792 80.935 65.3038 80.935 67.0586V72.6826H84.1036V66.5512C84.1036 63.1895 83.0051 61.7729 80.8507 61.7729C78.6121 61.7729 77.8101 63.3587 77.0284 65.3038L76.6476 65.1135C77.3878 62.8935 75.7816 61.7729 74.1979 61.7729C72.1075 61.7729 71.3471 63.3587 70.5024 65.2826L70.1217 65.0712C70.6496 63.8872 70.8394 63.1684 70.8394 62.1112H67.6719V72.6826Z" fill="white"/>
</svg>
