<svg width="73" height="77" viewBox="0 0 73 77" fill="none" xmlns="http://www.w3.org/2000/svg">
<path d="M12.4902 8.32503L36.0677 0.695312V53.5135C19.2264 46.4705 12.4902 32.9726 12.4902 25.3444V8.32503Z" fill="#0500FF"/>
<path d="M59.6478 8.32503L36.0703 0.695312V53.5135C52.9116 46.4705 59.6478 32.9726 59.6478 25.3444V8.32503Z" fill="url(#paint0_linear_360_79671)"/>
<path d="M14.2773 61.0957H19.3019V63.8977C20.948 61.3795 22.8423 61.0957 25.6155 61.0957V66.0475H24.3526C21.0297 66.0475 19.4388 67.6044 19.4388 70.6884V75.9519H14.2773V61.0957Z" fill="#0500FF"/>
<path d="M42.3803 75.9514H37.2198V74.5351C36.0931 75.837 34.5572 76.4028 32.6638 76.4028C29.068 76.4028 27.0352 74.2802 27.0352 70.3762V61.0952H32.1956V69.2175C32.1956 71.0555 33.1014 72.1304 34.6379 72.1304C36.1745 72.1304 37.2192 71.0826 37.2192 69.3013V61.0952H42.3796V75.9514H42.3803Z" fill="#0500FF"/>
<path d="M43.6406 71.3655H48.4737C48.6939 72.4404 49.4349 72.8927 51.2181 72.8927C52.6739 72.8927 53.5246 72.5539 53.5246 71.9313C53.5246 71.4494 53.1124 71.1376 51.9336 70.8835L48.0355 70.006C45.4272 69.4131 44.1089 67.913 44.1089 65.5065C44.1089 62.336 46.4418 60.6953 50.9714 60.6953C55.5014 60.6953 57.7245 62.2941 58.1103 65.7196H53.307C53.2256 64.815 52.2904 64.2614 50.7542 64.2614C49.5193 64.2614 48.7247 64.6569 48.7247 65.2524C48.7247 65.7615 49.2447 66.157 50.29 66.4137L54.3797 67.4048C57.0694 68.0544 58.3614 69.414 58.3614 71.6205C58.3614 74.6775 55.6977 76.4884 51.1708 76.4884C46.6435 76.4884 43.6484 74.536 43.6484 71.3655H43.6433H43.6406Z" fill="#0500FF"/>
<path d="M72.1031 65.716V61.0952H59.3652V65.7187H63.1665V75.9514H68.3005V65.716H72.1031Z" fill="#0500FF"/>
<path d="M12.8403 65.716V61.0952H0.103516V65.7187H3.90437V75.9514H9.03945V65.716H12.8403Z" fill="#0500FF"/>
<defs>
<linearGradient id="paint0_linear_360_79671" x1="53.3849" y1="-3.00336" x2="35.7172" y2="52.8368" gradientUnits="userSpaceOnUse">
<stop offset="0.02" stop-color="#0000FF"/>
<stop offset="0.08" stop-color="#0094FF"/>
<stop offset="0.16" stop-color="#48FF91"/>
<stop offset="0.42" stop-color="#0094FF"/>
<stop offset="0.68" stop-color="#0038FF"/>
<stop offset="0.9" stop-color="#0500FF"/>
</linearGradient>
</defs>
</svg>
