<svg width="63" height="71" viewBox="0 0 63 71" fill="none" xmlns="http://www.w3.org/2000/svg">
<path d="M44.477 3.66797H43.9336V4.68976H44.477V3.66797Z" fill="#5A68AF"/>
<path d="M49.186 8.3584H48.6426V9.38019H49.186V8.3584Z" fill="#5A68AF"/>
<path d="M20.4117 34.3975H19.3867V34.9385H20.4117V34.3975Z" fill="#5A68AF"/>
<path d="M18.8413 32.834H17.8164V33.375H18.8413V32.834Z" fill="#5A68AF"/>
<path d="M17.273 31.2705H16.248V31.8115H17.273V31.2705Z" fill="#5A68AF"/>
<path d="M47.6157 6.79492H47.0723V7.81671H47.6157V6.79492Z" fill="#5A68AF"/>
<path d="M46.0447 5.23145H45.502V6.25323H46.0447V5.23145Z" fill="#5A68AF"/>
<path d="M21.9761 35.9609H20.9512V36.502H21.9761V35.9609Z" fill="#5A68AF"/>
<path d="M51.7766 12.5082V26.5795H50.2082V29.7067H48.6399V31.2702H47.0715V32.8338H45.5031V34.3974H43.9347V35.9609H42.3663V37.5245H39.2295V39.0881H25.1148V37.5245H22.5215V38.0655H24.0899V39.6291H27.2259V41.1926H41.3414V39.6291H44.4781V38.0655H46.0465V36.502H47.6149V34.9384H49.1825V33.3748H50.7509V31.812H52.3193V28.6849H53.8877V14.6128H52.3193V11.4857H50.7509V9.92285H50.2082V12.5082H51.7766Z" fill="#5A68AF"/>
<path d="M50.2081 12.5085V9.38138H48.6397V7.81782H47.0713V6.25426H45.503V4.69069H43.9346V3.12713H42.3662V1.56356H37.661V0H26.6831V1.56356H21.9779V3.12713H20.4095V4.69069H18.8412V6.25426H17.2728V7.81782H15.7044V9.38138H14.136V14.0721H12.5684V25.0163H14.136V29.707H15.7044V31.2705H17.2728V32.8341H18.8412V34.3977H20.4095V35.9612H21.9779V37.5248H25.1147V39.0884H39.2294V37.5248H42.3662V35.9612H43.9346V34.3977H45.503V32.8341H47.0713V31.2705H48.6397V29.707H50.2081V26.5798H51.7765V12.5085H50.2081Z" fill="#FDEB19"/>
<path d="M39.2305 37.5249H37.6621V39.0885H39.2305V37.5249Z" fill="#F7AC3D"/>
<path d="M37.6623 37.5249H26.6836V39.0885H37.6623V37.5249Z" fill="#F4960A"/>
<path d="M26.6836 37.5249H25.1152V39.0885H26.6836V37.5249Z" fill="#F7AC3D"/>
<path d="M42.3672 35.9614H39.2305V37.525H42.3672V35.9614Z" fill="#F4960A"/>
<path d="M39.2305 35.9614H37.6621V37.525H39.2305V35.9614Z" fill="#FFD101"/>
<path d="M26.6836 35.9614H25.1152V37.525H26.6836V35.9614Z" fill="#FAB60A"/>
<path d="M25.1153 35.9614H23.5469V37.525H25.1153V35.9614Z" fill="#F4960A"/>
<path d="M23.5449 35.9614H21.9766V37.525H23.5449V35.9614Z" fill="#F7AC3D"/>
<path d="M43.9336 34.3975H42.3652V35.961H43.9336V34.3975Z" fill="#F4960A"/>
<path d="M42.3653 34.3975H40.7969V35.961H42.3653V34.3975Z" fill="#FFEB0F"/>
<path d="M23.5449 34.3975H21.9766V35.961H23.5449V34.3975Z" fill="#FFD000"/>
<path d="M21.9785 34.3975H20.4102V35.961H21.9785V34.3975Z" fill="#F4960A"/>
<path d="M45.502 32.834H43.9336V34.3975H45.502V32.834Z" fill="#F4960A"/>
<path d="M20.4082 32.834H18.8398V34.3975H20.4082V32.834Z" fill="#F4960A"/>
<path d="M47.0703 31.2705H45.502V32.8341H47.0703V31.2705Z" fill="#F4960A"/>
<path d="M18.8418 31.2705H17.2734V32.8341H18.8418V31.2705Z" fill="#F4960A"/>
<path d="M48.6407 29.7075H47.0723V31.2711H48.6407V29.7075Z" fill="#F4960A"/>
<path d="M37.6623 29.7075H28.252V31.2711H37.6623V29.7075Z" fill="#F4960A"/>
<path d="M28.252 29.7075H26.6836V31.2711H28.252V29.7075Z" fill="#F49807"/>
<path d="M17.2735 29.7075H15.7051V31.2711H17.2735V29.7075Z" fill="#F4960A"/>
<path d="M50.209 28.1436H48.6406V29.7071H50.209V28.1436Z" fill="#FAB95E"/>
<path d="M40.7989 28.1436H39.2305V29.7071H40.7989V28.1436Z" fill="#FFE703"/>
<path d="M39.2305 28.1436H37.6621V29.7071H39.2305V28.1436Z" fill="#F4960A"/>
<path d="M26.6836 28.1436H25.1152V29.7071H26.6836V28.1436Z" fill="#F4960A"/>
<path d="M17.2735 28.1436H15.7051V29.7071H17.2735V28.1436Z" fill="#FFD301"/>
<path d="M15.7051 28.1436H14.1367V29.7071H15.7051V28.1436Z" fill="#F7AC3D"/>
<path d="M50.209 26.5796H48.6406V28.1432H50.209V26.5796Z" fill="#F4960A"/>
<path d="M42.3653 26.5796H40.7969V28.1432H42.3653V26.5796Z" fill="#F6A306"/>
<path d="M40.7989 26.5796H39.2305V28.1432H40.7989V26.5796Z" fill="#F4960A"/>
<path d="M25.1153 26.5796H23.5469V28.1432H25.1153V26.5796Z" fill="#F4960A"/>
<path d="M23.5449 26.5796H21.9766V28.1432H23.5449V26.5796Z" fill="#F9B757"/>
<path d="M15.7051 25.0166H14.1367V28.1437H15.7051V25.0166Z" fill="#F4960A"/>
<path d="M51.7774 25.0166H50.209V26.5802H51.7774V25.0166Z" fill="#F7AC3D"/>
<path d="M50.209 25.0166H48.6406V26.5802H50.209V25.0166Z" fill="#FFCD00"/>
<path d="M42.3653 25.0166H40.7969V26.5802H42.3653V25.0166Z" fill="#F4960A"/>
<path d="M23.5449 26.5803H26.6817V25.0167H25.1133V23.4532H26.6817V21.8896H25.1133V20.3268H26.6817V18.7632H25.1133V17.1997H26.6817V15.6361H25.1133V14.0725H26.6817V12.509H28.2501V10.9454H31.3869V9.38184H26.6817V10.9454H25.1133V12.509H23.5449V14.0725H21.9766V25.0167H23.5449V26.5803Z" fill="#FFF37F"/>
<path d="M23.5449 25.0166H21.9766V26.5802H23.5449V25.0166Z" fill="#F4960A"/>
<path d="M21.9785 23.4526H20.4102V25.0162H21.9785V23.4526Z" fill="#FCBD02"/>
<path d="M43.9336 15.6357H42.3652V25.0171H43.9336V15.6357Z" fill="#F4960A"/>
<path d="M21.9785 15.6357H20.4102V23.4536H21.9785V15.6357Z" fill="#F4960A"/>
<path d="M14.1367 14.0723H12.5684V25.0172H14.1367V14.0723Z" fill="#F4960A"/>
<path d="M37.6621 15.6357V17.1993H39.2305V18.7629H40.7989V15.6357H37.6621Z" fill="#F2F2F2"/>
<path d="M51.7774 14.0723H50.209V25.0172H51.7774V14.0723Z" fill="#F4960A"/>
<path d="M43.9336 14.0723H42.3652V15.6358H43.9336V14.0723Z" fill="#F59C06"/>
<path d="M21.9785 14.0723H20.4102V15.6358H21.9785V14.0723Z" fill="#F9B757"/>
<path d="M51.7774 12.5083H50.209V14.0719H51.7774V12.5083Z" fill="#F7AC3D"/>
<path d="M50.209 12.5083H48.6406V14.0719H50.209V12.5083Z" fill="#F9AE05"/>
<path d="M42.3653 12.5083H40.7969V14.0719H42.3653V12.5083Z" fill="#F4960A"/>
<path d="M23.5449 12.5083H21.9766V14.0719H23.5449V12.5083Z" fill="#F4960A"/>
<path d="M15.7051 10.9448H14.1367V14.072H15.7051V10.9448Z" fill="#F4960A"/>
<path d="M50.209 10.9448H48.6406V12.5084H50.209V10.9448Z" fill="#F4960A"/>
<path d="M42.3653 10.9448H40.7969V12.5084H42.3653V10.9448Z" fill="#F9B757"/>
<path d="M40.7989 10.9448H39.2305V12.5084H40.7989V10.9448Z" fill="#F4960A"/>
<path d="M25.1153 10.9448H23.5469V12.5084H25.1153V10.9448Z" fill="#F4960A"/>
<path d="M50.209 9.38184H48.6406V10.9454H50.209V9.38184Z" fill="#F9B757"/>
<path d="M40.7989 9.38184H39.2305V10.9454H40.7989V9.38184Z" fill="#F9B757"/>
<path d="M39.2305 9.38184H37.6621V10.9454H39.2305V9.38184Z" fill="#F4960A"/>
<path d="M26.6836 9.38184H25.1152V10.9454H26.6836V9.38184Z" fill="#F4960A"/>
<path d="M17.2735 9.38184H15.7051V10.9454H17.2735V9.38184Z" fill="#FFD500"/>
<path d="M15.7051 9.38184H14.1367V10.9454H15.7051V9.38184Z" fill="#F7AC3D"/>
<path d="M48.6407 7.81787H47.0723V9.38144H48.6407V7.81787Z" fill="#F4960A"/>
<path d="M37.6602 7.81787H36.0918V9.38144H37.6602V7.81787Z" fill="#FDC602"/>
<path d="M36.0939 7.81787H28.252V9.38144H36.0939V7.81787Z" fill="#F4960A"/>
<path d="M28.252 7.81787H26.6836V9.38144H28.252V7.81787Z" fill="#F9B757"/>
<path d="M17.2735 7.81787H15.7051V9.38144H17.2735V7.81787Z" fill="#F4960A"/>
<path d="M47.0703 6.25391H45.502V7.81747H47.0703V6.25391Z" fill="#F4960A"/>
<path d="M18.8418 6.25391H17.2734V7.81747H18.8418V6.25391Z" fill="#F4960A"/>
<path d="M45.502 4.69092H43.9336V6.25448H45.502V4.69092Z" fill="#F4960A"/>
<path d="M20.4082 4.69092H18.8398V6.25448H20.4082V4.69092Z" fill="#F4960A"/>
<path d="M43.9336 3.12695H42.3652V4.69052H43.9336V3.12695Z" fill="#F4960A"/>
<path d="M42.3653 3.12695H40.7969V4.69052H42.3653V3.12695Z" fill="#FEEB15"/>
<path d="M23.5449 3.12695H21.9766V4.69052H23.5449V3.12695Z" fill="#FFD301"/>
<path d="M21.9785 3.12695H20.4102V4.69052H21.9785V3.12695Z" fill="#F4960A"/>
<path d="M42.3653 1.56348H40.7969V3.12704H42.3653V1.56348Z" fill="#F7AC3D"/>
<path d="M40.7989 1.56348H37.6621V3.12704H40.7989V1.56348Z" fill="#F4960A"/>
<path d="M26.6836 1.56348H23.5469V3.12704H26.6836V1.56348Z" fill="#F4960A"/>
<path d="M23.5449 1.56348H21.9766V3.12704H23.5449V1.56348Z" fill="#F7AC3D"/>
<path d="M37.6623 0H28.252V1.56356H37.6623V0Z" fill="#F4960A"/>
<path d="M28.252 0H26.6836V1.56356H28.252V0Z" fill="#F4980A"/>
<path d="M21.9208 68.3027L22.8097 70.3039H38.589L43.4783 64.9673V61.6319L44.5895 61.1872L44.3673 43.8432H43.4783V42.2867H37.0333L36.5888 40.5078H30.366V38.9513H27.2546L25.2544 40.5078V24.498L23.6987 22.2744H20.8096L18.8094 24.498V48.068L15.4757 46.2892L14.1423 44.7327L13.0311 44.2879L7.91951 43.8432L7.69727 46.7339L9.03072 49.1798L10.5864 50.9587L11.9199 52.2929L15.0313 55.4059L15.4757 58.5189L17.6982 61.4096L18.8094 62.0767L19.2539 64.9673L21.9208 68.3027Z" fill="#FBD914"/>
<path d="M10.4801 49.4219H9.08789V51.5101H10.4801V49.4219Z" fill="#111110"/>
<path d="M9.08824 46.1733H8.23401V44.5493H7V46.1733V47.7974H8.04432V49.4219H9.08824V47.7974V46.1733Z" fill="#111110"/>
<path d="M43.9953 42.9945V41.3473H42.7066H41.4174H40.1282H38.8394H37.5502V39.7001H36.261H34.9723H33.6831H32.3939H31.1052V38.0523H29.816H28.5268H27.2381H25.9489V36.4051V34.7579V33.1102V31.4629V29.8157V28.168V26.5208V24.8736V23.2258H24.6597V21.5786H23.371H22.0818H20.7926H19.5039V23.2258H18.2147V24.8736V26.5208V28.168V29.8157V31.4629V33.1102V34.7579V36.4051V38.0523V39.7001V41.3473V42.9945V44.6422V46.2895H16.9255H15.6368V47.9367H16.9255V49.5844H18.2147V51.2316H19.5039V49.5844V47.9367V46.2895V44.6422V42.9945V41.3473V39.7001V38.0523V36.4051V34.7579V33.1102V31.4629V29.8157V28.168V26.5208V24.8736H20.7926V23.2258H22.0818H23.371V24.8736H24.6597V26.5208V28.168V29.8157V31.4629V33.1102V34.7579V36.4051V38.0523V39.7001V41.3473V42.9945V44.6422V46.2895V47.9367H25.9489V46.2895V44.6422V42.9945V41.3473H27.2381V39.7001H28.5268H29.816V41.3473H31.1052V42.9945V44.6422V46.2895V47.9367H32.3939V46.2895V44.6422V42.9945V41.3473H33.6831H34.9723H36.261V42.9945H37.5502V44.6422V46.2895V47.9367H38.8394V46.2895V44.6422V42.9945H40.1282H41.4174H42.7066V44.6422H43.9953V46.2895V47.9367V49.5844V51.2316V52.8788V54.5266V56.1738V57.821V59.4687H42.7066V61.116V62.7632V64.4109H41.4174V66.0581H40.1282V67.7054H38.8394V69.3531H37.5502H36.261H34.9723H33.6831H32.3939H31.1052H29.816H28.5268H27.2381H25.9489H24.6597H23.371V67.7054H22.0818V66.0581H20.7926V64.4109H19.5039V62.7632V61.116H18.2147V59.4687H16.9255V57.821H15.6368V56.1738V54.5266H14.3476V52.8788H13.0584V51.2316H11.7697H10.4805V52.8788H11.7697V54.5266H13.0584V56.1738H14.3476V57.821V59.4687H15.6368V61.116H16.9255V62.7632H18.2147V64.4109V66.0581H19.5039V67.7054H20.7926V69.3531H22.0818V71.0003H23.371H24.6597H25.9489H27.2381H28.5268H29.816H31.1052H32.3939H33.6831H34.9723H36.261H37.5502H38.8394H40.1282V69.3531H41.4174V67.7054H42.7066V66.0581H43.9953V64.4109V62.7632H45.2845V61.116V59.4687V57.821V56.1738V54.5266V52.8788V51.2316V49.5844V47.9367V46.2895V44.6422V42.9945H43.9953Z" fill="#111110"/>
<path d="M10.5872 44.7395H11.779H12.9704V46.6372H14.1623H15.3541V44.7395H14.1623V42.8413H12.9704H11.779V41.7646H9.73115V42.8413H9.39533H7.69727V44.7395H9.39533H10.5872Z" fill="#111110"/>
</svg>
