<svg width="229" height="142" viewBox="0 0 229 142" fill="none" xmlns="http://www.w3.org/2000/svg">
<path d="M212.33 65.19L191.22 4.89L189.86 1L188.57 5.02L176.75 42.1L157.61 15.79L155.19 12.46L153.35 16.54L134.23 58.92L118.39 27.74L114.4 19.86L111.15 28.55L96.05 69.03L83.81 43.49L77.34 29.99L73.67 45.49L59.29 106.04L37.46 75.32L30.1 64.97L25.08 77.94L1 140.71H19.55L34.34 99.56L57.42 129.62L65.83 140.57L68.85 125.89L81.35 65.02L92.39 86.2L97.54 96.08L101.15 85.37L115.83 41.86L131.51 70.28L134.84 76.33L137.48 69.92L156.37 24.09L175.96 49L178.29 51.97L179.4 48.07L190.12 10.44L211.88 66.77L212.3 67.84L212.7 66.79L223.11 39.2L212.33 65.19Z" fill="#9CCF82" stroke="#764B30" stroke-linecap="round" stroke-linejoin="round"/>
<g style="mix-blend-mode:soft-light">
<path d="M24.6137 89.3095L24.6132 89.3109L5.08629 140.21H1.72734L25.5463 78.1205L25.5468 78.1191L30.2309 66.0169L37.0524 75.6096L37.0525 75.6098L58.8824 106.33L59.5215 107.229L59.7765 106.156L74.1565 45.6055L74.1565 45.6052L77.5006 31.4819L83.3591 43.7061L95.5991 69.2461L96.1074 70.3067L96.5185 69.2048L111.618 28.7251L111.618 28.7248L114.469 21.103L117.944 27.9659L117.944 27.9665L133.784 59.1465L134.257 60.0766L134.686 59.1256L153.806 16.7456L153.35 16.54L153.806 16.7456L155.292 13.4506L157.206 16.0839L157.206 16.0841L176.346 42.3941L176.927 43.1926L177.226 42.2519L189.046 5.17277L189.046 5.17185L189.88 2.57311L190.748 5.05501L190.748 5.05521L202.84 39.5948L190.852 5.55391L190.351 4.13174L189.903 5.57138L177.334 45.9438L156.091 17.4213L155.561 16.7099L155.227 17.5316L134.18 69.2669L118.836 39.0641L118.836 39.0635L114.846 31.1841L114.331 30.167L113.932 31.2349L110.682 39.9249L110.682 39.9252L95.9926 79.3033L84.2609 54.8239L77.7909 41.3239L77.1794 40.0481L76.8534 41.4248L73.1835 56.9245L73.1834 56.9248L59.0585 116.401L37.8676 86.5804L37.8675 86.5802L30.5075 76.2302L29.9691 75.4731L29.6337 76.3395L24.6137 89.3095Z" fill="white"/>
<path d="M24.6137 89.3095L24.6132 89.3109L5.08629 140.21H1.72734L25.5463 78.1205L25.5468 78.1191L30.2309 66.0169L37.0524 75.6096L37.0525 75.6098L58.8824 106.33L59.5215 107.229L59.7765 106.156L74.1565 45.6055L74.1565 45.6052L77.5006 31.4819L83.3591 43.7061L95.5991 69.2461L96.1074 70.3067L96.5185 69.2048L111.618 28.7251L111.618 28.7248L114.469 21.103L117.944 27.9659L117.944 27.9665L133.784 59.1465L134.257 60.0766L134.686 59.1256L153.806 16.7456L153.35 16.54L153.806 16.7456L155.292 13.4506L157.206 16.0839L157.206 16.0841L176.346 42.3941L176.927 43.1926L177.226 42.2519L189.046 5.17277L189.046 5.17185L189.88 2.57311L190.748 5.05501L190.748 5.05521L202.84 39.5948L190.852 5.55391L190.351 4.13174L189.903 5.57138L177.334 45.9438L156.091 17.4213L155.561 16.7099L155.227 17.5316L134.18 69.2669L118.836 39.0641L118.836 39.0635L114.846 31.1841L114.331 30.167L113.932 31.2349L110.682 39.9249L110.682 39.9252L95.9926 79.3033L84.2609 54.8239L77.7909 41.3239L77.1794 40.0481L76.8534 41.4248L73.1835 56.9245L73.1834 56.9248L59.0585 116.401L37.8676 86.5804L37.8675 86.5802L30.5075 76.2302L29.9691 75.4731L29.6337 76.3395L24.6137 89.3095Z" stroke="#764B30"/>
</g>
<path d="M227.6 27.8398L227.95 39.1598L228.3 50.4898L222.65 40.2598L213.02 39.9898L220.31 33.9098L227.6 27.8398Z" fill="#9CCF82" stroke="#971A3A" stroke-linecap="round" stroke-linejoin="round"/>
<g style="mix-blend-mode:soft-light">
<path d="M219.38 37.8698L226.67 31.7898L227.02 43.1198L228.3 50.4898L227.95 39.1598L227.6 27.8398L220.31 33.9098L213.02 39.9898L219.38 37.8698Z" fill="white"/>
</g>
</svg>
