<svg width="77" height="69" viewBox="0 0 77 69" fill="none" xmlns="http://www.w3.org/2000/svg">
<path d="M64.4389 63.6322C63.8893 63.2696 63.2837 63.0119 62.7105 62.6896C62.3387 62.4801 61.9426 62.2948 61.6199 62.0289C61.0703 61.5778 61.1834 60.6916 61.7573 60.3049C62.5811 59.7571 63.9459 60.0632 64.0914 61.1831C64.0914 61.2072 64.1156 61.2234 64.1399 61.2234H65.384C65.4163 61.2234 65.4406 61.1992 65.4325 61.167C65.3678 60.3935 65.0687 59.749 64.5197 59.3381C63.9944 58.9434 63.3969 58.7339 62.7583 58.7339C59.4712 58.7339 59.1721 62.2062 60.941 63.3019C61.143 63.4308 62.8796 64.3009 63.4939 64.6795C64.1075 65.0582 64.3015 65.751 64.0348 66.2989C63.7923 66.7984 63.1625 67.1448 62.5326 67.1045C61.8456 67.0642 61.3128 66.6937 61.1269 66.1136C61.0945 66.0089 61.0784 65.8074 61.0784 65.7188C61.0784 65.6946 61.0541 65.6705 61.0299 65.6705H59.6813C59.6571 65.6705 59.6328 65.6946 59.6328 65.7188C59.6328 66.6937 59.8753 67.2334 60.5375 67.7249C61.1592 68.1921 61.8375 68.3855 62.5407 68.3855C64.3823 68.3855 65.3355 67.3462 65.5288 66.2667C65.6986 65.2112 65.384 64.2606 64.4389 63.6322Z" fill="white"/>
<path d="M5.87066 58.9111H5.27297H4.61871C4.59446 58.9111 4.57829 58.9272 4.57021 58.9434L3.46369 62.5849C3.44752 62.6332 3.38292 62.6332 3.36676 62.5849L2.26017 58.9434C2.25209 58.9192 2.23592 58.9111 2.21167 58.9111H1.55747H0.959722H0.152011C0.127763 58.9111 0.103516 58.9353 0.103516 58.9595V68.2566C0.103516 68.2807 0.127763 68.3049 0.152011 68.3049H1.50089C1.52514 68.3049 1.54939 68.2807 1.54939 68.2566V61.1911C1.54939 61.1347 1.63015 61.1267 1.64632 61.175L2.76093 64.8407L2.84169 65.0985C2.84977 65.1226 2.86594 65.1307 2.89019 65.1307H3.92409C3.94828 65.1307 3.96444 65.1146 3.97252 65.0985L4.05329 64.8407L5.16796 61.175C5.18412 61.1186 5.26489 61.1347 5.26489 61.1911V68.2566C5.26489 68.2807 5.28913 68.3049 5.31332 68.3049H6.66226C6.68645 68.3049 6.7107 68.2807 6.7107 68.2566V58.9595C6.7107 58.9353 6.68645 58.9111 6.66226 58.9111H5.87066Z" fill="white"/>
<path d="M43.7863 58.9111C43.7621 58.9111 43.7459 58.9272 43.7378 58.9434L42.6318 62.5849C42.6156 62.6332 42.5509 62.6332 42.5348 62.5849L41.4281 58.9434C41.42 58.9192 41.4038 58.9111 41.3796 58.9111H39.3278C39.3035 58.9111 39.2793 58.9353 39.2793 58.9595V68.2566C39.2793 68.2807 39.3035 68.3049 39.3278 68.3049H40.677C40.7012 68.3049 40.7255 68.2807 40.7255 68.2566V61.1911C40.7255 61.1347 40.8063 61.1267 40.8225 61.175L41.9366 64.8407L42.0175 65.0985C42.0256 65.1226 42.0417 65.1307 42.066 65.1307H43.0999C43.1242 65.1307 43.1403 65.1146 43.1484 65.0985L43.2293 64.8407L44.344 61.175C44.3602 61.1186 44.441 61.1347 44.441 61.1911V68.2566C44.441 68.2807 44.4653 68.3049 44.4895 68.3049H45.8381C45.8624 68.3049 45.8866 68.2807 45.8866 68.2566V58.9595C45.8866 58.9353 45.8624 58.9111 45.8381 58.9111H43.7863Z" fill="white"/>
<path d="M26.3862 58.9111H23.8742H22.5253H20.0133C19.9891 58.9111 19.9648 58.9353 19.9648 58.9595V60.1196C19.9648 60.1438 19.9891 60.1679 20.0133 60.1679H22.4769V68.2566C22.4769 68.2807 22.5011 68.3049 22.5253 68.3049H23.8742C23.8984 68.3049 23.9227 68.2807 23.9227 68.2566V60.1679H26.3862C26.4105 60.1679 26.4347 60.1438 26.4347 60.1196V58.9595C26.4347 58.9353 26.4186 58.9111 26.3862 58.9111Z" fill="white"/>
<path d="M34.3433 68.3049H35.5706C35.603 68.3049 35.6272 68.2727 35.6191 68.2405L33.083 58.9111C33.0749 58.887 33.0588 58.8789 33.0345 58.8789H32.5662H31.7423H31.2738C31.2495 58.8789 31.2334 58.895 31.2253 58.9111L28.6891 68.2405C28.681 68.2727 28.7052 68.3049 28.7376 68.3049H29.9653C29.9895 68.3049 30.0057 68.2888 30.0138 68.2727L30.7488 65.5577C30.7568 65.5335 30.773 65.5255 30.7972 65.5255H33.5114C33.5356 65.5255 33.5518 65.5416 33.5599 65.5577L34.2948 68.2727C34.3029 68.2888 34.3271 68.3049 34.3433 68.3049ZM31.1203 64.1962L32.1058 60.5627C32.1219 60.5144 32.1865 60.5144 32.2027 60.5627L33.1881 64.1962C33.1962 64.2284 33.1719 64.2606 33.1396 64.2606H31.1688C31.1365 64.2606 31.1123 64.2284 31.1203 64.1962Z" fill="white"/>
<path d="M55.2788 68.3049H56.5061C56.5384 68.3049 56.5627 68.2727 56.5546 68.2405L54.0185 58.9111C54.0104 58.887 53.9943 58.8789 53.97 58.8789H53.5018H52.678H52.2092C52.185 58.8789 52.1688 58.895 52.1607 58.9111L49.6246 68.2405C49.6165 68.2727 49.6408 68.3049 49.6731 68.3049H50.9011C50.9253 68.3049 50.9415 68.2888 50.9496 68.2727L51.6845 65.5577C51.6925 65.5335 51.7087 65.5255 51.733 65.5255H54.4469C54.4711 65.5255 54.4873 65.5416 54.4954 65.5577L55.2303 68.2727C55.2384 68.2888 55.2545 68.3049 55.2788 68.3049ZM52.0556 64.1962L53.0411 60.5627C53.0573 60.5144 53.1219 60.5144 53.1381 60.5627L54.1236 64.1962C54.1317 64.2284 54.1074 64.2606 54.0751 64.2606H52.1041C52.0718 64.2606 52.0476 64.2284 52.0556 64.1962Z" fill="white"/>
<path d="M12.188 66.927V64.0428C12.188 64.0187 12.2122 63.9945 12.2365 63.9945H15.8308C15.8551 63.9945 15.8793 63.9703 15.8793 63.9461V62.786C15.8793 62.7619 15.8551 62.7377 15.8308 62.7377H12.2365C12.2122 62.7377 12.188 62.7135 12.188 62.6893V60.2241C12.188 60.1999 12.2122 60.1757 12.2365 60.1757H16.3235C16.3478 60.1757 16.372 60.1516 16.372 60.1274V58.9673C16.372 58.9431 16.3478 58.9189 16.3235 58.9189H12.188H10.7907C10.7664 58.9189 10.7422 58.9431 10.7422 58.9673V60.1757V62.7457V64.0026V66.9834V68.2563C10.7422 68.2805 10.7664 68.3047 10.7907 68.3047H12.188H16.4932C16.5174 68.3047 16.5417 68.2805 16.5417 68.2563V67.0318C16.5417 67.0076 16.5174 66.9834 16.4932 66.9834H12.2284C12.2042 66.9754 12.188 66.9592 12.188 66.927Z" fill="white"/>
<path d="M76.7641 68.2241L72.0954 63.4144C72.0792 63.3983 72.0792 63.3661 72.0954 63.35L76.2959 58.9995C76.3282 58.9673 76.304 58.9189 76.2636 58.9189H74.5432C74.527 58.9189 74.519 58.927 74.5109 58.9351L70.9489 62.6249C70.9166 62.6571 70.8681 62.6329 70.8681 62.5927V58.9673C70.8681 58.9431 70.8438 58.9189 70.8196 58.9189H69.4704C69.4461 58.9189 69.4219 58.9431 69.4219 58.9673V68.2644C69.4219 68.2886 69.4461 68.3128 69.4704 68.3128H70.8196C70.8438 68.3128 70.8681 68.2886 70.8681 68.2644V64.1718C70.8681 64.1315 70.9246 64.1073 70.9489 64.1395L74.9871 68.2966C74.9952 68.3047 75.0114 68.3128 75.0195 68.3128H76.7398C76.7722 68.3047 76.7964 68.2483 76.7641 68.2241Z" fill="white"/>
<path d="M59.1885 0.797852L41.0703 14.204L44.4395 6.30333L59.1885 0.797852Z" fill="#E17726" stroke="#E17726" stroke-width="0.25" stroke-linecap="round" stroke-linejoin="round"/>
<path d="M17.3965 0.797852L35.3534 14.3291L32.1455 6.30332L17.3965 0.797852Z" fill="#E27625" stroke="#E27625" stroke-width="0.25" stroke-linecap="round" stroke-linejoin="round"/>
<path d="M52.6645 31.8818L47.8438 39.2463L58.1662 42.0885L61.1233 32.0428L52.6645 31.8818Z" fill="#E27625" stroke="#E27625" stroke-width="0.25" stroke-linecap="round" stroke-linejoin="round"/>
<path d="M15.4805 32.0428L18.4195 42.0885L28.7241 39.2463L23.9213 31.8818L15.4805 32.0428Z" fill="#E27625" stroke="#E27625" stroke-width="0.25" stroke-linecap="round" stroke-linejoin="round"/>
<path d="M28.1681 19.4413L25.3008 23.7671L35.5157 24.2318L35.1753 13.2388L28.1681 19.4413Z" fill="#E27625" stroke="#E27625" stroke-width="0.25" stroke-linecap="round" stroke-linejoin="round"/>
<path d="M48.4178 19.441L41.3033 13.1133L41.0703 24.2315L51.2852 23.7667L48.4178 19.441Z" fill="#E27625" stroke="#E27625" stroke-width="0.25" stroke-linecap="round" stroke-linejoin="round"/>
<path d="M28.7227 39.2468L34.9053 36.2617L29.5829 32.1147L28.7227 39.2468Z" fill="#E27625" stroke="#E27625" stroke-width="0.25" stroke-linecap="round" stroke-linejoin="round"/>
<path d="M41.6797 36.2617L47.8444 39.2468L47.0021 32.1147L41.6797 36.2617Z" fill="#E27625" stroke="#E27625" stroke-width="0.25" stroke-linecap="round" stroke-linejoin="round"/>
<path d="M47.8444 39.2463L41.6797 36.2612L42.1814 40.2652L42.1276 41.9633L47.8444 39.2463Z" fill="#D5BFB2" stroke="#D5BFB2" stroke-width="0.25" stroke-linecap="round" stroke-linejoin="round"/>
<path d="M28.7227 39.2463L34.4574 41.9633L34.4216 40.2652L34.9053 36.2612L28.7227 39.2463Z" fill="#D5BFB2" stroke="#D5BFB2" stroke-width="0.25" stroke-linecap="round" stroke-linejoin="round"/>
<path d="M34.5649 29.4685L29.4395 27.9671L33.0595 26.3047L34.5649 29.4685Z" fill="#233447" stroke="#233447" stroke-width="0.25" stroke-linecap="round" stroke-linejoin="round"/>
<path d="M42.0195 29.4685L43.525 26.3047L47.1629 27.9671L42.0195 29.4685Z" fill="#233447" stroke="#233447" stroke-width="0.25" stroke-linecap="round" stroke-linejoin="round"/>
<path d="M28.7227 39.2463L29.6188 31.8818L23.9199 32.0428L28.7227 39.2463Z" fill="#CC6228" stroke="#CC6228" stroke-width="0.25" stroke-linecap="round" stroke-linejoin="round"/>
<path d="M46.9668 31.8818L47.845 39.2463L52.6657 32.0428L46.9668 31.8818Z" fill="#CC6228" stroke="#CC6228" stroke-width="0.25" stroke-linecap="round" stroke-linejoin="round"/>
<path d="M51.2852 23.7666L41.0703 24.2313L42.0201 29.4688L43.5255 26.3048L47.1635 27.9672L51.2852 23.7666Z" fill="#CC6228" stroke="#CC6228" stroke-width="0.25" stroke-linecap="round" stroke-linejoin="round"/>
<path d="M29.4405 27.9672L33.0605 26.3048L34.566 29.4688L35.5157 24.2313L25.3008 23.7666L29.4405 27.9672Z" fill="#CC6228" stroke="#CC6228" stroke-width="0.25" stroke-linecap="round" stroke-linejoin="round"/>
<path d="M25.3008 23.7666L29.5839 32.1142L29.4405 27.9672L25.3008 23.7666Z" fill="#E27525" stroke="#E27525" stroke-width="0.25" stroke-linecap="round" stroke-linejoin="round"/>
<path d="M47.1652 27.9672L47.0039 32.1142L51.287 23.7666L47.1652 27.9672Z" fill="#E27525" stroke="#E27525" stroke-width="0.25" stroke-linecap="round" stroke-linejoin="round"/>
<path d="M35.5163 24.2314L34.5664 29.4689L35.7671 35.6535L36.036 27.5026L35.5163 24.2314Z" fill="#E27525" stroke="#E27525" stroke-width="0.25" stroke-linecap="round" stroke-linejoin="round"/>
<path d="M41.0722 24.2314L40.5703 27.4848L40.8212 35.6535L42.0219 29.4689L41.0722 24.2314Z" fill="#E27525" stroke="#E27525" stroke-width="0.25" stroke-linecap="round" stroke-linejoin="round"/>
<path d="M42.021 29.4688L40.8203 35.6535L41.6806 36.2613L47.0031 32.1143L47.1644 27.9673L42.021 29.4688Z" fill="#F5841F" stroke="#F5841F" stroke-width="0.25" stroke-linecap="round" stroke-linejoin="round"/>
<path d="M29.4395 27.9673L29.5829 32.1143L34.9054 36.2613L35.7656 35.6535L34.5649 29.4688L29.4395 27.9673Z" fill="#F5841F" stroke="#F5841F" stroke-width="0.25" stroke-linecap="round" stroke-linejoin="round"/>
<path d="M42.1276 41.9636L42.1813 40.2655L41.7154 39.8722H34.8696L34.4216 40.2655L34.4574 41.9636L28.7227 39.2466L30.7298 40.8911L34.7979 43.6975H41.7691L45.8551 40.8911L47.8443 39.2466L42.1276 41.9636Z" fill="#C0AC9D" stroke="#C0AC9D" stroke-width="0.25" stroke-linecap="round" stroke-linejoin="round"/>
<path d="M41.6799 36.2615L40.8196 35.6538H35.7659L34.9058 36.2615L34.4219 40.2655L34.8699 39.8723H41.7157L42.1817 40.2655L41.6799 36.2615Z" fill="#161616" stroke="#161616" stroke-width="0.25" stroke-linecap="round" stroke-linejoin="round"/>
<path d="M59.959 15.0799L61.4824 7.67969L59.1884 0.797852L41.6797 13.7572L48.4179 19.4414L57.9339 22.212L60.0307 19.7632L59.1168 19.1017L60.5683 17.7791L59.4573 16.921L60.9089 15.8128L59.959 15.0799Z" fill="#763E1A" stroke="#763E1A" stroke-width="0.25" stroke-linecap="round" stroke-linejoin="round"/>
<path d="M15.1035 7.67969L16.6447 15.0799L15.6591 15.8128L17.1286 16.921L16.0175 17.7791L17.4691 19.1017L16.5551 19.7632L18.6519 22.212L28.168 19.4414L34.9062 13.7572L17.3974 0.797852L15.1035 7.67969Z" fill="#763E1A" stroke="#763E1A" stroke-width="0.25" stroke-linecap="round" stroke-linejoin="round"/>
<path d="M57.9357 22.2115L48.4197 19.4409L51.287 23.7667L47.0039 32.1142L52.6669 32.0427H61.1256L57.9357 22.2115Z" fill="#F5841F" stroke="#F5841F" stroke-width="0.25" stroke-linecap="round" stroke-linejoin="round"/>
<path d="M28.1685 19.4409L18.6525 22.2115L15.4805 32.0427H23.9213L29.5842 32.1142L25.3012 23.7667L28.1685 19.4409Z" fill="#F5841F" stroke="#F5841F" stroke-width="0.25" stroke-linecap="round" stroke-linejoin="round"/>
<path d="M41.0731 24.2323L41.6824 13.7575L44.4422 6.30371H32.1484L34.9082 13.7575L35.5175 24.2323L35.7505 27.5212L35.7685 35.6543H40.8222L40.8401 27.5212L41.0731 24.2323Z" fill="#F5841F" stroke="#F5841F" stroke-width="0.25" stroke-linecap="round" stroke-linejoin="round"/>
</svg>
