<svg width="54" height="24" viewBox="0 0 54 24" fill="none" xmlns="http://www.w3.org/2000/svg">
<path d="M30.1429 2.31836H27.8242V4.63701H30.1429V2.31836Z" fill="#8FBC2E"/>
<path d="M30.1429 0H27.8242V2.31865H30.1429V0Z" fill="#5F8208"/>
<path d="M30.1429 20.8677H27.8242V23.1863H30.1429V20.8677Z" fill="#4F6801"/>
<path d="M30.1429 16.2305H27.8242V18.5491H30.1429V16.2305Z" fill="#8FBC2E"/>
<path d="M30.1429 4.63721H27.8242V6.95586H30.1429V4.63721Z" fill="#769929"/>
<path d="M30.1429 9.27441H27.8242V11.5931H30.1429V9.27441Z" fill="#769929"/>
<path d="M30.1429 6.95557H27.8242V9.27422H30.1429V6.95557Z" fill="#A4D85B"/>
<path d="M30.1429 11.5933H27.8242V13.9119H30.1429V11.5933Z" fill="#769929"/>
<path d="M30.1429 13.9116H27.8242V16.2303H30.1429V13.9116Z" fill="#769929"/>
<path d="M32.4612 11.5933H30.1426V13.9119H32.4612V11.5933Z" fill="#A4D85B"/>
<path d="M32.4612 13.9116H30.1426V16.2303H32.4612V13.9116Z" fill="#A4D85B"/>
<path d="M32.4612 16.2305H30.1426V18.5491H32.4612V16.2305Z" fill="#8FBC2E"/>
<path d="M32.4612 9.27441H30.1426V11.5931H32.4612V9.27441Z" fill="#A4D85B"/>
<path d="M32.4612 2.31836H30.1426V4.63701H32.4612V2.31836Z" fill="#8FBC2E"/>
<path d="M32.4612 6.95557H30.1426V9.27422H32.4612V6.95557Z" fill="#A4D85B"/>
<path d="M32.4612 4.63721H30.1426V6.95586H32.4612V4.63721Z" fill="#A4D85B"/>
<path d="M32.4612 18.5488H30.1426V20.8675H32.4612V18.5488Z" fill="#5F8208"/>
<path d="M32.4612 0H30.1426V2.31865H32.4612V0Z" fill="#5F8208"/>
<path d="M32.4612 20.8677H30.1426V23.1863H32.4612V20.8677Z" fill="#4F6801"/>
<path d="M27.8226 20.8677H25.5039V23.1863H27.8226V20.8677Z" fill="#4F6801"/>
<path d="M27.8226 18.5488H25.5039V20.8675H27.8226V18.5488Z" fill="#5F8208"/>
<path d="M27.8226 16.2305H25.5039V18.5491H27.8226V16.2305Z" fill="#8FBC2E"/>
<path d="M27.8226 4.63721H25.5039V6.95586H27.8226V4.63721Z" fill="#769929"/>
<path d="M27.8226 13.9116H25.5039V16.2303H27.8226V13.9116Z" fill="#769929"/>
<path d="M27.8226 9.27441H25.5039V11.5931H27.8226V9.27441Z" fill="#769929"/>
<path d="M27.8226 11.5933H25.5039V13.9119H27.8226V11.5933Z" fill="#A4D85B"/>
<path d="M27.8226 6.95557H25.5039V9.27422H27.8226V6.95557Z" fill="#A4D85B"/>
<path d="M27.8226 2.31836H25.5039V4.63701H27.8226V2.31836Z" fill="#8FBC2E"/>
<path d="M27.8226 0H25.5039V2.31865H27.8226V0Z" fill="#5F8208"/>
<path d="M37.098 13.9116H34.7793V16.2303H37.098V13.9116Z" fill="#A4D85B"/>
<path d="M37.098 16.2305H34.7793V18.5491H37.098V16.2305Z" fill="#8FBC2E"/>
<path d="M37.098 20.8677H34.7793V23.1863H37.098V20.8677Z" fill="#4F6801"/>
<path d="M37.098 18.5488H34.7793V20.8675H37.098V18.5488Z" fill="#5F8208"/>
<path d="M37.098 11.5933H34.7793V13.9119H37.098V11.5933Z" fill="#A4D85B"/>
<path d="M37.098 6.95557H34.7793V9.27422H37.098V6.95557Z" fill="#A4D85B"/>
<path d="M37.098 4.63721H34.7793V6.95586H37.098V4.63721Z" fill="#A4D85B"/>
<path d="M37.098 9.27441H34.7793V11.5931H37.098V9.27441Z" fill="#769929"/>
<path d="M37.098 2.31836H34.7793V4.63701H37.098V2.31836Z" fill="#8FBC2E"/>
<path d="M37.098 0H34.7793V2.31865H37.098V0Z" fill="#5F8208"/>
<path d="M34.7796 4.63721H32.4609V6.95586H34.7796V4.63721Z" fill="#A4D85B"/>
<path d="M34.7796 2.31836H32.4609V4.63701H34.7796V2.31836Z" fill="#8FBC2E"/>
<path d="M34.7796 0H32.4609V2.31865H34.7796V0Z" fill="#5F8208"/>
<path d="M34.7796 6.95557H32.4609V9.27422H34.7796V6.95557Z" fill="#A4D85B"/>
<path d="M34.7796 13.9116H32.4609V16.2303H34.7796V13.9116Z" fill="#A4D85B"/>
<path d="M34.7796 9.27441H32.4609V11.5931H34.7796V9.27441Z" fill="#A4D85B"/>
<path d="M34.7796 20.8677H32.4609V23.1863H34.7796V20.8677Z" fill="#4F6801"/>
<path d="M34.7796 11.5933H32.4609V13.9119H34.7796V11.5933Z" fill="#A4D85B"/>
<path d="M34.7796 16.2305H32.4609V18.5491H34.7796V16.2305Z" fill="#8FBC2E"/>
<path d="M34.7796 18.5488H32.4609V20.8675H34.7796V18.5488Z" fill="#5F8208"/>
<path d="M30.1429 18.5488H27.8242V20.8675H30.1429V18.5488Z" fill="#5F8208"/>
<path d="M13.9124 2.31836H11.5938V4.63701H13.9124V2.31836Z" fill="#8FBC2E"/>
<path d="M13.9124 4.63721H11.5938V6.95586H13.9124V4.63721Z" fill="#A4D85B"/>
<path d="M13.9124 6.95557H11.5938V9.27422H13.9124V6.95557Z" fill="#A4D85B"/>
<path d="M13.9124 0H11.5938V2.31865H13.9124V0Z" fill="#5F8208"/>
<path d="M4.63701 11.5933H2.31836V13.9119H4.63701V11.5933Z" fill="#8FBC2E"/>
<path d="M2.31865 11.5933H0V13.9119H2.31865V11.5933Z" fill="#5F8208"/>
<path d="M11.594 11.5933H9.27539V13.9119H11.594V11.5933Z" fill="#A4D85B"/>
<path d="M13.9124 9.27441H11.5938V11.5931H13.9124V9.27441Z" fill="#769929"/>
<path d="M6.95537 11.5933H4.63672V13.9119H6.95537V11.5933Z" fill="#A4D85B"/>
<path d="M13.9124 11.5933H11.5938V13.9119H13.9124V11.5933Z" fill="#A4D85B"/>
<path d="M9.27569 11.5933H6.95703V13.9119H9.27569V11.5933Z" fill="#A4D85B"/>
<path d="M16.2308 0H13.9121V2.31865H16.2308V0Z" fill="#5F8208"/>
<path d="M16.2308 6.95557H13.9121V9.27422H16.2308V6.95557Z" fill="#A4D85B"/>
<path d="M16.2308 4.63721H13.9121V6.95586H16.2308V4.63721Z" fill="#A4D85B"/>
<path d="M16.2308 9.27441H13.9121V11.5931H16.2308V9.27441Z" fill="#A4D85B"/>
<path d="M16.2308 2.31836H13.9121V4.63701H16.2308V2.31836Z" fill="#8FBC2E"/>
<path d="M16.2308 11.5933H13.9121V13.9119H16.2308V11.5933Z" fill="#A4D85B"/>
<path d="M2.31865 13.9116H0V16.2303H2.31865V13.9116Z" fill="#5F8208"/>
<path d="M4.63701 13.9116H2.31836V16.2303H4.63701V13.9116Z" fill="#8FBC2E"/>
<path d="M11.594 13.9116H9.27539V16.2303H11.594V13.9116Z" fill="#A4D85B"/>
<path d="M16.2308 13.9116H13.9121V16.2303H16.2308V13.9116Z" fill="#A4D85B"/>
<path d="M13.9124 13.9116H11.5938V16.2303H13.9124V13.9116Z" fill="#A4D85B"/>
<path d="M9.27569 13.9116H6.95703V16.2303H9.27569V13.9116Z" fill="#A4D85B"/>
<path d="M6.95537 13.9116H4.63672V16.2303H6.95537V13.9116Z" fill="#769929"/>
<path d="M2.31865 2.31836H0V4.63701H2.31865V2.31836Z" fill="#5F8208"/>
<path d="M4.63701 0H2.31836V2.31865H4.63701V0Z" fill="#5F8208"/>
<path d="M6.95537 2.31836H4.63672V4.63701H6.95537V2.31836Z" fill="#8FBC2E"/>
<path d="M6.95537 4.63721H4.63672V6.95586H6.95537V4.63721Z" fill="#769929"/>
<path d="M4.63701 4.63721H2.31836V6.95586H4.63701V4.63721Z" fill="#8FBC2E"/>
<path d="M6.95537 0H4.63672V2.31865H6.95537V0Z" fill="#5F8208"/>
<path d="M11.594 0H9.27539V2.31865H11.594V0Z" fill="#5F8208"/>
<path d="M4.63701 2.31836H2.31836V4.63701H4.63701V2.31836Z" fill="#8FBC2E"/>
<path d="M2.31865 0H0V2.31865H2.31865V0Z" fill="#5F8208"/>
<path d="M2.31865 4.63721H0V6.95586H2.31865V4.63721Z" fill="#5F8208"/>
<path d="M4.63701 9.27441H2.31836V11.5931H4.63701V9.27441Z" fill="#8FBC2E"/>
<path d="M9.27569 9.27441H6.95703V11.5931H9.27569V9.27441Z" fill="#A4D85B"/>
<path d="M2.31865 9.27441H0V11.5931H2.31865V9.27441Z" fill="#5F8208"/>
<path d="M11.594 4.63721H9.27539V6.95586H11.594V4.63721Z" fill="#A4D85B"/>
<path d="M11.594 2.31836H9.27539V4.63701H11.594V2.31836Z" fill="#8FBC2E"/>
<path d="M11.594 6.95557H9.27539V9.27422H11.594V6.95557Z" fill="#A4D85B"/>
<path d="M11.594 9.27441H9.27539V11.5931H11.594V9.27441Z" fill="#A4D85B"/>
<path d="M6.95537 9.27441H4.63672V11.5931H6.95537V9.27441Z" fill="#A4D85B"/>
<path d="M9.27569 2.31836H6.95703V4.63701H9.27569V2.31836Z" fill="#8FBC2E"/>
<path d="M9.27569 4.63721H6.95703V6.95586H9.27569V4.63721Z" fill="#A4D85B"/>
<path d="M9.27569 6.95557H6.95703V9.27422H9.27569V6.95557Z" fill="#A4D85B"/>
<path d="M9.27569 0H6.95703V2.31865H9.27569V0Z" fill="#5F8208"/>
<path d="M4.63701 6.95557H2.31836V9.27422H4.63701V6.95557Z" fill="#8FBC2E"/>
<path d="M2.31865 6.95557H0V9.27422H2.31865V6.95557Z" fill="#5F8208"/>
<path d="M6.95537 6.95557H4.63672V9.27422H6.95537V6.95557Z" fill="#A4D85B"/>
<path d="M13.9124 20.8677H11.5938V23.1863H13.9124V20.8677Z" fill="#4F6801"/>
<path d="M11.594 20.8677H9.27539V23.1863H11.594V20.8677Z" fill="#4F6801"/>
<path d="M23.1858 18.5488H20.8672V20.8675H23.1858V18.5488Z" fill="#5F8208"/>
<path d="M4.63701 20.8677H2.31836V23.1863H4.63701V20.8677Z" fill="#4F6801"/>
<path d="M9.27569 20.8677H6.95703V23.1863H9.27569V20.8677Z" fill="#4F6801"/>
<path d="M23.1858 20.8677H20.8672V23.1863H23.1858V20.8677Z" fill="#4F6801"/>
<path d="M20.8675 20.8677H18.5488V23.1863H20.8675V20.8677Z" fill="#4F6801"/>
<path d="M18.5491 20.8677H16.2305V23.1863H18.5491V20.8677Z" fill="#4F6801"/>
<path d="M16.2308 20.8677H13.9121V23.1863H16.2308V20.8677Z" fill="#4F6801"/>
<path d="M6.95537 20.8677H4.63672V23.1863H6.95537V20.8677Z" fill="#4F6801"/>
<path d="M23.1858 4.63721H20.8672V6.95586H23.1858V4.63721Z" fill="#A4D85B"/>
<path d="M23.1858 6.95557H20.8672V9.27422H23.1858V6.95557Z" fill="#A4D85B"/>
<path d="M23.1858 9.27441H20.8672V11.5931H23.1858V9.27441Z" fill="#A4D85B"/>
<path d="M23.1858 11.5933H20.8672V13.9119H23.1858V11.5933Z" fill="#A4D85B"/>
<path d="M23.1858 13.9116H20.8672V16.2303H23.1858V13.9116Z" fill="#A4D85B"/>
<path d="M23.1858 16.2305H20.8672V18.5491H23.1858V16.2305Z" fill="#8FBC2E"/>
<path d="M23.1858 0H20.8672V2.31865H23.1858V0Z" fill="#5F8208"/>
<path d="M23.1858 2.31836H20.8672V4.63701H23.1858V2.31836Z" fill="#8FBC2E"/>
<path d="M25.5062 0H23.1875V2.31865H25.5062V0Z" fill="#5F8208"/>
<path d="M25.5062 2.31836H23.1875V4.63701H25.5062V2.31836Z" fill="#8FBC2E"/>
<path d="M25.5062 4.63721H23.1875V6.95586H25.5062V4.63721Z" fill="#769929"/>
<path d="M25.5062 16.2305H23.1875V18.5491H25.5062V16.2305Z" fill="#8FBC2E"/>
<path d="M25.5062 20.8677H23.1875V23.1863H25.5062V20.8677Z" fill="#4F6801"/>
<path d="M25.5062 18.5488H23.1875V20.8675H25.5062V18.5488Z" fill="#5F8208"/>
<path d="M25.5062 13.9116H23.1875V16.2303H25.5062V13.9116Z" fill="#769929"/>
<path d="M25.5062 9.27441H23.1875V11.5931H25.5062V9.27441Z" fill="#769929"/>
<path d="M25.5062 6.95557H23.1875V9.27422H25.5062V6.95557Z" fill="#769929"/>
<path d="M25.5062 11.5933H23.1875V13.9119H25.5062V11.5933Z" fill="#A4D85B"/>
<path d="M18.5491 6.95557H16.2305V9.27422H18.5491V6.95557Z" fill="#A4D85B"/>
<path d="M9.27569 16.2305H6.95703V18.5491H9.27569V16.2305Z" fill="#8FBC2E"/>
<path d="M2.31865 16.2305H0V18.5491H2.31865V16.2305Z" fill="#5F8208"/>
<path d="M4.63701 16.2305H2.31836V18.5491H4.63701V16.2305Z" fill="#8FBC2E"/>
<path d="M11.594 16.2305H9.27539V18.5491H11.594V16.2305Z" fill="#8FBC2E"/>
<path d="M6.95537 16.2305H4.63672V18.5491H6.95537V16.2305Z" fill="#8FBC2E"/>
<path d="M18.5491 13.9116H16.2305V16.2303H18.5491V13.9116Z" fill="#A4D85B"/>
<path d="M18.5491 16.2305H16.2305V18.5491H18.5491V16.2305Z" fill="#8FBC2E"/>
<path d="M13.9124 16.2305H11.5938V18.5491H13.9124V16.2305Z" fill="#8FBC2E"/>
<path d="M16.2308 16.2305H13.9121V18.5491H16.2308V16.2305Z" fill="#8FBC2E"/>
<path d="M18.5491 11.5933H16.2305V13.9119H18.5491V11.5933Z" fill="#A4D85B"/>
<path d="M18.5491 9.27441H16.2305V11.5931H18.5491V9.27441Z" fill="#A4D85B"/>
<path d="M18.5491 0H16.2305V2.31865H18.5491V0Z" fill="#5F8208"/>
<path d="M18.5491 4.63721H16.2305V6.95586H18.5491V4.63721Z" fill="#A4D85B"/>
<path d="M18.5491 2.31836H16.2305V4.63701H18.5491V2.31836Z" fill="#8FBC2E"/>
<path d="M18.5491 18.5488H16.2305V20.8675H18.5491V18.5488Z" fill="#5F8208"/>
<path d="M20.8675 18.5488H18.5488V20.8675H20.8675V18.5488Z" fill="#5F8208"/>
<path d="M16.2308 18.5488H13.9121V20.8675H16.2308V18.5488Z" fill="#5F8208"/>
<path d="M13.9124 18.5488H11.5938V20.8675H13.9124V18.5488Z" fill="#5F8208"/>
<path d="M20.8675 13.9116H18.5488V16.2303H20.8675V13.9116Z" fill="#A4D85B"/>
<path d="M20.8675 11.5933H18.5488V13.9119H20.8675V11.5933Z" fill="#A4D85B"/>
<path d="M20.8675 9.27441H18.5488V11.5931H20.8675V9.27441Z" fill="#A4D85B"/>
<path d="M20.8675 6.95557H18.5488V9.27422H20.8675V6.95557Z" fill="#A4D85B"/>
<path d="M20.8675 16.2305H18.5488V18.5491H20.8675V16.2305Z" fill="#8FBC2E"/>
<path d="M11.594 18.5488H9.27539V20.8675H11.594V18.5488Z" fill="#5F8208"/>
<path d="M6.95537 18.5488H4.63672V20.8675H6.95537V18.5488Z" fill="#5F8208"/>
<path d="M9.27569 18.5488H6.95703V20.8675H9.27569V18.5488Z" fill="#5F8208"/>
<path d="M4.63701 18.5488H2.31836V20.8675H4.63701V18.5488Z" fill="#5F8208"/>
<path d="M2.31865 18.5488H0V20.8675H2.31865V18.5488Z" fill="#5F8208"/>
<path d="M20.8675 0H18.5488V2.31865H20.8675V0Z" fill="#5F8208"/>
<path d="M20.8675 2.31836H18.5488V4.63701H20.8675V2.31836Z" fill="#8FBC2E"/>
<path d="M20.8675 4.63721H18.5488V6.95586H20.8675V4.63721Z" fill="#A4D85B"/>
<path d="M51.0101 18.5488H48.6914V20.8675H51.0101V18.5488Z" fill="#5F8208"/>
<path d="M51.0101 20.8677H48.6914V23.1863H51.0101V20.8677Z" fill="#4F6801"/>
<path d="M51.0101 6.95557H48.6914V9.27422H51.0101V6.95557Z" fill="#5F8208"/>
<path d="M51.0101 16.2305H48.6914V18.5491H51.0101V16.2305Z" fill="#5F8208"/>
<path d="M51.0101 9.27441H48.6914V11.5931H51.0101V9.27441Z" fill="#5F8208"/>
<path d="M51.0101 11.5933H48.6914V13.9119H51.0101V11.5933Z" fill="#5F8208"/>
<path d="M51.0101 13.9116H48.6914V16.2303H51.0101V13.9116Z" fill="#5F8208"/>
<path d="M51.0101 0H48.6914V2.31865H51.0101V0Z" fill="#5F8208"/>
<path d="M51.0101 2.31836H48.6914V4.63701H51.0101V2.31836Z" fill="#5F8208"/>
<path d="M51.0101 4.63721H48.6914V6.95586H51.0101V4.63721Z" fill="#5F8208"/>
<path d="M48.6917 13.9116H46.373V16.2303H48.6917V13.9116Z" fill="#8FBC2E"/>
<path d="M48.6917 11.5933H46.373V13.9119H48.6917V11.5933Z" fill="#8FBC2E"/>
<path d="M48.6917 16.2305H46.373V18.5491H48.6917V16.2305Z" fill="#8FBC2E"/>
<path d="M48.6917 9.27441H46.373V11.5931H48.6917V9.27441Z" fill="#8FBC2E"/>
<path d="M48.6917 6.95557H46.373V9.27422H48.6917V6.95557Z" fill="#8FBC2E"/>
<path d="M48.6917 2.31836H46.373V4.63701H48.6917V2.31836Z" fill="#8FBC2E"/>
<path d="M48.6917 0H46.373V2.31865H48.6917V0Z" fill="#5F8208"/>
<path d="M48.6917 4.63721H46.373V6.95586H48.6917V4.63721Z" fill="#8FBC2E"/>
<path d="M48.6917 18.5488H46.373V20.8675H48.6917V18.5488Z" fill="#5F8208"/>
<path d="M48.6917 20.8677H46.373V23.1863H48.6917V20.8677Z" fill="#4F6801"/>
<path d="M53.3284 18.5488H51.0098V20.8675H53.3284V18.5488Z" fill="#4F6801"/>
<path d="M53.3284 6.95557H51.0098V9.27422H53.3284V6.95557Z" fill="#4F6801"/>
<path d="M53.3284 11.5933H51.0098V13.9119H53.3284V11.5933Z" fill="#4F6801"/>
<path d="M53.3284 4.63721H51.0098V6.95586H53.3284V4.63721Z" fill="#4F6801"/>
<path d="M53.3284 2.31836H51.0098V4.63701H53.3284V2.31836Z" fill="#4F6801"/>
<path d="M53.3284 13.9116H51.0098V16.2303H53.3284V13.9116Z" fill="#4F6801"/>
<path d="M53.3284 20.8677H51.0098V23.1863H53.3284V20.8677Z" fill="#4F6801"/>
<path d="M53.3284 16.2305H51.0098V18.5491H53.3284V16.2305Z" fill="#4F6801"/>
<path d="M53.3284 9.27441H51.0098V11.5931H53.3284V9.27441Z" fill="#4F6801"/>
<path d="M41.7347 0H39.416V2.31865H41.7347V0Z" fill="#5F8208"/>
<path d="M41.7347 2.31836H39.416V4.63701H41.7347V2.31836Z" fill="#8FBC2E"/>
<path d="M41.7347 4.63721H39.416V6.95586H41.7347V4.63721Z" fill="#A4D85B"/>
<path d="M41.7347 11.5933H39.416V13.9119H41.7347V11.5933Z" fill="#A4D85B"/>
<path d="M41.7347 9.27441H39.416V11.5931H41.7347V9.27441Z" fill="#A4D85B"/>
<path d="M41.7347 20.8677H39.416V23.1863H41.7347V20.8677Z" fill="#4F6801"/>
<path d="M41.7347 18.5488H39.416V20.8675H41.7347V18.5488Z" fill="#5F8208"/>
<path d="M41.7347 13.9116H39.416V16.2303H41.7347V13.9116Z" fill="#A4D85B"/>
<path d="M41.7347 16.2305H39.416V18.5491H41.7347V16.2305Z" fill="#8FBC2E"/>
<path d="M41.7347 6.95557H39.416V9.27422H41.7347V6.95557Z" fill="#A4D85B"/>
<path d="M39.4163 11.5933H37.0977V13.9119H39.4163V11.5933Z" fill="#A4D85B"/>
<path d="M39.4163 13.9116H37.0977V16.2303H39.4163V13.9116Z" fill="#A4D85B"/>
<path d="M39.4163 6.95557H37.0977V9.27422H39.4163V6.95557Z" fill="#A4D85B"/>
<path d="M39.4163 9.27441H37.0977V11.5931H39.4163V9.27441Z" fill="#A4D85B"/>
<path d="M39.4163 0H37.0977V2.31865H39.4163V0Z" fill="#5F8208"/>
<path d="M39.4163 16.2305H37.0977V18.5491H39.4163V16.2305Z" fill="#8FBC2E"/>
<path d="M39.4163 2.31836H37.0977V4.63701H39.4163V2.31836Z" fill="#8FBC2E"/>
<path d="M39.4163 4.63721H37.0977V6.95586H39.4163V4.63721Z" fill="#A4D85B"/>
<path d="M39.4163 18.5488H37.0977V20.8675H39.4163V18.5488Z" fill="#5F8208"/>
<path d="M39.4163 20.8677H37.0977V23.1863H39.4163V20.8677Z" fill="#4F6801"/>
<path d="M46.3733 9.27441H44.0547V11.5931H46.3733V9.27441Z" fill="#A4D85B"/>
<path d="M46.3733 6.95557H44.0547V9.27422H46.3733V6.95557Z" fill="#A4D85B"/>
<path d="M46.3733 11.5933H44.0547V13.9119H46.3733V11.5933Z" fill="#A4D85B"/>
<path d="M46.3733 4.63721H44.0547V6.95586H46.3733V4.63721Z" fill="#769929"/>
<path d="M46.3733 2.31836H44.0547V4.63701H46.3733V2.31836Z" fill="#8FBC2E"/>
<path d="M46.3733 13.9116H44.0547V16.2303H46.3733V13.9116Z" fill="#769929"/>
<path d="M46.3733 0H44.0547V2.31865H46.3733V0Z" fill="#5F8208"/>
<path d="M46.3733 16.2305H44.0547V18.5491H46.3733V16.2305Z" fill="#8FBC2E"/>
<path d="M46.3733 20.8677H44.0547V23.1863H46.3733V20.8677Z" fill="#4F6801"/>
<path d="M46.3733 18.5488H44.0547V20.8675H46.3733V18.5488Z" fill="#5F8208"/>
<path d="M44.055 18.5488H41.7363V20.8675H44.055V18.5488Z" fill="#5F8208"/>
<path d="M44.055 2.31836H41.7363V4.63701H44.055V2.31836Z" fill="#8FBC2E"/>
<path d="M44.055 0H41.7363V2.31865H44.055V0Z" fill="#5F8208"/>
<path d="M44.055 4.63721H41.7363V6.95586H44.055V4.63721Z" fill="#A4D85B"/>
<path d="M44.055 20.8677H41.7363V23.1863H44.055V20.8677Z" fill="#4F6801"/>
<path d="M44.055 16.2305H41.7363V18.5491H44.055V16.2305Z" fill="#8FBC2E"/>
<path d="M44.055 11.5933H41.7363V13.9119H44.055V11.5933Z" fill="#A4D85B"/>
<path d="M44.055 9.27441H41.7363V11.5931H44.055V9.27441Z" fill="#A4D85B"/>
<path d="M44.055 13.9116H41.7363V16.2303H44.055V13.9116Z" fill="#A4D85B"/>
<path d="M44.055 6.95557H41.7363V9.27422H44.055V6.95557Z" fill="#A4D85B"/>
</svg>
