<svg width="130" height="206" viewBox="0 0 130 206" fill="none" xmlns="http://www.w3.org/2000/svg">
<g id="tech (3)" clip-path="url(#clip0_360_94981)">
<g id="Layer 2">
<g id="RETRO TECH">
<path id="Vector" d="M127.295 141.028C127.295 141.028 137.758 140.694 140.363 136.086C142.596 132.139 146.463 104.948 138.275 93.0959C130.088 81.2433 71.6265 65.5672 28.0365 85.9375L43.2636 15.6257C43.2636 15.6257 57.6985 38.4101 101.916 61.0839C141.857 81.5614 149.041 86.048 151.314 98.915C153.586 111.782 153.499 138.042 147.04 145.327C139.319 154.033 127.295 153.765 127.295 153.765V141.042V141.028Z" fill="#E86221"/>
<path id="Vector_2" d="M130.711 122.748L131.645 191.05H8.61908L7.78991 124.917L130.711 122.748Z" fill="#E86221"/>
<path id="Vector_3" d="M118.513 190.086C118.513 190.086 119.741 152.452 117.224 151.354C114.706 150.256 26.4115 151.404 24.9747 153.443C23.538 155.483 24.0079 191.05 24.0079 191.05L118.513 190.086Z" fill="#FCBB41"/>
<path id="Vector_4" d="M136.294 185.666C137.802 186.232 136.788 202.139 135.029 203.586C133.27 205.032 3.40962 205.26 2.3354 202.799C1.26117 200.338 0.787842 187.776 2.3354 186.711C3.88295 185.646 132.88 184.367 136.278 185.666H136.294Z" fill="#7D67BF"/>
<path id="Vector_5" d="M128.977 108.363C131.27 108.949 138.622 123.618 137.067 127.569C136.416 129.226 3.38033 130.508 2.36987 127.569C1.35944 124.629 7.16696 109.127 9.50675 108.363C11.8465 107.6 123.579 106.977 128.977 108.363Z" fill="#7D67BF"/>
<path id="Vector_6" d="M36.4727 1.48655C26.0393 -0.542443 13.5111 18.5388 8.51263 44.0754C3.51413 69.6119 7.93524 91.9945 18.3787 94.0268C28.8222 96.0592 41.3436 76.9712 46.3387 51.4347C51.3339 25.8981 46.9128 3.5189 36.4727 1.48655Z" fill="#FCBB41"/>
<path id="Vector_7" d="M33.268 8.90273C26.2184 7.52998 17.0338 24.0465 12.7906 45.7628C8.54744 67.4791 10.8234 86.2289 17.8764 87.6151C24.9293 89.0012 34.1106 72.4712 38.3538 50.755C42.597 29.0387 40.3243 10.2889 33.268 8.90273Z" fill="#7D67BF"/>
<path id="Vector_8" d="M1.5743 185.61C1.86635 185.405 2.1349 185.221 7.20055 185.01L6.50902 129.685C1.5273 129.253 1.33931 128.701 1.09761 128.011C0.1073 125.121 3.5549 115.676 5.67984 111.421C7.35832 108.042 8.3654 107.339 9.08714 107.098C10.8965 106.509 52.2944 106.271 68.0922 106.228H71.8923V96.7122C71.8921 96.5311 71.9287 96.3519 72 96.1853C72.0712 96.0188 72.1755 95.8684 72.3067 95.7432C72.4379 95.618 72.5931 95.5207 72.7631 95.457C72.933 95.3934 73.1141 95.3647 73.2955 95.3729L139.454 98.4063C138.888 96.7999 138.121 95.2711 137.171 93.8562C133.815 88.9846 119.665 82.3786 99.1473 79.1811C85.8874 77.1153 59.9986 75.0662 35.1303 84.4143C30.387 91.402 25.036 95.5135 19.9099 95.5135C19.307 95.514 18.7055 95.4557 18.114 95.3394C6.77084 93.133 1.97713 70.5026 7.19719 43.821C12.4172 17.1394 25.3851 -2.04904 36.7383 0.174149C42.3478 1.26566 46.5305 7.36604 48.5044 17.3871C48.7282 18.5032 48.9185 19.6538 49.0751 20.8391C56.165 28.9015 72.3589 44.4237 102.531 59.8923C123.962 70.881 134.681 76.6331 141.546 81.7826C148.411 86.9321 151.338 91.3618 152.624 98.6842C154.792 111.022 155.131 138.22 148.041 146.228C143.154 151.739 136.594 153.812 132.485 154.599L132.891 184.1C135.02 184.19 136.396 184.3 136.765 184.434C137.709 184.786 137.997 185.847 138.145 186.735C138.481 188.713 138.437 192.514 138.058 196.411C137.386 203.409 136.289 204.303 135.879 204.637C135.355 205.069 134.902 205.441 114.972 205.756C104.25 205.926 90.0769 206.02 75.5916 206.02H71.7546C41.5119 205.987 7.45232 205.535 2.56123 204.366C2.19197 204.276 1.42323 204.092 1.10097 203.362C0.429581 201.811 0.0636597 197.687 0.0065918 194.285C-0.114258 186.768 1.0674 185.954 1.5743 185.61ZM9.94989 109.643C9.29863 110.172 7.60002 113.075 5.80069 117.993C4.19943 122.373 3.58846 125.409 3.5851 126.648C4.98589 126.883 6.3994 127.035 7.81822 127.104C16.4691 127.696 36.8323 128.108 70.0426 127.954C98.1604 127.817 120.565 127.338 130.713 126.846H130.78C133.288 126.725 135.04 126.601 135.933 126.484C136.299 122.6 130.451 110.764 128.568 109.65C126.194 109.131 104.733 108.839 73.2183 108.889H68.8005C39.7193 108.966 12.6052 109.315 9.94989 109.643ZM74.5778 98.1017V106.204C93.8199 106.181 126.177 106.261 129.296 107.065C130.659 107.416 132.442 109.72 134.59 113.918C135.466 115.626 139.763 124.338 138.303 128.058C137.934 128.995 137.205 129.123 133.66 129.36L132.129 129.451L132.26 139.04C135.846 138.28 138.276 137.031 139.176 135.427C140.156 133.699 141.65 126.052 141.861 117.521C142.022 111.183 141.472 105.605 140.28 101.115L74.5778 98.1017ZM36.218 2.80247C26.6776 0.950926 14.5993 19.9652 9.8324 44.3199C5.06552 68.6745 9.09386 90.8595 18.6276 92.6977C19.0579 92.7808 19.4952 92.8223 19.9334 92.8216C29.2389 92.8216 40.4578 74.4334 45.0098 51.1669C47.0911 40.5431 47.588 30.1973 46.4668 21.5757C46.3023 20.3168 46.1042 19.088 45.8692 17.8927C44.1471 9.16401 40.6257 3.6596 36.218 2.80247ZM146.034 144.44C151.801 137.945 152.395 112.87 149.972 99.1463C147.823 86.9388 141.243 82.7603 101.296 62.2728C73.8192 48.1904 57.7394 34.0075 49.5249 25.319C50.0889 33.3178 49.4544 42.4114 47.6383 51.6926C45.4026 63.1199 41.7469 73.1711 37.403 80.7514C61.8282 72.5149 86.6024 74.5171 99.5569 76.536C118.628 79.5092 135.003 86.0047 139.377 92.3361C140.805 94.4869 141.888 96.8468 142.586 99.3304C142.616 99.4064 142.64 99.4848 142.657 99.5648C146.618 113.125 143.697 132.916 141.532 136.73C139.881 139.653 135.825 141.065 132.314 141.752L132.452 151.837C136.208 151.083 141.834 149.175 146.034 144.44ZM129.461 129.575C127.984 129.641 126.305 129.706 124.425 129.769C116.781 130.023 106.298 130.244 94.1556 130.405C83.1783 130.549 69.7371 130.656 56.447 130.656C44.654 130.656 32.9785 130.572 23.2602 130.361C16.882 130.224 12.387 130.06 9.18785 129.866L9.88611 184.913C12.8671 184.816 16.9625 184.709 22.6089 184.595C22.4277 154.726 23.4415 153.29 23.8779 152.67C24.3713 151.974 24.7607 151.421 39.5817 150.762C47.5041 150.427 58.5451 150.092 70.6704 149.881C71.1168 149.881 115.395 149.091 117.765 150.126C118.812 150.588 119.282 151.924 119.635 155.422C119.863 157.666 120.017 160.78 120.095 164.71C120.222 171.122 120.128 178.418 120.014 183.825C123.952 183.859 127.44 183.909 130.206 183.986L129.461 129.575ZM117.329 183.815C117.758 163.636 117.154 154.498 116.452 152.573C113.408 152.238 95.3708 152.131 71.4022 152.553C43.5395 153.045 28.8361 153.845 26.0364 154.465C25.6 156.511 25.1804 165.35 25.2945 184.548C37.1277 184.321 52.7644 184.113 68.5991 183.972C80.3988 183.862 101.658 183.711 117.329 183.815ZM3.40384 201.798C6.87828 202.515 28.0069 203.241 68.9986 203.322C101.225 203.385 130.35 202.987 134.227 202.414C134.614 201.56 135.201 198.882 135.517 194.65C135.812 190.632 135.671 187.876 135.449 186.875C134.778 186.802 133.476 186.738 131.643 186.684H131.586C131.542 186.684 131.505 186.684 131.461 186.684C128.484 186.601 124.133 186.54 118.645 186.504H118.618C106.68 186.427 89.3887 186.47 69.2202 186.648C42.4183 186.879 19.1345 187.274 8.62053 187.652H8.56346C5.84769 187.749 3.98795 187.843 3.15541 187.933C2.42024 189.962 2.60153 198.939 3.40384 201.791V201.798ZM30.34 78.4847C26.4862 85.4188 22.4982 89.0314 18.7317 89.0314C18.3563 89.0314 17.9819 88.9944 17.6138 88.921C13.525 88.1274 10.8059 83.132 9.75517 74.4803C8.77831 66.4446 9.38591 56.1523 11.4672 45.5152C13.5485 34.878 16.8618 25.1114 20.7995 18.0266C25.036 10.4028 29.437 6.79015 33.5224 7.59036C37.6145 8.37049 40.3303 13.3928 41.381 22.0311C42.3612 30.0667 41.7536 40.359 39.6689 50.9961C37.5843 61.6333 34.2743 71.3932 30.34 78.478V78.4847ZM33.0088 10.2187C27.5839 9.16066 18.4866 23.6114 14.1024 46.0208C9.71825 68.4301 12.7026 85.2313 18.1308 86.2859C20.8398 86.8116 24.5325 83.4099 27.9935 77.1822C31.7969 70.3352 35.0095 60.8532 37.0371 50.4839C41.4213 28.0712 38.4336 11.2734 33.0088 10.2187Z" fill="black"/>
</g>
</g>
</g>
<defs>
<clipPath id="clip0_360_94981">
<rect width="154" height="206" fill="white" transform="matrix(-1 0 0 1 154 0)"/>
</clipPath>
</defs>
</svg>
