<svg width="393" height="894" viewBox="0 0 393 894" fill="none" xmlns="http://www.w3.org/2000/svg">
<g clip-path="url(#clip0_657_3781)">
<rect width="393" height="894" fill="#4DAFF6"/>
<g style="mix-blend-mode:soft-light">
<path d="M-58.293 270.226V331.734C18.1914 308.136 98.6024 295.86 180.876 295.86C181.571 295.86 182.258 295.863 182.952 295.863C261.641 296.059 338.591 307.479 412 329.273V267.968C258.304 225.88 95.0972 226.625 -58.293 270.226Z" fill="#EFDABF"/>
<path d="M-58.293 136.455V197.295C20.1647 176.624 101.001 166.262 183.278 166.477C261.43 166.673 338.112 176.376 412 195.021V134.507C257.515 98.0794 95.9078 98.7216 -58.293 136.455Z" fill="#F7B350"/>
<path d="M-48.1016 402.301H409.978C261.465 354.191 100.454 354.191 -48.1016 402.301Z" fill="#027967"/>
<path d="M-58.293 337.686V399.774C17.7423 374.006 98.2913 360.557 180.879 360.557C181.519 360.557 182.151 360.557 182.789 360.56C261.818 360.759 338.945 373.249 411.999 397.056V335.208C258.838 289.563 94.5053 290.39 -58.293 337.686Z" fill="#10A27C"/>
<path d="M-58.293 203.153V264.241C18.5491 242.474 98.8526 231.168 180.87 231.168C181.62 231.168 182.362 231.168 183.111 231.171C261.513 231.367 338.319 241.871 411.999 261.968V201.125C257.882 162.072 95.5643 162.704 -58.293 203.153Z" fill="#FDCD8C"/>
<path d="M-58.293 70.0583V130.513C18.7765 111.627 97.9506 101.984 178.399 101.784C179.252 101.781 180.116 101.779 180.97 101.779C259.416 101.779 336.676 110.802 411.999 128.594V68.1963C257.262 34.0512 96.2484 34.6991 -58.293 70.0583Z" fill="#F59342"/>
<path d="M-58.293 3.7634V64.0703C19.7489 46.1798 99.7157 37.0868 180.867 37.0868C181.784 37.0868 182.686 37.0887 183.603 37.0916C261.062 37.2835 337.414 45.6896 411.999 62.1665V2.13993C257.033 -29.9941 96.5044 -29.5087 -58.293 3.7634Z" fill="#EA6234"/>
</g>
<g style="mix-blend-mode:soft-light">
<path d="M232.845 469.608C212.976 465.318 192.374 463 171.22 463C134.111 463 98.667 470.028 66.047 482.703C55.8631 487.406 45.6951 492.154 35.5507 496.89C34.1582 497.539 32.767 498.188 31.3745 498.838C-21.7621 528.075 -64.733 573.433 -90.9199 628.333C-49.0786 609.212 -7.39532 586.138 33.611 563.404C99.3169 526.976 165.887 490.086 232.845 469.608Z" fill="#13789F"/>
<path d="M413.85 593.824C394.115 563.858 368.966 537.792 339.784 516.961C324.558 516.462 309.035 517.389 293.179 519.799C207.533 532.831 120.209 585.992 35.7575 637.397C-14.847 668.199 -65.9706 699.297 -117.389 722.25C-118.441 732.28 -119 742.454 -119 752.761C-119 765.562 -118.081 778.137 -116.47 790.5C-66.1025 766.826 -15.8073 735.155 33.5074 704.086C158.265 625.483 286.14 544.934 413.85 593.824Z" fill="#F2D3A4"/>
<path d="M334.012 512.861C306.081 493.932 274.662 479.779 240.928 471.473C172.216 491.501 103.034 529.793 35.6809 567.132C-7.08003 590.84 -50.2134 614.746 -93.5781 634.195C-105.242 660.12 -113.187 688.056 -116.766 717.351C-66.2898 694.459 -15.885 663.841 33.5358 633.758C132.283 573.649 232.984 512.365 334.012 512.861Z" fill="#489E9F"/>
<path d="M293.158 745.453C207.491 757.6 120.159 807.144 35.7024 855.054C0.458855 875.049 -35.0398 895.169 -70.7109 912.779C-60.0926 928.75 -47.9566 943.627 -34.4609 957.163C-11.6456 946.777 11.0907 935.836 33.7198 924.942C168.257 860.159 306.424 793.673 444.106 851.575C452.515 828.434 458 803.906 460.243 778.448C408.439 747.778 353.136 736.943 293.158 745.453Z" fill="#F2B923"/>
<path d="M455.712 695.287C405.218 664.115 351.405 653.225 293.184 662.201C207.541 675.409 120.217 729.268 35.7697 781.355C-8.77528 808.828 -53.7219 836.53 -98.918 858.639C-91.9241 876.408 -83.2343 893.31 -73.029 909.165C-37.2077 891.472 -1.55572 871.289 33.5941 851.348C173.55 771.951 317.429 690.369 460.605 773.703C461.101 766.779 461.442 759.809 461.442 752.759C461.443 733.08 459.457 713.867 455.712 695.287Z" fill="#F1A477"/>
<path d="M35.5155 927.79C13.3017 938.326 -9.01138 948.904 -31.4023 958.974C-15.0145 975.086 3.26908 989.269 23.1132 1001.16C26.565 999.942 30.0134 998.726 33.4584 997.509C153.347 955.215 276.111 911.917 398.465 933.893C416.978 910.896 432.054 885.029 442.897 857.036C306.964 799.062 169.434 864.27 35.5155 927.79Z" fill="#F16622"/>
<path d="M454.401 689.42C447.222 657.286 434.73 627.171 417.839 600.04C378.482 583.703 337.091 579.067 293.19 585.987C207.554 599.474 120.232 654.487 35.7835 707.689C-14.3459 739.274 -64.9865 771.152 -115.916 794.843C-112.892 815.587 -107.666 835.612 -100.483 854.686C-55.4628 832.561 -10.5793 804.934 33.5211 777.732C171.483 692.632 313.255 605.207 454.401 689.42Z" fill="#C6AD98"/>
</g>
</g>
<defs>
<clipPath id="clip0_657_3781">
<rect width="393" height="894" fill="white"/>
</clipPath>
</defs>
</svg>
