<svg width="96" height="114" viewBox="0 0 96 114" fill="none" xmlns="http://www.w3.org/2000/svg">
<path d="M13.7829 93.3919C13.2156 92.707 12.5654 92.0637 12.5377 91.0883C12.2817 90.023 12.1641 89.0752 12.6899 87.9338C13.2018 86.8339 12.9804 85.5265 11.6661 84.7171C10.8498 84.2121 9.91589 83.6795 10.1096 82.4412C9.84672 78.8095 10.5592 75.3091 11.5761 71.8572C11.8667 70.8611 12.5446 70.0309 12.8213 69.014C13.0012 68.3569 13.4992 67.9695 14.2048 68.3845C14.8205 68.7512 14.9381 69.3184 14.5231 69.9272C14.2463 70.3284 13.9212 70.702 13.6722 71.4975C14.4193 70.2938 15.1526 70.3561 16.128 70.7365C17.7813 71.3868 18.7982 73.0194 20.5553 73.4621C22.4784 74.396 24.1317 75.7518 25.9303 76.8794C27.383 77.7926 27.549 77.7649 28.4345 76.2776C28.9602 75.3852 29.479 74.4859 30.0117 73.6005C30.655 72.5421 30.3645 71.9264 29.3684 71.366C27.0786 70.0863 24.9687 68.5436 22.9003 66.9318C21.1778 65.5967 19.4346 64.3031 18.1341 62.4976C17.719 61.9234 17.553 61.37 17.5668 60.7059C17.7813 59.3708 18.6598 58.3539 19.2962 57.2264C20.6244 54.8536 22.0218 52.5224 23.4192 50.1911C23.6474 49.8175 23.7028 49.188 24.3876 49.2572C25.6397 50.1773 26.3038 51.6092 27.383 52.6953C31.1877 56.5069 35.5112 59.606 40.0631 62.4284C40.9347 62.968 41.9377 63.3554 42.422 64.3723C42.5742 66.0118 41.3843 67.1117 40.6718 68.343C34.6465 78.7541 28.5936 89.1583 22.5129 99.5417C22.2432 100.005 22.0564 100.559 21.4407 100.711C20.4307 100.655 19.8081 99.9291 19.1095 99.348C17.1448 97.5286 15.3878 95.5225 13.7759 93.385L13.7829 93.3919Z" fill="#F83857"/>
<path d="M66.5501 74.1675C65.0144 76.8239 63.0014 79.3696 61.4587 82.0259C61.265 82.9598 60.5317 83.6447 60.0752 84.4471C59.5287 85.4087 59.3419 85.8791 58.2213 85.7408C55.1913 85.3672 52.4381 84.1635 49.6987 82.946C47.9001 82.1505 46.1845 81.182 44.4551 80.2412C43.9225 79.9507 43.4244 79.591 42.7741 79.9022C40.1869 80.4972 39.9863 82.4687 40.0624 84.5993C40.7542 85.976 42.2899 86.2596 43.3621 87.145C45.4582 88.6047 47.8379 89.4625 50.2037 90.3479C50.342 90.4171 50.4666 90.507 50.5842 90.6108C50.937 90.9705 51.3866 91.1711 51.8293 91.3925C52.1199 91.5378 52.4035 91.7107 52.6249 91.9666C52.8047 92.1811 53.0538 92.5547 52.9016 92.6861C51.5319 93.9174 54.1052 95.2041 52.4658 96.553C51.0891 97.6806 49.8924 99.2094 48.495 100.337C47.3121 101.326 45.9908 102.073 44.5312 102.565C42.1861 103.208 39.8825 104.003 37.4614 104.356C34.1063 104.847 30.8481 104.287 27.5829 103.651C27.1748 103.568 26.9604 103.229 26.7874 102.883C26.5453 102.378 26.1856 102.219 25.5976 102.267C23.211 102.468 22.4085 101.658 22.6507 99.3824C23.2871 97.5907 24.4631 96.0965 25.3624 94.4432C26.6076 92.8037 27.998 93.7168 29.3539 94.2287C29.5476 94.1734 29.7205 94.0765 29.8865 93.9589C30.1632 93.7307 30.4054 93.4747 30.5714 93.1565C30.6267 93.0389 30.689 92.9213 30.7582 92.8037C30.9103 92.5131 30.9934 92.2019 31.111 91.8975C31.2078 91.6415 31.3254 91.3925 31.4638 91.1504C31.6851 90.7007 32.114 90.4102 32.3285 89.9536C32.3492 89.8222 32.3907 89.6907 32.4322 89.5662C32.5152 89.3103 32.6398 89.082 32.7989 88.8675C32.9095 88.7015 33.0341 88.5424 33.1447 88.3764C33.2762 88.1273 33.4076 87.8852 33.463 87.6085C33.4699 87.2696 33.3454 86.9652 33.1793 86.6816C33.0963 86.5432 33.0133 86.3772 32.875 86.3218C31.2493 85.72 31.2631 84.6063 31.9203 83.285C33.5252 80.4903 34.9087 77.5572 36.8941 74.9907C37.2677 74.7901 37.6689 74.7694 38.077 74.8109C38.9348 74.797 39.5643 75.8001 40.519 75.3504C40.768 75.136 41.0101 74.9146 41.1692 74.6241C41.2315 74.5134 41.3076 74.4096 41.3837 74.299C41.5774 74.043 41.7365 73.7732 41.8264 73.4619C41.8679 73.3374 41.9302 73.2267 41.9924 73.1091C42.193 72.784 42.4006 72.4519 42.449 72.0576C42.532 71.7394 42.6496 71.4281 42.8225 71.1445C42.9817 70.8678 43.2099 70.6395 43.3483 70.349C43.4036 70.1691 43.4797 69.9962 43.5558 69.8232C43.6803 69.5396 43.9086 69.3044 43.9778 68.9931C43.5973 68.1907 42.6012 68.0385 42.193 67.2637C42.2069 65.4789 43.0716 64.8909 44.5935 65.6311C45.2714 65.9632 45.894 66.399 46.6688 66.5097C49.9132 67.8033 52.9085 69.6295 56.1875 70.8609C59.2036 71.9954 62.2127 73.1022 65.4433 73.455C65.886 73.5034 66.4464 73.5103 66.5501 74.1537V74.1675Z" fill="#F83857"/>
<path d="M29.3742 43.6123C30.9307 45.3487 32.4111 47.168 34.3342 48.5446C35.1712 48.6691 35.7661 49.2226 36.4025 49.7137C39.1973 51.8928 42.1373 53.8574 45.1119 55.7736C47.0557 57.0257 47.1042 57.3577 45.9212 59.2947C44.9735 60.8581 44.4616 62.712 42.9259 63.8949C42.248 64.1509 41.7706 63.6805 41.2795 63.383C36.4786 60.4499 31.83 57.2955 27.7901 53.3524C26.5726 52.1626 25.189 51.0073 24.857 49.1672C24.6909 46.8636 26.3996 45.404 27.3612 43.6054C28.0322 43.6054 28.7101 43.3979 29.3811 43.6262L29.3742 43.6123Z" fill="#FCFCFC"/>
<path d="M66.897 72.923C66.6826 73.0406 66.4681 73.1651 66.2468 73.2827C64.462 74.1059 62.7879 73.2412 61.1692 72.7846C56.6243 71.5118 52.363 69.5264 48.1778 67.3473C47.154 66.8147 46.9811 66.1229 47.5414 65.2167C48.0326 64.4212 48.4476 63.591 48.9803 62.8232C50.9587 59.1637 51.0348 59.0877 54.7012 61.0038C58.4091 62.9408 62.2691 64.4488 66.2814 65.5903C66.7587 65.7286 67.2291 65.8877 67.5542 66.2958C68.5919 66.6348 69.6572 66.6556 70.8401 66.5103C70.2936 68.0806 68.9308 69.0837 68.5019 70.5917C67.8032 70.903 67.1253 71.2697 66.316 71.4703C66.5096 71.9614 67.402 72.1897 66.8901 72.9091L66.897 72.923Z" fill="#FBFBFC"/>
<path d="M59.4595 86.3779C58.2351 87.8168 57.7785 89.7675 56.3327 91.0542C55.3988 91.4762 54.4857 91.4762 53.4688 91.2133C49.0346 90.0581 44.9117 88.2318 41.0585 85.7553C40.1869 85.195 40.0693 84.5378 40.5328 83.6662C41.0724 82.6493 41.6465 81.6531 42.2345 80.6639C42.8433 79.6401 43.5143 79.5225 44.5381 80.1105C47.6718 81.9091 50.9231 83.4656 54.3335 84.6761C55.6825 85.1535 57.0867 85.3333 58.4495 85.7069C58.8715 85.8245 59.3488 85.7899 59.4457 86.3641L59.4595 86.3779Z" fill="#FAFBFB"/>
<path d="M14.2511 66.663C14.6039 64.6431 16.1119 63.1973 16.8867 61.3918C17.2741 61.2949 17.4954 61.5232 17.6961 61.7999C20.5392 65.6738 24.5584 68.1296 28.4668 70.7168C28.9234 71.0142 29.3661 71.3325 29.8365 71.6092C30.5214 72.0104 30.7151 72.5085 30.3069 73.2417C29.6498 74.4385 28.9234 75.5937 28.2524 76.7767C27.7682 77.6275 27.0695 77.7244 26.3155 77.2263C22.49 74.7152 18.4847 72.4324 15.3856 68.9528C14.7976 68.2887 14.2856 67.5969 14.2441 66.663H14.2511Z" fill="#FAFBFB"/>
<path d="M67.5623 66.3033C63.3979 65.6738 59.6485 63.889 55.8784 62.1596C54.737 61.6339 53.5818 61.122 52.5164 60.4648C51.5134 59.8422 50.9807 60.0912 50.5242 61.0874C50.2059 61.7792 49.7563 62.4017 49.362 63.0589C49.0714 63.052 48.9677 62.8583 48.9193 62.6093C48.8985 62.0974 49.0853 61.62 49.362 61.2257C50.1368 60.0982 49.6456 59.5032 48.6287 58.9014C47.4458 58.2027 46.9961 58.8599 46.4773 59.7592C45.6264 61.2188 44.8102 62.713 43.8279 64.0966C43.5512 64.4009 43.226 64.6154 42.7902 64.5739C42.6311 64.5324 42.5204 64.4286 42.4443 64.2833C42.4512 64.0066 42.6242 63.8752 42.8663 63.7991C43.9524 61.9175 45.0108 60.0152 46.1453 58.1681C46.5465 57.5179 46.4289 57.2758 45.8132 56.8469C42.8663 54.8062 39.7603 53.0006 36.9586 50.7455C36.0732 50.033 35.2154 49.2859 34.3438 48.5526C34.489 48.5318 34.6343 48.518 34.7726 48.4972C35.243 48.2482 35.6304 48.4973 35.9763 48.7532C36.6681 49.2513 37.4774 49.3689 38.2591 49.611C39.6219 50.0399 40.452 49.6041 41.2614 48.4281C41.9255 47.4734 41.8702 46.0415 43.1499 45.5019C43.2537 45.6403 43.3575 45.7786 43.4612 45.917C44.07 45.2252 43.9731 44.2221 44.5265 43.5096C44.6649 43.309 44.8517 43.1776 45.1007 43.1499C45.2114 43.3021 45.3221 43.4543 45.4258 43.6134C45.9654 44.6234 45.2806 45.3912 44.8586 46.166C44.2291 47.3282 43.2814 48.2551 42.472 49.2859C41.9463 49.95 41.379 50.6486 41.7871 51.8039C42.4097 50.9253 42.7971 50.0883 43.3367 49.355C44.6856 47.508 46.1522 47.1414 48.1652 48.2136C50.5795 49.5003 52.9177 50.9253 55.2697 52.3227C57.7047 53.7685 58.0436 55.3111 56.6255 57.8153C56.3281 58.3342 55.9683 58.8253 55.7816 59.7523C57.0337 59.268 57.3726 58.3272 57.6563 57.4072C58.2512 55.4979 59.0467 53.7062 60.6239 52.3988C61.1773 51.9422 61.7584 51.2643 62.6231 51.8938C62.6231 52.0183 62.637 52.1359 62.6439 52.2605C62.5194 53.2151 61.6132 53.4572 61.0182 53.9207C60.285 54.5018 60.6516 54.7992 61.0805 55.2074C60.5686 56.4871 59.3926 57.2965 58.8046 58.5486C58.0021 60.2711 58.0298 60.6239 59.7108 62.3672C60.79 63.4878 61.8207 63.6953 63.1973 63.0658C63.2941 63.0243 63.4048 63.0105 63.5155 63.0174C63.6539 63.0243 63.7853 63.0382 63.9236 63.0451C64.9475 64.1865 66.1581 64.9959 67.7284 65.2034C68.1296 65.2587 68.5723 65.4248 68.6346 65.9643C68.2679 66.0335 67.8529 65.9782 67.5693 66.3102L67.5623 66.3033Z" fill="#1B1A24"/>
<path d="M76.076 56.7282C77.8608 53.5876 79.5625 50.3986 81.451 47.3202C89.7453 33.7962 84.0382 16.8341 69.0615 11.5905C60.3314 8.53292 52.2239 10.3453 45.1195 16.4121C41.4255 19.5666 39.4885 23.9178 37.0604 27.93C35.0751 31.2159 33.2004 34.5641 31.2634 37.8776C30.9383 38.438 30.6893 39.0813 29.6309 39.5448C31.0144 37.1167 32.2111 34.9791 33.4425 32.8623C35.5385 29.2651 37.6623 25.6818 39.7652 22.0846C47.9557 8.03484 66.7095 5.33004 78.4419 16.5159C86.3972 24.1046 88.2165 36.9922 82.6547 46.4763C80.5794 50.025 78.4972 53.5669 76.4219 57.1087C76.1314 57.1433 75.9584 57.0672 76.076 56.7282Z" fill="#3E6B9F"/>
<path d="M62.622 51.8865C60.3115 52.35 59.4814 54.2316 58.6513 56.0856C58.34 56.7773 58.1117 57.5175 57.8765 58.2439C57.3784 59.7519 56.4376 60.5751 54.6805 60.2915C55.2962 59.1916 55.9188 58.1263 56.4999 57.0402C57.4061 55.3385 57.164 54.0725 55.5798 53.0902C52.9304 51.4576 50.2394 49.8873 47.5138 48.3655C46.1649 47.6114 44.7606 48.0957 43.8336 49.4723C43.467 50.0188 43.1626 50.5999 42.8236 51.1671C42.4916 51.7205 42.1457 52.2739 41.7791 52.8688C40.6861 50.6898 40.7207 50.3716 42.6922 48.1925C43.9166 46.8366 45.0442 45.4531 45.4316 43.613C45.6322 43.0527 45.5907 42.4785 45.57 41.8974C45.5354 40.9774 46.0196 41.3025 46.4485 41.5792C47.3409 46.0204 50.3224 48.6837 54.2585 50.3232C56.5621 51.2847 59.0179 52.0318 61.5498 50.7659C62.283 50.3992 62.8226 50.7105 62.9195 51.5822C62.8226 51.6859 62.7188 51.7897 62.622 51.8865Z" fill="#F8F8FA"/>
<path d="M63.5057 63.0099C62.8209 64.3934 60.9047 64.3657 59.5765 62.9545C59.5004 62.8784 59.4381 62.7816 59.3966 62.6848C58.9193 61.7094 57.2867 61.0591 57.5427 60.2221C57.9647 58.8385 58.608 57.3582 59.7563 56.279C60.1506 55.9054 60.5519 55.5526 60.9531 55.186C60.9738 54.3075 61.4719 54.2245 62.1568 54.4666C64.3981 55.7256 64.7509 56.6387 64.1975 60.0145C64.0314 61.0245 63.7409 62.0137 63.5057 63.0099Z" fill="#F6F8F9"/>
<path d="M59.0384 86.5232C58.0561 85.8384 57.2882 85.9213 56.2091 85.61C51.9685 84.3994 48.0462 82.4693 44.2208 80.3387C43.4806 79.9236 43.1485 79.9859 42.7681 80.7192C42.0417 82.1235 40.4645 83.6523 40.6997 84.8283C40.9487 86.0527 43.1554 86.5508 44.5736 87.2287C48.316 89.0273 52.0308 90.9504 56.3336 91.0542C56.1261 91.2479 55.9116 91.4485 55.7041 91.6422C54.5834 92.5899 53.4351 91.9811 52.3283 91.656C51.6642 91.4623 51.007 91.1579 50.4743 90.6668H50.4605C47.9356 89.809 45.5282 88.6952 43.1762 87.4431C41.8895 86.6614 40.34 86.2395 39.5859 84.7522C40.1324 82.7461 41.0732 80.9682 42.5467 79.4878C43.2454 78.7061 43.8541 79.3426 44.4283 79.6608C47.7349 81.4801 51.1038 83.1542 54.6734 84.4063C59.0453 85.9351 59.3843 85.1397 61.1137 82.7185C60.2836 84.3374 59.9999 84.2544 59.3843 85.8315L59.0384 86.5232Z" fill="#370A17"/>
<path d="M14.253 66.6619C17.4213 71.3244 22.1598 74.0984 26.7532 77.0522C27.189 77.3289 27.5487 77.405 27.8047 76.8447C27.8531 76.7479 27.9223 76.6648 27.9776 76.568C28.7455 75.2467 30.1774 73.877 30.0875 72.6111C29.9976 71.2691 27.8669 70.8402 26.6425 69.9962C23.0453 67.5128 19.4965 64.9878 16.8886 61.3907C17.1169 61.1693 17.3382 60.9479 17.5665 60.7266C19.3305 64.0332 22.3674 66.0324 25.252 68.17C26.8293 69.339 28.5379 70.3283 30.212 71.359C31.0352 71.8709 31.3811 72.3482 30.717 73.3098C29.8177 74.6103 29.0567 76.0077 28.2958 77.3981C27.8392 78.2282 27.355 78.2974 26.601 77.7924C24.6018 76.4642 22.568 75.1776 20.5549 73.877C18.1269 72.3344 15.7195 70.771 14.1354 68.2668C13.9002 67.8933 13.5543 67.5958 13.831 67.1046C13.9763 66.9594 14.1146 66.8072 14.2599 66.6619H14.253Z" fill="#3D0C16"/>
<path d="M43.1463 45.5084C42.9941 45.9165 42.9041 46.3524 42.6828 46.719C41.8734 48.0818 41.5483 50.2608 39.7912 50.33C38.3523 50.3854 36.4776 50.3023 35.3016 48.8496C35.1702 48.6905 34.9419 48.6144 34.7621 48.4968C33.5238 47.4177 35.0734 47.0026 35.2878 46.2693C35.862 45.2179 36.443 45.2594 36.699 46.3939C37.0656 48.0264 38.1725 48.4899 39.6183 48.6006C40.7735 48.1994 41.2508 47.2724 41.0848 46.1725C40.8565 44.6575 39.722 44.0557 37.8058 44.0142C39.3139 43.1287 40.3308 41.9804 41.7212 42.4577C43.0148 42.9004 43.0909 44.284 43.1324 45.5084H43.1463Z" fill="#F6F6F9"/>
<path d="M36.9854 75.2547C35.2767 77.8626 33.7479 80.5743 32.2952 83.3345C30.4828 87.3329 28.449 91.2068 25.6819 94.6518C24.8103 96.1529 23.9318 97.6471 23.0601 99.1483C22.7212 99.8884 22.7488 100.857 21.7804 101.21C21.6697 101.051 21.5521 100.885 21.4414 100.719C23.5167 96.4919 26.097 92.5488 28.4421 88.4812C32.8625 80.7957 37.352 73.1448 41.807 65.48C41.9938 65.1549 42.0975 64.7813 42.2428 64.4285C42.312 64.2902 42.4019 64.2763 42.5195 64.3801H42.5264C42.7547 64.6084 43.0176 64.809 43.0107 65.1756C41.7724 67.8113 40.2643 70.3016 38.8186 72.8266C38.3067 73.712 37.8778 74.6667 36.9923 75.2685L36.9854 75.2547Z" fill="#600510"/>
<path d="M52.3573 31.0993C52.3228 30.4144 52.7171 30.0478 53.2843 29.7296C55.4634 28.5052 57.7877 28.2008 60.2296 28.4775C61.0459 28.5674 61.0943 28.8234 60.7208 29.5082C60.1397 30.5874 59.6831 31.376 58.0852 31.2515C55.1728 31.0301 52.9592 32.6765 51.0776 34.7656C50.6971 33.2645 51.6102 32.2061 52.3504 31.0924L52.3573 31.0993Z" fill="#F9F9FB"/>
<path d="M65.0234 57.3999C67.071 58.8042 68.8004 60.3883 70.2669 62.2492C70.8065 62.9409 71.3254 63.6604 71.4914 64.5458C71.609 65.1684 71.353 65.5904 70.7374 65.8187C70.2185 66.0124 69.8173 66.0262 69.4645 65.4936C68.3023 63.7434 66.7597 62.3391 65.224 60.9279C64.0411 59.8349 65.307 58.5759 65.0164 57.3999H65.0234Z" fill="#CDBAD5"/>
<path d="M62.918 51.5817C62.5652 51.4434 62.6205 50.4818 62.0394 50.9592C60.1993 52.488 58.1724 51.8585 56.2493 51.4711C51.9258 50.6064 48.8128 48.0053 46.6476 44.2144C46.1703 43.3774 45.9559 42.4919 46.447 41.5719C46.5508 41.7033 46.6615 41.8348 46.7652 41.9662C47.6161 43.0938 47.789 44.6018 48.8474 45.6118C52.4239 49.8731 58.3385 51.9553 61.3338 49.9976C61.0848 49.9077 60.8011 49.9284 60.559 49.7901C60.3446 49.6586 60.2062 49.4788 60.2408 49.209C60.6075 48.6694 61.2162 48.538 61.7696 48.372C63.4714 47.867 64.4052 46.774 64.5159 44.9892C64.5989 44.6779 64.7373 44.4012 64.9172 44.1384C65.5121 43.5227 65.8165 42.7341 66.2246 42.0008C66.9994 41.2053 67.4075 39.884 68.8879 40.0569C69.0816 40.2852 69.2753 40.5204 69.4621 40.7487C66.9925 42.2498 65.6504 44.422 65.5813 47.3412C65.4637 47.528 65.353 47.7148 65.2354 47.9085C64.9379 48.3996 65.3322 48.5864 65.6504 48.7593C66.612 49.2643 67.1446 50.0945 67.4836 51.0837C67.2 51.561 66.9094 52.0383 66.6258 52.5156C66.1001 52.2666 66.1485 51.7201 65.9825 51.2843C65.6643 50.468 65.0693 49.8938 64.2254 49.8039C63.2638 49.7001 63.7066 50.8416 63.2016 51.2013C63.1047 51.3258 63.001 51.4572 62.9041 51.5817H62.918Z" fill="#292233"/>
<path d="M32.6562 42.9835C31.9645 42.8452 31.2796 42.6308 30.5809 42.5823C29.8062 42.527 29.2804 42.2019 29.2458 41.4547C29.2043 40.5347 29.9307 40.3203 30.6847 40.2511C32.0613 40.1266 33.4034 40.3894 34.7108 40.7491C36.2188 41.1642 37.6992 41.6899 39.4771 42.2641C38.391 43.0251 37.5401 43.62 36.6892 44.2149C35.1881 44.3187 33.8392 43.9174 32.6493 42.9974L32.6562 42.9835Z" fill="#CCBBD3"/>
<path d="M13.8266 67.1055C15.1686 69.7134 17.5691 71.2976 19.6928 73.1446C19.9764 73.3936 20.267 73.6357 20.5506 73.8779C18.7036 73.8779 17.8319 72.183 16.4069 71.4221C14.802 70.5574 14.1517 70.8687 13.6952 72.7088C12.533 71.4567 13.287 70.6542 13.9096 69.9348C14.1587 69.6443 14.5876 69.499 14.3385 69.0424C14.2209 68.828 13.9442 68.572 13.7367 68.5582C13.3078 68.5443 13.0657 68.9179 12.9688 69.2915C12.45 71.3944 10.8451 73.1377 11.3709 75.6488C11.5438 76.4789 10.1672 77.6757 10.2502 79.0246C10.3194 80.1729 10.2571 81.3282 10.2502 82.4765C10.1464 82.6356 10.0496 82.6287 9.96657 82.4627C9.44774 77.5235 10.4439 72.8748 12.706 68.4821C12.9757 67.9633 13.204 67.3683 13.8128 67.1055H13.8266Z" fill="#D83C59"/>
<path d="M42.8248 65.0297C42.728 64.8152 42.6242 64.6008 42.5273 64.3794C42.811 64.2687 43.0946 64.158 43.3782 64.0473C44.1599 63.9505 44.6787 64.4762 45.2598 64.8498C46.1868 65.4516 46.9062 65.4032 47.5219 64.3379C47.8954 63.6876 48.0822 62.7607 49.0991 62.6846C49.189 62.8091 49.2721 62.9336 49.362 63.0581C48.9331 64.3171 47.2452 65.4862 47.7709 66.5446C48.2621 67.5338 50.0192 67.9143 51.2436 68.5092C55.2282 70.4254 59.2681 72.2171 63.6539 73.0472C64.5047 73.2063 65.3902 73.2132 66.2549 73.2893C66.331 73.5937 67.1473 73.6491 66.5524 74.1817C59.3096 73.4139 53.0007 70.0795 46.6088 66.9666C45.3013 66.4132 44.153 65.5416 42.8248 65.0366V65.0297Z" fill="#3D0D18"/>
<path d="M58.9706 31.832C61.2327 31.9081 62.886 33.1256 64.3387 34.7029C65.0859 34.9588 65.4041 35.5883 65.7154 36.2386C67.4724 39.9534 65.9436 44.7542 62.3119 46.7603C59.1574 48.4967 56.0583 48.3929 53.0837 46.2899C52.5441 45.9095 52.0184 45.5082 51.9492 44.768C51.9907 44.4844 52.1567 44.2907 52.4127 44.1731C53.1598 44.0901 53.5956 44.6435 54.1144 45.024C56.4872 46.7673 59.3649 46.8157 61.9383 45.1485C64.2419 43.6612 65.3003 40.6866 64.5739 37.7535C63.9306 35.1456 61.7792 33.3332 58.9499 32.9873C58.265 32.9043 57.5041 33.0565 56.9576 32.4339C57.3865 31.4101 58.3619 32.2471 58.9637 31.8389L58.9706 31.832Z" fill="#B6AFC6"/>
<path d="M21.7812 101.209C22.2101 100.524 22.6321 99.8323 23.061 99.1475C23.1233 100.227 22.4868 101.582 24.2924 101.942C24.7213 102.025 24.9011 102.17 25.3646 101.804C26.2639 101.105 27.3085 101.631 27.3223 102.758C27.3292 103.568 27.8065 103.45 28.2493 103.526C33.2231 104.384 38.1623 104.682 42.9493 102.572C43.475 102.336 44.0146 102.406 44.5473 102.551C36.7234 106.086 29.1416 105.553 21.7882 101.195L21.7812 101.209Z" fill="#CC3D56"/>
<path d="M52.1155 44.5956C54.9656 47.8608 59.2753 48.4142 62.7272 45.9653C65.9923 43.6548 66.9123 39.1169 64.8509 35.5404C64.6849 35.2568 64.5119 34.9801 64.339 34.7034C64.422 34.5996 64.5119 34.4959 64.5949 34.3921C66.2413 34.7518 66.2413 36.246 66.6979 37.4289C67.1337 38.937 67.3897 40.4312 66.4765 41.8701C66.0961 42.7486 65.6672 43.5995 65.2383 44.4504C65.1276 44.6233 65.0169 44.8032 64.9062 44.9761C63.6818 47.8331 58.9432 49.2443 55.3529 48.0406C54.1493 47.6394 53.0424 47.0376 52.074 46.1936C50.1024 44.2774 49.0648 41.9738 49.2447 39.1929C49.2862 38.5773 49.2031 37.8371 50.0609 37.6157C50.1647 37.7472 50.2685 37.8786 50.3653 38.01C51.1678 38.6049 50.6144 39.442 50.6766 40.1407C50.8219 41.7525 51.8941 43.0253 52.1016 44.5887L52.1155 44.5956Z" fill="#262032"/>
<path d="M50.4666 90.6743C52.1821 91.1586 53.877 91.7535 55.7032 91.6428C56.2013 91.7327 56.1252 92.0025 55.9315 92.3346C54.043 95.5443 51.7948 98.4221 48.502 100.331C49.2006 99.0516 50.7018 98.5743 51.4696 97.3844C52.0853 96.4229 54.292 95.4683 51.6218 94.2992C51.2344 94.1331 51.5942 94.0432 51.7325 93.9256C53.2129 92.6458 52.3758 92.0094 51.0546 91.4975C50.6949 91.3592 50.093 91.3522 50.4735 90.6743H50.4666Z" fill="#B93D58"/>
<path d="M50.0731 37.622C49.07 40.894 50.2806 43.5227 52.4389 45.8886C52.6603 46.3105 52.8332 46.7394 52.5288 47.2029C51.8025 47.6457 51.2422 47.2237 50.8133 46.7533C48.9732 44.7679 47.6588 42.6304 47.8871 39.6765C47.9978 38.2307 47.9009 37.0063 49.4712 36.3975C49.6857 36.3145 49.8932 36.3145 50.0938 36.4114C50.0869 36.8126 50.08 37.2207 50.0731 37.622Z" fill="#F5F6F9"/>
<path d="M50.0955 36.4115C48.4422 37.124 47.792 38.2931 48.0894 40.1332C48.5806 43.1285 49.8188 45.6189 52.3991 47.3345C53.2223 47.2169 53.8449 47.7357 54.5298 48.0331C55.8995 48.6281 57.3383 48.8563 58.8187 48.9117C59.3444 48.9324 59.9255 48.7249 60.3129 49.2852C60.4651 49.3959 60.6242 49.5135 60.7764 49.6242C60.4305 50.4751 59.6557 50.3713 58.9709 50.399C54.6404 50.5927 51.313 48.7733 48.8434 45.273C47.8404 43.9033 47.5291 42.2707 47.1486 40.6728C47.4392 40.0017 48.2831 39.393 47.3561 38.6044C47.2731 38.1893 46.8166 37.8434 47.1348 37.3661C47.3561 36.9234 47.5706 36.4876 47.792 36.0448C48.2001 36.5982 48.5806 36.3976 48.9749 36.0172C49.3899 35.609 49.8119 35.2078 50.1163 34.7028L50.0817 34.7443C50.7112 33.8381 51.2162 32.8835 51.403 31.7836C51.4583 31.4446 51.5482 31.1402 51.9633 31.0918C52.0947 31.0918 52.2262 31.0918 52.3576 31.0987C52.3576 32.4684 51.4376 33.5199 51.0848 34.772C50.7527 35.3185 50.4207 35.865 50.0955 36.4115Z" fill="#302A38"/>
<path d="M65.4381 13.9505C58.8939 13.487 52.924 15.0504 47.5352 18.7998C49.3683 15.2787 60.2083 11.9513 65.4381 13.9505Z" fill="#366FA8"/>
<path d="M42.5168 64.3722C42.42 64.3722 42.3301 64.3929 42.2401 64.4206C37.2594 61.28 32.2856 58.1255 28.0313 53.9957C26.5924 52.6052 25.0567 51.2632 24.3926 49.264C24.5448 49.2294 24.7039 49.1879 24.8561 49.1533C26.4333 51.9135 28.7645 53.9888 31.1926 55.9395C34.859 58.8795 38.6153 61.6881 42.8558 63.7772C42.7451 63.9709 42.6275 64.1716 42.5168 64.3652V64.3722Z" fill="#3D0D18"/>
<path d="M63.2175 51.2019C62.6848 50.3164 62.9408 49.5347 63.6602 48.9398C64.0476 48.6216 66.3166 50.178 66.5241 50.9321C66.6625 51.4371 66.6141 51.9905 66.6417 52.5162C66.1229 53.4155 65.6041 54.3079 65.0714 55.2003C65.023 55.2833 64.9054 55.3179 64.7394 55.4285C64.2551 53.9897 63.9992 52.4955 63.2175 51.1949V51.2019Z" fill="#CDBBD5"/>
<path d="M66.2659 37.3594C65.7678 36.3356 65.5395 35.1665 64.5918 34.3917C64.6195 33.2711 65.5395 32.6001 65.9892 31.4863C67.0545 32.5655 67.8431 33.6585 68.2443 35.0143C68.4311 35.796 68.6386 36.6123 67.9676 37.2557C67.4626 37.7399 66.8815 38.2518 66.259 37.3594H66.2659Z" fill="#F6F8F9"/>
<path d="M9.97774 82.462C10.0746 82.462 10.1714 82.4689 10.2614 82.4758C10.1853 83.6311 11.3751 83.6795 11.8801 84.3298C12.4958 85.1253 14.2528 85.2844 13.2083 87.0692C13.0699 87.3113 12.8555 88.1622 12.7794 88.6879C12.6687 89.4558 12.4819 90.272 12.5304 91.0814C11.548 89.4488 10.7525 87.7748 10.8494 85.7825C10.9047 84.6134 9.64569 83.7348 9.97774 82.4551V82.462Z" fill="#BE3350"/>
<path d="M68.6264 65.9565C67.6925 65.7282 66.724 65.5829 65.8316 65.2439C64.8424 64.8704 63.8117 64.4138 63.9154 63.0372C64.3582 62.546 64.1299 61.7505 64.7386 61.2524C66.1222 62.38 67.3535 63.639 68.4603 65.0226C68.654 65.2647 69.1244 65.5483 68.6264 65.9495V65.9565Z" fill="#CCBAD2"/>
<path d="M66.2667 37.3592C68.2313 37.6775 68.0584 36.1902 68.2521 35.0142C69.0061 36.6329 69.2621 38.3139 68.8954 40.071C67.8509 40.5345 67.2421 41.4545 66.5573 42.2985C66.2598 42.3676 66.0938 42.3123 66.2252 41.9595C66.6334 40.4307 66.5849 38.895 66.2667 37.3592Z" fill="#CBBDD4"/>
<path d="M34.9809 45.9372C34.0954 47.0163 33.1408 46.3384 32.4283 45.8403C31.4805 45.1693 30.6158 44.3184 29.9863 43.0317C30.9894 43.177 31.8195 43.3015 32.6496 43.426C33.3967 43.1632 34.0401 43.599 34.6973 43.7927C35.2161 43.9449 36.0254 43.8619 36.0808 44.6781C36.1292 45.3907 35.5412 45.6881 34.9809 45.9441V45.9372Z" fill="#CBBBD4"/>
<path d="M62.2615 32.2055C61.5352 32.0603 60.4698 31.8942 60.4353 31.2509C60.3937 30.5799 61.1409 29.8535 61.549 29.1618C61.6666 28.9612 61.8534 28.8712 62.0955 28.9612C63.3199 29.4246 64.4613 30.0334 65.416 30.9327C65.748 31.2509 65.3745 31.5069 65.2015 31.7559C64.323 32.5583 63.2715 32.2332 62.2684 32.2055H62.2615Z" fill="#F7F5F6"/>
<path d="M45.1747 38.0098C45.5621 38.1965 45.991 38.3418 46.3369 38.5908C46.7173 38.8676 47.5613 38.8745 47.2362 39.6492C46.994 40.2234 46.7035 40.8529 45.8526 40.8529C44.2546 40.8529 42.712 41.2196 40.9688 41.7591C41.197 40.9913 41.4253 40.4517 41.868 39.9951C43.3069 39.8983 44.1785 38.8537 45.1747 38.0167V38.0098Z" fill="#C8BCD1"/>
<path d="M52.1133 44.5949C50.4115 42.6995 50.0587 40.4443 50.3769 38.0162C51.6498 33.665 54.6866 31.479 58.9687 31.8318C58.4014 32.323 57.5644 31.8318 57.0179 32.3783C56.7135 32.9871 56.0702 33.0701 55.5306 33.3122C51.8297 35.007 50.3839 38.6872 51.9265 42.4435C52.1686 43.0246 52.7013 43.5434 52.4177 44.2698C52.3208 44.3735 52.217 44.4842 52.1202 44.588L52.1133 44.5949Z" fill="#E6E8EF"/>
<path d="M34.9806 45.9377C35.3057 45.5158 35.6308 45.1007 36.0528 44.5542C34.863 44.1599 33.7562 43.7933 32.6562 43.4266C32.6562 43.2813 32.6562 43.1292 32.6562 42.9839C34.0813 43.143 35.4026 43.6272 36.6962 44.2014C35.8453 45.239 37.8583 44.2844 37.3257 45.1076C37.5194 45.2598 37.6231 45.4673 37.6785 45.6956C37.3464 47.0861 38.73 47.4043 39.2764 48.2482C39.394 48.3658 39.5186 48.4834 39.6362 48.601C37.5609 49.2997 36.4056 48.3243 36.205 45.6126C35.873 45.8547 35.5893 46.0622 35.2988 46.2698C35.195 46.1591 35.0843 46.0484 34.9806 45.9377Z" fill="#403B4A"/>
<path d="M62.1587 54.467C61.7159 54.6399 61.2594 54.7852 60.955 55.1864C60.5261 54.7921 60.1664 55.1311 59.6406 55.394C60.3047 53.879 61.2594 52.869 62.6429 52.2603C63.7981 52.5162 63.4108 53.6438 64.0472 54.4739H62.1587V54.467Z" fill="#EFEFF1"/>
<path d="M47.1547 40.6792C48.0471 40.6861 47.6389 41.454 47.8257 41.8621C48.2892 42.8721 48.7042 43.9028 49.1401 44.9197C49.1954 45.4247 49.2369 45.9159 48.5036 45.9159C47.5421 44.7675 46.6566 43.5915 46.7742 41.9728C46.9056 41.5439 47.0302 41.115 47.1616 40.6792H47.1547Z" fill="#F3F4F8"/>
<path d="M45.1777 38.0098C44.735 39.7046 43.3515 40.5347 41.8711 39.9882C42.549 38.6185 43.2477 37.2903 45.1777 38.0098Z" fill="#F2EFF4"/>
<path d="M39.2676 48.2475C37.5244 48.1991 37.1301 47.113 37.2615 45.6188C38.0432 44.678 38.9148 44.4566 39.9179 45.2936C41.1008 46.5803 40.3814 47.452 39.2746 48.2406L39.2676 48.2475Z" fill="#302F38"/>
<path d="M45.099 43.1567C45.0022 43.3089 44.9053 43.468 44.8085 43.6202C44.428 43.8623 44.2551 44.9207 43.5495 43.9522C43.1759 43.3089 42.7954 42.6655 42.4219 42.0222C44.8846 41.0607 45.0852 41.1437 45.0921 43.1567H45.099Z" fill="#EBEAEC"/>
<path d="M76.0795 56.729C76.1971 56.8535 76.3078 56.985 76.4254 57.1095C75.1802 59.2955 73.9351 61.4884 72.6968 63.6743C72.5446 63.5913 72.3924 63.5014 72.2402 63.4184C73.4232 61.1356 74.6061 58.8596 76.0865 56.729H76.0795Z" fill="#3F6498"/>
<path d="M65.5908 47.3558C65.2657 47.2659 65.1619 47.0169 65.2172 46.7263C65.7153 44.2775 66.9328 42.2506 68.8698 40.6803C68.9735 40.5904 69.2641 40.7287 69.4716 40.7633C69.3679 41.0677 69.3471 41.545 69.1465 41.6418C66.9467 42.6864 65.9159 44.3605 66.1581 46.8093C66.1719 46.9753 65.7914 47.176 65.5977 47.3558H65.5908Z" fill="#BBB4C7"/>
<path d="M66.8995 72.9227C66.7197 71.9127 65.6267 72.0511 64.8242 71.1518C66.2908 71.4216 67.1693 70.128 68.5044 70.6053C68.2139 71.553 67.619 72.2794 66.8995 72.9296V72.9227Z" fill="#C3C6CD"/>
<path d="M13.7832 93.3931C15.6717 95.2816 17.4219 97.2946 19.1167 99.3561C16.8616 97.7996 15.1045 95.7866 13.7832 93.3931Z" fill="#BE3350"/>
<path d="M67.5001 51.0907C66.6907 50.2606 66.0128 49.3267 64.9267 48.7456C63.7092 48.0954 64.906 48.1092 65.2519 47.9155C66.4971 48.6211 67.7215 49.3406 67.5001 51.0907Z" fill="#CBCAD6"/>
<path d="M48.2559 35.6362C48.6571 33.8653 49.1897 32.6132 50.6978 31.5479C50.3381 33.2911 49.6256 34.4394 48.2559 35.6362Z" fill="#CAC8D7"/>
<path d="M62.2617 32.2064C63.1333 31.3763 64.2332 31.985 65.1948 31.7568C64.5307 33.0988 63.553 33.2487 62.2617 32.2064Z" fill="#C5BCCC"/>
<path d="M66.6836 45.9653C66.8289 44.4434 67.4999 43.2328 68.8419 42.126C68.7035 43.9246 67.7074 44.9553 66.6836 45.9653Z" fill="#BBB8C9"/>
<path d="M47.1421 37.366C47.488 37.7326 47.5087 38.1546 47.3635 38.6042C46.2221 37.871 45.1083 37.0754 43.3789 37.449C44.8593 35.9479 45.9938 36.8541 47.1421 37.366Z" fill="#CAC9D6"/>
<path d="M51.9617 31.0919C51.4013 32.344 51.2284 33.7967 50.0801 34.7445C50.1908 33.5062 51.6366 32.5585 50.8479 31.0919C50.6958 30.8083 51.1316 30.5316 51.4498 30.4694C51.9271 30.3794 51.9478 30.7461 51.9548 31.085L51.9617 31.0919Z" fill="#BAB8C5"/>
<path d="M29.3793 43.613C28.7014 44.2563 28.0304 44.0488 27.3594 43.5922C27.9266 43.0457 27.8782 42.1049 28.6184 41.6138C28.8743 42.2917 29.1234 42.9489 29.3724 43.6061L29.3793 43.613Z" fill="#C3C4CC"/>
<path d="M50.1224 34.7104C49.7557 35.8588 48.9394 36.599 47.9571 37.2008C47.6182 36.8065 47.7842 36.426 47.8049 36.0525C48.9671 36.2808 49.3337 35.1186 50.1293 34.7104H50.1224Z" fill="#CAC7D5"/>
<path d="M43.5587 43.9448C44.119 44.3737 44.3473 43.5297 44.8177 43.6127C44.7831 44.5674 44.2643 45.3145 43.7178 46.0339C43.697 46.0547 43.614 46.0547 43.5794 46.0339C43.5379 46.0132 43.5033 45.9578 43.4688 45.9163C43.4964 45.2591 43.531 44.595 43.5587 43.9379V43.9448Z" fill="#BEB9C8"/>
<path d="M39.9161 45.3003C38.9615 44.8368 38.083 45.0028 37.2598 45.6254C37.2805 45.4525 37.2944 45.2795 37.3151 45.1066C38.2213 44.6224 39.1414 43.9998 39.9092 45.3003H39.9161Z" fill="#D4D4D9"/>
<path d="M25.6816 94.6518C27.7431 90.7986 29.9083 87.0077 32.2949 83.3345C31.7692 84.5658 31.7277 85.5965 33.3326 86.0324C33.4917 86.0739 33.5539 86.482 33.6577 86.7172C33.3741 86.9524 33.0766 86.8486 32.7861 86.7725C33.1112 87.1253 33.6093 87.319 33.9413 87.7064C33.7961 88.0869 33.6715 88.4881 33.3049 88.7302C32.7515 88.6611 32.3018 88.412 31.9352 88.0039C32.2188 88.4328 32.8691 88.5296 32.9729 89.1245C32.8414 89.339 32.7169 89.5465 32.5855 89.761C31.9421 90.1553 31.4856 89.595 31.278 89.505C31.4856 89.5604 31.9075 90.266 32.5716 89.7541C32.6869 90.0999 32.4033 90.6303 31.7208 91.3451C31.2296 91.4074 30.8422 91.1099 30.3787 90.9508C30.7315 91.2898 31.2158 91.4489 31.3126 91.9677C31.3264 92.3482 31.3956 92.7494 30.9667 92.9846C30.4202 92.7771 29.9291 92.4519 29.2096 92.0853C29.9222 92.4796 30.4133 92.8117 30.9806 92.9777C31.0152 93.6556 30.5517 93.9946 30.0674 94.3266C29.6455 94.1883 29.2857 93.9323 28.8984 93.7386C29.2442 93.9807 29.6455 94.1744 29.68 94.6725C29.2512 95.136 28.8084 94.797 28.5594 94.5411C27.5287 93.4965 26.6086 93.7732 25.6886 94.6518H25.6816Z" fill="#C24864"/>
<path d="M42.8238 65.0299C44.3387 65.1821 45.4041 66.199 46.6077 66.9599C45.7569 66.9599 45.1135 66.448 44.4148 66.0675C43.1558 65.3827 42.6232 65.7355 42.5263 67.3334C42.6647 68.5233 44.1243 68.3988 44.5186 69.3326C44.2972 69.5402 44.0828 69.7477 43.8614 69.9552C43.3495 70.2665 42.9414 69.9276 42.4848 69.7131C42.9206 70.0452 43.4464 70.1974 43.7992 70.5986C43.5778 70.8476 43.3564 71.0897 43.1351 71.3388C42.7062 71.5947 42.3257 71.408 41.883 71.1866C42.3119 71.4771 42.6162 71.7884 42.8238 72.1896C42.893 72.6877 42.6785 73.0267 42.2496 73.255C41.7654 73.0751 41.4057 72.667 40.7139 72.4594C41.3987 72.7431 41.8 73.082 42.1458 73.4971C42.215 74.0021 42.0144 74.3549 41.544 74.5486C41.0667 74.2857 40.5617 74.0782 39.8146 73.6839C40.5548 74.092 41.0598 74.2926 41.5371 74.5624C41.544 75.0674 41.295 75.3856 40.8315 75.5655C39.9045 76.0359 39.2404 74.6177 38.2927 75.2127C37.8569 75.2265 37.4211 75.2403 36.9922 75.2542C38.936 71.8438 40.8868 68.4334 42.8307 65.0229L42.8238 65.0299Z" fill="#C14965"/>
<path d="M42.5411 79.4946C41.7248 81.3486 40.6872 83.0711 39.5803 84.759C39.3382 83.5622 40.0508 82.4346 39.781 81.1964C39.6841 80.7398 40.3136 80.3317 40.8739 80.1587C41.4412 79.9789 41.9808 79.716 42.5342 79.4946H42.5411Z" fill="#C83A58"/>
<path d="M43.168 87.457C45.6791 88.3494 48.0449 89.5531 50.4523 90.6807C47.7475 90.231 45.3678 89.0481 43.168 87.457Z" fill="#B93D58"/>
<path d="M31.3129 91.9666C30.7802 91.6968 30.2338 91.4547 29.7288 91.1434C29.4313 90.9567 28.9609 90.7145 29.1684 90.2787C29.3898 89.8152 29.8049 90.0574 30.1438 90.2441C30.7111 90.5554 31.3475 90.763 31.7211 91.351C31.5827 91.5585 31.4513 91.766 31.3129 91.9736V91.9666Z" fill="#5D0817"/>
<path d="M44.5185 69.3327C43.64 69.3327 43.0381 68.7101 42.3602 68.302C41.7514 67.9353 42.1181 67.6033 42.5193 67.3335C43.2802 67.9077 44.6638 67.8523 44.5116 69.3327H44.5185Z" fill="#530715"/>
<path d="M42.1389 73.4967C41.2534 73.476 40.6724 72.8257 39.9668 72.4314C39.78 72.3276 39.6278 72.1339 39.7938 71.8918C39.9253 71.6981 40.1466 71.5459 40.3472 71.6843C41.0321 72.1339 42.1043 72.1408 42.2496 73.2477C42.2012 73.3238 42.1597 73.3999 42.1389 73.4898V73.4967Z" fill="#58071A"/>
<path d="M38.2874 75.2124C37.9277 74.4929 38.0868 74.1401 38.8961 74.486C39.5741 74.7696 40.1828 75.1985 40.8262 75.5652C39.7678 77.004 39.1452 75.2677 38.2874 75.2124Z" fill="#500613"/>
<path d="M32.9806 89.1241C32.9253 89.1102 32.8699 89.1033 32.8215 89.0756C32.0882 88.6467 31.2028 88.4323 30.7324 87.6368C30.6909 87.5676 30.8845 87.2425 30.9191 87.2563C31.8807 87.4707 32.7523 87.8581 33.3126 88.7228C33.202 88.8543 33.0913 88.9857 32.9806 89.1171V89.1241Z" fill="#4F0414"/>
<path d="M33.948 87.7064C33.7819 87.7064 33.5882 87.7548 33.4637 87.6787C32.7512 87.2568 31.3331 86.8901 31.6513 86.2122C32.0318 85.4098 32.9241 86.5996 33.6574 86.7172C34.0033 86.9731 34.0517 87.3121 33.948 87.6995V87.7064Z" fill="#580416"/>
<path d="M43.7995 70.5985C42.7272 70.6884 41.9317 70.1004 41.3644 69.3464C41.0186 68.8898 41.6827 68.7169 42.6165 69.2426C43.0385 69.4778 43.4467 69.7199 43.8617 69.962C43.841 70.1765 43.8202 70.3909 43.7995 70.6054V70.5985Z" fill="#590717"/>
<path d="M29.6804 94.6723C29.0717 94.3126 28.4629 93.9598 27.8542 93.5931C27.6051 93.441 27.4045 93.2265 27.5705 92.936C27.7296 92.6662 28.0478 92.6247 28.2761 92.8184C28.871 93.3234 29.8741 93.351 30.0747 94.3264C29.9433 94.444 29.8118 94.5547 29.6873 94.6723H29.6804Z" fill="#540312"/>
<path d="M42.8217 72.1829C42.0124 71.7402 40.3936 71.1799 40.7603 70.6334C41.4174 69.658 42.2337 71.2629 43.133 71.339C43.0293 71.6226 42.9255 71.9062 42.8217 72.1829Z" fill="#4F0614"/>
<path d="M41.6494 61.101C41.6287 61.6752 41.3589 61.7098 40.93 61.4538C40.6049 61.2601 40.4665 61.0595 40.7017 60.679C41.4211 59.503 42.1129 58.3132 42.8116 57.1233C43.026 56.7567 43.5794 56.7636 43.5518 56.9435C43.4134 57.9535 45.4887 58.5553 44.0291 59.7797C43.6486 60.0979 43.4688 60.6444 43.1921 61.0872C42.6755 60.6306 42.5902 60.0449 42.9361 59.3301C42.6179 59.5929 42.5072 59.9527 42.3896 60.2847C42.2513 60.6652 41.94 60.8727 41.6425 61.101H41.6494Z" fill="#64666E"/>
<path d="M41.6551 57.2959C41.5859 57.9738 41.2884 58.4857 40.569 58.4788C39.6143 58.465 38.8672 58.0361 38.805 56.9777C38.7635 56.2652 39.3031 55.8363 39.9395 55.8778C40.7834 55.9262 41.489 56.3412 41.6551 57.2959Z" fill="#26272F"/>
<path d="M41.6484 61.1003C42.1742 60.2494 42.6999 59.3917 43.3363 58.354C43.6615 59.4401 41.9044 60.1941 43.1911 61.0865C42.6792 61.6606 42.1603 61.3078 41.6484 61.1003Z" fill="#ADAEB8"/>
<path d="M39.953 60.0212C39.2958 59.6131 38.611 59.1911 37.94 58.7415C37.8777 58.7 37.9192 58.4579 37.9607 58.3264C38.0368 58.0981 38.2236 58.2019 38.3619 58.2434C39.0329 58.4371 39.4895 59.3018 40.3957 58.8591C40.6033 58.7553 40.6724 59.1289 40.6032 59.3156C40.4995 59.6062 40.368 59.9036 39.9599 60.0212H39.953Z" fill="#28242C"/>
<path d="M52.0039 67.2713C50.7242 67.2505 49.6381 66.0953 49.6727 64.7879C49.7073 63.4804 50.8625 62.4013 52.163 62.4704C53.4013 62.5327 54.4113 63.6188 54.4044 64.857C54.3974 66.199 53.3114 67.292 52.0039 67.2713Z" fill="#3E141C"/>
<path d="M42.7967 84.4609C42.6722 84.8276 42.4577 85.1388 42.0081 85.1112C41.4962 85.0766 41.2125 84.7791 41.2956 84.2534C41.3647 83.8037 41.6968 83.617 42.1188 83.6585C42.5615 83.7069 42.7483 84.0182 42.7967 84.4609Z" fill="#2C212E"/>
<path d="M44.473 81.5143C44.3623 81.9086 44.1548 82.206 43.7051 82.1991C43.2693 82.1853 42.9719 81.9224 42.9649 81.5073C42.958 81.0024 43.297 80.7187 43.7951 80.7533C44.2378 80.781 44.4246 81.1061 44.473 81.5212V81.5143Z" fill="#201F27"/>
<path d="M28.448 73.4414C28.0467 73.3446 27.7354 73.1232 27.7285 72.6874C27.7285 72.2654 27.9983 71.9541 28.4203 71.9472C28.9184 71.9334 29.2435 72.2516 29.2158 72.7566C29.1951 73.1786 28.8699 73.3999 28.441 73.4414H28.448Z" fill="#282834"/>
<path d="M27.5504 75.545C27.4674 76.0569 27.2115 76.3336 26.7757 76.306C26.3606 76.2783 26.0424 76.0431 26.0908 75.5658C26.1323 75.1369 26.3883 74.874 26.8448 74.874C27.3291 74.874 27.4536 75.2337 27.5574 75.5381L27.5504 75.545Z" fill="#1A1C22"/>
<path d="M55.7935 56.9439C55.6067 57.9608 54.7143 59.0953 53.9396 60.2644C53.7044 60.6241 53.3447 60.2298 53.0818 60.0984C49.5192 58.286 46.0949 56.2245 42.726 54.08C42.4632 53.914 42.138 53.7895 42.1657 53.3537C42.311 50.7319 45.2372 49.0924 47.4716 50.3929C49.7406 51.7142 52.0026 53.0424 54.2785 54.3498C55.1363 54.841 55.8004 55.429 55.7866 56.9439H55.7935Z" fill="#F8F9FA"/>
<path d="M49.097 62.6854C48.9102 62.9483 48.7027 63.2043 48.5366 63.481C46.655 66.6216 46.2676 66.67 43.3691 64.0482C44.476 62.1666 45.6035 60.3058 46.6758 58.4034C47.0563 57.7255 47.4091 57.5318 48.0455 58.0645C48.8479 58.7424 50.4667 58.7839 50.5289 59.8285C50.5843 60.7485 49.6158 61.7308 49.097 62.6854Z" fill="#F6F5F8"/>
<path d="M56.3545 55.2004C52.7642 52.8069 49.2085 50.3511 45.1133 48.9122C45.8535 48.2481 46.7528 48.4695 47.6521 49.0022C50.0594 50.4134 52.4598 51.8177 54.8533 53.2496C55.635 53.72 56.4928 54.1766 56.3545 55.2073V55.2004Z" fill="#C5C0D3"/>
<path d="M37.9473 50.6484C38.9849 50.7384 39.9811 50.7799 40.7074 51.9213C39.2893 52.2741 38.6529 51.2987 37.9473 50.6484Z" fill="#ACA9B8"/>
<path d="M58.6231 62.7744C57.5647 62.2348 56.5063 62.0965 56.0566 60.9897C57.2949 60.8859 57.5508 61.0588 58.6231 62.7744Z" fill="#BAB3C7"/>
<path d="M64.0123 58.6456C63.9085 59.3858 63.7909 60.0015 63.1268 59.7594C62.1999 59.4204 60.844 59.9669 60.422 58.618C60.3252 58.2998 60.4843 57.5181 61.2383 57.7325C62.1929 58.0023 63.3897 57.7325 64.0054 58.6526L64.0123 58.6456Z" fill="#2A2A33"/>
<path d="M62.3251 61.848C61.7371 61.3153 60.0976 62.3322 60.0008 60.6028C59.9593 59.911 60.3951 59.5997 61.0661 59.9525C61.8755 60.3745 63.2797 59.6689 63.4804 61.1355C63.5426 61.5713 63.3213 62.3115 62.3251 61.8549V61.848Z" fill="#2B2736"/>
<path d="M60.3201 49.2852C57.4492 49.5757 54.7375 49.2299 52.4062 47.3344C52.4201 46.8502 52.4339 46.3729 52.4408 45.8886C56.8612 49.0085 60.2716 48.7871 64.4637 45.1208C64.5744 45.0239 64.7612 45.0239 64.9134 44.9824C64.5606 47.9639 64.2009 48.3029 60.3201 49.2921V49.2852Z" fill="#CCBED6"/>
<path d="M48.4952 45.9097C48.7096 45.5777 48.9241 45.2456 49.1316 44.9136C51.7119 48.407 55.1016 50.2333 59.5219 49.915C59.9508 49.8874 60.4005 49.915 60.774 49.6245C61.3482 49.5277 61.9224 49.4239 62.628 49.3063C61.7979 50.6967 60.7671 51.3124 59.2176 51.2571C54.811 51.098 51.1793 49.4723 48.4883 45.9166L48.4952 45.9097Z" fill="#CABED3"/>
<path d="M66.2275 41.9595C66.3382 42.0702 66.4489 42.1878 66.5595 42.2984C66.2067 43.0663 65.847 43.8342 65.2383 44.4567C65.2729 43.509 65.8816 42.7896 66.2206 41.9595H66.2275Z" fill="#968EA2"/>
<path d="M52.4102 44.2836C48.5986 38.9501 52.1335 33.0355 57.0105 32.3853C61.6245 32.3784 64.5784 34.4606 65.2425 38.203C65.8166 41.4474 64.447 44.422 61.6453 45.9716C58.8575 47.5142 55.5993 47.1199 53.1435 44.9408C52.9014 44.7264 52.6593 44.505 52.4102 44.2836Z" fill="#0D1226"/>
<path d="M39.6563 46.5113C39.6563 47.1063 39.269 47.4521 38.7709 47.4729C38.1552 47.5006 37.7471 47.0509 37.754 46.4491C37.754 45.8334 38.169 45.4806 38.8193 45.5359C39.4004 45.5844 39.6702 45.9372 39.6633 46.5113H39.6563Z" fill="#E9E8EE"/>
<path d="M30.9814 92.9769C29.8054 93.5925 29.2589 92.4511 28.4565 92.0499C28.2282 91.9323 28.249 91.6487 28.4565 91.5103C28.6087 91.4135 28.92 91.3374 29.0307 91.4273C29.6878 91.9323 30.7255 91.9738 30.9814 92.9838H30.9884L30.9814 92.9769Z" fill="#540B18"/>
<path d="M32.5711 89.7537C31.997 90.321 30.0946 89.9198 29.8802 89.1796C29.8456 89.055 29.9148 88.8614 30.0047 88.7507C30.1638 88.5501 30.3921 88.6054 30.5858 88.7092C31.2499 89.0551 31.914 89.4078 32.5781 89.7606H32.5642L32.5711 89.7537Z" fill="#4E0715"/>
<path d="M41.5296 74.5621C40.4643 75.0533 39.8763 74.1194 39.1153 73.732C38.9078 73.6282 38.894 73.3653 39.0116 73.1717C39.143 72.9572 39.3782 72.9364 39.565 73.061C40.2498 73.5175 41.246 73.566 41.5365 74.5483L41.5296 74.5621Z" fill="#5A0717"/>
<path d="M40.95 57.3374C40.9362 57.5864 40.8739 57.787 40.5903 57.7801C40.0576 57.7732 39.6495 57.5241 39.4696 57.0261C39.4004 56.8324 39.5872 56.6041 39.8363 56.5972C40.3689 56.5972 40.7356 56.867 40.95 57.3304V57.3374Z" fill="#DBE1E5"/>
<path d="M52.0524 63.1621C53.0208 63.3212 53.6711 63.8124 53.6849 64.8639C53.6988 65.9153 53.0623 66.5448 52.08 66.531C51.1185 66.5172 50.4405 65.9084 50.4129 64.8708C50.3852 63.7985 51.1185 63.3696 52.0524 63.1621Z" fill="#D9435F"/>
<path d="M45.2175 51.2632C45.425 51.3808 45.6602 51.5191 45.8954 51.6506C47.4519 52.5499 49.0084 53.4699 50.5787 54.3485C51.1459 54.6667 51.561 54.9019 51.1044 55.6974C50.6894 56.4307 50.3089 56.403 49.6932 56.0294C48.1091 55.0679 46.4973 54.1409 44.9062 53.1932C44.5603 52.9857 44 52.8542 44.3735 52.2455C44.5949 51.8927 44.6779 51.4154 45.2175 51.2632Z" fill="#282039"/>
<path d="M53.3953 56.5283C53.7689 56.5283 53.9626 56.7566 54.011 57.1025C54.0525 57.4207 53.7966 57.6213 53.5475 57.649C53.1947 57.6836 52.9388 57.4622 52.9042 57.0886C52.8765 56.7566 53.1671 56.6736 53.3953 56.5352V56.5283Z" fill="#555756"/>
<path d="M47.5985 62.0268C46.9897 61.8954 46.5816 61.5011 46.6023 60.92C46.6231 60.332 47.0105 59.9377 47.6953 60.0069C48.2764 60.0622 48.5877 60.4081 48.5946 60.9615C48.5946 61.5979 48.2072 61.9369 47.5985 62.0268Z" fill="#3D2B2D"/>
<path d="M45.876 62.6919C46.6438 62.7265 47.0174 63.107 47.0243 63.7295C47.0243 64.276 46.6577 64.6634 46.0973 64.6842C45.4471 64.7049 45.0666 64.3314 45.0804 63.6742C45.0943 63.1139 45.4332 62.7887 45.8829 62.6988L45.876 62.6919Z" fill="#341E2A"/>
<path d="M63.2236 58.936C62.4211 59.1435 61.6948 58.9775 60.6641 58.4863C61.847 58.2027 62.5457 58.5348 63.2236 58.936Z" fill="#C1BFCB"/>
<path d="M63.2024 61.1487C62.0126 61.4739 61.307 61.1003 60.6152 60.6576C61.4246 60.4708 62.1579 60.6576 63.2024 61.1487Z" fill="#BCB1C6"/>
<path d="M51.8231 37.3865C52.2244 36.6394 52.7501 36.1828 53.6702 35.9891C55.8008 35.5464 57.9176 34.986 59.9998 34.3358C61.2104 33.9553 62.1166 34.1905 62.9191 35.0829C63.0021 36.0859 62.172 36.2451 61.5355 36.3972C58.7339 37.0613 55.9807 37.9191 53.1652 38.5279C52.252 38.7216 51.3043 38.8876 51.8231 37.3796V37.3865Z" fill="#1C7ACE"/>
<path d="M51.8225 37.387C51.8433 37.7951 51.6842 38.4316 52.4105 38.224C55.8624 37.2556 59.4112 36.6537 62.7732 35.367C62.8493 35.3394 62.8769 35.1872 62.9254 35.0903C63.3958 35.3809 63.2782 35.9758 63.5964 36.3424C62.3789 37.4077 60.7878 37.387 59.342 37.7605C56.7271 38.4385 54.1745 39.3793 51.4766 39.7182C51.8294 38.9781 51.0201 38.058 51.8225 37.387Z" fill="#032050"/>
<path d="M51.4785 39.7249C54.9443 38.3622 58.6175 37.7465 62.1732 36.7088C62.6436 36.5705 63.1278 36.4667 63.5982 36.3491C64.2208 36.9855 63.5637 37.0201 63.2109 37.117C59.4546 38.1685 55.6914 39.2061 51.9282 40.2299C51.5408 40.3337 51.5269 39.9809 51.4785 39.718V39.7249Z" fill="#386DAA"/>
<path d="M48.8145 53.8855C49.2641 54.1622 49.9282 54.5358 50.5508 54.9716C50.7445 55.103 50.6408 55.442 50.4263 55.5043C49.6861 55.7187 49.2711 55.0408 48.6969 54.7848C48.434 54.6672 48.0259 54.5635 48.0674 54.1415C48.0951 53.8925 48.3095 53.8094 48.8145 53.8925V53.8855Z" fill="#A74F66"/>
<path d="M47.5951 53.2557C47.5329 53.6016 47.3669 53.8229 47.1593 53.7607C46.3223 53.5116 45.5268 53.1588 45.0149 52.4117C44.9111 52.2595 45.2224 51.9413 45.3884 52.0243C46.1563 52.4048 46.8826 52.8545 47.5951 53.2557Z" fill="#3C709F"/>
<rect x="52.6191" y="0.369629" width="49.3714" height="102.793" rx="24.6857" transform="rotate(30.4842 52.6191 0.369629)" stroke="black" stroke-width="1.98896"/>
</svg>
