<svg width="106" height="133" viewBox="0 0 106 133" fill="none" xmlns="http://www.w3.org/2000/svg">
<g clip-path="url(#clip0_360_88773)">
<path d="M43.0371 14.7047C43.0371 14.7047 44.3942 0.753265 52.9971 0.873329C61.6001 0.993393 62.25 14.7047 62.25 14.7047H58.0201C58.0201 14.7047 57.3085 5.75446 52.9971 5.16943C48.6857 4.58439 47.3925 14.7047 47.3925 14.7047H43.0371Z" fill="#FA5946"/>
<path d="M84.1563 126.128C82.855 126.739 81.5266 127.285 80.171 127.765C68.0542 132.079 40.4256 134.908 23.9931 127.765C23.1383 127.394 22.2894 127.009 21.4463 126.61C6.52282 119.542 -5.70193 107.501 4.82868 66.1442C6.00681 61.4854 7.44243 56.8942 9.12904 52.3915C17.1217 31.1293 28.7979 18.861 39.5444 13.4494C44.2105 11.0874 48.7025 10.0418 52.6526 10.0942C57.2703 10.1358 61.8354 11.0708 66.0912 12.8469C79.2082 18.3698 89.1506 32.0898 96.9935 53.0944C98.1567 56.2117 99.2751 59.4862 100.349 62.9178C112.062 100.356 100.51 118.468 84.1563 126.128Z" fill="#FCBB41"/>
<path d="M24.762 114.824L21.442 126.613C6.5229 119.542 -5.70185 107.501 4.82875 66.1441C6.00689 61.4853 7.44251 56.8941 9.12912 52.3914L16.657 67.0544L7.26974 83.7564L20.585 98.5831L14.6103 108.171L24.762 114.824Z" fill="#7D67BF"/>
<path d="M84.1564 126.128L81.1426 114.667L90.3249 107.385L84.8723 98.5831L98.0356 83.3372L89.5759 67.0435L96.9847 53.0942C98.148 56.2115 99.2664 59.486 100.34 62.9176C112.062 100.356 100.51 118.468 84.1564 126.128Z" fill="#7D67BF"/>
<path d="M66.0898 12.8469L59.3396 25.3663H45.8041L39.543 13.4385C44.209 11.0874 48.7011 10.0418 52.6511 10.0942C57.2689 10.1358 61.8339 11.0708 66.0898 12.8469Z" fill="#7D67BF"/>
<path d="M81.1445 41.8958H24.7617V81.3465H81.1445V41.8958Z" fill="#7D67BF"/>
<path d="M75.6194 47.3684H30.2871V76.498H75.6194V47.3684Z" fill="#FA5946"/>
<path d="M32.8514 99.4739C33.8654 99.4739 34.8566 99.7717 35.6998 100.33C36.543 100.888 37.2004 101.681 37.5888 102.609C37.9773 103.537 38.0793 104.559 37.8822 105.544C37.685 106.53 37.1974 107.435 36.481 108.146C35.7646 108.857 34.8516 109.342 33.8573 109.539C32.863 109.736 31.8321 109.637 30.8948 109.253C29.9575 108.87 29.1559 108.22 28.5913 107.386C28.0267 106.551 27.7244 105.569 27.7227 104.565C27.7232 103.217 28.2638 101.925 29.2255 100.972C30.1872 100.019 31.4913 99.4832 32.8514 99.4826V99.4739Z" fill="#FA5946"/>
<path d="M52.8719 99.4736C53.8855 99.4754 54.8759 99.7747 55.7179 100.334C56.56 100.893 57.216 101.687 57.6031 102.615C57.9902 103.543 58.091 104.564 57.8928 105.549C57.6946 106.534 57.2064 107.439 56.4896 108.149C55.7729 108.859 54.8599 109.343 53.8658 109.539C52.8718 109.736 51.8413 109.636 50.9045 109.252C49.9677 108.869 49.1666 108.219 48.6024 107.384C48.0382 106.55 47.7361 105.569 47.7344 104.564C47.7335 103.896 47.8658 103.233 48.1237 102.615C48.3816 101.997 48.76 101.436 49.2372 100.963C49.7144 100.49 50.2811 100.115 50.9048 99.8594C51.5285 99.6039 52.197 99.4728 52.8719 99.4736Z" fill="#FA5946"/>
<path d="M72.8768 99.4739C73.8907 99.4739 74.882 99.7717 75.7252 100.33C76.5684 100.888 77.2258 101.681 77.6142 102.609C78.0027 103.537 78.1047 104.559 77.9076 105.544C77.7104 106.53 77.2228 107.435 76.5064 108.146C75.79 108.857 74.877 109.342 73.8827 109.539C72.8884 109.736 71.8575 109.637 70.9202 109.253C69.9829 108.87 69.1813 108.22 68.6167 107.386C68.0521 106.551 67.7498 105.569 67.748 104.565C67.7486 103.217 68.2892 101.925 69.2509 100.972C70.2126 100.019 71.5167 99.4832 72.8768 99.4826V99.4739Z" fill="#FA5946"/>
<path d="M101.19 62.6667C95.6604 44.9955 89.2363 32.1378 81.5542 23.3557C75.899 16.8941 69.6269 12.6918 62.5661 10.6573C61.0945 3.84422 57.7194 0.0654893 53.0093 0H52.8727C46.5433 0 43.8688 6.71047 42.8003 11.059C41.5795 11.5183 40.3844 12.0422 39.2203 12.6285C39.1894 12.6379 39.1592 12.6496 39.13 12.6634L39.0551 12.7115C34.7195 14.9141 30.4169 18.1056 26.4316 22.1594C19.102 29.6208 12.9665 39.7738 8.35774 51.9548C8.32049 52.0233 8.29376 52.0969 8.27843 52.1731C6.58923 56.6814 5.14923 61.2776 3.96485 65.9412C-1.13963 86.0093 -1.32249 100.786 3.4295 111.094C7.83561 120.644 15.7402 125.135 23.6337 128.558C31.785 132.103 41.8684 132.991 49.925 132.991C51.2468 132.991 52.5312 132.967 53.7341 132.926C63.6346 132.592 73.881 130.926 80.4725 128.579C81.8781 128.077 83.233 127.52 84.5372 126.907H84.557C87.762 125.423 90.7458 123.509 93.4243 121.218C97.4812 117.713 100.657 113.318 102.699 108.383C107.559 96.7757 107.05 81.3944 101.19 62.6667ZM43.5824 12.5892C43.7685 12.5841 43.9482 12.5206 44.0957 12.408C45.472 11.9338 46.8842 11.5688 48.319 11.3165H48.3388C48.4433 11.3162 48.5469 11.2977 48.645 11.262C49.8496 11.066 51.0681 10.966 52.2889 10.9629H52.6281C55.6519 11.0003 58.6588 11.417 61.5769 12.2028L61.6364 12.2181C62.7265 12.5174 63.8008 12.8708 64.8551 13.2769L58.8209 24.493H46.3406L40.7184 13.7811C41.6789 13.3256 42.6336 12.9283 43.5824 12.5892ZM49.6474 9.3868C50.3237 7.69062 51.4098 5.85038 52.8793 6.04684C54.3487 6.24331 55.3026 7.79322 55.9327 9.41736C54.8576 9.31258 53.7656 9.25072 52.6568 9.23181C51.6513 9.21878 50.6461 9.27055 49.6474 9.3868ZM52.8881 1.74638H52.985C57.6357 1.81187 59.7198 6.54893 60.634 10.1618C59.7308 9.95655 58.8143 9.78192 57.8868 9.64439C56.8228 6.38302 55.2189 4.58425 53.115 4.30483C51.509 4.08653 49.2839 4.87022 47.6624 9.6815C46.7007 9.86834 45.7492 10.1037 44.8117 10.3866C45.8978 6.61878 48.211 1.74638 52.8881 1.74638ZM5.03333 110.369C0.459786 100.437 0.671279 86.0442 5.68323 66.3625C6.7407 62.1872 7.93549 58.2578 9.2676 54.5744L15.6565 67.0174L6.48955 83.3242C6.40093 83.4825 6.36415 83.6641 6.38428 83.844C6.4044 84.0239 6.48045 84.1932 6.6019 84.3284L19.4898 98.6705L13.861 107.712C13.7406 107.906 13.7009 108.138 13.7502 108.359C13.7996 108.581 13.9341 108.775 14.1253 108.9L23.7417 115.202L20.8777 125.37C14.5395 122.247 8.55161 118.007 5.03333 110.369ZM79.8755 126.944C67.1198 131.487 39.824 133.694 24.3409 126.966C23.724 126.697 23.1072 126.421 22.4903 126.139L25.6121 115.06C25.662 114.882 25.6537 114.693 25.5884 114.52C25.5231 114.347 25.4041 114.199 25.2486 114.098L15.8085 107.911L21.3359 99.0438C21.4359 98.8836 21.481 98.6956 21.4643 98.5079C21.4476 98.3203 21.3701 98.143 21.2434 98.0025L8.33571 83.6407L17.4277 67.4692C17.498 67.3442 17.5362 67.2039 17.5388 67.0607C17.5415 66.9176 17.5087 66.776 17.4431 66.6484L10.096 52.339C17.6458 32.5132 28.584 20.1925 39.1454 14.5735L45.0232 25.7722C45.0977 25.9138 45.2101 26.0325 45.348 26.1153C45.4859 26.198 45.6441 26.2417 45.8053 26.2416H59.3408C59.5004 26.2417 59.657 26.199 59.794 26.1179C59.931 26.0367 60.0431 25.9203 60.1185 25.7809L66.4854 13.971C78.5471 19.3717 88.181 32.1618 96.0283 53.0463L88.8045 66.6375C88.7392 66.7619 88.7052 66.9001 88.7052 67.0403C88.7052 67.1805 88.7392 67.3186 88.8045 67.443L96.9933 83.215L84.2023 98.0156C84.0808 98.156 84.0075 98.3311 83.9928 98.5155C83.9781 98.6999 84.023 98.8841 84.1208 99.0416L89.168 107.184L80.5937 113.984C80.461 114.089 80.3618 114.231 80.3083 114.391C80.2547 114.551 80.249 114.723 80.2919 114.886L83.1206 125.643C82.0764 126.111 80.9947 126.544 79.8755 126.944ZM101.071 107.712C97.8921 115.305 92.4087 121.059 84.7421 124.882L82.1425 114.997L90.8754 108.068C91.0433 107.935 91.1564 107.746 91.1933 107.536C91.2303 107.326 91.1885 107.11 91.0759 106.929L85.9582 98.6705L98.7138 83.9092C98.8281 83.7773 98.9001 83.6146 98.9205 83.4419C98.9409 83.2693 98.9089 83.0945 98.8284 82.94L90.578 67.0501L96.8457 55.262C97.7577 57.7943 98.6448 60.4393 99.5069 63.1972C105.241 81.5123 105.768 96.4875 101.071 107.712ZM82.0257 81.3464V41.8957C82.0257 41.6641 81.9329 41.442 81.7676 41.2782C81.6023 41.1145 81.3782 41.0225 81.1445 41.0225H24.7617C24.528 41.0225 24.3038 41.1145 24.1386 41.2782C23.9733 41.442 23.8805 41.6641 23.8805 41.8957V81.3464C23.8805 81.578 23.9733 81.8001 24.1386 81.9639C24.3038 82.1276 24.528 82.2196 24.7617 82.2196H81.1445C81.3782 82.2196 81.6023 82.1276 81.7676 81.9639C81.9329 81.8001 82.0257 81.578 82.0257 81.3464ZM80.2633 80.4732H25.6429V42.7689H80.2633V80.4732ZM30.2869 77.3712H75.6192C75.8529 77.3712 76.0771 77.2792 76.2423 77.1155C76.4076 76.9517 76.5004 76.7296 76.5004 76.498V47.3706C76.5004 47.139 76.4076 46.9169 76.2423 46.7531C76.0771 46.5894 75.8529 46.4974 75.6192 46.4974H30.2869C30.0532 46.4974 29.8291 46.5894 29.6638 46.7531C29.4986 46.9169 29.4057 47.139 29.4057 47.3706V76.498C29.4057 76.7296 29.4986 76.9517 29.6638 77.1155C29.8291 77.2792 30.0532 77.3712 30.2869 77.3712ZM31.1682 48.2416H74.738V75.6248H31.1682V48.2416ZM32.8513 98.6007C31.663 98.6007 30.5014 98.9497 29.5133 99.6037C28.5251 100.258 27.7548 101.187 27.2997 102.275C26.8446 103.363 26.725 104.559 26.9562 105.714C27.1874 106.869 27.7589 107.93 28.5985 108.764C29.4382 109.597 30.5082 110.165 31.6734 110.395C32.8387 110.626 34.0468 110.51 35.1451 110.06C36.2434 109.611 37.1827 108.849 37.8441 107.871C38.5055 106.893 38.8595 105.742 38.8612 104.565C38.8618 102.984 38.2291 101.468 37.1022 100.35C35.9752 99.2316 34.4462 98.6024 32.8513 98.6007ZM32.8513 108.765C32.0109 108.765 31.1893 108.518 30.4906 108.055C29.7919 107.592 29.2475 106.934 28.9263 106.164C28.6051 105.395 28.5215 104.548 28.6861 103.732C28.8507 102.915 29.2561 102.165 29.851 101.577C30.4459 100.988 31.2036 100.588 32.0281 100.427C32.8526 100.265 33.7069 100.35 34.4829 100.67C35.2588 100.99 35.9216 101.531 36.3873 102.224C36.8529 102.917 37.1005 103.732 37.0988 104.565C37.0953 105.679 36.6464 106.747 35.8503 107.534C35.0543 108.321 33.9759 108.763 32.8513 108.765ZM52.8727 98.6007C51.684 98.5989 50.5215 98.9465 49.5322 99.5994C48.543 100.252 47.7713 101.181 47.3148 102.269C46.8583 103.356 46.7375 104.554 46.9677 105.709C47.1979 106.865 47.7687 107.926 48.608 108.761C49.4472 109.595 50.5173 110.163 51.6827 110.395C52.8482 110.626 54.0568 110.51 55.1556 110.061C56.2545 109.612 57.1942 108.85 57.856 107.872C58.5179 106.893 58.872 105.742 58.8738 104.565C58.8744 102.986 58.2429 101.471 57.1178 100.353C55.9928 99.2349 54.4661 98.6047 52.8727 98.6007ZM52.8727 108.765C52.0318 108.766 51.2094 108.521 50.5096 108.059C49.8097 107.597 49.264 106.94 48.9414 106.17C48.6188 105.401 48.534 104.554 48.6976 103.737C48.8612 102.92 49.2659 102.169 49.8604 101.58C50.455 100.991 51.2126 100.59 52.0374 100.427C52.8621 100.265 53.7169 100.349 54.4934 100.669C55.2699 100.989 55.9331 101.53 56.3992 102.223C56.8652 102.916 57.1131 103.731 57.1113 104.565C57.1079 105.677 56.6602 106.744 55.866 107.531C55.0719 108.318 53.9958 108.761 52.8727 108.765ZM72.8852 98.6007C71.6966 98.5989 70.5341 98.9465 69.5448 99.5994C68.5555 100.252 67.7838 101.181 67.3273 102.269C66.8709 103.356 66.7501 104.554 66.9803 105.709C67.2104 106.865 67.7813 107.926 68.6205 108.761C69.4598 109.595 70.5298 110.163 71.6953 110.395C72.8608 110.626 74.0693 110.51 75.1682 110.061C76.267 109.612 77.2068 108.85 77.8686 107.872C78.5304 106.893 78.8846 105.742 78.8863 104.565C78.8869 102.984 78.2542 101.468 77.1273 100.35C76.0003 99.2316 74.4713 98.6024 72.8764 98.6007H72.8852ZM72.8852 108.765C72.0444 108.766 71.222 108.521 70.5221 108.059C69.8223 107.597 69.2765 106.94 68.9539 106.17C68.6314 105.401 68.5465 104.554 68.7101 103.737C68.8737 102.92 69.2784 102.169 69.873 101.58C70.4675 100.991 71.2252 100.59 72.0499 100.427C72.8747 100.265 73.7294 100.349 74.5059 100.669C75.2824 100.989 75.9457 101.53 76.4117 102.223C76.8778 102.916 77.1256 103.731 77.1239 104.565C77.1204 105.679 76.6715 106.747 75.8755 107.534C75.0794 108.321 74.001 108.763 72.8764 108.765H72.8852Z" fill="black"/>
</g>
<defs>
<clipPath id="clip0_360_88773">
<rect width="106" height="133" fill="white"/>
</clipPath>
</defs>
</svg>
