<svg width="119" height="166" viewBox="0 0 119 166" fill="none" xmlns="http://www.w3.org/2000/svg">
<g clip-path="url(#clip0_360_88761)">
<path d="M95.2109 25.4946C95.2109 25.4946 101.339 16.7222 102.993 16.9203C105.191 17.1917 109.967 19.9684 110.181 21.4151C110.396 22.8618 105.829 34.1448 105.829 34.1448L95.2109 25.4946Z" fill="#FE8E90"/>
<path d="M95.2092 21.1709C95.2092 21.1709 118.069 39.1853 117.896 41.867C117.621 46.245 66.4059 159.985 60.9156 164.412C58.1677 166.63 30.1035 160.677 30.1035 160.677L30.502 153.048L95.2092 21.1709Z" fill="#AB5995"/>
<path d="M48.4334 47.5801L51.8161 60.6301L30.9101 110.827L14.6289 120.346L28.9976 133.122L45.2871 134.357L61.5766 122.178L84.8567 71.0175L82.0209 55.5545L48.4334 47.5801Z" fill="#729F7E"/>
<path d="M60.2572 11.6438C56.2425 13.1177 46.9904 45.1484 48.5182 47.7975C50.0076 50.3678 79.344 60.226 82.1524 58.2554C84.9607 56.2849 96.4524 23.4535 95.5318 21.5535C94.2073 18.7958 63.5711 10.4251 60.2572 11.6438Z" fill="#FE8E90"/>
<path d="M64.8727 22.0015C63.3064 22.6529 57.4231 39.6087 58.0029 41.4788C59.0306 44.7359 75.8312 49.4098 77.5899 47.9414C79.3485 46.473 86.7101 29.5145 85.3884 27.2264C84.2892 25.3264 67.7689 20.7936 64.8617 22.0015H64.8727Z" fill="#729F7E"/>
<path d="M14.4235 120.366C12.6841 120.756 0.741748 143.882 1.10172 146.105C1.48093 148.428 27.0583 161.014 30.5041 160.688C32.7491 160.479 45.3427 135.785 45.2768 134.36C45.2108 132.935 17.0395 119.782 14.4235 120.366Z" fill="#FE8E90"/>
<path d="M13.6314 142.709C12.774 142.867 10.856 146.251 11.1912 147.139C11.5265 148.026 22.8368 154.196 23.5897 153.718C24.3426 153.24 26.2139 150.111 25.9694 149.283C25.7248 148.455 14.5052 142.552 13.6314 142.709Z" fill="#729F7E"/>
<path d="M55.0474 70.6162L41.5938 101.995L59.5979 108.711L73.4088 77.4398L55.0474 70.6162Z" fill="#FE8E90"/>
<path d="M108.4 30.6029C111.467 22.5877 111.335 21.6947 111.269 21.2578C111.104 20.1721 109.667 18.8964 107.971 17.8595L114.891 1.50355C115.003 1.23756 115.003 0.938425 114.892 0.671954C114.781 0.405483 114.568 0.193501 114.298 0.0826428C114.029 -0.0282157 113.726 -0.0288702 113.456 0.0808232C113.187 0.190517 112.972 0.401572 112.86 0.667561L106.04 16.8281C105.121 16.3681 104.14 16.0409 103.127 15.8564C102.462 15.7777 101.374 15.6529 97.021 21.2333L95.9603 20.3919C95.2459 19.7649 93.74 18.9371 90.3134 17.6777C87.2907 16.5621 83.2651 15.2864 78.9372 14.0867C76.2332 13.3376 62.6065 9.64897 59.8751 10.6505C59.2018 10.8975 57.4185 11.5516 53.7061 21.6785C51.7904 26.9709 50.1532 32.3578 48.8011 37.8173C46.9957 45.1919 47.1524 47.2737 47.4107 48.0283L50.6614 60.5762L30.033 110.078L14.2904 119.293L14.1942 119.307C13.6034 119.44 12.9274 119.85 10.6219 123.685C9.29747 125.883 7.65972 128.856 6.0055 132.053C3.63956 136.61 -0.273426 144.517 0.0151017 146.275C0.125017 146.946 0.583914 147.809 4.79917 150.347C7.23655 151.81 10.5697 153.604 14.1612 155.371C16.2469 156.402 26.1448 161.22 29.8379 161.741H29.8736C29.9451 161.755 36.9989 163.248 44.3001 164.455C51.4913 165.639 55.5994 166.005 58.0065 166.005C60.6884 166.005 61.2518 165.549 61.6117 165.259C65.184 162.368 84.312 121.161 92.3633 103.578C103.322 79.6545 118.817 44.7196 118.985 41.9402C119.045 41.1395 119.128 39.8069 108.4 30.6029ZM102.987 18.017C105.006 18.34 108.719 20.7312 109.087 21.5753C109.07 21.8712 108.831 23.2636 106.614 29.091C103.638 26.5777 100.744 24.2054 98.7165 22.5769C101.632 18.8611 102.717 18.1472 102.987 18.017ZM53.4478 29.3136C56.987 17.9138 59.7377 13.0526 60.6417 12.6753C61.576 12.3578 67.5746 13.2019 77.9891 16.0681C87.3539 18.6467 93.2784 20.9538 94.4298 21.9445C94.449 21.9635 94.4655 21.9852 94.4875 22.0042C94.4545 23.478 92.432 30.5459 89.0411 39.9833C85.5074 49.8088 82.7705 55.8697 81.7125 57.1807C81.6662 57.2229 81.6238 57.2692 81.5861 57.3191C81.5696 57.3354 81.5504 57.3571 81.5339 57.3707C80.6546 57.7208 75.4721 57.0341 65.1208 53.6902C55.9978 50.7452 50.2437 48.1043 49.4853 47.2791C49.1693 46.0795 50.3536 39.2911 53.4478 29.3136ZM50.2877 50.2947C51.8897 51.1089 54.4727 52.2353 58.6852 53.7662C64.6399 55.9376 71.1441 57.8837 75.6589 58.8662C76.1013 58.9612 76.5108 59.0454 76.8982 59.1214H76.9202C78.1921 59.3986 79.4874 59.5585 80.7892 59.5991C81.0723 59.6003 81.3551 59.5822 81.6356 59.5448L83.4492 69.4355L52.7306 59.7809L50.2877 50.2947ZM52.4613 61.9659L83.3475 71.6828L61.0045 120.805L32.3577 110.198L52.4613 61.9659ZM45.3937 132.916C43.1624 131.271 35.6525 127.591 29.5576 124.841C24.1644 122.407 20.1461 120.77 17.5027 119.928L31.0168 112.027L59.32 122.504L45.3937 132.916ZM2.19967 145.86C2.37279 144.688 4.45019 139.829 7.81635 133.299C11.155 126.814 13.8947 122.314 14.7713 121.438C16.1067 121.557 21.5503 123.571 29.8654 127.374C37.2847 130.769 42.7118 133.633 44.0747 134.648C43.5251 136.16 41.1592 141.162 37.9002 147.263C33.2535 155.949 30.9618 159.065 30.2666 159.611H30.2061H30.1017C28.5162 159.415 23.232 157.396 15.7028 153.71C7.42066 149.641 2.9416 146.748 2.19967 145.86ZM90.2172 102.975C74.1586 138.046 62.3784 161.831 60.235 163.562C59.9603 163.739 57.9076 164.499 44.4539 162.276C39.854 161.513 35.3859 160.647 32.7397 160.105C34.0449 158.476 36.1553 155.159 39.7358 148.479C39.799 148.365 45.3058 138.076 46.2483 134.992L62.241 123.036C62.241 123.036 62.241 123.036 62.2575 123.02C62.3889 122.919 62.4943 122.789 62.5653 122.64C62.5653 122.64 62.5653 122.624 62.5653 122.615L85.8454 71.4521C85.8454 71.4358 85.8591 71.4141 85.8673 71.3951C85.8759 71.3766 85.8832 71.3576 85.8893 71.3381C85.8897 71.3318 85.8897 71.3255 85.8893 71.3191C85.9092 71.2583 85.9221 71.1955 85.9278 71.1319C85.9291 71.1165 85.9291 71.1011 85.9278 71.0857C85.9319 71.0369 85.9319 70.9879 85.9278 70.9391V70.874C85.9278 70.8523 85.9278 70.8333 85.9278 70.8143L83.6113 58.1904C85.8976 54.8763 89.6264 44.8146 91.2642 40.233C92.8552 35.7789 94.2869 31.4714 95.2679 28.1058C95.8889 25.9941 96.2516 24.5556 96.4549 23.554L96.4852 23.5784C96.5012 23.5961 96.5187 23.6124 96.5374 23.6273L96.5676 23.6463C99.9448 26.3415 103.311 29.1182 106.306 31.6804C106.336 31.7076 106.367 31.7347 106.4 31.7591C112.049 36.5959 116.344 40.6401 116.778 41.8615C116.303 44.4102 105.402 69.8372 90.2227 102.978L90.2172 102.975ZM68.1902 47.8057C70.3885 48.4408 73.7821 49.2877 76.1123 49.2877C77.0796 49.2877 77.8682 49.1411 78.3106 48.772C79.6846 47.6266 82.4325 41.4164 83.68 38.2923C87.5271 28.7192 86.645 27.1911 86.3537 26.6862C85.3782 25.0034 78.8575 23.1306 76.0986 22.4032C73.3397 21.6758 66.6651 20.0852 64.4476 21.0026C64.0491 21.1682 62.8345 21.673 59.5975 30.9286C58.405 34.3322 56.4814 40.271 56.9678 41.8045C57.8389 44.5595 65.107 46.9209 68.1902 47.8057ZM65.4011 22.9677C66.4123 22.6746 70.0313 23.0709 75.2467 24.4253C80.6656 25.8312 83.8834 27.2291 84.4384 27.7719C84.617 28.4858 84.0015 31.6479 81.5504 37.7033C79.4483 42.8957 77.522 46.4703 76.934 47.0729C75.6012 47.537 67.9951 45.9437 62.5955 43.4928C59.6223 42.1357 59.1386 41.3214 59.0727 41.1775C58.8364 39.1581 63.9117 24.5881 65.4011 22.9677ZM20.5556 144.669C14.4772 141.444 13.7738 141.572 13.433 141.634C12.6884 141.77 11.8942 142.562 11.0726 143.99C10.4571 145.076 9.79758 146.547 10.163 147.519C10.2977 147.877 10.523 148.474 15.5846 151.283C17.7967 152.51 20.9375 154.128 22.4983 154.638C22.8074 154.753 23.1329 154.819 23.4628 154.833C23.7185 154.838 23.9698 154.768 24.1855 154.633C25.1116 154.041 27.483 150.496 27.0241 148.984C26.8922 148.545 26.7136 147.942 20.5556 144.669ZM23.21 152.583C21.2673 151.989 13.7655 147.969 12.2707 146.696C12.4108 145.985 13.2929 144.389 13.837 143.849C15.711 144.462 23.265 148.463 24.845 149.69C24.6362 150.439 23.7404 151.973 23.21 152.592V152.583ZM40.5849 102.416C40.643 102.551 40.7279 102.672 40.8346 102.773C40.9413 102.874 41.0676 102.953 41.2059 103.005L59.2101 109.72C59.3342 109.765 59.4654 109.788 59.5975 109.788C59.8116 109.788 60.021 109.727 60.2002 109.611C60.3793 109.495 60.5204 109.33 60.606 109.137L74.4141 77.874C74.4737 77.7392 74.5049 77.5938 74.5058 77.4468C74.5067 77.2997 74.4774 77.1539 74.4196 77.0184C74.3617 76.8829 74.2766 76.7603 74.1694 76.6583C74.0622 76.5562 73.9351 76.4767 73.7959 76.4246L55.4345 69.5983C55.1691 69.4997 54.8754 69.5062 54.6147 69.6165C54.3541 69.7267 54.1467 69.9322 54.0358 70.19L40.5712 101.575C40.5155 101.71 40.488 101.855 40.4904 102.001C40.4928 102.147 40.5249 102.291 40.5849 102.424V102.416ZM55.6488 71.9896L71.9383 78.045L59.0095 107.332L43.0525 101.379L55.6488 71.9896Z" fill="black"/>
</g>
<defs>
<clipPath id="clip0_360_88761">
<rect width="119" height="166" fill="white"/>
</clipPath>
</defs>
</svg>
