<svg width="1062" height="199" viewBox="0 0 1062 199" fill="none" xmlns="http://www.w3.org/2000/svg">
<mask id="path-1-outside-1_360_80325" maskUnits="userSpaceOnUse" x="0" y="0" width="1062" height="199" fill="black">
<rect fill="white" width="1062" height="199"/>
<path d="M16.0947 16.1064H31.2038V31.3108H16.0947V16.1064Z"/>
<path d="M61.3943 1H76.4899V16.1079H61.3943V1Z"/>
<path d="M76.4911 182.414H91.7077V197.522H76.4911V182.414Z"/>
<path d="M1 106.815H16.0944V121.911H1V106.815Z"/>
<path d="M46.2985 182.414H61.3942V197.522H46.2985V182.414Z"/>
<path d="M16.0947 167.319H31.2038V182.415H16.0947V167.319Z"/>
<path d="M31.2038 16.1064H46.2995V31.3108H31.2038V16.1064Z"/>
<path d="M1 76.6113H16.0944V91.707H1V76.6113Z"/>
<path d="M16.0947 152.225H31.2038V167.319H16.0947V152.225Z"/>
<path d="M16.0947 31.3125H31.2038V46.4216H16.0947V31.3125Z"/>
<path d="M31.2038 1H46.2995V16.1079H31.2038V1Z"/>
<path d="M31.2038 167.319H46.2995V182.415H31.2038V167.319Z"/>
<path d="M1 91.707H16.0944V106.815H1V91.707Z"/>
<path d="M31.2038 182.415H46.2995L46.2985 197.522H31.2038L31.2038 182.415Z"/>
<path d="M1 121.911H16.0944V137.007H1V121.911Z"/>
<path d="M46.2995 1H61.3943V16.1079H46.2995V1Z"/>
<path d="M1 61.5156H16.0944V76.6113H1V61.5156Z"/>
<path d="M76.4911 1H91.7077V16.1079H76.4911V1Z"/>
<path d="M1 137.007H16.0944L16.0947 152.225L1 152.224V137.007Z"/>
<path d="M61.3942 182.414H76.4899V197.522H61.3942V182.414Z"/>
<path d="M1 31.3125H16.0947V46.4216H1V31.3125Z"/>
<path d="M1 152.224L16.0947 152.225V167.319L1 167.319V152.224Z"/>
<path d="M1 46.4199H16.0944V61.5156H1V46.4199Z"/>
<path d="M1045.61 16.1064H1030.5V31.3108H1045.61V16.1064Z"/>
<path d="M1000.31 1H985.218V16.1079H1000.31V1Z"/>
<path d="M985.216 182.414H970V197.522H985.216V182.414Z"/>
<path d="M1060.71 106.815H1045.61V121.911H1060.71V106.815Z"/>
<path d="M1015.41 182.414H1000.31V197.522H1015.41V182.414Z"/>
<path d="M1045.61 167.319H1030.5V182.415H1045.61V167.319Z"/>
<path d="M1030.5 16.1064H1015.41V31.3108H1030.5V16.1064Z"/>
<path d="M1060.71 76.6113H1045.61V91.707H1060.71V76.6113Z"/>
<path d="M1045.61 152.225H1030.5V167.319H1045.61V152.225Z"/>
<path d="M1045.61 31.3125H1030.5V46.4216H1045.61V31.3125Z"/>
<path d="M1030.5 1H1015.41V16.1079H1030.5V1Z"/>
<path d="M1030.5 167.319H1015.41V182.414L1030.5 182.415V167.319Z"/>
<path d="M1060.71 91.707H1045.61V106.815H1060.71V91.707Z"/>
<path d="M1030.5 182.415L1015.41 182.414V197.522H1030.5V182.415Z"/>
<path d="M1060.71 121.911H1045.61V137.007H1060.71V121.911Z"/>
<path d="M1015.41 1H1000.31V16.1079H1015.41V1Z"/>
<path d="M1060.71 61.5156H1045.61V76.6113H1060.71V61.5156Z"/>
<path d="M985.216 1H970V16.1079H985.216V1Z"/>
<path d="M1060.71 137.007H1045.61L1045.61 152.225L1060.71 152.224V137.007Z"/>
<path d="M1000.31 182.414H985.218V197.522H1000.31V182.414Z"/>
<path d="M1060.71 31.3125H1045.61V46.4216H1060.71V31.3125Z"/>
<path d="M1060.71 152.224L1045.61 152.225V167.319L1060.71 167.319V152.224Z"/>
<path d="M1060.71 46.4199H1045.61V61.5156H1060.71V46.4199Z"/>
</mask>
<path d="M16.0947 16.1064H31.2038V31.3108H16.0947V16.1064Z" fill="#F6C929"/>
<path d="M61.3943 1H76.4899V16.1079H61.3943V1Z" fill="#F6C929"/>
<path d="M76.4911 182.414H91.7077V197.522H76.4911V182.414Z" fill="#F6C929"/>
<path d="M1 106.815H16.0944V121.911H1V106.815Z" fill="#F6C929"/>
<path d="M46.2985 182.414H61.3942V197.522H46.2985V182.414Z" fill="#F6C929"/>
<path d="M16.0947 167.319H31.2038V182.415H16.0947V167.319Z" fill="#F6C929"/>
<path d="M31.2038 16.1064H46.2995V31.3108H31.2038V16.1064Z" fill="#F6C929"/>
<path d="M1 76.6113H16.0944V91.707H1V76.6113Z" fill="#F6C929"/>
<path d="M16.0947 152.225H31.2038V167.319H16.0947V152.225Z" fill="#F6C929"/>
<path d="M16.0947 31.3125H31.2038V46.4216H16.0947V31.3125Z" fill="#F6C929"/>
<path d="M31.2038 1H46.2995V16.1079H31.2038V1Z" fill="#F6C929"/>
<path d="M31.2038 167.319H46.2995V182.415H31.2038V167.319Z" fill="#F6C929"/>
<path d="M1 91.707H16.0944V106.815H1V91.707Z" fill="#F6C929"/>
<path d="M31.2038 182.415H46.2995L46.2985 197.522H31.2038L31.2038 182.415Z" fill="#F6C929"/>
<path d="M1 121.911H16.0944V137.007H1V121.911Z" fill="#F6C929"/>
<path d="M46.2995 1H61.3943V16.1079H46.2995V1Z" fill="#F6C929"/>
<path d="M1 61.5156H16.0944V76.6113H1V61.5156Z" fill="#F6C929"/>
<path d="M76.4911 1H91.7077V16.1079H76.4911V1Z" fill="#F6C929"/>
<path d="M1 137.007H16.0944L16.0947 152.225L1 152.224V137.007Z" fill="#F6C929"/>
<path d="M61.3942 182.414H76.4899V197.522H61.3942V182.414Z" fill="#F6C929"/>
<path d="M1 31.3125H16.0947V46.4216H1V31.3125Z" fill="#F6C929"/>
<path d="M1 152.224L16.0947 152.225V167.319L1 167.319V152.224Z" fill="#F6C929"/>
<path d="M1 46.4199H16.0944V61.5156H1V46.4199Z" fill="#F6C929"/>
<path d="M1045.61 16.1064H1030.5V31.3108H1045.61V16.1064Z" fill="#F6C929"/>
<path d="M1000.31 1H985.218V16.1079H1000.31V1Z" fill="#F6C929"/>
<path d="M985.216 182.414H970V197.522H985.216V182.414Z" fill="#F6C929"/>
<path d="M1060.71 106.815H1045.61V121.911H1060.71V106.815Z" fill="#F6C929"/>
<path d="M1015.41 182.414H1000.31V197.522H1015.41V182.414Z" fill="#F6C929"/>
<path d="M1045.61 167.319H1030.5V182.415H1045.61V167.319Z" fill="#F6C929"/>
<path d="M1030.5 16.1064H1015.41V31.3108H1030.5V16.1064Z" fill="#F6C929"/>
<path d="M1060.71 76.6113H1045.61V91.707H1060.71V76.6113Z" fill="#F6C929"/>
<path d="M1045.61 152.225H1030.5V167.319H1045.61V152.225Z" fill="#F6C929"/>
<path d="M1045.61 31.3125H1030.5V46.4216H1045.61V31.3125Z" fill="#F6C929"/>
<path d="M1030.5 1H1015.41V16.1079H1030.5V1Z" fill="#F6C929"/>
<path d="M1030.5 167.319H1015.41V182.414L1030.5 182.415V167.319Z" fill="#F6C929"/>
<path d="M1060.71 91.707H1045.61V106.815H1060.71V91.707Z" fill="#F6C929"/>
<path d="M1030.5 182.415L1015.41 182.414V197.522H1030.5V182.415Z" fill="#F6C929"/>
<path d="M1060.71 121.911H1045.61V137.007H1060.71V121.911Z" fill="#F6C929"/>
<path d="M1015.41 1H1000.31V16.1079H1015.41V1Z" fill="#F6C929"/>
<path d="M1060.71 61.5156H1045.61V76.6113H1060.71V61.5156Z" fill="#F6C929"/>
<path d="M985.216 1H970V16.1079H985.216V1Z" fill="#F6C929"/>
<path d="M1060.71 137.007H1045.61L1045.61 152.225L1060.71 152.224V137.007Z" fill="#F6C929"/>
<path d="M1000.31 182.414H985.218V197.522H1000.31V182.414Z" fill="#F6C929"/>
<path d="M1060.71 31.3125H1045.61V46.4216H1060.71V31.3125Z" fill="#F6C929"/>
<path d="M1060.71 152.224L1045.61 152.225V167.319L1060.71 167.319V152.224Z" fill="#F6C929"/>
<path d="M1060.71 46.4199H1045.61V61.5156H1060.71V46.4199Z" fill="#F6C929"/>
<path d="M16.0947 167.319H15.5947V167.819H16.0947V167.319ZM31.2038 167.319H31.7038V166.819H31.2038V167.319ZM31.2038 182.415H30.7038V182.915H31.2038V182.415ZM16.0947 152.225H16.5947V151.725L16.0947 151.725L16.0947 152.225ZM1015.41 182.414L1015.41 181.914L1014.91 181.914V182.414H1015.41ZM1045.61 167.319V167.819H1046.11V167.319H1045.61ZM1030.5 167.319V166.819H1030V167.319H1030.5ZM1030.5 182.415V182.915L1031 182.915V182.415H1030.5ZM1045.61 152.225V151.725L1045.11 151.725V152.225H1045.61ZM30.7038 16.1064V31.3108H31.7038V16.1064H30.7038ZM61.8943 16.1079V1H60.8943V16.1079H61.8943ZM1 107.315H16.0944V106.315H1V107.315ZM16.0944 121.411H1V122.411H16.0944V121.411ZM60.8942 182.414V197.522H61.8942V182.414H60.8942ZM16.0947 167.819H31.2038V166.819H16.0947V167.819ZM30.7038 167.319V182.415H31.7038V167.319H30.7038ZM1 77.1113H16.0944V76.1113H1V77.1113ZM16.0944 91.207H1V92.207H16.0944V91.207ZM16.5947 167.319V152.225H15.5947V167.319H16.5947ZM16.5947 46.4216V31.3125H15.5947V46.4216H16.5947ZM45.7995 1V16.1079H46.7995V1H45.7995ZM46.2995 181.915H31.2038V182.915H46.2995V181.915ZM16.0944 136.507H1V137.507H16.0944V136.507ZM1 62.0156H16.0944V61.0156H1V62.0156ZM16.0947 151.725L1.00003 151.724L0.999969 152.724L16.0947 152.725L16.0947 151.725ZM1030 16.1064V31.3108H1031V16.1064H1030ZM1060.71 106.315H1045.61V107.315H1060.71V106.315ZM1045.61 122.411H1060.71V121.411H1045.61V122.411ZM1015.91 197.522V182.414H1014.91V197.522H1015.91ZM1045.61 166.819H1030.5V167.819H1045.61V166.819ZM1030 167.319V182.415H1031V167.319H1030ZM1060.71 76.1113H1045.61V77.1113H1060.71V76.1113ZM1045.61 92.207H1060.71V91.207H1045.61V92.207ZM1046.11 167.319V152.225H1045.11V167.319H1046.11ZM1046.11 46.4216V31.3125H1045.11V46.4216H1046.11ZM1014.91 1V16.1079H1015.91V1H1014.91ZM1015.41 182.914L1030.5 182.915V181.915L1015.41 181.914L1015.41 182.914ZM1045.61 137.507H1060.71V136.507H1045.61V137.507ZM1060.71 61.0156H1045.61V62.0156H1060.71V61.0156ZM1045.61 152.725L1060.71 152.724V151.724L1045.61 151.725V152.725ZM16.0947 16.1064V15.1064H15.0947V16.1064H16.0947ZM16.0947 31.3108H15.0947V32.3108H16.0947V31.3108ZM76.4899 1H77.4899V0H76.4899V1ZM76.4899 16.1079V17.1079H77.4899V16.1079H76.4899ZM76.4911 182.414V181.414H75.4911V182.414H76.4911ZM91.7077 182.414H92.7077V181.414H91.7077V182.414ZM91.7077 197.522V198.522H92.7077V197.522H91.7077ZM76.4911 197.522H75.4911V198.522H76.4911V197.522ZM46.2985 182.414V181.414H45.2985V182.414H46.2985ZM16.0947 167.319H17.0947V166.319L16.0947 166.319L16.0947 167.319ZM31.2038 167.319H30.2038V168.319H31.2038V167.319ZM31.2038 182.415H32.2038V181.415H31.2038V182.415ZM16.0947 182.415H15.0947V183.415H16.0947V182.415ZM46.2995 16.1064H47.2995V15.1064H46.2995V16.1064ZM46.2995 31.3108V32.3108H47.2995V31.3108H46.2995ZM16.0947 152.225L15.0947 152.225L15.0947 153.225H16.0947V152.225ZM31.2038 152.225H32.2038V151.225H31.2038V152.225ZM31.2038 31.3125H32.2038V30.3125H31.2038V31.3125ZM31.2038 46.4216V47.4216H32.2038V46.4216H31.2038ZM31.2038 1V0H30.2038V1H31.2038ZM31.2038 16.1079H30.2038V17.1079H31.2038V16.1079ZM46.2995 167.319H47.2995V166.319H46.2995V167.319ZM46.2995 182.415L47.2995 182.415V182.415H46.2995ZM31.2038 197.522H30.2038V198.522H31.2038V197.522ZM16.0944 137.007H15.0944V137.007L16.0944 137.007ZM76.4911 1V0H75.4911V1H76.4911ZM91.7077 1H92.7077V0H91.7077V1ZM91.7077 16.1079V17.1079H92.7077V16.1079H91.7077ZM76.4911 16.1079H75.4911V17.1079H76.4911V16.1079ZM76.4899 182.414H77.4899V181.414H76.4899V182.414ZM76.4899 197.522V198.522H77.4899V197.522H76.4899ZM1 31.3125V30.3125H0V31.3125H1ZM1 46.4216H0V47.4216H1V46.4216ZM1 167.319H0V168.319L0.999982 168.319L1 167.319ZM1 46.4199V45.4199H0V46.4199H1ZM16.0944 46.4199H17.0944V45.4199H16.0944V46.4199ZM1045.61 16.1064H1046.61V15.1064H1045.61V16.1064ZM1045.61 31.3108V32.3108H1046.61V31.3108H1045.61ZM1000.31 1H1001.31V0H1000.31V1ZM985.218 1V0H984.218V1H985.218ZM985.218 16.1079H984.218V17.1079H985.218V16.1079ZM1000.31 16.1079V17.1079H1001.31V16.1079H1000.31ZM985.216 182.414H986.216V181.414H985.216V182.414ZM970 182.414V181.414H969V182.414H970ZM970 197.522H969V198.522H970V197.522ZM985.216 197.522V198.522H986.216V197.522H985.216ZM1015.41 182.414V183.414H1016.41V182.414H1015.41ZM1000.31 182.414V181.414H999.312V182.414H1000.31ZM1000.31 197.522H999.312V198.522H1000.31V197.522ZM1045.61 167.319V166.319L1044.61 166.319V167.319H1045.61ZM1030.5 167.319V168.319H1031.5V167.319H1030.5ZM1030.5 182.415V181.415H1029.5V182.415H1030.5ZM1045.61 182.415V183.415H1046.61V182.415H1045.61ZM1015.41 16.1064V15.1064H1014.41V16.1064H1015.41ZM1015.41 31.3108H1014.41V32.3108H1015.41V31.3108ZM1045.61 152.225V153.225H1046.61V152.225L1045.61 152.225ZM1030.5 152.225V151.225H1029.5V152.225H1030.5ZM1030.5 31.3125V30.3125H1029.5V31.3125H1030.5ZM1030.5 46.4216H1029.5V47.4216H1030.5V46.4216ZM1030.5 1H1031.5V0H1030.5V1ZM1030.5 16.1079V17.1079H1031.5V16.1079H1030.5ZM1015.41 167.319V166.319H1014.41V167.319H1015.41ZM1030.5 197.522V198.522H1031.5V197.522H1030.5ZM1045.61 137.007L1046.61 137.007V137.007H1045.61ZM1000.31 1V0H999.312V1H1000.31ZM1000.31 16.1079H999.312V17.1079H1000.31V16.1079ZM985.216 1H986.216V0H985.216V1ZM970 1V0H969V1H970ZM970 16.1079H969V17.1079H970V16.1079ZM985.216 16.1079V17.1079H986.216V16.1079H985.216ZM1000.31 182.414H1001.31V181.414H1000.31V182.414ZM985.218 182.414V181.414H984.218V182.414H985.218ZM985.218 197.522H984.218V198.522H985.218V197.522ZM1000.31 197.522V198.522H1001.31V197.522H1000.31ZM1060.71 31.3125H1061.71V30.3125H1060.71V31.3125ZM1060.71 46.4216V47.4216H1061.71V46.4216H1060.71ZM1060.71 167.319V168.319L1061.71 168.319V167.319H1060.71ZM1060.71 46.4199H1061.71V45.4199H1060.71V46.4199ZM1045.61 46.4199V45.4199H1044.61V46.4199H1045.61ZM16.0947 17.1064H31.2038V15.1064H16.0947V17.1064ZM31.2038 30.3108H16.0947V32.3108H31.2038V30.3108ZM17.0947 31.3108V16.1064H15.0947V31.3108H17.0947ZM61.3943 2H76.4899V0H61.3943V2ZM75.4899 1V16.1079H77.4899V1H75.4899ZM76.4899 15.1079H61.3943V17.1079H76.4899V15.1079ZM76.4911 183.414H91.7077V181.414H76.4911V183.414ZM90.7077 182.414V197.522H92.7077V182.414H90.7077ZM91.7077 196.522H76.4911V198.522H91.7077V196.522ZM77.4911 197.522V182.414H75.4911V197.522H77.4911ZM15.0944 106.815V121.911H17.0944V106.815H15.0944ZM2 121.911V106.815H0V121.911H2ZM46.2985 183.414H61.3942V181.414H46.2985V183.414ZM61.3942 196.522H46.2985V198.522H61.3942V196.522ZM47.2985 197.522V182.414H45.2985V197.522H47.2985ZM31.2038 181.415H16.0947V183.415H31.2038V181.415ZM17.0947 182.415V167.319H15.0947V182.415H17.0947ZM31.2038 17.1064H46.2995V15.1064H31.2038V17.1064ZM45.2995 16.1064V31.3108H47.2995V16.1064H45.2995ZM46.2995 30.3108H31.2038V32.3108H46.2995V30.3108ZM15.0944 76.6113V91.707H17.0944V76.6113H15.0944ZM2 91.707V76.6113H0V91.707H2ZM16.0947 153.225H31.2038V151.225H16.0947V153.225ZM30.2038 152.225V167.319H32.2038V152.225H30.2038ZM16.0947 32.3125H31.2038V30.3125H16.0947V32.3125ZM30.2038 31.3125V46.4216H32.2038V31.3125H30.2038ZM31.2038 45.4216H16.0947V47.4216H31.2038V45.4216ZM31.2038 2H46.2995V0H31.2038V2ZM46.2995 15.1079H31.2038V17.1079H46.2995V15.1079ZM32.2038 16.1079V1H30.2038V16.1079H32.2038ZM31.2038 168.319H46.2995V166.319H31.2038V168.319ZM45.2995 167.319V182.415H47.2995V167.319H45.2995ZM15.0944 91.707V106.815H17.0944V91.707H15.0944ZM2 106.815V91.707H0V106.815H2ZM45.2995 182.415L45.2985 197.522L47.2985 197.522L47.2995 182.415L45.2995 182.415ZM46.2985 196.522H31.2038V198.522H46.2985V196.522ZM32.2038 197.522L32.2038 182.415H30.2038L30.2038 197.522H32.2038ZM15.0944 121.911V137.007H17.0944V121.911H15.0944ZM2 137.007V121.911H0V137.007H2ZM46.2995 2H61.3943V0H46.2995V2ZM61.3943 15.1079H46.2995V17.1079H61.3943V15.1079ZM15.0944 61.5156V76.6113H17.0944V61.5156H15.0944ZM2 76.6113V61.5156H0V76.6113H2ZM76.4911 2H91.7077V0H76.4911V2ZM90.7077 1V16.1079H92.7077V1H90.7077ZM91.7077 15.1079H76.4911V17.1079H91.7077V15.1079ZM77.4911 16.1079V1H75.4911V16.1079H77.4911ZM15.0944 137.007L15.0947 152.225L17.0947 152.225L17.0944 137.007L15.0944 137.007ZM2 152.224V137.007H0V152.224H2ZM61.3942 183.414H76.4899V181.414H61.3942V183.414ZM75.4899 182.414V197.522H77.4899V182.414H75.4899ZM76.4899 196.522H61.3942V198.522H76.4899V196.522ZM1 32.3125H16.0947V30.3125H1V32.3125ZM16.0947 45.4216H1V47.4216H16.0947V45.4216ZM2 46.4216V31.3125H0V46.4216H2ZM16.0947 166.319L1.00002 166.319L0.999982 168.319L16.0947 168.319L16.0947 166.319ZM2 167.319V152.224H0V167.319H2ZM1 47.4199H16.0944V45.4199H1V47.4199ZM15.0944 46.4199V61.5156H17.0944V46.4199H15.0944ZM2 61.5156V46.4199H0V61.5156H2ZM1045.61 15.1064H1030.5V17.1064H1045.61V15.1064ZM1030.5 32.3108H1045.61V30.3108H1030.5V32.3108ZM1046.61 31.3108V16.1064H1044.61V31.3108H1046.61ZM1000.31 0H985.218V2H1000.31V0ZM984.218 1V16.1079H986.218V1H984.218ZM985.218 17.1079H1000.31V15.1079H985.218V17.1079ZM1001.31 16.1079V1H999.314V16.1079H1001.31ZM985.216 181.414H970V183.414H985.216V181.414ZM969 182.414V197.522H971V182.414H969ZM970 198.522H985.216V196.522H970V198.522ZM986.216 197.522V182.414H984.216V197.522H986.216ZM1044.61 106.815V121.911H1046.61V106.815H1044.61ZM1061.71 121.911V106.815H1059.71V121.911H1061.71ZM1015.41 181.414H1000.31V183.414H1015.41V181.414ZM999.312 182.414V197.522H1001.31V182.414H999.312ZM1000.31 198.522H1015.41V196.522H1000.31V198.522ZM1030.5 183.415H1045.61V181.415H1030.5V183.415ZM1046.61 182.415V167.319H1044.61V182.415H1046.61ZM1030.5 15.1064H1015.41V17.1064H1030.5V15.1064ZM1014.41 16.1064V31.3108H1016.41V16.1064H1014.41ZM1015.41 32.3108H1030.5V30.3108H1015.41V32.3108ZM1044.61 76.6113V91.707H1046.61V76.6113H1044.61ZM1061.71 91.707V76.6113H1059.71V91.707H1061.71ZM1045.61 151.225H1030.5V153.225H1045.61V151.225ZM1029.5 152.225V167.319H1031.5V152.225H1029.5ZM1045.61 30.3125H1030.5V32.3125H1045.61V30.3125ZM1029.5 31.3125V46.4216H1031.5V31.3125H1029.5ZM1030.5 47.4216H1045.61V45.4216H1030.5V47.4216ZM1030.5 0H1015.41V2H1030.5V0ZM1015.41 17.1079H1030.5V15.1079H1015.41V17.1079ZM1031.5 16.1079V1H1029.5V16.1079H1031.5ZM1030.5 166.319H1015.41V168.319H1030.5V166.319ZM1014.41 167.319V182.414H1016.41V167.319H1014.41ZM1044.61 91.707V106.815H1046.61V91.707H1044.61ZM1061.71 106.815V91.707H1059.71V106.815H1061.71ZM1015.41 198.522H1030.5V196.522H1015.41V198.522ZM1031.5 197.522V182.415H1029.5V197.522H1031.5ZM1044.61 121.911V137.007H1046.61V121.911H1044.61ZM1061.71 137.007V121.911H1059.71V137.007H1061.71ZM1015.41 0H1000.31V2H1015.41V0ZM999.312 1V16.1079H1001.31V1H999.312ZM1000.31 17.1079H1015.41V15.1079H1000.31V17.1079ZM1044.61 61.5156V76.6113H1046.61V61.5156H1044.61ZM1061.71 76.6113V61.5156H1059.71V76.6113H1061.71ZM985.216 0H970V2H985.216V0ZM969 1V16.1079H971V1H969ZM970 17.1079H985.216V15.1079H970V17.1079ZM986.216 16.1079V1H984.216V16.1079H986.216ZM1044.61 137.007L1044.61 152.225L1046.61 152.225L1046.61 137.007L1044.61 137.007ZM1061.71 152.224V137.007H1059.71V152.224H1061.71ZM1000.31 181.414H985.218V183.414H1000.31V181.414ZM984.218 182.414V197.522H986.218V182.414H984.218ZM985.218 198.522H1000.31V196.522H985.218V198.522ZM1001.31 197.522V182.414H999.314V197.522H1001.31ZM1060.71 30.3125H1045.61V32.3125H1060.71V30.3125ZM1045.61 47.4216H1060.71V45.4216H1045.61V47.4216ZM1061.71 46.4216V31.3125H1059.71V46.4216H1061.71ZM1045.61 168.319L1060.71 168.319V166.319L1045.61 166.319V168.319ZM1061.71 167.319V152.224H1059.71V167.319H1061.71ZM1060.71 45.4199H1045.61V47.4199H1060.71V45.4199ZM1044.61 46.4199V61.5156H1046.61V46.4199H1044.61ZM1061.71 61.5156V46.4199H1059.71V61.5156H1061.71Z" fill="black" mask="url(#path-1-outside-1_360_80325)"/>
</svg>
