<svg width="58" height="52" viewBox="0 0 58 52" fill="none" xmlns="http://www.w3.org/2000/svg">
<path d="M9.94141 33.9712C11.04 34.1533 12.1254 34.2945 13.2319 34.3694L13.2557 37.2855C12.1821 37.1516 11.0585 37.2353 9.97805 37.2423L9.94141 33.9712Z" fill="#B3251D"/>
<path d="M19.8848 43.4425C20.88 42.872 22.8583 43.1521 24.0078 43.1709C24.0011 44.495 24.1046 45.9225 23.8957 47.2286C22.5855 47.1394 21.2404 47.1854 19.925 47.1784L19.8848 43.4425Z" fill="#781116"/>
<path d="M2.48438 26.5142L6.1989 26.6024C6.18374 27.7028 6.18562 28.8051 6.15226 29.9051L9.76351 29.9781C9.77457 31.0324 9.73532 32.1 9.94152 33.1427L6.0693 33.1305L6.06601 29.8648L2.50621 29.8519L2.48438 26.5142Z" fill="#892511"/>
<path d="M6.65185 0C11.8761 0.00714019 17.1067 0.0865109 22.3307 0.034724C22.3355 1.11929 22.2908 2.2348 22.3718 3.31429L6.62891 3.2332L6.65185 0Z" fill="#892511"/>
<path d="M33.9727 0.0122077L50.5289 0C50.5172 1.32867 50.4332 2.71585 50.5441 4.03664C45.0519 4.38337 39.5207 3.74024 34.0269 4.08342L33.9969 4.00249L33.9727 0.0122077Z" fill="#892511"/>
<path d="M50.4557 4.14282L54.1258 4.16901L54.1388 7.91704L57.9992 7.88369L57.9719 26.7715L54.1558 26.7695L54.1505 30.2125L50.5983 30.2023L50.5756 33.8866L47.2284 33.8814L47.2364 37.3567L43.6705 37.3499L43.6829 40.5647L40.4263 40.546L40.3993 43.9382L36.8567 43.9339L36.8493 47.2813C35.5842 47.2751 34.3107 47.2378 33.0465 47.279L33.0531 51.3714C29.7778 51.3645 26.5013 51.3361 23.2263 51.3697C23.2283 50.0693 23.1434 48.7065 23.2645 47.4139C23.4426 46.2538 23.3544 44.9856 23.36 43.8095L26.3807 43.8256C26.3555 42.7297 26.3827 41.6285 26.3883 40.5319L29.1697 40.5299C30.2961 40.5208 31.4355 40.5473 32.5602 40.4988L32.5998 40.3901C32.8408 39.2857 32.6876 37.9063 32.68 36.7665C33.7894 36.7717 34.8991 36.7508 36.0085 36.7357C35.9669 35.7455 35.9816 34.7478 35.9726 33.7563L38.8841 33.7284L38.8454 29.9788C39.7238 29.8175 40.6987 29.8545 41.5935 29.8168C41.4916 28.8712 41.5349 27.8708 41.5216 26.9173L45.691 26.9084L45.6727 17.2584L50.2085 17.2607C50.1971 15.2393 49.7708 5.27807 50.4557 4.14282Z" fill="#781116"/>
<path d="M42.1114 29.8286C42.3168 30.7892 42.243 31.793 42.2419 32.7627C41.2594 32.7898 40.2231 32.7646 39.2755 32.9558L39.0693 33.1429L38.986 32.9726L38.9414 29.9588C39.9548 29.8292 41.0793 29.8589 42.1114 29.8286Z" fill="#B3251D"/>
<path d="M38.7845 33.1428L38.8583 33.3762C38.9067 34.4113 38.9486 35.4395 38.9424 36.4764L35.9528 36.4703C35.9777 37.8414 36.0189 39.2147 36.0192 40.5862L32.3145 40.6L32.355 40.4802C32.6015 39.2638 32.4448 37.7445 32.437 36.489C33.572 36.4948 34.7074 36.4717 35.8425 36.4551C35.7999 35.3645 35.8149 34.2656 35.8057 33.1735L38.7845 33.1428Z" fill="#CD2121"/>
<path d="M27.0955 40.602L29.8273 40.6001C29.8021 41.6857 29.8234 42.7935 29.7358 43.875C29.7234 44.9327 29.6937 45.9936 29.7077 47.0512C27.8786 47.322 25.8774 47.2066 24.0273 47.1907C24.2023 46.08 24.1157 44.8659 24.1212 43.74L27.088 43.7553C27.0632 42.7061 27.09 41.6519 27.0955 40.602Z" fill="#892511"/>
<path d="M26.5196 43.9141L29.0013 43.9356C28.9897 45.0219 28.9618 46.1115 28.9749 47.1978C28.1584 47.1662 27.3329 47.2113 26.5156 47.2283L26.5196 43.9141Z" fill="#CD2121"/>
<path d="M6.49632 3.31421L22.7299 3.3927L22.7112 3.70959C23.9122 3.74915 25.1062 3.76663 26.3078 3.74684C26.4298 4.8405 26.4081 5.94043 26.4097 7.03893C27.4024 7.04918 28.7946 7.22752 29.7258 6.93542L29.8201 6.7778L29.8273 3.73825C31.0769 3.7435 32.41 3.83915 33.6415 3.63769L33.6721 3.71188C39.2596 3.39737 44.8853 3.98684 50.4712 3.66899L50.5429 3.71744C49.8666 4.86083 50.2875 14.8942 50.2987 16.9302L45.8211 16.9279L45.8392 26.6478L41.7233 26.6567C41.7365 27.6171 41.6937 28.6247 41.7943 29.5772C40.9111 29.6151 39.9486 29.5778 39.0815 29.7404L39.1196 33.5171L36.2455 33.5452C36.2544 34.5439 36.2399 35.5488 36.281 36.5462C35.1859 36.5614 34.0903 36.5824 32.9952 36.5772C33.0027 37.7253 33.1539 39.1147 32.916 40.2271L32.8769 40.3365C31.7666 40.3853 30.6419 40.3586 29.5299 40.3678L26.7843 40.3698C26.7787 41.4744 26.7517 42.5835 26.7768 43.6873L23.7949 43.6712C22.8275 43.6544 21.1625 43.4038 20.325 43.9142L20.2002 43.8232L17.0211 43.9013C16.8355 42.8397 16.9091 41.6438 16.9002 40.565L13.6463 40.6006L13.6095 37.3194L13.4814 37.2778L13.4561 34.7862C12.2752 34.7222 11.1169 34.6016 9.94452 34.4459L9.86338 33.771C9.68034 32.6731 9.71517 31.5492 9.70535 30.439L6.49972 30.3622C6.52933 29.2039 6.52766 28.0433 6.54112 26.8847L3.24381 26.7918C2.17233 26.7347 1.07782 26.7842 0.00365307 26.7904L0 7.33501C1.09483 7.34096 2.18777 7.37457 3.28189 7.41119L3.2894 3.75503L6.42901 3.73825L6.49632 3.31421Z" fill="#CD2121"/>
<path d="M16.5746 40.6606L19.8866 40.6001L19.8856 43.8392L16.5723 43.9144C16.6321 42.8225 16.6232 41.7527 16.5746 40.6606Z" fill="#892511"/>
<path d="M13.2578 37.4015C14.3428 37.2273 15.4736 37.2977 16.5721 37.3105L16.5664 40.5652L13.2948 40.5999L13.2578 37.4015Z" fill="#892511"/>
<path d="M2.49394 4.15764L6.48882 4.14307C6.51138 5.23912 6.50051 6.3418 6.62723 7.43475C5.27717 7.44165 3.80633 7.52121 2.48438 7.33365L2.49394 4.15764Z" fill="#892511"/>
<path d="M22.6297 4.14307C23.9267 4.18055 25.2162 4.19711 26.514 4.17837C26.3692 5.23774 26.4331 6.34174 26.4366 7.40924C25.1019 7.46615 23.7535 7.44614 22.4167 7.45735C22.4033 6.42771 22.239 5.11565 22.6297 4.14307Z" fill="#B3251D"/>
<path d="M33.9381 3.31445L33.971 3.40093C33.9629 4.73537 33.9442 6.07139 33.9674 7.40582C32.9776 7.40508 30.4929 7.67789 29.8281 6.97493L29.8359 3.43168C31.1799 3.43779 32.6136 3.54921 33.9381 3.31445Z" fill="#892511"/>
<path d="M23.2811 23.2729C24.1383 23.2331 24.9994 23.1756 25.8572 23.211C26.2675 23.2279 26.2399 23.2036 26.5133 23.5085L26.489 26.805L23.1341 26.77L23.1236 29.8285C22.0611 29.7006 20.9549 29.7592 19.8848 29.7649L19.9214 26.632C21.0337 26.6196 22.1221 26.6401 23.231 26.735L23.2811 23.2729Z" fill="#892511"/>
<path d="M9.55742 4.97144L14.0865 5.00327L14.0725 12.335L10.0289 12.337L10.0457 17.366C8.64388 17.4416 7.20646 17.3681 5.80078 17.3643L5.80366 12.1788L9.53185 12.1774C9.51961 9.77682 9.48007 7.37106 9.55742 4.97144Z" fill="white"/>
<path d="M26.6489 22.9572L26.7988 22.5907C28.4666 22.1826 30.8946 22.4664 32.6304 22.4801L32.6524 25.9834C33.8901 25.9807 35.1341 25.9525 36.3714 25.985L36.3685 29.33L38.9031 29.3189L38.9419 33.0773L36.0231 33.1052C36.0321 34.0991 36.0174 35.0991 36.0592 36.0916C34.947 36.1067 33.8344 36.1277 32.7222 36.1225C32.7299 37.265 32.8834 38.6476 32.6418 39.7546C30.5689 39.7956 28.4863 39.7491 26.4125 39.7425L26.4172 36.0693L23.0749 36.1055L19.9068 36.1064L19.9089 32.8218C19.8615 31.6236 19.8992 30.4083 19.8955 29.2081C21.0061 29.2136 22.1108 29.2349 23.2167 29.1182L23.2274 26.1366L26.6244 26.1708L26.6489 22.9572Z" fill="white"/>
<path d="M19.8869 33.1603L23.1991 33.1428L23.1903 36.4562L19.8848 36.4571L19.8869 33.1603Z" fill="#892511"/>
<path d="M26.5313 29.8324L32.3156 29.8286L32.3086 33.1351C30.3778 33.1039 28.4468 33.1277 26.5156 33.1429L26.5313 29.8324Z" fill="#CD2121"/>
</svg>
