<svg width="52" height="57" viewBox="0 0 52 57" fill="none" xmlns="http://www.w3.org/2000/svg">
<path d="M21.836 11.253L23.7707 11.2437C23.799 11.9477 23.797 12.6746 23.8913 13.3707C23.4116 13.3608 22.9295 13.3198 22.4578 13.4374C22.3236 13.8584 22.2764 14.3161 22.2085 14.7572C22.0838 14.3184 21.9375 13.8977 21.7832 13.4722C21.8889 12.7617 21.835 11.9748 21.836 11.253Z" fill="#9AD0C5"/>
<path d="M24.2141 13.3735C25.2337 13.3711 26.2749 13.4091 27.2916 13.3521C27.326 14.0537 27.3432 14.7602 27.4052 15.4602C26.4354 15.2797 25.3401 15.3798 24.3504 15.3975L24.3321 13.4902C23.7108 13.5114 23.1059 13.4801 22.4863 13.4376C23.0549 13.3247 23.636 13.364 24.2141 13.3735Z" fill="#B2E9DD"/>
<path d="M24.5938 29.5137L27.3808 29.5223C27.3808 30.4118 27.4628 31.4585 27.3222 32.3245H24.5971L24.5938 29.5137Z" fill="#8981A8"/>
<path d="M18.2695 35.8408L21.783 35.8384L21.7729 37.9332C20.6142 37.9577 19.4451 37.9403 18.285 37.9429L18.2695 35.8408Z" fill="#8981A8"/>
<path d="M44.0967 9.84085C44.2946 9.83324 44.4986 9.8453 44.6968 9.84893C44.9959 10.1251 44.9854 10.6042 44.963 10.9513C44.9269 11.5169 44.922 12.0826 44.9124 12.6492L42.9984 12.6244L42.4928 12.6068C41.9431 12.0793 42.2411 10.5362 42.2562 9.84878L44.0967 9.84085Z" fill="#242565"/>
<path d="M10.5476 6.32471L14.0264 6.41554L14.0545 9.83148L10.541 9.83822L10.5476 6.32471Z" fill="#3F448D"/>
<path d="M38.6484 6.32615L42.162 6.32495C42.0734 7.22988 42.0576 8.1336 42.0393 9.04117C41.0044 9.20819 39.7163 9.10112 38.6505 9.11087C38.6641 8.1829 38.6525 7.25418 38.6484 6.32615Z" fill="#383851"/>
<path d="M7.75017 9.87279L10.5413 9.83838L10.5369 12.644L7.73047 12.6492L7.75017 9.87279Z" fill="#3F448D"/>
<path d="M33.7305 2.83324L38.6427 2.81152L38.6494 6.27659C37.0132 6.32538 35.3716 6.3099 33.7342 6.32504L33.7305 2.83324Z" fill="#242565"/>
<path d="M14.0702 2.81152C15.9429 2.88463 17.8033 2.86501 19.6763 2.82177L19.6751 6.32504C17.8034 6.28348 15.9273 6.30478 14.0547 6.30142L14.0702 2.81152Z" fill="#242565"/>
<path d="M15.4954 28.1084L18.9617 28.1391L18.9745 32.3075L15.4645 32.3246C15.4539 30.9177 15.4676 29.5148 15.4954 28.1084Z" fill="#0B0B0E"/>
<path d="M44.9784 12.6494L47.0729 12.6798C47.0699 15.4483 47.1047 18.2265 47.0482 20.9939L46.889 21.0818C46.3244 20.9115 45.6848 20.9781 45.1064 20.9724C45.1057 20.2992 45.0835 19.6604 45.0104 18.9937C44.9584 16.8797 44.9737 14.7642 44.9784 12.6494Z" fill="#242565"/>
<path d="M4.93315 12.6529L7.55959 12.6494C7.53056 14.6728 7.14516 19.3532 7.73073 21.0818L4.91992 21.0753C5.2221 18.3354 4.98602 15.4145 4.93315 12.6529Z" fill="#242565"/>
<path d="M2.7208 23.8926C2.71939 26.2884 2.97965 29.7131 2.62145 31.9921C2.28376 32.137 2.00932 32.1919 1.64998 32.2441L0.221015 32.2583L0.200498 34.6716C0.185523 35.2929 0.194133 35.9233 0.131423 36.5412C-0.112464 35.1638 0.0556903 33.5083 0.0667882 32.099C0.0878475 29.3721 0.104225 26.6475 0.0814944 23.9207L2.7208 23.8926Z" fill="#115498"/>
<path d="M21.7832 43.5721L24.594 43.5679C24.5742 46.8404 24.4777 50.1354 24.5656 53.4057C23.6373 53.4074 22.7261 53.3623 21.8007 53.2938L21.7832 43.5721Z" fill="#2EBBEF"/>
<path d="M18.7416 12.541C18.7729 12.0375 18.7095 11.8085 19.0402 11.4152C19.3642 11.2932 19.5834 11.2242 19.9313 11.2485C20.5441 11.2912 21.1551 11.2921 21.7693 11.2987C21.7682 12.0116 21.8306 12.7886 21.7084 13.4903C21.1341 13.4051 20.505 13.4445 19.9223 13.435C19.4279 13.509 19.2054 13.4579 18.8579 13.8309C18.6565 14.4166 18.8274 15.1169 18.8207 15.7306C17.8955 15.7265 16.9429 15.7647 16.0234 15.665C15.9789 16.5803 15.9233 17.4953 15.9342 18.4119C15.337 18.4022 14.7146 18.4281 14.1263 18.3218C13.8772 18.357 13.7321 18.3924 13.5202 18.5298C13.273 19.3222 13.4327 20.2587 13.474 21.0815L10.541 21.0759L10.5595 18.1584C11.0563 18.1701 11.5548 18.1857 12.052 18.1807C12.5458 18.1754 12.9671 18.2597 13.3208 17.8984C13.2017 17.096 13.3401 16.2946 13.4385 15.4966L16.0346 15.5086L16.0332 12.552L18.7416 12.541Z" fill="#B2E9DD"/>
<path d="M31.265 53.4155L35.1326 53.4058L38.2845 53.4382C39.339 53.4549 40.3976 53.4527 41.4516 53.4903L41.4599 56.1836L26.7258 56.2166C26.7009 55.2904 26.6725 54.3878 26.7842 53.4654L28.4658 53.4561C29.395 53.4455 30.3382 53.4685 31.265 53.4155Z" fill="#115498"/>
<path d="M19.7046 0.0682905C24.3581 -0.0878601 29.0681 0.0770202 33.7298 0.0595534L33.7186 2.8113L19.6758 2.79548L19.7046 0.0682905Z" fill="#242565"/>
<path d="M9.11173 35.8381L11.8709 35.8603C11.9034 37.0645 12.1311 38.428 11.9418 39.6122C11.698 39.8573 11.5091 39.7551 11.3462 39.9022C11.3088 39.936 11.3061 41.1659 11.3069 41.3089L11.3217 42.6541C12.6983 42.6363 14.0847 42.5836 15.4594 42.6705C15.4233 43.4193 15.3812 44.1466 15.2561 44.8873C14.6082 46.6974 15.4909 51.1726 15.0733 53.4057C14.8107 51.5989 14.9894 49.5294 14.9963 47.6928C13.859 47.6557 12.7225 47.6411 11.5846 47.6308L11.5796 44.7728L8.98545 44.7686L8.9404 42.4324L6.36847 42.4338L6.32422 39.6539L9.12187 39.6957L9.11173 35.8381Z" fill="#B2E9DD"/>
<path d="M51.9962 23.8926L52.001 37.7315L49.7306 37.7203L49.5877 40.0547C48.7701 39.925 47.907 39.9849 47.082 39.9878C47.6504 38.173 47.2263 35.891 47.4261 33.9535C48.1691 33.7728 48.9362 33.8086 49.6909 33.8006C49.6064 30.5242 49.7046 27.2094 49.7416 23.9307C50.501 23.9602 51.2383 23.9679 51.9962 23.8926Z" fill="#18173F"/>
<path d="M40.6126 39.3518C41.2897 39.3719 41.9633 39.3713 42.6404 39.3635C43.7855 39.7117 45.6329 39.4336 46.8539 39.3838C47.8539 39.381 48.9002 39.3228 49.8913 39.4489C48.7655 39.5825 47.5926 39.5149 46.458 39.5038C46.4988 41.1912 46.4091 42.8662 46.3062 44.55L43.53 44.5418L43.5234 47.1841C42.5439 47.2055 41.5636 47.2353 40.5839 47.2462L40.5492 49.1896L38.0131 49.1802C37.9097 47.3075 37.9555 45.4157 37.9552 43.5402C38.0123 43.3361 38.0233 43.0925 38.1953 42.9475C38.7365 42.4901 39.9789 42.6948 40.6569 42.7223L40.6126 39.3518Z" fill="#46C3C1"/>
<path d="M23.8906 11.3488C25.5856 11.3437 30.8956 11.0099 32.2417 11.5589C32.4027 12.0295 32.0736 12.1381 32.4572 12.5042C33.668 12.8592 34.9706 12.7463 36.2244 12.7259C36.2241 13.326 36.0467 14.6783 36.5329 15.1228C37.0977 15.639 38.2711 15.4596 39.0104 15.5172C39.0414 16.359 39.0788 17.2011 39.0898 18.0435L42.1594 18.018L42.1609 20.8527C41.5526 21.2106 39.7089 21.0413 38.924 21.0426L38.9248 18.8897C38.0283 18.8392 37.1188 18.8512 36.2202 18.8384L36.2254 16.9376L33.7653 16.9208L33.7456 15.2765C31.8717 15.2561 29.9998 15.2713 28.1259 15.2916C28.0865 14.7202 28.2214 14.1751 28.0515 13.6115C27.7177 13.313 27.5475 13.3838 27.0973 13.3692C26.0856 13.4262 25.0497 13.3882 24.0352 13.3906C23.9222 12.7224 23.9245 12.0246 23.8906 11.3488Z" fill="#46C3C1"/>
<path d="M15.4732 44.9736L18.0458 44.9779L18.0505 53.609L22.0946 53.6078C22.9722 53.6755 23.8365 53.72 24.7169 53.7183L27.4048 53.6429C27.2996 54.4894 27.3262 55.3178 27.3497 56.1679C22.2209 56.2698 17.0767 56.1783 11.9453 56.1953L11.9467 53.6483C13.0598 53.6614 14.1736 53.6497 15.2866 53.6469C15.7128 51.3731 14.8121 46.8167 15.4732 44.9736Z" fill="#1296B6"/>
<path d="M44.332 18.9731C44.4218 19.618 44.4491 20.2359 44.4499 20.8872C45.1614 20.8926 45.948 20.8282 46.6424 20.993L46.8381 20.9079L49.4295 20.9136C49.5445 21.7766 49.5048 22.6499 49.496 23.5194C50.2989 23.5309 51.2138 23.4682 51.9999 23.6226C51.1256 23.6983 50.2749 23.6906 49.3987 23.6609C49.356 26.9547 49.2426 30.2848 49.3402 33.5763C48.4694 33.5844 47.5843 33.5484 46.7271 33.7299L46.5314 33.2645C45.5148 32.7511 43.5166 33.1164 42.3834 33.1931L42.3137 33.658C42.1585 32.1812 42.2357 30.6098 42.2285 29.1221L42.1621 20.9274C42.8873 20.9391 43.6001 20.9248 44.3243 20.8845L44.332 18.9731Z" fill="#242565"/>
<path d="M47.4184 21.0815L49.8928 21.0875C49.802 21.9877 49.8157 22.8809 49.8228 23.7856C48.9118 23.8402 47.994 23.9257 47.082 23.8788C47.087 22.9723 47.1639 22.072 47.2315 21.1694L47.4184 21.0815Z" fill="#16192D"/>
<path d="M42.9085 27.5347C44.2678 27.3467 45.6947 27.4228 47.0655 27.4127L47.0815 32.9722C45.6863 32.9769 44.2548 32.9099 42.8652 33.0274C42.9941 31.2204 42.9104 29.3496 42.9085 27.5347Z" fill="#3F448D"/>
<path d="M44.5444 18.9731C44.6431 19.5903 44.673 20.1816 44.6739 20.8049C45.455 20.8102 46.3187 20.7485 47.081 20.9062C47.0032 21.7434 46.9149 22.5784 46.9092 23.4191L46.9064 27.2139C45.4229 27.2233 43.8789 27.1525 42.4078 27.3271C42.4099 29.0119 42.5004 30.7484 42.3609 32.4257L42.4051 32.5823L42.3285 33.0272C42.1581 31.6139 42.2429 30.1099 42.235 28.6862L42.1621 20.8434C42.9583 20.8547 43.7409 20.841 44.5359 20.8024L44.5444 18.9731Z" fill="#115498"/>
<path d="M2.61433 21.0853L4.98292 21.0815L7.73731 21.0881C8.17947 21.0968 8.62529 21.0548 9.03785 21.2279C9.21622 22.9778 9.09617 24.8173 9.08884 26.5767L9.08204 36.002L9.0925 40.0545L6.22539 40.0106C5.06826 39.9445 3.90217 39.9612 2.74313 39.9506L2.72901 37.208L0 37.1815C0.0636893 36.5421 0.0549441 35.8898 0.0701535 35.2471L0.0909907 32.7501L1.54227 32.7354C1.90722 32.6814 2.18588 32.6246 2.52891 32.4747C2.89271 30.1167 2.62839 26.5733 2.62981 24.0944L2.61433 21.0853Z" fill="url(#paint0_linear_360_84262)"/>
<path d="M2.50597 23.8926L3.92218 23.9419C4.45576 23.9241 4.98423 23.8521 5.48585 24.0698C5.71838 25.4571 5.5825 27.0392 5.57901 28.4489L5.53521 36.3866L4.02984 36.4126C3.54246 36.494 3.09454 36.5478 2.60043 36.5406L0 36.5151C0.0606885 35.8984 0.0523554 35.2692 0.0668482 34.6493L0.0867036 32.241L1.4696 32.2268C1.81736 32.1747 2.08289 32.1199 2.40976 31.9753C2.75648 29.7011 2.50461 26.2834 2.50597 23.8926Z" fill="#242565"/>
<path d="M2.72496 35.1534C2.72523 35.5292 2.71513 35.8974 2.80137 36.2694C3.195 36.4975 3.72037 36.4453 4.21622 36.4483C3.70629 36.5071 3.23766 36.5459 2.72069 36.5407L0 36.5223C0.0634952 36.0771 0.0547767 35.623 0.0699397 35.1754C0.929156 35.1041 1.85707 35.1501 2.72496 35.1534Z" fill="#18173F"/>
<path d="M3.03052 23.8926L4.28935 23.9424L5.60955 24.1083L5.62289 32.2867C4.88653 32.2982 4.14229 32.3371 3.40662 32.313C2.97558 32.3371 2.54093 32.3186 2.10938 32.3122C2.41849 32.2596 2.65451 32.2042 2.94505 32.0582C3.25319 29.7605 3.02931 26.3079 3.03052 23.8926Z" fill="#3F448D"/>
<path d="M26.7405 13.3521C27.1865 13.3671 27.3552 13.2944 27.6858 13.6009C27.8541 14.1796 27.7206 14.7392 27.7596 15.326C29.6161 15.3052 31.4705 15.2896 33.327 15.3105L33.3465 16.9988L35.7838 17.0161L35.7787 18.9678C36.6688 18.9809 37.5699 18.9686 38.4581 19.0205L38.4573 21.2311C39.2348 21.2296 41.0615 21.4035 41.6641 21.036C42.5873 20.8744 43.6444 20.9106 44.5776 21.0098C43.823 21.0488 43.0802 21.0628 42.3245 21.0513L42.3937 28.99C42.4012 30.4312 42.3207 31.9535 42.4824 33.3841L42.5551 32.9338C43.7359 32.8594 45.8182 32.5055 46.8775 33.003L47.0815 33.4538C46.8413 35.3395 47.3512 37.5603 46.6679 39.3265C45.4568 39.3763 43.6244 39.6547 42.4887 39.3061C41.8171 39.3139 41.149 39.3145 40.4774 39.2944L40.5214 42.6681C39.8489 42.6406 38.6167 42.4358 38.0798 42.8935C37.9092 43.0388 37.8983 43.2825 37.8417 43.4868C37.8419 45.3641 37.7966 47.2576 37.8991 49.1321L37.9232 53.3811L34.8813 53.3513L31.1486 53.3602C30.2541 53.4089 29.3438 53.3878 28.447 53.3975L26.8241 53.4061C27.1444 48.0852 26.7307 42.5993 26.7187 37.2596C26.7147 35.5727 26.6555 33.8645 26.798 32.1825C26.9428 31.4536 26.8583 30.5724 26.8583 29.8237L26.8525 15.5172C26.7914 14.7982 26.7744 14.0727 26.7405 13.3521Z" fill="#9AD0C5"/>
<path d="M33.0354 35.8384L35.1336 35.8545L35.1355 37.9465L33.0273 37.9327L33.0354 35.8384Z" fill="#3F448D"/>
<path d="M33.7305 28.1086L37.9467 28.1125V32.3209L33.7378 32.3249L33.7305 28.1086Z" fill="#0B0B0E"/>
<path d="M28.8105 43.5679L31.6139 43.5757C31.5839 46.7989 31.3842 50.1579 31.6214 53.3682C30.6958 53.4172 29.7539 53.3959 28.826 53.4057L28.8105 43.5679Z" fill="#256BAA"/>
<path d="M42.9319 33.2271C44.0144 33.1495 45.9234 32.7804 46.8945 33.2993L47.0815 33.7695C46.8613 35.7365 47.3287 38.0531 46.7022 39.8954C45.5921 39.9474 43.9122 40.2378 42.8711 39.8741C42.9027 37.8171 42.8695 35.7545 42.8652 33.6968L42.9319 33.2271Z" fill="#18173F"/>
<path d="M35.1712 43.5679L37.8702 43.5709C37.8705 45.4369 37.8286 47.319 37.9233 49.1823L37.9456 53.4057L35.1348 53.3761C35.4137 50.5456 35.1765 46.5304 35.1712 43.5679Z" fill="#256BAA"/>
<defs>
<linearGradient id="paint0_linear_360_84262" x1="2.18501" y1="30.9285" x2="9.55195" y2="30.2346" gradientUnits="userSpaceOnUse">
<stop stop-color="#020000"/>
<stop offset="1" stop-color="#06002B"/>
</linearGradient>
</defs>
</svg>
