<svg width="46" height="65" viewBox="0 0 46 65" fill="none" xmlns="http://www.w3.org/2000/svg">
<path d="M38.5246 62.5908H36.1211V65.0002H38.5246V62.5908Z" fill="#A15000"/>
<path d="M36.1203 62.5908H33.7109V65.0002H36.1203V62.5908Z" fill="#A15000"/>
<path d="M33.718 62.5908H31.3086V65.0002H33.718V62.5908Z" fill="#A15000"/>
<path d="M31.3078 62.5908H28.8984V65.0002H31.3078V62.5908Z" fill="#A15000"/>
<path d="M28.8977 62.5908H26.4883V65.0002H28.8977V62.5908Z" fill="#A15000"/>
<path d="M26.4895 62.5908H24.0801V65.0002H26.4895V62.5908Z" fill="#A15000"/>
<path d="M24.0793 62.5908H21.6758V65.0002H24.0793V62.5908Z" fill="#A15000"/>
<path d="M21.677 62.5908H19.2676V65.0002H21.677V62.5908Z" fill="#A15000"/>
<path d="M19.2668 62.5908H16.8574V65.0002H19.2668V62.5908Z" fill="#A15000"/>
<path d="M16.8625 62.5908H14.4531V65.0002H16.8625V62.5908Z" fill="#A15000"/>
<path d="M14.4543 62.5908H12.0449V65.0002H14.4543V62.5908Z" fill="#A15000"/>
<path d="M12.0441 62.5908H9.63477V65.0002H12.0441V62.5908Z" fill="#A15000"/>
<path d="M9.63591 62.5908H7.23242V65.0002H9.63591V62.5908Z" fill="#A15000"/>
<path d="M45.7531 55.3677H43.3438V57.7771H45.7531V55.3677Z" fill="#A15000"/>
<path d="M45.7531 52.9585H43.3438V55.3679H45.7531V52.9585Z" fill="#A15000"/>
<path d="M45.7531 50.5562H43.3438V52.9655H45.7531V50.5562Z" fill="#A15000"/>
<path d="M45.7531 48.146H43.3438V50.5554H45.7531V48.146Z" fill="#A15000"/>
<path d="M45.7531 45.7427H43.3438V48.1462H45.7531V45.7427Z" fill="#A15000"/>
<path d="M45.7531 43.3335H43.3438V45.7429H45.7531V43.3335Z" fill="#A15000"/>
<path d="M45.7531 40.9243H43.3438V43.3337H45.7531V40.9243Z" fill="#A15000"/>
<path d="M45.7531 38.5142H43.3438V40.9235H45.7531V38.5142Z" fill="#A15000"/>
<path d="M45.7531 36.106H43.3438V38.5153H45.7531V36.106Z" fill="#A15000"/>
<path d="M45.7531 33.7017H43.3438V36.111H45.7531V33.7017Z" fill="#A15000"/>
<path d="M45.7531 31.2983H43.3438V33.7018H45.7531V31.2983Z" fill="#A15000"/>
<path d="M45.7531 28.8892H43.3438V31.2985H45.7531V28.8892Z" fill="#A15000"/>
<path d="M45.7531 26.4785H43.3438V28.8879H45.7531V26.4785Z" fill="#A15000"/>
<path d="M43.343 57.7783H40.9336V60.1877H43.343V57.7783Z" fill="#A15000"/>
<path d="M43.343 55.3677H40.9336V57.7771H43.343V55.3677Z" fill="#D46900"/>
<path d="M43.343 52.96H40.9336V55.3693H43.343V52.96Z" fill="#D46900"/>
<path d="M43.343 50.5562H40.9336V52.9655H43.343V50.5562Z" fill="#D46900"/>
<path d="M43.343 48.146H40.9336V50.5554H43.343V48.146Z" fill="#D46900"/>
<path d="M43.343 45.7427H40.9336V48.1462H43.343V45.7427Z" fill="#F77B00"/>
<path d="M43.343 43.3335H40.9336V45.7429H43.343V43.3335Z" fill="#F77B00"/>
<path d="M43.343 40.9243H40.9336V43.3337H43.343V40.9243Z" fill="#F77B00"/>
<path d="M43.343 38.5142H40.9336V40.9235H43.343V38.5142Z" fill="#F77B00"/>
<path d="M43.343 36.106H40.9336V38.5153H43.343V36.106Z" fill="#F77B00"/>
<path d="M43.343 33.7017H40.9336V36.111H43.343V33.7017Z" fill="#F77B00"/>
<path d="M43.343 31.2983H40.9336V33.7018H43.343V31.2983Z" fill="#F77B00"/>
<path d="M43.343 28.8892H40.9336V31.2985H43.343V28.8892Z" fill="#F77B00"/>
<path d="M43.343 26.4785H40.9336V28.8879H43.343V26.4785Z" fill="#FFAA0D"/>
<path d="M43.343 24.0708H40.9336V26.4802H43.343V24.0708Z" fill="#A15000"/>
<path d="M43.343 21.6606H40.9336V24.07H43.343V21.6606Z" fill="#5C7174"/>
<path d="M43.343 19.2515H40.9336V21.6608H43.343V19.2515Z" fill="#5C7174"/>
<path d="M43.343 16.8535H40.9336V19.257H43.343V16.8535Z" fill="#5C7174"/>
<path d="M43.343 14.4443H40.9336V16.8537H43.343V14.4443Z" fill="#5C7174"/>
<path d="M43.343 12.0352H40.9336V14.4445H43.343V12.0352Z" fill="#5C7174"/>
<path d="M43.343 9.625H40.9336V12.0344H43.343V9.625Z" fill="#5C7174"/>
<path d="M43.343 7.21729H40.9336V9.62666H43.343V7.21729Z" fill="#5C7174"/>
<path d="M43.343 4.80664H40.9336V7.216H43.343V4.80664Z" fill="#5C7174"/>
<path d="M40.9328 60.1873H38.5234V62.5907H40.9328V60.1873Z" fill="#A15000"/>
<path d="M40.9328 57.7781H38.5234V60.1875H40.9328V57.7781Z" fill="#D46900"/>
<path d="M40.9328 55.3677H38.5234V57.7771H40.9328V55.3677Z" fill="#D46900"/>
<path d="M40.9328 52.9587H38.5234V55.3681H40.9328V52.9587Z" fill="#D46900"/>
<path d="M40.9328 50.5564H38.5234V52.9658H40.9328V50.5564Z" fill="#D46900"/>
<path d="M40.9328 48.146H38.5234V50.5554H40.9328V48.146Z" fill="#D46900"/>
<path d="M40.9328 45.7427H38.5234V48.1462H40.9328V45.7427Z" fill="#F77B00"/>
<path d="M40.9328 43.3335H38.5234V45.7429H40.9328V43.3335Z" fill="#F77B00"/>
<path d="M40.9328 40.9243H38.5234V43.3337H40.9328V40.9243Z" fill="#F77B00"/>
<path d="M40.9328 38.5142H38.5234V40.9235H40.9328V38.5142Z" fill="#F77B00"/>
<path d="M40.9328 36.1062H38.5234V38.5156H40.9328V36.1062Z" fill="#F77B00"/>
<path d="M40.9328 33.7017H38.5234V36.111H40.9328V33.7017Z" fill="#F77B00"/>
<path d="M40.9328 31.2981H38.5234V33.7016H40.9328V31.2981Z" fill="#F77B00"/>
<path d="M40.9328 28.8892H38.5234V31.2985H40.9328V28.8892Z" fill="#F77B00"/>
<path d="M40.9328 26.4788H38.5234V28.8881H40.9328V26.4788Z" fill="#F77B00"/>
<path d="M40.9328 24.0708H38.5234V26.4802H40.9328V24.0708Z" fill="#FFAA0D"/>
<path d="M40.9328 21.6604H38.5234V24.0698H40.9328V21.6604Z" fill="#A15000"/>
<path d="M40.9328 19.2512H38.5234V21.6606H40.9328V19.2512Z" fill="#A3B2B5"/>
<path d="M40.9328 16.8538H38.5234V19.2573H40.9328V16.8538Z" fill="#A3B2B5"/>
<path d="M40.9328 14.4446H38.5234V16.854H40.9328V14.4446Z" fill="#A3B2B5"/>
<path d="M40.9328 12.0354H38.5234V14.4448H40.9328V12.0354Z" fill="#A3B2B5"/>
<path d="M40.9328 9.62622H38.5234V12.0356H40.9328V9.62622Z" fill="#A3B2B5"/>
<path d="M40.9328 7.21704H38.5234V9.62642H40.9328V7.21704Z" fill="#A3B2B5"/>
<path d="M40.9328 4.80688H38.5234V7.21624H40.9328V4.80688Z" fill="#A3B2B5"/>
<path d="M40.9328 2.40918H38.5234V4.81267H40.9328V2.40918Z" fill="#5C7174"/>
<path d="M38.5246 60.187H36.1211V62.5905H38.5246V60.187Z" fill="#D46900"/>
<path d="M38.5246 57.7783H36.1211V60.1877H38.5246V57.7783Z" fill="#D46900"/>
<path d="M38.5246 55.3677H36.1211V57.7771H38.5246V55.3677Z" fill="#D46900"/>
<path d="M38.5246 52.9585H36.1211V55.3679H38.5246V52.9585Z" fill="#D46900"/>
<path d="M38.5246 50.5562H36.1211V52.9655H38.5246V50.5562Z" fill="#D46900"/>
<path d="M38.5246 48.146H36.1211V50.5554H38.5246V48.146Z" fill="#F77B00"/>
<path d="M38.5246 45.7427H36.1211V48.1462H38.5246V45.7427Z" fill="#F77B00"/>
<path d="M38.5246 43.3335H36.1211V45.7429H38.5246V43.3335Z" fill="#F77B00"/>
<path d="M38.5246 40.9243H36.1211V43.3337H38.5246V40.9243Z" fill="#F77B00"/>
<path d="M38.5246 38.5142H36.1211V40.9235H38.5246V38.5142Z" fill="#F77B00"/>
<path d="M38.5246 36.106H36.1211V38.5153H38.5246V36.106Z" fill="#F77B00"/>
<path d="M38.5246 33.7017H36.1211V36.111H38.5246V33.7017Z" fill="#F77B00"/>
<path d="M38.5246 31.2983H36.1211V33.7018H38.5246V31.2983Z" fill="#F77B00"/>
<path d="M38.5246 28.8892H36.1211V31.2985H38.5246V28.8892Z" fill="#F77B00"/>
<path d="M38.5246 26.4785H36.1211V28.8879H38.5246V26.4785Z" fill="#F77B00"/>
<path d="M38.5246 24.0708H36.1211V26.4802H38.5246V24.0708Z" fill="#F77B00"/>
<path d="M38.5246 21.6606H36.1211V24.07H38.5246V21.6606Z" fill="#FFAA0D"/>
<path d="M38.5246 19.2515H36.1211V21.6608H38.5246V19.2515Z" fill="#A15000"/>
<path d="M38.5246 16.8535H36.1211V19.257H38.5246V16.8535Z" fill="#A3B2B5"/>
<path d="M38.5246 14.4443H36.1211V16.8537H38.5246V14.4443Z" fill="#A3B2B5"/>
<path d="M38.5246 12.0352H36.1211V14.4445H38.5246V12.0352Z" fill="#A3B2B5"/>
<path d="M38.5246 9.62646H36.1211V12.0358H38.5246V9.62646Z" fill="#A3B2B5"/>
<path d="M38.5246 7.21729H36.1211V9.62666H38.5246V7.21729Z" fill="#A3B2B5"/>
<path d="M38.5246 4.80664H36.1211V7.216H38.5246V4.80664Z" fill="#A3B2B5"/>
<path d="M38.5246 2.40918H36.1211V4.81267H38.5246V2.40918Z" fill="#A3B2B5"/>
<path d="M38.5246 0H36.1211V2.40937H38.5246V0Z" fill="#5C7174"/>
<path d="M36.1203 60.1873H33.7109V62.5907H36.1203V60.1873Z" fill="#D46900"/>
<path d="M36.1203 57.7781H33.7109V60.1875H36.1203V57.7781Z" fill="#D46900"/>
<path d="M36.1203 55.3677H33.7109V57.7771H36.1203V55.3677Z" fill="#D46900"/>
<path d="M36.1203 52.9597H33.7109V55.3691H36.1203V52.9597Z" fill="#F77B00"/>
<path d="M36.1203 50.5564H33.7109V52.9658H36.1203V50.5564Z" fill="#F77B00"/>
<path d="M36.1203 48.146H33.7109V50.5554H36.1203V48.146Z" fill="#F77B00"/>
<path d="M36.1203 45.7427H33.7109V48.1462H36.1203V45.7427Z" fill="#F77B00"/>
<path d="M36.1203 43.3335H33.7109V45.7429H36.1203V43.3335Z" fill="#F77B00"/>
<path d="M36.1203 40.9243H33.7109V43.3337H36.1203V40.9243Z" fill="#F77B00"/>
<path d="M36.1203 38.5142H33.7109V40.9235H36.1203V38.5142Z" fill="#F77B00"/>
<path d="M36.1203 36.1062H33.7109V38.5156H36.1203V36.1062Z" fill="#F77B00"/>
<path d="M36.1203 33.7017H33.7109V36.111H36.1203V33.7017Z" fill="#F77B00"/>
<path d="M36.1203 31.2981H33.7109V33.7016H36.1203V31.2981Z" fill="#F77B00"/>
<path d="M36.1203 28.8892H33.7109V31.2985H36.1203V28.8892Z" fill="#F77B00"/>
<path d="M36.1203 26.4788H33.7109V28.8881H36.1203V26.4788Z" fill="#F77B00"/>
<path d="M36.1203 24.0708H33.7109V26.4802H36.1203V24.0708Z" fill="#F77B00"/>
<path d="M36.1203 21.6604H33.7109V24.0698H36.1203V21.6604Z" fill="#FFAA0D"/>
<path d="M36.1203 19.2512H33.7109V21.6606H36.1203V19.2512Z" fill="#A15000"/>
<path d="M36.1203 16.8538H33.7109V19.2573H36.1203V16.8538Z" fill="#A3B2B5"/>
<path d="M36.1203 14.4446H33.7109V16.854H36.1203V14.4446Z" fill="#A3B2B5"/>
<path d="M36.1203 12.0354H33.7109V14.4448H36.1203V12.0354Z" fill="#A3B2B5"/>
<path d="M36.1203 9.625H33.7109V12.0344H36.1203V9.625Z" fill="#A3B2B5"/>
<path d="M36.1203 7.21704H33.7109V9.62642H36.1203V7.21704Z" fill="#A3B2B5"/>
<path d="M36.1203 4.80688H33.7109V7.21624H36.1203V4.80688Z" fill="#A3B2B5"/>
<path d="M36.1203 2.40918H33.7109V4.81267H36.1203V2.40918Z" fill="#A3B2B5"/>
<path d="M36.1203 0H33.7109V2.40937H36.1203V0Z" fill="#5C7174"/>
<path d="M33.718 60.1873H31.3086V62.5907H33.718V60.1873Z" fill="#D46900"/>
<path d="M33.718 57.7781H31.3086V60.1875H33.718V57.7781Z" fill="#D46900"/>
<path d="M33.718 55.3677H31.3086V57.7771H33.718V55.3677Z" fill="#D46900"/>
<path d="M33.718 52.9597H31.3086V55.3691H33.718V52.9597Z" fill="#F77B00"/>
<path d="M33.718 50.5564H31.3086V52.9658H33.718V50.5564Z" fill="#F77B00"/>
<path d="M33.718 48.146H31.3086V50.5554H33.718V48.146Z" fill="#F77B00"/>
<path d="M33.718 45.7427H31.3086V48.1462H33.718V45.7427Z" fill="#F77B00"/>
<path d="M33.718 43.3335H31.3086V45.7429H33.718V43.3335Z" fill="#F77B00"/>
<path d="M33.718 40.9243H31.3086V43.3337H33.718V40.9243Z" fill="#F77B00"/>
<path d="M33.718 38.5142H31.3086V40.9235H33.718V38.5142Z" fill="#F77B00"/>
<path d="M33.718 36.1062H31.3086V38.5156H33.718V36.1062Z" fill="#F77B00"/>
<path d="M33.718 33.7017H31.3086V36.111H33.718V33.7017Z" fill="#F77B00"/>
<path d="M33.718 31.2981H31.3086V33.7016H33.718V31.2981Z" fill="#F77B00"/>
<path d="M33.718 28.8892H31.3086V31.2985H33.718V28.8892Z" fill="#F77B00"/>
<path d="M33.718 26.4788H31.3086V28.8881H33.718V26.4788Z" fill="#F77B00"/>
<path d="M33.718 24.0708H31.3086V26.4802H33.718V24.0708Z" fill="#F77B00"/>
<path d="M33.718 21.6604H31.3086V24.0698H33.718V21.6604Z" fill="#FFAA0D"/>
<path d="M33.718 19.2512H31.3086V21.6606H33.718V19.2512Z" fill="#A15000"/>
<path d="M33.718 16.8538H31.3086V19.2573H33.718V16.8538Z" fill="#5C7174"/>
<path d="M33.718 14.4446H31.3086V16.854H33.718V14.4446Z" fill="#5C7174"/>
<path d="M33.718 12.0354H31.3086V14.4448H33.718V12.0354Z" fill="#5C7174"/>
<path d="M33.718 9.625H31.3086V12.0344H33.718V9.625Z" fill="#5C7174"/>
<path d="M33.718 7.21704H31.3086V9.62642H33.718V7.21704Z" fill="#A3B2B5"/>
<path d="M33.718 4.80688H31.3086V7.21624H33.718V4.80688Z" fill="#A3B2B5"/>
<path d="M33.718 2.40918H31.3086V4.81267H33.718V2.40918Z" fill="#A3B2B5"/>
<path d="M33.718 0H31.3086V2.40937H33.718V0Z" fill="#5C7174"/>
<path d="M31.3078 60.1873H28.8984V62.5907H31.3078V60.1873Z" fill="#D46900"/>
<path d="M31.3078 57.7781H28.8984V60.1875H31.3078V57.7781Z" fill="#D46900"/>
<path d="M31.3078 55.3677H28.8984V57.7771H31.3078V55.3677Z" fill="#D46900"/>
<path d="M31.3078 52.9587H28.8984V55.3681H31.3078V52.9587Z" fill="#F77B00"/>
<path d="M31.3078 50.5564H28.8984V52.9658H31.3078V50.5564Z" fill="#F77B00"/>
<path d="M31.3078 48.146H28.8984V50.5554H31.3078V48.146Z" fill="#F77B00"/>
<path d="M31.3078 45.7427H28.8984V48.1462H31.3078V45.7427Z" fill="#F77B00"/>
<path d="M31.3078 43.3335H28.8984V45.7429H31.3078V43.3335Z" fill="#F77B00"/>
<path d="M31.3078 40.9243H28.8984V43.3337H31.3078V40.9243Z" fill="#FFAA0D"/>
<path d="M31.3078 38.5142H28.8984V40.9235H31.3078V38.5142Z" fill="#FFAA0D"/>
<path d="M31.3078 36.1062H28.8984V38.5156H31.3078V36.1062Z" fill="#FFAA0D"/>
<path d="M31.3078 33.7017H28.8984V36.111H31.3078V33.7017Z" fill="#FFAA0D"/>
<path d="M31.3078 31.2981H28.8984V33.7016H31.3078V31.2981Z" fill="#FFAA0D"/>
<path d="M31.3078 28.8892H28.8984V31.2985H31.3078V28.8892Z" fill="#F77B00"/>
<path d="M31.3078 26.4788H28.8984V28.8881H31.3078V26.4788Z" fill="#F77B00"/>
<path d="M31.3078 24.0708H28.8984V26.4802H31.3078V24.0708Z" fill="#F77B00"/>
<path d="M31.3078 21.6604H28.8984V24.0698H31.3078V21.6604Z" fill="#FFAA0D"/>
<path d="M31.3078 19.2512H28.8984V21.6606H31.3078V19.2512Z" fill="#A15000"/>
<path d="M31.3078 9.62622H28.8984V12.0356H31.3078V9.62622Z" fill="#5C7174"/>
<path d="M31.3078 7.21704H28.8984V9.62642H31.3078V7.21704Z" fill="#A3B2B5"/>
<path d="M31.3078 4.80688H28.8984V7.21624H31.3078V4.80688Z" fill="#A3B2B5"/>
<path d="M31.3078 2.40918H28.8984V4.81267H31.3078V2.40918Z" fill="#A3B2B5"/>
<path d="M31.3078 0H28.8984V2.40937H31.3078V0Z" fill="#5C7174"/>
<path d="M28.8996 60.1873H26.4902V62.5907H28.8996V60.1873Z" fill="#D46900"/>
<path d="M28.8996 57.7781H26.4902V60.1875H28.8996V57.7781Z" fill="#D46900"/>
<path d="M28.8996 55.3677H26.4902V57.7771H28.8996V55.3677Z" fill="#D46900"/>
<path d="M28.8996 52.9597H26.4902V55.3691H28.8996V52.9597Z" fill="#F77B00"/>
<path d="M28.8996 50.5564H26.4902V52.9658H28.8996V50.5564Z" fill="#F77B00"/>
<path d="M28.8996 48.146H26.4902V50.5554H28.8996V48.146Z" fill="#C16000"/>
<path d="M28.8996 45.7427H26.4902V48.1462H28.8996V45.7427Z" fill="#C16000"/>
<path d="M28.8996 43.3335H26.4902V45.7429H28.8996V43.3335Z" fill="#C16000"/>
<path d="M28.8996 40.9243H26.4902V43.3337H28.8996V40.9243Z" fill="#273333"/>
<path d="M28.8996 38.5142H26.4902V40.9235H28.8996V38.5142Z" fill="#273333"/>
<path d="M28.8996 36.1062H26.4902V38.5156H28.8996V36.1062Z" fill="#273333"/>
<path d="M28.8996 33.7017H26.4902V36.111H28.8996V33.7017Z" fill="#273333"/>
<path d="M28.8996 31.2981H26.4902V33.7016H28.8996V31.2981Z" fill="#FFAA0D"/>
<path d="M28.8996 28.8892H26.4902V31.2985H28.8996V28.8892Z" fill="#F77B00"/>
<path d="M28.8996 26.4788H26.4902V28.8881H28.8996V26.4788Z" fill="#F77B00"/>
<path d="M28.8996 24.0708H26.4902V26.4802H28.8996V24.0708Z" fill="#F77B00"/>
<path d="M28.8996 21.6604H26.4902V24.0698H28.8996V21.6604Z" fill="#FFAA0D"/>
<path d="M28.8996 19.2512H26.4902V21.6606H28.8996V19.2512Z" fill="#A15000"/>
<path d="M28.8996 9.625H26.4902V12.0344H28.8996V9.625Z" fill="#5C7174"/>
<path d="M28.8996 7.21704H26.4902V9.62642H28.8996V7.21704Z" fill="#A3B2B5"/>
<path d="M28.8996 4.80688H26.4902V7.21624H28.8996V4.80688Z" fill="#A3B2B5"/>
<path d="M28.8996 2.40918H26.4902V4.81267H28.8996V2.40918Z" fill="#A3B2B5"/>
<path d="M28.8996 0H26.4902V2.40937H28.8996V0Z" fill="#5C7174"/>
<path d="M26.4895 60.187H24.0801V62.5905H26.4895V60.187Z" fill="#D46900"/>
<path d="M26.4895 57.7783H24.0801V60.1877H26.4895V57.7783Z" fill="#D46900"/>
<path d="M26.4895 55.3677H24.0801V57.7771H26.4895V55.3677Z" fill="#D46900"/>
<path d="M26.4895 52.96H24.0801V55.3693H26.4895V52.96Z" fill="#F77B00"/>
<path d="M26.4895 50.5562H24.0801V52.9655H26.4895V50.5562Z" fill="#C16000"/>
<path d="M26.4895 48.146H24.0801V50.5554H26.4895V48.146Z" fill="#273333"/>
<path d="M26.4895 45.7427H24.0801V48.1462H26.4895V45.7427Z" fill="#273333"/>
<path d="M26.4895 43.3335H24.0801V45.7429H26.4895V43.3335Z" fill="#273333"/>
<path d="M26.4895 40.9243H24.0801V43.3337H26.4895V40.9243Z" fill="#273333"/>
<path d="M26.4895 38.5142H24.0801V40.9235H26.4895V38.5142Z" fill="#273333"/>
<path d="M26.4895 36.106H24.0801V38.5153H26.4895V36.106Z" fill="#273333"/>
<path d="M26.4895 33.7017H24.0801V36.111H26.4895V33.7017Z" fill="#273333"/>
<path d="M26.4895 31.2983H24.0801V33.7018H26.4895V31.2983Z" fill="#FFAA0D"/>
<path d="M26.4895 28.8892H24.0801V31.2985H26.4895V28.8892Z" fill="#F77B00"/>
<path d="M26.4895 26.4785H24.0801V28.8879H26.4895V26.4785Z" fill="#F77B00"/>
<path d="M26.4895 24.0708H24.0801V26.4802H26.4895V24.0708Z" fill="#F77B00"/>
<path d="M26.4895 21.6606H24.0801V24.07H26.4895V21.6606Z" fill="#FFAA0D"/>
<path d="M26.4895 19.2515H24.0801V21.6608H26.4895V19.2515Z" fill="#A15000"/>
<path d="M26.4895 9.625H24.0801V12.0344H26.4895V9.625Z" fill="#5C7174"/>
<path d="M26.4895 7.21729H24.0801V9.62666H26.4895V7.21729Z" fill="#A3B2B5"/>
<path d="M26.4895 4.80664H24.0801V7.216H26.4895V4.80664Z" fill="#A3B2B5"/>
<path d="M26.4895 2.40918H24.0801V4.81267H26.4895V2.40918Z" fill="#A3B2B5"/>
<path d="M26.4895 0H24.0801V2.40937H26.4895V0Z" fill="#5C7174"/>
<path d="M24.0793 60.187H21.6758V62.5905H24.0793V60.187Z" fill="#D46900"/>
<path d="M24.0793 57.7783H21.6758V60.1877H24.0793V57.7783Z" fill="#D46900"/>
<path d="M24.0793 55.3677H21.6758V57.7771H24.0793V55.3677Z" fill="#D46900"/>
<path d="M24.0793 52.9585H21.6758V55.3679H24.0793V52.9585Z" fill="#C16000"/>
<path d="M24.0793 50.5562H21.6758V52.9655H24.0793V50.5562Z" fill="#273333"/>
<path d="M24.0793 48.146H21.6758V50.5554H24.0793V48.146Z" fill="#273333"/>
<path d="M24.0793 45.7427H21.6758V48.1462H24.0793V45.7427Z" fill="#273333"/>
<path d="M24.0793 43.3335H21.6758V45.7429H24.0793V43.3335Z" fill="#273333"/>
<path d="M24.0793 40.9243H21.6758V43.3337H24.0793V40.9243Z" fill="#273333"/>
<path d="M24.0793 38.5142H21.6758V40.9235H24.0793V38.5142Z" fill="#273333"/>
<path d="M24.0793 36.106H21.6758V38.5153H24.0793V36.106Z" fill="#273333"/>
<path d="M24.0793 33.7017H21.6758V36.111H24.0793V33.7017Z" fill="#273333"/>
<path d="M24.0793 31.2983H21.6758V33.7018H24.0793V31.2983Z" fill="#FFAA0D"/>
<path d="M24.0793 28.8892H21.6758V31.2985H24.0793V28.8892Z" fill="#F77B00"/>
<path d="M24.0793 26.4785H21.6758V28.8879H24.0793V26.4785Z" fill="#F77B00"/>
<path d="M24.0793 24.0708H21.6758V26.4802H24.0793V24.0708Z" fill="#F77B00"/>
<path d="M24.0793 21.6606H21.6758V24.07H24.0793V21.6606Z" fill="#FFAA0D"/>
<path d="M24.0793 19.2515H21.6758V21.6608H24.0793V19.2515Z" fill="#A15000"/>
<path d="M24.0793 9.62646H21.6758V12.0358H24.0793V9.62646Z" fill="#5C7174"/>
<path d="M24.0793 7.21729H21.6758V9.62666H24.0793V7.21729Z" fill="#A3B2B5"/>
<path d="M24.0793 4.80664H21.6758V7.216H24.0793V4.80664Z" fill="#A3B2B5"/>
<path d="M24.0793 2.40918H21.6758V4.81267H24.0793V2.40918Z" fill="#A3B2B5"/>
<path d="M24.0793 0H21.6758V2.40937H24.0793V0Z" fill="#5C7174"/>
<path d="M21.677 60.187H19.2676V62.5905H21.677V60.187Z" fill="#D46900"/>
<path d="M21.677 57.7783H19.2676V60.1877H21.677V57.7783Z" fill="#D46900"/>
<path d="M21.677 55.3677H19.2676V57.7771H21.677V55.3677Z" fill="#D46900"/>
<path d="M21.677 52.96H19.2676V55.3693H21.677V52.96Z" fill="#F77B00"/>
<path d="M21.677 50.5562H19.2676V52.9655H21.677V50.5562Z" fill="#C16000"/>
<path d="M21.677 48.146H19.2676V50.5554H21.677V48.146Z" fill="#273333"/>
<path d="M21.677 45.7427H19.2676V48.1462H21.677V45.7427Z" fill="#273333"/>
<path d="M21.677 43.3335H19.2676V45.7429H21.677V43.3335Z" fill="#273333"/>
<path d="M21.677 40.9243H19.2676V43.3337H21.677V40.9243Z" fill="#273333"/>
<path d="M21.677 38.5142H19.2676V40.9235H21.677V38.5142Z" fill="#273333"/>
<path d="M21.677 36.106H19.2676V38.5153H21.677V36.106Z" fill="#273333"/>
<path d="M21.677 33.7017H19.2676V36.111H21.677V33.7017Z" fill="#273333"/>
<path d="M21.677 31.2983H19.2676V33.7018H21.677V31.2983Z" fill="#FFAA0D"/>
<path d="M21.677 28.8892H19.2676V31.2985H21.677V28.8892Z" fill="#F77B00"/>
<path d="M21.677 26.4785H19.2676V28.8879H21.677V26.4785Z" fill="#F77B00"/>
<path d="M21.677 24.0708H19.2676V26.4802H21.677V24.0708Z" fill="#F77B00"/>
<path d="M21.677 21.6606H19.2676V24.07H21.677V21.6606Z" fill="#FFAA0D"/>
<path d="M21.677 19.2515H19.2676V21.6608H21.677V19.2515Z" fill="#A15000"/>
<path d="M21.677 9.625H19.2676V12.0344H21.677V9.625Z" fill="#5C7174"/>
<path d="M21.677 7.21729H19.2676V9.62666H21.677V7.21729Z" fill="#A3B2B5"/>
<path d="M21.677 4.80664H19.2676V7.216H21.677V4.80664Z" fill="#A3B2B5"/>
<path d="M21.677 2.40918H19.2676V4.81267H21.677V2.40918Z" fill="#A3B2B5"/>
<path d="M21.677 0H19.2676V2.40937H21.677V0Z" fill="#5C7174"/>
<path d="M19.2668 60.1873H16.8574V62.5907H19.2668V60.1873Z" fill="#D46900"/>
<path d="M19.2668 57.7781H16.8574V60.1875H19.2668V57.7781Z" fill="#D46900"/>
<path d="M19.2668 55.3677H16.8574V57.7771H19.2668V55.3677Z" fill="#D46900"/>
<path d="M19.2668 52.9597H16.8574V55.3691H19.2668V52.9597Z" fill="#F77B00"/>
<path d="M19.2668 50.5564H16.8574V52.9658H19.2668V50.5564Z" fill="#F77B00"/>
<path d="M19.2668 48.146H16.8574V50.5554H19.2668V48.146Z" fill="#C16000"/>
<path d="M19.2668 45.7427H16.8574V48.1462H19.2668V45.7427Z" fill="#C16000"/>
<path d="M19.2668 43.3335H16.8574V45.7429H19.2668V43.3335Z" fill="#C16000"/>
<path d="M19.2668 40.9243H16.8574V43.3337H19.2668V40.9243Z" fill="#273333"/>
<path d="M19.2668 38.5142H16.8574V40.9235H19.2668V38.5142Z" fill="#273333"/>
<path d="M19.2668 36.1062H16.8574V38.5156H19.2668V36.1062Z" fill="#273333"/>
<path d="M19.2668 33.7017H16.8574V36.111H19.2668V33.7017Z" fill="#273333"/>
<path d="M19.2668 31.2981H16.8574V33.7016H19.2668V31.2981Z" fill="#FFAA0D"/>
<path d="M19.2668 28.8892H16.8574V31.2985H19.2668V28.8892Z" fill="#F77B00"/>
<path d="M19.2668 26.4788H16.8574V28.8881H19.2668V26.4788Z" fill="#F77B00"/>
<path d="M19.2668 24.0708H16.8574V26.4802H19.2668V24.0708Z" fill="#F77B00"/>
<path d="M19.2668 21.6604H16.8574V24.0698H19.2668V21.6604Z" fill="#FFAA0D"/>
<path d="M19.2668 19.2512H16.8574V21.6606H19.2668V19.2512Z" fill="#A15000"/>
<path d="M19.2668 9.625H16.8574V12.0344H19.2668V9.625Z" fill="#5C7174"/>
<path d="M19.2668 7.21704H16.8574V9.62642H19.2668V7.21704Z" fill="#A3B2B5"/>
<path d="M19.2668 4.80688H16.8574V7.21624H19.2668V4.80688Z" fill="#A3B2B5"/>
<path d="M19.2668 2.40918H16.8574V4.81267H19.2668V2.40918Z" fill="#A3B2B5"/>
<path d="M19.2668 0H16.8574V2.40937H19.2668V0Z" fill="#5C7174"/>
<path d="M16.8645 60.1873H14.4551V62.5907H16.8645V60.1873Z" fill="#D46900"/>
<path d="M16.8625 57.7781H14.4531V60.1875H16.8625V57.7781Z" fill="#D46900"/>
<path d="M16.8625 55.3677H14.4531V57.7771H16.8625V55.3677Z" fill="#D46900"/>
<path d="M16.8625 52.9587H14.4531V55.3681H16.8625V52.9587Z" fill="#F77B00"/>
<path d="M16.8625 50.5564H14.4531V52.9658H16.8625V50.5564Z" fill="#F77B00"/>
<path d="M16.8625 48.146H14.4531V50.5554H16.8625V48.146Z" fill="#F77B00"/>
<path d="M16.8645 45.7427H14.4551V48.1462H16.8645V45.7427Z" fill="#F77B00"/>
<path d="M16.8645 43.3335H14.4551V45.7429H16.8645V43.3335Z" fill="#C16000"/>
<path d="M16.8625 40.9243H14.4531V43.3337H16.8625V40.9243Z" fill="#FFAA0D"/>
<path d="M16.8625 38.5142H14.4531V40.9235H16.8625V38.5142Z" fill="#FFAA0D"/>
<path d="M16.8625 36.1062H14.4531V38.5156H16.8625V36.1062Z" fill="#FFAA0D"/>
<path d="M16.8625 33.7017H14.4531V36.111H16.8625V33.7017Z" fill="#FFAA0D"/>
<path d="M16.8625 31.2981H14.4531V33.7016H16.8625V31.2981Z" fill="#FFAA0D"/>
<path d="M16.8645 28.8892H14.4551V31.2985H16.8645V28.8892Z" fill="#F77B00"/>
<path d="M16.8625 26.4788H14.4531V28.8881H16.8625V26.4788Z" fill="#F77B00"/>
<path d="M16.8625 24.0708H14.4531V26.4802H16.8625V24.0708Z" fill="#F77B00"/>
<path d="M16.8625 21.6604H14.4531V24.0698H16.8625V21.6604Z" fill="#FFAA0D"/>
<path d="M16.8625 19.2512H14.4531V21.6606H16.8625V19.2512Z" fill="#A15000"/>
<path d="M16.8625 9.62622H14.4531V12.0356H16.8625V9.62622Z" fill="#5C7174"/>
<path d="M16.8625 7.21704H14.4531V9.62642H16.8625V7.21704Z" fill="#A3B2B5"/>
<path d="M16.8625 4.80688H14.4531V7.21624H16.8625V4.80688Z" fill="#A3B2B5"/>
<path d="M16.8625 2.40918H14.4531V4.81267H16.8625V2.40918Z" fill="#A3B2B5"/>
<path d="M16.8645 0H14.4551V2.40937H16.8645V0Z" fill="#5C7174"/>
<path d="M14.4543 60.1873H12.0449V62.5907H14.4543V60.1873Z" fill="#D46900"/>
<path d="M14.4543 57.7781H12.0449V60.1875H14.4543V57.7781Z" fill="#D46900"/>
<path d="M14.4543 55.3677H12.0449V57.7771H14.4543V55.3677Z" fill="#D46900"/>
<path d="M14.4543 52.9587H12.0449V55.3681H14.4543V52.9587Z" fill="#F77B00"/>
<path d="M14.4543 50.5564H12.0449V52.9658H14.4543V50.5564Z" fill="#F77B00"/>
<path d="M14.4543 48.146H12.0449V50.5554H14.4543V48.146Z" fill="#F77B00"/>
<path d="M14.4543 45.7427H12.0449V48.1462H14.4543V45.7427Z" fill="#F77B00"/>
<path d="M14.4543 43.3335H12.0449V45.7429H14.4543V43.3335Z" fill="#F77B00"/>
<path d="M14.4543 40.9243H12.0449V43.3337H14.4543V40.9243Z" fill="#F77B00"/>
<path d="M14.4543 38.5142H12.0449V40.9235H14.4543V38.5142Z" fill="#F77B00"/>
<path d="M14.4543 36.1062H12.0449V38.5156H14.4543V36.1062Z" fill="#F77B00"/>
<path d="M14.4543 33.7017H12.0449V36.111H14.4543V33.7017Z" fill="#F77B00"/>
<path d="M14.4543 31.2981H12.0449V33.7016H14.4543V31.2981Z" fill="#F77B00"/>
<path d="M14.4543 28.8892H12.0449V31.2985H14.4543V28.8892Z" fill="#F77B00"/>
<path d="M14.4543 26.4788H12.0449V28.8881H14.4543V26.4788Z" fill="#F77B00"/>
<path d="M14.4543 24.0708H12.0449V26.4802H14.4543V24.0708Z" fill="#F77B00"/>
<path d="M14.4543 21.6604H12.0449V24.0698H14.4543V21.6604Z" fill="#FFAA0D"/>
<path d="M14.4543 19.2512H12.0449V21.6606H14.4543V19.2512Z" fill="#A15000"/>
<path d="M14.4543 16.8538H12.0449V19.2573H14.4543V16.8538Z" fill="#5C7174"/>
<path d="M14.4543 14.4446H12.0449V16.854H14.4543V14.4446Z" fill="#5C7174"/>
<path d="M14.4543 12.0354H12.0449V14.4448H14.4543V12.0354Z" fill="#5C7174"/>
<path d="M14.4543 9.62622H12.0449V12.0356H14.4543V9.62622Z" fill="#5C7174"/>
<path d="M14.4543 7.21704H12.0449V9.62642H14.4543V7.21704Z" fill="#A3B2B5"/>
<path d="M14.4543 4.80688H12.0449V7.21624H14.4543V4.80688Z" fill="#A3B2B5"/>
<path d="M14.4543 2.40918H12.0449V4.81267H14.4543V2.40918Z" fill="#A3B2B5"/>
<path d="M14.4543 0H12.0449V2.40937H14.4543V0Z" fill="#5C7174"/>
<path d="M12.0441 60.187H9.63477V62.5905H12.0441V60.187Z" fill="#D46900"/>
<path d="M12.0441 57.7783H9.63477V60.1877H12.0441V57.7783Z" fill="#D46900"/>
<path d="M12.0441 55.3677H9.63477V57.7771H12.0441V55.3677Z" fill="#D46900"/>
<path d="M12.0441 52.96H9.63477V55.3693H12.0441V52.96Z" fill="#D46900"/>
<path d="M12.0441 50.5562H9.63477V52.9655H12.0441V50.5562Z" fill="#F77B00"/>
<path d="M12.0441 48.146H9.63477V50.5554H12.0441V48.146Z" fill="#F77B00"/>
<path d="M12.0441 45.7427H9.63477V48.1462H12.0441V45.7427Z" fill="#F77B00"/>
<path d="M12.0441 43.3335H9.63477V45.7429H12.0441V43.3335Z" fill="#F77B00"/>
<path d="M12.0441 40.9243H9.63477V43.3337H12.0441V40.9243Z" fill="#F77B00"/>
<path d="M12.0441 38.5142H9.63477V40.9235H12.0441V38.5142Z" fill="#F77B00"/>
<path d="M12.0441 36.106H9.63477V38.5153H12.0441V36.106Z" fill="#F77B00"/>
<path d="M12.0441 33.7017H9.63477V36.111H12.0441V33.7017Z" fill="#F77B00"/>
<path d="M12.0441 31.2983H9.63477V33.7018H12.0441V31.2983Z" fill="#F77B00"/>
<path d="M12.0441 28.8892H9.63477V31.2985H12.0441V28.8892Z" fill="#F77B00"/>
<path d="M12.0441 26.4785H9.63477V28.8879H12.0441V26.4785Z" fill="#F77B00"/>
<path d="M12.0441 24.0708H9.63477V26.4802H12.0441V24.0708Z" fill="#F77B00"/>
<path d="M12.0441 21.6606H9.63477V24.07H12.0441V21.6606Z" fill="#FFAA0D"/>
<path d="M12.0441 19.2515H9.63477V21.6608H12.0441V19.2515Z" fill="#A15000"/>
<path d="M12.0441 16.8535H9.63477V19.257H12.0441V16.8535Z" fill="#A3B2B5"/>
<path d="M12.0441 14.4443H9.63477V16.8537H12.0441V14.4443Z" fill="#A3B2B5"/>
<path d="M12.0441 12.0352H9.63477V14.4445H12.0441V12.0352Z" fill="#A3B2B5"/>
<path d="M12.0441 9.625H9.63477V12.0344H12.0441V9.625Z" fill="#A3B2B5"/>
<path d="M12.0441 7.21729H9.63477V9.62666H12.0441V7.21729Z" fill="#A3B2B5"/>
<path d="M12.0441 4.80664H9.63477V7.216H12.0441V4.80664Z" fill="#A3B2B5"/>
<path d="M12.0441 2.40918H9.63477V4.81267H12.0441V2.40918Z" fill="#A3B2B5"/>
<path d="M12.0441 0H9.63477V2.40937H12.0441V0Z" fill="#5C7174"/>
<path d="M9.63396 60.187H7.23047V62.5905H9.63396V60.187Z" fill="#D46900"/>
<path d="M9.63396 57.7783H7.23047V60.1877H9.63396V57.7783Z" fill="#D46900"/>
<path d="M9.63396 55.3677H7.23047V57.7771H9.63396V55.3677Z" fill="#D46900"/>
<path d="M9.63396 52.9585H7.23047V55.3679H9.63396V52.9585Z" fill="#D46900"/>
<path d="M9.63396 50.5562H7.23047V52.9655H9.63396V50.5562Z" fill="#D46900"/>
<path d="M9.63396 48.146H7.23047V50.5554H9.63396V48.146Z" fill="#F77B00"/>
<path d="M9.63396 45.7427H7.23047V48.1462H9.63396V45.7427Z" fill="#F77B00"/>
<path d="M9.63396 43.3335H7.23047V45.7429H9.63396V43.3335Z" fill="#F77B00"/>
<path d="M9.63396 40.9243H7.23047V43.3337H9.63396V40.9243Z" fill="#F77B00"/>
<path d="M9.63396 38.5142H7.23047V40.9235H9.63396V38.5142Z" fill="#F77B00"/>
<path d="M9.63396 36.106H7.23047V38.5153H9.63396V36.106Z" fill="#F77B00"/>
<path d="M9.63396 33.7017H7.23047V36.111H9.63396V33.7017Z" fill="#F77B00"/>
<path d="M9.63396 31.2983H7.23047V33.7018H9.63396V31.2983Z" fill="#F77B00"/>
<path d="M9.63396 28.8892H7.23047V31.2985H9.63396V28.8892Z" fill="#F77B00"/>
<path d="M9.63396 26.4785H7.23047V28.8879H9.63396V26.4785Z" fill="#F77B00"/>
<path d="M9.63396 24.0708H7.23047V26.4802H9.63396V24.0708Z" fill="#F77B00"/>
<path d="M9.63396 21.6606H7.23047V24.07H9.63396V21.6606Z" fill="#FFAA0D"/>
<path d="M9.63396 19.2515H7.23047V21.6608H9.63396V19.2515Z" fill="#A15000"/>
<path d="M9.63396 16.8535H7.23047V19.257H9.63396V16.8535Z" fill="#A3B2B5"/>
<path d="M9.63396 14.4443H7.23047V16.8537H9.63396V14.4443Z" fill="#A3B2B5"/>
<path d="M9.63396 12.0352H7.23047V14.4445H9.63396V12.0352Z" fill="#A3B2B5"/>
<path d="M9.63396 9.62646H7.23047V12.0358H9.63396V9.62646Z" fill="#A3B2B5"/>
<path d="M9.63396 7.21729H7.23047V9.62666H9.63396V7.21729Z" fill="#A3B2B5"/>
<path d="M9.63396 4.80664H7.23047V7.216H9.63396V4.80664Z" fill="#A3B2B5"/>
<path d="M9.63396 2.40918H7.23047V4.81267H9.63396V2.40918Z" fill="#A3B2B5"/>
<path d="M9.63396 0H7.23047V2.40937H9.63396V0Z" fill="#5C7174"/>
<path d="M7.23164 60.1873H4.82227V62.5907H7.23164V60.1873Z" fill="#A15000"/>
<path d="M7.23164 57.7783H4.82227V60.1877H7.23164V57.7783Z" fill="#D46900"/>
<path d="M7.23164 55.3677H4.82227V57.7771H7.23164V55.3677Z" fill="#D46900"/>
<path d="M7.23164 52.9585H4.82227V55.3679H7.23164V52.9585Z" fill="#D46900"/>
<path d="M7.23164 50.5562H4.82227V52.9655H7.23164V50.5562Z" fill="#D46900"/>
<path d="M7.23164 48.146H4.82227V50.5554H7.23164V48.146Z" fill="#F77B00"/>
<path d="M7.23164 45.7427H4.82227V48.1462H7.23164V45.7427Z" fill="#F77B00"/>
<path d="M7.23164 43.3335H4.82227V45.7429H7.23164V43.3335Z" fill="#F77B00"/>
<path d="M7.23164 40.9243H4.82227V43.3337H7.23164V40.9243Z" fill="#F77B00"/>
<path d="M7.23164 38.5142H4.82227V40.9235H7.23164V38.5142Z" fill="#F77B00"/>
<path d="M7.23164 36.106H4.82227V38.5153H7.23164V36.106Z" fill="#F77B00"/>
<path d="M7.23164 33.7017H4.82227V36.111H7.23164V33.7017Z" fill="#F77B00"/>
<path d="M7.23164 31.2983H4.82227V33.7018H7.23164V31.2983Z" fill="#F77B00"/>
<path d="M7.23164 28.8892H4.82227V31.2985H7.23164V28.8892Z" fill="#F77B00"/>
<path d="M7.23164 26.4785H4.82227V28.8879H7.23164V26.4785Z" fill="#F77B00"/>
<path d="M7.23164 24.0708H4.82227V26.4802H7.23164V24.0708Z" fill="#FFAA0D"/>
<path d="M7.23164 21.6606H4.82227V24.07H7.23164V21.6606Z" fill="#A15000"/>
<path d="M7.23164 19.2515H4.82227V21.6608H7.23164V19.2515Z" fill="#A3B2B5"/>
<path d="M7.23164 16.8535H4.82227V19.257H7.23164V16.8535Z" fill="#A3B2B5"/>
<path d="M7.23164 14.4446H4.82227V16.854H7.23164V14.4446Z" fill="#A3B2B5"/>
<path d="M7.23164 12.0352H4.82227V14.4445H7.23164V12.0352Z" fill="#A3B2B5"/>
<path d="M7.23164 9.62646H4.82227V12.0358H7.23164V9.62646Z" fill="#A3B2B5"/>
<path d="M7.23164 7.21729H4.82227V9.62666H7.23164V7.21729Z" fill="#A3B2B5"/>
<path d="M7.23164 4.80664H4.82227V7.216H7.23164V4.80664Z" fill="#A3B2B5"/>
<path d="M7.23164 2.40918H4.82227V4.81267H7.23164V2.40918Z" fill="#5C7174"/>
<path d="M4.82148 57.7781H2.41211V60.1875H4.82148V57.7781Z" fill="#A15000"/>
<path d="M4.82148 55.3677H2.41211V57.7771H4.82148V55.3677Z" fill="#D46900"/>
<path d="M4.82148 52.9597H2.41211V55.3691H4.82148V52.9597Z" fill="#D46900"/>
<path d="M4.82148 50.5564H2.41211V52.9658H4.82148V50.5564Z" fill="#D46900"/>
<path d="M4.82148 48.146H2.41211V50.5554H4.82148V48.146Z" fill="#F77B00"/>
<path d="M4.82148 45.7427H2.41211V48.1462H4.82148V45.7427Z" fill="#F77B00"/>
<path d="M4.82148 43.3335H2.41211V45.7429H4.82148V43.3335Z" fill="#F77B00"/>
<path d="M4.82148 40.9243H2.41211V43.3337H4.82148V40.9243Z" fill="#F77B00"/>
<path d="M4.82148 38.5142H2.41211V40.9235H4.82148V38.5142Z" fill="#F77B00"/>
<path d="M4.82148 36.1062H2.41211V38.5156H4.82148V36.1062Z" fill="#F77B00"/>
<path d="M4.82148 33.7017H2.41211V36.111H4.82148V33.7017Z" fill="#F77B00"/>
<path d="M4.82148 31.2981H2.41211V33.7016H4.82148V31.2981Z" fill="#F77B00"/>
<path d="M4.82148 28.8892H2.41211V31.2985H4.82148V28.8892Z" fill="#F77B00"/>
<path d="M4.82148 26.4788H2.41211V28.8881H4.82148V26.4788Z" fill="#FFAA0D"/>
<path d="M4.82148 24.0708H2.41211V26.4802H4.82148V24.0708Z" fill="#A15000"/>
<path d="M4.82148 21.6604H2.41211V24.0698H4.82148V21.6604Z" fill="#5C7174"/>
<path d="M4.82148 19.2512H2.41211V21.6606H4.82148V19.2512Z" fill="#5C7174"/>
<path d="M4.82148 16.8538H2.41211V19.2573H4.82148V16.8538Z" fill="#5C7174"/>
<path d="M4.82148 14.4446H2.41211V16.854H4.82148V14.4446Z" fill="#5C7174"/>
<path d="M4.82148 12.0354H2.41211V14.4448H4.82148V12.0354Z" fill="#5C7174"/>
<path d="M4.82148 9.625H2.41211V12.0344H4.82148V9.625Z" fill="#5C7174"/>
<path d="M4.82148 7.21704H2.41211V9.62642H4.82148V7.21704Z" fill="#5C7174"/>
<path d="M4.82148 4.80688H2.41211V7.21624H4.82148V4.80688Z" fill="#5C7174"/>
<path d="M2.41328 55.3677H0.00390625V57.7771H2.41328V55.3677Z" fill="#A15000"/>
<path d="M2.41328 52.9587H0.00390625V55.3681H2.41328V52.9587Z" fill="#A15000"/>
<path d="M2.41328 50.5564H0.00390625V52.9658H2.41328V50.5564Z" fill="#A15000"/>
<path d="M2.41328 48.146H0.00390625V50.5554H2.41328V48.146Z" fill="#A15000"/>
<path d="M2.41328 45.7427H0.00390625V48.1462H2.41328V45.7427Z" fill="#A15000"/>
<path d="M2.41328 43.3335H0.00390625V45.7429H2.41328V43.3335Z" fill="#A15000"/>
<path d="M2.41328 40.9243H0.00390625V43.3337H2.41328V40.9243Z" fill="#A15000"/>
<path d="M2.41328 38.5142H0.00390625V40.9235H2.41328V38.5142Z" fill="#A15000"/>
<path d="M2.41328 36.1062H0.00390625V38.5156H2.41328V36.1062Z" fill="#A15000"/>
<path d="M2.41328 33.7017H0.00390625V36.111H2.41328V33.7017Z" fill="#A15000"/>
<path d="M2.41328 31.2981H0.00390625V33.7016H2.41328V31.2981Z" fill="#A15000"/>
<path d="M2.41328 28.8892H0.00390625V31.2985H2.41328V28.8892Z" fill="#A15000"/>
<path d="M2.41328 26.4788H0.00390625V28.8881H2.41328V26.4788Z" fill="#A15000"/>
</svg>
