<svg width="51" height="52" viewBox="0 0 51 52" fill="none" xmlns="http://www.w3.org/2000/svg">
<path d="M48.9305 17.0707V13.0056H46.8917V10.973H44.8528V8.9404H42.814V6.90781H40.7751V4.87523H38.7363V2.84264H32.6197V0.810059H18.3487V2.84264H12.2321V4.87523H10.1933V6.90781H8.15444V8.9404H6.11558V10.973H4.07673V13.0056H2.03788V19.1033H0V33.3305H2.03788V39.4282H4.07673V41.4608H6.11558V43.4934H8.15444V45.526H10.1933V47.5586H12.2321V49.5911H16.3099V51.6237H34.6586V49.5911H38.7363V47.5586H40.7751V45.526H42.814V43.4934H44.8528V41.4608H46.8917V39.4282H48.9305V35.363H50.9694V17.0707H48.9305Z" fill="#FDEB19"/>
<path d="M34.6599 49.5913H32.6211V51.6239H34.6599V49.5913Z" fill="#F7AC3D"/>
<path d="M32.6216 49.5911H18.3496V51.6237H32.6216V49.5911Z" fill="#F4960A"/>
<path d="M18.3474 49.5913H16.3086V51.6239H18.3474V49.5913Z" fill="#F7AC3D"/>
<path d="M38.7359 47.5586H34.6582V49.5912H38.7359V47.5586Z" fill="#F4960A"/>
<path d="M34.6599 47.5586H32.6211V49.5912H34.6599V47.5586Z" fill="#FFD101"/>
<path d="M18.3474 47.5586H16.3086V49.5912H18.3474V47.5586Z" fill="#FAB60A"/>
<path d="M16.3103 47.5586H14.2715V49.5912H16.3103V47.5586Z" fill="#F4960A"/>
<path d="M14.2713 47.5586H12.2324V49.5912H14.2713V47.5586Z" fill="#F7AC3D"/>
<path d="M40.7752 45.5259H38.7363V47.5585H40.7752V45.5259Z" fill="#F4960A"/>
<path d="M38.7361 45.5259H36.6973V47.5585H38.7361V45.5259Z" fill="#FFEB0F"/>
<path d="M14.2713 45.5259H12.2324V47.5585H14.2713V45.5259Z" fill="#FFD000"/>
<path d="M12.2322 45.5259H10.1934V47.5585H12.2322V45.5259Z" fill="#F4960A"/>
<path d="M42.8142 43.4934H40.7754V45.526H42.8142V43.4934Z" fill="#F4960A"/>
<path d="M10.1932 43.4934H8.1543V45.526H10.1932V43.4934Z" fill="#F4960A"/>
<path d="M44.8533 41.4609H42.8145V43.4935H44.8533V41.4609Z" fill="#F4960A"/>
<path d="M8.15409 41.4609H6.11523V43.4935H8.15409V41.4609Z" fill="#F4960A"/>
<path d="M46.8904 39.4282H44.8516V41.4608H46.8904V39.4282Z" fill="#F4960A"/>
<path d="M32.6198 39.4285H20.3867V41.4611H32.6198V39.4285Z" fill="#F4960A"/>
<path d="M20.3885 39.4285H18.3496V41.4611H20.3885V39.4285Z" fill="#F49807"/>
<path d="M6.11698 39.4282H4.07812V41.4608H6.11698V39.4282Z" fill="#F4960A"/>
<path d="M48.9314 37.3955H46.8926V39.4281H48.9314V37.3955Z" fill="#FAB95E"/>
<path d="M36.6971 37.3955H34.6582V39.4281H36.6971V37.3955Z" fill="#FFE703"/>
<path d="M34.6599 37.3955H32.6211V39.4281H34.6599V37.3955Z" fill="#F4960A"/>
<path d="M18.3474 37.3955H16.3086V39.4281H18.3474V37.3955Z" fill="#F4960A"/>
<path d="M6.11698 37.3955H4.07812V39.4281H6.11698V37.3955Z" fill="#FFD301"/>
<path d="M4.07596 37.3955H2.03711V39.4281H4.07596V37.3955Z" fill="#F7AC3D"/>
<path d="M48.9314 35.363H46.8926V37.3956H48.9314V35.363Z" fill="#F4960A"/>
<path d="M38.7361 35.363H36.6973V37.3956H38.7361V35.363Z" fill="#F6A306"/>
<path d="M36.6971 35.3633H34.6582V37.3959H36.6971V35.3633Z" fill="#F4960A"/>
<path d="M16.3103 35.3633H14.2715V37.3959H16.3103V35.3633Z" fill="#F4960A"/>
<path d="M14.2713 35.3633H12.2324V37.3959H14.2713V35.3633Z" fill="#F9B757"/>
<path d="M4.07596 33.3306H2.03711V37.3957H4.07596V33.3306Z" fill="#F4960A"/>
<path d="M50.9685 33.3306H48.9297V35.3631H50.9685V33.3306Z" fill="#F7AC3D"/>
<path d="M48.9314 33.3306H46.8926V35.3631H48.9314V33.3306Z" fill="#FFCD00"/>
<path d="M38.7361 33.3306H36.6973V35.3631H38.7361V33.3306Z" fill="#F4960A"/>
<path d="M14.2713 35.3633H18.349V33.3307H16.3101V31.2982H18.349V29.2656H16.3101V27.234H18.349V25.2014H16.3101V23.1688H18.349V21.1362H16.3101V19.1036H18.349V17.071H20.3878V15.0384H24.4655V13.0059H18.349V15.0384H16.3101V17.071H14.2713V19.1036H12.2324V33.3307H14.2713V35.3633Z" fill="#FFF37F"/>
<path d="M14.2713 33.3306H12.2324V35.3631H14.2713V33.3306Z" fill="#F4960A"/>
<path d="M12.2322 31.2976H10.1934V33.3302H12.2322V31.2976Z" fill="#FCBD02"/>
<path d="M40.7752 21.136H38.7363V33.3315H40.7752V21.136Z" fill="#F4960A"/>
<path d="M12.2322 21.136H10.1934V31.2989H12.2322V21.136Z" fill="#F4960A"/>
<path d="M2.03885 19.1035H0V33.3316H2.03885V19.1035Z" fill="#F4960A"/>
<path d="M32.6211 21.1357V23.1683H34.6599V25.2009H36.6988V21.1357H32.6211Z" fill="#F2F2F2"/>
<path d="M50.9685 19.1035H48.9297V33.3316H50.9685V19.1035Z" fill="#F4960A"/>
<path d="M40.7752 19.1035H38.7363V21.1361H40.7752V19.1035Z" fill="#F59C06"/>
<path d="M12.2322 19.1035H10.1934V21.1361H12.2322V19.1035Z" fill="#F9B757"/>
<path d="M50.9685 17.0706H48.9297V19.1031H50.9685V17.0706Z" fill="#F7AC3D"/>
<path d="M48.9314 17.0706H46.8926V19.1031H48.9314V17.0706Z" fill="#F9AE05"/>
<path d="M38.7361 17.0706H36.6973V19.1031H38.7361V17.0706Z" fill="#F4960A"/>
<path d="M14.2713 17.0703H12.2324V19.1029H14.2713V17.0703Z" fill="#F4960A"/>
<path d="M4.07596 15.0381H2.03711V19.1033H4.07596V15.0381Z" fill="#F4960A"/>
<path d="M48.9314 15.0381H46.8926V17.0707H48.9314V15.0381Z" fill="#F4960A"/>
<path d="M38.7361 15.0381H36.6973V17.0707H38.7361V15.0381Z" fill="#F9B757"/>
<path d="M36.6971 15.0381H34.6582V17.0707H36.6971V15.0381Z" fill="#F4960A"/>
<path d="M16.3103 15.0381H14.2715V17.0707H16.3103V15.0381Z" fill="#F4960A"/>
<path d="M48.9314 13.0056H46.8926V15.0382H48.9314V13.0056Z" fill="#F9B757"/>
<path d="M36.6971 13.0059H34.6582V15.0384H36.6971V13.0059Z" fill="#F9B757"/>
<path d="M34.6599 13.0059H32.6211V15.0384H34.6599V13.0059Z" fill="#F4960A"/>
<path d="M18.3474 13.0059H16.3086V15.0384H18.3474V13.0059Z" fill="#F4960A"/>
<path d="M6.11698 13.0059H4.07812V15.0384H6.11698V13.0059Z" fill="#FFD500"/>
<path d="M4.07596 13.0056H2.03711V15.0382H4.07596V13.0056Z" fill="#F7AC3D"/>
<path d="M46.8904 10.9731H44.8516V13.0057H46.8904V10.9731Z" fill="#F4960A"/>
<path d="M32.6189 10.9731H30.5801V13.0057H32.6189V10.9731Z" fill="#FDC602"/>
<path d="M30.581 10.9731H20.3867V13.0057H30.581V10.9731Z" fill="#F4960A"/>
<path d="M20.3885 10.9731H18.3496V13.0057H20.3885V10.9731Z" fill="#F9B757"/>
<path d="M6.11698 10.9731H4.07812V13.0057H6.11698V10.9731Z" fill="#F4960A"/>
<path d="M44.8533 8.94043H42.8145V10.973H44.8533V8.94043Z" fill="#F4960A"/>
<path d="M8.15409 8.94043H6.11523V10.973H8.15409V8.94043Z" fill="#F4960A"/>
<path d="M42.8142 6.90796H40.7754V8.94054H42.8142V6.90796Z" fill="#F4960A"/>
<path d="M10.1932 6.90796H8.1543V8.94054H10.1932V6.90796Z" fill="#F4960A"/>
<path d="M40.7752 4.87549H38.7363V6.90807H40.7752V4.87549Z" fill="#F4960A"/>
<path d="M38.7361 4.87549H36.6973V6.90807H38.7361V4.87549Z" fill="#FEEB15"/>
<path d="M14.2713 4.87549H12.2324V6.90807H14.2713V4.87549Z" fill="#FFD301"/>
<path d="M12.2322 4.87549H10.1934V6.90807H12.2322V4.87549Z" fill="#F4960A"/>
<path d="M38.7361 2.84253H36.6973V4.87511H38.7361V2.84253Z" fill="#F7AC3D"/>
<path d="M36.6988 2.84229H32.6211V4.87487H36.6988V2.84229Z" fill="#F4960A"/>
<path d="M18.3492 2.84229H14.2715V4.87487H18.3492V2.84229Z" fill="#F4960A"/>
<path d="M14.2713 2.84229H12.2324V4.87487H14.2713V2.84229Z" fill="#F7AC3D"/>
<path d="M32.6198 0.810059H20.3867V2.84264H32.6198V0.810059Z" fill="#F4960A"/>
<path d="M20.3885 0.810059H18.3496V2.84264H20.3885V0.810059Z" fill="#F4980A"/>
</svg>
