<svg width="52" height="50" viewBox="0 0 52 50" fill="none" xmlns="http://www.w3.org/2000/svg">
<path d="M51.5375 40.2278H49.1953V42.5699H51.5375V40.2278Z" fill="#29632D"/>
<path d="M51.5375 37.8848H49.1953V40.2269H51.5375V37.8848Z" fill="#29632D"/>
<path d="M51.5375 35.5432H49.1953V37.8854H51.5375V35.5432Z" fill="#29632D"/>
<path d="M51.5375 33.2014H49.1953V35.5436H51.5375V33.2014Z" fill="#29632D"/>
<path d="M51.5375 30.8584H49.1953V33.2006H51.5375V30.8584Z" fill="#29632D"/>
<path d="M51.5375 28.5154H49.1953V30.8576H51.5375V28.5154Z" fill="#57995E"/>
<path d="M51.5375 26.1738H49.1953V28.516H51.5375V26.1738Z" fill="#29632D"/>
<path d="M51.5375 23.832H49.1953V26.1742H51.5375V23.832Z" fill="#57995E"/>
<path d="M51.5375 21.4849H49.1953V23.8316H51.5375V21.4849Z" fill="#57995E"/>
<path d="M51.5375 19.1431H49.1953V21.4852H51.5375V19.1431Z" fill="#57995E"/>
<path d="M51.5375 16.8H49.1953V19.1422H51.5375V16.8Z" fill="#57995E"/>
<path d="M51.5375 14.457H49.1953V16.7992H51.5375V14.457Z" fill="#57995E"/>
<path d="M51.5375 12.1155H49.1953V14.4576H51.5375V12.1155Z" fill="#57995E"/>
<path d="M51.5375 9.77368H49.1953V12.1159H51.5375V9.77368Z" fill="#57995E"/>
<path d="M51.5375 7.43213H49.1953V9.77429H51.5375V7.43213Z" fill="#57995E"/>
<path d="M49.1976 42.571H46.8555V44.9132H49.1976V42.571Z" fill="#29632D"/>
<path d="M49.1976 40.2278H46.8555V42.5699H49.1976V40.2278Z" fill="#29632D"/>
<path d="M49.1976 37.8848H46.8555V40.2269H49.1976V37.8848Z" fill="#29632D"/>
<path d="M49.1976 35.5432H46.8555V37.8854H49.1976V35.5432Z" fill="#29632D"/>
<path d="M49.1976 33.2014H46.8555V35.5436H49.1976V33.2014Z" fill="#29632D"/>
<path d="M49.1976 30.8584H46.8555V33.2006H49.1976V30.8584Z" fill="#29632D"/>
<path d="M49.1976 28.5154H46.8555V30.8576H49.1976V28.5154Z" fill="#29632D"/>
<path d="M49.1976 26.1738H46.8555V28.516H49.1976V26.1738Z" fill="#29632D"/>
<path d="M49.1976 23.832H46.8555V26.1742H49.1976V23.832Z" fill="#29632D"/>
<path d="M49.1976 21.4849H46.8555V23.8316H49.1976V21.4849Z" fill="#29632D"/>
<path d="M49.1976 19.1431H46.8555V21.4852H49.1976V19.1431Z" fill="#29632D"/>
<path d="M49.1976 16.8H46.8555V19.1422H49.1976V16.8Z" fill="#29632D"/>
<path d="M49.1976 14.457H46.8555V16.7992H49.1976V14.457Z" fill="#29632D"/>
<path d="M49.1976 12.1155H46.8555V14.4576H49.1976V12.1155Z" fill="#29632D"/>
<path d="M49.1976 9.77368H46.8555V12.1159H49.1976V9.77368Z" fill="#29632D"/>
<path d="M49.1976 7.43213H46.8555V9.77429H49.1976V7.43213Z" fill="#29632D"/>
<path d="M49.1976 5.08911H46.8555V7.43127H49.1976V5.08911Z" fill="#57995E"/>
<path d="M46.8539 44.9126H44.5117V47.2548H46.8539V44.9126Z" fill="#174217"/>
<path d="M46.8539 42.5708H44.5117V44.913H46.8539V42.5708Z" fill="#29632D"/>
<path d="M46.8539 40.228H44.5117V42.5702H46.8539V40.228Z" fill="#29632D"/>
<path d="M46.8539 37.8862H44.5117V40.2284H46.8539V37.8862Z" fill="#32348D"/>
<path d="M46.8539 35.543H44.5117V37.8851H46.8539V35.543Z" fill="#EDEFEF"/>
<path d="M46.8539 33.2017H44.5117V35.5438H46.8539V33.2017Z" fill="#EDEFEF"/>
<path d="M46.8539 30.8584H44.5117V33.2006H46.8539V30.8584Z" fill="#EDEFEF"/>
<path d="M46.8539 28.5156H44.5117V30.8578H46.8539V28.5156Z" fill="#3F44A5"/>
<path d="M46.8539 26.1738H44.5117V28.516H46.8539V26.1738Z" fill="#3F44A5"/>
<path d="M46.8539 23.832H44.5117V26.1742H46.8539V23.832Z" fill="#3F44A5"/>
<path d="M46.8539 21.4849H44.5117V23.8316H46.8539V21.4849Z" fill="#3F44A5"/>
<path d="M46.8539 19.1431H44.5117V21.4852H46.8539V19.1431Z" fill="#3F44A5"/>
<path d="M46.8539 16.8003H44.5117V19.1425H46.8539V16.8003Z" fill="#3F44A5"/>
<path d="M46.8539 14.457H44.5117V16.7992H46.8539V14.457Z" fill="#EDEFEF"/>
<path d="M46.8539 12.1152H44.5117V14.4574H46.8539V12.1152Z" fill="#3F44A5"/>
<path d="M46.8539 9.77393H44.5117V12.1161H46.8539V9.77393Z" fill="#EDEFEF"/>
<path d="M46.8539 7.43213H44.5117V9.77429H46.8539V7.43213Z" fill="#29632D"/>
<path d="M46.8539 5.08887H44.5117V7.43103H46.8539V5.08887Z" fill="#29632D"/>
<path d="M46.8539 2.74609H44.5117V5.08826H46.8539V2.74609Z" fill="#57995E"/>
<path d="M44.5121 47.2542H42.1699V49.5963H44.5121V47.2542Z" fill="#52A0B2"/>
<path d="M44.5121 44.9126H42.1699V47.2548H44.5121V44.9126Z" fill="#174217"/>
<path d="M44.5121 42.571H42.1699V44.9132H44.5121V42.571Z" fill="#29632D"/>
<path d="M44.5121 40.2278H42.1699V42.5699H44.5121V40.2278Z" fill="#242872"/>
<path d="M44.5121 37.8848H42.1699V40.2269H44.5121V37.8848Z" fill="#32348D"/>
<path d="M44.5121 35.5432H42.1699V37.8854H44.5121V35.5432Z" fill="#32348D"/>
<path d="M44.5121 33.2014H42.1699V35.5436H44.5121V33.2014Z" fill="#3F44A5"/>
<path d="M44.5121 30.8584H42.1699V33.2006H44.5121V30.8584Z" fill="#3F44A5"/>
<path d="M44.5121 28.5154H42.1699V30.8576H44.5121V28.5154Z" fill="#3F44A5"/>
<path d="M44.5121 26.1738H42.1699V28.516H44.5121V26.1738Z" fill="#32348D"/>
<path d="M44.5121 23.832H42.1699V26.1742H44.5121V23.832Z" fill="#FF9700"/>
<path d="M44.5121 21.4849H42.1699V23.8316H44.5121V21.4849Z" fill="#3F44A5"/>
<path d="M44.5121 19.1431H42.1699V21.4852H44.5121V19.1431Z" fill="#3F44A5"/>
<path d="M44.5121 16.8H42.1699V19.1422H44.5121V16.8Z" fill="#3F44A5"/>
<path d="M44.5121 14.457H42.1699V16.7992H44.5121V14.457Z" fill="#3F44A5"/>
<path d="M44.5121 12.1155H42.1699V14.4576H44.5121V12.1155Z" fill="#3F44A5"/>
<path d="M44.5121 9.77368H42.1699V12.1159H44.5121V9.77368Z" fill="#3F44A5"/>
<path d="M44.5121 7.43213H42.1699V9.77429H44.5121V7.43213Z" fill="#EDEFEF"/>
<path d="M44.5121 5.08911H42.1699V7.43127H44.5121V5.08911Z" fill="#29632D"/>
<path d="M44.5121 2.74585H42.1699V5.08801H44.5121V2.74585Z" fill="#57995E"/>
<path d="M42.1703 47.2544H39.8281V49.5966H42.1703V47.2544Z" fill="#52A0B2"/>
<path d="M42.1703 44.9126H39.8281V47.2548H42.1703V44.9126Z" fill="#174217"/>
<path d="M42.1703 42.5708H39.8281V44.913H42.1703V42.5708Z" fill="#29632D"/>
<path d="M42.1703 40.2278H39.8281V42.5699H42.1703V40.2278Z" fill="#242872"/>
<path d="M42.1703 37.8862H39.8281V40.2284H42.1703V37.8862Z" fill="#32348D"/>
<path d="M42.1703 35.543H39.8281V37.8851H42.1703V35.543Z" fill="#32348D"/>
<path d="M42.1703 33.2017H39.8281V35.5438H42.1703V33.2017Z" fill="#3F44A5"/>
<path d="M42.1703 30.8584H39.8281V33.2006H42.1703V30.8584Z" fill="#3F44A5"/>
<path d="M42.1703 28.5156H39.8281V30.8578H42.1703V28.5156Z" fill="#3F44A5"/>
<path d="M42.1703 26.1738H39.8281V28.516H42.1703V26.1738Z" fill="#3F44A5"/>
<path d="M42.1703 23.832H39.8281V26.1742H42.1703V23.832Z" fill="#3F44A5"/>
<path d="M42.1703 21.4849H39.8281V23.8316H42.1703V21.4849Z" fill="#3F44A5"/>
<path d="M42.1703 19.1431H39.8281V21.4852H42.1703V19.1431Z" fill="#3F44A5"/>
<path d="M42.1703 16.8003H39.8281V19.1425H42.1703V16.8003Z" fill="#3F44A5"/>
<path d="M42.1703 14.457H39.8281V16.7992H42.1703V14.457Z" fill="#3F44A5"/>
<path d="M42.1703 12.1152H39.8281V14.4574H42.1703V12.1152Z" fill="#3F44A5"/>
<path d="M42.1703 9.77368H39.8281V12.1159H42.1703V9.77368Z" fill="#3F44A5"/>
<path d="M42.1703 7.43213H39.8281V9.77429H42.1703V7.43213Z" fill="#EDEFEF"/>
<path d="M42.1703 5.08911H39.8281V7.43127H42.1703V5.08911Z" fill="#29632D"/>
<path d="M42.1703 2.74609H39.8281V5.08826H42.1703V2.74609Z" fill="#57995E"/>
<path d="M39.8266 47.2542H37.4844V49.5963H39.8266V47.2542Z" fill="#52A0B2"/>
<path d="M39.8266 44.9126H37.4844V47.2548H39.8266V44.9126Z" fill="#174217"/>
<path d="M39.8266 42.571H37.4844V44.9132H39.8266V42.571Z" fill="#29632D"/>
<path d="M39.8266 40.2278H37.4844V42.5699H39.8266V40.2278Z" fill="#242872"/>
<path d="M39.8266 37.8862H37.4844V40.2284H39.8266V37.8862Z" fill="#32348D"/>
<path d="M39.8266 35.5432H37.4844V37.8854H39.8266V35.5432Z" fill="#32348D"/>
<path d="M39.8266 33.2014H37.4844V35.5436H39.8266V33.2014Z" fill="#3F44A5"/>
<path d="M39.8266 30.8584H37.4844V33.2006H39.8266V30.8584Z" fill="#3F44A5"/>
<path d="M39.8266 28.5154H37.4844V30.8576H39.8266V28.5154Z" fill="#3F44A5"/>
<path d="M39.8266 26.1738H37.4844V28.516H39.8266V26.1738Z" fill="#3F44A5"/>
<path d="M39.8266 23.832H37.4844V26.1742H39.8266V23.832Z" fill="#3F44A5"/>
<path d="M39.8266 21.4849H37.4844V23.8316H39.8266V21.4849Z" fill="#3F44A5"/>
<path d="M39.8266 19.1431H37.4844V21.4852H39.8266V19.1431Z" fill="#3F44A5"/>
<path d="M39.8266 16.8H37.4844V19.1422H39.8266V16.8Z" fill="#3F44A5"/>
<path d="M39.8266 14.457H37.4844V16.7992H39.8266V14.457Z" fill="#3F44A5"/>
<path d="M39.8266 12.1155H37.4844V14.4576H39.8266V12.1155Z" fill="#3F44A5"/>
<path d="M39.8266 9.77368H37.4844V12.1159H39.8266V9.77368Z" fill="#3F44A5"/>
<path d="M39.8266 7.43213H37.4844V9.77429H39.8266V7.43213Z" fill="#EDEFEF"/>
<path d="M39.8266 5.08911H37.4844V7.43127H39.8266V5.08911Z" fill="#29632D"/>
<path d="M39.8266 2.74585H37.4844V5.08801H39.8266V2.74585Z" fill="#57995E"/>
<path d="M37.4847 47.2542H35.1426V49.5963H37.4847V47.2542Z" fill="#52A0B2"/>
<path d="M37.4847 44.9126H35.1426V47.2548H37.4847V44.9126Z" fill="#174217"/>
<path d="M37.4847 42.571H35.1426V44.9132H37.4847V42.571Z" fill="#29632D"/>
<path d="M37.4847 40.2278H35.1426V42.5699H37.4847V40.2278Z" fill="#242872"/>
<path d="M37.4847 37.8848H35.1426V40.2269H37.4847V37.8848Z" fill="#32348D"/>
<path d="M37.4847 35.5432H35.1426V37.8854H37.4847V35.5432Z" fill="#32348D"/>
<path d="M37.4847 33.2014H35.1426V35.5436H37.4847V33.2014Z" fill="#3F44A5"/>
<path d="M37.4847 30.8584H35.1426V33.2006H37.4847V30.8584Z" fill="#3F44A5"/>
<path d="M37.4847 28.5154H35.1426V30.8576H37.4847V28.5154Z" fill="#3F44A5"/>
<path d="M37.4847 26.1738H35.1426V28.516H37.4847V26.1738Z" fill="#3F44A5"/>
<path d="M37.4847 23.832H35.1426V26.1742H37.4847V23.832Z" fill="#3F44A5"/>
<path d="M37.4847 21.4849H35.1426V23.8316H37.4847V21.4849Z" fill="#3F44A5"/>
<path d="M37.4847 19.1431H35.1426V21.4852H37.4847V19.1431Z" fill="#3F44A5"/>
<path d="M37.4847 16.8H35.1426V19.1422H37.4847V16.8Z" fill="#3F44A5"/>
<path d="M37.4847 14.457H35.1426V16.7992H37.4847V14.457Z" fill="#3F44A5"/>
<path d="M37.4847 12.1155H35.1426V14.4576H37.4847V12.1155Z" fill="#3F44A5"/>
<path d="M37.4847 9.77368H35.1426V12.1159H37.4847V9.77368Z" fill="#3F44A5"/>
<path d="M37.4847 7.43213H35.1426V9.77429H37.4847V7.43213Z" fill="#EDEFEF"/>
<path d="M37.4847 5.08911H35.1426V7.43127H37.4847V5.08911Z" fill="#29632D"/>
<path d="M37.4847 2.74585H35.1426V5.08801H37.4847V2.74585Z" fill="#57995E"/>
<path d="M35.1429 47.2544H32.8008V49.5966H35.1429V47.2544Z" fill="#52A0B2"/>
<path d="M35.1429 44.9126H32.8008V47.2548H35.1429V44.9126Z" fill="#174217"/>
<path d="M35.1429 42.5708H32.8008V44.913H35.1429V42.5708Z" fill="#29632D"/>
<path d="M35.1429 40.228H32.8008V42.5702H35.1429V40.228Z" fill="#242872"/>
<path d="M35.1429 37.8862H32.8008V40.2284H35.1429V37.8862Z" fill="#32348D"/>
<path d="M35.1429 35.543H32.8008V37.8851H35.1429V35.543Z" fill="#32348D"/>
<path d="M35.1429 33.2017H32.8008V35.5438H35.1429V33.2017Z" fill="#3F44A5"/>
<path d="M35.1429 30.8584H32.8008V33.2006H35.1429V30.8584Z" fill="#3F44A5"/>
<path d="M35.1429 28.5156H32.8008V30.8578H35.1429V28.5156Z" fill="#3F44A5"/>
<path d="M35.1429 26.1738H32.8008V28.516H35.1429V26.1738Z" fill="#3F44A5"/>
<path d="M35.1429 23.832H32.8008V26.1742H35.1429V23.832Z" fill="#3F44A5"/>
<path d="M35.1429 21.4849H32.8008V23.8316H35.1429V21.4849Z" fill="#3F44A5"/>
<path d="M35.1429 19.1431H32.8008V21.4852H35.1429V19.1431Z" fill="#3F44A5"/>
<path d="M35.1429 16.8003H32.8008V19.1425H35.1429V16.8003Z" fill="#3F44A5"/>
<path d="M35.1429 14.457H32.8008V16.7992H35.1429V14.457Z" fill="#3F44A5"/>
<path d="M35.1429 12.1152H32.8008V14.4574H35.1429V12.1152Z" fill="#3F44A5"/>
<path d="M35.1429 9.77393H32.8008V12.1161H35.1429V9.77393Z" fill="#3F44A5"/>
<path d="M35.1429 7.43213H32.8008V9.77429H35.1429V7.43213Z" fill="#EDEFEF"/>
<path d="M35.1429 5.08887H32.8008V7.43103H35.1429V5.08887Z" fill="#29632D"/>
<path d="M35.1429 2.74609H32.8008V5.08826H35.1429V2.74609Z" fill="#57995E"/>
<path d="M35.1429 0.404297H32.8008V2.74647H35.1429V0.404297Z" fill="#B26100"/>
<path d="M32.8011 47.2542H30.459V49.5963H32.8011V47.2542Z" fill="#52A0B2"/>
<path d="M32.8011 44.9126H30.459V47.2548H32.8011V44.9126Z" fill="#174217"/>
<path d="M32.8011 42.571H30.459V44.9132H32.8011V42.571Z" fill="#29632D"/>
<path d="M32.8011 40.2278H30.459V42.5699H32.8011V40.2278Z" fill="#242872"/>
<path d="M32.8011 37.8862H30.459V40.2284H32.8011V37.8862Z" fill="#32348D"/>
<path d="M32.8011 35.5432H30.459V37.8854H32.8011V35.5432Z" fill="#32348D"/>
<path d="M32.8011 33.2014H30.459V35.5436H32.8011V33.2014Z" fill="#3F44A5"/>
<path d="M32.8011 30.8584H30.459V33.2006H32.8011V30.8584Z" fill="#3F44A5"/>
<path d="M32.8011 28.5154H30.459V30.8576H32.8011V28.5154Z" fill="#3F44A5"/>
<path d="M32.8011 26.1738H30.459V28.516H32.8011V26.1738Z" fill="#3F44A5"/>
<path d="M32.8011 23.832H30.459V26.1742H32.8011V23.832Z" fill="#3F44A5"/>
<path d="M32.8011 21.4849H30.459V23.8316H32.8011V21.4849Z" fill="#3F44A5"/>
<path d="M32.8011 19.1431H30.459V21.4852H32.8011V19.1431Z" fill="#3F44A5"/>
<path d="M32.8011 16.8H30.459V19.1422H32.8011V16.8Z" fill="#3F44A5"/>
<path d="M32.8011 14.457H30.459V16.7992H32.8011V14.457Z" fill="#3F44A5"/>
<path d="M32.8011 12.1155H30.459V14.4576H32.8011V12.1155Z" fill="#3F44A5"/>
<path d="M32.8011 9.77368H30.459V12.1159H32.8011V9.77368Z" fill="#3F44A5"/>
<path d="M32.8011 7.43213H30.459V9.77429H32.8011V7.43213Z" fill="#EDEFEF"/>
<path d="M32.8011 5.08911H30.459V7.43127H32.8011V5.08911Z" fill="#29632D"/>
<path d="M32.8011 2.74585H30.459V5.08801H32.8011V2.74585Z" fill="#57995E"/>
<path d="M32.8011 0.404297H30.459V2.74647H32.8011V0.404297Z" fill="#FF9700"/>
<path d="M30.4574 47.2544H28.1152V49.5966H30.4574V47.2544Z" fill="#52A0B2"/>
<path d="M30.4574 44.9126H28.1152V47.2548H30.4574V44.9126Z" fill="#174217"/>
<path d="M30.4574 42.5708H28.1152V44.913H30.4574V42.5708Z" fill="#29632D"/>
<path d="M30.4574 40.228H28.1152V42.5702H30.4574V40.228Z" fill="#242872"/>
<path d="M30.4574 37.8848H28.1152V40.2269H30.4574V37.8848Z" fill="#32348D"/>
<path d="M30.4574 35.543H28.1152V37.8851H30.4574V35.543Z" fill="#32348D"/>
<path d="M30.4574 33.2017H28.1152V35.5438H30.4574V33.2017Z" fill="#3F44A5"/>
<path d="M30.4574 30.8584H28.1152V33.2006H30.4574V30.8584Z" fill="#3F44A5"/>
<path d="M30.4574 28.5156H28.1152V30.8578H30.4574V28.5156Z" fill="#32348D"/>
<path d="M30.4574 26.1738H28.1152V28.516H30.4574V26.1738Z" fill="#7C4100"/>
<path d="M30.4574 23.832H28.1152V26.1742H30.4574V23.832Z" fill="#3F44A5"/>
<path d="M30.4574 21.4849H28.1152V23.8316H30.4574V21.4849Z" fill="#B26100"/>
<path d="M30.4574 19.1431H28.1152V21.4852H30.4574V19.1431Z" fill="#3F44A5"/>
<path d="M30.4574 16.8003H28.1152V19.1425H30.4574V16.8003Z" fill="#3F44A5"/>
<path d="M30.4574 14.457H28.1152V16.7992H30.4574V14.457Z" fill="#3F44A5"/>
<path d="M30.4574 12.1152H28.1152V14.4574H30.4574V12.1152Z" fill="#3F44A5"/>
<path d="M30.4574 9.77393H28.1152V12.1161H30.4574V9.77393Z" fill="#3F44A5"/>
<path d="M30.4574 7.43213H28.1152V9.77429H30.4574V7.43213Z" fill="#3F44A5"/>
<path d="M30.4574 5.08887H28.1152V7.43103H30.4574V5.08887Z" fill="#29632D"/>
<path d="M30.4574 2.74609H28.1152V5.08826H30.4574V2.74609Z" fill="#57995E"/>
<path d="M30.4574 0.404297H28.1152V2.74647H30.4574V0.404297Z" fill="#B26100"/>
<path d="M28.1156 47.2544H25.7734V49.5966H28.1156V47.2544Z" fill="#52A0B2"/>
<path d="M28.1156 44.9126H25.7734V47.2548H28.1156V44.9126Z" fill="#174217"/>
<path d="M28.1156 42.5708H25.7734V44.913H28.1156V42.5708Z" fill="#29632D"/>
<path d="M28.1156 40.228H25.7734V42.5702H28.1156V40.228Z" fill="#242872"/>
<path d="M28.1156 37.8848H25.7734V40.2269H28.1156V37.8848Z" fill="#FF9700"/>
<path d="M28.1156 35.543H25.7734V37.8851H28.1156V35.543Z" fill="#32348D"/>
<path d="M28.1156 33.2017H25.7734V35.5438H28.1156V33.2017Z" fill="#3F44A5"/>
<path d="M28.1156 30.8584H25.7734V33.2006H28.1156V30.8584Z" fill="#3F44A5"/>
<path d="M28.1156 28.5156H25.7734V30.8578H28.1156V28.5156Z" fill="#32348D"/>
<path d="M28.1156 26.1738H25.7734V28.516H28.1156V26.1738Z" fill="#7C4100"/>
<path d="M28.1156 23.832H25.7734V26.1742H28.1156V23.832Z" fill="#3F44A5"/>
<path d="M28.1156 21.4849H25.7734V23.8316H28.1156V21.4849Z" fill="#3F44A5"/>
<path d="M28.1156 19.1431H25.7734V21.4852H28.1156V19.1431Z" fill="#3F44A5"/>
<path d="M28.1156 16.8003H25.7734V19.1425H28.1156V16.8003Z" fill="#3F44A5"/>
<path d="M28.1156 14.457H25.7734V16.7992H28.1156V14.457Z" fill="#3F44A5"/>
<path d="M28.1156 12.1152H25.7734V14.4574H28.1156V12.1152Z" fill="#32348D"/>
<path d="M28.1156 9.77393H25.7734V12.1161H28.1156V9.77393Z" fill="#FF9700"/>
<path d="M28.1156 7.43213H25.7734V9.77429H28.1156V7.43213Z" fill="#3F44A5"/>
<path d="M28.1156 5.08887H25.7734V7.43103H28.1156V5.08887Z" fill="#29632D"/>
<path d="M28.1156 2.74609H25.7734V5.08826H28.1156V2.74609Z" fill="#57995E"/>
<path d="M28.1156 0.404297H25.7734V2.74647H28.1156V0.404297Z" fill="#FF9700"/>
<path d="M25.7738 47.2542H23.4316V49.5963H25.7738V47.2542Z" fill="#52A0B2"/>
<path d="M25.7738 44.9126H23.4316V47.2548H25.7738V44.9126Z" fill="#174217"/>
<path d="M25.7738 42.571H23.4316V44.9132H25.7738V42.571Z" fill="#29632D"/>
<path d="M25.7738 40.2278H23.4316V42.5699H25.7738V40.2278Z" fill="#242872"/>
<path d="M25.7738 37.8862H23.4316V40.2284H25.7738V37.8862Z" fill="#32348D"/>
<path d="M25.7738 35.5432H23.4316V37.8854H25.7738V35.5432Z" fill="#32348D"/>
<path d="M25.7738 33.2014H23.4316V35.5436H25.7738V33.2014Z" fill="#3F44A5"/>
<path d="M25.7738 30.8584H23.4316V33.2006H25.7738V30.8584Z" fill="#3F44A5"/>
<path d="M25.7738 28.5154H23.4316V30.8576H25.7738V28.5154Z" fill="#32348D"/>
<path d="M25.7738 26.1738H23.4316V28.516H25.7738V26.1738Z" fill="#7C4100"/>
<path d="M25.7738 23.832H23.4316V26.1742H25.7738V23.832Z" fill="#3F44A5"/>
<path d="M25.7738 21.4849H23.4316V23.8316H25.7738V21.4849Z" fill="#7C4100"/>
<path d="M25.7738 19.1431H23.4316V21.4852H25.7738V19.1431Z" fill="#3F44A5"/>
<path d="M25.7738 16.8H23.4316V19.1422H25.7738V16.8Z" fill="#3F44A5"/>
<path d="M25.7738 14.457H23.4316V16.7992H25.7738V14.457Z" fill="#3F44A5"/>
<path d="M25.7738 12.1155H23.4316V14.4576H25.7738V12.1155Z" fill="#3F44A5"/>
<path d="M25.7738 9.77368H23.4316V12.1159H25.7738V9.77368Z" fill="#3F44A5"/>
<path d="M25.7738 7.43213H23.4316V9.77429H25.7738V7.43213Z" fill="#3F44A5"/>
<path d="M25.7738 5.08911H23.4316V7.43127H25.7738V5.08911Z" fill="#29632D"/>
<path d="M25.7738 2.74585H23.4316V5.08801H25.7738V2.74585Z" fill="#29632D"/>
<path d="M25.7738 0.404297H23.4316V2.74647H25.7738V0.404297Z" fill="#7C4100"/>
<path d="M23.4307 47.2544H21.084V49.5966H23.4307V47.2544Z" fill="#52A0B2"/>
<path d="M23.4307 44.9126H21.084V47.2548H23.4307V44.9126Z" fill="#174217"/>
<path d="M23.4307 42.5708H21.084V44.913H23.4307V42.5708Z" fill="#29632D"/>
<path d="M23.4307 40.228H21.084V42.5702H23.4307V40.228Z" fill="#242872"/>
<path d="M23.4307 37.8862H21.084V40.2284H23.4307V37.8862Z" fill="#32348D"/>
<path d="M23.4307 35.543H21.084V37.8851H23.4307V35.543Z" fill="#32348D"/>
<path d="M23.4307 33.2017H21.084V35.5438H23.4307V33.2017Z" fill="#3F44A5"/>
<path d="M23.4307 30.8584H21.084V33.2006H23.4307V30.8584Z" fill="#3F44A5"/>
<path d="M23.4307 28.5156H21.084V30.8578H23.4307V28.5156Z" fill="#3F44A5"/>
<path d="M23.4307 26.1738H21.084V28.516H23.4307V26.1738Z" fill="#32348D"/>
<path d="M23.4307 23.832H21.084V26.1742H23.4307V23.832Z" fill="#32348D"/>
<path d="M23.4307 21.4849H21.084V23.8316H23.4307V21.4849Z" fill="#32348D"/>
<path d="M23.4307 19.1431H21.084V21.4852H23.4307V19.1431Z" fill="#3F44A5"/>
<path d="M23.4307 16.8003H21.084V19.1425H23.4307V16.8003Z" fill="#3F44A5"/>
<path d="M23.4307 14.457H21.084V16.7992H23.4307V14.457Z" fill="#3F44A5"/>
<path d="M23.4307 12.1152H21.084V14.4574H23.4307V12.1152Z" fill="#3F44A5"/>
<path d="M23.4307 9.77393H21.084V12.1161H23.4307V9.77393Z" fill="#3F44A5"/>
<path d="M23.4307 7.43213H21.084V9.77429H23.4307V7.43213Z" fill="#3F44A5"/>
<path d="M23.4307 5.08887H21.084V7.43103H23.4307V5.08887Z" fill="#29632D"/>
<path d="M23.4307 2.74609H21.084V5.08826H23.4307V2.74609Z" fill="#29632D"/>
<path d="M23.4307 0.404297H21.084V2.74647H23.4307V0.404297Z" fill="#B26100"/>
<path d="M21.0844 47.2542H18.7422V49.5963H21.0844V47.2542Z" fill="#52A0B2"/>
<path d="M21.0844 44.9126H18.7422V47.2548H21.0844V44.9126Z" fill="#174217"/>
<path d="M21.0844 42.571H18.7422V44.9132H21.0844V42.571Z" fill="#29632D"/>
<path d="M21.0844 40.2278H18.7422V42.5699H21.0844V40.2278Z" fill="#242872"/>
<path d="M21.0844 37.8848H18.7422V40.2269H21.0844V37.8848Z" fill="#32348D"/>
<path d="M21.0844 35.5432H18.7422V37.8854H21.0844V35.5432Z" fill="#32348D"/>
<path d="M21.0844 33.2014H18.7422V35.5436H21.0844V33.2014Z" fill="#3F44A5"/>
<path d="M21.0844 30.8584H18.7422V33.2006H21.0844V30.8584Z" fill="#3F44A5"/>
<path d="M21.0844 28.5154H18.7422V30.8576H21.0844V28.5154Z" fill="#3F44A5"/>
<path d="M21.0844 26.1738H18.7422V28.516H21.0844V26.1738Z" fill="#3F44A5"/>
<path d="M21.0844 23.832H18.7422V26.1742H21.0844V23.832Z" fill="#3F44A5"/>
<path d="M21.0844 21.4849H18.7422V23.8316H21.0844V21.4849Z" fill="#3F44A5"/>
<path d="M21.0844 19.1431H18.7422V21.4852H21.0844V19.1431Z" fill="#3F44A5"/>
<path d="M21.0844 16.8H18.7422V19.1422H21.0844V16.8Z" fill="#3F44A5"/>
<path d="M21.0844 14.457H18.7422V16.7992H21.0844V14.457Z" fill="#3F44A5"/>
<path d="M21.0844 12.1155H18.7422V14.4576H21.0844V12.1155Z" fill="#3F44A5"/>
<path d="M21.0844 9.77368H18.7422V12.1159H21.0844V9.77368Z" fill="#3F44A5"/>
<path d="M21.0844 7.43213H18.7422V9.77429H21.0844V7.43213Z" fill="#3F44A5"/>
<path d="M21.0844 5.08911H18.7422V7.43127H21.0844V5.08911Z" fill="#29632D"/>
<path d="M21.0844 2.74585H18.7422V5.08801H21.0844V2.74585Z" fill="#29632D"/>
<path d="M21.0844 0.404297H18.7422V2.74647H21.0844V0.404297Z" fill="#7C4100"/>
<path d="M18.7426 47.2542H16.4004V49.5963H18.7426V47.2542Z" fill="#52A0B2"/>
<path d="M18.7426 44.9126H16.4004V47.2548H18.7426V44.9126Z" fill="#174217"/>
<path d="M18.7426 42.571H16.4004V44.9132H18.7426V42.571Z" fill="#29632D"/>
<path d="M18.7426 40.2278H16.4004V42.5699H18.7426V40.2278Z" fill="#242872"/>
<path d="M18.7426 37.8848H16.4004V40.2269H18.7426V37.8848Z" fill="#32348D"/>
<path d="M18.7426 35.5432H16.4004V37.8854H18.7426V35.5432Z" fill="#32348D"/>
<path d="M18.7426 33.2014H16.4004V35.5436H18.7426V33.2014Z" fill="#3F44A5"/>
<path d="M18.7426 30.8584H16.4004V33.2006H18.7426V30.8584Z" fill="#3F44A5"/>
<path d="M18.7426 28.5154H16.4004V30.8576H18.7426V28.5154Z" fill="#3F44A5"/>
<path d="M18.7426 26.1738H16.4004V28.516H18.7426V26.1738Z" fill="#3F44A5"/>
<path d="M18.7426 23.832H16.4004V26.1742H18.7426V23.832Z" fill="#3F44A5"/>
<path d="M18.7426 21.4849H16.4004V23.8316H18.7426V21.4849Z" fill="#3F44A5"/>
<path d="M18.7426 19.1431H16.4004V21.4852H18.7426V19.1431Z" fill="#3F44A5"/>
<path d="M18.7426 16.8H16.4004V19.1422H18.7426V16.8Z" fill="#3F44A5"/>
<path d="M18.7426 14.457H16.4004V16.7992H18.7426V14.457Z" fill="#3F44A5"/>
<path d="M18.7426 12.1155H16.4004V14.4576H18.7426V12.1155Z" fill="#3F44A5"/>
<path d="M18.7426 9.77368H16.4004V12.1159H18.7426V9.77368Z" fill="#3F44A5"/>
<path d="M18.7426 7.43213H16.4004V9.77429H18.7426V7.43213Z" fill="#3F44A5"/>
<path d="M18.7426 5.08911H16.4004V7.43127H18.7426V5.08911Z" fill="#29632D"/>
<path d="M18.7426 2.74585H16.4004V5.08801H18.7426V2.74585Z" fill="#29632D"/>
<path d="M16.4008 47.2544H14.0586V49.5966H16.4008V47.2544Z" fill="#52A0B2"/>
<path d="M16.4008 44.9126H14.0586V47.2548H16.4008V44.9126Z" fill="#174217"/>
<path d="M16.4008 42.5708H14.0586V44.913H16.4008V42.5708Z" fill="#29632D"/>
<path d="M16.4008 40.228H14.0586V42.5702H16.4008V40.228Z" fill="#242872"/>
<path d="M16.4008 37.8862H14.0586V40.2284H16.4008V37.8862Z" fill="#32348D"/>
<path d="M16.4008 35.543H14.0586V37.8851H16.4008V35.543Z" fill="#32348D"/>
<path d="M16.4008 33.2017H14.0586V35.5438H16.4008V33.2017Z" fill="#32348D"/>
<path d="M16.4008 30.8584H14.0586V33.2006H16.4008V30.8584Z" fill="#3F44A5"/>
<path d="M16.4008 28.5156H14.0586V30.8578H16.4008V28.5156Z" fill="#3F44A5"/>
<path d="M16.4008 26.1738H14.0586V28.516H16.4008V26.1738Z" fill="#3F44A5"/>
<path d="M16.4008 23.832H14.0586V26.1742H16.4008V23.832Z" fill="#3F44A5"/>
<path d="M16.4008 21.4849H14.0586V23.8316H16.4008V21.4849Z" fill="#3F44A5"/>
<path d="M16.4008 19.1431H14.0586V21.4852H16.4008V19.1431Z" fill="#3F44A5"/>
<path d="M16.4008 16.8003H14.0586V19.1425H16.4008V16.8003Z" fill="#3F44A5"/>
<path d="M16.4008 14.457H14.0586V16.7992H16.4008V14.457Z" fill="#3F44A5"/>
<path d="M16.4008 12.1152H14.0586V14.4574H16.4008V12.1152Z" fill="#3F44A5"/>
<path d="M16.4008 9.77393H14.0586V12.1161H16.4008V9.77393Z" fill="#3F44A5"/>
<path d="M16.4008 7.43213H14.0586V9.77429H16.4008V7.43213Z" fill="#3F44A5"/>
<path d="M16.4008 5.08887H14.0586V7.43103H16.4008V5.08887Z" fill="#29632D"/>
<path d="M16.4008 2.74609H14.0586V5.08826H16.4008V2.74609Z" fill="#29632D"/>
<path d="M14.057 47.2542H11.7148V49.5963H14.057V47.2542Z" fill="#52A0B2"/>
<path d="M14.057 44.9126H11.7148V47.2548H14.057V44.9126Z" fill="#174217"/>
<path d="M14.057 42.571H11.7148V44.9132H14.057V42.571Z" fill="#29632D"/>
<path d="M14.057 40.2278H11.7148V42.5699H14.057V40.2278Z" fill="#242872"/>
<path d="M14.057 37.8848H11.7148V40.2269H14.057V37.8848Z" fill="#32348D"/>
<path d="M14.057 35.5432H11.7148V37.8854H14.057V35.5432Z" fill="#32348D"/>
<path d="M14.057 33.2014H11.7148V35.5436H14.057V33.2014Z" fill="#32348D"/>
<path d="M14.057 30.8584H11.7148V33.2006H14.057V30.8584Z" fill="#32348D"/>
<path d="M14.057 28.5154H11.7148V30.8576H14.057V28.5154Z" fill="#32348D"/>
<path d="M14.057 26.1738H11.7148V28.516H14.057V26.1738Z" fill="#32348D"/>
<path d="M14.057 23.832H11.7148V26.1742H14.057V23.832Z" fill="#32348D"/>
<path d="M14.057 21.4849H11.7148V23.8316H14.057V21.4849Z" fill="#32348D"/>
<path d="M14.057 19.1431H11.7148V21.4852H14.057V19.1431Z" fill="#32348D"/>
<path d="M14.057 16.8H11.7148V19.1422H14.057V16.8Z" fill="#32348D"/>
<path d="M14.057 14.457H11.7148V16.7992H14.057V14.457Z" fill="#32348D"/>
<path d="M14.057 12.1155H11.7148V14.4576H14.057V12.1155Z" fill="#32348D"/>
<path d="M14.057 9.77368H11.7148V12.1159H14.057V9.77368Z" fill="#32348D"/>
<path d="M14.057 7.43213H11.7148V9.77429H14.057V7.43213Z" fill="#32348D"/>
<path d="M14.057 5.08911H11.7148V7.43127H14.057V5.08911Z" fill="#29632D"/>
<path d="M14.057 2.74585H11.7148V5.08801H14.057V2.74585Z" fill="#29632D"/>
<path d="M11.7152 47.2544H9.37305V49.5966H11.7152V47.2544Z" fill="#52A0B2"/>
<path d="M11.7152 44.9126H9.37305V47.2548H11.7152V44.9126Z" fill="#174217"/>
<path d="M11.7152 42.5708H9.37305V44.913H11.7152V42.5708Z" fill="#29632D"/>
<path d="M11.7152 40.228H9.37305V42.5702H11.7152V40.228Z" fill="#242872"/>
<path d="M11.7152 37.8848H9.37305V40.2269H11.7152V37.8848Z" fill="#32348D"/>
<path d="M11.7152 35.543H9.37305V37.8851H11.7152V35.543Z" fill="#32348D"/>
<path d="M11.7152 33.2017H9.37305V35.5438H11.7152V33.2017Z" fill="#32348D"/>
<path d="M11.7152 30.8584H9.37305V33.2006H11.7152V30.8584Z" fill="#32348D"/>
<path d="M11.7152 28.5156H9.37305V30.8578H11.7152V28.5156Z" fill="#32348D"/>
<path d="M11.7152 26.1738H9.37305V28.516H11.7152V26.1738Z" fill="#242872"/>
<path d="M11.7152 23.832H9.37305V26.1742H11.7152V23.832Z" fill="#FF9700"/>
<path d="M11.7152 21.4849H9.37305V23.8316H11.7152V21.4849Z" fill="#32348D"/>
<path d="M11.7152 19.1431H9.37305V21.4852H11.7152V19.1431Z" fill="#32348D"/>
<path d="M11.7152 16.8003H9.37305V19.1425H11.7152V16.8003Z" fill="#32348D"/>
<path d="M11.7152 14.457H9.37305V16.7992H11.7152V14.457Z" fill="#32348D"/>
<path d="M11.7152 12.1152H9.37305V14.4574H11.7152V12.1152Z" fill="#32348D"/>
<path d="M11.7152 9.77393H9.37305V12.1161H11.7152V9.77393Z" fill="#32348D"/>
<path d="M11.7152 7.43213H9.37305V9.77429H11.7152V7.43213Z" fill="#242872"/>
<path d="M11.7152 5.08887H9.37305V7.43103H11.7152V5.08887Z" fill="#29632D"/>
<path d="M11.7152 2.74609H9.37305V5.08826H11.7152V2.74609Z" fill="#29632D"/>
<path d="M9.37341 47.2544H7.03125V49.5966H9.37341V47.2544Z" fill="#52A0B2"/>
<path d="M9.37341 44.9126H7.03125V47.2548H9.37341V44.9126Z" fill="#174217"/>
<path d="M9.37341 42.5708H7.03125V44.913H9.37341V42.5708Z" fill="#29632D"/>
<path d="M9.37341 40.228H7.03125V42.5702H9.37341V40.228Z" fill="#29632D"/>
<path d="M9.37341 37.8862H7.03125V40.2284H9.37341V37.8862Z" fill="#242872"/>
<path d="M9.37341 35.543H7.03125V37.8851H9.37341V35.543Z" fill="#242872"/>
<path d="M9.37341 33.2017H7.03125V35.5438H9.37341V33.2017Z" fill="#242872"/>
<path d="M9.37341 30.8584H7.03125V33.2006H9.37341V30.8584Z" fill="#242872"/>
<path d="M9.37341 28.5156H7.03125V30.8578H9.37341V28.5156Z" fill="#242872"/>
<path d="M9.37341 26.1738H7.03125V28.516H9.37341V26.1738Z" fill="#242872"/>
<path d="M9.37341 23.832H7.03125V26.1742H9.37341V23.832Z" fill="#242872"/>
<path d="M9.37341 21.4849H7.03125V23.8316H9.37341V21.4849Z" fill="#242872"/>
<path d="M9.37341 19.1431H7.03125V21.4852H9.37341V19.1431Z" fill="#242872"/>
<path d="M9.37341 16.8003H7.03125V19.1425H9.37341V16.8003Z" fill="#242872"/>
<path d="M9.37341 14.457H7.03125V16.7992H9.37341V14.457Z" fill="#242872"/>
<path d="M9.37341 12.1152H7.03125V14.4574H9.37341V12.1152Z" fill="#242872"/>
<path d="M9.37341 9.77393H7.03125V12.1161H9.37341V9.77393Z" fill="#242872"/>
<path d="M9.37341 7.43213H7.03125V9.77429H9.37341V7.43213Z" fill="#29632D"/>
<path d="M9.37341 5.08887H7.03125V7.43103H9.37341V5.08887Z" fill="#29632D"/>
<path d="M9.37341 2.74609H7.03125V5.08826H9.37341V2.74609Z" fill="#29632D"/>
<path d="M7.02966 44.9126H4.6875V47.2548H7.02966V44.9126Z" fill="#52A0B2"/>
<path d="M7.02966 42.5708H4.6875V44.913H7.02966V42.5708Z" fill="#174217"/>
<path d="M7.02966 40.228H4.6875V42.5702H7.02966V40.228Z" fill="#29632D"/>
<path d="M7.02966 37.8848H4.6875V40.2269H7.02966V37.8848Z" fill="#29632D"/>
<path d="M7.02966 35.543H4.6875V37.8851H7.02966V35.543Z" fill="#29632D"/>
<path d="M7.02966 33.2017H4.6875V35.5438H7.02966V33.2017Z" fill="#29632D"/>
<path d="M7.02966 30.8584H4.6875V33.2006H7.02966V30.8584Z" fill="#29632D"/>
<path d="M7.02966 28.5156H4.6875V30.8578H7.02966V28.5156Z" fill="#29632D"/>
<path d="M7.02966 26.1738H4.6875V28.516H7.02966V26.1738Z" fill="#29632D"/>
<path d="M7.02966 23.832H4.6875V26.1742H7.02966V23.832Z" fill="#29632D"/>
<path d="M7.02966 21.4849H4.6875V23.8316H7.02966V21.4849Z" fill="#29632D"/>
<path d="M7.02966 19.1431H4.6875V21.4852H7.02966V19.1431Z" fill="#29632D"/>
<path d="M7.02966 16.8003H4.6875V19.1425H7.02966V16.8003Z" fill="#29632D"/>
<path d="M7.02966 14.457H4.6875V16.7992H7.02966V14.457Z" fill="#29632D"/>
<path d="M7.02966 12.1152H4.6875V14.4574H7.02966V12.1152Z" fill="#29632D"/>
<path d="M7.02966 9.77393H4.6875V12.1161H7.02966V9.77393Z" fill="#29632D"/>
<path d="M7.02966 7.43213H4.6875V9.77429H7.02966V7.43213Z" fill="#29632D"/>
<path d="M7.02966 5.08887H4.6875V7.43103H7.02966V5.08887Z" fill="#174217"/>
<path d="M7.02966 2.74609H4.6875V5.08826H7.02966V2.74609Z" fill="#52A0B2"/>
<path d="M4.68983 42.5708H2.34766V44.913H4.68983V42.5708Z" fill="#52A0B2"/>
<path d="M4.68983 40.228H2.34766V42.5702H4.68983V40.228Z" fill="#174217"/>
<path d="M4.68983 37.8848H2.34766V40.2269H4.68983V37.8848Z" fill="#174217"/>
<path d="M4.68983 35.543H2.34766V37.8851H4.68983V35.543Z" fill="#174217"/>
<path d="M4.68983 33.2017H2.34766V35.5438H4.68983V33.2017Z" fill="#174217"/>
<path d="M4.68983 30.8584H2.34766V33.2006H4.68983V30.8584Z" fill="#174217"/>
<path d="M4.68983 28.5156H2.34766V30.8578H4.68983V28.5156Z" fill="#174217"/>
<path d="M4.68983 26.1738H2.34766V28.516H4.68983V26.1738Z" fill="#174217"/>
<path d="M4.68983 23.832H2.34766V26.1742H4.68983V23.832Z" fill="#174217"/>
<path d="M4.68983 21.4849H2.34766V23.8316H4.68983V21.4849Z" fill="#174217"/>
<path d="M4.68983 19.1431H2.34766V21.4852H4.68983V19.1431Z" fill="#174217"/>
<path d="M4.68983 16.8003H2.34766V19.1425H4.68983V16.8003Z" fill="#174217"/>
<path d="M4.68983 14.457H2.34766V16.7992H4.68983V14.457Z" fill="#174217"/>
<path d="M4.68983 12.1152H2.34766V14.4574H4.68983V12.1152Z" fill="#174217"/>
<path d="M4.68983 9.77393H2.34766V12.1161H4.68983V9.77393Z" fill="#174217"/>
<path d="M4.68983 7.43213H2.34766V9.77429H4.68983V7.43213Z" fill="#174217"/>
<path d="M4.68983 5.08887H2.34766V7.43103H4.68983V5.08887Z" fill="#52A0B2"/>
<path d="M2.34607 40.2278H0.00390625V42.5699H2.34607V40.2278Z" fill="#52A0B2"/>
<path d="M2.34607 37.8862H0.00390625V40.2284H2.34607V37.8862Z" fill="#52A0B2"/>
<path d="M2.34607 35.5432H0.00390625V37.8854H2.34607V35.5432Z" fill="#52A0B2"/>
<path d="M2.34607 33.2014H0.00390625V35.5436H2.34607V33.2014Z" fill="#52A0B2"/>
<path d="M2.34607 30.8584H0.00390625V33.2006H2.34607V30.8584Z" fill="#52A0B2"/>
<path d="M2.34607 28.5154H0.00390625V30.8576H2.34607V28.5154Z" fill="#52A0B2"/>
<path d="M2.34607 26.1738H0.00390625V28.516H2.34607V26.1738Z" fill="#52A0B2"/>
<path d="M2.34607 23.832H0.00390625V26.1742H2.34607V23.832Z" fill="#52A0B2"/>
<path d="M2.34607 21.4849H0.00390625V23.8316H2.34607V21.4849Z" fill="#52A0B2"/>
<path d="M2.34607 19.1431H0.00390625V21.4852H2.34607V19.1431Z" fill="#52A0B2"/>
<path d="M2.34607 16.8H0.00390625V19.1422H2.34607V16.8Z" fill="#52A0B2"/>
<path d="M2.34607 14.457H0.00390625V16.7992H2.34607V14.457Z" fill="#52A0B2"/>
<path d="M2.34607 12.1155H0.00390625V14.4576H2.34607V12.1155Z" fill="#52A0B2"/>
<path d="M2.34607 9.77368H0.00390625V12.1159H2.34607V9.77368Z" fill="#52A0B2"/>
<path d="M2.34607 7.43213H0.00390625V9.77429H2.34607V7.43213Z" fill="#52A0B2"/>
</svg>
