<svg width="51" height="58" viewBox="0 0 51 58" fill="none" xmlns="http://www.w3.org/2000/svg">
<path d="M26.6886 55.6792H25.0215V57.7164H26.6886V55.6792Z" fill="#787F84"/>
<path d="M25.0226 55.6794H23.3555V57.7167H25.0226V55.6794Z" fill="#787F84"/>
<path d="M28.3585 53.645H26.6914V55.6794H28.3585V53.645Z" fill="#787F84"/>
<path d="M26.6886 53.645H25.0215V55.6794H26.6886V53.645Z" fill="#787F84"/>
<path d="M25.0226 53.645H23.3555V55.6794H25.0226V53.645Z" fill="#787F84"/>
<path d="M23.3546 53.645H21.6875V55.6794H23.3546V53.645Z" fill="#787F84"/>
<path d="M31.6944 51.6074H30.0273V53.6447H31.6944V51.6074Z" fill="#91969A"/>
<path d="M30.0265 51.6074H28.3594V53.6447H30.0265V51.6074Z" fill="#787F84"/>
<path d="M28.3585 51.6077H26.6914V53.6449H28.3585V51.6077Z" fill="#787F84"/>
<path d="M26.6886 51.6074H25.0215V53.6447H26.6886V51.6074Z" fill="#6C6E78"/>
<path d="M25.0226 51.6077H23.3555V53.6449H25.0226V51.6077Z" fill="#6C6E78"/>
<path d="M23.3546 51.6077H21.6875V53.6449H23.3546V51.6077Z" fill="#787F84"/>
<path d="M21.6866 51.6077H20.0195V53.6449H21.6866V51.6077Z" fill="#787F84"/>
<path d="M20.0206 51.6077H18.3535V53.6449H20.0206V51.6077Z" fill="#94989D"/>
<path d="M33.3605 49.5706H31.6934V51.6078H33.3605V49.5706Z" fill="#787F84"/>
<path d="M31.6944 49.5703H30.0273V51.6076H31.6944V49.5703Z" fill="#787F84"/>
<path d="M30.0265 49.5703H28.3594V51.6076H30.0265V49.5703Z" fill="#787F84"/>
<path d="M28.3585 49.5706H26.6914V51.6078H28.3585V49.5706Z" fill="#696B76"/>
<path d="M26.6886 49.5703H25.0215V51.6076H26.6886V49.5703Z" fill="#696B76"/>
<path d="M25.0226 49.5706H23.3555V51.6078H25.0226V49.5706Z" fill="#696B76"/>
<path d="M23.3546 49.5706H21.6875V51.6078H23.3546V49.5706Z" fill="#696B76"/>
<path d="M21.6866 49.5706H20.0195V51.6078H21.6866V49.5706Z" fill="#7A8086"/>
<path d="M20.0206 49.5706H18.3535V51.6078H20.0206V49.5706Z" fill="#7D8489"/>
<path d="M18.3507 49.5706H16.6836V51.6078H18.3507V49.5706Z" fill="#7E8389"/>
<path d="M36.6964 47.5361H35.0293V49.5705H36.6964V47.5361Z" fill="#787F84"/>
<path d="M35.0304 47.5361H33.3633V49.5705H35.0304V47.5361Z" fill="#787F84"/>
<path d="M33.3605 47.5361H31.6934V49.5705H33.3605V47.5361Z" fill="#787F84"/>
<path d="M31.6944 47.5361H30.0273V49.5705H31.6944V47.5361Z" fill="#696B76"/>
<path d="M30.0265 47.5361H28.3594V49.5705H30.0265V47.5361Z" fill="#696B76"/>
<path d="M28.3585 47.5361H26.6914V49.5705H28.3585V47.5361Z" fill="#696B76"/>
<path d="M26.6886 47.5361H25.0215V49.5705H26.6886V47.5361Z" fill="#696B76"/>
<path d="M25.0226 47.5361H23.3555V49.5705H25.0226V47.5361Z" fill="#6F717C"/>
<path d="M23.3546 47.5361H21.6875V49.5705H23.3546V47.5361Z" fill="#6F717C"/>
<path d="M21.6866 47.5361H20.0195V49.5705H21.6866V47.5361Z" fill="#6F717C"/>
<path d="M20.0206 47.5361H18.3535V49.5705H20.0206V47.5361Z" fill="#6F717C"/>
<path d="M18.3507 47.5361H16.6836V49.5705H18.3507V47.5361Z" fill="#868B91"/>
<path d="M16.6827 47.5361H15.0156V49.5705H16.6827V47.5361Z" fill="#868B91"/>
<path d="M15.0167 47.5361H13.3496V49.5705H15.0167V47.5361Z" fill="#868B91"/>
<path d="M40.0343 45.5017H38.3672V47.539H40.0343V45.5017Z" fill="#999CA1"/>
<path d="M38.3663 45.502H36.6992V47.5392H38.3663V45.502Z" fill="#787F84"/>
<path d="M36.6964 45.5017H35.0293V47.539H36.6964V45.5017Z" fill="#787F84"/>
<path d="M35.0304 45.502H33.3633V47.5392H35.0304V45.502Z" fill="#777E83"/>
<path d="M33.3605 45.5017H31.6934V47.539H33.3605V45.5017Z" fill="#696B76"/>
<path d="M31.6944 45.502H30.0273V47.5392H31.6944V45.502Z" fill="#696B76"/>
<path d="M30.0265 45.502H28.3594V47.5392H30.0265V45.502Z" fill="#696B76"/>
<path d="M28.3585 45.5017H26.6914V47.539H28.3585V45.5017Z" fill="#6F717C"/>
<path d="M26.6886 45.502H25.0215V47.5392H26.6886V45.502Z" fill="#6F717C"/>
<path d="M25.0226 45.5017H23.3555V47.539H25.0226V45.5017Z" fill="#6F717C"/>
<path d="M23.3546 45.5017H21.6875V47.539H23.3546V45.5017Z" fill="#6F717C"/>
<path d="M21.6866 45.5017H20.0195V47.539H21.6866V45.5017Z" fill="#727380"/>
<path d="M20.0206 45.5017H18.3535V47.539H20.0206V45.5017Z" fill="#797986"/>
<path d="M18.3507 45.5017H16.6836V47.539H18.3507V45.5017Z" fill="#797986"/>
<path d="M16.6827 45.5017H15.0156V47.539H16.6827V45.5017Z" fill="#858991"/>
<path d="M15.0167 45.502H13.3496V47.5392H15.0167V45.502Z" fill="#868B91"/>
<path d="M13.3468 45.502H11.6797V47.5392H13.3468V45.502Z" fill="#868B91"/>
<path d="M11.6817 45.502H10.0117V47.5392H11.6817V45.502Z" fill="#A4A7AC"/>
<path d="M41.7022 43.4648H40.0352V45.5021H41.7022V43.4648Z" fill="#787F84"/>
<path d="M40.0343 43.4648H38.3672V45.5021H40.0343V43.4648Z" fill="#787F84"/>
<path d="M38.3663 43.4648H36.6992V45.5021H38.3663V43.4648Z" fill="#787F84"/>
<path d="M36.6964 43.4648H35.0293V45.5021H36.6964V43.4648Z" fill="#696B76"/>
<path d="M35.0304 43.4648H33.3633V45.5021H35.0304V43.4648Z" fill="#696B76"/>
<path d="M33.3605 43.4648H31.6934V45.5021H33.3605V43.4648Z" fill="#696B76"/>
<path d="M31.6944 43.4648H30.0273V45.5021H31.6944V43.4648Z" fill="#6F717C"/>
<path d="M30.0265 43.4648H28.3594V45.5021H30.0265V43.4648Z" fill="#6F717C"/>
<path d="M28.3585 43.4648H26.6914V45.5021H28.3585V43.4648Z" fill="#6F717C"/>
<path d="M26.6886 43.4648H25.0215V45.5021H26.6886V43.4648Z" fill="#70717C"/>
<path d="M25.0226 43.4648H23.3555V45.5021H25.0226V43.4648Z" fill="#797986"/>
<path d="M23.3546 43.4648H21.6875V45.5021H23.3546V43.4648Z" fill="#797986"/>
<path d="M21.6866 43.4648H20.0195V45.5021H21.6866V43.4648Z" fill="#797986"/>
<path d="M20.0206 43.4648H18.3535V45.5021H20.0206V43.4648Z" fill="#797986"/>
<path d="M18.3507 43.4648H16.6836V45.5021H18.3507V43.4648Z" fill="#797986"/>
<path d="M16.6827 43.4648H15.0156V45.5021H16.6827V43.4648Z" fill="#797986"/>
<path d="M15.0167 43.4648H13.3496V45.5021H15.0167V43.4648Z" fill="#797986"/>
<path d="M13.3468 43.4648H11.6797V45.5021H13.3468V43.4648Z" fill="#848990"/>
<path d="M11.6817 43.4648H10.0117V45.5021H11.6817V43.4648Z" fill="#868B91"/>
<path d="M10.0108 43.4648H8.34375V45.5021H10.0108V43.4648Z" fill="#868B91"/>
<path d="M43.3683 41.4297H41.7012V43.4641H43.3683V41.4297Z" fill="#787F84"/>
<path d="M41.7022 41.4297H40.0352V43.4641H41.7022V41.4297Z" fill="#787F84"/>
<path d="M40.0343 41.4297H38.3672V43.4641H40.0343V41.4297Z" fill="#6C6E78"/>
<path d="M38.3663 41.4297H36.6992V43.4641H38.3663V41.4297Z" fill="#696B76"/>
<path d="M36.6983 41.4297H35.0312V43.4641H36.6983V41.4297Z" fill="#696B76"/>
<path d="M35.0304 41.4297H33.3633V43.4641H35.0304V41.4297Z" fill="#6F717C"/>
<path d="M33.3605 41.4297H31.6934V43.4641H33.3605V41.4297Z" fill="#6F717C"/>
<path d="M31.6944 41.4297H30.0273V43.4641H31.6944V41.4297Z" fill="#6F717C"/>
<path d="M30.0265 41.4297H28.3594V43.4641H30.0265V41.4297Z" fill="#6F717C"/>
<path d="M28.3585 41.4297H26.6914V43.4641H28.3585V41.4297Z" fill="#7D808A"/>
<path d="M26.6886 41.4297H25.0215V43.4641H26.6886V41.4297Z" fill="#7D808A"/>
<path d="M25.0226 41.4297H23.3555V43.4641H25.0226V41.4297Z" fill="#7D808A"/>
<path d="M23.3546 41.4297H21.6875V43.4641H23.3546V41.4297Z" fill="#7D808A"/>
<path d="M21.6866 41.4297H20.0195V43.4641H21.6866V41.4297Z" fill="#797986"/>
<path d="M20.0206 41.4297H18.3535V43.4641H20.0206V41.4297Z" fill="#797986"/>
<path d="M18.3507 41.4297H16.6836V43.4641H18.3507V41.4297Z" fill="#797986"/>
<path d="M16.6827 41.4297H15.0156V43.4641H16.6827V41.4297Z" fill="#797986"/>
<path d="M15.0167 41.4297H13.3496V43.4641H15.0167V41.4297Z" fill="#797986"/>
<path d="M13.3468 41.4297H11.6797V43.4641H13.3468V41.4297Z" fill="#797986"/>
<path d="M11.6817 41.4297H10.0117V43.4641H11.6817V41.4297Z" fill="#7B7C87"/>
<path d="M10.0108 41.4297H8.34375V43.4641H10.0108V41.4297Z" fill="#868B91"/>
<path d="M8.34483 41.4297H6.67773V43.4641H8.34483V41.4297Z" fill="#868B91"/>
<path d="M45.0362 39.396H43.3691V41.4332H45.0362V39.396Z" fill="#787F84"/>
<path d="M43.3683 39.396H41.7012V41.4332H43.3683V39.396Z" fill="#787F84"/>
<path d="M41.7022 39.396H40.0352V41.4332H41.7022V39.396Z" fill="#696B76"/>
<path d="M40.0343 39.396H38.3672V41.4332H40.0343V39.396Z" fill="#696B76"/>
<path d="M38.3663 39.396H36.6992V41.4332H38.3663V39.396Z" fill="#696B76"/>
<path d="M36.6964 39.396H35.0293V41.4332H36.6964V39.396Z" fill="#6F717C"/>
<path d="M35.0304 39.396H33.3633V41.4332H35.0304V39.396Z" fill="#6F717C"/>
<path d="M33.3605 39.396H31.6934V41.4332H33.3605V39.396Z" fill="#777884"/>
<path d="M31.6944 39.396H30.0273V41.4332H31.6944V39.396Z" fill="#797986"/>
<path d="M30.0265 39.396H28.3594V41.4332H30.0265V39.396Z" fill="#797986"/>
<path d="M28.3585 39.396H26.6914V41.4332H28.3585V39.396Z" fill="#868B91"/>
<path d="M26.6886 39.396H25.0215V41.4332H26.6886V39.396Z" fill="#868B91"/>
<path d="M25.0226 39.396H23.3555V41.4332H25.0226V39.396Z" fill="#868B91"/>
<path d="M23.3546 39.396H21.6875V41.4332H23.3546V39.396Z" fill="#868B91"/>
<path d="M21.6866 39.396H20.0195V41.4332H21.6866V39.396Z" fill="#797986"/>
<path d="M20.0206 39.396H18.3535V41.4332H20.0206V39.396Z" fill="#797986"/>
<path d="M18.3507 39.396H16.6836V41.4332H18.3507V39.396Z" fill="#797986"/>
<path d="M16.6827 39.396H15.0156V41.4332H16.6827V39.396Z" fill="#797986"/>
<path d="M15.0167 39.396H13.3496V41.4332H15.0167V39.396Z" fill="#797986"/>
<path d="M13.3468 39.396H11.6797V41.4332H13.3468V39.396Z" fill="#797986"/>
<path d="M11.6817 39.396H10.0117V41.4332H11.6817V39.396Z" fill="#797986"/>
<path d="M10.0108 39.396H8.34375V41.4332H10.0108V39.396Z" fill="#797986"/>
<path d="M8.34483 39.396H6.67773V41.4332H8.34483V39.396Z" fill="#868B91"/>
<path d="M6.67491 39.396H5.00781V41.4332H6.67491V39.396Z" fill="#868B91"/>
<path d="M46.7062 37.3579H45.0391V39.3951H46.7062V37.3579Z" fill="#787F84"/>
<path d="M45.0362 37.3582H43.3691V39.3954H45.0362V37.3582Z" fill="#787F84"/>
<path d="M43.3683 37.3579H41.7012V39.3951H43.3683V37.3579Z" fill="#696B76"/>
<path d="M41.7022 37.3582H40.0352V39.3954H41.7022V37.3582Z" fill="#696B76"/>
<path d="M40.0343 37.3582H38.3672V39.3954H40.0343V37.3582Z" fill="#696B76"/>
<path d="M38.3663 37.3579H36.6992V39.3951H38.3663V37.3579Z" fill="#6F717C"/>
<path d="M36.6964 37.3582H35.0293V39.3954H36.6964V37.3582Z" fill="#6F717C"/>
<path d="M35.0304 37.3579H33.3633V39.3951H35.0304V37.3579Z" fill="#797986"/>
<path d="M33.3605 37.3582H31.6934V39.3954H33.3605V37.3582Z" fill="#797986"/>
<path d="M31.6944 37.3579H30.0273V39.3951H31.6944V37.3579Z" fill="#797986"/>
<path d="M30.0265 37.3579H28.3594V39.3951H30.0265V37.3579Z" fill="#797986"/>
<path d="M28.3585 37.3582H26.6914V39.3954H28.3585V37.3582Z" fill="#868B91"/>
<path d="M26.6886 37.3579H25.0215V39.3951H26.6886V37.3579Z" fill="#868B91"/>
<path d="M25.0226 37.3582H23.3555V39.3954H25.0226V37.3582Z" fill="#868B91"/>
<path d="M23.3546 37.3582H21.6875V39.3954H23.3546V37.3582Z" fill="#868B91"/>
<path d="M21.6866 37.3582H20.0195V39.3954H21.6866V37.3582Z" fill="#797986"/>
<path d="M20.0206 37.3582H18.3535V39.3954H20.0206V37.3582Z" fill="#797986"/>
<path d="M18.3507 37.3582H16.6836V39.3954H18.3507V37.3582Z" fill="#797986"/>
<path d="M16.6827 37.3582H15.0156V39.3954H16.6827V37.3582Z" fill="#797986"/>
<path d="M15.0167 37.3579H13.3496V39.3951H15.0167V37.3579Z" fill="#797986"/>
<path d="M13.3468 37.3579H11.6797V39.3951H13.3468V37.3579Z" fill="#797986"/>
<path d="M11.6817 37.3579H10.0117V39.3951H11.6817V37.3579Z" fill="#797986"/>
<path d="M10.0108 37.3579H8.34375V39.3951H10.0108V37.3579Z" fill="#797986"/>
<path d="M8.34483 37.3582H6.67773V39.3954H8.34483V37.3582Z" fill="#797986"/>
<path d="M6.67491 37.3579H5.00781V39.3951H6.67491V37.3579Z" fill="#868B91"/>
<path d="M5.00889 37.3582H3.3418V39.3954H5.00889V37.3582Z" fill="#868B91"/>
<path d="M46.7062 35.3213H45.0391V37.3585H46.7062V35.3213Z" fill="#787F84"/>
<path d="M45.0362 35.321H43.3691V37.3583H45.0362V35.321Z" fill="#787F84"/>
<path d="M43.3683 35.3213H41.7012V37.3585H43.3683V35.3213Z" fill="#696B76"/>
<path d="M41.7022 35.321H40.0352V37.3583H41.7022V35.321Z" fill="#696B76"/>
<path d="M40.0343 35.321H38.3672V37.3583H40.0343V35.321Z" fill="#6F717C"/>
<path d="M38.3663 35.3213H36.6992V37.3585H38.3663V35.3213Z" fill="#6F717C"/>
<path d="M36.6964 35.321H35.0293V37.3583H36.6964V35.321Z" fill="#797986"/>
<path d="M35.0304 35.3213H33.3633V37.3585H35.0304V35.3213Z" fill="#797986"/>
<path d="M33.3605 35.321H31.6934V37.3583H33.3605V35.321Z" fill="#797986"/>
<path d="M31.6944 35.3213H30.0273V37.3585H31.6944V35.3213Z" fill="#797986"/>
<path d="M30.0265 35.3213H28.3594V37.3585H30.0265V35.3213Z" fill="#797986"/>
<path d="M28.3585 35.321H26.6914V37.3583H28.3585V35.321Z" fill="#868B91"/>
<path d="M26.6886 35.3213H25.0215V37.3585H26.6886V35.3213Z" fill="#868B91"/>
<path d="M25.0226 35.321H23.3555V37.3583H25.0226V35.321Z" fill="#868B91"/>
<path d="M23.3546 35.321H21.6875V37.3583H23.3546V35.321Z" fill="#868B91"/>
<path d="M21.6866 35.321H20.0195V37.3583H21.6866V35.321Z" fill="#797986"/>
<path d="M20.0206 35.321H18.3535V37.3583H20.0206V35.321Z" fill="#797986"/>
<path d="M18.3507 35.321H16.6836V37.3583H18.3507V35.321Z" fill="#797986"/>
<path d="M16.6827 35.321H15.0156V37.3583H16.6827V35.321Z" fill="#797986"/>
<path d="M15.0167 35.3213H13.3496V37.3585H15.0167V35.3213Z" fill="#797986"/>
<path d="M13.3468 35.3213H11.6797V37.3585H13.3468V35.3213Z" fill="#797986"/>
<path d="M11.6817 35.3213H10.0117V37.3585H11.6817V35.3213Z" fill="#797986"/>
<path d="M10.0108 35.3213H8.34375V37.3585H10.0108V35.3213Z" fill="#797986"/>
<path d="M8.34483 35.321H6.67773V37.3583H8.34483V35.321Z" fill="#797986"/>
<path d="M6.67491 35.3213H5.00781V37.3585H6.67491V35.3213Z" fill="#868B91"/>
<path d="M5.00889 35.321H3.3418V37.3583H5.00889V35.321Z" fill="#868B91"/>
<path d="M48.3722 33.2866H46.7051V35.321H48.3722V33.2866Z" fill="#787F84"/>
<path d="M46.7062 33.2866H45.0391V35.321H46.7062V33.2866Z" fill="#787F84"/>
<path d="M45.0362 33.2866H43.3691V35.321H45.0362V33.2866Z" fill="#696B76"/>
<path d="M43.3683 33.2866H41.7012V35.321H43.3683V33.2866Z" fill="#696B76"/>
<path d="M41.7022 33.2866H40.0352V35.321H41.7022V33.2866Z" fill="#6B6C77"/>
<path d="M40.0343 33.2866H38.3672V35.321H40.0343V33.2866Z" fill="#6F717C"/>
<path d="M38.3663 33.2866H36.6992V35.321H38.3663V33.2866Z" fill="#6F717C"/>
<path d="M36.6964 33.2866H35.0293V35.321H36.6964V33.2866Z" fill="#797986"/>
<path d="M35.0304 33.2866H33.3633V35.321H35.0304V33.2866Z" fill="#797986"/>
<path d="M33.3605 33.2866H31.6934V35.321H33.3605V33.2866Z" fill="#797986"/>
<path d="M31.6944 33.2866H30.0273V35.321H31.6944V33.2866Z" fill="#797986"/>
<path d="M30.0265 33.2866H28.3594V35.321H30.0265V33.2866Z" fill="#797986"/>
<path d="M28.3585 33.2866H26.6914V35.321H28.3585V33.2866Z" fill="#868B91"/>
<path d="M26.6886 33.2866H25.0215V35.321H26.6886V33.2866Z" fill="#868B91"/>
<path d="M25.0226 33.2866H23.3555V35.321H25.0226V33.2866Z" fill="#868B91"/>
<path d="M23.3546 33.2866H21.6875V35.321H23.3546V33.2866Z" fill="#868B91"/>
<path d="M21.6866 33.2866H20.0195V35.321H21.6866V33.2866Z" fill="#797986"/>
<path d="M20.0206 33.2866H18.3535V35.321H20.0206V33.2866Z" fill="#797986"/>
<path d="M18.3507 33.2866H16.6836V35.321H18.3507V33.2866Z" fill="#797986"/>
<path d="M16.6827 33.2866H15.0156V35.321H16.6827V33.2866Z" fill="#797986"/>
<path d="M15.0167 33.2866H13.3496V35.321H15.0167V33.2866Z" fill="#797986"/>
<path d="M13.3468 33.2866H11.6797V35.321H13.3468V33.2866Z" fill="#797986"/>
<path d="M11.6817 33.2866H10.0117V35.321H11.6817V33.2866Z" fill="#797986"/>
<path d="M10.0108 33.2866H8.34375V35.321H10.0108V33.2866Z" fill="#797986"/>
<path d="M8.34483 33.2866H6.67773V35.321H8.34483V33.2866Z" fill="#797986"/>
<path d="M6.67491 33.2866H5.00781V35.321H6.67491V33.2866Z" fill="#797986"/>
<path d="M5.00889 33.2866H3.3418V35.321H5.00889V33.2866Z" fill="#868B91"/>
<path d="M3.34092 33.2866H1.67383V35.321H3.34092V33.2866Z" fill="#868B91"/>
<path d="M48.3722 31.2524H46.7051V33.2897H48.3722V31.2524Z" fill="#787F84"/>
<path d="M46.7062 31.2524H45.0391V33.2897H46.7062V31.2524Z" fill="#787F84"/>
<path d="M45.0362 31.2522H43.3691V33.2894H45.0362V31.2522Z" fill="#696B76"/>
<path d="M43.3683 31.2524H41.7012V33.2897H43.3683V31.2524Z" fill="#696B76"/>
<path d="M41.7022 31.2522H40.0352V33.2894H41.7022V31.2522Z" fill="#6F717C"/>
<path d="M40.0343 31.2522H38.3672V33.2894H40.0343V31.2522Z" fill="#6F717C"/>
<path d="M38.3663 31.2524H36.6992V33.2897H38.3663V31.2524Z" fill="#797986"/>
<path d="M36.6964 31.2522H35.0293V33.2894H36.6964V31.2522Z" fill="#797986"/>
<path d="M35.0304 31.2524H33.3633V33.2897H35.0304V31.2524Z" fill="#797986"/>
<path d="M33.3605 31.2522H31.6934V33.2894H33.3605V31.2522Z" fill="#797986"/>
<path d="M31.6944 31.2524H30.0273V33.2897H31.6944V31.2524Z" fill="#797986"/>
<path d="M30.0265 31.2524H28.3594V33.2897H30.0265V31.2524Z" fill="#797986"/>
<path d="M28.3585 31.2522H26.6914V33.2894H28.3585V31.2522Z" fill="#868B91"/>
<path d="M26.6886 31.2524H25.0215V33.2897H26.6886V31.2524Z" fill="#868B91"/>
<path d="M25.0226 31.2522H23.3555V33.2894H25.0226V31.2522Z" fill="#868B91"/>
<path d="M23.3546 31.2522H21.6875V33.2894H23.3546V31.2522Z" fill="#868B91"/>
<path d="M21.6866 31.2522H20.0195V33.2894H21.6866V31.2522Z" fill="#797986"/>
<path d="M20.0206 31.2522H18.3535V33.2894H20.0206V31.2522Z" fill="#797986"/>
<path d="M18.3507 31.2522H16.6836V33.2894H18.3507V31.2522Z" fill="#797986"/>
<path d="M16.6827 31.2522H15.0156V33.2894H16.6827V31.2522Z" fill="#797986"/>
<path d="M15.0167 31.2524H13.3496V33.2897H15.0167V31.2524Z" fill="#797986"/>
<path d="M13.3468 31.2524H11.6797V33.2897H13.3468V31.2524Z" fill="#797986"/>
<path d="M11.6817 31.2524H10.0117V33.2897H11.6817V31.2524Z" fill="#797986"/>
<path d="M10.0108 31.2524H8.34375V33.2897H10.0108V31.2524Z" fill="#797986"/>
<path d="M8.34483 31.2524H6.67773V33.2897H8.34483V31.2524Z" fill="#797986"/>
<path d="M6.67491 31.2524H5.00781V33.2897H6.67491V31.2524Z" fill="#797986"/>
<path d="M5.00889 31.2522H3.3418V33.2894H5.00889V31.2522Z" fill="#868B91"/>
<path d="M3.34092 31.2522H1.67383V33.2894H3.34092V31.2522Z" fill="#868B91"/>
<path d="M48.3722 29.2153H46.7051V31.2526H48.3722V29.2153Z" fill="#787F84"/>
<path d="M46.7062 29.2153H45.0391V31.2526H46.7062V29.2153Z" fill="#787F84"/>
<path d="M45.0362 29.2153H43.3691V31.2526H45.0362V29.2153Z" fill="#696B76"/>
<path d="M43.3683 29.2153H41.7012V31.2526H43.3683V29.2153Z" fill="#696B76"/>
<path d="M41.7022 29.2153H40.0352V31.2526H41.7022V29.2153Z" fill="#6F717C"/>
<path d="M40.0343 29.2153H38.3672V31.2526H40.0343V29.2153Z" fill="#6F717C"/>
<path d="M38.3663 29.2153H36.6992V31.2526H38.3663V29.2153Z" fill="#797986"/>
<path d="M36.6964 29.2153H35.0293V31.2526H36.6964V29.2153Z" fill="#797986"/>
<path d="M35.0304 29.2153H33.3633V31.2526H35.0304V29.2153Z" fill="#797986"/>
<path d="M33.3605 29.2153H31.6934V31.2526H33.3605V29.2153Z" fill="#797986"/>
<path d="M31.6944 29.2153H30.0273V31.2526H31.6944V29.2153Z" fill="#797986"/>
<path d="M30.0265 29.2153H28.3594V31.2526H30.0265V29.2153Z" fill="#797986"/>
<path d="M28.3585 29.2153H26.6914V31.2526H28.3585V29.2153Z" fill="#868B91"/>
<path d="M26.6886 29.2153H25.0215V31.2526H26.6886V29.2153Z" fill="#868B91"/>
<path d="M25.0226 29.2153H23.3555V31.2526H25.0226V29.2153Z" fill="#868B91"/>
<path d="M23.3546 29.2153H21.6875V31.2526H23.3546V29.2153Z" fill="#868B91"/>
<path d="M21.6866 29.2153H20.0195V31.2526H21.6866V29.2153Z" fill="#797986"/>
<path d="M20.0206 29.2153H18.3535V31.2526H20.0206V29.2153Z" fill="#797986"/>
<path d="M18.3507 29.2153H16.6836V31.2526H18.3507V29.2153Z" fill="#797986"/>
<path d="M16.6827 29.2153H15.0156V31.2526H16.6827V29.2153Z" fill="#797986"/>
<path d="M15.0167 29.2153H13.3496V31.2526H15.0167V29.2153Z" fill="#797986"/>
<path d="M13.3468 29.2153H11.6797V31.2526H13.3468V29.2153Z" fill="#797986"/>
<path d="M11.6817 29.2153H10.0117V31.2526H11.6817V29.2153Z" fill="#797986"/>
<path d="M10.0108 29.2153H8.34375V31.2526H10.0108V29.2153Z" fill="#797986"/>
<path d="M8.34483 29.2153H6.67773V31.2526H8.34483V29.2153Z" fill="#797986"/>
<path d="M6.67491 29.2153H5.00781V31.2526H6.67491V29.2153Z" fill="#797986"/>
<path d="M5.00889 29.2153H3.3418V31.2526H5.00889V29.2153Z" fill="#858991"/>
<path d="M3.34092 29.2153H1.67383V31.2526H3.34092V29.2153Z" fill="#868B91"/>
<path d="M48.3722 27.1807H46.7051V29.215H48.3722V27.1807Z" fill="#787F84"/>
<path d="M46.7062 27.1807H45.0391V29.215H46.7062V27.1807Z" fill="#787F84"/>
<path d="M45.0362 27.1809H43.3691V29.2153H45.0362V27.1809Z" fill="#696B76"/>
<path d="M43.3683 27.1807H41.7012V29.215H43.3683V27.1807Z" fill="#696B76"/>
<path d="M41.7022 27.1809H40.0352V29.2153H41.7022V27.1809Z" fill="#6F717C"/>
<path d="M40.0343 27.1809H38.3672V29.2153H40.0343V27.1809Z" fill="#6F717C"/>
<path d="M38.3663 27.1807H36.6992V29.215H38.3663V27.1807Z" fill="#797986"/>
<path d="M36.6964 27.1809H35.0293V29.2153H36.6964V27.1809Z" fill="#797986"/>
<path d="M35.0304 27.1807H33.3633V29.215H35.0304V27.1807Z" fill="#797986"/>
<path d="M33.3605 27.1809H31.6934V29.2153H33.3605V27.1809Z" fill="#797986"/>
<path d="M31.6944 27.1807H30.0273V29.215H31.6944V27.1807Z" fill="#797986"/>
<path d="M30.0265 27.1807H28.3594V29.215H30.0265V27.1807Z" fill="#797986"/>
<path d="M28.3585 27.1809H26.6914V29.2153H28.3585V27.1809Z" fill="#868B91"/>
<path d="M26.6886 27.1807H25.0215V29.215H26.6886V27.1807Z" fill="#868B91"/>
<path d="M25.0226 27.1809H23.3555V29.2153H25.0226V27.1809Z" fill="#868B91"/>
<path d="M23.3546 27.1809H21.6875V29.2153H23.3546V27.1809Z" fill="#868B91"/>
<path d="M21.6866 27.1809H20.0195V29.2153H21.6866V27.1809Z" fill="#797986"/>
<path d="M20.0206 27.1809H18.3535V29.2153H20.0206V27.1809Z" fill="#797986"/>
<path d="M18.3507 27.1809H16.6836V29.2153H18.3507V27.1809Z" fill="#797986"/>
<path d="M16.6827 27.1809H15.0156V29.2153H16.6827V27.1809Z" fill="#797986"/>
<path d="M15.0167 27.1807H13.3496V29.215H15.0167V27.1807Z" fill="#797986"/>
<path d="M13.3468 27.1807H11.6797V29.215H13.3468V27.1807Z" fill="#797986"/>
<path d="M11.6817 27.1807H10.0117V29.215H11.6817V27.1807Z" fill="#797986"/>
<path d="M10.0108 27.1807H8.34375V29.215H10.0108V27.1807Z" fill="#797986"/>
<path d="M8.34483 27.1809H6.67773V29.2153H8.34483V27.1809Z" fill="#797986"/>
<path d="M6.67491 27.1807H5.00781V29.215H6.67491V27.1807Z" fill="#797986"/>
<path d="M5.00889 27.1809H3.3418V29.2153H5.00889V27.1809Z" fill="#7A7B87"/>
<path d="M3.34092 27.1809H1.67383V29.2153H3.34092V27.1809Z" fill="#868B91"/>
<path d="M50.0401 25.1436H48.373V27.1808H50.0401V25.1436Z" fill="#7E8389"/>
<path d="M48.3722 25.1436H46.7051V27.1808H48.3722V25.1436Z" fill="#787F84"/>
<path d="M46.7062 25.144H45.0391V27.1813H46.7062V25.144Z" fill="#696B76"/>
<path d="M45.0362 25.1438H43.3691V27.181H45.0362V25.1438Z" fill="#696B76"/>
<path d="M43.3683 25.1436H41.7012V27.1808H43.3683V25.1436Z" fill="#696B76"/>
<path d="M41.7022 25.1436H40.0352V27.1808H41.7022V25.1436Z" fill="#6F717C"/>
<path d="M40.0343 25.1438H38.3672V27.181H40.0343V25.1438Z" fill="#70727D"/>
<path d="M38.3663 25.1436H36.6992V27.1808H38.3663V25.1436Z" fill="#797986"/>
<path d="M36.6964 25.1436H35.0293V27.1808H36.6964V25.1436Z" fill="#797986"/>
<path d="M35.0304 25.1436H33.3633V27.1808H35.0304V25.1436Z" fill="#797986"/>
<path d="M33.3605 25.1436H31.6934V27.1808H33.3605V25.1436Z" fill="#868B91"/>
<path d="M31.6944 25.144H30.0273V27.1813H31.6944V25.144Z" fill="#868B91"/>
<path d="M30.0265 25.1436H28.3594V27.1808H30.0265V25.1436Z" fill="#868B91"/>
<path d="M28.3585 25.1436H26.6914V27.1808H28.3585V25.1436Z" fill="#868B91"/>
<path d="M26.6886 25.1436H25.0215V27.1808H26.6886V25.1436Z" fill="#868B91"/>
<path d="M25.0226 25.1438H23.3555V27.181H25.0226V25.1438Z" fill="#868B91"/>
<path d="M23.3546 25.1436H21.6875V27.1808H23.3546V25.1436Z" fill="#868B91"/>
<path d="M21.6866 25.1438H20.0195V27.181H21.6866V25.1438Z" fill="#868B91"/>
<path d="M20.0206 25.1438H18.3535V27.181H20.0206V25.1438Z" fill="#868B91"/>
<path d="M18.3507 25.1438H16.6836V27.181H18.3507V25.1438Z" fill="#868B91"/>
<path d="M16.6827 25.1436H15.0156V27.1808H16.6827V25.1436Z" fill="#797986"/>
<path d="M15.0167 25.144H13.3496V27.1813H15.0167V25.144Z" fill="#797986"/>
<path d="M13.3468 25.1436H11.6797V27.1808H13.3468V25.1436Z" fill="#797986"/>
<path d="M11.6817 25.144H10.0117V27.1813H11.6817V25.144Z" fill="#797986"/>
<path d="M10.0108 25.1436H8.34375V27.1808H10.0108V25.1436Z" fill="#797986"/>
<path d="M8.34483 25.1438H6.67773V27.181H8.34483V25.1438Z" fill="#797986"/>
<path d="M6.67491 25.1436H5.00781V27.1808H6.67491V25.1436Z" fill="white"/>
<path d="M5.00889 25.1438H3.3418V27.181H5.00889V25.1438Z" fill="#797986"/>
<path d="M3.34092 25.1436H1.67383V27.1808H3.34092V25.1436Z" fill="#868B91"/>
<path d="M1.671 25.1438H0.00390625V27.181H1.671V25.1438Z" fill="#8C9197"/>
<path d="M50.0401 23.1089H48.373V25.1433H50.0401V23.1089Z" fill="#787F84"/>
<path d="M48.3722 23.1089H46.7051V25.1433H48.3722V23.1089Z" fill="#787F84"/>
<path d="M46.7062 23.1089H45.0391V25.1433H46.7062V23.1089Z" fill="#696B76"/>
<path d="M45.0362 23.1091H43.3691V25.1435H45.0362V23.1091Z" fill="#696B76"/>
<path d="M43.3683 23.1089H41.7012V25.1433H43.3683V23.1089Z" fill="#696B76"/>
<path d="M41.7022 23.1091H40.0352V25.1435H41.7022V23.1091Z" fill="#6F717C"/>
<path d="M40.0343 23.1091H38.3672V25.1435H40.0343V23.1091Z" fill="#767884"/>
<path d="M38.3663 23.1089H36.6992V25.1433H38.3663V23.1089Z" fill="#797986"/>
<path d="M36.6964 23.1091H35.0293V25.1435H36.6964V23.1091Z" fill="#797986"/>
<path d="M35.0304 23.1089H33.3633V25.1433H35.0304V23.1089Z" fill="#797986"/>
<path d="M33.3605 23.1091H31.6934V25.1435H33.3605V23.1091Z" fill="#868B91"/>
<path d="M31.6944 23.1089H30.0273V25.1433H31.6944V23.1089Z" fill="#868B91"/>
<path d="M30.0265 23.1089H28.3594V25.1433H30.0265V23.1089Z" fill="#868B91"/>
<path d="M28.3585 23.1091H26.6914V25.1435H28.3585V23.1091Z" fill="#868B91"/>
<path d="M26.6886 23.1089H25.0215V25.1433H26.6886V23.1089Z" fill="#868B91"/>
<path d="M25.0226 23.1091H23.3555V25.1435H25.0226V23.1091Z" fill="#868B91"/>
<path d="M23.3546 23.1091H21.6875V25.1435H23.3546V23.1091Z" fill="#868B91"/>
<path d="M21.6866 23.1091H20.0195V25.1435H21.6866V23.1091Z" fill="#868B91"/>
<path d="M20.0206 23.1091H18.3535V25.1435H20.0206V23.1091Z" fill="#868B91"/>
<path d="M18.3507 23.1091H16.6836V25.1435H18.3507V23.1091Z" fill="#868B91"/>
<path d="M16.6827 23.1091H15.0156V25.1435H16.6827V23.1091Z" fill="#797986"/>
<path d="M15.0167 23.1089H13.3496V25.1433H15.0167V23.1089Z" fill="#797986"/>
<path d="M13.3468 23.1089H11.6797V25.1433H13.3468V23.1089Z" fill="#797986"/>
<path d="M11.6817 23.1089H10.0117V25.1433H11.6817V23.1089Z" fill="#797986"/>
<path d="M10.0108 23.1089H8.34375V25.1433H10.0108V23.1089Z" fill="#797986"/>
<path d="M8.34483 23.1091H6.67773V25.1435H8.34483V23.1091Z" fill="#797986"/>
<path d="M6.67491 23.1089H5.00781V25.1433H6.67491V23.1089Z" fill="white"/>
<path d="M5.00889 23.1091H3.3418V25.1435H5.00889V23.1091Z" fill="#797986"/>
<path d="M3.34092 23.1091H1.67383V25.1435H3.34092V23.1091Z" fill="#868B91"/>
<path d="M1.671 23.1091H0.00390625V25.1435H1.671V23.1091Z" fill="#868B91"/>
<path d="M50.0401 21.0723H48.373V23.1095H50.0401V21.0723Z" fill="#787F84"/>
<path d="M48.3722 21.0723H46.7051V23.1095H48.3722V21.0723Z" fill="#787F84"/>
<path d="M46.7062 21.0723H45.0391V23.1095H46.7062V21.0723Z" fill="#696B76"/>
<path d="M45.0362 21.072H43.3691V23.1093H45.0362V21.072Z" fill="#696B76"/>
<path d="M43.3683 21.0723H41.7012V23.1095H43.3683V21.0723Z" fill="#696B76"/>
<path d="M41.7022 21.072H40.0352V23.1093H41.7022V21.072Z" fill="#6F717C"/>
<path d="M40.0343 21.072H38.3672V23.1093H40.0343V21.072Z" fill="#797986"/>
<path d="M38.3663 21.0723H36.6992V23.1095H38.3663V21.0723Z" fill="#797986"/>
<path d="M36.6964 21.072H35.0293V23.1093H36.6964V21.072Z" fill="#797986"/>
<path d="M35.0304 21.0723H33.3633V23.1095H35.0304V21.0723Z" fill="#797986"/>
<path d="M33.3605 21.072H31.6934V23.1093H33.3605V21.072Z" fill="#868B91"/>
<path d="M31.6944 21.0723H30.0273V23.1095H31.6944V21.0723Z" fill="#868B91"/>
<path d="M30.0265 21.0723H28.3594V23.1095H30.0265V21.0723Z" fill="#868B91"/>
<path d="M28.3585 21.072H26.6914V23.1093H28.3585V21.072Z" fill="#868B91"/>
<path d="M26.6886 21.0723H25.0215V23.1095H26.6886V21.0723Z" fill="#868B91"/>
<path d="M25.0226 21.072H23.3555V23.1093H25.0226V21.072Z" fill="#868B91"/>
<path d="M23.3546 21.072H21.6875V23.1093H23.3546V21.072Z" fill="#868B91"/>
<path d="M21.6866 21.072H20.0195V23.1093H21.6866V21.072Z" fill="#868B91"/>
<path d="M20.0206 21.072H18.3535V23.1093H20.0206V21.072Z" fill="#868B91"/>
<path d="M18.3507 21.072H16.6836V23.1093H18.3507V21.072Z" fill="#868B91"/>
<path d="M16.6827 21.072H15.0156V23.1093H16.6827V21.072Z" fill="#797986"/>
<path d="M15.0167 21.0723H13.3496V23.1095H15.0167V21.0723Z" fill="#797986"/>
<path d="M13.3468 21.0723H11.6797V23.1095H13.3468V21.0723Z" fill="#797986"/>
<path d="M11.6817 21.0723H10.0117V23.1095H11.6817V21.0723Z" fill="#797986"/>
<path d="M10.0108 21.0723H8.34375V23.1095H10.0108V21.0723Z" fill="#797986"/>
<path d="M8.34483 21.072H6.67773V23.1093H8.34483V21.072Z" fill="#797986"/>
<path d="M6.67491 21.0723H5.00781V23.1095H6.67491V21.0723Z" fill="white"/>
<path d="M5.00889 21.072H3.3418V23.1093H5.00889V21.072Z" fill="#797986"/>
<path d="M3.34092 21.072H1.67383V23.1093H3.34092V21.072Z" fill="#868B91"/>
<path d="M1.671 21.072H0.00390625V23.1093H1.671V21.072Z" fill="#868B91"/>
<path d="M50.0401 19.0371H48.373V21.0715H50.0401V19.0371Z" fill="#787F84"/>
<path d="M48.3722 19.0371H46.7051V21.0715H48.3722V19.0371Z" fill="#787F84"/>
<path d="M46.7062 19.0371H45.0391V21.0715H46.7062V19.0371Z" fill="#696B76"/>
<path d="M45.0362 19.0371H43.3691V21.0715H45.0362V19.0371Z" fill="#696B76"/>
<path d="M43.3683 19.0371H41.7012V21.0715H43.3683V19.0371Z" fill="#6C6E78"/>
<path d="M41.7022 19.0371H40.0352V21.0715H41.7022V19.0371Z" fill="#6F717C"/>
<path d="M40.0343 19.0371H38.3672V21.0715H40.0343V19.0371Z" fill="#797986"/>
<path d="M38.3663 19.0371H36.6992V21.0715H38.3663V19.0371Z" fill="#797986"/>
<path d="M36.6964 19.0371H35.0293V21.0715H36.6964V19.0371Z" fill="#797986"/>
<path d="M35.0304 19.0371H33.3633V21.0715H35.0304V19.0371Z" fill="#797986"/>
<path d="M33.3605 19.0371H31.6934V21.0715H33.3605V19.0371Z" fill="#797986"/>
<path d="M31.6944 19.0371H30.0273V21.0715H31.6944V19.0371Z" fill="#797986"/>
<path d="M30.0265 19.0371H28.3594V21.0715H30.0265V19.0371Z" fill="#797986"/>
<path d="M28.3585 19.0371H26.6914V21.0715H28.3585V19.0371Z" fill="#868B91"/>
<path d="M26.6886 19.0371H25.0215V21.0715H26.6886V19.0371Z" fill="#868B91"/>
<path d="M25.0226 19.0371H23.3555V21.0715H25.0226V19.0371Z" fill="#868B91"/>
<path d="M23.3546 19.0371H21.6875V21.0715H23.3546V19.0371Z" fill="#868B91"/>
<path d="M21.6866 19.0371H20.0195V21.0715H21.6866V19.0371Z" fill="#797986"/>
<path d="M20.0206 19.0371H18.3535V21.0715H20.0206V19.0371Z" fill="#797986"/>
<path d="M18.3507 19.0371H16.6836V21.0715H18.3507V19.0371Z" fill="#797986"/>
<path d="M16.6827 19.0371H15.0156V21.0715H16.6827V19.0371Z" fill="#797986"/>
<path d="M15.0167 19.0371H13.3496V21.0715H15.0167V19.0371Z" fill="#797986"/>
<path d="M13.3468 19.0371H11.6797V21.0715H13.3468V19.0371Z" fill="#797986"/>
<path d="M11.6817 19.0371H10.0117V21.0715H11.6817V19.0371Z" fill="#797986"/>
<path d="M10.0108 19.0371H8.34375V21.0715H10.0108V19.0371Z" fill="#797986"/>
<path d="M8.34483 19.0371H6.67773V21.0715H8.34483V19.0371Z" fill="#797986"/>
<path d="M6.67491 19.0371H5.00781V21.0715H6.67491V19.0371Z" fill="white"/>
<path d="M5.00889 19.0371H3.3418V21.0715H5.00889V19.0371Z" fill="#797986"/>
<path d="M3.34092 19.0371H1.67383V21.0715H3.34092V19.0371Z" fill="#868B91"/>
<path d="M1.671 19.0371H0.00390625V21.0715H1.671V19.0371Z" fill="#868B91"/>
<path d="M50.0401 17.0034H48.373V19.0407H50.0401V17.0034Z" fill="#787F84"/>
<path d="M48.3722 17.0034H46.7051V19.0407H48.3722V17.0034Z" fill="#787F84"/>
<path d="M46.7062 17.0034H45.0391V19.0407H46.7062V17.0034Z" fill="#696B76"/>
<path d="M45.0362 17.0032H43.3691V19.0404H45.0362V17.0032Z" fill="#696B76"/>
<path d="M43.3683 17.0034H41.7012V19.0407H43.3683V17.0034Z" fill="#6E707B"/>
<path d="M41.7022 17.0032H40.0352V19.0404H41.7022V17.0032Z" fill="#6F717C"/>
<path d="M40.0343 17.0032H38.3672V19.0404H40.0343V17.0032Z" fill="#797986"/>
<path d="M38.3663 17.0034H36.6992V19.0407H38.3663V17.0034Z" fill="#797986"/>
<path d="M36.6964 17.0032H35.0293V19.0404H36.6964V17.0032Z" fill="#797986"/>
<path d="M35.0304 17.0034H33.3633V19.0407H35.0304V17.0034Z" fill="#797986"/>
<path d="M33.3605 17.0032H31.6934V19.0404H33.3605V17.0032Z" fill="#797986"/>
<path d="M31.6944 17.0034H30.0273V19.0407H31.6944V17.0034Z" fill="#797986"/>
<path d="M30.0265 17.0034H28.3594V19.0407H30.0265V17.0034Z" fill="#797986"/>
<path d="M28.3585 17.0032H26.6914V19.0404H28.3585V17.0032Z" fill="#868B91"/>
<path d="M26.6886 17.0034H25.0215V19.0407H26.6886V17.0034Z" fill="#868B91"/>
<path d="M25.0226 17.0032H23.3555V19.0404H25.0226V17.0032Z" fill="#868B91"/>
<path d="M23.3546 17.0032H21.6875V19.0404H23.3546V17.0032Z" fill="#868B91"/>
<path d="M21.6866 17.0032H20.0195V19.0404H21.6866V17.0032Z" fill="#797986"/>
<path d="M20.0206 17.0032H18.3535V19.0404H20.0206V17.0032Z" fill="#797986"/>
<path d="M18.3507 17.0032H16.6836V19.0404H18.3507V17.0032Z" fill="#797986"/>
<path d="M16.6827 17.0032H15.0156V19.0404H16.6827V17.0032Z" fill="#797986"/>
<path d="M15.0167 17.0034H13.3496V19.0407H15.0167V17.0034Z" fill="#797986"/>
<path d="M13.3468 17.0034H11.6797V19.0407H13.3468V17.0034Z" fill="#797986"/>
<path d="M11.6817 17.0034H10.0117V19.0407H11.6817V17.0034Z" fill="#797986"/>
<path d="M10.0108 17.0034H8.34375V19.0407H10.0108V17.0034Z" fill="#797986"/>
<path d="M8.34483 17.0034H6.67773V19.0407H8.34483V17.0034Z" fill="white"/>
<path d="M6.67491 17.0034H5.00781V19.0407H6.67491V17.0034Z" fill="white"/>
<path d="M5.00889 17.0032H3.3418V19.0404H5.00889V17.0032Z" fill="#797986"/>
<path d="M3.34092 17.0032H1.67383V19.0404H3.34092V17.0032Z" fill="#868B91"/>
<path d="M1.671 17.0032H0.00390625V19.0404H1.671V17.0032Z" fill="#868B91"/>
<path d="M50.0401 14.9688H48.373V17.0031H50.0401V14.9688Z" fill="#787F84"/>
<path d="M48.3722 14.9688H46.7051V17.0031H48.3722V14.9688Z" fill="#787F84"/>
<path d="M46.7062 14.9688H45.0391V17.0031H46.7062V14.9688Z" fill="#696B76"/>
<path d="M45.0362 14.969H43.3691V17.0034H45.0362V14.969Z" fill="#696B76"/>
<path d="M43.3683 14.9688H41.7012V17.0031H43.3683V14.9688Z" fill="#6F717C"/>
<path d="M41.7022 14.969H40.0352V17.0034H41.7022V14.969Z" fill="#6F717C"/>
<path d="M40.0343 14.969H38.3672V17.0034H40.0343V14.969Z" fill="#797986"/>
<path d="M38.3663 14.9688H36.6992V17.0031H38.3663V14.9688Z" fill="#797986"/>
<path d="M36.6964 14.969H35.0293V17.0034H36.6964V14.969Z" fill="#797986"/>
<path d="M35.0304 14.9688H33.3633V17.0031H35.0304V14.9688Z" fill="#797986"/>
<path d="M33.3605 14.969H31.6934V17.0034H33.3605V14.969Z" fill="#797986"/>
<path d="M31.6944 14.9688H30.0273V17.0031H31.6944V14.9688Z" fill="#797986"/>
<path d="M30.0265 14.9688H28.3594V17.0031H30.0265V14.9688Z" fill="#797986"/>
<path d="M28.3585 14.969H26.6914V17.0034H28.3585V14.969Z" fill="#868B91"/>
<path d="M26.6886 14.9688H25.0215V17.0031H26.6886V14.9688Z" fill="#868B91"/>
<path d="M25.0226 14.969H23.3555V17.0034H25.0226V14.969Z" fill="#868B91"/>
<path d="M23.3546 14.969H21.6875V17.0034H23.3546V14.969Z" fill="#868B91"/>
<path d="M21.6866 14.969H20.0195V17.0034H21.6866V14.969Z" fill="#797986"/>
<path d="M20.0206 14.969H18.3535V17.0034H20.0206V14.969Z" fill="#797986"/>
<path d="M18.3507 14.969H16.6836V17.0034H18.3507V14.969Z" fill="#797986"/>
<path d="M16.6827 14.969H15.0156V17.0034H16.6827V14.969Z" fill="#797986"/>
<path d="M15.0167 14.9688H13.3496V17.0031H15.0167V14.9688Z" fill="#797986"/>
<path d="M13.3468 14.9688H11.6797V17.0031H13.3468V14.9688Z" fill="#797986"/>
<path d="M11.6817 14.9688H10.0117V17.0031H11.6817V14.9688Z" fill="#797986"/>
<path d="M10.0108 14.9688H8.34375V17.0031H10.0108V14.9688Z" fill="#797986"/>
<path d="M8.34483 14.9688H6.67773V17.0031H8.34483V14.9688Z" fill="white"/>
<path d="M6.67491 14.9688H5.00781V17.0031H6.67491V14.9688Z" fill="white"/>
<path d="M5.00889 14.969H3.3418V17.0034H5.00889V14.969Z" fill="#797986"/>
<path d="M3.34092 14.969H1.67383V17.0034H3.34092V14.969Z" fill="#868B91"/>
<path d="M1.671 14.969H0.00390625V17.0034H1.671V14.969Z" fill="#868B91"/>
<path d="M50.0401 12.9316H48.373V14.9689H50.0401V12.9316Z" fill="#787F84"/>
<path d="M48.3722 12.9316H46.7051V14.9689H48.3722V12.9316Z" fill="#787F84"/>
<path d="M46.7062 12.9316H45.0391V14.9689H46.7062V12.9316Z" fill="#696B76"/>
<path d="M45.0362 12.9319H43.3691V14.9691H45.0362V12.9319Z" fill="#696B76"/>
<path d="M43.3683 12.9316H41.7012V14.9689H43.3683V12.9316Z" fill="#6F717C"/>
<path d="M41.7022 12.9319H40.0352V14.9691H41.7022V12.9319Z" fill="#6F717C"/>
<path d="M40.0343 12.9319H38.3672V14.9691H40.0343V12.9319Z" fill="#797986"/>
<path d="M38.3663 12.9316H36.6992V14.9689H38.3663V12.9316Z" fill="#797986"/>
<path d="M36.6964 12.9319H35.0293V14.9691H36.6964V12.9319Z" fill="#797986"/>
<path d="M35.0304 12.9316H33.3633V14.9689H35.0304V12.9316Z" fill="#797986"/>
<path d="M33.3605 12.9319H31.6934V14.9691H33.3605V12.9319Z" fill="#797986"/>
<path d="M31.6944 12.9316H30.0273V14.9689H31.6944V12.9316Z" fill="#797986"/>
<path d="M30.0265 12.9316H28.3594V14.9689H30.0265V12.9316Z" fill="#797986"/>
<path d="M28.3585 12.9319H26.6914V14.9691H28.3585V12.9319Z" fill="#797986"/>
<path d="M26.6886 12.9316H25.0215V14.9689H26.6886V12.9316Z" fill="#797986"/>
<path d="M25.0226 12.9319H23.3555V14.9691H25.0226V12.9319Z" fill="#797986"/>
<path d="M23.3546 12.9319H21.6875V14.9691H23.3546V12.9319Z" fill="#797986"/>
<path d="M21.6866 12.9319H20.0195V14.9691H21.6866V12.9319Z" fill="#797986"/>
<path d="M20.0206 12.9319H18.3535V14.9691H20.0206V12.9319Z" fill="#797986"/>
<path d="M18.3507 12.9319H16.6836V14.9691H18.3507V12.9319Z" fill="#797986"/>
<path d="M16.6827 12.9319H15.0156V14.9691H16.6827V12.9319Z" fill="#797986"/>
<path d="M15.0167 12.9316H13.3496V14.9689H15.0167V12.9316Z" fill="#797986"/>
<path d="M13.3468 12.9316H11.6797V14.9689H13.3468V12.9316Z" fill="#797986"/>
<path d="M11.6817 12.9316H10.0117V14.9689H11.6817V12.9316Z" fill="#797986"/>
<path d="M10.0108 12.9316H8.34375V14.9689H10.0108V12.9316Z" fill="white"/>
<path d="M8.34483 12.9319H6.67773V14.9691H8.34483V12.9319Z" fill="white"/>
<path d="M6.67491 12.9316H5.00781V14.9689H6.67491V12.9316Z" fill="white"/>
<path d="M5.00889 12.9319H3.3418V14.9691H5.00889V12.9319Z" fill="#797986"/>
<path d="M3.34092 12.9319H1.67383V14.9691H3.34092V12.9319Z" fill="#868B91"/>
<path d="M1.671 12.9319H0.00390625V14.9691H1.671V12.9319Z" fill="#868B91"/>
<path d="M50.0401 10.8975H48.373V12.9347H50.0401V10.8975Z" fill="#787F84"/>
<path d="M48.3722 10.8975H46.7051V12.9347H48.3722V10.8975Z" fill="#787F84"/>
<path d="M46.7062 10.8975H45.0391V12.9347H46.7062V10.8975Z" fill="#696B76"/>
<path d="M45.0362 10.8975H43.3691V12.9347H45.0362V10.8975Z" fill="#696B76"/>
<path d="M43.3683 10.8975H41.7012V12.9347H43.3683V10.8975Z" fill="#6F717C"/>
<path d="M41.7022 10.8975H40.0352V12.9347H41.7022V10.8975Z" fill="#6F717C"/>
<path d="M40.0343 10.8975H38.3672V12.9347H40.0343V10.8975Z" fill="#797986"/>
<path d="M38.3663 10.8975H36.6992V12.9347H38.3663V10.8975Z" fill="#797986"/>
<path d="M36.6964 10.8975H35.0293V12.9347H36.6964V10.8975Z" fill="#797986"/>
<path d="M35.0304 10.8975H33.3633V12.9347H35.0304V10.8975Z" fill="#797986"/>
<path d="M33.3605 10.8975H31.6934V12.9347H33.3605V10.8975Z" fill="#797986"/>
<path d="M31.6944 10.8975H30.0273V12.9347H31.6944V10.8975Z" fill="#797986"/>
<path d="M30.0265 10.8975H28.3594V12.9347H30.0265V10.8975Z" fill="#797986"/>
<path d="M28.3585 10.8975H26.6914V12.9347H28.3585V10.8975Z" fill="#797986"/>
<path d="M26.6886 10.8975H25.0215V12.9347H26.6886V10.8975Z" fill="#797986"/>
<path d="M25.0226 10.8975H23.3555V12.9347H25.0226V10.8975Z" fill="#797986"/>
<path d="M23.3546 10.8975H21.6875V12.9347H23.3546V10.8975Z" fill="#797986"/>
<path d="M21.6866 10.8975H20.0195V12.9347H21.6866V10.8975Z" fill="#797986"/>
<path d="M20.0206 10.8975H18.3535V12.9347H20.0206V10.8975Z" fill="#797986"/>
<path d="M18.3507 10.8975H16.6836V12.9347H18.3507V10.8975Z" fill="#797986"/>
<path d="M16.6827 10.8975H15.0156V12.9347H16.6827V10.8975Z" fill="#797986"/>
<path d="M15.0167 10.8975H13.3496V12.9347H15.0167V10.8975Z" fill="#797986"/>
<path d="M13.3468 10.8975H11.6797V12.9347H13.3468V10.8975Z" fill="#797986"/>
<path d="M11.6817 10.8975H10.0117V12.9347H11.6817V10.8975Z" fill="#797986"/>
<path d="M10.0108 10.8975H8.34375V12.9347H10.0108V10.8975Z" fill="#797986"/>
<path d="M8.34483 10.8975H6.67773V12.9347H8.34483V10.8975Z" fill="#797986"/>
<path d="M6.67491 10.8975H5.00781V12.9347H6.67491V10.8975Z" fill="#797986"/>
<path d="M5.00889 10.8975H3.3418V12.9347H5.00889V10.8975Z" fill="#797986"/>
<path d="M3.34092 10.8975H1.67383V12.9347H3.34092V10.8975Z" fill="#868B91"/>
<path d="M1.671 10.8975H0.00390625V12.9347H1.671V10.8975Z" fill="#868B91"/>
<path d="M50.0401 8.85938H48.373V10.8937H50.0401V8.85938Z" fill="#787F84"/>
<path d="M48.3722 8.85938H46.7051V10.8937H48.3722V8.85938Z" fill="#787F84"/>
<path d="M46.7062 8.86035H45.0391V10.8947H46.7062V8.86035Z" fill="#787F84"/>
<path d="M45.0362 8.86035H43.3691V10.8947H45.0362V8.86035Z" fill="#7D8489"/>
<path d="M43.3683 8.85938H41.7012V10.8937H43.3683V8.85938Z" fill="#7D8489"/>
<path d="M41.7022 8.85962H40.0352V10.894H41.7022V8.85962Z" fill="#7D8489"/>
<path d="M40.0343 8.86035H38.3672V10.8947H40.0343V8.86035Z" fill="#868B91"/>
<path d="M38.3663 8.85938H36.6992V10.8937H38.3663V8.85938Z" fill="#858A91"/>
<path d="M36.6964 8.85962H35.0293V10.894H36.6964V8.85962Z" fill="#797986"/>
<path d="M35.0304 8.85938H33.3633V10.8937H35.0304V8.85938Z" fill="#797986"/>
<path d="M33.3605 8.85962H31.6934V10.894H33.3605V8.85962Z" fill="#797986"/>
<path d="M31.6944 8.86035H30.0273V10.8947H31.6944V8.86035Z" fill="#797986"/>
<path d="M30.0265 8.85938H28.3594V10.8937H30.0265V8.85938Z" fill="#797986"/>
<path d="M28.3585 8.85962H26.6914V10.894H28.3585V8.85962Z" fill="#797986"/>
<path d="M26.6886 8.85938H25.0215V10.8937H26.6886V8.85938Z" fill="#797986"/>
<path d="M25.0226 8.86035H23.3555V10.8947H25.0226V8.86035Z" fill="#797986"/>
<path d="M23.3546 8.85962H21.6875V10.894H23.3546V8.85962Z" fill="#797986"/>
<path d="M21.6866 8.86035H20.0195V10.8947H21.6866V8.86035Z" fill="#797986"/>
<path d="M20.0206 8.86035H18.3535V10.8947H20.0206V8.86035Z" fill="#797986"/>
<path d="M18.3507 8.86035H16.6836V10.8947H18.3507V8.86035Z" fill="#797986"/>
<path d="M16.6827 8.85962H15.0156V10.894H16.6827V8.85962Z" fill="#797986"/>
<path d="M15.0167 8.86035H13.3496V10.8947H15.0167V8.86035Z" fill="#797986"/>
<path d="M13.3468 8.85938H11.6797V10.8937H13.3468V8.85938Z" fill="#81858E"/>
<path d="M11.6817 8.86035H10.0117V10.8947H11.6817V8.86035Z" fill="#868B91"/>
<path d="M10.0108 8.85938H8.34375V10.8937H10.0108V8.85938Z" fill="#868B91"/>
<path d="M8.34483 8.86035H6.67773V10.8947H8.34483V8.86035Z" fill="#868B91"/>
<path d="M6.67491 8.85938H5.00781V10.8937H6.67491V8.85938Z" fill="#868B91"/>
<path d="M5.00889 8.86035H3.3418V10.8947H5.00889V8.86035Z" fill="#868B91"/>
<path d="M3.34092 8.85962H1.67383V10.894H3.34092V8.85962Z" fill="#868B91"/>
<path d="M1.671 8.86035H0.00390625V10.8947H1.671V8.86035Z" fill="#868B91"/>
<path d="M41.7022 6.82568H40.0352V8.86292H41.7022V6.82568Z" fill="#7D8489"/>
<path d="M40.0343 6.82568H38.3672V8.86292H40.0343V6.82568Z" fill="#868B91"/>
<path d="M38.3663 6.82568H36.6992V8.86292H38.3663V6.82568Z" fill="#868B91"/>
<path d="M36.6964 6.82568H35.0293V8.86292H36.6964V6.82568Z" fill="#868B91"/>
<path d="M35.0304 6.82568H33.3633V8.86292H35.0304V6.82568Z" fill="#868B91"/>
<path d="M33.3605 6.82568H31.6934V8.86292H33.3605V6.82568Z" fill="#868B91"/>
<path d="M31.6944 6.82568H30.0273V8.86292H31.6944V6.82568Z" fill="#797986"/>
<path d="M30.0265 6.82568H28.3594V8.86292H30.0265V6.82568Z" fill="#797986"/>
<path d="M28.3585 6.82568H26.6914V8.86292H28.3585V6.82568Z" fill="#797986"/>
<path d="M26.6886 6.82568H25.0215V8.86292H26.6886V6.82568Z" fill="#797986"/>
<path d="M25.0226 6.82568H23.3555V8.86292H25.0226V6.82568Z" fill="#797986"/>
<path d="M23.3546 6.82568H21.6875V8.86292H23.3546V6.82568Z" fill="#797986"/>
<path d="M21.6866 6.82568H20.0195V8.86292H21.6866V6.82568Z" fill="#797986"/>
<path d="M20.0206 6.82568H18.3535V8.86292H20.0206V6.82568Z" fill="#797986"/>
<path d="M18.3507 6.82568H16.6836V8.86292H18.3507V6.82568Z" fill="#868B91"/>
<path d="M16.6827 6.82568H15.0156V8.86292H16.6827V6.82568Z" fill="#868B91"/>
<path d="M15.0167 6.82568H13.3496V8.86292H15.0167V6.82568Z" fill="#868B91"/>
<path d="M13.3468 6.82568H11.6797V8.86292H13.3468V6.82568Z" fill="#868B91"/>
<path d="M11.6817 6.82568H10.0117V8.86292H11.6817V6.82568Z" fill="#868B91"/>
<path d="M10.0108 6.82568H8.34375V8.86292H10.0108V6.82568Z" fill="#868B91"/>
<path d="M33.3605 4.78906H31.6934V6.82343H33.3605V4.78906Z" fill="#868B91"/>
<path d="M31.6944 4.78906H30.0273V6.82343H31.6944V4.78906Z" fill="#868B91"/>
<path d="M30.0265 4.78906H28.3594V6.82343H30.0265V4.78906Z" fill="#868B91"/>
<path d="M28.3585 4.78906H26.6914V6.82343H28.3585V4.78906Z" fill="#838890"/>
<path d="M26.6886 4.78906H25.0215V6.82343H26.6886V4.78906Z" fill="#797986"/>
<path d="M25.0226 4.78906H23.3555V6.82343H25.0226V4.78906Z" fill="#797986"/>
<path d="M23.3546 4.78906H21.6875V6.82343H23.3546V4.78906Z" fill="#838890"/>
<path d="M21.6866 4.78906H20.0195V6.82343H21.6866V4.78906Z" fill="#868B91"/>
<path d="M20.0206 4.78906H18.3535V6.82343H20.0206V4.78906Z" fill="#868B91"/>
<path d="M18.3507 4.78906H16.6836V6.82343H18.3507V4.78906Z" fill="#868B91"/>
<path d="M30.0265 2.75439H28.3594V4.78876H30.0265V2.75439Z" fill="#868B91"/>
<path d="M28.3585 2.75415H26.6914V4.78852H28.3585V2.75415Z" fill="#868B91"/>
<path d="M26.6886 2.75439H25.0215V4.78876H26.6886V2.75439Z" fill="#868B91"/>
<path d="M25.0226 2.75415H23.3555V4.78852H25.0226V2.75415Z" fill="#868B91"/>
<path d="M23.3546 2.75415H21.6875V4.78852H23.3546V2.75415Z" fill="#868B91"/>
<path d="M21.6866 2.75415H20.0195V4.78852H21.6866V2.75415Z" fill="#868B91"/>
<path d="M26.6886 0.716797H25.0215V2.75404H26.6886V0.716797Z" fill="#868B91"/>
<path d="M25.0226 0.716797H23.3555V2.75404H25.0226V0.716797Z" fill="#868B91"/>
</svg>
