<svg width="1090" height="395" viewBox="0 0 1090 395" fill="none" xmlns="http://www.w3.org/2000/svg">
<path fill-rule="evenodd" clip-rule="evenodd" d="M29 367H221V43H206.776V53.1218H213.888V63.2482H36.1088V53.1218H43.2208V43H29V367Z" fill="white"/>
<path fill-rule="evenodd" clip-rule="evenodd" d="M164.288 7.14233V0H85.7153V7.14233H78.573V14.2862H0V394.572H250.002V14.2861H171.432V7.14224L164.288 7.14233ZM57.1446 35.7146H21.4285V373.144H228.574V35.7146H192.861V28.5723H185.717V21.4284H242.861V387.428H7.14234V21.4284H64.2853V28.5723H57.1446V35.7146ZM35.7129 57.143H214.289V49.9992H207.145V42.8585H221.433V366H28.5723V42.8585H42.8568V49.9992H35.7129V57.143ZM164.288 7.14233V14.2862L171.432 14.2861L171.432 21.4285H178.573V28.5723L185.717 28.5723V35.7146H192.861V42.8585H200.005V49.9992H50.0007V42.8585H57.1446V35.7146H64.2853V28.5723H71.4292V21.4284H78.5731L78.573 14.2862L85.7154 14.2861L85.7153 7.14233H164.288Z" fill="black"/>
<path fill-rule="evenodd" clip-rule="evenodd" d="M7.14258 387.285H242.861V21.4297H185.717V28.5735H192.861V35.7158H228.574V373H21.4286V35.7158H57.1448V28.5735H64.2855V21.4297H7.14258L7.14258 387.285Z" fill="#F26C2F"/>
<path fill-rule="evenodd" clip-rule="evenodd" d="M164.288 7.14355H85.7146V14.2874H78.5723V21.4297H71.4285V28.5735H64.2846V35.7158H57.1439V42.8597H50V50.0004H200.004V42.8597H192.86V35.7158H185.716V28.5735H178.572V21.4297H171.431V14.2874H164.288V7.14355Z" fill="#FDBE31"/>
<path d="M91.12 116.505V138H88.21V128.22H76.615V138H73.705V116.505H76.615V126.09H88.21V116.505H91.12ZM103.781 131.16C102.551 131.2 101.501 131.3 100.631 131.46C99.7707 131.61 99.0657 131.81 98.5157 132.06C97.9757 132.31 97.5807 132.605 97.3307 132.945C97.0907 133.285 96.9707 133.665 96.9707 134.085C96.9707 134.485 97.0357 134.83 97.1657 135.12C97.2957 135.41 97.4707 135.65 97.6907 135.84C97.9207 136.02 98.1857 136.155 98.4857 136.245C98.7957 136.325 99.1257 136.365 99.4757 136.365C99.9457 136.365 100.376 136.32 100.766 136.23C101.156 136.13 101.521 135.99 101.861 135.81C102.211 135.63 102.541 135.415 102.851 135.165C103.171 134.915 103.481 134.63 103.781 134.31V131.16ZM95.1557 124.95C95.9957 124.14 96.9007 123.535 97.8707 123.135C98.8407 122.735 99.9157 122.535 101.096 122.535C101.946 122.535 102.701 122.675 103.361 122.955C104.021 123.235 104.576 123.625 105.026 124.125C105.476 124.625 105.816 125.23 106.046 125.94C106.276 126.65 106.391 127.43 106.391 128.28V138H105.206C104.946 138 104.746 137.96 104.606 137.88C104.466 137.79 104.356 137.62 104.276 137.37L103.976 135.93C103.576 136.3 103.186 136.63 102.806 136.92C102.426 137.2 102.026 137.44 101.606 137.64C101.186 137.83 100.736 137.975 100.256 138.075C99.7857 138.185 99.2607 138.24 98.6807 138.24C98.0907 138.24 97.5357 138.16 97.0157 138C96.4957 137.83 96.0407 137.58 95.6507 137.25C95.2707 136.92 94.9657 136.505 94.7357 136.005C94.5157 135.495 94.4057 134.895 94.4057 134.205C94.4057 133.605 94.5707 133.03 94.9007 132.48C95.2307 131.92 95.7657 131.425 96.5057 130.995C97.2457 130.565 98.2107 130.215 99.4007 129.945C100.591 129.665 102.051 129.505 103.781 129.465V128.28C103.781 127.1 103.526 126.21 103.016 125.61C102.506 125 101.761 124.695 100.781 124.695C100.121 124.695 99.5657 124.78 99.1157 124.95C98.6757 125.11 98.2907 125.295 97.9607 125.505C97.6407 125.705 97.3607 125.89 97.1207 126.06C96.8907 126.22 96.6607 126.3 96.4307 126.3C96.2507 126.3 96.0957 126.255 95.9657 126.165C95.8357 126.065 95.7257 125.945 95.6357 125.805L95.1557 124.95ZM112.993 125.85C113.473 124.81 114.063 124 114.763 123.42C115.463 122.83 116.318 122.535 117.328 122.535C117.648 122.535 117.953 122.57 118.243 122.64C118.543 122.71 118.808 122.82 119.038 122.97L118.843 124.965C118.783 125.215 118.633 125.34 118.393 125.34C118.253 125.34 118.048 125.31 117.778 125.25C117.508 125.19 117.203 125.16 116.863 125.16C116.383 125.16 115.953 125.23 115.573 125.37C115.203 125.51 114.868 125.72 114.568 126C114.278 126.27 114.013 126.61 113.773 127.02C113.543 127.42 113.333 127.88 113.143 128.4V138H110.458V122.805H111.988C112.278 122.805 112.478 122.86 112.588 122.97C112.698 123.08 112.773 123.27 112.813 123.54L112.993 125.85ZM121.386 138V122.805H122.991C123.371 122.805 123.606 122.99 123.696 123.36L123.891 124.92C124.451 124.23 125.081 123.665 125.781 123.225C126.481 122.785 127.291 122.565 128.211 122.565C129.231 122.565 130.056 122.85 130.686 123.42C131.326 123.99 131.786 124.76 132.066 125.73C132.286 125.18 132.566 124.705 132.906 124.305C133.256 123.905 133.646 123.575 134.076 123.315C134.506 123.055 134.961 122.865 135.441 122.745C135.931 122.625 136.426 122.565 136.926 122.565C137.726 122.565 138.436 122.695 139.056 122.955C139.686 123.205 140.216 123.575 140.646 124.065C141.086 124.555 141.421 125.16 141.651 125.88C141.881 126.59 141.996 127.405 141.996 128.325V138H139.311V128.325C139.311 127.135 139.051 126.235 138.531 125.625C138.011 125.005 137.261 124.695 136.281 124.695C135.841 124.695 135.421 124.775 135.021 124.935C134.631 125.085 134.286 125.31 133.986 125.61C133.686 125.91 133.446 126.29 133.266 126.75C133.096 127.2 133.011 127.725 133.011 128.325V138H130.326V128.325C130.326 127.105 130.081 126.195 129.591 125.595C129.101 124.995 128.386 124.695 127.446 124.695C126.786 124.695 126.176 124.875 125.616 125.235C125.056 125.585 124.541 126.065 124.071 126.675V138H121.386ZM146.809 138V125.085L145.129 124.89C144.919 124.84 144.744 124.765 144.604 124.665C144.474 124.555 144.409 124.4 144.409 124.2V123.105H146.809V121.635C146.809 120.765 146.929 119.995 147.169 119.325C147.419 118.645 147.769 118.075 148.219 117.615C148.679 117.145 149.229 116.79 149.869 116.55C150.509 116.31 151.229 116.19 152.029 116.19C152.709 116.19 153.334 116.29 153.904 116.49L153.844 117.825C153.824 118.065 153.689 118.195 153.439 118.215C153.199 118.235 152.874 118.245 152.464 118.245C152.004 118.245 151.584 118.305 151.204 118.425C150.834 118.545 150.514 118.74 150.244 119.01C149.974 119.28 149.764 119.635 149.614 120.075C149.474 120.515 149.404 121.06 149.404 121.71V123.105H153.784V125.04H149.494V138H146.809ZM168.832 122.805V138H167.242C166.862 138 166.622 137.815 166.522 137.445L166.312 135.81C165.652 136.54 164.912 137.13 164.092 137.58C163.272 138.02 162.332 138.24 161.272 138.24C160.442 138.24 159.707 138.105 159.067 137.835C158.437 137.555 157.907 137.165 157.477 136.665C157.047 136.165 156.722 135.56 156.502 134.85C156.292 134.14 156.187 133.355 156.187 132.495V122.805H158.857V132.495C158.857 133.645 159.117 134.535 159.637 135.165C160.167 135.795 160.972 136.11 162.052 136.11C162.842 136.11 163.577 135.925 164.257 135.555C164.947 135.175 165.582 134.655 166.162 133.995V122.805H168.832ZM175.825 115.905V138H173.155V115.905H175.825ZM77.3123 166.02L73.9373 157.275C73.8373 157.015 73.7323 156.715 73.6223 156.375C73.5123 156.025 73.4073 155.655 73.3073 155.265C73.0973 156.075 72.8823 156.75 72.6623 157.29L69.2873 166.02H77.3123ZM83.3723 174H81.1223C80.8623 174 80.6523 173.935 80.4923 173.805C80.3323 173.675 80.2123 173.51 80.1323 173.31L78.1223 168.12H68.4773L66.4673 173.31C66.4073 173.49 66.2923 173.65 66.1223 173.79C65.9523 173.93 65.7423 174 65.4923 174H63.2423L71.8373 152.505H74.7773L83.3723 174ZM95.7349 161.505C95.6549 161.615 95.5749 161.7 95.4949 161.76C95.4149 161.82 95.3049 161.85 95.1649 161.85C95.0149 161.85 94.8499 161.79 94.6699 161.67C94.4899 161.54 94.2649 161.4 93.9949 161.25C93.7349 161.1 93.4099 160.965 93.0199 160.845C92.6399 160.715 92.1699 160.65 91.6099 160.65C90.8599 160.65 90.1999 160.785 89.6299 161.055C89.0599 161.315 88.5799 161.695 88.1899 162.195C87.8099 162.695 87.5199 163.3 87.3199 164.01C87.1299 164.72 87.0349 165.515 87.0349 166.395C87.0349 167.315 87.1399 168.135 87.3499 168.855C87.5599 169.565 87.8549 170.165 88.2349 170.655C88.6249 171.135 89.0899 171.505 89.6299 171.765C90.1799 172.015 90.7949 172.14 91.4749 172.14C92.1249 172.14 92.6599 172.065 93.0799 171.915C93.4999 171.755 93.8449 171.58 94.1149 171.39C94.3949 171.2 94.6249 171.03 94.8049 170.88C94.9949 170.72 95.1799 170.64 95.3599 170.64C95.5799 170.64 95.7499 170.725 95.8699 170.895L96.6199 171.87C96.2899 172.28 95.9149 172.63 95.4949 172.92C95.0749 173.21 94.6199 173.455 94.1299 173.655C93.6499 173.845 93.1449 173.985 92.6149 174.075C92.0849 174.165 91.5449 174.21 90.9949 174.21C90.0449 174.21 89.1599 174.035 88.3399 173.685C87.5299 173.335 86.8249 172.83 86.2249 172.17C85.6249 171.5 85.1549 170.68 84.8149 169.71C84.4749 168.74 84.3049 167.635 84.3049 166.395C84.3049 165.265 84.4599 164.22 84.7699 163.26C85.0899 162.3 85.5499 161.475 86.1499 160.785C86.7599 160.085 87.5049 159.54 88.3849 159.15C89.2749 158.76 90.2949 158.565 91.4449 158.565C92.5149 158.565 93.4549 158.74 94.2649 159.09C95.0849 159.43 95.8099 159.915 96.4399 160.545L95.7349 161.505ZM113.586 174H110.916V161.04H103.086V170.16C103.086 170.8 103.241 171.275 103.551 171.585C103.861 171.895 104.261 172.05 104.751 172.05C105.031 172.05 105.271 172.015 105.471 171.945C105.681 171.865 105.861 171.78 106.011 171.69C106.161 171.6 106.286 171.52 106.386 171.45C106.496 171.37 106.591 171.33 106.671 171.33C106.811 171.33 106.936 171.415 107.046 171.585L107.826 172.86C107.366 173.29 106.811 173.63 106.161 173.88C105.511 174.12 104.841 174.24 104.151 174.24C102.951 174.24 102.026 173.905 101.376 173.235C100.736 172.565 100.416 171.6 100.416 170.34V161.04H98.5861C98.4261 161.04 98.2911 160.995 98.1811 160.905C98.0711 160.805 98.0161 160.655 98.0161 160.455V159.39L100.506 159.06L101.121 154.38C101.151 154.23 101.216 154.11 101.316 154.02C101.426 153.92 101.566 153.87 101.736 153.87H103.086V159.105H113.586V174ZM114.246 153.93C114.246 154.19 114.191 154.435 114.081 154.665C113.981 154.885 113.841 155.08 113.661 155.25C113.491 155.42 113.291 155.555 113.061 155.655C112.831 155.755 112.586 155.805 112.326 155.805C112.066 155.805 111.821 155.755 111.591 155.655C111.371 155.555 111.176 155.42 111.006 155.25C110.836 155.08 110.701 154.885 110.601 154.665C110.501 154.435 110.451 154.19 110.451 153.93C110.451 153.67 110.501 153.425 110.601 153.195C110.701 152.955 110.836 152.75 111.006 152.58C111.176 152.4 111.371 152.26 111.591 152.16C111.821 152.06 112.066 152.01 112.326 152.01C112.586 152.01 112.831 152.06 113.061 152.16C113.291 152.26 113.491 152.4 113.661 152.58C113.841 152.75 113.981 152.955 114.081 153.195C114.191 153.425 114.246 153.67 114.246 153.93ZM130.992 158.805L124.797 174H122.397L116.202 158.805H118.377C118.597 158.805 118.777 158.86 118.917 158.97C119.057 159.08 119.152 159.21 119.202 159.36L123.057 169.14C123.177 169.51 123.282 169.87 123.372 170.22C123.462 170.57 123.547 170.92 123.627 171.27C123.707 170.92 123.792 170.57 123.882 170.22C123.972 169.87 124.082 169.51 124.212 169.14L128.112 159.36C128.172 159.2 128.272 159.07 128.412 158.97C128.552 158.86 128.717 158.805 128.907 158.805H130.992ZM136.261 158.805V174H133.591V158.805H136.261ZM136.831 154.035C136.831 154.295 136.776 154.54 136.666 154.77C136.566 154.99 136.426 155.19 136.246 155.37C136.076 155.54 135.871 155.675 135.631 155.775C135.401 155.875 135.156 155.925 134.896 155.925C134.636 155.925 134.391 155.875 134.161 155.775C133.941 155.675 133.746 155.54 133.576 155.37C133.406 155.19 133.271 154.99 133.171 154.77C133.071 154.54 133.021 154.295 133.021 154.035C133.021 153.775 133.071 153.53 133.171 153.3C133.271 153.06 133.406 152.855 133.576 152.685C133.746 152.505 133.941 152.365 134.161 152.265C134.391 152.165 134.636 152.115 134.896 152.115C135.156 152.115 135.401 152.165 135.631 152.265C135.871 152.365 136.076 152.505 136.246 152.685C136.426 152.855 136.566 153.06 136.666 153.3C136.776 153.53 136.831 153.775 136.831 154.035ZM154.748 174H152.078V161.04H144.248V170.16C144.248 170.8 144.403 171.275 144.713 171.585C145.023 171.895 145.423 172.05 145.913 172.05C146.193 172.05 146.433 172.015 146.633 171.945C146.843 171.865 147.023 171.78 147.173 171.69C147.323 171.6 147.448 171.52 147.548 171.45C147.658 171.37 147.753 171.33 147.833 171.33C147.973 171.33 148.098 171.415 148.208 171.585L148.988 172.86C148.528 173.29 147.973 173.63 147.323 173.88C146.673 174.12 146.003 174.24 145.313 174.24C144.113 174.24 143.188 173.905 142.538 173.235C141.898 172.565 141.578 171.6 141.578 170.34V161.04H139.748C139.588 161.04 139.453 160.995 139.343 160.905C139.233 160.805 139.178 160.655 139.178 160.455V159.39L141.668 159.06L142.283 154.38C142.313 154.23 142.378 154.11 142.478 154.02C142.588 153.92 142.728 153.87 142.898 153.87H144.248V159.105H154.748V174ZM155.408 153.93C155.408 154.19 155.353 154.435 155.243 154.665C155.143 154.885 155.003 155.08 154.823 155.25C154.653 155.42 154.453 155.555 154.223 155.655C153.993 155.755 153.748 155.805 153.488 155.805C153.228 155.805 152.983 155.755 152.753 155.655C152.533 155.555 152.338 155.42 152.168 155.25C151.998 155.08 151.863 154.885 151.763 154.665C151.663 154.435 151.613 154.19 151.613 153.93C151.613 153.67 151.663 153.425 151.763 153.195C151.863 152.955 151.998 152.75 152.168 152.58C152.338 152.4 152.533 152.26 152.753 152.16C152.983 152.06 153.228 152.01 153.488 152.01C153.748 152.01 153.993 152.06 154.223 152.16C154.453 152.26 154.653 152.4 154.823 152.58C155.003 152.75 155.143 152.955 155.243 153.195C155.353 153.425 155.408 153.67 155.408 153.93ZM169.305 164.745C169.305 164.125 169.215 163.56 169.035 163.05C168.865 162.53 168.61 162.085 168.27 161.715C167.94 161.335 167.535 161.045 167.055 160.845C166.575 160.635 166.03 160.53 165.42 160.53C164.14 160.53 163.125 160.905 162.375 161.655C161.635 162.395 161.175 163.425 160.995 164.745H169.305ZM171.465 171.87C171.135 172.27 170.74 172.62 170.28 172.92C169.82 173.21 169.325 173.45 168.795 173.64C168.275 173.83 167.735 173.97 167.175 174.06C166.615 174.16 166.06 174.21 165.51 174.21C164.46 174.21 163.49 174.035 162.6 173.685C161.72 173.325 160.955 172.805 160.305 172.125C159.665 171.435 159.165 170.585 158.805 169.575C158.445 168.565 158.265 167.405 158.265 166.095C158.265 165.035 158.425 164.045 158.745 163.125C159.075 162.205 159.545 161.41 160.155 160.74C160.765 160.06 161.51 159.53 162.39 159.15C163.27 158.76 164.26 158.565 165.36 158.565C166.27 158.565 167.11 158.72 167.88 159.03C168.66 159.33 169.33 159.77 169.89 160.35C170.46 160.92 170.905 161.63 171.225 162.48C171.545 163.32 171.705 164.28 171.705 165.36C171.705 165.78 171.66 166.06 171.57 166.2C171.48 166.34 171.31 166.41 171.06 166.41H160.905C160.935 167.37 161.065 168.205 161.295 168.915C161.535 169.625 161.865 170.22 162.285 170.7C162.705 171.17 163.205 171.525 163.785 171.765C164.365 171.995 165.015 172.11 165.735 172.11C166.405 172.11 166.98 172.035 167.46 171.885C167.95 171.725 168.37 171.555 168.72 171.375C169.07 171.195 169.36 171.03 169.59 170.88C169.83 170.72 170.035 170.64 170.205 170.64C170.425 170.64 170.595 170.725 170.715 170.895L171.465 171.87ZM183.834 161.31C183.714 161.53 183.529 161.64 183.279 161.64C183.129 161.64 182.959 161.585 182.769 161.475C182.579 161.365 182.344 161.245 182.064 161.115C181.794 160.975 181.469 160.85 181.089 160.74C180.709 160.62 180.259 160.56 179.739 160.56C179.289 160.56 178.884 160.62 178.524 160.74C178.164 160.85 177.854 161.005 177.594 161.205C177.344 161.405 177.149 161.64 177.009 161.91C176.879 162.17 176.814 162.455 176.814 162.765C176.814 163.155 176.924 163.48 177.144 163.74C177.374 164 177.674 164.225 178.044 164.415C178.414 164.605 178.834 164.775 179.304 164.925C179.774 165.065 180.254 165.22 180.744 165.39C181.244 165.55 181.729 165.73 182.199 165.93C182.669 166.13 183.089 166.38 183.459 166.68C183.829 166.98 184.124 167.35 184.344 167.79C184.574 168.22 184.689 168.74 184.689 169.35C184.689 170.05 184.564 170.7 184.314 171.3C184.064 171.89 183.694 172.405 183.204 172.845C182.714 173.275 182.114 173.615 181.404 173.865C180.694 174.115 179.874 174.24 178.944 174.24C177.884 174.24 176.924 174.07 176.064 173.73C175.204 173.38 174.474 172.935 173.874 172.395L174.504 171.375C174.584 171.245 174.679 171.145 174.789 171.075C174.899 171.005 175.039 170.97 175.209 170.97C175.389 170.97 175.579 171.04 175.779 171.18C175.979 171.32 176.219 171.475 176.499 171.645C176.789 171.815 177.139 171.97 177.549 172.11C177.959 172.25 178.469 172.32 179.079 172.32C179.599 172.32 180.054 172.255 180.444 172.125C180.834 171.985 181.159 171.8 181.419 171.57C181.679 171.34 181.869 171.075 181.989 170.775C182.119 170.475 182.184 170.155 182.184 169.815C182.184 169.395 182.069 169.05 181.839 168.78C181.619 168.5 181.324 168.265 180.954 168.075C180.584 167.875 180.159 167.705 179.679 167.565C179.209 167.415 178.724 167.26 178.224 167.1C177.734 166.94 177.249 166.76 176.769 166.56C176.299 166.35 175.879 166.09 175.509 165.78C175.139 165.47 174.839 165.09 174.609 164.64C174.389 164.18 174.279 163.625 174.279 162.975C174.279 162.395 174.399 161.84 174.639 161.31C174.879 160.77 175.229 160.3 175.689 159.9C176.149 159.49 176.714 159.165 177.384 158.925C178.054 158.685 178.819 158.565 179.679 158.565C180.679 158.565 181.574 158.725 182.364 159.045C183.164 159.355 183.854 159.785 184.434 160.335L183.834 161.31Z" fill="black"/>
<path d="M160.689 236.228C163.75 236.284 166.822 236.267 169.884 236.236L169.911 245.494L176.925 245.513L176.922 252.599C174.588 252.617 172.255 252.62 169.921 252.609C169.884 250.24 169.919 247.865 169.919 245.495C166.832 245.551 163.735 245.516 160.648 245.503L160.636 239.271C160.634 238.3 160.518 237.175 160.689 236.228Z" fill="#151010"/>
<path d="M176.92 252.599L186.022 252.606L185.988 291.365C185.989 297.128 186.101 302.893 186.039 308.657L176.967 308.672C176.89 309.525 176.93 310.408 176.929 311.267L176.93 315.741L169.929 315.746L169.91 315.7C170.023 313.373 169.917 310.99 169.917 308.657L176.942 308.667L176.949 299.312C178.534 299.291 180.123 299.309 181.709 299.31L181.696 261.935C180.105 261.939 178.514 261.932 176.923 261.913C176.875 258.811 176.92 255.701 176.92 252.599Z" fill="#151010"/>
<path d="M153.549 324.998C155.917 324.969 158.289 325.041 160.657 324.964L160.636 332.026L153.572 332.032L153.573 341.124C147.152 341.041 140.72 341.12 134.298 341.12L97.3877 341.105C97.3035 338.09 97.3541 335.053 97.3683 332.037L90.3963 332.032C90.3879 329.684 90.3307 327.323 90.4043 324.976C92.74 325.028 95.0795 324.943 97.4141 325.003C97.4259 327.348 97.4209 329.693 97.3993 332.038L103.624 332.037C104.644 332.038 105.757 331.954 106.769 332.076L106.771 336.775L144.276 336.784L144.285 332.013C147.367 331.939 150.465 332.002 153.549 331.999C153.513 329.667 153.547 327.331 153.549 324.998Z" fill="#151010"/>
<path d="M97.3623 220.014L134.43 220.04C140.807 220.039 147.2 220.126 153.574 220L153.57 229.176C155.923 229.212 158.28 229.181 160.634 229.18C160.629 231.509 160.559 233.862 160.661 236.188C158.294 236.209 155.927 236.206 153.56 236.179L153.565 229.218C150.454 229.236 147.343 229.239 144.232 229.225L144.232 224.284L106.773 224.274L106.769 229.224C103.664 229.225 100.547 229.284 97.4442 229.206C97.4816 231.553 97.491 233.9 97.4725 236.246L90.3979 236.242L90.3993 245.586L81.1008 245.574C81.1215 247.921 81.1148 250.268 81.0808 252.614C78.7625 252.636 76.4441 252.635 74.1258 252.612L74.1324 261.945L69.2687 261.947L69.2509 299.321C70.8781 299.32 72.5086 299.299 74.1355 299.321L74.1327 308.665C76.4603 308.66 78.7911 308.629 81.1185 308.66C81.1227 311.007 81.019 313.404 81.1199 315.744L74.0742 315.72C74.0907 313.372 74.0933 311.023 74.0818 308.675L65.0088 308.666L65 252.601L74.0611 252.591C74.0157 250.235 74.054 247.872 74.0536 245.516L81.0721 245.508C81.0372 242.385 81.0724 239.257 81.0736 236.134L90.3446 236.16L90.343 229.169L97.386 229.164C97.2768 226.127 97.3588 223.055 97.3623 220.014Z" fill="#151010"/>
<path d="M169.921 252.609C172.254 252.62 174.588 252.617 176.922 252.599C176.921 255.701 176.877 258.811 176.925 261.912C178.516 261.932 180.107 261.939 181.697 261.935L181.711 299.31C180.125 299.309 178.536 299.291 176.951 299.312L176.944 308.667L169.919 308.657C169.919 310.99 170.025 313.373 169.912 315.7L169.931 315.746L169.92 324.879L164.131 324.882C162.995 324.882 161.832 324.836 160.699 324.92L160.658 324.964C158.29 325.041 155.918 324.969 153.55 324.998C153.547 327.331 153.514 329.667 153.55 331.999C150.466 332.002 147.368 331.939 144.286 332.014L144.277 336.784L106.772 336.775L106.77 332.076C109.139 332.29 112.094 332.172 114.51 332.152C114.516 329.042 114.493 325.933 114.443 322.824L120.448 322.81C121.658 322.808 122.88 322.844 124.089 322.774C122.675 322.709 121.235 322.759 119.818 322.759L111.586 322.775L111.565 315.827L139.478 315.792C139.382 313.445 139.461 311.086 139.432 308.738L144.556 308.728C144.549 307.195 144.559 305.662 144.585 304.129L153.637 304.128L153.586 294.781L158.454 294.771V285.331C159.936 285.359 161.425 285.327 162.907 285.322L162.909 266.557C162.435 266.561 161.964 266.569 161.491 266.53C161.554 265.758 161.514 264.95 161.515 264.174L161.51 259.604L169.936 259.61L169.921 252.609Z" fill="#E70D12"/>
<path d="M169.912 315.7L169.931 315.746L169.92 324.879L164.131 324.882C162.995 324.882 161.832 324.836 160.699 324.92C160.457 324.204 160.646 317.04 160.649 315.692L169.912 315.7Z" fill="#151010"/>
<path d="M161.491 266.53C163.53 266.373 165.661 266.498 167.71 266.505L167.719 294.796L160.694 294.789L160.722 304.138L153.641 304.128L153.64 308.764L146.277 308.762L146.291 315.828L139.62 315.822L139.605 322.781L129.208 322.762C127.518 322.761 125.773 322.674 124.088 322.773C122.674 322.708 121.235 322.758 119.818 322.758L111.585 322.774L111.564 315.826L139.478 315.791C139.382 313.445 139.461 311.086 139.432 308.737L144.556 308.728C144.549 307.194 144.558 305.661 144.584 304.128L153.637 304.127L153.585 294.78L158.454 294.77V285.33C159.936 285.358 161.425 285.327 162.907 285.322L162.909 266.556C162.435 266.561 161.964 266.569 161.491 266.53Z" fill="#B6C7C0"/>
<path d="M106.773 224.273L144.231 224.284L144.231 229.224C147.342 229.238 150.453 229.236 153.564 229.217L153.559 236.178C155.926 236.205 158.293 236.208 160.66 236.187L160.688 236.227C160.516 237.175 160.633 238.299 160.635 239.27L160.646 245.503C163.734 245.516 166.831 245.55 169.917 245.494C169.917 247.864 169.883 250.239 169.92 252.609L169.935 259.609L161.508 259.604L161.514 264.174C161.513 264.95 161.553 265.757 161.489 266.53C161.389 265.735 161.442 264.894 161.443 264.092L161.45 259.61L153.57 259.611L153.567 252.594L146.526 252.593C146.543 250.236 146.542 247.879 146.524 245.522L139.546 245.518L139.539 238.585L111.511 238.584L111.515 245.533C109.177 245.543 106.836 245.576 104.498 245.555L104.496 252.594L97.4918 252.593L97.4955 259.597C95.1362 259.599 92.7733 259.572 90.4145 259.605L90.411 266.554L83.4093 266.606C83.3878 275.95 83.2891 285.313 83.4137 294.655L90.4201 294.649L90.4294 304.006L97.4267 304.009L97.4374 308.753L104.58 308.766C104.575 311.121 104.584 313.476 104.606 315.831C106.924 315.829 109.245 315.801 111.563 315.826L111.584 322.774L119.817 322.758C121.234 322.758 122.673 322.708 124.087 322.773C122.879 322.843 121.657 322.808 120.447 322.809L114.441 322.824C114.492 325.933 114.514 329.042 114.508 332.151C112.093 332.172 109.137 332.289 106.768 332.076C105.757 331.954 104.644 332.038 103.624 332.037L97.3989 332.038C97.4206 329.693 97.4256 327.348 97.4137 325.003C95.0791 324.942 92.7397 325.028 90.404 324.975L90.3745 324.912C89.3292 324.798 88.2008 324.875 87.1466 324.875H81.1393C81.151 321.831 81.1442 318.787 81.119 315.744C81.0181 313.404 81.1218 311.006 81.1176 308.659C78.7902 308.628 76.4594 308.66 74.1318 308.664L74.1346 299.321C72.5077 299.298 70.8772 299.319 69.25 299.32L69.2678 261.946L74.1315 261.944L74.125 252.612C76.4432 252.635 78.7616 252.636 81.0799 252.614C81.1139 250.267 81.1206 247.92 81.0999 245.573L90.3984 245.585L90.397 236.241L97.4716 236.246C97.4901 233.899 97.4807 231.552 97.4433 229.206C100.547 229.283 103.664 229.224 106.768 229.223L106.773 224.273Z" fill="#F73131"/>
<path d="M81.1211 315.744L90.4242 315.749L90.4302 322.039C90.43 322.913 90.5561 324.065 90.3767 324.913C89.3313 324.798 88.203 324.876 87.1487 324.876H81.1414C81.1531 321.832 81.1463 318.788 81.1211 315.744Z" fill="#151010"/>
<path d="M111.511 238.585L139.539 238.586L139.545 245.518L146.523 245.522C146.542 247.879 146.542 250.237 146.526 252.594L153.566 252.595L153.569 259.611L161.45 259.61L161.442 264.093C161.442 264.894 161.388 265.736 161.489 266.53C161.962 266.569 162.434 266.562 162.908 266.557L162.905 285.322C161.423 285.328 159.935 285.359 158.453 285.331V294.771L153.584 294.781L153.636 304.128L144.583 304.129C144.557 305.662 144.547 307.195 144.554 308.728L139.43 308.738C139.459 311.086 139.38 313.445 139.477 315.792L111.563 315.827C109.245 315.801 106.924 315.83 104.606 315.832C104.584 313.477 104.575 311.122 104.58 308.766L97.4371 308.754L97.4264 304.01L90.4291 304.007L90.4198 294.65L83.4134 294.656C83.2888 285.314 83.3874 275.951 83.409 266.607L90.4107 266.554L90.4141 259.606C92.773 259.573 95.1358 259.6 97.4951 259.598L97.4915 252.594L104.496 252.595L104.498 245.556C106.836 245.577 109.177 245.544 111.515 245.533L111.511 238.585Z" fill="white"/>
<path d="M130.211 261.959L144.081 261.959L144.088 275.963L137.258 275.961C137.232 279.097 137.233 282.233 137.263 285.368L144.078 285.397C144.079 286.814 144.17 298.878 144.08 299.108C144.062 299.155 144.013 299.183 143.98 299.221L130.186 299.188C130.198 296.866 130.188 294.544 130.157 292.222L120.948 292.245C120.906 294.571 120.934 296.903 120.929 299.229C116.25 299.11 111.548 299.196 106.866 299.189L106.864 285.188L113.856 285.175L113.856 275.975C111.536 275.922 109.206 275.967 106.885 275.966C106.73 271.313 106.853 266.618 106.853 261.961L120.927 261.967L120.926 268.957L130.209 268.958L130.211 261.959Z" fill="#E70D12"/>
<path fill-rule="evenodd" clip-rule="evenodd" d="M309 367H501V43H486.776V53.1218H493.888V63.2482H316.109V53.1218H323.221V43H309V367Z" fill="white"/>
<path fill-rule="evenodd" clip-rule="evenodd" d="M444.288 7.14233V0H365.715V7.14233H358.573V14.2862H280V394.572H530.002V14.2861H451.432V7.14224L444.288 7.14233ZM337.145 35.7146H301.428V373.144H508.574V35.7146H472.861V28.5723H465.717V21.4284H522.861V387.428H287.142V21.4284H344.285V28.5723H337.145V35.7146ZM315.713 57.143H494.289V49.9992H487.145V42.8585H501.433V366H308.572V42.8585H322.857V49.9992H315.713V57.143ZM444.288 7.14233V14.2862L451.432 14.2861L451.432 21.4285H458.573V28.5723L465.717 28.5723V35.7146H472.861V42.8585H480.005V49.9992H330.001V42.8585H337.145V35.7146H344.285V28.5723H351.429V21.4284H358.573L358.573 14.2862L365.715 14.2861L365.715 7.14233H444.288Z" fill="black"/>
<path fill-rule="evenodd" clip-rule="evenodd" d="M287.143 387.285H522.861V21.4297H465.717V28.5735H472.861V35.7158H508.574V373H301.429V35.7158H337.145V28.5735H344.286V21.4297H287.143L287.143 387.285Z" fill="#F26C2F"/>
<path fill-rule="evenodd" clip-rule="evenodd" d="M444.288 7.14355H365.715V14.2874H358.572V21.4297H351.428V28.5735H344.285V35.7158H337.144V42.8597H330V50.0004H480.004V42.8597H472.86V35.7158H465.716V28.5735H458.572V21.4297H451.431V14.2874H444.288V7.14355Z" fill="#FDBE31"/>
<path d="M374.269 134.505L367.564 156H364.954L359.509 139.605C359.459 139.445 359.409 139.275 359.359 139.095C359.319 138.915 359.274 138.725 359.224 138.525C359.174 138.725 359.124 138.915 359.074 139.095C359.024 139.275 358.974 139.445 358.924 139.605L353.449 156H350.839L344.134 134.505H346.549C346.809 134.505 347.024 134.57 347.194 134.7C347.374 134.83 347.489 134.995 347.539 135.195L351.979 150.135C352.049 150.405 352.114 150.695 352.174 151.005C352.244 151.315 352.309 151.645 352.369 151.995C352.439 151.645 352.509 151.315 352.579 151.005C352.659 150.685 352.744 150.395 352.834 150.135L357.889 135.195C357.949 135.025 358.064 134.87 358.234 134.73C358.414 134.58 358.629 134.505 358.879 134.505H359.719C359.979 134.505 360.189 134.57 360.349 134.7C360.509 134.83 360.629 134.995 360.709 135.195L365.749 150.135C365.839 150.395 365.919 150.675 365.989 150.975C366.069 151.275 366.144 151.59 366.214 151.92C366.264 151.59 366.319 151.275 366.379 150.975C366.439 150.675 366.504 150.395 366.574 150.135L371.029 135.195C371.079 135.015 371.189 134.855 371.359 134.715C371.539 134.575 371.754 134.505 372.004 134.505H374.269ZM385.309 146.745C385.309 146.125 385.219 145.56 385.039 145.05C384.869 144.53 384.614 144.085 384.274 143.715C383.944 143.335 383.539 143.045 383.059 142.845C382.579 142.635 382.034 142.53 381.424 142.53C380.144 142.53 379.129 142.905 378.379 143.655C377.639 144.395 377.179 145.425 376.999 146.745H385.309ZM387.469 153.87C387.139 154.27 386.744 154.62 386.284 154.92C385.824 155.21 385.329 155.45 384.799 155.64C384.279 155.83 383.739 155.97 383.179 156.06C382.619 156.16 382.064 156.21 381.514 156.21C380.464 156.21 379.494 156.035 378.604 155.685C377.724 155.325 376.959 154.805 376.309 154.125C375.669 153.435 375.169 152.585 374.809 151.575C374.449 150.565 374.269 149.405 374.269 148.095C374.269 147.035 374.429 146.045 374.749 145.125C375.079 144.205 375.549 143.41 376.159 142.74C376.769 142.06 377.514 141.53 378.394 141.15C379.274 140.76 380.264 140.565 381.364 140.565C382.274 140.565 383.114 140.72 383.884 141.03C384.664 141.33 385.334 141.77 385.894 142.35C386.464 142.92 386.909 143.63 387.229 144.48C387.549 145.32 387.709 146.28 387.709 147.36C387.709 147.78 387.664 148.06 387.574 148.2C387.484 148.34 387.314 148.41 387.064 148.41H376.909C376.939 149.37 377.069 150.205 377.299 150.915C377.539 151.625 377.869 152.22 378.289 152.7C378.709 153.17 379.209 153.525 379.789 153.765C380.369 153.995 381.019 154.11 381.739 154.11C382.409 154.11 382.984 154.035 383.464 153.885C383.954 153.725 384.374 153.555 384.724 153.375C385.074 153.195 385.364 153.03 385.594 152.88C385.834 152.72 386.039 152.64 386.209 152.64C386.429 152.64 386.599 152.725 386.719 152.895L387.469 153.87ZM399.224 149.16C397.994 149.2 396.944 149.3 396.074 149.46C395.214 149.61 394.509 149.81 393.959 150.06C393.419 150.31 393.024 150.605 392.774 150.945C392.534 151.285 392.414 151.665 392.414 152.085C392.414 152.485 392.479 152.83 392.609 153.12C392.739 153.41 392.914 153.65 393.134 153.84C393.364 154.02 393.629 154.155 393.929 154.245C394.239 154.325 394.569 154.365 394.919 154.365C395.389 154.365 395.819 154.32 396.209 154.23C396.599 154.13 396.964 153.99 397.304 153.81C397.654 153.63 397.984 153.415 398.294 153.165C398.614 152.915 398.924 152.63 399.224 152.31V149.16ZM390.599 142.95C391.439 142.14 392.344 141.535 393.314 141.135C394.284 140.735 395.359 140.535 396.539 140.535C397.389 140.535 398.144 140.675 398.804 140.955C399.464 141.235 400.019 141.625 400.469 142.125C400.919 142.625 401.259 143.23 401.489 143.94C401.719 144.65 401.834 145.43 401.834 146.28V156H400.649C400.389 156 400.189 155.96 400.049 155.88C399.909 155.79 399.799 155.62 399.719 155.37L399.419 153.93C399.019 154.3 398.629 154.63 398.249 154.92C397.869 155.2 397.469 155.44 397.049 155.64C396.629 155.83 396.179 155.975 395.699 156.075C395.229 156.185 394.704 156.24 394.124 156.24C393.534 156.24 392.979 156.16 392.459 156C391.939 155.83 391.484 155.58 391.094 155.25C390.714 154.92 390.409 154.505 390.179 154.005C389.959 153.495 389.849 152.895 389.849 152.205C389.849 151.605 390.014 151.03 390.344 150.48C390.674 149.92 391.209 149.425 391.949 148.995C392.689 148.565 393.654 148.215 394.844 147.945C396.034 147.665 397.494 147.505 399.224 147.465V146.28C399.224 145.1 398.969 144.21 398.459 143.61C397.949 143 397.204 142.695 396.224 142.695C395.564 142.695 395.009 142.78 394.559 142.95C394.119 143.11 393.734 143.295 393.404 143.505C393.084 143.705 392.804 143.89 392.564 144.06C392.334 144.22 392.104 144.3 391.874 144.3C391.694 144.3 391.539 144.255 391.409 144.165C391.279 144.065 391.169 143.945 391.079 143.805L390.599 142.95ZM408.586 152.34C409.076 153 409.611 153.465 410.191 153.735C410.771 154.005 411.421 154.14 412.141 154.14C413.561 154.14 414.651 153.635 415.411 152.625C416.171 151.615 416.551 150.175 416.551 148.305C416.551 147.315 416.461 146.465 416.281 145.755C416.111 145.045 415.861 144.465 415.531 144.015C415.201 143.555 414.796 143.22 414.316 143.01C413.836 142.8 413.291 142.695 412.681 142.695C411.811 142.695 411.046 142.895 410.386 143.295C409.736 143.695 409.136 144.26 408.586 144.99V152.34ZM408.451 143.16C409.091 142.37 409.831 141.735 410.671 141.255C411.511 140.775 412.471 140.535 413.551 140.535C414.431 140.535 415.226 140.705 415.936 141.045C416.646 141.375 417.251 141.87 417.751 142.53C418.251 143.18 418.636 143.99 418.906 144.96C419.176 145.93 419.311 147.045 419.311 148.305C419.311 149.425 419.161 150.47 418.861 151.44C418.561 152.4 418.126 153.235 417.556 153.945C416.996 154.645 416.306 155.2 415.486 155.61C414.676 156.01 413.761 156.21 412.741 156.21C411.811 156.21 411.011 156.055 410.341 155.745C409.681 155.425 409.096 154.985 408.586 154.425V161.145H405.901V140.805H407.506C407.886 140.805 408.121 140.99 408.211 141.36L408.451 143.16ZM429.123 140.565C430.233 140.565 431.233 140.75 432.123 141.12C433.013 141.49 433.773 142.015 434.403 142.695C435.033 143.375 435.513 144.2 435.843 145.17C436.183 146.13 436.353 147.205 436.353 148.395C436.353 149.595 436.183 150.675 435.843 151.635C435.513 152.595 435.033 153.415 434.403 154.095C433.773 154.775 433.013 155.3 432.123 155.67C431.233 156.03 430.233 156.21 429.123 156.21C428.003 156.21 426.993 156.03 426.093 155.67C425.203 155.3 424.443 154.775 423.813 154.095C423.183 153.415 422.698 152.595 422.358 151.635C422.028 150.675 421.863 149.595 421.863 148.395C421.863 147.205 422.028 146.13 422.358 145.17C422.698 144.2 423.183 143.375 423.813 142.695C424.443 142.015 425.203 141.49 426.093 141.12C426.993 140.75 428.003 140.565 429.123 140.565ZM429.123 154.125C430.623 154.125 431.743 153.625 432.483 152.625C433.223 151.615 433.593 150.21 433.593 148.41C433.593 146.6 433.223 145.19 432.483 144.18C431.743 143.17 430.623 142.665 429.123 142.665C428.363 142.665 427.698 142.795 427.128 143.055C426.568 143.315 426.098 143.69 425.718 144.18C425.348 144.67 425.068 145.275 424.878 145.995C424.698 146.705 424.608 147.51 424.608 148.41C424.608 150.21 424.978 151.615 425.718 152.625C426.468 153.625 427.603 154.125 429.123 154.125ZM442.259 143.01C442.589 142.64 442.939 142.305 443.309 142.005C443.679 141.705 444.069 141.45 444.479 141.24C444.899 141.02 445.339 140.855 445.799 140.745C446.269 140.625 446.774 140.565 447.314 140.565C448.144 140.565 448.874 140.705 449.504 140.985C450.144 141.255 450.674 141.645 451.094 142.155C451.524 142.655 451.849 143.26 452.069 143.97C452.289 144.68 452.399 145.465 452.399 146.325V156H449.714V146.325C449.714 145.175 449.449 144.285 448.919 143.655C448.399 143.015 447.604 142.695 446.534 142.695C445.744 142.695 445.004 142.885 444.314 143.265C443.634 143.645 443.004 144.16 442.424 144.81V156H439.739V140.805H441.344C441.724 140.805 441.959 140.99 442.049 141.36L442.259 143.01ZM465.318 143.31C465.198 143.53 465.013 143.64 464.763 143.64C464.613 143.64 464.443 143.585 464.253 143.475C464.063 143.365 463.828 143.245 463.548 143.115C463.278 142.975 462.953 142.85 462.573 142.74C462.193 142.62 461.743 142.56 461.223 142.56C460.773 142.56 460.368 142.62 460.008 142.74C459.648 142.85 459.338 143.005 459.078 143.205C458.828 143.405 458.633 143.64 458.493 143.91C458.363 144.17 458.298 144.455 458.298 144.765C458.298 145.155 458.408 145.48 458.628 145.74C458.858 146 459.158 146.225 459.528 146.415C459.898 146.605 460.318 146.775 460.788 146.925C461.258 147.065 461.738 147.22 462.228 147.39C462.728 147.55 463.213 147.73 463.683 147.93C464.153 148.13 464.573 148.38 464.943 148.68C465.313 148.98 465.608 149.35 465.828 149.79C466.058 150.22 466.173 150.74 466.173 151.35C466.173 152.05 466.048 152.7 465.798 153.3C465.548 153.89 465.178 154.405 464.688 154.845C464.198 155.275 463.598 155.615 462.888 155.865C462.178 156.115 461.358 156.24 460.428 156.24C459.368 156.24 458.408 156.07 457.548 155.73C456.688 155.38 455.958 154.935 455.358 154.395L455.988 153.375C456.068 153.245 456.163 153.145 456.273 153.075C456.383 153.005 456.523 152.97 456.693 152.97C456.873 152.97 457.063 153.04 457.263 153.18C457.463 153.32 457.703 153.475 457.983 153.645C458.273 153.815 458.623 153.97 459.033 154.11C459.443 154.25 459.953 154.32 460.563 154.32C461.083 154.32 461.538 154.255 461.928 154.125C462.318 153.985 462.643 153.8 462.903 153.57C463.163 153.34 463.353 153.075 463.473 152.775C463.603 152.475 463.668 152.155 463.668 151.815C463.668 151.395 463.553 151.05 463.323 150.78C463.103 150.5 462.808 150.265 462.438 150.075C462.068 149.875 461.643 149.705 461.163 149.565C460.693 149.415 460.208 149.26 459.708 149.1C459.218 148.94 458.733 148.76 458.253 148.56C457.783 148.35 457.363 148.09 456.993 147.78C456.623 147.47 456.323 147.09 456.093 146.64C455.873 146.18 455.763 145.625 455.763 144.975C455.763 144.395 455.883 143.84 456.123 143.31C456.363 142.77 456.713 142.3 457.173 141.9C457.633 141.49 458.198 141.165 458.868 140.925C459.538 140.685 460.303 140.565 461.163 140.565C462.163 140.565 463.058 140.725 463.848 141.045C464.648 141.355 465.338 141.785 465.918 142.335L465.318 143.31Z" fill="black"/>
<path d="M439.689 236.228C442.75 236.284 445.822 236.267 448.884 236.236L448.911 245.494L455.925 245.513L455.922 252.599C453.588 252.617 451.255 252.62 448.921 252.609C448.884 250.24 448.919 247.865 448.919 245.495C445.832 245.551 442.735 245.516 439.648 245.503L439.636 239.271C439.634 238.3 439.518 237.175 439.689 236.228Z" fill="#151010"/>
<path d="M455.92 252.599L465.022 252.606L464.988 291.365C464.989 297.128 465.101 302.893 465.039 308.657L455.967 308.672C455.89 309.525 455.93 310.408 455.929 311.267L455.93 315.741L448.929 315.746L448.91 315.7C449.023 313.373 448.917 310.99 448.917 308.657L455.942 308.667L455.949 299.312C457.534 299.291 459.123 299.309 460.709 299.31L460.696 261.935C459.105 261.939 457.514 261.932 455.923 261.913C455.875 258.811 455.92 255.701 455.92 252.599Z" fill="#151010"/>
<path d="M432.549 324.998C434.917 324.969 437.289 325.041 439.657 324.964L439.636 332.026L432.572 332.032L432.573 341.124C426.152 341.041 419.72 341.12 413.298 341.12L376.388 341.105C376.303 338.09 376.354 335.053 376.368 332.037L369.396 332.032C369.388 329.684 369.331 327.323 369.404 324.976C371.74 325.028 374.079 324.943 376.414 325.003C376.426 327.348 376.421 329.693 376.399 332.038L382.624 332.037C383.644 332.038 384.757 331.954 385.769 332.076L385.771 336.775L423.276 336.784L423.285 332.013C426.367 331.939 429.465 332.002 432.549 331.999C432.513 329.667 432.547 327.331 432.549 324.998Z" fill="#151010"/>
<path d="M376.362 220.014L413.43 220.04C419.807 220.039 426.2 220.126 432.574 220L432.57 229.176C434.923 229.212 437.28 229.181 439.634 229.18C439.629 231.509 439.559 233.862 439.661 236.188C437.294 236.209 434.927 236.206 432.56 236.179L432.565 229.218C429.454 229.236 426.343 229.239 423.232 229.225L423.232 224.284L385.773 224.274L385.769 229.224C382.664 229.225 379.547 229.284 376.444 229.206C376.482 231.553 376.491 233.9 376.473 236.246L369.398 236.242L369.399 245.586L360.101 245.574C360.121 247.921 360.115 250.268 360.081 252.614C357.763 252.636 355.444 252.635 353.126 252.612L353.132 261.945L348.269 261.947L348.251 299.321C349.878 299.32 351.509 299.299 353.135 299.321L353.133 308.665C355.46 308.66 357.791 308.629 360.118 308.66C360.123 311.007 360.019 313.404 360.12 315.744L353.074 315.72C353.091 313.372 353.093 311.023 353.082 308.675L344.009 308.666L344 252.601L353.061 252.591C353.016 250.235 353.054 247.872 353.054 245.516L360.072 245.508C360.037 242.385 360.072 239.257 360.074 236.134L369.345 236.16L369.343 229.169L376.386 229.164C376.277 226.127 376.359 223.055 376.362 220.014Z" fill="#151010"/>
<path d="M448.921 252.609C451.254 252.62 453.588 252.617 455.922 252.599C455.921 255.701 455.877 258.811 455.925 261.912C457.516 261.932 459.107 261.939 460.697 261.935L460.711 299.31C459.125 299.309 457.536 299.291 455.951 299.312L455.944 308.667L448.919 308.657C448.919 310.99 449.025 313.373 448.912 315.7L448.931 315.746L448.92 324.879L443.131 324.882C441.995 324.882 440.832 324.836 439.699 324.92L439.658 324.964C437.29 325.041 434.918 324.969 432.55 324.998C432.547 327.331 432.514 329.667 432.55 331.999C429.466 332.002 426.368 331.939 423.286 332.014L423.277 336.784L385.772 336.775L385.77 332.076C388.139 332.29 391.094 332.172 393.51 332.152C393.516 329.042 393.493 325.933 393.443 322.824L399.448 322.81C400.658 322.808 401.88 322.844 403.089 322.774C401.675 322.709 400.235 322.759 398.818 322.759L390.586 322.775L390.565 315.827L418.478 315.792C418.382 313.445 418.461 311.086 418.432 308.738L423.556 308.728C423.549 307.195 423.559 305.662 423.585 304.129L432.637 304.128L432.586 294.781L437.454 294.771V285.331C438.936 285.359 440.425 285.327 441.907 285.322L441.909 266.557C441.435 266.561 440.964 266.569 440.491 266.53C440.554 265.758 440.514 264.95 440.515 264.174L440.51 259.604L448.936 259.61L448.921 252.609Z" fill="#E70D12"/>
<path d="M448.912 315.7L448.931 315.746L448.92 324.879L443.131 324.882C441.995 324.882 440.832 324.836 439.699 324.92C439.457 324.204 439.646 317.04 439.649 315.692L448.912 315.7Z" fill="#151010"/>
<path d="M440.491 266.53C442.53 266.373 444.661 266.498 446.71 266.505L446.719 294.796L439.694 294.789L439.722 304.138L432.641 304.128L432.64 308.764L425.277 308.762L425.291 315.828L418.62 315.822L418.605 322.781L408.208 322.762C406.518 322.761 404.773 322.674 403.088 322.773C401.674 322.708 400.235 322.758 398.818 322.758L390.585 322.774L390.564 315.826L418.478 315.791C418.382 313.445 418.461 311.086 418.432 308.737L423.556 308.728C423.549 307.194 423.558 305.661 423.584 304.128L432.637 304.127L432.585 294.78L437.454 294.77V285.33C438.936 285.358 440.425 285.327 441.907 285.322L441.909 266.556C441.435 266.561 440.964 266.569 440.491 266.53Z" fill="#B6C7C0"/>
<path d="M385.773 224.273L423.231 224.284L423.231 229.224C426.342 229.238 429.453 229.236 432.564 229.217L432.559 236.178C434.926 236.205 437.293 236.208 439.66 236.187L439.688 236.227C439.516 237.175 439.633 238.299 439.635 239.27L439.646 245.503C442.734 245.516 445.831 245.55 448.917 245.494C448.917 247.864 448.883 250.239 448.92 252.609L448.935 259.609L440.508 259.604L440.514 264.174C440.513 264.95 440.553 265.757 440.489 266.53C440.389 265.735 440.442 264.894 440.443 264.092L440.45 259.61L432.57 259.611L432.567 252.594L425.526 252.593C425.543 250.236 425.542 247.879 425.524 245.522L418.546 245.518L418.539 238.585L390.511 238.584L390.515 245.533C388.177 245.543 385.836 245.576 383.498 245.555L383.496 252.594L376.492 252.593L376.495 259.597C374.136 259.599 371.773 259.572 369.414 259.605L369.411 266.554L362.409 266.606C362.388 275.95 362.289 285.313 362.414 294.655L369.42 294.649L369.429 304.006L376.427 304.009L376.437 308.753L383.58 308.766C383.575 311.121 383.584 313.476 383.606 315.831C385.924 315.829 388.245 315.801 390.563 315.826L390.584 322.774L398.817 322.758C400.234 322.758 401.673 322.708 403.087 322.773C401.879 322.843 400.657 322.808 399.447 322.809L393.441 322.824C393.492 325.933 393.514 329.042 393.508 332.151C391.093 332.172 388.137 332.289 385.768 332.076C384.757 331.954 383.644 332.038 382.624 332.037L376.399 332.038C376.421 329.693 376.426 327.348 376.414 325.003C374.079 324.942 371.74 325.028 369.404 324.975L369.374 324.912C368.329 324.798 367.201 324.875 366.147 324.875H360.139C360.151 321.831 360.144 318.787 360.119 315.744C360.018 313.404 360.122 311.006 360.118 308.659C357.79 308.628 355.459 308.66 353.132 308.664L353.135 299.321C351.508 299.298 349.877 299.319 348.25 299.32L348.268 261.946L353.131 261.944L353.125 252.612C355.443 252.635 357.762 252.636 360.08 252.614C360.114 250.267 360.121 247.92 360.1 245.573L369.398 245.585L369.397 236.241L376.472 236.246C376.49 233.899 376.481 231.552 376.443 229.206C379.547 229.283 382.664 229.224 385.768 229.223L385.773 224.273Z" fill="#F73131"/>
<path d="M360.121 315.744L369.424 315.749L369.43 322.039C369.43 322.913 369.556 324.065 369.377 324.913C368.331 324.798 367.203 324.876 366.149 324.876H360.141C360.153 321.832 360.146 318.788 360.121 315.744Z" fill="#151010"/>
<path d="M390.511 238.585L418.539 238.586L418.545 245.518L425.523 245.522C425.542 247.879 425.542 250.237 425.526 252.594L432.566 252.595L432.569 259.611L440.45 259.61L440.442 264.093C440.442 264.894 440.388 265.736 440.489 266.53C440.962 266.569 441.434 266.562 441.908 266.557L441.905 285.322C440.423 285.328 438.935 285.359 437.453 285.331V294.771L432.584 294.781L432.636 304.128L423.583 304.129C423.557 305.662 423.547 307.195 423.554 308.728L418.43 308.738C418.459 311.086 418.38 313.445 418.477 315.792L390.563 315.827C388.245 315.801 385.924 315.83 383.606 315.832C383.584 313.477 383.575 311.122 383.58 308.766L376.437 308.754L376.426 304.01L369.429 304.007L369.42 294.65L362.413 294.656C362.289 285.314 362.387 275.951 362.409 266.607L369.411 266.554L369.414 259.606C371.773 259.573 374.136 259.6 376.495 259.598L376.491 252.594L383.496 252.595L383.498 245.556C385.836 245.577 388.177 245.544 390.515 245.533L390.511 238.585Z" fill="white"/>
<path d="M409.211 261.959L423.081 261.959L423.088 275.963L416.258 275.961C416.232 279.097 416.233 282.233 416.263 285.368L423.078 285.397C423.079 286.814 423.17 298.878 423.08 299.108C423.062 299.155 423.013 299.183 422.98 299.221L409.186 299.188C409.198 296.866 409.188 294.544 409.157 292.222L399.948 292.245C399.906 294.571 399.934 296.903 399.929 299.229C395.25 299.11 390.548 299.196 385.866 299.189L385.864 285.188L392.856 285.175L392.856 275.975C390.536 275.922 388.206 275.967 385.885 275.966C385.73 271.313 385.853 266.618 385.853 261.961L399.927 261.967L399.926 268.957L409.209 268.958L409.211 261.959Z" fill="#E70D12"/>
<path fill-rule="evenodd" clip-rule="evenodd" d="M589 367H781V43H766.776V53.1218H773.888V63.2482H596.109V53.1218H603.221V43H589V367Z" fill="white"/>
<path fill-rule="evenodd" clip-rule="evenodd" d="M724.288 7.14233V0H645.715V7.14233H638.573V14.2862H560V394.572H810.002V14.2861H731.432V7.14224L724.288 7.14233ZM617.145 35.7146H581.428V373.144H788.574V35.7146H752.861V28.5723H745.717V21.4284H802.861V387.428H567.142V21.4284H624.285V28.5723H617.145V35.7146ZM595.713 57.143H774.289V49.9992H767.145V42.8585H781.433V366H588.572V42.8585H602.857V49.9992H595.713V57.143ZM724.288 7.14233V14.2862L731.432 14.2861L731.432 21.4285H738.573V28.5723L745.717 28.5723V35.7146H752.861V42.8585H760.005V49.9992H610.001V42.8585H617.145V35.7146H624.285V28.5723H631.429V21.4284H638.573L638.573 14.2862L645.715 14.2861L645.715 7.14233H724.288Z" fill="black"/>
<path fill-rule="evenodd" clip-rule="evenodd" d="M567.143 387.285H802.861V21.4297H745.717V28.5735H752.861V35.7158H788.574V373H581.429V35.7158H617.145V28.5735H624.286V21.4297H567.143L567.143 387.285Z" fill="#F26C2F"/>
<path fill-rule="evenodd" clip-rule="evenodd" d="M724.288 7.14355H645.715V14.2874H638.572V21.4297H631.428V28.5735H624.285V35.7158H617.144V42.8597H610V50.0004H760.004V42.8597H752.86V35.7158H745.716V28.5735H738.572V21.4297H731.431V14.2874H724.288V7.14355Z" fill="#FDBE31"/>
<path d="M662.457 144.915C663.297 144.915 664.037 144.815 664.677 144.615C665.327 144.405 665.867 144.115 666.297 143.745C666.737 143.365 667.067 142.915 667.287 142.395C667.507 141.875 667.617 141.3 667.617 140.67C667.617 139.39 667.197 138.425 666.357 137.775C665.517 137.125 664.257 136.8 662.577 136.8H659.397V144.915H662.457ZM672.387 156H669.807C669.277 156 668.887 155.795 668.637 155.385L663.057 147.705C662.887 147.465 662.702 147.295 662.502 147.195C662.312 147.085 662.012 147.03 661.602 147.03H659.397V156H656.502V134.505H662.577C663.937 134.505 665.112 134.645 666.102 134.925C667.092 135.195 667.907 135.59 668.547 136.11C669.197 136.63 669.677 137.26 669.987 138C670.297 138.73 670.452 139.55 670.452 140.46C670.452 141.22 670.332 141.93 670.092 142.59C669.852 143.25 669.502 143.845 669.042 144.375C668.592 144.895 668.037 145.34 667.377 145.71C666.727 146.08 665.987 146.36 665.157 146.55C665.527 146.76 665.847 147.065 666.117 147.465L672.387 156ZM686.56 140.805V156H684.97C684.59 156 684.35 155.815 684.25 155.445L684.04 153.81C683.38 154.54 682.64 155.13 681.82 155.58C681 156.02 680.06 156.24 679 156.24C678.17 156.24 677.435 156.105 676.795 155.835C676.165 155.555 675.635 155.165 675.205 154.665C674.775 154.165 674.45 153.56 674.23 152.85C674.02 152.14 673.915 151.355 673.915 150.495V140.805H676.585V150.495C676.585 151.645 676.845 152.535 677.365 153.165C677.895 153.795 678.7 154.11 679.78 154.11C680.57 154.11 681.305 153.925 681.985 153.555C682.675 153.175 683.31 152.655 683.89 151.995V140.805H686.56ZM696.089 148.575C696.629 148.575 697.104 148.5 697.514 148.35C697.924 148.2 698.269 147.99 698.549 147.72C698.829 147.45 699.039 147.13 699.179 146.76C699.319 146.38 699.389 145.965 699.389 145.515C699.389 144.585 699.104 143.845 698.534 143.295C697.974 142.745 697.159 142.47 696.089 142.47C695.009 142.47 694.184 142.745 693.614 143.295C693.054 143.845 692.774 144.585 692.774 145.515C692.774 145.965 692.844 146.38 692.984 146.76C693.134 147.13 693.349 147.45 693.629 147.72C693.909 147.99 694.254 148.2 694.664 148.35C695.074 148.5 695.549 148.575 696.089 148.575ZM700.904 156.825C700.904 156.455 700.799 156.155 700.589 155.925C700.379 155.695 700.094 155.515 699.734 155.385C699.384 155.255 698.974 155.165 698.504 155.115C698.034 155.055 697.534 155.01 697.004 154.98C696.484 154.95 695.954 154.92 695.414 154.89C694.874 154.86 694.354 154.81 693.854 154.74C693.294 155 692.834 155.33 692.474 155.73C692.124 156.12 691.949 156.58 691.949 157.11C691.949 157.45 692.034 157.765 692.204 158.055C692.384 158.355 692.654 158.61 693.014 158.82C693.374 159.04 693.824 159.21 694.364 159.33C694.914 159.46 695.559 159.525 696.299 159.525C697.019 159.525 697.664 159.46 698.234 159.33C698.804 159.2 699.284 159.015 699.674 158.775C700.074 158.535 700.379 158.25 700.589 157.92C700.799 157.59 700.904 157.225 700.904 156.825ZM703.619 141.405V142.395C703.619 142.725 703.409 142.935 702.989 143.025L701.264 143.25C701.604 143.91 701.774 144.64 701.774 145.44C701.774 146.18 701.629 146.855 701.339 147.465C701.059 148.065 700.669 148.58 700.169 149.01C699.669 149.44 699.069 149.77 698.369 150C697.669 150.23 696.909 150.345 696.089 150.345C695.379 150.345 694.709 150.26 694.079 150.09C693.759 150.29 693.514 150.505 693.344 150.735C693.174 150.955 693.089 151.18 693.089 151.41C693.089 151.77 693.234 152.045 693.524 152.235C693.824 152.415 694.214 152.545 694.694 152.625C695.174 152.705 695.719 152.755 696.329 152.775C696.949 152.795 697.579 152.83 698.219 152.88C698.869 152.92 699.499 152.995 700.109 153.105C700.729 153.215 701.279 153.395 701.759 153.645C702.239 153.895 702.624 154.24 702.914 154.68C703.214 155.12 703.364 155.69 703.364 156.39C703.364 157.04 703.199 157.67 702.869 158.28C702.549 158.89 702.084 159.43 701.474 159.9C700.864 160.38 700.114 160.76 699.224 161.04C698.344 161.33 697.349 161.475 696.239 161.475C695.129 161.475 694.159 161.365 693.329 161.145C692.499 160.925 691.809 160.63 691.259 160.26C690.709 159.89 690.294 159.46 690.014 158.97C689.744 158.49 689.609 157.985 689.609 157.455C689.609 156.705 689.844 156.07 690.314 155.55C690.784 155.03 691.429 154.615 692.249 154.305C691.799 154.105 691.439 153.84 691.169 153.51C690.909 153.17 690.779 152.715 690.779 152.145C690.779 151.925 690.819 151.7 690.899 151.47C690.979 151.23 691.099 150.995 691.259 150.765C691.429 150.525 691.634 150.3 691.874 150.09C692.114 149.88 692.394 149.695 692.714 149.535C691.964 149.115 691.379 148.56 690.959 147.87C690.539 147.17 690.329 146.36 690.329 145.44C690.329 144.7 690.469 144.03 690.749 143.43C691.039 142.82 691.439 142.305 691.949 141.885C692.459 141.455 693.064 141.125 693.764 140.895C694.474 140.665 695.249 140.55 696.089 140.55C696.749 140.55 697.364 140.625 697.934 140.775C698.504 140.915 699.024 141.125 699.494 141.405H703.619ZM715.23 143.31C715.11 143.53 714.925 143.64 714.675 143.64C714.525 143.64 714.355 143.585 714.165 143.475C713.975 143.365 713.74 143.245 713.46 143.115C713.19 142.975 712.865 142.85 712.485 142.74C712.105 142.62 711.655 142.56 711.135 142.56C710.685 142.56 710.28 142.62 709.92 142.74C709.56 142.85 709.25 143.005 708.99 143.205C708.74 143.405 708.545 143.64 708.405 143.91C708.275 144.17 708.21 144.455 708.21 144.765C708.21 145.155 708.32 145.48 708.54 145.74C708.77 146 709.07 146.225 709.44 146.415C709.81 146.605 710.23 146.775 710.7 146.925C711.17 147.065 711.65 147.22 712.14 147.39C712.64 147.55 713.125 147.73 713.595 147.93C714.065 148.13 714.485 148.38 714.855 148.68C715.225 148.98 715.52 149.35 715.74 149.79C715.97 150.22 716.085 150.74 716.085 151.35C716.085 152.05 715.96 152.7 715.71 153.3C715.46 153.89 715.09 154.405 714.6 154.845C714.11 155.275 713.51 155.615 712.8 155.865C712.09 156.115 711.27 156.24 710.34 156.24C709.28 156.24 708.32 156.07 707.46 155.73C706.6 155.38 705.87 154.935 705.27 154.395L705.9 153.375C705.98 153.245 706.075 153.145 706.185 153.075C706.295 153.005 706.435 152.97 706.605 152.97C706.785 152.97 706.975 153.04 707.175 153.18C707.375 153.32 707.615 153.475 707.895 153.645C708.185 153.815 708.535 153.97 708.945 154.11C709.355 154.25 709.865 154.32 710.475 154.32C710.995 154.32 711.45 154.255 711.84 154.125C712.23 153.985 712.555 153.8 712.815 153.57C713.075 153.34 713.265 153.075 713.385 152.775C713.515 152.475 713.58 152.155 713.58 151.815C713.58 151.395 713.465 151.05 713.235 150.78C713.015 150.5 712.72 150.265 712.35 150.075C711.98 149.875 711.555 149.705 711.075 149.565C710.605 149.415 710.12 149.26 709.62 149.1C709.13 148.94 708.645 148.76 708.165 148.56C707.695 148.35 707.275 148.09 706.905 147.78C706.535 147.47 706.235 147.09 706.005 146.64C705.785 146.18 705.675 145.625 705.675 144.975C705.675 144.395 705.795 143.84 706.035 143.31C706.275 142.77 706.625 142.3 707.085 141.9C707.545 141.49 708.11 141.165 708.78 140.925C709.45 140.685 710.215 140.565 711.075 140.565C712.075 140.565 712.97 140.725 713.76 141.045C714.56 141.355 715.25 141.785 715.83 142.335L715.23 143.31Z" fill="black"/>
<path d="M719.689 236.228C722.75 236.284 725.822 236.267 728.884 236.236L728.911 245.494L735.925 245.513L735.922 252.599C733.588 252.617 731.255 252.62 728.921 252.609C728.884 250.24 728.919 247.865 728.919 245.495C725.832 245.551 722.735 245.516 719.648 245.503L719.636 239.271C719.634 238.3 719.518 237.175 719.689 236.228Z" fill="#151010"/>
<path d="M735.92 252.599L745.022 252.606L744.988 291.365C744.989 297.128 745.101 302.893 745.039 308.657L735.967 308.672C735.89 309.525 735.93 310.408 735.929 311.267L735.93 315.741L728.929 315.746L728.91 315.7C729.023 313.373 728.917 310.99 728.917 308.657L735.942 308.667L735.949 299.312C737.534 299.291 739.123 299.309 740.709 299.31L740.696 261.935C739.105 261.939 737.514 261.932 735.923 261.913C735.875 258.811 735.92 255.701 735.92 252.599Z" fill="#151010"/>
<path d="M712.549 324.998C714.917 324.969 717.289 325.041 719.657 324.964L719.636 332.026L712.572 332.032L712.573 341.124C706.152 341.041 699.72 341.12 693.298 341.12L656.388 341.105C656.303 338.09 656.354 335.053 656.368 332.037L649.396 332.032C649.388 329.684 649.331 327.323 649.404 324.976C651.74 325.028 654.079 324.943 656.414 325.003C656.426 327.348 656.421 329.693 656.399 332.038L662.624 332.037C663.644 332.038 664.757 331.954 665.769 332.076L665.771 336.775L703.276 336.784L703.285 332.013C706.367 331.939 709.465 332.002 712.549 331.999C712.513 329.667 712.547 327.331 712.549 324.998Z" fill="#151010"/>
<path d="M656.362 220.014L693.43 220.04C699.807 220.039 706.2 220.126 712.574 220L712.57 229.176C714.923 229.212 717.28 229.181 719.634 229.18C719.629 231.509 719.559 233.862 719.661 236.188C717.294 236.209 714.927 236.206 712.56 236.179L712.565 229.218C709.454 229.236 706.343 229.239 703.232 229.225L703.232 224.284L665.773 224.274L665.769 229.224C662.664 229.225 659.547 229.284 656.444 229.206C656.482 231.553 656.491 233.9 656.473 236.246L649.398 236.242L649.399 245.586L640.101 245.574C640.121 247.921 640.115 250.268 640.081 252.614C637.763 252.636 635.444 252.635 633.126 252.612L633.132 261.945L628.269 261.947L628.251 299.321C629.878 299.32 631.509 299.299 633.135 299.321L633.133 308.665C635.46 308.66 637.791 308.629 640.118 308.66C640.123 311.007 640.019 313.404 640.12 315.744L633.074 315.72C633.091 313.372 633.093 311.023 633.082 308.675L624.009 308.666L624 252.601L633.061 252.591C633.016 250.235 633.054 247.872 633.054 245.516L640.072 245.508C640.037 242.385 640.072 239.257 640.074 236.134L649.345 236.16L649.343 229.169L656.386 229.164C656.277 226.127 656.359 223.055 656.362 220.014Z" fill="#151010"/>
<path d="M728.921 252.609C731.254 252.62 733.588 252.617 735.922 252.599C735.921 255.701 735.877 258.811 735.925 261.912C737.516 261.932 739.107 261.939 740.697 261.935L740.711 299.31C739.125 299.309 737.536 299.291 735.951 299.312L735.944 308.667L728.919 308.657C728.919 310.99 729.025 313.373 728.912 315.7L728.931 315.746L728.92 324.879L723.131 324.882C721.995 324.882 720.832 324.836 719.699 324.92L719.658 324.964C717.29 325.041 714.918 324.969 712.55 324.998C712.547 327.331 712.514 329.667 712.55 331.999C709.466 332.002 706.368 331.939 703.286 332.014L703.277 336.784L665.772 336.775L665.77 332.076C668.139 332.29 671.094 332.172 673.51 332.152C673.516 329.042 673.493 325.933 673.443 322.824L679.448 322.81C680.658 322.808 681.88 322.844 683.089 322.774C681.675 322.709 680.235 322.759 678.818 322.759L670.586 322.775L670.565 315.827L698.478 315.792C698.382 313.445 698.461 311.086 698.432 308.738L703.556 308.728C703.549 307.195 703.559 305.662 703.585 304.129L712.637 304.128L712.586 294.781L717.454 294.771V285.331C718.936 285.359 720.425 285.327 721.907 285.322L721.909 266.557C721.435 266.561 720.964 266.569 720.491 266.53C720.554 265.758 720.514 264.95 720.515 264.174L720.51 259.604L728.936 259.61L728.921 252.609Z" fill="#E70D12"/>
<path d="M728.912 315.7L728.931 315.746L728.92 324.879L723.131 324.882C721.995 324.882 720.832 324.836 719.699 324.92C719.457 324.204 719.646 317.04 719.649 315.692L728.912 315.7Z" fill="#151010"/>
<path d="M720.491 266.53C722.53 266.373 724.661 266.498 726.71 266.505L726.719 294.796L719.694 294.789L719.722 304.138L712.641 304.128L712.64 308.764L705.277 308.762L705.291 315.828L698.62 315.822L698.605 322.781L688.208 322.762C686.518 322.761 684.773 322.674 683.088 322.773C681.674 322.708 680.235 322.758 678.818 322.758L670.585 322.774L670.564 315.826L698.478 315.791C698.382 313.445 698.461 311.086 698.432 308.737L703.556 308.728C703.549 307.194 703.558 305.661 703.584 304.128L712.637 304.127L712.585 294.78L717.454 294.77V285.33C718.936 285.358 720.425 285.327 721.907 285.322L721.909 266.556C721.435 266.561 720.964 266.569 720.491 266.53Z" fill="#B6C7C0"/>
<path d="M665.773 224.273L703.231 224.284L703.231 229.224C706.342 229.238 709.453 229.236 712.564 229.217L712.559 236.178C714.926 236.205 717.293 236.208 719.66 236.187L719.688 236.227C719.516 237.175 719.633 238.299 719.635 239.27L719.646 245.503C722.734 245.516 725.831 245.55 728.917 245.494C728.917 247.864 728.883 250.239 728.92 252.609L728.935 259.609L720.508 259.604L720.514 264.174C720.513 264.95 720.553 265.757 720.489 266.53C720.389 265.735 720.442 264.894 720.443 264.092L720.45 259.61L712.57 259.611L712.567 252.594L705.526 252.593C705.543 250.236 705.542 247.879 705.524 245.522L698.546 245.518L698.539 238.585L670.511 238.584L670.515 245.533C668.177 245.543 665.836 245.576 663.498 245.555L663.496 252.594L656.492 252.593L656.495 259.597C654.136 259.599 651.773 259.572 649.414 259.605L649.411 266.554L642.409 266.606C642.388 275.95 642.289 285.313 642.414 294.655L649.42 294.649L649.429 304.006L656.427 304.009L656.437 308.753L663.58 308.766C663.575 311.121 663.584 313.476 663.606 315.831C665.924 315.829 668.245 315.801 670.563 315.826L670.584 322.774L678.817 322.758C680.234 322.758 681.673 322.708 683.087 322.773C681.879 322.843 680.657 322.808 679.447 322.809L673.441 322.824C673.492 325.933 673.514 329.042 673.508 332.151C671.093 332.172 668.137 332.289 665.768 332.076C664.757 331.954 663.644 332.038 662.624 332.037L656.399 332.038C656.421 329.693 656.426 327.348 656.414 325.003C654.079 324.942 651.74 325.028 649.404 324.975L649.374 324.912C648.329 324.798 647.201 324.875 646.147 324.875H640.139C640.151 321.831 640.144 318.787 640.119 315.744C640.018 313.404 640.122 311.006 640.118 308.659C637.79 308.628 635.459 308.66 633.132 308.664L633.135 299.321C631.508 299.298 629.877 299.319 628.25 299.32L628.268 261.946L633.131 261.944L633.125 252.612C635.443 252.635 637.762 252.636 640.08 252.614C640.114 250.267 640.121 247.92 640.1 245.573L649.398 245.585L649.397 236.241L656.472 236.246C656.49 233.899 656.481 231.552 656.443 229.206C659.547 229.283 662.664 229.224 665.768 229.223L665.773 224.273Z" fill="#F73131"/>
<path d="M640.121 315.744L649.424 315.749L649.43 322.039C649.43 322.913 649.556 324.065 649.377 324.913C648.331 324.798 647.203 324.876 646.149 324.876H640.141C640.153 321.832 640.146 318.788 640.121 315.744Z" fill="#151010"/>
<path d="M670.511 238.585L698.539 238.586L698.545 245.518L705.523 245.522C705.542 247.879 705.542 250.237 705.526 252.594L712.566 252.595L712.569 259.611L720.45 259.61L720.442 264.093C720.442 264.894 720.388 265.736 720.489 266.53C720.962 266.569 721.434 266.562 721.908 266.557L721.905 285.322C720.423 285.328 718.935 285.359 717.453 285.331V294.771L712.584 294.781L712.636 304.128L703.583 304.129C703.557 305.662 703.547 307.195 703.554 308.728L698.43 308.738C698.459 311.086 698.38 313.445 698.477 315.792L670.563 315.827C668.245 315.801 665.924 315.83 663.606 315.832C663.584 313.477 663.575 311.122 663.58 308.766L656.437 308.754L656.426 304.01L649.429 304.007L649.42 294.65L642.413 294.656C642.289 285.314 642.387 275.951 642.409 266.607L649.411 266.554L649.414 259.606C651.773 259.573 654.136 259.6 656.495 259.598L656.491 252.594L663.496 252.595L663.498 245.556C665.836 245.577 668.177 245.544 670.515 245.533L670.511 238.585Z" fill="white"/>
<path d="M689.211 261.959L703.081 261.959L703.088 275.963L696.258 275.961C696.232 279.097 696.233 282.233 696.263 285.368L703.078 285.397C703.079 286.814 703.17 298.878 703.08 299.108C703.062 299.155 703.013 299.183 702.98 299.221L689.186 299.188C689.198 296.866 689.188 294.544 689.157 292.222L679.948 292.245C679.906 294.571 679.934 296.903 679.929 299.229C675.25 299.11 670.548 299.196 665.866 299.189L665.864 285.188L672.856 285.175L672.856 275.975C670.536 275.922 668.206 275.967 665.885 275.966C665.73 271.313 665.853 266.618 665.853 261.961L679.927 261.967L679.926 268.957L689.209 268.958L689.211 261.959Z" fill="#E70D12"/>
<path fill-rule="evenodd" clip-rule="evenodd" d="M869 367H1061V43H1046.78V53.1218H1053.89V63.2482H876.109V53.1218H883.221V43H869V367Z" fill="white"/>
<path fill-rule="evenodd" clip-rule="evenodd" d="M1004.29 7.14233V0H925.715V7.14233H918.573V14.2862H840V394.572H1090V14.2861H1011.43V7.14224L1004.29 7.14233ZM897.145 35.7146H861.428V373.144H1068.57V35.7146H1032.86V28.5723H1025.72V21.4284H1082.86V387.428H847.142V21.4284H904.285V28.5723H897.145V35.7146ZM875.713 57.143H1054.29V49.9992H1047.15V42.8585H1061.43V366H868.572V42.8585H882.857V49.9992H875.713V57.143ZM1004.29 7.14233V14.2862L1011.43 14.2861L1011.43 21.4285H1018.57V28.5723L1025.72 28.5723V35.7146H1032.86V42.8585H1040V49.9992H890.001V42.8585H897.145V35.7146H904.285V28.5723H911.429V21.4284H918.573L918.573 14.2862L925.715 14.2861L925.715 7.14233H1004.29Z" fill="black"/>
<path fill-rule="evenodd" clip-rule="evenodd" d="M847.143 387.285H1082.86V21.4297H1025.72V28.5735H1032.86V35.7158H1068.57V373H861.429V35.7158H897.145V28.5735H904.286V21.4297H847.143L847.143 387.285Z" fill="#F26C2F"/>
<path fill-rule="evenodd" clip-rule="evenodd" d="M1004.29 7.14355H925.715V14.2874H918.572V21.4297H911.428V28.5735H904.285V35.7158H897.144V42.8597H890V50.0004H1040V42.8597H1032.86V35.7158H1025.72V28.5735H1018.57V21.4297H1011.43V14.2874H1004.29V7.14355Z" fill="#FDBE31"/>
<path d="M954.666 135.96V138H943.146V135.96H947.751V121.305C947.751 120.865 947.766 120.42 947.796 119.97L943.971 123.255C943.841 123.365 943.711 123.435 943.581 123.465C943.451 123.485 943.331 123.485 943.221 123.465C943.111 123.445 943.006 123.405 942.906 123.345C942.816 123.285 942.746 123.22 942.696 123.15L941.856 121.995L948.261 116.46H950.436V135.96H954.666ZM965.499 136.11C966.199 136.11 966.824 136.015 967.374 135.825C967.934 135.625 968.404 135.35 968.784 135C969.174 134.64 969.469 134.215 969.669 133.725C969.879 133.225 969.984 132.675 969.984 132.075C969.984 131.335 969.859 130.705 969.609 130.185C969.369 129.655 969.039 129.225 968.619 128.895C968.209 128.565 967.734 128.325 967.194 128.175C966.654 128.015 966.089 127.935 965.499 127.935C964.909 127.935 964.344 128.015 963.804 128.175C963.264 128.325 962.784 128.565 962.364 128.895C961.954 129.225 961.624 129.655 961.374 130.185C961.134 130.705 961.014 131.335 961.014 132.075C961.014 132.675 961.114 133.225 961.314 133.725C961.524 134.215 961.819 134.64 962.199 135C962.589 135.35 963.059 135.625 963.609 135.825C964.169 136.015 964.799 136.11 965.499 136.11ZM965.499 118.335C964.859 118.335 964.294 118.43 963.804 118.62C963.324 118.81 962.919 119.07 962.589 119.4C962.269 119.73 962.024 120.115 961.854 120.555C961.694 120.995 961.614 121.465 961.614 121.965C961.614 122.455 961.684 122.93 961.824 123.39C961.964 123.85 962.189 124.26 962.499 124.62C962.809 124.97 963.209 125.255 963.699 125.475C964.199 125.685 964.799 125.79 965.499 125.79C966.199 125.79 966.794 125.685 967.284 125.475C967.784 125.255 968.189 124.97 968.499 124.62C968.809 124.26 969.034 123.85 969.174 123.39C969.314 122.93 969.384 122.455 969.384 121.965C969.384 121.465 969.299 120.995 969.129 120.555C968.969 120.115 968.724 119.73 968.394 119.4C968.074 119.07 967.669 118.81 967.179 118.62C966.699 118.43 966.139 118.335 965.499 118.335ZM968.574 126.795C969.914 127.175 970.944 127.81 971.664 128.7C972.384 129.59 972.744 130.73 972.744 132.12C972.744 133.06 972.564 133.91 972.204 134.67C971.854 135.42 971.359 136.06 970.719 136.59C970.089 137.12 969.329 137.53 968.439 137.82C967.549 138.1 966.569 138.24 965.499 138.24C964.429 138.24 963.449 138.1 962.559 137.82C961.669 137.53 960.904 137.12 960.264 136.59C959.624 136.06 959.129 135.42 958.779 134.67C958.429 133.91 958.254 133.06 958.254 132.12C958.254 130.73 958.614 129.59 959.334 128.7C960.054 127.81 961.084 127.175 962.424 126.795C961.294 126.375 960.439 125.75 959.859 124.92C959.289 124.08 959.004 123.08 959.004 121.92C959.004 121.13 959.159 120.39 959.469 119.7C959.779 119.01 960.219 118.41 960.789 117.9C961.359 117.39 962.039 116.99 962.829 116.7C963.629 116.41 964.519 116.265 965.499 116.265C966.469 116.265 967.354 116.41 968.154 116.7C968.954 116.99 969.639 117.39 970.209 117.9C970.779 118.41 971.219 119.01 971.529 119.7C971.839 120.39 971.994 121.13 971.994 121.92C971.994 123.08 971.704 124.08 971.124 124.92C970.554 125.75 969.704 126.375 968.574 126.795ZM990.101 128.94H983.981V135.39H981.806V128.94H975.716V126.915H981.806V120.51H983.981V126.915H990.101V128.94ZM929.795 169.56C929.955 169.56 930.095 169.625 930.215 169.755L931.37 171C930.49 172.02 929.42 172.815 928.16 173.385C926.91 173.955 925.395 174.24 923.615 174.24C922.075 174.24 920.675 173.975 919.415 173.445C918.155 172.905 917.08 172.155 916.19 171.195C915.3 170.225 914.61 169.065 914.12 167.715C913.63 166.365 913.385 164.88 913.385 163.26C913.385 161.64 913.64 160.155 914.15 158.805C914.66 157.455 915.375 156.295 916.295 155.325C917.225 154.355 918.335 153.605 919.625 153.075C920.915 152.535 922.34 152.265 923.9 152.265C925.43 152.265 926.78 152.51 927.95 153C929.12 153.49 930.15 154.155 931.04 154.995L930.08 156.33C930.02 156.43 929.94 156.515 929.84 156.585C929.75 156.645 929.625 156.675 929.465 156.675C929.285 156.675 929.065 156.58 928.805 156.39C928.545 156.19 928.205 155.97 927.785 155.73C927.365 155.49 926.84 155.275 926.21 155.085C925.58 154.885 924.805 154.785 923.885 154.785C922.775 154.785 921.76 154.98 920.84 155.37C919.92 155.75 919.125 156.305 918.455 157.035C917.795 157.765 917.28 158.655 916.91 159.705C916.54 160.755 916.355 161.94 916.355 163.26C916.355 164.6 916.545 165.795 916.925 166.845C917.315 167.895 917.84 168.785 918.5 169.515C919.17 170.235 919.955 170.785 920.855 171.165C921.765 171.545 922.745 171.735 923.795 171.735C924.435 171.735 925.01 171.7 925.52 171.63C926.04 171.55 926.515 171.43 926.945 171.27C927.385 171.11 927.79 170.91 928.16 170.67C928.54 170.42 928.915 170.125 929.285 169.785C929.455 169.635 929.625 169.56 929.795 169.56ZM940.226 158.565C941.336 158.565 942.336 158.75 943.226 159.12C944.116 159.49 944.876 160.015 945.506 160.695C946.136 161.375 946.616 162.2 946.946 163.17C947.286 164.13 947.456 165.205 947.456 166.395C947.456 167.595 947.286 168.675 946.946 169.635C946.616 170.595 946.136 171.415 945.506 172.095C944.876 172.775 944.116 173.3 943.226 173.67C942.336 174.03 941.336 174.21 940.226 174.21C939.106 174.21 938.096 174.03 937.196 173.67C936.306 173.3 935.546 172.775 934.916 172.095C934.286 171.415 933.801 170.595 933.461 169.635C933.131 168.675 932.966 167.595 932.966 166.395C932.966 165.205 933.131 164.13 933.461 163.17C933.801 162.2 934.286 161.375 934.916 160.695C935.546 160.015 936.306 159.49 937.196 159.12C938.096 158.75 939.106 158.565 940.226 158.565ZM940.226 172.125C941.726 172.125 942.846 171.625 943.586 170.625C944.326 169.615 944.696 168.21 944.696 166.41C944.696 164.6 944.326 163.19 943.586 162.18C942.846 161.17 941.726 160.665 940.226 160.665C939.466 160.665 938.801 160.795 938.231 161.055C937.671 161.315 937.201 161.69 936.821 162.18C936.451 162.67 936.171 163.275 935.981 163.995C935.801 164.705 935.711 165.51 935.711 166.41C935.711 168.21 936.081 169.615 936.821 170.625C937.571 171.625 938.706 172.125 940.226 172.125ZM953.363 161.01C953.693 160.64 954.043 160.305 954.413 160.005C954.783 159.705 955.173 159.45 955.583 159.24C956.003 159.02 956.443 158.855 956.903 158.745C957.373 158.625 957.878 158.565 958.418 158.565C959.248 158.565 959.978 158.705 960.608 158.985C961.248 159.255 961.778 159.645 962.198 160.155C962.628 160.655 962.953 161.26 963.173 161.97C963.393 162.68 963.503 163.465 963.503 164.325V174H960.818V164.325C960.818 163.175 960.553 162.285 960.023 161.655C959.503 161.015 958.708 160.695 957.638 160.695C956.848 160.695 956.108 160.885 955.418 161.265C954.738 161.645 954.108 162.16 953.528 162.81V174H950.843V158.805H952.448C952.828 158.805 953.063 158.99 953.153 159.36L953.363 161.01ZM972.031 174.24C970.831 174.24 969.906 173.905 969.256 173.235C968.616 172.565 968.296 171.6 968.296 170.34V161.04H966.466C966.306 161.04 966.171 160.995 966.061 160.905C965.951 160.805 965.896 160.655 965.896 160.455V159.39L968.386 159.075L969.001 154.38C969.031 154.23 969.096 154.11 969.196 154.02C969.306 153.92 969.446 153.87 969.616 153.87H970.966V159.105H975.361V161.04H970.966V170.16C970.966 170.8 971.121 171.275 971.431 171.585C971.741 171.895 972.141 172.05 972.631 172.05C972.911 172.05 973.151 172.015 973.351 171.945C973.561 171.865 973.741 171.78 973.891 171.69C974.041 171.6 974.166 171.52 974.266 171.45C974.376 171.37 974.471 171.33 974.551 171.33C974.691 171.33 974.816 171.415 974.926 171.585L975.706 172.86C975.246 173.29 974.691 173.63 974.041 173.88C973.391 174.12 972.721 174.24 972.031 174.24ZM988.2 164.745C988.2 164.125 988.11 163.56 987.93 163.05C987.76 162.53 987.505 162.085 987.165 161.715C986.835 161.335 986.43 161.045 985.95 160.845C985.47 160.635 984.925 160.53 984.315 160.53C983.035 160.53 982.02 160.905 981.27 161.655C980.53 162.395 980.07 163.425 979.89 164.745H988.2ZM990.36 171.87C990.03 172.27 989.635 172.62 989.175 172.92C988.715 173.21 988.22 173.45 987.69 173.64C987.17 173.83 986.63 173.97 986.07 174.06C985.51 174.16 984.955 174.21 984.405 174.21C983.355 174.21 982.385 174.035 981.495 173.685C980.615 173.325 979.85 172.805 979.2 172.125C978.56 171.435 978.06 170.585 977.7 169.575C977.34 168.565 977.16 167.405 977.16 166.095C977.16 165.035 977.32 164.045 977.64 163.125C977.97 162.205 978.44 161.41 979.05 160.74C979.66 160.06 980.405 159.53 981.285 159.15C982.165 158.76 983.155 158.565 984.255 158.565C985.165 158.565 986.005 158.72 986.775 159.03C987.555 159.33 988.225 159.77 988.785 160.35C989.355 160.92 989.8 161.63 990.12 162.48C990.44 163.32 990.6 164.28 990.6 165.36C990.6 165.78 990.555 166.06 990.465 166.2C990.375 166.34 990.205 166.41 989.955 166.41H979.8C979.83 167.37 979.96 168.205 980.19 168.915C980.43 169.625 980.76 170.22 981.18 170.7C981.6 171.17 982.1 171.525 982.68 171.765C983.26 171.995 983.91 172.11 984.63 172.11C985.3 172.11 985.875 172.035 986.355 171.885C986.845 171.725 987.265 171.555 987.615 171.375C987.965 171.195 988.255 171.03 988.485 170.88C988.725 170.72 988.93 170.64 989.1 170.64C989.32 170.64 989.49 170.725 989.61 170.895L990.36 171.87ZM996.4 161.01C996.73 160.64 997.08 160.305 997.45 160.005C997.82 159.705 998.21 159.45 998.62 159.24C999.04 159.02 999.48 158.855 999.94 158.745C1000.41 158.625 1000.91 158.565 1001.45 158.565C1002.28 158.565 1003.01 158.705 1003.64 158.985C1004.28 159.255 1004.81 159.645 1005.23 160.155C1005.66 160.655 1005.99 161.26 1006.21 161.97C1006.43 162.68 1006.54 163.465 1006.54 164.325V174H1003.85V164.325C1003.85 163.175 1003.59 162.285 1003.06 161.655C1002.54 161.015 1001.74 160.695 1000.67 160.695C999.885 160.695 999.145 160.885 998.455 161.265C997.775 161.645 997.145 162.16 996.565 162.81V174H993.88V158.805H995.485C995.865 158.805 996.1 158.99 996.19 159.36L996.4 161.01ZM1015.07 174.24C1013.87 174.24 1012.94 173.905 1012.29 173.235C1011.65 172.565 1011.33 171.6 1011.33 170.34V161.04H1009.5C1009.34 161.04 1009.21 160.995 1009.1 160.905C1008.99 160.805 1008.93 160.655 1008.93 160.455V159.39L1011.42 159.075L1012.04 154.38C1012.07 154.23 1012.13 154.11 1012.23 154.02C1012.34 153.92 1012.48 153.87 1012.65 153.87H1014V159.105H1018.4V161.04H1014V170.16C1014 170.8 1014.16 171.275 1014.47 171.585C1014.78 171.895 1015.18 172.05 1015.67 172.05C1015.95 172.05 1016.19 172.015 1016.39 171.945C1016.6 171.865 1016.78 171.78 1016.93 171.69C1017.08 171.6 1017.2 171.52 1017.3 171.45C1017.41 171.37 1017.51 171.33 1017.59 171.33C1017.73 171.33 1017.85 171.415 1017.96 171.585L1018.74 172.86C1018.28 173.29 1017.73 173.63 1017.08 173.88C1016.43 174.12 1015.76 174.24 1015.07 174.24Z" fill="black"/>
<path d="M999.689 236.228C1002.75 236.284 1005.82 236.267 1008.88 236.236L1008.91 245.494L1015.93 245.513L1015.92 252.599C1013.59 252.617 1011.25 252.62 1008.92 252.609C1008.88 250.24 1008.92 247.865 1008.92 245.495C1005.83 245.551 1002.74 245.516 999.648 245.503L999.636 239.271C999.634 238.3 999.518 237.175 999.689 236.228Z" fill="#151010"/>
<path d="M1015.92 252.599L1025.02 252.606L1024.99 291.365C1024.99 297.128 1025.1 302.893 1025.04 308.657L1015.97 308.672C1015.89 309.525 1015.93 310.408 1015.93 311.267L1015.93 315.741L1008.93 315.746L1008.91 315.7C1009.02 313.373 1008.92 310.99 1008.92 308.657L1015.94 308.667L1015.95 299.312C1017.53 299.291 1019.12 299.309 1020.71 299.31L1020.7 261.935C1019.1 261.939 1017.51 261.932 1015.92 261.913C1015.87 258.811 1015.92 255.701 1015.92 252.599Z" fill="#151010"/>
<path d="M992.549 324.998C994.917 324.969 997.289 325.041 999.657 324.964L999.636 332.026L992.572 332.032L992.573 341.124C986.152 341.041 979.72 341.12 973.298 341.12L936.388 341.105C936.303 338.09 936.354 335.053 936.368 332.037L929.396 332.032C929.388 329.684 929.331 327.323 929.404 324.976C931.74 325.028 934.079 324.943 936.414 325.003C936.426 327.348 936.421 329.693 936.399 332.038L942.624 332.037C943.644 332.038 944.757 331.954 945.769 332.076L945.771 336.775L983.276 336.784L983.285 332.013C986.367 331.939 989.465 332.002 992.549 331.999C992.513 329.667 992.547 327.331 992.549 324.998Z" fill="#151010"/>
<path d="M936.362 220.014L973.43 220.04C979.807 220.039 986.2 220.126 992.574 220L992.57 229.176C994.923 229.212 997.28 229.181 999.634 229.18C999.629 231.509 999.559 233.862 999.661 236.188C997.294 236.209 994.927 236.206 992.56 236.179L992.565 229.218C989.454 229.236 986.343 229.239 983.232 229.225L983.232 224.284L945.773 224.274L945.769 229.224C942.664 229.225 939.547 229.284 936.444 229.206C936.482 231.553 936.491 233.9 936.473 236.246L929.398 236.242L929.399 245.586L920.101 245.574C920.121 247.921 920.115 250.268 920.081 252.614C917.763 252.636 915.444 252.635 913.126 252.612L913.132 261.945L908.269 261.947L908.251 299.321C909.878 299.32 911.509 299.299 913.135 299.321L913.133 308.665C915.46 308.66 917.791 308.629 920.118 308.66C920.123 311.007 920.019 313.404 920.12 315.744L913.074 315.72C913.091 313.372 913.093 311.023 913.082 308.675L904.009 308.666L904 252.601L913.061 252.591C913.016 250.235 913.054 247.872 913.054 245.516L920.072 245.508C920.037 242.385 920.072 239.257 920.074 236.134L929.345 236.16L929.343 229.169L936.386 229.164C936.277 226.127 936.359 223.055 936.362 220.014Z" fill="#151010"/>
<path d="M1008.92 252.609C1011.25 252.62 1013.59 252.617 1015.92 252.599C1015.92 255.701 1015.88 258.811 1015.92 261.912C1017.52 261.932 1019.11 261.939 1020.7 261.935L1020.71 299.31C1019.12 299.309 1017.54 299.291 1015.95 299.312L1015.94 308.667L1008.92 308.657C1008.92 310.99 1009.03 313.373 1008.91 315.7L1008.93 315.746L1008.92 324.879L1003.13 324.882C1001.99 324.882 1000.83 324.836 999.699 324.92L999.658 324.964C997.29 325.041 994.918 324.969 992.55 324.998C992.547 327.331 992.514 329.667 992.55 331.999C989.466 332.002 986.368 331.939 983.286 332.014L983.277 336.784L945.772 336.775L945.77 332.076C948.139 332.29 951.094 332.172 953.51 332.152C953.516 329.042 953.493 325.933 953.443 322.824L959.448 322.81C960.658 322.808 961.88 322.844 963.089 322.774C961.675 322.709 960.235 322.759 958.818 322.759L950.586 322.775L950.565 315.827L978.478 315.792C978.382 313.445 978.461 311.086 978.432 308.738L983.556 308.728C983.549 307.195 983.559 305.662 983.585 304.129L992.637 304.128L992.586 294.781L997.454 294.771V285.331C998.936 285.359 1000.43 285.327 1001.91 285.322L1001.91 266.557C1001.44 266.561 1000.96 266.569 1000.49 266.53C1000.55 265.758 1000.51 264.95 1000.51 264.174L1000.51 259.604L1008.94 259.61L1008.92 252.609Z" fill="#E70D12"/>
<path d="M1008.91 315.7L1008.93 315.746L1008.92 324.879L1003.13 324.882C1001.99 324.882 1000.83 324.836 999.699 324.92C999.457 324.204 999.646 317.04 999.649 315.692L1008.91 315.7Z" fill="#151010"/>
<path d="M1000.49 266.53C1002.53 266.373 1004.66 266.498 1006.71 266.505L1006.72 294.796L999.694 294.789L999.722 304.138L992.641 304.128L992.64 308.764L985.277 308.762L985.291 315.828L978.62 315.822L978.605 322.781L968.208 322.762C966.518 322.761 964.773 322.674 963.088 322.773C961.674 322.708 960.235 322.758 958.818 322.758L950.585 322.774L950.564 315.826L978.478 315.791C978.382 313.445 978.461 311.086 978.432 308.737L983.556 308.728C983.549 307.194 983.558 305.661 983.584 304.128L992.637 304.127L992.585 294.78L997.454 294.77V285.33C998.936 285.358 1000.42 285.327 1001.91 285.322L1001.91 266.556C1001.44 266.561 1000.96 266.569 1000.49 266.53Z" fill="#B6C7C0"/>
<path d="M945.773 224.273L983.231 224.284L983.231 229.224C986.342 229.238 989.453 229.236 992.564 229.217L992.559 236.178C994.926 236.205 997.293 236.208 999.66 236.187L999.688 236.227C999.516 237.175 999.633 238.299 999.635 239.27L999.646 245.503C1002.73 245.516 1005.83 245.55 1008.92 245.494C1008.92 247.864 1008.88 250.239 1008.92 252.609L1008.93 259.609L1000.51 259.604L1000.51 264.174C1000.51 264.95 1000.55 265.757 1000.49 266.53C1000.39 265.735 1000.44 264.894 1000.44 264.092L1000.45 259.61L992.57 259.611L992.567 252.594L985.526 252.593C985.543 250.236 985.542 247.879 985.524 245.522L978.546 245.518L978.539 238.585L950.511 238.584L950.515 245.533C948.177 245.543 945.836 245.576 943.498 245.555L943.496 252.594L936.492 252.593L936.495 259.597C934.136 259.599 931.773 259.572 929.414 259.605L929.411 266.554L922.409 266.606C922.388 275.95 922.289 285.313 922.414 294.655L929.42 294.649L929.429 304.006L936.427 304.009L936.437 308.753L943.58 308.766C943.575 311.121 943.584 313.476 943.606 315.831C945.924 315.829 948.245 315.801 950.563 315.826L950.584 322.774L958.817 322.758C960.234 322.758 961.673 322.708 963.087 322.773C961.879 322.843 960.657 322.808 959.447 322.809L953.441 322.824C953.492 325.933 953.514 329.042 953.508 332.151C951.093 332.172 948.137 332.289 945.768 332.076C944.757 331.954 943.644 332.038 942.624 332.037L936.399 332.038C936.421 329.693 936.426 327.348 936.414 325.003C934.079 324.942 931.74 325.028 929.404 324.975L929.374 324.912C928.329 324.798 927.201 324.875 926.147 324.875H920.139C920.151 321.831 920.144 318.787 920.119 315.744C920.018 313.404 920.122 311.006 920.118 308.659C917.79 308.628 915.459 308.66 913.132 308.664L913.135 299.321C911.508 299.298 909.877 299.319 908.25 299.32L908.268 261.946L913.131 261.944L913.125 252.612C915.443 252.635 917.762 252.636 920.08 252.614C920.114 250.267 920.121 247.92 920.1 245.573L929.398 245.585L929.397 236.241L936.472 236.246C936.49 233.899 936.481 231.552 936.443 229.206C939.547 229.283 942.664 229.224 945.768 229.223L945.773 224.273Z" fill="#F73131"/>
<path d="M920.121 315.744L929.424 315.749L929.43 322.039C929.43 322.913 929.556 324.065 929.377 324.913C928.331 324.798 927.203 324.876 926.149 324.876H920.141C920.153 321.832 920.146 318.788 920.121 315.744Z" fill="#151010"/>
<path d="M950.511 238.585L978.539 238.586L978.545 245.518L985.523 245.522C985.542 247.879 985.542 250.237 985.526 252.594L992.566 252.595L992.569 259.611L1000.45 259.61L1000.44 264.093C1000.44 264.894 1000.39 265.736 1000.49 266.53C1000.96 266.569 1001.43 266.562 1001.91 266.557L1001.91 285.322C1000.42 285.328 998.935 285.359 997.453 285.331V294.771L992.584 294.781L992.636 304.128L983.583 304.129C983.557 305.662 983.547 307.195 983.554 308.728L978.43 308.738C978.459 311.086 978.38 313.445 978.477 315.792L950.563 315.827C948.245 315.801 945.924 315.83 943.606 315.832C943.584 313.477 943.575 311.122 943.58 308.766L936.437 308.754L936.426 304.01L929.429 304.007L929.42 294.65L922.413 294.656C922.289 285.314 922.387 275.951 922.409 266.607L929.411 266.554L929.414 259.606C931.773 259.573 934.136 259.6 936.495 259.598L936.491 252.594L943.496 252.595L943.498 245.556C945.836 245.577 948.177 245.544 950.515 245.533L950.511 238.585Z" fill="white"/>
<path d="M969.211 261.959L983.081 261.959L983.088 275.963L976.258 275.961C976.232 279.097 976.233 282.233 976.263 285.368L983.078 285.397C983.079 286.814 983.17 298.878 983.08 299.108C983.062 299.155 983.013 299.183 982.98 299.221L969.186 299.188C969.198 296.866 969.188 294.544 969.157 292.222L959.948 292.245C959.906 294.571 959.934 296.903 959.929 299.229C955.25 299.11 950.548 299.196 945.866 299.189L945.864 285.188L952.856 285.175L952.856 275.975C950.536 275.922 948.206 275.967 945.885 275.966C945.73 271.313 945.853 266.618 945.853 261.961L959.927 261.967L959.926 268.957L969.209 268.958L969.211 261.959Z" fill="#E70D12"/>
</svg>
