<svg width="357" height="541" viewBox="0 0 357 541" fill="none" xmlns="http://www.w3.org/2000/svg">
<path fill-rule="evenodd" clip-rule="evenodd" d="M19.209 243.105H146.392V28.4844H136.97V35.1892H141.681V41.897H23.9179V35.1892H28.629V28.4844H19.209V243.105Z" fill="white"/>
<path fill-rule="evenodd" clip-rule="evenodd" d="M108.826 4.73115V0H56.7787V4.73115H52.0476V9.46334H0V261.369H165.604V9.46328H113.558V4.73109L108.826 4.73115ZM37.8532 23.6577H14.1944V247.174H151.41V23.6577H127.753V18.9266H123.021V14.1944H160.874V256.637H4.73116V14.1944H42.5832V18.9266H37.8532V23.6577ZM23.6566 37.8521H141.947V33.12H137.215V28.3899H146.679V242.442H18.9266V28.3899H28.3888V33.12H23.6566V37.8521ZM108.826 4.73115V9.46334L113.558 9.46328L113.558 14.1944H118.289V18.9266L123.021 18.9266V23.6577H127.753V28.3899H132.485V33.12H33.121V28.3899H37.8532V23.6577H42.5832V18.9266H47.3154V14.1944H52.0476L52.0476 9.46334L56.7788 9.46328L56.7787 4.73115H108.826Z" fill="black"/>
<path fill-rule="evenodd" clip-rule="evenodd" d="M4.73047 256.542H160.873V14.1953H123.02V18.9274H127.752V23.6586H151.409V247.079H14.1937V23.6586H37.8525V18.9274H42.5826V14.1953H4.73047L4.73047 256.542Z" fill="#F26C2F"/>
<path fill-rule="evenodd" clip-rule="evenodd" d="M108.826 4.73242H56.7788V9.46455H52.0477V14.1957H47.3155V18.9278H42.5833V23.659H37.8533V28.3912H33.1211V33.1212H132.485V28.3912H127.753V23.659H123.021V18.9278H118.289V14.1957H113.559V9.46455H108.826V4.73242Z" fill="#FDBE31"/>
<path d="M61.173 90.5703H59.3671V84.5321H52.2175V90.5703H50.4116V77.2992H52.2175V83.217H59.3671V77.2992H61.173V90.5703ZM71.0427 90.5703H70.3111C70.1505 90.5703 70.0209 90.5456 69.9221 90.4962C69.8233 90.4468 69.7585 90.3419 69.7276 90.1813L69.5424 89.3108C69.2954 89.5331 69.0547 89.7337 68.82 89.9128C68.5854 90.0856 68.3385 90.2338 68.0791 90.3573C67.8198 90.4746 67.542 90.5641 67.2456 90.6259C66.9555 90.6876 66.6313 90.7185 66.2732 90.7185C65.909 90.7185 65.5663 90.6691 65.2453 90.5703C64.9304 90.4654 64.6556 90.311 64.421 90.1073C64.1864 89.9035 63.9981 89.6473 63.8561 89.3386C63.7203 89.0237 63.6523 88.6533 63.6523 88.2273C63.6523 87.8568 63.7542 87.5018 63.958 87.1622C64.1617 86.8165 64.4889 86.5109 64.9396 86.2454C65.3965 85.9799 65.9923 85.7638 66.727 85.5971C67.4617 85.4242 68.3601 85.3254 69.422 85.3007V84.5691C69.422 83.8406 69.2646 83.2911 68.9497 82.9206C68.641 82.544 68.181 82.3557 67.5698 82.3557C67.1685 82.3557 66.8289 82.4082 66.5511 82.5132C66.2794 82.6119 66.0417 82.7262 65.838 82.8558C65.6404 82.9793 65.4675 83.0935 65.3193 83.1985C65.1773 83.2973 65.0353 83.3467 64.8933 83.3467C64.7822 83.3467 64.6834 83.3189 64.597 83.2633C64.5167 83.2016 64.4519 83.1275 64.4025 83.041L64.1061 82.5132C64.6248 82.0131 65.1835 81.6395 65.7824 81.3926C66.3813 81.1456 67.045 81.0221 67.7735 81.0221C68.2983 81.0221 68.7645 81.1086 69.172 81.2814C69.5794 81.4543 69.9221 81.6951 70.1999 82.0038C70.4778 82.3125 70.6877 82.686 70.8297 83.1244C70.9717 83.5627 71.0427 84.0443 71.0427 84.5691V90.5703ZM66.7641 89.5609C67.0543 89.5609 67.3197 89.5331 67.5605 89.4775C67.8013 89.4158 68.0267 89.3324 68.2366 89.2275C68.4527 89.1163 68.6564 88.9836 68.8478 88.8292C69.0454 88.6749 69.2368 88.4989 69.422 88.3013V86.3472C68.6626 86.3719 68.0174 86.4337 67.4864 86.5325C66.9555 86.6251 66.5233 86.7486 66.1899 86.9029C65.8565 87.0573 65.6126 87.2394 65.4583 87.4493C65.3101 87.6592 65.236 87.8939 65.236 88.1532C65.236 88.4001 65.2761 88.6131 65.3564 88.7922C65.4366 88.9712 65.5447 89.1194 65.6805 89.2367C65.8164 89.3478 65.9769 89.4312 66.1621 89.4868C66.3473 89.5362 66.548 89.5609 66.7641 89.5609ZM73.5402 90.5703V81.1888H74.4848C74.6638 81.1888 74.7873 81.2228 74.8552 81.2907C74.9232 81.3586 74.9695 81.4759 74.9942 81.6426L75.1053 83.1059C75.4263 82.4514 75.8215 81.9421 76.2907 81.5778C76.7661 81.2073 77.3218 81.0221 77.9577 81.0221C78.217 81.0221 78.4516 81.053 78.6615 81.1147C78.8715 81.1703 79.066 81.2506 79.245 81.3555L79.032 82.5872C78.9888 82.7416 78.8931 82.8188 78.7449 82.8188C78.6585 82.8188 78.5257 82.791 78.3467 82.7354C78.1676 82.6737 77.9176 82.6428 77.5965 82.6428C77.0223 82.6428 76.5408 82.8095 76.1518 83.1429C75.769 83.4763 75.4479 83.961 75.1886 84.5969V90.5703H73.5402ZM81.0105 90.5703V81.1888H81.9922C82.2268 81.1888 82.375 81.303 82.4368 81.5315L82.5571 82.4946C82.9029 82.0686 83.2888 81.7198 83.7148 81.4481C84.147 81.1765 84.6471 81.0406 85.2151 81.0406C85.851 81.0406 86.3635 81.2166 86.7524 81.5685C87.1476 81.9204 87.4316 82.3958 87.6044 82.9947C87.7341 82.6552 87.9039 82.3619 88.1138 82.1149C88.3299 81.868 88.5707 81.6642 88.8362 81.5037C89.1017 81.3432 89.3826 81.2259 89.6789 81.1518C89.9815 81.0777 90.2871 81.0406 90.5958 81.0406C91.0897 81.0406 91.5281 81.1209 91.9109 81.2814C92.2998 81.4358 92.6271 81.6642 92.8925 81.9667C93.1642 82.2693 93.371 82.6428 93.513 83.0873C93.655 83.5257 93.726 84.0289 93.726 84.5969V90.5703H92.0776V84.5969C92.0776 83.8622 91.917 83.3065 91.596 82.9299C91.2749 82.5471 90.8088 82.3557 90.1976 82.3557C89.9259 82.3557 89.6666 82.4051 89.4196 82.5039C89.1788 82.5965 88.9658 82.7354 88.7806 82.9206C88.5954 83.1059 88.4472 83.3405 88.3361 83.6245C88.2311 83.9023 88.1786 84.2265 88.1786 84.5969V90.5703H86.5302V84.5969C86.5302 83.8437 86.3789 83.2818 86.0764 82.9114C85.7738 82.5409 85.3324 82.3557 84.752 82.3557C84.3445 82.3557 83.9648 82.4668 83.6129 82.6891C83.2672 82.9052 82.9492 83.2016 82.659 83.5782V90.5703H81.0105ZM96.5931 90.5703V82.5965L95.5558 82.4761C95.4262 82.4452 95.3181 82.3989 95.2317 82.3372C95.1514 82.2693 95.1113 82.1736 95.1113 82.0501V81.374H96.5931V80.4664C96.5931 79.9293 96.6672 79.4539 96.8153 79.0402C96.9697 78.6204 97.1858 78.2685 97.4636 77.9845C97.7476 77.6943 98.0872 77.4751 98.4823 77.3269C98.8775 77.1788 99.322 77.1047 99.8159 77.1047C100.236 77.1047 100.625 77.1664 100.983 77.2899L100.946 78.1141C100.94 78.2376 100.887 78.3117 100.788 78.3364C100.69 78.3611 100.551 78.3734 100.372 78.3734H100.085C99.8005 78.3734 99.5412 78.4105 99.3066 78.4846C99.0781 78.5587 98.8806 78.6791 98.7139 78.8458C98.5472 79.0125 98.4175 79.2316 98.3249 79.5033C98.2385 79.775 98.1952 80.1114 98.1952 80.5128V81.374H100.909V82.5687H98.2508V90.5703H96.5931ZM103.889 81.1888V87.1715C103.889 87.8815 104.053 88.431 104.38 88.82C104.707 89.2089 105.201 89.4034 105.862 89.4034C106.343 89.4034 106.797 89.2892 107.223 89.0608C107.649 88.8323 108.041 88.5143 108.399 88.1069V81.1888H110.048V90.5703H109.066C108.832 90.5703 108.683 90.4561 108.622 90.2277L108.492 89.2182C108.085 89.6689 107.628 90.0332 107.121 90.311C106.615 90.5827 106.035 90.7185 105.38 90.7185C104.868 90.7185 104.414 90.6351 104.019 90.4684C103.63 90.2956 103.303 90.0548 103.037 89.7461C102.772 89.4374 102.571 89.0638 102.435 88.6255C102.306 88.1871 102.241 87.7025 102.241 87.1715V81.1888H103.889ZM114.589 76.9287V90.5703H112.94V76.9287H114.589ZM56.7541 112.57H55.365C55.2044 112.57 55.0748 112.53 54.976 112.45C54.8772 112.37 54.8031 112.268 54.7537 112.144L53.5127 108.94H47.5578L46.3169 112.144C46.2736 112.255 46.1996 112.354 46.0946 112.441C45.9896 112.527 45.86 112.57 45.7056 112.57H44.3165L49.6231 99.2992H51.4475L56.7541 112.57ZM48.0579 107.643H53.0126L50.9289 102.244C50.7931 101.911 50.6603 101.494 50.5307 100.994C50.4627 101.247 50.3948 101.482 50.3269 101.698C50.2652 101.908 50.2034 102.093 50.1417 102.253L48.0579 107.643ZM64.5647 104.856C64.5153 104.924 64.4659 104.976 64.4165 105.013C64.3671 105.05 64.2961 105.069 64.2035 105.069C64.1109 105.069 64.009 105.032 63.8979 104.958C63.7929 104.877 63.6571 104.791 63.4904 104.698C63.3237 104.606 63.12 104.522 62.8792 104.448C62.6446 104.368 62.3544 104.328 62.0086 104.328C61.5518 104.328 61.1474 104.411 60.7954 104.578C60.4435 104.739 60.1472 104.973 59.9064 105.282C59.6718 105.591 59.4927 105.964 59.3692 106.402C59.2519 106.841 59.1933 107.332 59.1933 107.875C59.1933 108.443 59.2581 108.949 59.3877 109.394C59.5174 109.832 59.6995 110.203 59.9342 110.505C60.1688 110.801 60.4528 111.03 60.7862 111.19C61.1257 111.345 61.5055 111.422 61.9253 111.422C62.3266 111.422 62.6569 111.376 62.9162 111.283C63.1755 111.184 63.3916 111.076 63.5645 110.959C63.7374 110.842 63.8794 110.737 63.9905 110.644C64.1017 110.545 64.2128 110.496 64.3239 110.496C64.4659 110.496 64.5709 110.548 64.6388 110.653L65.1018 111.255C64.6944 111.755 64.185 112.123 63.5738 112.357C62.9625 112.586 62.3173 112.7 61.6382 112.7C61.0517 112.7 60.5053 112.592 59.999 112.376C59.4989 112.16 59.0636 111.848 58.6932 111.44C58.3227 111.027 58.0295 110.521 57.8134 109.922C57.6034 109.323 57.4985 108.641 57.4985 107.875C57.4985 107.177 57.5942 106.532 57.7856 105.939C57.9831 105.347 58.2672 104.837 58.6376 104.411C59.0142 103.979 59.4773 103.643 60.0268 103.402C60.5763 103.161 61.206 103.041 61.916 103.041C62.5705 103.041 63.1508 103.149 63.6571 103.365C64.1634 103.575 64.611 103.874 65 104.263L64.5647 104.856ZM69.6546 112.718C68.9137 112.718 68.3426 112.512 67.9412 112.098C67.5461 111.684 67.3485 111.089 67.3485 110.311V104.569H66.2187C66.1199 104.569 66.0365 104.541 65.9686 104.485C65.9007 104.424 65.8668 104.331 65.8668 104.208V103.55L67.4041 103.356L67.7838 100.457C67.7962 100.364 67.8363 100.29 67.9042 100.235C67.9721 100.173 68.0586 100.142 68.1635 100.142H68.997V103.374H71.6827V104.569H68.997V110.199C68.997 110.595 69.0927 110.888 69.2841 111.079C69.4755 111.271 69.7225 111.366 70.025 111.366C70.1979 111.366 70.346 111.345 70.4695 111.302C70.5992 111.252 70.7103 111.2 70.8029 111.144C70.8955 111.089 70.9727 111.039 71.0345 110.996C71.1024 110.947 71.161 110.922 71.2104 110.922C71.2969 110.922 71.374 110.974 71.4419 111.079L71.9235 111.866C71.6395 112.132 71.2969 112.342 70.8955 112.496C70.4942 112.644 70.0806 112.718 69.6546 112.718ZM75.5547 103.189V112.57H73.9063V103.189H75.5547ZM75.9252 100.244C75.9252 100.404 75.8912 100.556 75.8233 100.698C75.7616 100.833 75.6751 100.957 75.564 101.068C75.459 101.173 75.3356 101.256 75.1936 101.318C75.0516 101.38 74.9003 101.411 74.7398 101.411C74.5792 101.411 74.428 101.38 74.286 101.318C74.1501 101.256 74.0267 101.173 73.9155 101.068C73.8106 100.957 73.7272 100.833 73.6655 100.698C73.6037 100.556 73.5729 100.404 73.5729 100.244C73.5729 100.083 73.6037 99.932 73.6655 99.79C73.7272 99.6418 73.8106 99.5152 73.9155 99.4103C74.0267 99.2992 74.1501 99.2127 74.286 99.151C74.428 99.0892 74.5792 99.0584 74.7398 99.0584C74.9003 99.0584 75.0516 99.0892 75.1936 99.151C75.3356 99.2127 75.459 99.2992 75.564 99.4103C75.6751 99.5152 75.7616 99.6418 75.8233 99.79C75.8912 99.932 75.9252 100.083 75.9252 100.244ZM77.2747 103.189H78.6268C78.7565 103.189 78.8645 103.223 78.951 103.291C79.0374 103.359 79.0991 103.439 79.1362 103.531L81.5163 109.57C81.6027 109.792 81.6706 110.014 81.72 110.237C81.7694 110.459 81.8157 110.678 81.8589 110.894C81.9083 110.678 81.9608 110.459 82.0164 110.237C82.072 110.014 82.143 109.792 82.2294 109.57L84.6373 103.531C84.6743 103.433 84.733 103.352 84.8132 103.291C84.8997 103.223 85.0046 103.189 85.1281 103.189H86.4154L82.5906 112.57H81.0995L77.2747 103.189ZM89.772 103.189V112.57H88.1235V103.189H89.772ZM90.1424 100.244C90.1424 100.404 90.1085 100.556 90.0406 100.698C89.9788 100.833 89.8924 100.957 89.7812 101.068C89.6763 101.173 89.5528 101.256 89.4108 101.318C89.2688 101.38 89.1175 101.411 88.957 101.411C88.7965 101.411 88.6452 101.38 88.5032 101.318C88.3674 101.256 88.2439 101.173 88.1328 101.068C88.0278 100.957 87.9445 100.833 87.8827 100.698C87.821 100.556 87.7901 100.404 87.7901 100.244C87.7901 100.083 87.821 99.932 87.8827 99.79C87.9445 99.6418 88.0278 99.5152 88.1328 99.4103C88.2439 99.2992 88.3674 99.2127 88.5032 99.151C88.6452 99.0892 88.7965 99.0584 88.957 99.0584C89.1175 99.0584 89.2688 99.0892 89.4108 99.151C89.5528 99.2127 89.6763 99.2992 89.7812 99.4103C89.8924 99.5152 89.9788 99.6418 90.0406 99.79C90.1085 99.932 90.1424 100.083 90.1424 100.244ZM95.5205 112.718C94.7796 112.718 94.2085 112.512 93.8072 112.098C93.4121 111.684 93.2145 111.089 93.2145 110.311V104.569H92.0847C91.9859 104.569 91.9025 104.541 91.8346 104.485C91.7667 104.424 91.7327 104.331 91.7327 104.208V103.55L93.2701 103.356L93.6498 100.457C93.6621 100.364 93.7023 100.29 93.7702 100.235C93.8381 100.173 93.9245 100.142 94.0295 100.142H94.863V103.374H97.5487V104.569H94.863V110.199C94.863 110.595 94.9587 110.888 95.1501 111.079C95.3415 111.271 95.5884 111.366 95.891 111.366C96.0638 111.366 96.212 111.345 96.3355 111.302C96.4652 111.252 96.5763 111.2 96.6689 111.144C96.7615 111.089 96.8387 111.039 96.9004 110.996C96.9683 110.947 97.027 110.922 97.0764 110.922C97.1628 110.922 97.24 110.974 97.3079 111.079L97.7895 111.866C97.5055 112.132 97.1628 112.342 96.7615 112.496C96.3602 112.644 95.9465 112.718 95.5205 112.718ZM101.421 103.189V112.57H99.7722V103.189H101.421ZM101.791 100.244C101.791 100.404 101.757 100.556 101.689 100.698C101.628 100.833 101.541 100.957 101.43 101.068C101.325 101.173 101.202 101.256 101.06 101.318C100.918 101.38 100.766 101.411 100.606 101.411C100.445 101.411 100.294 101.38 100.152 101.318C100.016 101.256 99.8926 101.173 99.7815 101.068C99.6765 100.957 99.5932 100.833 99.5314 100.698C99.4697 100.556 99.4388 100.404 99.4388 100.244C99.4388 100.083 99.4697 99.932 99.5314 99.79C99.5932 99.6418 99.6765 99.5152 99.7815 99.4103C99.8926 99.2992 100.016 99.2127 100.152 99.151C100.294 99.0892 100.445 99.0584 100.606 99.0584C100.766 99.0584 100.918 99.0892 101.06 99.151C101.202 99.2127 101.325 99.2992 101.43 99.4103C101.541 99.5152 101.628 99.6418 101.689 99.79C101.757 99.932 101.791 100.083 101.791 100.244ZM108.04 103.041C108.602 103.041 109.12 103.136 109.596 103.328C110.071 103.513 110.482 103.785 110.827 104.143C111.173 104.495 111.442 104.933 111.633 105.458C111.831 105.976 111.929 106.569 111.929 107.236C111.929 107.495 111.902 107.668 111.846 107.755C111.791 107.841 111.686 107.884 111.531 107.884H105.289C105.302 108.477 105.382 108.992 105.53 109.431C105.678 109.869 105.882 110.237 106.141 110.533C106.401 110.823 106.709 111.042 107.067 111.19C107.425 111.332 107.827 111.403 108.271 111.403C108.685 111.403 109.04 111.357 109.336 111.264C109.639 111.166 109.898 111.061 110.114 110.95C110.33 110.838 110.509 110.737 110.651 110.644C110.8 110.545 110.926 110.496 111.031 110.496C111.167 110.496 111.272 110.548 111.346 110.653L111.809 111.255C111.605 111.502 111.361 111.718 111.077 111.904C110.793 112.083 110.488 112.231 110.161 112.348C109.84 112.465 109.506 112.552 109.16 112.607C108.815 112.669 108.472 112.7 108.132 112.7C107.484 112.7 106.885 112.592 106.336 112.376C105.792 112.154 105.32 111.833 104.919 111.413C104.524 110.987 104.215 110.462 103.993 109.838C103.77 109.215 103.659 108.499 103.659 107.69C103.659 107.035 103.758 106.424 103.956 105.856C104.159 105.288 104.45 104.797 104.826 104.383C105.203 103.964 105.663 103.636 106.206 103.402C106.749 103.161 107.361 103.041 108.04 103.041ZM108.077 104.254C107.28 104.254 106.654 104.485 106.197 104.948C105.74 105.405 105.456 106.041 105.345 106.856H110.448C110.448 106.473 110.395 106.125 110.29 105.81C110.185 105.489 110.031 105.214 109.827 104.985C109.623 104.751 109.373 104.572 109.077 104.448C108.787 104.319 108.453 104.254 108.077 104.254ZM119.411 104.735C119.337 104.871 119.223 104.939 119.068 104.939C118.976 104.939 118.871 104.905 118.753 104.837C118.636 104.769 118.491 104.695 118.318 104.615C118.151 104.529 117.951 104.451 117.716 104.383C117.481 104.309 117.204 104.272 116.883 104.272C116.605 104.272 116.355 104.309 116.132 104.383C115.91 104.451 115.719 104.547 115.558 104.671C115.404 104.794 115.283 104.939 115.197 105.106C115.117 105.266 115.077 105.442 115.077 105.634C115.077 105.875 115.145 106.075 115.28 106.236C115.422 106.396 115.608 106.535 115.836 106.652C116.064 106.77 116.324 106.875 116.614 106.967C116.904 107.054 117.201 107.149 117.503 107.254C117.812 107.353 118.111 107.464 118.401 107.588C118.692 107.711 118.951 107.866 119.179 108.051C119.408 108.236 119.59 108.465 119.726 108.736C119.868 109.002 119.939 109.323 119.939 109.699C119.939 110.132 119.862 110.533 119.707 110.903C119.553 111.268 119.324 111.586 119.022 111.857C118.719 112.123 118.349 112.333 117.911 112.487C117.472 112.641 116.966 112.718 116.392 112.718C115.737 112.718 115.145 112.614 114.614 112.404C114.083 112.188 113.632 111.913 113.261 111.579L113.65 110.95C113.7 110.869 113.758 110.808 113.826 110.764C113.894 110.721 113.984 110.7 114.095 110.7C114.206 110.7 114.323 110.743 114.447 110.829C114.57 110.916 114.719 111.011 114.891 111.116C115.07 111.221 115.283 111.317 115.53 111.403C115.784 111.49 116.098 111.533 116.475 111.533C116.796 111.533 117.077 111.493 117.318 111.413C117.559 111.326 117.759 111.212 117.92 111.07C118.08 110.928 118.198 110.764 118.272 110.579C118.352 110.394 118.392 110.196 118.392 109.986C118.392 109.727 118.321 109.514 118.179 109.347C118.043 109.175 117.861 109.029 117.633 108.912C117.404 108.789 117.142 108.684 116.846 108.597C116.555 108.505 116.256 108.409 115.947 108.31C115.645 108.211 115.345 108.1 115.049 107.977C114.759 107.847 114.499 107.687 114.271 107.495C114.042 107.304 113.857 107.069 113.715 106.791C113.579 106.507 113.512 106.165 113.512 105.763C113.512 105.405 113.586 105.063 113.734 104.735C113.882 104.402 114.098 104.112 114.382 103.865C114.666 103.612 115.015 103.411 115.429 103.263C115.842 103.115 116.315 103.041 116.846 103.041C117.463 103.041 118.015 103.139 118.503 103.337C118.997 103.528 119.423 103.794 119.781 104.133L119.411 104.735Z" fill="black"/>
<path d="M106.443 156.479C108.47 156.516 110.506 156.505 112.533 156.484L112.551 162.617L117.198 162.629L117.196 167.323C115.65 167.335 114.104 167.337 112.558 167.33C112.534 165.76 112.556 164.187 112.556 162.617C110.512 162.654 108.46 162.631 106.415 162.623L106.407 158.494C106.407 157.851 106.329 157.106 106.443 156.479Z" fill="#151010"/>
<path d="M117.194 167.324L123.223 167.329L123.201 193.004C123.202 196.821 123.276 200.64 123.235 204.458L117.225 204.468C117.174 205.033 117.201 205.618 117.2 206.187L117.201 209.15L112.563 209.154L112.551 209.123C112.626 207.582 112.556 206.003 112.555 204.458L117.209 204.464L117.213 198.268C118.264 198.254 119.316 198.266 120.367 198.266L120.358 173.509C119.304 173.512 118.25 173.506 117.196 173.494C117.164 171.439 117.194 169.379 117.194 167.324Z" fill="#151010"/>
<path d="M101.713 215.284C103.282 215.265 104.853 215.313 106.422 215.262L106.408 219.94L101.729 219.943L101.729 225.966C97.4761 225.912 93.2156 225.963 88.9618 225.963L64.5118 225.954C64.456 223.957 64.4896 221.945 64.4989 219.947L59.8806 219.944C59.875 218.388 59.8371 216.824 59.8859 215.269C61.4331 215.304 62.9828 215.248 64.5292 215.288C64.5371 216.841 64.5338 218.395 64.5194 219.948L68.6431 219.947C69.3185 219.948 70.0559 219.892 70.7258 219.973L70.7275 223.085L95.5712 223.091L95.577 219.931C97.6188 219.882 99.6707 219.924 101.713 219.922C101.69 218.377 101.712 216.83 101.713 215.284Z" fill="#151010"/>
<path d="M64.4938 145.74L89.048 145.757C93.2718 145.756 97.5068 145.814 101.729 145.73L101.726 151.809C103.285 151.832 104.846 151.812 106.406 151.812C106.402 153.354 106.356 154.913 106.423 156.453C104.855 156.467 103.287 156.465 101.719 156.447L101.723 151.837C99.662 151.849 97.6012 151.85 95.5404 151.841L95.5409 148.568L70.7278 148.562L70.7249 151.84C68.6684 151.841 66.6036 151.88 64.548 151.829C64.5728 153.383 64.579 154.938 64.5668 156.492L59.8804 156.489L59.8814 162.679L53.722 162.671C53.7357 164.225 53.7313 165.78 53.7087 167.335C52.1731 167.349 50.6373 167.348 49.1017 167.333L49.106 173.515L45.8842 173.516L45.8725 198.273C46.9504 198.273 48.0304 198.259 49.1081 198.274L49.1062 204.463C50.6481 204.46 52.192 204.439 53.7337 204.459C53.7365 206.014 53.6678 207.602 53.7346 209.152L49.0675 209.136C49.0784 207.581 49.0801 206.025 49.0725 204.47L43.0625 204.464L43.0566 167.326L49.0588 167.319C49.0288 165.759 49.0541 164.193 49.0538 162.632L53.703 162.627C53.6799 160.559 53.7032 158.487 53.704 156.418L59.8452 156.435L59.8441 151.804L64.5095 151.801C64.4372 149.789 64.4915 147.754 64.4938 145.74Z" fill="#151010"/>
<path d="M112.557 167.331C114.103 167.339 115.648 167.336 117.194 167.324C117.194 169.379 117.164 171.439 117.196 173.494C118.25 173.506 119.304 173.511 120.358 173.509L120.367 198.266C119.316 198.266 118.264 198.254 117.213 198.268L117.209 204.464L112.555 204.458C112.556 206.003 112.626 207.582 112.551 209.123L112.563 209.154L112.556 215.203L108.721 215.205C107.969 215.206 107.198 215.175 106.448 215.231L106.421 215.26C104.852 215.311 103.281 215.263 101.712 215.283C101.711 216.828 101.689 218.375 101.712 219.92C99.6695 219.922 97.6176 219.88 95.5758 219.93L95.57 223.089L70.7264 223.084L70.7246 219.971C72.294 220.112 74.2518 220.035 75.8518 220.021C75.8557 217.961 75.8409 215.902 75.8074 213.842L79.7856 213.833C80.587 213.832 81.3967 213.855 82.197 213.809C81.2603 213.766 80.3067 213.799 79.3683 213.799L73.9149 213.81L73.9009 209.207L92.3913 209.184C92.3275 207.63 92.3797 206.067 92.3604 204.511L95.7548 204.505C95.7501 203.489 95.7564 202.474 95.7737 201.458L101.77 201.458L101.736 195.266L104.961 195.259V189.006C105.943 189.025 106.929 189.004 107.911 189.001L107.912 176.57C107.598 176.573 107.286 176.579 106.972 176.553C107.015 176.041 106.988 175.506 106.988 174.992L106.985 171.965L112.567 171.969L112.557 167.331Z" fill="#E70D12"/>
<path d="M112.552 209.122L112.564 209.153L112.557 215.202L108.722 215.204C107.969 215.205 107.199 215.174 106.449 215.23C106.288 214.756 106.414 210.01 106.416 209.117L112.552 209.122Z" fill="#151010"/>
<path d="M106.972 176.552C108.323 176.448 109.735 176.531 111.092 176.536L111.098 195.276L106.444 195.271L106.463 201.464L101.772 201.458L101.772 204.528L96.8941 204.527L96.9033 209.208L92.4846 209.203L92.4749 213.813L85.5875 213.801C84.4679 213.8 83.3126 213.743 82.1964 213.808C81.2598 213.765 80.3062 213.798 79.3678 213.798L73.9143 213.809L73.9004 209.206L92.3908 209.183C92.327 207.629 92.3792 206.066 92.3599 204.511L95.7543 204.504C95.7496 203.489 95.7559 202.473 95.7731 201.458L101.77 201.457L101.736 195.266L104.961 195.259V189.006C105.942 189.024 106.928 189.003 107.91 189L107.912 176.57C107.598 176.573 107.285 176.578 106.972 176.552Z" fill="#B6C7C0"/>
<path d="M70.7284 148.562L95.5415 148.569L95.541 151.842C97.6018 151.851 99.6626 151.85 101.723 151.837L101.72 156.448C103.288 156.466 104.856 156.468 106.424 156.454L106.442 156.481C106.329 157.108 106.406 157.853 106.407 158.496L106.415 162.625C108.46 162.633 110.511 162.657 112.556 162.619C112.556 164.189 112.533 165.763 112.558 167.332L112.568 171.969L106.986 171.966L106.989 174.993C106.989 175.507 107.015 176.042 106.973 176.553C106.907 176.027 106.942 175.47 106.942 174.939L106.947 171.97L101.727 171.97L101.725 167.323L97.0615 167.322C97.0725 165.76 97.072 164.199 97.06 162.638L92.4377 162.635L92.4333 158.043L73.8673 158.042L73.8699 162.645C72.321 162.652 70.7706 162.674 69.2218 162.66L69.2206 167.323L64.5807 167.322L64.5831 171.961C63.0203 171.962 61.4551 171.945 59.8926 171.967L59.8903 176.569L55.2523 176.604C55.238 182.794 55.1727 188.996 55.2553 195.184L59.8964 195.18L59.9025 201.378L64.5376 201.38L64.5447 204.523L69.2759 204.531C69.2727 206.091 69.2785 207.651 69.2935 209.211C70.829 209.21 72.3665 209.191 73.9018 209.208L73.9157 213.81L79.3692 213.8C80.3076 213.8 81.2612 213.767 82.1978 213.81C81.3976 213.856 80.5879 213.833 79.7865 213.834L75.8083 213.843C75.8418 215.903 75.8566 217.962 75.8527 220.022C74.2527 220.035 72.2949 220.113 70.7255 219.972C70.0556 219.891 69.3183 219.947 68.6428 219.946L64.5192 219.947C64.5335 218.394 64.5368 216.84 64.529 215.287C62.9825 215.247 61.4329 215.303 59.8857 215.268L59.8661 215.227C59.1737 215.151 58.4263 215.202 57.7279 215.202H53.7486C53.7564 213.186 53.7519 211.17 53.7352 209.153C53.6683 207.603 53.737 206.015 53.7342 204.46C52.1926 204.44 50.6487 204.461 49.1068 204.464L49.1087 198.275C48.031 198.26 46.9509 198.274 45.873 198.274L45.8848 173.517L49.1066 173.516L49.1023 167.334C50.6379 167.349 52.1737 167.35 53.7093 167.336C53.7318 165.781 53.7363 164.226 53.7226 162.672L59.882 162.68L59.881 156.49L64.5673 156.493C64.5796 154.939 64.5733 153.384 64.5486 151.83C66.6042 151.881 68.669 151.842 70.7255 151.841L70.7284 148.562Z" fill="#F73131"/>
<path d="M53.7344 209.152L59.8968 209.155L59.9008 213.322C59.9007 213.901 59.9842 214.664 59.8654 215.226C59.1729 215.15 58.4255 215.201 57.7271 215.201H53.7478C53.7555 213.185 53.7511 211.169 53.7344 209.152Z" fill="#151010"/>
<path d="M73.8659 158.043L92.432 158.044L92.4363 162.636L97.0586 162.638C97.0706 164.2 97.0711 165.761 97.0601 167.322L101.724 167.323L101.726 171.971L106.946 171.97L106.941 174.94C106.941 175.471 106.905 176.028 106.972 176.554C107.285 176.58 107.598 176.575 107.912 176.572L107.91 189.002C106.928 189.006 105.942 189.027 104.961 189.008V195.261L101.736 195.268L101.77 201.459L95.7732 201.46C95.7559 202.475 95.7496 203.491 95.7543 204.507L92.3599 204.513C92.3792 206.069 92.327 207.631 92.3908 209.186L73.9004 209.209C72.3651 209.192 70.8276 209.211 69.2921 209.212C69.2772 207.652 69.2713 206.092 69.2745 204.532L64.5433 204.524L64.5362 201.381L59.9011 201.379L59.895 195.181L55.2539 195.185C55.1713 188.997 55.2367 182.795 55.2509 176.605L59.8889 176.57L59.8912 171.968C61.4537 171.946 63.0189 171.963 64.5817 171.962L64.5793 167.323L69.2192 167.323L69.2204 162.66C70.7692 162.675 72.3196 162.653 73.8686 162.646L73.8659 158.043Z" fill="white"/>
<path d="M86.2531 173.524L95.4411 173.523L95.4454 182.8L90.9213 182.799C90.9038 184.876 90.9049 186.953 90.9247 189.03L95.4387 189.049C95.4397 189.988 95.5001 197.979 95.4401 198.131C95.4281 198.162 95.3962 198.181 95.3739 198.206L86.2367 198.184C86.2447 196.646 86.2383 195.108 86.2173 193.57L80.1174 193.585C80.0896 195.126 80.1079 196.67 80.1047 198.212C77.0051 198.133 73.8905 198.189 70.7892 198.185L70.7879 188.911L75.4195 188.902L75.4196 182.808C73.8829 182.772 72.3392 182.803 70.8017 182.802C70.6993 179.72 70.7806 176.609 70.7807 173.525L80.1033 173.529L80.1027 178.159L86.2517 178.159L86.2531 173.524Z" fill="#E70D12"/>
<path fill-rule="evenodd" clip-rule="evenodd" d="M19.209 522.105H146.392V307.484H136.97V314.189H141.681V320.897H23.9179V314.189H28.629V307.484H19.209V522.105Z" fill="white"/>
<path fill-rule="evenodd" clip-rule="evenodd" d="M108.826 283.731V279H56.7787V283.731H52.0476V288.463H0V540.369H165.604V288.463H113.558V283.731L108.826 283.731ZM37.8532 302.658H14.1944V526.174H151.41V302.658H127.753V297.927H123.021V293.194H160.874V535.637H4.73116V293.194H42.5832V297.927H37.8532V302.658ZM23.6566 316.852H141.947V312.12H137.215V307.39H146.679V521.442H18.9266V307.39H28.3888V312.12H23.6566V316.852ZM108.826 283.731V288.463L113.558 288.463L113.558 293.194H118.289V297.927L123.021 297.927V302.658H127.753V307.39H132.485V312.12H33.121V307.39H37.8532V302.658H42.5832V297.927H47.3154V293.194H52.0476L52.0476 288.463L56.7788 288.463L56.7787 283.731H108.826Z" fill="black"/>
<path fill-rule="evenodd" clip-rule="evenodd" d="M4.73047 535.542H160.873V293.195H123.02V297.927H127.752V302.659H151.409V526.079H14.1937V302.659H37.8525V297.927H42.5826V293.195H4.73047L4.73047 535.542Z" fill="#F26C2F"/>
<path fill-rule="evenodd" clip-rule="evenodd" d="M108.826 283.732H56.7788V288.465H52.0477V293.196H47.3155V297.928H42.5833V302.659H37.8533V307.391H33.1211V312.121H132.485V307.391H127.753V302.659H123.021V297.928H118.289V293.196H113.559V288.465H108.826V283.732Z" fill="#FDBE31"/>
<path d="M66.2035 375.032V380.57H64.4161V367.299H68.1668C69.0065 367.299 69.732 367.386 70.3432 367.558C70.9544 367.725 71.4576 367.969 71.8528 368.29C72.2541 368.611 72.5504 369 72.7418 369.457C72.9332 369.908 73.0289 370.414 73.0289 370.976C73.0289 371.445 72.9548 371.883 72.8067 372.291C72.6585 372.698 72.4424 373.066 72.1584 373.393C71.8805 373.714 71.5379 373.989 71.1304 374.217C70.7291 374.446 70.2722 374.619 69.7597 374.736C69.982 374.865 70.1796 375.054 70.3525 375.301L74.2236 380.57H72.6307C72.3035 380.57 72.0627 380.444 71.9083 380.191L68.4632 375.449C68.3582 375.301 68.244 375.196 68.1205 375.134C67.9971 375.066 67.8118 375.032 67.5649 375.032H66.2035ZM66.2035 373.726H68.0835C68.6083 373.726 69.0683 373.665 69.4634 373.541C69.8647 373.411 70.1981 373.232 70.4636 373.004C70.7353 372.769 70.939 372.492 71.0748 372.17C71.2107 371.849 71.2786 371.494 71.2786 371.105C71.2786 370.315 71.0162 369.719 70.4914 369.318C69.9728 368.917 69.1979 368.716 68.1668 368.716H66.2035V373.726ZM77.3178 371.189V377.171C77.3178 377.882 77.4814 378.431 77.8087 378.82C78.1359 379.209 78.6298 379.403 79.2904 379.403C79.772 379.403 80.2258 379.289 80.6518 379.061C81.0778 378.832 81.4699 378.514 81.828 378.107V371.189H83.4765V380.57H82.4948C82.2602 380.57 82.112 380.456 82.0502 380.228L81.9206 379.218C81.5131 379.669 81.0562 380.033 80.5499 380.311C80.0437 380.583 79.4633 380.718 78.8089 380.718C78.2964 380.718 77.8426 380.635 77.4475 380.468C77.0585 380.296 76.7313 380.055 76.4658 379.746C76.2003 379.437 75.9997 379.064 75.8638 378.625C75.7342 378.187 75.6693 377.702 75.6693 377.171V371.189H77.3178ZM89.3418 371.031C89.7493 371.031 90.129 371.078 90.4809 371.17C90.839 371.257 91.1631 371.386 91.4533 371.559H94.0001V372.17C94.0001 372.374 93.8705 372.504 93.6111 372.559L92.5461 372.708C92.756 373.109 92.861 373.557 92.861 374.05C92.861 374.507 92.7715 374.924 92.5924 375.301C92.4195 375.671 92.1757 375.989 91.8608 376.255C91.5521 376.52 91.1816 376.724 90.7495 376.866C90.3234 377.008 89.8542 377.079 89.3418 377.079C88.9034 377.079 88.4898 377.026 88.1008 376.921C87.9032 377.045 87.7519 377.178 87.647 377.32C87.5482 377.462 87.4988 377.601 87.4988 377.736C87.4988 377.959 87.5883 378.128 87.7674 378.246C87.9464 378.357 88.1841 378.437 88.4805 378.487C88.7768 378.536 89.1133 378.567 89.49 378.579C89.8666 378.592 90.2494 378.613 90.6383 378.644C91.0335 378.669 91.4193 378.715 91.796 378.783C92.1726 378.851 92.5091 378.962 92.8054 379.116C93.1018 379.271 93.3395 379.484 93.5185 379.755C93.6976 380.027 93.7871 380.379 93.7871 380.811C93.7871 381.212 93.6852 381.601 93.4815 381.978C93.2839 382.355 92.9968 382.688 92.6202 382.978C92.2436 383.275 91.7836 383.509 91.2403 383.682C90.697 383.861 90.0827 383.951 89.3973 383.951C88.712 383.951 88.11 383.883 87.5914 383.747C87.079 383.611 86.653 383.429 86.3134 383.2C85.9738 382.972 85.7176 382.707 85.5447 382.404C85.378 382.108 85.2947 381.796 85.2947 381.469C85.2947 381.006 85.4398 380.614 85.7299 380.292C86.0263 379.965 86.4307 379.706 86.9431 379.515C86.6777 379.391 86.4647 379.227 86.3041 379.024C86.1498 378.814 86.0726 378.536 86.0726 378.19C86.0726 378.054 86.0973 377.915 86.1467 377.773C86.1961 377.625 86.2702 377.48 86.369 377.338C86.4739 377.196 86.6005 377.06 86.7487 376.931C86.8968 376.801 87.0697 376.687 87.2673 376.588C86.8042 376.329 86.44 375.986 86.1745 375.56C85.9152 375.128 85.7855 374.625 85.7855 374.05C85.7855 373.594 85.8719 373.18 86.0448 372.81C86.2239 372.433 86.4708 372.115 86.7857 371.856C87.1006 371.59 87.4741 371.386 87.9063 371.244C88.3447 371.102 88.8232 371.031 89.3418 371.031ZM92.2683 381.08C92.2683 380.845 92.2035 380.657 92.0738 380.515C91.9441 380.373 91.7682 380.265 91.5459 380.191C91.3236 380.11 91.0674 380.052 90.7772 380.015C90.4871 379.978 90.1814 379.953 89.8604 379.941C89.5393 379.922 89.2121 379.904 88.8787 379.885C88.5453 379.866 88.2274 379.833 87.9248 379.783C87.5729 379.95 87.2858 380.154 87.0635 380.394C86.8474 380.635 86.7394 380.922 86.7394 381.256C86.7394 381.466 86.7919 381.66 86.8968 381.839C87.008 382.024 87.1747 382.182 87.3969 382.311C87.6192 382.447 87.897 382.552 88.2304 382.626C88.57 382.707 88.9682 382.747 89.4251 382.747C89.8697 382.747 90.2679 382.707 90.6198 382.626C90.9717 382.546 91.2681 382.432 91.5089 382.284C91.7558 382.135 91.9441 381.959 92.0738 381.756C92.2035 381.552 92.2683 381.327 92.2683 381.08ZM89.3418 375.986C89.6752 375.986 89.9684 375.94 90.2216 375.847C90.4809 375.755 90.697 375.625 90.8699 375.458C91.0427 375.291 91.1724 375.094 91.2588 374.865C91.3453 374.631 91.3885 374.375 91.3885 374.097C91.3885 373.523 91.2125 373.066 90.8606 372.726C90.5148 372.387 90.0086 372.217 89.3418 372.217C88.6811 372.217 88.1749 372.387 87.823 372.726C87.4772 373.066 87.3043 373.523 87.3043 374.097C87.3043 374.375 87.3475 374.631 87.434 374.865C87.5266 375.094 87.6593 375.291 87.8322 375.458C88.0051 375.625 88.2181 375.755 88.4712 375.847C88.7244 375.94 89.0145 375.986 89.3418 375.986ZM101.015 372.735C100.941 372.871 100.827 372.939 100.673 372.939C100.58 372.939 100.475 372.905 100.358 372.837C100.24 372.769 100.095 372.695 99.9224 372.615C99.7557 372.529 99.5551 372.451 99.3205 372.383C99.0859 372.309 98.808 372.272 98.487 372.272C98.2091 372.272 97.9591 372.309 97.7368 372.383C97.5146 372.451 97.3232 372.547 97.1626 372.671C97.0083 372.794 96.8879 372.939 96.8014 373.106C96.7212 373.266 96.6811 373.442 96.6811 373.634C96.6811 373.875 96.749 374.075 96.8848 374.236C97.0268 374.396 97.212 374.535 97.4405 374.652C97.6689 374.77 97.9282 374.875 98.2184 374.967C98.5086 375.054 98.8049 375.149 99.1075 375.254C99.4162 375.353 99.7156 375.464 100.006 375.588C100.296 375.711 100.555 375.866 100.784 376.051C101.012 376.236 101.194 376.465 101.33 376.736C101.472 377.002 101.543 377.323 101.543 377.699C101.543 378.132 101.466 378.533 101.312 378.903C101.157 379.268 100.929 379.586 100.626 379.857C100.324 380.123 99.9533 380.333 99.5149 380.487C99.0766 380.641 98.5703 380.718 97.9961 380.718C97.3417 380.718 96.749 380.614 96.218 380.404C95.687 380.188 95.2363 379.913 94.8659 379.579L95.2548 378.95C95.3042 378.869 95.3629 378.808 95.4308 378.764C95.4987 378.721 95.5882 378.7 95.6994 378.7C95.8105 378.7 95.9278 378.743 96.0513 378.829C96.1748 378.916 96.323 379.011 96.4958 379.116C96.6749 379.221 96.8879 379.317 97.1348 379.403C97.388 379.49 97.7029 379.533 98.0795 379.533C98.4005 379.533 98.6814 379.493 98.9222 379.413C99.163 379.326 99.3637 379.212 99.5242 379.07C99.6847 378.928 99.802 378.764 99.8761 378.579C99.9564 378.394 99.9965 378.196 99.9965 377.986C99.9965 377.727 99.9255 377.514 99.7835 377.347C99.6477 377.175 99.4656 377.029 99.2371 376.912C99.0087 376.789 98.7463 376.684 98.4499 376.597C98.1597 376.505 97.8603 376.409 97.5516 376.31C97.2491 376.211 96.9496 376.1 96.6533 375.977C96.3631 375.847 96.1038 375.687 95.8753 375.495C95.6469 375.304 95.4617 375.069 95.3197 374.791C95.1838 374.507 95.1159 374.165 95.1159 373.763C95.1159 373.405 95.19 373.063 95.3382 372.735C95.4864 372.402 95.7025 372.112 95.9865 371.865C96.2705 371.612 96.6193 371.411 97.033 371.263C97.4466 371.115 97.919 371.041 98.4499 371.041C99.0673 371.041 99.6199 371.139 100.108 371.337C100.602 371.528 101.028 371.794 101.386 372.133L101.015 372.735Z" fill="black"/>
<path d="M106.443 435.479C108.47 435.516 110.506 435.505 112.533 435.484L112.551 441.617L117.198 441.629L117.196 446.323C115.65 446.335 114.104 446.337 112.558 446.33C112.534 444.76 112.556 443.187 112.556 441.617C110.512 441.654 108.46 441.631 106.415 441.623L106.407 437.494C106.407 436.851 106.329 436.106 106.443 435.479Z" fill="#151010"/>
<path d="M117.194 446.324L123.223 446.329L123.201 472.004C123.202 475.821 123.276 479.64 123.235 483.458L117.225 483.468C117.174 484.033 117.201 484.618 117.2 485.187L117.201 488.15L112.563 488.154L112.551 488.123C112.626 486.582 112.556 485.003 112.555 483.458L117.209 483.464L117.213 477.268C118.264 477.254 119.316 477.266 120.367 477.266L120.358 452.509C119.304 452.512 118.25 452.506 117.196 452.494C117.164 450.439 117.194 448.379 117.194 446.324Z" fill="#151010"/>
<path d="M101.713 494.284C103.282 494.265 104.853 494.313 106.422 494.262L106.408 498.94L101.729 498.943L101.729 504.966C97.4761 504.912 93.2156 504.963 88.9618 504.963L64.5118 504.954C64.456 502.957 64.4896 500.945 64.4989 498.947L59.8806 498.944C59.875 497.388 59.8371 495.824 59.8859 494.269C61.4331 494.304 62.9828 494.248 64.5292 494.288C64.5371 495.841 64.5338 497.395 64.5194 498.948L68.6431 498.947C69.3185 498.948 70.0559 498.892 70.7258 498.973L70.7275 502.085L95.5712 502.091L95.577 498.931C97.6188 498.882 99.6707 498.924 101.713 498.922C101.69 497.377 101.712 495.83 101.713 494.284Z" fill="#151010"/>
<path d="M64.4938 424.74L89.048 424.757C93.2718 424.756 97.5068 424.814 101.729 424.73L101.726 430.809C103.285 430.832 104.846 430.812 106.406 430.812C106.402 432.354 106.356 433.913 106.423 435.453C104.855 435.467 103.287 435.465 101.719 435.447L101.723 430.837C99.662 430.849 97.6012 430.85 95.5404 430.841L95.5409 427.568L70.7278 427.562L70.7249 430.84C68.6684 430.841 66.6036 430.88 64.548 430.829C64.5728 432.383 64.579 433.938 64.5668 435.492L59.8804 435.489L59.8814 441.679L53.722 441.671C53.7357 443.225 53.7313 444.78 53.7087 446.335C52.1731 446.349 50.6373 446.348 49.1017 446.333L49.106 452.515L45.8842 452.516L45.8725 477.273C46.9504 477.273 48.0304 477.259 49.1081 477.274L49.1062 483.463C50.6481 483.46 52.192 483.439 53.7337 483.459C53.7365 485.014 53.6678 486.602 53.7346 488.152L49.0675 488.136C49.0784 486.581 49.0801 485.025 49.0725 483.47L43.0625 483.464L43.0566 446.326L49.0588 446.319C49.0288 444.759 49.0541 443.193 49.0538 441.632L53.703 441.627C53.6799 439.559 53.7032 437.487 53.704 435.418L59.8452 435.435L59.8441 430.804L64.5095 430.801C64.4372 428.789 64.4915 426.754 64.4938 424.74Z" fill="#151010"/>
<path d="M112.557 446.331C114.103 446.339 115.648 446.336 117.194 446.324C117.194 448.379 117.164 450.439 117.196 452.494C118.25 452.506 119.304 452.511 120.358 452.509L120.367 477.266C119.316 477.266 118.264 477.254 117.213 477.268L117.209 483.464L112.555 483.458C112.556 485.003 112.626 486.582 112.551 488.123L112.563 488.154L112.556 494.203L108.721 494.205C107.969 494.206 107.198 494.175 106.448 494.231L106.421 494.26C104.852 494.311 103.281 494.263 101.712 494.283C101.711 495.828 101.689 497.375 101.712 498.92C99.6695 498.922 97.6176 498.88 95.5758 498.93L95.57 502.089L70.7264 502.084L70.7246 498.971C72.294 499.112 74.2518 499.035 75.8518 499.021C75.8557 496.961 75.8409 494.902 75.8074 492.842L79.7856 492.833C80.587 492.832 81.3967 492.855 82.197 492.809C81.2603 492.766 80.3067 492.799 79.3683 492.799L73.9149 492.81L73.9009 488.207L92.3913 488.184C92.3275 486.63 92.3797 485.067 92.3604 483.511L95.7548 483.505C95.7501 482.489 95.7564 481.474 95.7737 480.458L101.77 480.458L101.736 474.266L104.961 474.259V468.006C105.943 468.025 106.929 468.004 107.911 468.001L107.912 455.57C107.598 455.573 107.286 455.579 106.972 455.553C107.015 455.041 106.988 454.506 106.988 453.992L106.985 450.965L112.567 450.969L112.557 446.331Z" fill="#E70D12"/>
<path d="M112.552 488.122L112.564 488.153L112.557 494.202L108.722 494.204C107.969 494.205 107.199 494.174 106.449 494.23C106.288 493.756 106.414 489.01 106.416 488.117L112.552 488.122Z" fill="#151010"/>
<path d="M106.972 455.552C108.323 455.448 109.735 455.531 111.092 455.536L111.098 474.276L106.444 474.271L106.463 480.464L101.772 480.458L101.772 483.528L96.8941 483.527L96.9033 488.208L92.4846 488.203L92.4749 492.813L85.5875 492.801C84.4679 492.8 83.3126 492.743 82.1964 492.808C81.2598 492.765 80.3062 492.798 79.3678 492.798L73.9143 492.809L73.9004 488.206L92.3908 488.183C92.327 486.629 92.3792 485.066 92.3599 483.511L95.7543 483.504C95.7496 482.489 95.7559 481.473 95.7731 480.458L101.77 480.457L101.736 474.266L104.961 474.259V468.006C105.942 468.024 106.928 468.003 107.91 468L107.912 455.57C107.598 455.573 107.285 455.578 106.972 455.552Z" fill="#B6C7C0"/>
<path d="M70.7284 427.561L95.5415 427.567L95.541 430.84C97.6018 430.849 99.6626 430.848 101.723 430.835L101.72 435.446C103.288 435.464 104.856 435.466 106.424 435.452L106.442 435.479C106.329 436.106 106.406 436.851 106.407 437.494L106.415 441.623C108.46 441.632 110.511 441.655 112.556 441.618C112.556 443.187 112.533 444.761 112.558 446.33L112.568 450.967L106.986 450.964L106.989 453.991C106.989 454.505 107.015 455.04 106.973 455.551C106.907 455.025 106.942 454.468 106.942 453.937L106.947 450.968L101.727 450.968L101.725 446.321L97.0615 446.32C97.0725 444.758 97.072 443.197 97.06 441.636L92.4377 441.633L92.4333 437.041L73.8673 437.04L73.8699 441.643C72.321 441.65 70.7706 441.672 69.2218 441.658L69.2206 446.321L64.5807 446.32L64.5831 450.959C63.0203 450.96 61.4551 450.943 59.8926 450.965L59.8903 455.567L55.2523 455.602C55.238 461.792 55.1727 467.994 55.2553 474.182L59.8964 474.178L59.9025 480.376L64.5376 480.378L64.5447 483.521L69.2759 483.529C69.2727 485.089 69.2785 486.649 69.2935 488.209C70.829 488.208 72.3665 488.189 73.9018 488.206L73.9157 492.808L79.3692 492.798C80.3076 492.798 81.2612 492.765 82.1978 492.808C81.3976 492.854 80.5879 492.831 79.7865 492.832L75.8083 492.841C75.8418 494.901 75.8566 496.96 75.8527 499.02C74.2527 499.033 72.2949 499.111 70.7255 498.97C70.0556 498.889 69.3183 498.945 68.6428 498.944L64.5192 498.945C64.5335 497.392 64.5368 495.838 64.529 494.285C62.9825 494.245 61.4329 494.301 59.8857 494.266L59.8661 494.225C59.1737 494.149 58.4263 494.2 57.7279 494.2H53.7486C53.7564 492.184 53.7519 490.168 53.7352 488.151C53.6683 486.601 53.737 485.013 53.7342 483.458C52.1926 483.438 50.6487 483.459 49.1068 483.462L49.1087 477.273C48.031 477.258 46.9509 477.272 45.873 477.272L45.8848 452.515L49.1066 452.514L49.1023 446.332C50.6379 446.347 52.1737 446.348 53.7093 446.334C53.7318 444.779 53.7363 443.224 53.7226 441.67L59.882 441.678L59.881 435.488L64.5673 435.491C64.5796 433.937 64.5733 432.382 64.5486 430.828C66.6042 430.879 68.669 430.84 70.7255 430.839L70.7284 427.561Z" fill="#F73131"/>
<path d="M53.7344 488.154L59.8968 488.157L59.9008 492.324C59.9007 492.903 59.9842 493.666 59.8654 494.228C59.1729 494.152 58.4255 494.203 57.7271 494.203H53.7478C53.7555 492.187 53.7511 490.171 53.7344 488.154Z" fill="#151010"/>
<path d="M73.8659 437.043L92.432 437.044L92.4363 441.636L97.0586 441.638C97.0706 443.2 97.0711 444.761 97.0601 446.322L101.724 446.323L101.726 450.971L106.946 450.97L106.941 453.94C106.941 454.471 106.905 455.028 106.972 455.554C107.285 455.58 107.598 455.575 107.912 455.572L107.91 468.002C106.928 468.006 105.942 468.027 104.961 468.008V474.261L101.736 474.268L101.77 480.459L95.7732 480.46C95.7559 481.475 95.7496 482.491 95.7543 483.507L92.3599 483.513C92.3792 485.069 92.327 486.631 92.3908 488.186L73.9004 488.209C72.3651 488.192 70.8276 488.211 69.2921 488.212C69.2772 486.652 69.2713 485.092 69.2745 483.532L64.5433 483.524L64.5362 480.381L59.9011 480.379L59.895 474.181L55.2539 474.185C55.1713 467.997 55.2367 461.795 55.2509 455.605L59.8889 455.57L59.8912 450.968C61.4537 450.946 63.0189 450.963 64.5817 450.962L64.5793 446.323L69.2192 446.323L69.2204 441.66C70.7692 441.675 72.3196 441.653 73.8686 441.646L73.8659 437.043Z" fill="white"/>
<path d="M86.2531 452.524L95.4411 452.523L95.4454 461.8L90.9213 461.799C90.9038 463.876 90.9049 465.953 90.9247 468.03L95.4387 468.049C95.4397 468.988 95.5001 476.979 95.4401 477.131C95.4281 477.162 95.3962 477.181 95.3739 477.206L86.2367 477.184C86.2447 475.646 86.2383 474.108 86.2173 472.57L80.1174 472.585C80.0896 474.126 80.1079 475.67 80.1047 477.212C77.0051 477.133 73.8905 477.189 70.7892 477.185L70.7879 467.911L75.4195 467.902L75.4196 461.808C73.8829 461.772 72.3392 461.803 70.8017 461.802C70.6993 458.72 70.7806 455.609 70.7807 452.525L80.1033 452.529L80.1027 457.159L86.2517 457.159L86.2531 452.524Z" fill="#E70D12"/>
<path fill-rule="evenodd" clip-rule="evenodd" d="M210.605 243.105H337.788V28.4844H328.366V35.1892H333.077V41.897H215.314V35.1892H220.025V28.4844H210.605V243.105Z" fill="white"/>
<path fill-rule="evenodd" clip-rule="evenodd" d="M300.223 4.73115V0H248.175V4.73115H243.444V9.46334H191.396V261.369H357V9.46328H304.955V4.73109L300.223 4.73115ZM229.25 23.6577H205.591V247.174H342.806V23.6577H319.149V18.9266H314.417V14.1944H352.27V256.637H196.128V14.1944H233.98V18.9266H229.25V23.6577ZM215.053 37.8521H333.344V33.12H328.612V28.3899H338.076V242.442H210.323V28.3899H219.785V33.12H215.053V37.8521ZM300.223 4.73115V9.46334L304.955 9.46328L304.955 14.1944H309.685V18.9266L314.417 18.9266V23.6577H319.149V28.3899H323.882V33.12H224.517V28.3899H229.25V23.6577H233.98V18.9266H238.712V14.1944H243.444L243.444 9.46334L248.175 9.46328L248.175 4.73115H300.223Z" fill="black"/>
<path fill-rule="evenodd" clip-rule="evenodd" d="M196.127 256.542H352.27V14.1953H314.416V18.9274H319.149V23.6586H342.805V247.079H205.59V23.6586H229.249V18.9274H233.979V14.1953H196.127L196.127 256.542Z" fill="#F26C2F"/>
<path fill-rule="evenodd" clip-rule="evenodd" d="M300.223 4.73242H248.175V9.46455H243.444V14.1957H238.712V18.9278H233.98V23.659H229.25V28.3912H224.518V33.1212H323.882V28.3912H319.149V23.659H314.417V18.9278H309.685V14.1957H304.955V9.46455H300.223V4.73242Z" fill="#FDBE31"/>
<path d="M235.741 88.2992H237.232C237.393 88.2992 237.525 88.3393 237.63 88.4195C237.735 88.4998 237.806 88.6017 237.843 88.7252L240.585 97.9492C240.634 98.1159 240.677 98.295 240.714 98.4864C240.757 98.6778 240.798 98.8784 240.835 99.0883C240.878 98.8784 240.921 98.6778 240.964 98.4864C241.007 98.2888 241.057 98.1097 241.112 97.9492L244.233 88.7252C244.27 88.6202 244.341 88.5245 244.446 88.4381C244.558 88.3455 244.69 88.2992 244.845 88.2992H245.363C245.524 88.2992 245.653 88.3393 245.752 88.4195C245.857 88.4998 245.931 88.6017 245.974 88.7252L249.077 97.9492C249.188 98.2703 249.287 98.6376 249.373 99.0513C249.41 98.8475 249.444 98.6531 249.475 98.4678C249.506 98.2826 249.546 98.1097 249.596 97.9492L252.346 88.7252C252.377 88.614 252.445 88.5152 252.55 88.4288C252.661 88.3424 252.794 88.2992 252.948 88.2992H254.347L250.207 101.57H248.595L245.234 91.4479C245.166 91.2565 245.104 91.0343 245.048 90.7811C245.017 90.9046 244.987 91.025 244.956 91.1423C244.931 91.2534 244.903 91.3553 244.872 91.4479L241.492 101.57H239.881L235.741 88.2992ZM259.254 92.0406C259.815 92.0406 260.334 92.1363 260.809 92.3277C261.285 92.513 261.695 92.7846 262.041 93.1427C262.387 93.4946 262.655 93.933 262.847 94.4578C263.044 94.9764 263.143 95.5691 263.143 96.2359C263.143 96.4952 263.115 96.6681 263.06 96.7545C263.004 96.841 262.899 96.8842 262.745 96.8842H256.503C256.515 97.4769 256.596 97.9924 256.744 98.4308C256.892 98.8692 257.096 99.2365 257.355 99.5329C257.614 99.8231 257.923 100.042 258.281 100.19C258.639 100.332 259.041 100.403 259.485 100.403C259.899 100.403 260.254 100.357 260.55 100.264C260.853 100.166 261.112 100.061 261.328 99.9496C261.544 99.8385 261.723 99.7366 261.865 99.644C262.013 99.5452 262.14 99.4958 262.245 99.4958C262.381 99.4958 262.486 99.5483 262.56 99.6533L263.023 100.255C262.819 100.502 262.575 100.718 262.291 100.904C262.007 101.083 261.702 101.231 261.374 101.348C261.053 101.465 260.72 101.552 260.374 101.607C260.028 101.669 259.686 101.7 259.346 101.7C258.698 101.7 258.099 101.592 257.55 101.376C257.006 101.154 256.534 100.833 256.133 100.413C255.737 99.9867 255.429 99.4619 255.206 98.8383C254.984 98.2147 254.873 97.4985 254.873 96.6897C254.873 96.0353 254.972 95.424 255.169 94.856C255.373 94.288 255.663 93.7972 256.04 93.3835C256.417 92.9637 256.877 92.6364 257.42 92.4018C257.963 92.161 258.574 92.0406 259.254 92.0406ZM259.291 93.2538C258.494 93.2538 257.868 93.4854 257.411 93.9484C256.954 94.4053 256.67 95.0412 256.559 95.8562H261.661C261.661 95.4734 261.609 95.1246 261.504 94.8097C261.399 94.4887 261.245 94.2139 261.041 93.9855C260.837 93.7509 260.587 93.5718 260.291 93.4483C260.001 93.3187 259.667 93.2538 259.291 93.2538ZM272.143 101.57H271.412C271.251 101.57 271.122 101.546 271.023 101.496C270.924 101.447 270.859 101.342 270.828 101.181L270.643 100.311C270.396 100.533 270.155 100.734 269.921 100.913C269.686 101.086 269.439 101.234 269.18 101.357C268.921 101.475 268.643 101.564 268.346 101.626C268.056 101.688 267.732 101.718 267.374 101.718C267.01 101.718 266.667 101.669 266.346 101.57C266.031 101.465 265.756 101.311 265.522 101.107C265.287 100.904 265.099 100.647 264.957 100.339C264.821 100.024 264.753 99.6533 264.753 99.2273C264.753 98.8568 264.855 98.5018 265.059 98.1622C265.262 97.8165 265.59 97.5109 266.04 97.2454C266.497 96.9799 267.093 96.7638 267.828 96.5971C268.562 96.4242 269.461 96.3254 270.523 96.3007V95.5691C270.523 94.8406 270.365 94.2911 270.05 93.9206C269.742 93.544 269.282 93.3557 268.671 93.3557C268.269 93.3557 267.93 93.4082 267.652 93.5132C267.38 93.6119 267.142 93.7262 266.939 93.8558C266.741 93.9793 266.568 94.0935 266.42 94.1985C266.278 94.2973 266.136 94.3467 265.994 94.3467C265.883 94.3467 265.784 94.3189 265.698 94.2633C265.617 94.2016 265.553 94.1275 265.503 94.041L265.207 93.5132C265.725 93.0131 266.284 92.6395 266.883 92.3926C267.482 92.1456 268.146 92.0221 268.874 92.0221C269.399 92.0221 269.865 92.1086 270.273 92.2814C270.68 92.4543 271.023 92.6951 271.301 93.0038C271.579 93.3125 271.788 93.686 271.93 94.1244C272.072 94.5627 272.143 95.0443 272.143 95.5691V101.57ZM267.865 100.561C268.155 100.561 268.42 100.533 268.661 100.478C268.902 100.416 269.127 100.332 269.337 100.227C269.553 100.116 269.757 99.9836 269.949 99.8292C270.146 99.6749 270.338 99.4989 270.523 99.3013V97.3472C269.763 97.3719 269.118 97.4337 268.587 97.5325C268.056 97.6251 267.624 97.7486 267.291 97.9029C266.957 98.0573 266.713 98.2394 266.559 98.4493C266.411 98.6592 266.337 98.8939 266.337 99.1532C266.337 99.4001 266.377 99.6131 266.457 99.7922C266.537 99.9712 266.645 100.119 266.781 100.237C266.917 100.348 267.078 100.431 267.263 100.487C267.448 100.536 267.649 100.561 267.865 100.561ZM274.641 104.747V92.1888H275.623C275.857 92.1888 276.005 92.303 276.067 92.5315L276.206 93.6428C276.607 93.1551 277.064 92.763 277.577 92.4666C278.095 92.1703 278.691 92.0221 279.364 92.0221C279.901 92.0221 280.389 92.1271 280.827 92.337C281.266 92.5407 281.639 92.8464 281.948 93.2538C282.257 93.6552 282.494 94.1553 282.661 94.7541C282.828 95.353 282.911 96.0414 282.911 96.8194C282.911 97.5109 282.818 98.1561 282.633 98.7549C282.448 99.3476 282.183 99.8632 281.837 100.302C281.491 100.734 281.065 101.076 280.559 101.33C280.059 101.576 279.494 101.7 278.864 101.7C278.284 101.7 277.787 101.604 277.373 101.413C276.965 101.221 276.604 100.95 276.289 100.598V104.747H274.641ZM278.818 93.3557C278.281 93.3557 277.808 93.4792 277.401 93.7262C276.999 93.9731 276.629 94.322 276.289 94.7727V99.3106C276.592 99.7181 276.922 100.005 277.28 100.172C277.645 100.339 278.049 100.422 278.494 100.422C279.364 100.422 280.034 100.11 280.503 99.4866C280.972 98.863 281.207 97.9739 281.207 96.8194C281.207 96.2081 281.151 95.6833 281.04 95.245C280.935 94.8066 280.781 94.4485 280.577 94.1707C280.374 93.8867 280.123 93.6799 279.827 93.5502C279.531 93.4205 279.194 93.3557 278.818 93.3557ZM288.658 92.0406C289.343 92.0406 289.96 92.1549 290.51 92.3833C291.066 92.6117 291.535 92.9359 291.918 93.3557C292.307 93.7756 292.603 94.2849 292.807 94.8838C293.017 95.4765 293.122 96.1402 293.122 96.8749C293.122 97.6158 293.017 98.2826 292.807 98.8753C292.603 99.468 292.307 99.9743 291.918 100.394C291.535 100.814 291.066 101.138 290.51 101.367C289.96 101.589 289.343 101.7 288.658 101.7C287.972 101.7 287.352 101.589 286.796 101.367C286.247 101.138 285.778 100.814 285.389 100.394C285 99.9743 284.7 99.468 284.49 98.8753C284.28 98.2826 284.175 97.6158 284.175 96.8749C284.175 96.1402 284.28 95.4765 284.49 94.8838C284.7 94.2849 285 93.7756 285.389 93.3557C285.778 92.9359 286.247 92.6117 286.796 92.3833C287.352 92.1549 287.972 92.0406 288.658 92.0406ZM288.658 100.413C289.584 100.413 290.275 100.104 290.732 99.4866C291.189 98.863 291.418 97.9955 291.418 96.8842C291.418 95.7667 291.189 94.8961 290.732 94.2726C290.275 93.649 289.584 93.3372 288.658 93.3372C288.188 93.3372 287.781 93.4175 287.435 93.578C287.09 93.7385 286.799 93.97 286.565 94.2726C286.336 94.5751 286.163 94.9486 286.046 95.3932C285.935 95.8315 285.879 96.3285 285.879 96.8842C285.879 97.4399 285.935 97.9369 286.046 98.3752C286.163 98.8136 286.336 99.184 286.565 99.4866C286.799 99.7829 287.09 100.011 287.435 100.172C287.781 100.332 288.188 100.413 288.658 100.413ZM295.153 101.57V92.1888H296.134C296.369 92.1888 296.517 92.303 296.579 92.5315L296.709 93.5502C297.116 93.0995 297.57 92.7352 298.07 92.4574C298.576 92.1796 299.16 92.0406 299.82 92.0406C300.333 92.0406 300.784 92.1271 301.173 92.2999C301.568 92.4666 301.895 92.7074 302.154 93.0223C302.42 93.331 302.62 93.7045 302.756 94.1429C302.892 94.5813 302.96 95.0659 302.96 95.5969V101.57H301.311V95.5969C301.311 94.8869 301.148 94.3374 300.821 93.9484C300.5 93.5533 300.006 93.3557 299.339 93.3557C298.851 93.3557 298.394 93.473 297.968 93.7076C297.548 93.9423 297.159 94.2602 296.801 94.6615V101.57H295.153ZM310.816 93.7354C310.742 93.8712 310.628 93.9392 310.474 93.9392C310.381 93.9392 310.276 93.9052 310.159 93.8373C310.042 93.7694 309.896 93.6953 309.724 93.615C309.557 93.5286 309.356 93.4514 309.122 93.3835C308.887 93.3094 308.609 93.2724 308.288 93.2724C308.01 93.2724 307.76 93.3094 307.538 93.3835C307.316 93.4514 307.124 93.5471 306.964 93.6706C306.809 93.7941 306.689 93.9392 306.603 94.1059C306.522 94.2664 306.482 94.4424 306.482 94.6337C306.482 94.8745 306.55 95.0752 306.686 95.2357C306.828 95.3962 307.013 95.5352 307.242 95.6525C307.47 95.7698 307.729 95.8747 308.02 95.9673C308.31 96.0538 308.606 96.1495 308.909 96.2544C309.217 96.3532 309.517 96.4644 309.807 96.5878C310.097 96.7113 310.356 96.8657 310.585 97.0509C310.813 97.2361 310.995 97.4646 311.131 97.7362C311.273 98.0017 311.344 98.3228 311.344 98.6994C311.344 99.1316 311.267 99.5329 311.113 99.9033C310.958 100.268 310.73 100.586 310.427 100.857C310.125 101.123 309.754 101.333 309.316 101.487C308.878 101.641 308.371 101.718 307.797 101.718C307.143 101.718 306.55 101.614 306.019 101.404C305.488 101.188 305.037 100.913 304.667 100.579L305.056 99.9496C305.105 99.8694 305.164 99.8076 305.232 99.7644C305.3 99.7212 305.389 99.6996 305.5 99.6996C305.612 99.6996 305.729 99.7428 305.852 99.8292C305.976 99.9157 306.124 100.011 306.297 100.116C306.476 100.221 306.689 100.317 306.936 100.403C307.189 100.49 307.504 100.533 307.881 100.533C308.202 100.533 308.483 100.493 308.723 100.413C308.964 100.326 309.165 100.212 309.325 100.07C309.486 99.928 309.603 99.7644 309.677 99.5792C309.758 99.394 309.798 99.1964 309.798 98.9865C309.798 98.7272 309.727 98.5141 309.585 98.3474C309.449 98.1746 309.267 98.0295 309.038 97.9122C308.81 97.7887 308.547 97.6837 308.251 97.5973C307.961 97.5047 307.661 97.409 307.353 97.3102C307.05 97.2114 306.751 97.1003 306.454 96.9768C306.164 96.8471 305.905 96.6866 305.676 96.4952C305.448 96.3038 305.263 96.0692 305.121 95.7914C304.985 95.5074 304.917 95.1647 304.917 94.7634C304.917 94.4053 304.991 94.0626 305.139 93.7354C305.287 93.402 305.504 93.1118 305.788 92.8649C306.072 92.6117 306.42 92.4111 306.834 92.2629C307.248 92.1147 307.72 92.0406 308.251 92.0406C308.868 92.0406 309.421 92.1394 309.909 92.337C310.403 92.5284 310.829 92.7939 311.187 93.1334L310.816 93.7354Z" fill="black"/>
<path d="M297.841 156.479C299.868 156.516 301.904 156.505 303.932 156.484L303.95 162.617L308.596 162.629L308.594 167.323C307.048 167.335 305.502 167.337 303.956 167.33C303.932 165.76 303.955 164.187 303.955 162.617C301.91 162.654 299.859 162.631 297.814 162.623L297.806 158.494C297.805 157.851 297.728 157.106 297.841 156.479Z" fill="#151010"/>
<path d="M308.593 167.324L314.622 167.329L314.6 193.004C314.6 196.821 314.674 200.64 314.633 204.458L308.624 204.468C308.573 205.033 308.599 205.618 308.599 206.187L308.6 209.15L303.962 209.154L303.949 209.123C304.024 207.582 303.954 206.003 303.954 204.458L308.607 204.464L308.612 198.268C309.662 198.254 310.714 198.266 311.765 198.266L311.756 173.509C310.702 173.512 309.648 173.506 308.595 173.494C308.563 171.439 308.592 169.379 308.593 167.324Z" fill="#151010"/>
<path d="M293.112 215.284C294.681 215.265 296.252 215.313 297.82 215.262L297.807 219.94L293.127 219.943L293.128 225.966C288.875 225.912 284.614 225.963 280.36 225.963L255.91 225.954C255.854 223.957 255.888 221.945 255.897 219.947L251.279 219.944C251.273 218.388 251.236 216.824 251.284 215.269C252.832 215.304 254.381 215.248 255.928 215.288C255.936 216.841 255.932 218.395 255.918 219.948L260.042 219.947C260.717 219.948 261.454 219.892 262.124 219.973L262.126 223.085L286.97 223.091L286.975 219.931C289.017 219.882 291.069 219.924 293.112 219.922C293.088 218.377 293.11 216.83 293.112 215.284Z" fill="#151010"/>
<path d="M255.892 145.74L280.446 145.757C284.67 145.756 288.905 145.814 293.128 145.73L293.125 151.809C294.683 151.832 296.245 151.812 297.804 151.812C297.801 153.354 297.755 154.913 297.822 156.453C296.254 156.467 294.686 156.465 293.118 156.447L293.121 151.837C291.06 151.849 289 151.85 286.939 151.841L286.939 148.568L262.126 148.562L262.123 151.84C260.067 151.841 258.002 151.88 255.946 151.829C255.971 153.383 255.977 154.938 255.965 156.492L251.279 156.489L251.28 162.679L245.12 162.671C245.134 164.225 245.13 165.78 245.107 167.335C243.572 167.349 242.036 167.348 240.5 167.333L240.504 173.515L237.283 173.516L237.271 198.273C238.349 198.273 239.429 198.259 240.507 198.274L240.505 204.463C242.047 204.46 243.59 204.439 245.132 204.459C245.135 206.014 245.066 207.602 245.133 209.152L240.466 209.136C240.477 207.581 240.479 206.025 240.471 204.47L234.461 204.464L234.455 167.326L240.457 167.319C240.427 165.759 240.453 164.193 240.452 162.632L245.101 162.627C245.078 160.559 245.102 158.487 245.102 156.418L251.244 156.435L251.243 151.804L255.908 151.801C255.836 149.789 255.89 147.754 255.892 145.74Z" fill="#151010"/>
<path d="M303.955 167.331C305.501 167.339 307.047 167.336 308.593 167.324C308.592 169.379 308.563 171.439 308.595 173.494C309.648 173.506 310.702 173.511 311.756 173.509L311.765 198.266C310.714 198.266 309.662 198.254 308.612 198.268L308.607 204.464L303.954 204.458C303.954 206.003 304.024 207.582 303.949 209.123L303.962 209.154L303.955 215.203L300.12 215.205C299.367 215.206 298.597 215.175 297.846 215.231L297.819 215.26C296.251 215.311 294.68 215.263 293.111 215.283C293.109 216.828 293.087 218.375 293.111 219.92C291.068 219.922 289.016 219.88 286.974 219.93L286.968 223.089L262.125 223.084L262.123 219.971C263.692 220.112 265.65 220.035 267.25 220.021C267.254 217.961 267.239 215.902 267.206 213.842L271.184 213.833C271.985 213.832 272.795 213.855 273.595 213.809C272.659 213.766 271.705 213.799 270.767 213.799L265.313 213.81L265.299 209.207L283.79 209.184C283.726 207.63 283.778 206.067 283.759 204.511L287.153 204.505C287.149 203.489 287.155 202.474 287.172 201.458L293.169 201.458L293.134 195.266L296.36 195.259V189.006C297.341 189.025 298.327 189.004 299.309 189.001L299.311 176.57C298.997 176.573 298.684 176.579 298.371 176.553C298.413 176.041 298.386 175.506 298.387 174.992L298.384 171.965L303.965 171.969L303.955 167.331Z" fill="#E70D12"/>
<path d="M303.95 209.122L303.963 209.153L303.955 215.202L300.12 215.204C299.368 215.205 298.597 215.174 297.847 215.23C297.687 214.756 297.812 210.01 297.814 209.117L303.95 209.122Z" fill="#151010"/>
<path d="M298.37 176.552C299.722 176.448 301.133 176.531 302.49 176.536L302.496 195.276L297.843 195.271L297.861 201.464L293.171 201.458L293.17 204.528L288.293 204.527L288.302 209.208L283.883 209.203L283.873 213.813L276.986 213.801C275.866 213.8 274.711 213.743 273.595 213.808C272.658 213.765 271.705 213.798 270.766 213.798L265.313 213.809L265.299 209.206L283.789 209.183C283.725 207.629 283.778 206.066 283.758 204.511L287.153 204.504C287.148 203.489 287.154 202.473 287.172 201.458L293.168 201.457L293.134 195.266L296.359 195.259V189.006C297.341 189.024 298.327 189.003 299.309 189L299.31 176.57C298.996 176.573 298.684 176.578 298.37 176.552Z" fill="#B6C7C0"/>
<path d="M262.127 148.562L286.94 148.569L286.939 151.842C289 151.851 291.061 151.85 293.122 151.837L293.118 156.448C294.686 156.466 296.254 156.468 297.822 156.454L297.841 156.481C297.727 157.108 297.805 157.853 297.806 158.496L297.813 162.625C299.858 162.633 301.91 162.657 303.955 162.619C303.955 164.189 303.932 165.763 303.956 167.332L303.966 171.969L298.384 171.966L298.388 174.993C298.387 175.507 298.414 176.042 298.372 176.553C298.305 176.027 298.34 175.47 298.341 174.939L298.346 171.97L293.126 171.97L293.124 167.323L288.46 167.322C288.471 165.76 288.47 164.199 288.458 162.638L283.836 162.635L283.832 158.043L265.266 158.042L265.268 162.645C263.719 162.652 262.169 162.674 260.62 162.66L260.619 167.323L255.979 167.322L255.982 171.961C254.419 171.962 252.854 171.945 251.291 171.967L251.289 176.569L246.651 176.604C246.636 182.794 246.571 188.996 246.654 195.184L251.295 195.18L251.301 201.378L255.936 201.38L255.943 204.523L260.674 204.531C260.671 206.091 260.677 207.651 260.692 209.211C262.227 209.21 263.765 209.191 265.3 209.208L265.314 213.81L270.768 213.8C271.706 213.8 272.66 213.767 273.596 213.81C272.796 213.856 271.986 213.833 271.185 213.834L267.207 213.843C267.24 215.903 267.255 217.962 267.251 220.022C265.651 220.035 263.693 220.113 262.124 219.972C261.454 219.891 260.717 219.947 260.041 219.946L255.918 219.947C255.932 218.394 255.935 216.84 255.927 215.287C254.381 215.247 252.831 215.303 251.284 215.268L251.265 215.227C250.572 215.151 249.825 215.202 249.126 215.202H245.147C245.155 213.186 245.15 211.17 245.134 209.153C245.067 207.603 245.135 206.015 245.133 204.46C243.591 204.44 242.047 204.461 240.505 204.464L240.507 198.275C239.429 198.26 238.349 198.274 237.271 198.274L237.283 173.517L240.505 173.516L240.501 167.334C242.036 167.349 243.572 167.35 245.108 167.336C245.13 165.781 245.135 164.226 245.121 162.672L251.28 162.68L251.279 156.49L255.966 156.493C255.978 154.939 255.972 153.384 255.947 151.83C258.003 151.881 260.067 151.842 262.124 151.841L262.127 148.562Z" fill="#F73131"/>
<path d="M245.133 209.152L251.295 209.155L251.299 213.322C251.299 213.901 251.383 214.664 251.264 215.226C250.571 215.15 249.824 215.201 249.126 215.201H245.146C245.154 213.185 245.15 211.169 245.133 209.152Z" fill="#151010"/>
<path d="M265.264 158.043L283.83 158.044L283.835 162.636L288.457 162.638C288.469 164.2 288.47 165.761 288.459 167.322L293.122 167.323L293.124 171.971L298.344 171.97L298.339 174.94C298.339 175.471 298.304 176.028 298.37 176.554C298.684 176.58 298.996 176.575 299.31 176.572L299.309 189.002C298.327 189.006 297.341 189.027 296.359 189.008V195.261L293.134 195.268L293.168 201.459L287.172 201.46C287.154 202.475 287.148 203.491 287.153 204.507L283.758 204.513C283.778 206.069 283.725 207.631 283.789 209.186L265.299 209.209C263.764 209.192 262.226 209.211 260.691 209.212C260.676 207.652 260.67 206.092 260.673 204.532L255.942 204.524L255.935 201.381L251.3 201.379L251.293 195.181L246.652 195.185C246.57 188.997 246.635 182.795 246.649 176.605L251.287 176.57L251.29 171.968C252.852 171.946 254.417 171.963 255.98 171.962L255.978 167.323L260.618 167.323L260.619 162.66C262.168 162.675 263.718 162.653 265.267 162.646L265.264 158.043Z" fill="white"/>
<path d="M277.652 173.524L286.84 173.523L286.844 182.8L282.32 182.799C282.302 184.876 282.303 186.953 282.323 189.03L286.837 189.049C286.838 189.988 286.899 197.979 286.839 198.131C286.826 198.162 286.795 198.181 286.772 198.206L277.635 198.184C277.643 196.646 277.637 195.108 277.616 193.57L271.516 193.585C271.488 195.126 271.506 196.67 271.503 198.212C268.404 198.133 265.289 198.189 262.188 198.185L262.186 188.911L266.818 188.902L266.818 182.808C265.281 182.772 263.738 182.803 262.2 182.802C262.098 179.72 262.179 176.609 262.179 173.525L271.502 173.529L271.501 178.159L277.65 178.159L277.652 173.524Z" fill="#E70D12"/>
<path fill-rule="evenodd" clip-rule="evenodd" d="M210.605 522.105H337.788V307.484H328.366V314.189H333.077V320.897H215.314V314.189H220.025V307.484H210.605V522.105Z" fill="white"/>
<path fill-rule="evenodd" clip-rule="evenodd" d="M300.223 283.731V279H248.175V283.731H243.444V288.463H191.396V540.369H357V288.463H304.955V283.731L300.223 283.731ZM229.25 302.658H205.591V526.174H342.806V302.658H319.149V297.927H314.417V293.194H352.27V535.637H196.128V293.194H233.98V297.927H229.25V302.658ZM215.053 316.852H333.344V312.12H328.612V307.39H338.076V521.442H210.323V307.39H219.785V312.12H215.053V316.852ZM300.223 283.731V288.463L304.955 288.463L304.955 293.194H309.685V297.927L314.417 297.927V302.658H319.149V307.39H323.882V312.12H224.517V307.39H229.25V302.658H233.98V297.927H238.712V293.194H243.444L243.444 288.463L248.175 288.463L248.175 283.731H300.223Z" fill="black"/>
<path fill-rule="evenodd" clip-rule="evenodd" d="M196.127 535.542H352.27V293.195H314.416V297.927H319.149V302.659H342.805V526.079H205.59V302.659H229.249V297.927H233.979V293.195H196.127L196.127 535.542Z" fill="#F26C2F"/>
<path fill-rule="evenodd" clip-rule="evenodd" d="M300.223 283.732H248.175V288.465H243.444V293.196H238.712V297.928H233.98V302.659H229.25V307.391H224.518V312.121H323.882V307.391H319.149V302.659H314.417V297.928H309.685V293.196H304.955V288.465H300.223V283.732Z" fill="#FDBE31"/>
<path d="M260.409 368.311H263.261V359.263C263.261 358.991 263.271 358.716 263.289 358.438L260.918 360.467C260.857 360.516 260.795 360.553 260.733 360.578C260.671 360.596 260.613 360.606 260.557 360.606C260.465 360.606 260.381 360.587 260.307 360.55C260.233 360.507 260.178 360.457 260.14 360.402L259.622 359.689L263.567 356.271H264.91V368.311H267.522V369.57H260.409V368.311ZM273.858 369.718C273.197 369.718 272.592 369.632 272.042 369.459C271.493 369.28 271.021 369.027 270.625 368.7C270.23 368.373 269.925 367.977 269.709 367.514C269.493 367.045 269.385 366.52 269.385 365.94C269.385 365.088 269.607 364.387 270.051 363.838C270.496 363.282 271.132 362.887 271.959 362.652C271.261 362.393 270.734 362.007 270.375 361.495C270.024 360.976 269.848 360.359 269.848 359.642C269.848 359.155 269.943 358.698 270.135 358.272C270.326 357.846 270.598 357.475 270.95 357.16C271.302 356.846 271.721 356.599 272.209 356.42C272.703 356.24 273.253 356.151 273.858 356.151C274.457 356.151 275.003 356.24 275.497 356.42C275.991 356.599 276.414 356.846 276.766 357.16C277.118 357.475 277.389 357.846 277.581 358.272C277.772 358.698 277.868 359.155 277.868 359.642C277.868 360.359 277.689 360.976 277.331 361.495C276.972 362.007 276.448 362.393 275.756 362.652C276.583 362.887 277.219 363.282 277.664 363.838C278.108 364.387 278.331 365.088 278.331 365.94C278.331 366.52 278.22 367.045 277.997 367.514C277.781 367.977 277.476 368.373 277.08 368.7C276.692 369.027 276.222 369.28 275.673 369.459C275.123 369.632 274.518 369.718 273.858 369.718ZM273.858 368.403C274.29 368.403 274.676 368.345 275.015 368.227C275.361 368.104 275.651 367.934 275.886 367.718C276.127 367.496 276.309 367.233 276.432 366.931C276.562 366.622 276.627 366.283 276.627 365.912C276.627 365.455 276.55 365.066 276.395 364.745C276.247 364.418 276.043 364.153 275.784 363.949C275.531 363.745 275.238 363.597 274.904 363.504C274.571 363.406 274.222 363.356 273.858 363.356C273.493 363.356 273.145 363.406 272.811 363.504C272.478 363.597 272.181 363.745 271.922 363.949C271.669 364.153 271.465 364.418 271.311 364.745C271.163 365.066 271.089 365.455 271.089 365.912C271.089 366.283 271.15 366.622 271.274 366.931C271.403 367.233 271.586 367.496 271.82 367.718C272.061 367.934 272.351 368.104 272.691 368.227C273.036 368.345 273.425 368.403 273.858 368.403ZM273.858 362.032C274.29 362.032 274.657 361.967 274.96 361.837C275.268 361.701 275.518 361.526 275.71 361.309C275.901 361.087 276.04 360.834 276.127 360.55C276.213 360.266 276.256 359.973 276.256 359.67C276.256 359.361 276.204 359.071 276.099 358.8C276 358.528 275.849 358.29 275.645 358.087C275.447 357.883 275.197 357.722 274.895 357.605C274.599 357.488 274.253 357.429 273.858 357.429C273.462 357.429 273.114 357.488 272.811 357.605C272.515 357.722 272.265 357.883 272.061 358.087C271.863 358.29 271.712 358.528 271.607 358.8C271.508 359.071 271.459 359.361 271.459 359.67C271.459 359.973 271.502 360.266 271.589 360.55C271.675 360.834 271.814 361.087 272.005 361.309C272.197 361.526 272.444 361.701 272.746 361.837C273.055 361.967 273.425 362.032 273.858 362.032ZM285.269 358.772V362.726H289.038V363.977H285.269V367.959H283.917V363.977H280.166V362.726H283.917V358.772H285.269ZM251.288 388.829C251.387 388.829 251.477 388.869 251.557 388.949L252.261 389.718C251.717 390.348 251.057 390.839 250.279 391.191C249.507 391.543 248.575 391.718 247.482 391.718C246.525 391.718 245.658 391.555 244.88 391.228C244.102 390.894 243.438 390.431 242.889 389.838C242.339 389.24 241.913 388.523 241.611 387.69C241.308 386.856 241.157 385.94 241.157 384.939C241.157 383.939 241.317 383.022 241.638 382.189C241.966 381.355 242.422 380.639 243.009 380.04C243.595 379.441 244.296 378.978 245.111 378.651C245.932 378.318 246.837 378.151 247.825 378.151C248.8 378.151 249.64 378.302 250.344 378.605C251.054 378.907 251.684 379.318 252.233 379.836L251.65 380.661C251.606 380.722 251.557 380.775 251.501 380.818C251.446 380.855 251.366 380.874 251.261 380.874C251.18 380.874 251.094 380.846 251.001 380.79C250.915 380.729 250.81 380.655 250.686 380.568C250.563 380.482 250.418 380.389 250.251 380.29C250.084 380.192 249.887 380.099 249.658 380.012C249.43 379.926 249.165 379.855 248.862 379.799C248.559 379.738 248.211 379.707 247.815 379.707C247.105 379.707 246.454 379.83 245.861 380.077C245.275 380.318 244.769 380.664 244.343 381.115C243.917 381.565 243.583 382.115 243.342 382.763C243.108 383.411 242.99 384.137 242.99 384.939C242.99 385.767 243.108 386.504 243.342 387.153C243.583 387.801 243.907 388.351 244.315 388.801C244.728 389.246 245.216 389.585 245.778 389.82C246.34 390.055 246.945 390.172 247.593 390.172C247.988 390.172 248.343 390.15 248.658 390.107C248.973 390.058 249.263 389.984 249.529 389.885C249.8 389.786 250.05 389.663 250.279 389.514C250.514 389.36 250.748 389.178 250.983 388.968C251.088 388.875 251.19 388.829 251.288 388.829ZM258.152 382.041C258.837 382.041 259.455 382.155 260.004 382.383C260.56 382.612 261.029 382.936 261.412 383.356C261.801 383.776 262.097 384.285 262.301 384.884C262.511 385.477 262.616 386.14 262.616 386.875C262.616 387.616 262.511 388.283 262.301 388.875C262.097 389.468 261.801 389.974 261.412 390.394C261.029 390.814 260.56 391.138 260.004 391.367C259.455 391.589 258.837 391.7 258.152 391.7C257.467 391.7 256.846 391.589 256.291 391.367C255.741 391.138 255.272 390.814 254.883 390.394C254.494 389.974 254.195 389.468 253.985 388.875C253.775 388.283 253.67 387.616 253.67 386.875C253.67 386.14 253.775 385.477 253.985 384.884C254.195 384.285 254.494 383.776 254.883 383.356C255.272 382.936 255.741 382.612 256.291 382.383C256.846 382.155 257.467 382.041 258.152 382.041ZM258.152 390.413C259.078 390.413 259.77 390.104 260.227 389.487C260.684 388.863 260.912 387.996 260.912 386.884C260.912 385.767 260.684 384.896 260.227 384.273C259.77 383.649 259.078 383.337 258.152 383.337C257.683 383.337 257.275 383.417 256.93 383.578C256.584 383.739 256.294 383.97 256.059 384.273C255.831 384.575 255.658 384.949 255.541 385.393C255.429 385.832 255.374 386.329 255.374 386.884C255.374 387.44 255.429 387.937 255.541 388.375C255.658 388.814 255.831 389.184 256.059 389.487C256.294 389.783 256.584 390.011 256.93 390.172C257.275 390.332 257.683 390.413 258.152 390.413ZM264.647 391.57V382.189H265.629C265.864 382.189 266.012 382.303 266.073 382.531L266.203 383.55C266.611 383.099 267.064 382.735 267.564 382.457C268.071 382.18 268.654 382.041 269.315 382.041C269.827 382.041 270.278 382.127 270.667 382.3C271.062 382.467 271.389 382.707 271.649 383.022C271.914 383.331 272.115 383.705 272.251 384.143C272.386 384.581 272.454 385.066 272.454 385.597V391.57H270.806V385.597C270.806 384.887 270.642 384.337 270.315 383.948C269.994 383.553 269.5 383.356 268.833 383.356C268.346 383.356 267.889 383.473 267.463 383.708C267.043 383.942 266.654 384.26 266.296 384.662V391.57H264.647ZM277.783 391.718C277.042 391.718 276.471 391.512 276.069 391.098C275.674 390.684 275.477 390.089 275.477 389.311V383.569H274.347C274.248 383.569 274.165 383.541 274.097 383.485C274.029 383.424 273.995 383.331 273.995 383.208V382.55L275.532 382.356L275.912 379.457C275.924 379.364 275.964 379.29 276.032 379.235C276.1 379.173 276.187 379.142 276.291 379.142H277.125V382.374H279.811V383.569H277.125V389.199C277.125 389.595 277.221 389.888 277.412 390.079C277.603 390.271 277.85 390.366 278.153 390.366C278.326 390.366 278.474 390.345 278.597 390.302C278.727 390.252 278.838 390.2 278.931 390.144C279.024 390.089 279.101 390.039 279.162 389.996C279.23 389.947 279.289 389.922 279.338 389.922C279.425 389.922 279.502 389.974 279.57 390.079L280.051 390.866C279.767 391.132 279.425 391.342 279.024 391.496C278.622 391.644 278.209 391.718 277.783 391.718ZM285.563 382.041C286.125 382.041 286.643 382.136 287.119 382.328C287.594 382.513 288.005 382.785 288.35 383.143C288.696 383.495 288.965 383.933 289.156 384.458C289.354 384.976 289.452 385.569 289.452 386.236C289.452 386.495 289.425 386.668 289.369 386.755C289.313 386.841 289.209 386.884 289.054 386.884H282.812C282.825 387.477 282.905 387.992 283.053 388.431C283.201 388.869 283.405 389.237 283.664 389.533C283.923 389.823 284.232 390.042 284.59 390.19C284.948 390.332 285.35 390.403 285.794 390.403C286.208 390.403 286.563 390.357 286.859 390.264C287.162 390.166 287.421 390.061 287.637 389.95C287.853 389.838 288.032 389.737 288.174 389.644C288.323 389.545 288.449 389.496 288.554 389.496C288.69 389.496 288.795 389.548 288.869 389.653L289.332 390.255C289.128 390.502 288.884 390.718 288.6 390.904C288.316 391.083 288.011 391.231 287.684 391.348C287.362 391.465 287.029 391.552 286.683 391.607C286.338 391.669 285.995 391.7 285.655 391.7C285.007 391.7 284.408 391.592 283.859 391.376C283.315 391.154 282.843 390.833 282.442 390.413C282.047 389.987 281.738 389.462 281.516 388.838C281.293 388.215 281.182 387.499 281.182 386.69C281.182 386.035 281.281 385.424 281.479 384.856C281.682 384.288 281.972 383.797 282.349 383.383C282.726 382.964 283.186 382.636 283.729 382.402C284.272 382.161 284.884 382.041 285.563 382.041ZM285.6 383.254C284.803 383.254 284.177 383.485 283.72 383.948C283.263 384.405 282.979 385.041 282.868 385.856H287.971C287.971 385.473 287.918 385.125 287.813 384.81C287.708 384.489 287.554 384.214 287.35 383.985C287.146 383.751 286.896 383.572 286.6 383.448C286.31 383.319 285.976 383.254 285.6 383.254ZM291.562 391.57V382.189H292.544C292.779 382.189 292.927 382.303 292.989 382.531L293.118 383.55C293.526 383.099 293.979 382.735 294.48 382.457C294.986 382.18 295.569 382.041 296.23 382.041C296.742 382.041 297.193 382.127 297.582 382.3C297.977 382.467 298.304 382.707 298.564 383.022C298.829 383.331 299.03 383.705 299.166 384.143C299.302 384.581 299.369 385.066 299.369 385.597V391.57H297.721V385.597C297.721 384.887 297.557 384.337 297.23 383.948C296.909 383.553 296.415 383.356 295.748 383.356C295.261 383.356 294.804 383.473 294.378 383.708C293.958 383.942 293.569 384.26 293.211 384.662V391.57H291.562ZM304.698 391.718C303.957 391.718 303.386 391.512 302.984 391.098C302.589 390.684 302.392 390.089 302.392 389.311V383.569H301.262C301.163 383.569 301.08 383.541 301.012 383.485C300.944 383.424 300.91 383.331 300.91 383.208V382.55L302.447 382.356L302.827 379.457C302.839 379.364 302.879 379.29 302.947 379.235C303.015 379.173 303.102 379.142 303.207 379.142H304.04V382.374H306.726V383.569H304.04V389.199C304.04 389.595 304.136 389.888 304.327 390.079C304.519 390.271 304.766 390.366 305.068 390.366C305.241 390.366 305.389 390.345 305.513 390.302C305.642 390.252 305.753 390.2 305.846 390.144C305.939 390.089 306.016 390.039 306.078 389.996C306.145 389.947 306.204 389.922 306.253 389.922C306.34 389.922 306.417 389.974 306.485 390.079L306.967 390.866C306.683 391.132 306.34 391.342 305.939 391.496C305.537 391.644 305.124 391.718 304.698 391.718Z" fill="black"/>
<path d="M297.841 435.479C299.868 435.516 301.904 435.505 303.932 435.484L303.95 441.617L308.596 441.629L308.594 446.323C307.048 446.335 305.502 446.337 303.956 446.33C303.932 444.76 303.955 443.187 303.955 441.617C301.91 441.654 299.859 441.631 297.814 441.623L297.806 437.494C297.805 436.851 297.728 436.106 297.841 435.479Z" fill="#151010"/>
<path d="M308.593 446.324L314.622 446.329L314.6 472.004C314.6 475.821 314.674 479.64 314.633 483.458L308.624 483.468C308.573 484.033 308.599 484.618 308.599 485.187L308.6 488.15L303.962 488.154L303.949 488.123C304.024 486.582 303.954 485.003 303.954 483.458L308.607 483.464L308.612 477.268C309.662 477.254 310.714 477.266 311.765 477.266L311.756 452.509C310.702 452.512 309.648 452.506 308.595 452.494C308.563 450.439 308.592 448.379 308.593 446.324Z" fill="#151010"/>
<path d="M293.112 494.284C294.681 494.265 296.252 494.313 297.82 494.262L297.807 498.94L293.127 498.943L293.128 504.966C288.875 504.912 284.614 504.963 280.36 504.963L255.91 504.954C255.854 502.957 255.888 500.945 255.897 498.947L251.279 498.944C251.273 497.388 251.236 495.824 251.284 494.269C252.832 494.304 254.381 494.248 255.928 494.288C255.936 495.841 255.932 497.395 255.918 498.948L260.042 498.947C260.717 498.948 261.454 498.892 262.124 498.973L262.126 502.085L286.97 502.091L286.975 498.931C289.017 498.882 291.069 498.924 293.112 498.922C293.088 497.377 293.11 495.83 293.112 494.284Z" fill="#151010"/>
<path d="M255.892 424.74L280.446 424.757C284.67 424.756 288.905 424.814 293.128 424.73L293.125 430.809C294.683 430.832 296.245 430.812 297.804 430.812C297.801 432.354 297.755 433.913 297.822 435.453C296.254 435.467 294.686 435.465 293.118 435.447L293.121 430.837C291.06 430.849 289 430.85 286.939 430.841L286.939 427.568L262.126 427.562L262.123 430.84C260.067 430.841 258.002 430.88 255.946 430.829C255.971 432.383 255.977 433.938 255.965 435.492L251.279 435.489L251.28 441.679L245.12 441.671C245.134 443.225 245.13 444.78 245.107 446.335C243.572 446.349 242.036 446.348 240.5 446.333L240.504 452.515L237.283 452.516L237.271 477.273C238.349 477.273 239.429 477.259 240.507 477.274L240.505 483.463C242.047 483.46 243.59 483.439 245.132 483.459C245.135 485.014 245.066 486.602 245.133 488.152L240.466 488.136C240.477 486.581 240.479 485.025 240.471 483.47L234.461 483.464L234.455 446.326L240.457 446.319C240.427 444.759 240.453 443.193 240.452 441.632L245.101 441.627C245.078 439.559 245.102 437.487 245.102 435.418L251.244 435.435L251.243 430.804L255.908 430.801C255.836 428.789 255.89 426.754 255.892 424.74Z" fill="#151010"/>
<path d="M303.955 446.331C305.501 446.339 307.047 446.336 308.593 446.324C308.592 448.379 308.563 450.439 308.595 452.494C309.648 452.506 310.702 452.511 311.756 452.509L311.765 477.266C310.714 477.266 309.662 477.254 308.612 477.268L308.607 483.464L303.954 483.458C303.954 485.003 304.024 486.582 303.949 488.123L303.962 488.154L303.955 494.203L300.12 494.205C299.367 494.206 298.597 494.175 297.846 494.231L297.819 494.26C296.251 494.311 294.68 494.263 293.111 494.283C293.109 495.828 293.087 497.375 293.111 498.92C291.068 498.922 289.016 498.88 286.974 498.93L286.968 502.089L262.125 502.084L262.123 498.971C263.692 499.112 265.65 499.035 267.25 499.021C267.254 496.961 267.239 494.902 267.206 492.842L271.184 492.833C271.985 492.832 272.795 492.855 273.595 492.809C272.659 492.766 271.705 492.799 270.767 492.799L265.313 492.81L265.299 488.207L283.79 488.184C283.726 486.63 283.778 485.067 283.759 483.511L287.153 483.505C287.149 482.489 287.155 481.474 287.172 480.458L293.169 480.458L293.134 474.266L296.36 474.259V468.006C297.341 468.025 298.327 468.004 299.309 468.001L299.311 455.57C298.997 455.573 298.684 455.579 298.371 455.553C298.413 455.041 298.386 454.506 298.387 453.992L298.384 450.965L303.965 450.969L303.955 446.331Z" fill="#E70D12"/>
<path d="M303.95 488.122L303.963 488.153L303.955 494.202L300.12 494.204C299.368 494.205 298.597 494.174 297.847 494.23C297.687 493.756 297.812 489.01 297.814 488.117L303.95 488.122Z" fill="#151010"/>
<path d="M298.37 455.552C299.722 455.448 301.133 455.531 302.49 455.536L302.496 474.276L297.843 474.271L297.861 480.464L293.171 480.458L293.17 483.528L288.293 483.527L288.302 488.208L283.883 488.203L283.873 492.813L276.986 492.801C275.866 492.8 274.711 492.743 273.595 492.808C272.658 492.765 271.705 492.798 270.766 492.798L265.313 492.809L265.299 488.206L283.789 488.183C283.725 486.629 283.778 485.066 283.758 483.511L287.153 483.504C287.148 482.489 287.154 481.473 287.172 480.458L293.168 480.457L293.134 474.266L296.359 474.259V468.006C297.341 468.024 298.327 468.003 299.309 468L299.31 455.57C298.996 455.573 298.684 455.578 298.37 455.552Z" fill="#B6C7C0"/>
<path d="M262.127 427.561L286.94 427.567L286.939 430.84C289 430.849 291.061 430.848 293.122 430.835L293.118 435.446C294.686 435.464 296.254 435.466 297.822 435.452L297.841 435.479C297.727 436.106 297.805 436.851 297.806 437.494L297.813 441.623C299.858 441.632 301.91 441.655 303.955 441.618C303.955 443.187 303.932 444.761 303.956 446.33L303.966 450.967L298.384 450.964L298.388 453.991C298.387 454.505 298.414 455.04 298.372 455.551C298.305 455.025 298.34 454.468 298.341 453.937L298.346 450.968L293.126 450.968L293.124 446.321L288.46 446.32C288.471 444.758 288.47 443.197 288.458 441.636L283.836 441.633L283.832 437.041L265.266 437.04L265.268 441.643C263.719 441.65 262.169 441.672 260.62 441.658L260.619 446.321L255.979 446.32L255.982 450.959C254.419 450.96 252.854 450.943 251.291 450.965L251.289 455.567L246.651 455.602C246.636 461.792 246.571 467.994 246.654 474.182L251.295 474.178L251.301 480.376L255.936 480.378L255.943 483.521L260.674 483.529C260.671 485.089 260.677 486.649 260.692 488.209C262.227 488.208 263.765 488.189 265.3 488.206L265.314 492.808L270.768 492.798C271.706 492.798 272.66 492.765 273.596 492.808C272.796 492.854 271.986 492.831 271.185 492.832L267.207 492.841C267.24 494.901 267.255 496.96 267.251 499.02C265.651 499.033 263.693 499.111 262.124 498.97C261.454 498.889 260.717 498.945 260.041 498.944L255.918 498.945C255.932 497.392 255.935 495.838 255.927 494.285C254.381 494.245 252.831 494.301 251.284 494.266L251.265 494.225C250.572 494.149 249.825 494.2 249.126 494.2H245.147C245.155 492.184 245.15 490.168 245.134 488.151C245.067 486.601 245.135 485.013 245.133 483.458C243.591 483.438 242.047 483.459 240.505 483.462L240.507 477.273C239.429 477.258 238.349 477.272 237.271 477.272L237.283 452.515L240.505 452.514L240.501 446.332C242.036 446.347 243.572 446.348 245.108 446.334C245.13 444.779 245.135 443.224 245.121 441.67L251.28 441.678L251.279 435.488L255.966 435.491C255.978 433.937 255.972 432.382 255.947 430.828C258.003 430.879 260.067 430.84 262.124 430.839L262.127 427.561Z" fill="#F73131"/>
<path d="M245.133 488.154L251.295 488.157L251.299 492.324C251.299 492.903 251.383 493.666 251.264 494.228C250.571 494.152 249.824 494.203 249.126 494.203H245.146C245.154 492.187 245.15 490.171 245.133 488.154Z" fill="#151010"/>
<path d="M265.264 437.043L283.83 437.044L283.835 441.636L288.457 441.638C288.469 443.2 288.47 444.761 288.459 446.322L293.122 446.323L293.124 450.971L298.344 450.97L298.339 453.94C298.339 454.471 298.304 455.028 298.37 455.554C298.684 455.58 298.996 455.575 299.31 455.572L299.309 468.002C298.327 468.006 297.341 468.027 296.359 468.008V474.261L293.134 474.268L293.168 480.459L287.172 480.46C287.154 481.475 287.148 482.491 287.153 483.507L283.758 483.513C283.778 485.069 283.725 486.631 283.789 488.186L265.299 488.209C263.764 488.192 262.226 488.211 260.691 488.212C260.676 486.652 260.67 485.092 260.673 483.532L255.942 483.524L255.935 480.381L251.3 480.379L251.293 474.181L246.652 474.185C246.57 467.997 246.635 461.795 246.649 455.605L251.287 455.57L251.29 450.968C252.852 450.946 254.417 450.963 255.98 450.962L255.978 446.323L260.618 446.323L260.619 441.66C262.168 441.675 263.718 441.653 265.267 441.646L265.264 437.043Z" fill="white"/>
<path d="M277.652 452.524L286.84 452.523L286.844 461.8L282.32 461.799C282.302 463.876 282.303 465.953 282.323 468.03L286.837 468.049C286.838 468.988 286.899 476.979 286.839 477.131C286.826 477.162 286.795 477.181 286.772 477.206L277.635 477.184C277.643 475.646 277.637 474.108 277.616 472.57L271.516 472.585C271.488 474.126 271.506 475.67 271.503 477.212C268.404 477.133 265.289 477.189 262.188 477.185L262.186 467.911L266.818 467.902L266.818 461.808C265.281 461.772 263.738 461.803 262.2 461.802C262.098 458.72 262.179 455.609 262.179 452.525L271.502 452.529L271.501 457.159L277.65 457.159L277.652 452.524Z" fill="#E70D12"/>
</svg>
