<svg width="109" height="109" viewBox="0 0 109 109" fill="none" xmlns="http://www.w3.org/2000/svg">
<rect width="109" height="109" fill="#1E1E1E"/>
<g id="v2.7">
<path d="M-1898 -18272C-1898 -18273.1 -1897.1 -18274 -1896 -18274H2447C2448.1 -18274 2449 -18273.1 2449 -18272V16321C2449 16322.1 2448.1 16323 2447 16323H-1896C-1897.1 16323 -1898 16322.1 -1898 16321V-18272Z" fill="#444444"/>
<path d="M-1896 -18273H2447V-18275H-1896V-18273ZM2448 -18272V16321H2450V-18272H2448ZM2447 16322H-1896V16324H2447V16322ZM-1897 16321V-18272H-1899V16321H-1897ZM-1896 16322C-1896.55 16322 -1897 16321.6 -1897 16321H-1899C-1899 16322.7 -1897.66 16324 -1896 16324V16322ZM2448 16321C2448 16321.6 2447.55 16322 2447 16322V16324C2448.66 16324 2450 16322.7 2450 16321H2448ZM2447 -18273C2447.55 -18273 2448 -18272.6 2448 -18272H2450C2450 -18273.7 2448.66 -18275 2447 -18275V-18273ZM-1896 -18275C-1897.66 -18275 -1899 -18273.7 -1899 -18272H-1897C-1897 -18272.6 -1896.55 -18273 -1896 -18273V-18275Z" fill="white" fill-opacity="0.1"/>
<g id="Landing Page V2.7" clip-path="url(#clip0_105_2)">
<rect width="1440" height="21763" transform="translate(-743 -15850)" fill="#EDE8DC"/>
<g id="Frame 1410116581">
<rect width="1440" height="624" transform="translate(-743 -414)" fill="#4DAFF6"/>
<g id="back image">
</g>
<g id="Rectangle 66" filter="url(#filter0_d_105_2)">
<rect x="-614" y="-349" width="656" height="489" fill="#764B30"/>
<rect x="-613.5" y="-348.5" width="655" height="488" stroke="black"/>
</g>
<g id="Rectangle 67" filter="url(#filter1_d_105_2)">
<rect x="42" y="-349" width="535" height="489" fill="#F26C2F"/>
<rect x="42.5" y="-348.5" width="534" height="488" stroke="black"/>
</g>
<g id="Layer 2">
<g id="RETRO TECH">
<path id="Vector" d="M107.154 54.0096C107.154 54.8138 107.137 55.6158 107.1 56.4112C106.468 70.4183 100.338 83.611 90.0394 93.1266C79.7413 102.642 66.1062 107.713 52.0928 107.239C38.0795 106.764 24.8185 100.783 15.1874 90.5929C5.55628 80.4028 0.332048 66.8257 0.648334 52.8079C0.964619 38.7901 6.7959 25.4625 16.8768 15.7171C26.9578 5.97171 40.475 0.594713 54.4955 0.752906C68.516 0.911099 81.9085 6.59172 91.7669 16.5621C101.625 26.5325 107.155 39.9883 107.154 54.0096Z" fill="#69CDE0"/>
<path id="Vector_2" d="M107.155 54.0099C107.155 54.8141 107.137 55.6161 107.101 56.4115L54.1723 54.0273L54.0098 54.1573L54.0531 54.023H54.0098L54.0618 54.0034L70.6605 3.5332C80.528 6.80172 89.2236 12.8858 95.6756 21.0358L54.3327 53.8907L103.843 35.5212C106.04 41.4374 107.162 47.6989 107.155 54.0099Z" fill="#FCBB41"/>
<path id="Vector_3" d="M54.0096 53.8167L45.9356 47.1972L41.8455 43.8441L13.0156 20.2053C16.0159 16.5699 19.4836 13.3471 23.3286 10.6206L44.9191 41.0155L47.9839 45.331L54.0096 53.8167Z" fill="#FCBB41"/>
<path id="Vector_4" d="M54.172 54.0181L47.8277 62.5732L44.674 66.8258L22.4701 96.7742C14.923 91.2003 8.97865 83.7353 5.23633 75.1317L39.4828 60.358L44.3424 58.262L54.0354 54.0788L54.1698 54.0202L54.172 54.0181Z" fill="#FCBB41"/>
<path id="Vector_5" d="M84.2951 97.6763C81.3437 99.7298 78.1911 101.478 74.886 102.893L60.5523 68.4584L58.5235 63.5663L54.5548 54.0293L54.4746 53.8364L54.6068 54.0315L60.3442 62.4631L63.3245 66.8436L84.2951 97.6763Z" fill="#FCBB41"/>
<path id="Vector_6" d="M54.0102 38.1484C57.1468 38.1489 60.2127 39.0793 62.8205 40.8222C65.4283 42.565 67.4607 45.042 68.6608 47.9398C69.8609 50.8377 70.1748 54.0264 69.5628 57.1026C68.9508 60.1789 67.4403 63.0046 65.2225 65.2225C63.0046 67.4403 60.1789 68.9508 57.1026 69.5628C54.0264 70.1748 50.8377 69.8609 47.9398 68.6608C45.042 67.4607 42.565 65.4283 40.8222 62.8205C39.0793 60.2127 38.1489 57.1468 38.1484 54.0102C38.1496 49.8038 39.8211 45.7699 42.7955 42.7955C45.7699 39.8211 49.8038 38.1496 54.0102 38.1484Z" fill="#FCBB41"/>
<path id="Vector_7" d="M54.0097 43.4453C56.0991 43.4453 58.1417 44.0649 59.879 45.2257C61.6163 46.3866 62.9703 48.0365 63.7699 49.9669C64.5695 51.8973 64.7787 54.0214 64.3711 56.0707C63.9635 58.12 62.9573 60.0024 61.4799 61.4799C60.0024 62.9573 58.12 63.9635 56.0707 64.3711C54.0214 64.7787 51.8973 64.5695 49.9669 63.7699C48.0365 62.9703 46.3866 61.6163 45.2257 59.879C44.0649 58.1417 43.4453 56.0991 43.4453 54.0097C43.4465 51.2082 44.5599 48.5218 46.5408 46.5408C48.5218 44.5599 51.2082 43.4465 54.0097 43.4453Z" fill="#AB5995"/>
<path id="Vector_8" d="M104.656 35.2197C102.683 29.9045 99.8808 24.9351 96.3542 20.4958C87.7814 9.65674 75.3783 2.51807 61.6997 0.55027C48.0211 -1.41753 34.1087 1.93541 22.8282 9.91843C15.776 14.908 10.0227 21.5156 6.05072 29.1872C2.07877 36.8588 0.00391341 45.3709 0.000101217 54.0097C-0.0142507 61.3921 1.4978 68.6978 4.44131 75.468C8.24414 84.2107 14.2841 91.7967 21.9525 97.4616C29.5195 103.047 38.4135 106.559 47.7547 107.652C57.0958 108.745 66.5605 107.381 75.2124 103.693C78.5727 102.26 81.7784 100.488 84.7797 98.4045C91.5003 93.7226 97.0809 87.5879 101.107 80.4554C105.257 73.114 107.605 64.893 107.959 56.4677C107.994 55.6787 108.013 54.8572 108.013 54.0271C108.026 47.6077 106.889 41.238 104.656 35.2197ZM106.264 55.5053L70.7343 53.8992C70.7253 52.2412 70.4689 50.5938 69.9735 49.0115L103.323 36.6307C105.292 42.2101 106.294 48.0844 106.288 54.0011C106.288 54.5126 106.28 55.014 106.264 55.5053ZM75.3424 101.74L61.6677 68.8809C62.1553 68.6295 62.63 68.3521 63.0895 68.0551L83.0891 97.4443C80.6334 99.0934 78.0418 100.531 75.3424 101.74ZM62.8078 66.1456C61.9896 66.7378 61.1138 67.2461 60.1938 67.6628C57.7791 68.7554 55.118 69.1882 52.4815 68.9171C49.8451 68.646 47.3277 67.6807 45.186 66.1195C43.0377 64.5526 41.343 62.4443 40.2744 60.0094C39.4411 58.1191 39.0121 56.0755 39.0151 54.0097C39.0165 50.4965 40.2524 47.0956 42.507 44.4012C43.3543 43.3873 44.3316 42.4894 45.4136 41.7308C48.555 39.5314 52.4201 38.6201 56.2132 39.1846C60.0062 39.7491 63.4385 41.7464 65.8032 44.7653C67.8744 47.4004 68.9983 50.6559 68.9938 54.0076C68.9938 54.2655 68.9938 54.4779 68.9765 54.686C68.8817 56.9382 68.2773 59.1396 67.2088 61.1246C66.1404 63.1095 64.6356 64.8262 62.8078 66.1456ZM95.537 22.2602C98.5237 26.1502 100.945 30.4432 102.729 35.0116L69.3601 47.3858C68.9025 46.3311 68.3382 45.3259 67.676 44.386L95.537 22.2602ZM94.4533 20.9012L66.6139 43.0227C64.8432 40.9874 62.6052 39.4121 60.0919 38.4319L71.2112 4.63623C80.3114 7.80851 88.3558 13.438 94.4533 20.9012ZM69.5639 4.09219L58.4467 37.8857C56.2148 37.2701 53.8792 37.1256 51.5884 37.4615C49.2976 37.7973 47.1018 38.6061 45.1405 39.8364L24.5427 10.8374C31.054 6.39408 38.4853 3.47951 46.2812 2.31149C54.0771 1.14347 62.0362 1.7522 69.5639 4.09219ZM23.1317 11.8453L43.7229 40.8313C43.0184 41.3813 42.3595 41.9873 41.7527 42.6434L14.2492 20.0948C16.8818 17.0115 19.8625 14.2432 23.1317 11.8453ZM13.1417 21.43L40.6386 43.972C38.462 46.8661 37.2838 50.3885 37.2811 54.0097C37.2812 56.0223 37.6485 58.018 38.3649 59.8988L5.70713 73.9876C2.13999 65.3614 0.9482 55.9373 2.25561 46.6947C3.56302 37.4521 7.32192 28.7284 13.1417 21.43ZM6.38556 75.5807L39.052 61.4919C40.1177 63.6206 41.6251 65.4975 43.4737 66.9974L22.295 95.5564C15.4292 90.3081 9.9645 83.4467 6.38556 75.5807ZM23.6887 96.5859L44.8674 68.0139C47.0946 69.4688 49.6367 70.3713 52.2827 70.6465C54.9287 70.9217 57.6021 70.5616 60.081 69.5962L73.7363 102.423C65.5751 105.749 56.7054 106.959 47.9516 105.938C39.1978 104.918 30.8442 101.701 23.667 96.5859H23.6887ZM84.5109 96.4537L64.4941 67.0364C66.2345 65.6463 67.6775 63.9201 68.7369 61.9606C69.7963 60.0012 70.4505 57.8486 70.6606 55.631L106.188 57.2371C105.228 72.9927 97.3772 87.1985 84.5109 96.4537ZM65.4369 53.6781V53.5567C65.4369 53.5285 65.4369 53.5004 65.4369 53.47V53.3486C65.4369 53.2771 65.4369 53.2056 65.4218 53.1319L65.4023 52.9151C65.4023 52.8436 65.3871 52.7742 65.3806 52.6984C65.3741 52.6225 65.3611 52.5467 65.3502 52.4708C65.3394 52.3949 65.3329 52.3342 65.3221 52.2649C65.3112 52.1955 65.2982 52.1132 65.283 52.0373C65.2679 51.9614 65.2592 51.9029 65.2462 51.8357C65.2332 51.7685 65.2159 51.684 65.2007 51.619C65.1855 51.5539 65.1725 51.4868 65.1573 51.4196C65.1422 51.3524 65.1205 51.27 65.101 51.2028C65.0815 51.1356 65.0685 51.0728 65.0511 51.0077L64.9861 50.791C64.9666 50.7281 64.9492 50.6653 64.9297 50.6024C64.9102 50.5396 64.8799 50.4529 64.856 50.3857C64.8322 50.3185 64.8149 50.2621 64.791 50.2014C64.7672 50.1407 64.7368 50.0519 64.7108 49.9847L64.6393 49.8026C64.6111 49.7311 64.5808 49.6574 64.5504 49.5859C64.5201 49.5143 64.5006 49.4666 64.4746 49.4081L64.3749 49.1914C64.3467 49.1328 64.3207 49.0743 64.2925 49.018L64.1863 48.8012C64.1559 48.7449 64.1278 48.6885 64.0974 48.6343C64.0671 48.5801 64.0216 48.4934 63.9825 48.4176L63.8893 48.255L63.7658 48.0491C63.7333 47.9971 63.7008 47.9429 63.6661 47.8909C63.6314 47.8388 63.5794 47.7565 63.5339 47.6893C63.4884 47.6221 63.4667 47.5874 63.4298 47.5354L63.2911 47.3403C63.2543 47.2883 63.2196 47.2385 63.1806 47.1886L63.0353 46.9979L62.9205 46.8526L62.7644 46.6662C62.7254 46.6185 62.6864 46.5709 62.6452 46.5253C62.604 46.4798 62.539 46.4061 62.4848 46.3454L62.3591 46.2089L62.19 46.0355L62.06 45.9011C62.0036 45.8447 61.9451 45.7906 61.8866 45.7364L61.75 45.6063L61.5701 45.4459L61.4271 45.3224L61.2428 45.1707L61.0954 45.0493L60.9047 44.9041L60.7508 44.7913L60.5514 44.6505L60.3975 44.5421L60.1916 44.4099L60.0312 44.308C59.9618 44.2646 59.8925 44.2256 59.8144 44.1844C59.7364 44.1433 59.7061 44.1172 59.6497 44.0869L59.433 43.9677L59.2661 43.8788L59.0363 43.7661L58.8716 43.6859C58.7914 43.6469 58.709 43.6122 58.6267 43.5754L58.4684 43.506C58.3817 43.4692 58.2907 43.4345 58.2018 43.3998L58.0566 43.3413C57.9179 43.2871 57.777 43.2372 57.6361 43.1917L57.4952 43.1484L57.1961 43.0552L56.9794 42.9988C56.9035 42.9771 56.8276 42.9555 56.7518 42.9381L56.5112 42.8839L56.2944 42.8363L56.0647 42.7951C55.991 42.7821 55.9173 42.7669 55.8479 42.7561L55.6073 42.7214L55.3906 42.691C55.2887 42.678 55.1847 42.6694 55.0828 42.6607L54.9354 42.6455C54.8335 42.6455 54.7317 42.6325 54.6298 42.626H54.4759C54.322 42.626 54.1681 42.626 54.0142 42.626C52.3509 42.6283 50.7079 42.9927 49.1995 43.6937C47.6911 44.3948 46.3534 45.4158 45.2792 46.6857C43.5417 48.7486 42.5877 51.3582 42.585 54.0552C42.5814 55.6399 42.9107 57.2076 43.5517 58.6568C44.3729 60.5193 45.6754 62.1293 47.3253 63.3213C48.9807 64.5191 50.9269 65.2515 52.9614 65.4421C54.9958 65.6327 57.0441 65.2746 58.8932 64.4051C59.4167 64.1548 59.9203 63.8649 60.3997 63.5381C60.5579 63.4319 60.7118 63.3213 60.8635 63.2064C62.283 62.1392 63.4357 60.7574 64.2311 59.1696C65.0265 57.5818 65.443 55.8312 65.4478 54.0552C65.4413 53.8992 65.4391 53.7886 65.4369 53.6781ZM63.7029 54.1463C63.7029 54.2481 63.7029 54.3479 63.6921 54.4476C63.6813 54.5473 63.6921 54.634 63.6791 54.725C63.6661 54.816 63.6596 54.9157 63.6509 55.0111C63.6422 55.1065 63.6336 55.191 63.6227 55.2799C63.6119 55.3687 63.5946 55.4706 63.5794 55.5638C63.5642 55.657 63.5534 55.7416 63.536 55.8283C63.5187 55.915 63.497 56.0147 63.4753 56.1079C63.4537 56.2011 63.4407 56.2813 63.419 56.3658C63.3973 56.4503 63.3691 56.5479 63.3431 56.6389C63.3171 56.7299 63.2976 56.8101 63.2716 56.8947C63.2456 56.9792 63.2131 57.0724 63.1827 57.1613C63.1524 57.2501 63.1264 57.3303 63.096 57.4127C63.0657 57.4951 63.0267 57.5839 62.992 57.6706C62.9573 57.7573 62.927 57.8375 62.8901 57.9177C62.8533 57.9979 62.8143 58.0825 62.7752 58.1648C62.7362 58.2472 62.6972 58.3295 62.656 58.4119C62.6149 58.4943 62.5715 58.568 62.5282 58.646C62.4848 58.724 62.4414 58.8107 62.3959 58.8909C62.3504 58.9711 62.3027 59.0405 62.255 59.1077C62.2074 59.1749 62.1575 59.2681 62.1055 59.3483C62.0535 59.4285 62.0058 59.4913 61.9559 59.565C61.9061 59.6387 61.8476 59.7211 61.7912 59.7969C61.7348 59.8728 61.6828 59.9357 61.6265 60.0137C61.5701 60.0917 61.5116 60.1654 61.4487 60.2304C61.3859 60.2955 61.3317 60.3605 61.2732 60.4277C61.2146 60.4949 61.1474 60.5729 61.0803 60.6444C61.0131 60.716 60.9567 60.7702 60.8939 60.8308C60.831 60.8915 60.7595 60.9717 60.6879 61.0476L60.4842 61.2297C60.4127 61.2925 60.3433 61.3575 60.2674 61.4204C60.1916 61.4833 60.1201 61.5375 60.0507 61.5981C59.9813 61.6588 59.9033 61.7195 59.8339 61.778C59.7277 61.8582 59.6172 61.9341 59.5088 62.01L59.4395 62.0598L59.2227 62.1985L59.0298 62.3221L58.9063 62.3914C58.6657 62.5323 58.4186 62.6646 58.165 62.7838C56.5948 63.5252 54.8544 63.8317 53.1254 63.6712C51.3964 63.5107 49.7422 62.8891 48.3354 61.8713C46.9345 60.8594 45.8287 59.4925 45.1318 57.9112C44.5881 56.6826 44.3089 55.3533 44.3125 54.0097C44.3157 51.7209 45.1262 49.5065 46.6014 47.7565C47.1529 47.1076 47.786 46.5328 48.4849 46.0463C50.1063 44.9144 52.0368 44.3089 54.0142 44.3123C54.1443 44.3123 54.2765 44.3123 54.4065 44.3123C54.5366 44.3123 54.697 44.3275 54.84 44.3383C55.6027 44.4032 56.355 44.5582 57.0812 44.8C59.0124 45.4433 60.6919 46.6783 61.8816 48.3298C63.0714 49.9814 63.7109 51.9656 63.7094 54.0011C63.7073 54.0552 63.7073 54.1008 63.7051 54.1463H63.7029Z" fill="black"/>
</g>
</g>
</g>
</g>
</g>
<defs>
<filter id="filter0_d_105_2" x="-614" y="-349" width="666" height="501" filterUnits="userSpaceOnUse" color-interpolation-filters="sRGB">
<feFlood flood-opacity="0" result="BackgroundImageFix"/>
<feColorMatrix in="SourceAlpha" type="matrix" values="0 0 0 0 0 0 0 0 0 0 0 0 0 0 0 0 0 0 127 0" result="hardAlpha"/>
<feOffset dx="10" dy="12"/>
<feComposite in2="hardAlpha" operator="out"/>
<feColorMatrix type="matrix" values="0 0 0 0 1 0 0 0 0 0.807843 0 0 0 0 0 0 0 0 1 0"/>
<feBlend mode="normal" in2="BackgroundImageFix" result="effect1_dropShadow_105_2"/>
<feBlend mode="normal" in="SourceGraphic" in2="effect1_dropShadow_105_2" result="shape"/>
</filter>
<filter id="filter1_d_105_2" x="42" y="-349" width="545" height="501" filterUnits="userSpaceOnUse" color-interpolation-filters="sRGB">
<feFlood flood-opacity="0" result="BackgroundImageFix"/>
<feColorMatrix in="SourceAlpha" type="matrix" values="0 0 0 0 0 0 0 0 0 0 0 0 0 0 0 0 0 0 127 0" result="hardAlpha"/>
<feOffset dx="10" dy="12"/>
<feComposite in2="hardAlpha" operator="out"/>
<feColorMatrix type="matrix" values="0 0 0 0 0.992157 0 0 0 0 0.745098 0 0 0 0 0.192157 0 0 0 1 0"/>
<feBlend mode="normal" in2="BackgroundImageFix" result="effect1_dropShadow_105_2"/>
<feBlend mode="normal" in="SourceGraphic" in2="effect1_dropShadow_105_2" result="shape"/>
</filter>
<clipPath id="clip0_105_2">
<rect width="1440" height="21763" fill="white" transform="translate(-743 -15850)"/>
</clipPath>
</defs>
</svg>
