<svg width="393" height="73" viewBox="0 0 393 73" fill="none" xmlns="http://www.w3.org/2000/svg">
<path d="M17.6819 44.7383H14.7344V47.6858H17.6819V44.7383Z" fill="#D9D9D9"/>
<path d="M17.6819 35.8945H14.7344V38.8421H17.6819V35.8945Z" fill="#D9D9D9"/>
<path d="M17.6819 41.7891H14.7344V44.7366H17.6819V41.7891Z" fill="#D9D9D9"/>
<path d="M17.6819 50.6309H14.7344V53.5784H17.6819V50.6309Z" fill="#D9D9D9"/>
<path d="M17.6819 38.8438H14.7344V41.7913H17.6819V38.8438Z" fill="#D9D9D9"/>
<path d="M17.6819 47.6855H14.7344V50.6331H17.6819V47.6855Z" fill="#D9D9D9"/>
<path d="M17.6839 59.4746H14.7363V62.4222H17.6839V59.4746Z" fill="#FFF7C7"/>
<path d="M17.6819 56.5273H14.7344V59.4749H17.6819V56.5273Z" fill="#FFF7C7"/>
<path d="M17.6819 53.5801H14.7344V56.5276H17.6819V53.5801Z" fill="#D9D9D9"/>
<path d="M17.6819 18.2109H14.7344V21.1585H17.6819V18.2109Z" fill="white"/>
<path d="M17.6819 6.42188H14.7344V9.36944H17.6819V6.42188Z" fill="white"/>
<path d="M17.6819 15.2637H14.7344V18.2112H17.6819V15.2637Z" fill="white"/>
<path d="M17.6819 9.36914H14.7344V12.3167H17.6819V9.36914Z" fill="white"/>
<path d="M17.6819 24.1055H14.7344V27.053H17.6819V24.1055Z" fill="white"/>
<path d="M17.6819 27.0527H14.7344V30.0003H17.6819V27.0527Z" fill="white"/>
<path d="M17.6819 30.002H14.7344V32.9495H17.6819V30.002Z" fill="#D9D9D9"/>
<path d="M17.6819 21.1602H14.7344V24.1077H17.6819V21.1602Z" fill="white"/>
<path d="M17.6839 32.9473H14.7363V35.8948H17.6839V32.9473Z" fill="#D9D9D9"/>
<path d="M17.6819 12.3164H14.7344V15.264H17.6819V12.3164Z" fill="white"/>
<path d="M103.157 38.8438H100.209V41.7913H103.157V38.8438Z" fill="white"/>
<path d="M103.157 47.6855H100.209V50.6331H103.157V47.6855Z" fill="#FFF7C7"/>
<path d="M103.157 44.7383H100.209V47.6858H103.157V44.7383Z" fill="white"/>
<path d="M103.157 41.7891H100.209V44.7366H103.157V41.7891Z" fill="white"/>
<path d="M103.157 50.6309H100.209V53.5784H103.157V50.6309Z" fill="#FFF7C7"/>
<path d="M103.157 53.5801H100.209V56.5276H103.157V53.5801Z" fill="#FFF7C7"/>
<path d="M106.106 47.6855H103.158V50.6331H106.106V47.6855Z" fill="#FFF7C7"/>
<path d="M106.106 53.5801H103.158V56.5276H106.106V53.5801Z" fill="#FFF7C7"/>
<path d="M106.106 50.6309H103.158V53.5784H106.106V50.6309Z" fill="#FFF7C7"/>
<path d="M106.106 44.7383H103.158V47.6858H106.106V44.7383Z" fill="white"/>
<path d="M20.6312 56.5273H17.6836V59.4749H20.6312V56.5273Z" fill="#D9D9D9"/>
<path d="M100.209 50.6309H97.2617V53.5784H100.209V50.6309Z" fill="#FFF7C7"/>
<path d="M100.209 56.5273H97.2617V59.4749H100.209V56.5273Z" fill="#FFF7C7"/>
<path d="M100.209 53.5801H97.2617V56.5276H100.209V53.5801Z" fill="#FFF7C7"/>
<path d="M100.209 47.6855H97.2617V50.6331H100.209V47.6855Z" fill="white"/>
<path d="M100.209 41.7891H97.2617V44.7366H100.209V41.7891Z" fill="white"/>
<path d="M100.209 38.8438H97.2617V41.7913H100.209V38.8438Z" fill="white"/>
<path d="M100.209 44.7383H97.2617V47.6858H100.209V44.7383Z" fill="white"/>
<path d="M23.5784 44.7383H20.6309V47.6858H23.5784V44.7383Z" fill="#D9D9D9"/>
<path d="M23.5784 38.8438H20.6309V41.7913H23.5784V38.8438Z" fill="#D9D9D9"/>
<path d="M23.5784 41.7891H20.6309V44.7366H23.5784V41.7891Z" fill="#D9D9D9"/>
<path d="M23.5784 35.8945H20.6309V38.8421H23.5784V35.8945Z" fill="#D9D9D9"/>
<path d="M23.5784 30.002H20.6309V32.9495H23.5784V30.002Z" fill="#D9D9D9"/>
<path d="M23.5784 32.9473H20.6309V35.8948H23.5784V32.9473Z" fill="#D9D9D9"/>
<path d="M23.5784 56.5273H20.6309V59.4749H23.5784V56.5273Z" fill="#D9D9D9"/>
<path d="M23.5784 53.5801H20.6309V56.5276H23.5784V53.5801Z" fill="#D9D9D9"/>
<path d="M23.5784 50.6309H20.6309V53.5784H23.5784V50.6309Z" fill="#D9D9D9"/>
<path d="M23.5784 47.6855H20.6309V50.6331H23.5784V47.6855Z" fill="#D9D9D9"/>
<path d="M23.5784 24.1055H20.6309V27.053H23.5784V24.1055Z" fill="white"/>
<path d="M23.5784 9.36914H20.6309V12.3167H23.5784V9.36914Z" fill="white"/>
<path d="M23.5784 3.47461H20.6309V6.42218H23.5784V3.47461Z" fill="white"/>
<path d="M23.5784 12.3164H20.6309V15.264H23.5784V12.3164Z" fill="white"/>
<path d="M23.5784 15.2637H20.6309V18.2112H23.5784V15.2637Z" fill="white"/>
<path d="M23.5784 27.0527H20.6309V30.0003H23.5784V27.0527Z" fill="white"/>
<path d="M23.5784 59.4746H20.6309V62.4222H23.5784V59.4746Z" fill="#FFF7C7"/>
<path d="M23.5784 21.1582H20.6309V24.1058H23.5784V21.1582Z" fill="white"/>
<path d="M23.5784 18.2109H20.6309V21.1585H23.5784V18.2109Z" fill="white"/>
<path d="M23.5784 6.42188H20.6309V9.36944H23.5784V6.42188Z" fill="white"/>
<path d="M23.5784 62.4219H20.6309V65.3694H23.5784V62.4219Z" fill="#FFF7C7"/>
<path d="M20.6312 59.4746H17.6836V62.4222H20.6312V59.4746Z" fill="#FFF7C7"/>
<path d="M20.6312 44.7383H17.6836V47.6858H20.6312V44.7383Z" fill="#D9D9D9"/>
<path d="M20.6312 50.6309H17.6836V53.5784H20.6312V50.6309Z" fill="#D9D9D9"/>
<path d="M20.6312 53.5801H17.6836V56.5276H20.6312V53.5801Z" fill="#D9D9D9"/>
<path d="M20.6312 47.6855H17.6836V50.6331H20.6312V47.6855Z" fill="#D9D9D9"/>
<path d="M20.6312 62.4219H17.6836V65.3694H20.6312V62.4219Z" fill="#FFF7C7"/>
<path d="M20.6312 21.1602H17.6836V24.1077H20.6312V21.1602Z" fill="white"/>
<path d="M20.6312 41.7891H17.6836V44.7366H20.6312V41.7891Z" fill="#D9D9D9"/>
<path d="M20.6312 24.1055H17.6836V27.053H20.6312V24.1055Z" fill="white"/>
<path d="M20.6312 27.0527H17.6836V30.0003H20.6312V27.0527Z" fill="white"/>
<path d="M20.6312 18.2109H17.6836V21.1585H20.6312V18.2109Z" fill="white"/>
<path d="M20.6312 35.8945H17.6836V38.8421H20.6312V35.8945Z" fill="#D9D9D9"/>
<path d="M20.6312 38.8438H17.6836V41.7913H20.6312V38.8438Z" fill="#D9D9D9"/>
<path d="M20.6312 15.2637H17.6836V18.2112H20.6312V15.2637Z" fill="white"/>
<path d="M20.6312 32.9473H17.6836V35.8948H20.6312V32.9473Z" fill="#D9D9D9"/>
<path d="M20.6312 30.002H17.6836V32.9495H20.6312V30.002Z" fill="#D9D9D9"/>
<path d="M20.6312 6.42188H17.6836V9.36944H20.6312V6.42188Z" fill="white"/>
<path d="M20.6312 12.3164H17.6836V15.264H20.6312V12.3164Z" fill="white"/>
<path d="M20.6312 9.36914H17.6836V12.3167H20.6312V9.36914Z" fill="white"/>
<path d="M20.6312 3.47461H17.6836V6.42218H20.6312V3.47461Z" fill="white"/>
<path d="M112 50.6309H109.053V53.5784H112V50.6309Z" fill="#FFF7C7"/>
<path d="M112 47.6855H109.053V50.6331H112V47.6855Z" fill="#FFF7C7"/>
<path d="M112 44.7383H109.053V47.6858H112V44.7383Z" fill="#FFF7C7"/>
<path d="M11.7894 44.7383H8.8418V47.6858H11.7894V44.7383Z" fill="#D9D9D9"/>
<path d="M11.7894 41.7891H8.8418V44.7366H11.7894V41.7891Z" fill="#D9D9D9"/>
<path d="M11.7894 38.8438H8.8418V41.7913H11.7894V38.8438Z" fill="#D9D9D9"/>
<path d="M11.7894 47.6855H8.8418V50.6331H11.7894V47.6855Z" fill="#D9D9D9"/>
<path d="M11.7894 56.5273H8.8418V59.4749H11.7894V56.5273Z" fill="#FFF7C7"/>
<path d="M11.7894 50.6309H8.8418V53.5784H11.7894V50.6309Z" fill="#D9D9D9"/>
<path d="M11.7894 59.4746H8.8418V62.4222H11.7894V59.4746Z" fill="#FFF7C7"/>
<path d="M11.7894 53.5801H8.8418V56.5276H11.7894V53.5801Z" fill="#FFF7C7"/>
<path d="M8.8421 27.0527H5.89453V30.0003H8.8421V27.0527Z" fill="white"/>
<path d="M8.8421 18.2109H5.89453V21.1585H8.8421V18.2109Z" fill="white"/>
<path d="M8.8421 21.1582H5.89453V24.1058H8.8421V21.1582Z" fill="white"/>
<path d="M8.8421 30.002H5.89453V32.9495H8.8421V30.002Z" fill="white"/>
<path d="M8.8421 38.8438H5.89453V41.7913H8.8421V38.8438Z" fill="#D9D9D9"/>
<path d="M8.8421 41.7891H5.89453V44.7366H8.8421V41.7891Z" fill="#D9D9D9"/>
<path d="M8.8421 35.8945H5.89453V38.8421H8.8421V35.8945Z" fill="#D9D9D9"/>
<path d="M8.8421 32.9473H5.89453V35.8948H8.8421V32.9473Z" fill="#D9D9D9"/>
<path d="M8.8421 44.7383H5.89453V47.6858H8.8421V44.7383Z" fill="#D9D9D9"/>
<path d="M11.7894 35.8945H8.8418V38.8421H11.7894V35.8945Z" fill="#D9D9D9"/>
<path d="M8.8421 56.5273H5.89453V59.4749H8.8421V56.5273Z" fill="#FFF7C7"/>
<path d="M8.8421 53.5801H5.89453V56.5276H8.8421V53.5801Z" fill="#FFF7C7"/>
<path d="M8.8421 47.6855H5.89453V50.6331H8.8421V47.6855Z" fill="#D9D9D9"/>
<path d="M8.8421 50.6309H5.89453V53.5784H8.8421V50.6309Z" fill="#FFF7C7"/>
<path d="M8.8421 24.1055H5.89453V27.053H8.8421V24.1055Z" fill="white"/>
<path d="M14.7386 59.4746H11.791V62.4222H14.7386V59.4746Z" fill="#FFF7C7"/>
<path d="M14.7366 38.8438H11.7891V41.7913H14.7366V38.8438Z" fill="#D9D9D9"/>
<path d="M14.7366 41.7891H11.7891V44.7366H14.7366V41.7891Z" fill="#D9D9D9"/>
<path d="M11.7894 32.9473H8.8418V35.8948H11.7894V32.9473Z" fill="#D9D9D9"/>
<path d="M14.7386 32.9473H11.791V35.8948H14.7386V32.9473Z" fill="#D9D9D9"/>
<path d="M14.7366 35.8945H11.7891V38.8421H14.7366V35.8945Z" fill="#D9D9D9"/>
<path d="M14.7366 56.5273H11.7891V59.4749H14.7366V56.5273Z" fill="#FFF7C7"/>
<path d="M14.7366 53.5801H11.7891V56.5276H14.7366V53.5801Z" fill="#D9D9D9"/>
<path d="M14.7366 50.6309H11.7891V53.5784H14.7366V50.6309Z" fill="#D9D9D9"/>
<path d="M14.7366 47.6855H11.7891V50.6331H14.7366V47.6855Z" fill="#D9D9D9"/>
<path d="M14.7366 44.7383H11.7891V47.6858H14.7366V44.7383Z" fill="#D9D9D9"/>
<path d="M14.7366 9.36914H11.7891V12.3167H14.7366V9.36914Z" fill="white"/>
<path d="M14.7366 12.3164H11.7891V15.264H14.7366V12.3164Z" fill="white"/>
<path d="M14.7366 30.002H11.7891V32.9495H14.7366V30.002Z" fill="#D9D9D9"/>
<path d="M14.7366 15.2637H11.7891V18.2112H14.7366V15.2637Z" fill="white"/>
<path d="M14.7366 18.2109H11.7891V21.1585H14.7366V18.2109Z" fill="white"/>
<path d="M14.7366 24.1055H11.7891V27.053H14.7366V24.1055Z" fill="white"/>
<path d="M14.7366 27.0527H11.7891V30.0003H14.7366V27.0527Z" fill="white"/>
<path d="M14.7366 21.1602H11.7891V24.1077H14.7366V21.1602Z" fill="#D9D9D9"/>
<path d="M11.7894 15.2637H8.8418V18.2112H11.7894V15.2637Z" fill="white"/>
<path d="M11.7894 18.2109H8.8418V21.1585H11.7894V18.2109Z" fill="white"/>
<path d="M11.7894 27.0527H8.8418V30.0003H11.7894V27.0527Z" fill="white"/>
<path d="M11.7894 30.002H8.8418V32.9495H11.7894V30.002Z" fill="#D9D9D9"/>
<path d="M11.7894 24.1055H8.8418V27.053H11.7894V24.1055Z" fill="white"/>
<path d="M11.7894 21.1582H8.8418V24.1058H11.7894V21.1582Z" fill="white"/>
<path d="M11.7894 12.3164H8.8418V15.264H11.7894V12.3164Z" fill="white"/>
<path d="M109.051 50.6309H106.104V53.5784H109.051V50.6309Z" fill="#FFF7C7"/>
<path d="M109.051 47.6855H106.104V50.6331H109.051V47.6855Z" fill="#FFF7C7"/>
<path d="M109.051 44.7383H106.104V47.6858H109.051V44.7383Z" fill="#FFF7C7"/>
<path d="M109.051 53.5801H106.104V56.5276H109.051V53.5801Z" fill="#FFF7C7"/>
<path d="M82.5257 38.8438H79.5781V41.7913H82.5257V38.8438Z" fill="#D9D9D9"/>
<path d="M82.5257 41.7891H79.5781V44.7366H82.5257V41.7891Z" fill="#D9D9D9"/>
<path d="M82.5257 47.6855H79.5781V50.6331H82.5257V47.6855Z" fill="#D9D9D9"/>
<path d="M82.5257 50.6309H79.5781V53.5784H82.5257V50.6309Z" fill="#D9D9D9"/>
<path d="M82.5257 30.002H79.5781V32.9495H82.5257V30.002Z" fill="#FFF7C7"/>
<path d="M82.5257 53.5801H79.5781V56.5276H82.5257V53.5801Z" fill="#D9D9D9"/>
<path d="M82.5257 32.9473H79.5781V35.8948H82.5257V32.9473Z" fill="white"/>
<path d="M82.5257 35.8945H79.5781V38.8421H82.5257V35.8945Z" fill="white"/>
<path d="M82.5257 44.7383H79.5781V47.6858H82.5257V44.7383Z" fill="#D9D9D9"/>
<path d="M70.7366 59.4746H67.7891V62.4222H70.7366V59.4746Z" fill="#FFF7C7"/>
<path d="M58.9476 59.4746H56V62.4222H58.9476V59.4746Z" fill="#FFF7C7"/>
<path d="M67.7894 59.4746H64.8418V62.4222H67.7894V59.4746Z" fill="#FFF7C7"/>
<path d="M61.8948 59.4746H58.9473V62.4222H61.8948V59.4746Z" fill="#FFF7C7"/>
<path d="M79.5784 59.4746H76.6309V62.4222H79.5784V59.4746Z" fill="#FFF7C7"/>
<path d="M82.5257 56.5273H79.5781V59.4749H82.5257V56.5273Z" fill="#D9D9D9"/>
<path d="M82.5257 59.4746H79.5781V62.4222H82.5257V59.4746Z" fill="#FFF7C7"/>
<path d="M64.8421 59.4746H61.8945V62.4222H64.8421V59.4746Z" fill="#FFF7C7"/>
<path d="M53.0511 15.2637H50.1035V18.2112H53.0511V15.2637Z" fill="#FFF7C7"/>
<path d="M47.1585 15.2637H44.2109V18.2112H47.1585V15.2637Z" fill="white"/>
<path d="M56.0003 15.2637H53.0527V18.2112H56.0003V15.2637Z" fill="#FFF7C7"/>
<path d="M44.2132 15.2637H41.2656V18.2112H44.2132V15.2637Z" fill="white"/>
<path d="M38.3148 15.2637H35.3672V18.2112H38.3148V15.2637Z" fill="white"/>
<path d="M38.3148 18.2109H35.3672V21.1585H38.3148V18.2109Z" fill="white"/>
<path d="M58.9476 15.2637H56V18.2112H58.9476V15.2637Z" fill="#FFF7C7"/>
<path d="M41.264 15.2637H38.3164V18.2112H41.264V15.2637Z" fill="white"/>
<path d="M38.3148 21.1582H35.3672V24.1058H38.3148V21.1582Z" fill="white"/>
<path d="M50.1058 15.2637H47.1582V18.2112H50.1058V15.2637Z" fill="white"/>
<path d="M58.9476 18.2109H56V21.1585H58.9476V18.2109Z" fill="#FFF7C7"/>
<path d="M56.0003 59.4746H53.0527V62.4222H56.0003V59.4746Z" fill="#FFF7C7"/>
<path d="M53.0511 18.2109H50.1035V21.1585H53.0511V18.2109Z" fill="white"/>
<path d="M50.1058 18.2109H47.1582V21.1585H50.1058V18.2109Z" fill="white"/>
<path d="M47.1585 18.2109H44.2109V21.1585H47.1585V18.2109Z" fill="white"/>
<path d="M79.5784 24.1055H76.6309V27.053H79.5784V24.1055Z" fill="#FFF7C7"/>
<path d="M79.5784 32.9473H76.6309V35.8948H79.5784V32.9473Z" fill="white"/>
<path d="M79.5784 35.8945H76.6309V38.8421H79.5784V35.8945Z" fill="white"/>
<path d="M79.5784 38.8438H76.6309V41.7913H79.5784V38.8438Z" fill="white"/>
<path d="M79.5784 30.002H76.6309V32.9495H79.5784V30.002Z" fill="white"/>
<path d="M44.2132 18.2109H41.2656V21.1585H44.2132V18.2109Z" fill="white"/>
<path d="M79.5784 27.0527H76.6309V30.0003H79.5784V27.0527Z" fill="#FFF7C7"/>
<path d="M41.264 53.5801H38.3164V56.5276H41.264V53.5801Z" fill="#D9D9D9"/>
<path d="M41.264 56.5273H38.3164V59.4749H41.264V56.5273Z" fill="#FFF7C7"/>
<path d="M41.264 50.6309H38.3164V53.5784H41.264V50.6309Z" fill="#D9D9D9"/>
<path d="M41.264 47.6855H38.3164V50.6331H41.264V47.6855Z" fill="#D9D9D9"/>
<path d="M41.264 59.4746H38.3164V62.4222H41.264V59.4746Z" fill="#FFF7C7"/>
<path d="M79.5784 41.7891H76.6309V44.7366H79.5784V41.7891Z" fill="#D9D9D9"/>
<path d="M41.264 18.2109H38.3164V21.1585H41.264V18.2109Z" fill="white"/>
<path d="M47.1585 59.4746H44.2109V62.4222H47.1585V59.4746Z" fill="#FFF7C7"/>
<path d="M44.2132 59.4746H41.2656V62.4222H44.2132V59.4746Z" fill="#FFF7C7"/>
<path d="M50.1058 59.4746H47.1582V62.4222H50.1058V59.4746Z" fill="#FFF7C7"/>
<path d="M41.264 30.002H38.3164V32.9495H41.264V30.002Z" fill="white"/>
<path d="M41.264 24.1055H38.3164V27.053H41.264V24.1055Z" fill="white"/>
<path d="M41.264 27.0527H38.3164V30.0003H41.264V27.0527Z" fill="white"/>
<path d="M41.264 21.1582H38.3164V24.1058H41.264V21.1582Z" fill="white"/>
<path d="M41.264 32.9473H38.3164V35.8948H41.264V32.9473Z" fill="white"/>
<path d="M41.264 44.7383H38.3164V47.6858H41.264V44.7383Z" fill="#D9D9D9"/>
<path d="M41.264 41.7891H38.3164V44.7366H41.264V41.7891Z" fill="#D9D9D9"/>
<path d="M41.264 38.8438H38.3164V41.7913H41.264V38.8438Z" fill="#D9D9D9"/>
<path d="M41.264 35.8945H38.3164V38.8421H41.264V35.8945Z" fill="white"/>
<path d="M53.0511 59.4746H50.1035V62.4222H53.0511V59.4746Z" fill="#FFF7C7"/>
<path d="M41.264 12.3164H38.3164V15.264H41.264V12.3164Z" fill="white"/>
<path d="M50.1058 12.3164H47.1582V15.264H50.1058V12.3164Z" fill="white"/>
<path d="M56.0003 12.3164H53.0527V15.264H56.0003V12.3164Z" fill="#FFF7C7"/>
<path d="M47.1585 12.3164H44.2109V15.264H47.1585V12.3164Z" fill="white"/>
<path d="M53.0511 12.3164H50.1035V15.264H53.0511V12.3164Z" fill="#FFF7C7"/>
<path d="M35.3675 47.6855H32.4199V50.6331H35.3675V47.6855Z" fill="#D9D9D9"/>
<path d="M35.3675 50.6309H32.4199V53.5784H35.3675V50.6309Z" fill="#D9D9D9"/>
<path d="M35.3675 44.7383H32.4199V47.6858H35.3675V44.7383Z" fill="#D9D9D9"/>
<path d="M35.3675 41.7891H32.4199V44.7366H35.3675V41.7891Z" fill="#D9D9D9"/>
<path d="M35.3675 62.4219H32.4199V65.3694H35.3675V62.4219Z" fill="#FFF7C7"/>
<path d="M38.3148 12.3164H35.3672V15.264H38.3148V12.3164Z" fill="white"/>
<path d="M35.3675 59.4746H32.4199V62.4222H35.3675V59.4746Z" fill="#FFF7C7"/>
<path d="M35.3675 38.8438H32.4199V41.7913H35.3675V38.8438Z" fill="#D9D9D9"/>
<path d="M35.3675 56.5273H32.4199V59.4749H35.3675V56.5273Z" fill="#FFF7C7"/>
<path d="M35.3675 53.5801H32.4199V56.5276H35.3675V53.5801Z" fill="#D9D9D9"/>
<path d="M35.3675 15.2637H32.4199V18.2112H35.3675V15.2637Z" fill="white"/>
<path d="M35.3675 18.2109H32.4199V21.1585H35.3675V18.2109Z" fill="white"/>
<path d="M35.3675 35.8945H32.4199V38.8421H35.3675V35.8945Z" fill="#D9D9D9"/>
<path d="M35.3675 12.3164H32.4199V15.264H35.3675V12.3164Z" fill="white"/>
<path d="M35.3675 21.1602H32.4199V24.1077H35.3675V21.1602Z" fill="white"/>
<path d="M35.3675 32.9473H32.4199V35.8948H35.3675V32.9473Z" fill="white"/>
<path d="M35.3675 24.1055H32.4199V27.053H35.3675V24.1055Z" fill="white"/>
<path d="M35.3675 30.002H32.4199V32.9495H35.3675V30.002Z" fill="white"/>
<path d="M35.3675 27.0527H32.4199V30.0003H35.3675V27.0527Z" fill="white"/>
<path d="M85.473 44.7383H82.5254V47.6858H85.473V44.7383Z" fill="#D9D9D9"/>
<path d="M38.3148 62.4219H35.3672V65.3694H38.3148V62.4219Z" fill="#FFF7C7"/>
<path d="M38.3148 59.4746H35.3672V62.4222H38.3148V59.4746Z" fill="#FFF7C7"/>
<path d="M38.3148 56.5273H35.3672V59.4749H38.3148V56.5273Z" fill="#FFF7C7"/>
<path d="M38.3148 53.5801H35.3672V56.5276H38.3148V53.5801Z" fill="#D9D9D9"/>
<path d="M38.3148 38.8438H35.3672V41.7913H38.3148V38.8438Z" fill="#D9D9D9"/>
<path d="M38.3148 35.8945H35.3672V38.8421H38.3148V35.8945Z" fill="#D9D9D9"/>
<path d="M38.3148 30.002H35.3672V32.9495H38.3148V30.002Z" fill="white"/>
<path d="M38.3148 32.9473H35.3672V35.8948H38.3148V32.9473Z" fill="white"/>
<path d="M38.3148 50.6309H35.3672V53.5784H38.3148V50.6309Z" fill="#D9D9D9"/>
<path d="M38.3148 27.0527H35.3672V30.0003H38.3148V27.0527Z" fill="white"/>
<path d="M38.3148 44.7383H35.3672V47.6858H38.3148V44.7383Z" fill="#D9D9D9"/>
<path d="M38.3148 47.6855H35.3672V50.6331H38.3148V47.6855Z" fill="#D9D9D9"/>
<path d="M38.3148 41.7891H35.3672V44.7366H38.3148V41.7891Z" fill="#D9D9D9"/>
<path d="M38.3148 24.1055H35.3672V27.053H38.3148V24.1055Z" fill="#D9D9D9"/>
<path d="M85.473 53.5801H82.5254V56.5276H85.473V53.5801Z" fill="#D9D9D9"/>
<path d="M85.473 50.6309H82.5254V53.5784H85.473V50.6309Z" fill="#D9D9D9"/>
<path d="M85.473 56.5273H82.5254V59.4749H85.473V56.5273Z" fill="#D9D9D9"/>
<path d="M85.473 47.6855H82.5254V50.6331H85.473V47.6855Z" fill="#D9D9D9"/>
<path d="M85.473 35.8945H82.5254V38.8421H85.473V35.8945Z" fill="white"/>
<path d="M85.473 32.9473H82.5254V35.8948H85.473V32.9473Z" fill="white"/>
<path d="M85.473 38.8438H82.5254V41.7913H85.473V38.8438Z" fill="#D9D9D9"/>
<path d="M85.473 41.7891H82.5254V44.7366H85.473V41.7891Z" fill="#D9D9D9"/>
<path d="M85.473 59.4746H82.5254V62.4222H85.473V59.4746Z" fill="#FFF7C7"/>
<path d="M56.0003 18.2109H53.0527V21.1585H56.0003V18.2109Z" fill="#FFF7C7"/>
<path d="M70.7366 27.0527H67.7891V30.0003H70.7366V27.0527Z" fill="white"/>
<path d="M56.0003 27.0527H53.0527V30.0003H56.0003V27.0527Z" fill="#FFF7C7"/>
<path d="M58.9476 27.0527H56V30.0003H58.9476V27.0527Z" fill="white"/>
<path d="M67.7894 27.0527H64.8418V30.0003H67.7894V27.0527Z" fill="white"/>
<path d="M64.8421 27.0527H61.8945V30.0003H64.8421V27.0527Z" fill="white"/>
<path d="M61.8948 27.0527H58.9473V30.0003H61.8948V27.0527Z" fill="white"/>
<path d="M53.0511 27.0527H50.1035V30.0003H53.0511V27.0527Z" fill="#FFF7C7"/>
<path d="M50.1058 30.002H47.1582V32.9495H50.1058V30.002Z" fill="#FFF7C7"/>
<path d="M50.1058 32.9473H47.1582V35.8948H50.1058V32.9473Z" fill="#FFF7C7"/>
<path d="M50.1058 27.0527H47.1582V30.0003H50.1058V27.0527Z" fill="#FFF7C7"/>
<path d="M50.1058 35.8945H47.1582V38.8421H50.1058V35.8945Z" fill="white"/>
<path d="M67.7894 47.6855H64.8418V50.6331H67.7894V47.6855Z" fill="#D9D9D9"/>
<path d="M73.6819 30.002H70.7344V32.9495H73.6819V30.002Z" fill="white"/>
<path d="M64.8421 47.6855H61.8945V50.6331H64.8421V47.6855Z" fill="#D9D9D9"/>
<path d="M70.7366 44.7383H67.7891V47.6858H70.7366V44.7383Z" fill="white"/>
<path d="M70.7366 35.8945H67.7891V38.8421H70.7366V35.8945Z" fill="white"/>
<path d="M70.7366 41.7891H67.7891V44.7366H70.7366V41.7891Z" fill="white"/>
<path d="M70.7366 30.002H67.7891V32.9495H70.7366V30.002Z" fill="white"/>
<path d="M70.7366 32.9473H67.7891V35.8948H70.7366V32.9473Z" fill="white"/>
<path d="M70.7366 38.8438H67.7891V41.7913H70.7366V38.8438Z" fill="white"/>
<path d="M50.1058 44.7383H47.1582V47.6858H50.1058V44.7383Z" fill="#D9D9D9"/>
<path d="M73.6819 47.6855H70.7344V50.6331H73.6819V47.6855Z" fill="#D9D9D9"/>
<path d="M73.6819 50.6309H70.7344V53.5784H73.6819V50.6309Z" fill="#D9D9D9"/>
<path d="M70.7366 50.6309H67.7891V53.5784H70.7366V50.6309Z" fill="#D9D9D9"/>
<path d="M73.6819 44.7383H70.7344V47.6858H73.6819V44.7383Z" fill="#D9D9D9"/>
<path d="M73.6819 38.8438H70.7344V41.7913H73.6819V38.8438Z" fill="white"/>
<path d="M73.6819 41.7891H70.7344V44.7366H73.6819V41.7891Z" fill="white"/>
<path d="M73.6819 32.9473H70.7344V35.8948H73.6819V32.9473Z" fill="white"/>
<path d="M73.6819 35.8945H70.7344V38.8421H73.6819V35.8945Z" fill="white"/>
<path d="M79.5784 44.7383H76.6309V47.6858H79.5784V44.7383Z" fill="#D9D9D9"/>
<path d="M50.1058 47.6855H47.1582V50.6331H50.1058V47.6855Z" fill="#D9D9D9"/>
<path d="M50.1058 38.8438H47.1582V41.7913H50.1058V38.8438Z" fill="white"/>
<path d="M50.1058 50.6309H47.1582V53.5784H50.1058V50.6309Z" fill="#D9D9D9"/>
<path d="M61.8948 47.6855H58.9473V50.6331H61.8948V47.6855Z" fill="#D9D9D9"/>
<path d="M64.8421 50.6309H61.8945V53.5784H64.8421V50.6309Z" fill="#D9D9D9"/>
<path d="M50.1058 41.7891H47.1582V44.7366H50.1058V41.7891Z" fill="white"/>
<path d="M58.9476 50.6309H56V53.5784H58.9476V50.6309Z" fill="#D9D9D9"/>
<path d="M53.0511 50.6309H50.1035V53.5784H53.0511V50.6309Z" fill="#D9D9D9"/>
<path d="M61.8948 50.6309H58.9473V53.5784H61.8948V50.6309Z" fill="#D9D9D9"/>
<path d="M56.0003 50.6309H53.0527V53.5784H56.0003V50.6309Z" fill="#D9D9D9"/>
<path d="M70.7366 47.6855H67.7891V50.6331H70.7366V47.6855Z" fill="#D9D9D9"/>
<path d="M56.0003 32.9473H53.0527V35.8948H56.0003V32.9473Z" fill="white"/>
<path d="M58.9476 32.9473H56V35.8948H58.9476V32.9473Z" fill="white"/>
<path d="M56.0003 35.8945H53.0527V38.8421H56.0003V35.8945Z" fill="white"/>
<path d="M61.8948 32.9473H58.9473V35.8948H61.8948V32.9473Z" fill="white"/>
<path d="M58.9476 44.7383H56V47.6858H58.9476V44.7383Z" fill="white"/>
<path d="M56.0003 44.7383H53.0527V47.6858H56.0003V44.7383Z" fill="white"/>
<path d="M64.8421 32.9473H61.8945V35.8948H64.8421V32.9473Z" fill="white"/>
<path d="M61.8948 44.7383H58.9473V47.6858H61.8948V44.7383Z" fill="white"/>
<path d="M56.0003 41.7891H53.0527V44.7366H56.0003V41.7891Z" fill="white"/>
<path d="M56.0003 38.8438H53.0527V41.7913H56.0003V38.8438Z" fill="white"/>
<path d="M58.9476 35.8945H56V38.8421H58.9476V35.8945Z" fill="white"/>
<path d="M64.8421 35.8945H61.8945V38.8421H64.8421V35.8945Z" fill="white"/>
<path d="M58.9476 38.8438H56V41.7913H58.9476V38.8438Z" fill="white"/>
<path d="M61.8948 38.8438H58.9473V41.7913H61.8948V38.8438Z" fill="white"/>
<path d="M61.8948 35.8945H58.9473V38.8421H61.8948V35.8945Z" fill="white"/>
<path d="M64.8421 41.7891H61.8945V44.7366H64.8421V41.7891Z" fill="white"/>
<path d="M58.9476 41.7891H56V44.7366H58.9476V41.7891Z" fill="white"/>
<path d="M64.8421 38.8438H61.8945V41.7913H64.8421V38.8438Z" fill="white"/>
<path d="M61.8948 41.7891H58.9473V44.7366H61.8948V41.7891Z" fill="white"/>
<path d="M53.0511 47.6855H50.1035V50.6331H53.0511V47.6855Z" fill="#D9D9D9"/>
<path d="M53.0511 32.9473H50.1035V35.8948H53.0511V32.9473Z" fill="#FFF7C7"/>
<path d="M53.0511 35.8945H50.1035V38.8421H53.0511V35.8945Z" fill="white"/>
<path d="M53.0511 30.002H50.1035V32.9495H53.0511V30.002Z" fill="#FFF7C7"/>
<path d="M56.0003 30.002H53.0527V32.9495H56.0003V30.002Z" fill="white"/>
<path d="M53.0511 38.8438H50.1035V41.7913H53.0511V38.8438Z" fill="white"/>
<path d="M53.0511 41.7891H50.1035V44.7366H53.0511V41.7891Z" fill="white"/>
<path d="M58.9476 47.6855H56V50.6331H58.9476V47.6855Z" fill="#D9D9D9"/>
<path d="M56.0003 47.6855H53.0527V50.6331H56.0003V47.6855Z" fill="#D9D9D9"/>
<path d="M53.0511 44.7383H50.1035V47.6858H53.0511V44.7383Z" fill="#D9D9D9"/>
<path d="M67.7894 38.8438H64.8418V41.7913H67.7894V38.8438Z" fill="white"/>
<path d="M64.8421 44.7383H61.8945V47.6858H64.8421V44.7383Z" fill="white"/>
<path d="M67.7894 41.7891H64.8418V44.7366H67.7894V41.7891Z" fill="white"/>
<path d="M67.7894 35.8945H64.8418V38.8421H67.7894V35.8945Z" fill="white"/>
<path d="M67.7894 44.7383H64.8418V47.6858H67.7894V44.7383Z" fill="white"/>
<path d="M61.8948 30.002H58.9473V32.9495H61.8948V30.002Z" fill="white"/>
<path d="M58.9476 30.002H56V32.9495H58.9476V30.002Z" fill="white"/>
<path d="M64.8421 30.002H61.8945V32.9495H64.8421V30.002Z" fill="white"/>
<path d="M67.7894 30.002H64.8418V32.9495H67.7894V30.002Z" fill="white"/>
<path d="M67.7894 32.9473H64.8418V35.8948H67.7894V32.9473Z" fill="#D9D9D9"/>
<path d="M67.7894 50.6309H64.8418V53.5784H67.7894V50.6309Z" fill="#D9D9D9"/>
<path d="M44.2132 24.1055H41.2656V27.053H44.2132V24.1055Z" fill="white"/>
<path d="M44.2132 30.002H41.2656V32.9495H44.2132V30.002Z" fill="white"/>
<path d="M44.2132 27.0527H41.2656V30.0003H44.2132V27.0527Z" fill="white"/>
<path d="M44.2132 21.1582H41.2656V24.1058H44.2132V21.1582Z" fill="white"/>
<path d="M47.1585 21.1582H44.2109V24.1058H47.1585V21.1582Z" fill="white"/>
<path d="M44.2132 32.9473H41.2656V35.8948H44.2132V32.9473Z" fill="white"/>
<path d="M50.1058 21.1582H47.1582V24.1058H50.1058V21.1582Z" fill="white"/>
<path d="M44.2132 41.7891H41.2656V44.7366H44.2132V41.7891Z" fill="#D9D9D9"/>
<path d="M44.2132 38.8438H41.2656V41.7913H44.2132V38.8438Z" fill="#D9D9D9"/>
<path d="M44.2132 35.8945H41.2656V38.8421H44.2132V35.8945Z" fill="white"/>
<path d="M53.0511 21.1582H50.1035V24.1058H53.0511V21.1582Z" fill="white"/>
<path d="M67.7894 21.1582H64.8418V24.1058H67.7894V21.1582Z" fill="#FFF7C7"/>
<path d="M70.7366 21.1582H67.7891V24.1058H70.7366V21.1582Z" fill="#FFF7C7"/>
<path d="M73.6819 21.1602H70.7344V24.1077H73.6819V21.1602Z" fill="#FFF7C7"/>
<path d="M58.9476 21.1582H56V24.1058H58.9476V21.1582Z" fill="#FFF7C7"/>
<path d="M56.0003 21.1582H53.0527V24.1058H56.0003V21.1582Z" fill="#FFF7C7"/>
<path d="M44.2132 44.7383H41.2656V47.6858H44.2132V44.7383Z" fill="#D9D9D9"/>
<path d="M70.7366 56.5273H67.7891V59.4749H70.7366V56.5273Z" fill="#D9D9D9"/>
<path d="M76.6312 24.1055H73.6836V27.053H76.6312V24.1055Z" fill="#FFF7C7"/>
<path d="M76.6312 56.5273H73.6836V59.4749H76.6312V56.5273Z" fill="#D9D9D9"/>
<path d="M44.2132 47.6855H41.2656V50.6331H44.2132V47.6855Z" fill="#D9D9D9"/>
<path d="M67.7894 56.5273H64.8418V59.4749H67.7894V56.5273Z" fill="#D9D9D9"/>
<path d="M79.5784 50.6309H76.6309V53.5784H79.5784V50.6309Z" fill="#D9D9D9"/>
<path d="M64.8421 56.5273H61.8945V59.4749H64.8421V56.5273Z" fill="#D9D9D9"/>
<path d="M79.5784 47.6855H76.6309V50.6331H79.5784V47.6855Z" fill="#D9D9D9"/>
<path d="M79.5784 53.5801H76.6309V56.5276H79.5784V53.5801Z" fill="#D9D9D9"/>
<path d="M79.5784 56.5273H76.6309V59.4749H79.5784V56.5273Z" fill="#D9D9D9"/>
<path d="M73.6819 56.5273H70.7344V59.4749H73.6819V56.5273Z" fill="#D9D9D9"/>
<path d="M44.2132 53.5801H41.2656V56.5276H44.2132V53.5801Z" fill="#D9D9D9"/>
<path d="M44.2132 56.5273H41.2656V59.4749H44.2132V56.5273Z" fill="#FFF7C7"/>
<path d="M61.8948 56.5273H58.9473V59.4749H61.8948V56.5273Z" fill="#FFF7C7"/>
<path d="M47.1585 56.5273H44.2109V59.4749H47.1585V56.5273Z" fill="#FFF7C7"/>
<path d="M44.2132 50.6309H41.2656V53.5784H44.2132V50.6309Z" fill="#D9D9D9"/>
<path d="M58.9476 56.5273H56V59.4749H58.9476V56.5273Z" fill="#FFF7C7"/>
<path d="M56.0003 56.5273H53.0527V59.4749H56.0003V56.5273Z" fill="#FFF7C7"/>
<path d="M53.0511 56.5273H50.1035V59.4749H53.0511V56.5273Z" fill="#FFF7C7"/>
<path d="M50.1058 56.5273H47.1582V59.4749H50.1058V56.5273Z" fill="#FFF7C7"/>
<path d="M47.1585 32.9473H44.2109V35.8948H47.1585V32.9473Z" fill="white"/>
<path d="M47.1585 30.002H44.2109V32.9495H47.1585V30.002Z" fill="white"/>
<path d="M73.6819 27.0527H70.7344V30.0003H73.6819V27.0527Z" fill="white"/>
<path d="M47.1585 27.0527H44.2109V30.0003H47.1585V27.0527Z" fill="white"/>
<path d="M47.1585 35.8945H44.2109V38.8421H47.1585V35.8945Z" fill="white"/>
<path d="M47.1585 24.1055H44.2109V27.053H47.1585V24.1055Z" fill="white"/>
<path d="M76.6312 27.0527H73.6836V30.0003H76.6312V27.0527Z" fill="white"/>
<path d="M47.1585 44.7383H44.2109V47.6858H47.1585V44.7383Z" fill="#D9D9D9"/>
<path d="M47.1585 41.7891H44.2109V44.7366H47.1585V41.7891Z" fill="#D9D9D9"/>
<path d="M47.1585 38.8438H44.2109V41.7913H47.1585V38.8438Z" fill="white"/>
<path d="M73.6819 24.1055H70.7344V27.053H73.6819V24.1055Z" fill="#FFF7C7"/>
<path d="M50.1058 24.1055H47.1582V27.053H50.1058V24.1055Z" fill="white"/>
<path d="M64.8421 24.1055H61.8945V27.053H64.8421V24.1055Z" fill="#FFF7C7"/>
<path d="M70.7366 24.1055H67.7891V27.053H70.7366V24.1055Z" fill="#FFF7C7"/>
<path d="M47.1585 50.6309H44.2109V53.5784H47.1585V50.6309Z" fill="#D9D9D9"/>
<path d="M67.7894 24.1055H64.8418V27.053H67.7894V24.1055Z" fill="#FFF7C7"/>
<path d="M56.0003 24.1055H53.0527V27.053H56.0003V24.1055Z" fill="#FFF7C7"/>
<path d="M53.0511 24.1055H50.1035V27.053H53.0511V24.1055Z" fill="#FFF7C7"/>
<path d="M61.8948 24.1055H58.9473V27.053H61.8948V24.1055Z" fill="#FFF7C7"/>
<path d="M58.9476 24.1055H56V27.053H58.9476V24.1055Z" fill="#FFF7C7"/>
<path d="M47.1585 47.6855H44.2109V50.6331H47.1585V47.6855Z" fill="#D9D9D9"/>
<path d="M76.6312 41.7891H73.6836V44.7366H76.6312V41.7891Z" fill="#D9D9D9"/>
<path d="M76.6312 47.6855H73.6836V50.6331H76.6312V47.6855Z" fill="#D9D9D9"/>
<path d="M47.1585 53.5801H44.2109V56.5276H47.1585V53.5801Z" fill="#D9D9D9"/>
<path d="M76.6312 50.6309H73.6836V53.5784H76.6312V50.6309Z" fill="#D9D9D9"/>
<path d="M76.6312 38.8438H73.6836V41.7913H76.6312V38.8438Z" fill="white"/>
<path d="M76.6312 30.002H73.6836V32.9495H76.6312V30.002Z" fill="white"/>
<path d="M76.6312 53.5801H73.6836V56.5276H76.6312V53.5801Z" fill="#D9D9D9"/>
<path d="M76.6312 32.9473H73.6836V35.8948H76.6312V32.9473Z" fill="white"/>
<path d="M76.6312 35.8945H73.6836V38.8421H76.6312V35.8945Z" fill="white"/>
<path d="M76.6312 44.7383H73.6836V47.6858H76.6312V44.7383Z" fill="#D9D9D9"/>
<path d="M53.0511 53.5801H50.1035V56.5276H53.0511V53.5801Z" fill="#D9D9D9"/>
<path d="M56.0003 53.5801H53.0527V56.5276H56.0003V53.5801Z" fill="#D9D9D9"/>
<path d="M50.1058 53.5801H47.1582V56.5276H50.1058V53.5801Z" fill="#D9D9D9"/>
<path d="M58.9476 53.5801H56V56.5276H58.9476V53.5801Z" fill="#D9D9D9"/>
<path d="M64.8421 53.5801H61.8945V56.5276H64.8421V53.5801Z" fill="#D9D9D9"/>
<path d="M70.7366 53.5801H67.7891V56.5276H70.7366V53.5801Z" fill="#D9D9D9"/>
<path d="M61.8948 53.5801H58.9473V56.5276H61.8948V53.5801Z" fill="#D9D9D9"/>
<path d="M67.7894 53.5801H64.8418V56.5276H67.7894V53.5801Z" fill="#D9D9D9"/>
<path d="M73.6819 53.5801H70.7344V56.5276H73.6819V53.5801Z" fill="#D9D9D9"/>
<path d="M44.2132 3.47461H41.2656V6.42218H44.2132V3.47461Z" fill="#FFF7C7"/>
<path d="M41.264 3.47461H38.3164V6.42218H41.264V3.47461Z" fill="white"/>
<path d="M47.1585 3.47461H44.2109V6.42218H47.1585V3.47461Z" fill="#FFF7C7"/>
<path d="M38.3148 3.47461H35.3672V6.42218H38.3148V3.47461Z" fill="white"/>
<path d="M26.5257 24.1055H23.5781V27.053H26.5257V24.1055Z" fill="white"/>
<path d="M26.5257 35.8945H23.5781V38.8421H26.5257V35.8945Z" fill="#D9D9D9"/>
<path d="M26.5257 32.9473H23.5781V35.8948H26.5257V32.9473Z" fill="#D9D9D9"/>
<path d="M26.5257 50.6309H23.5781V53.5784H26.5257V50.6309Z" fill="#D9D9D9"/>
<path d="M26.5257 30.002H23.5781V32.9495H26.5257V30.002Z" fill="#D9D9D9"/>
<path d="M35.3675 3.47461H32.4199V6.42218H35.3675V3.47461Z" fill="white"/>
<path d="M26.5257 47.6855H23.5781V50.6331H26.5257V47.6855Z" fill="#D9D9D9"/>
<path d="M26.5257 44.7383H23.5781V47.6858H26.5257V44.7383Z" fill="#D9D9D9"/>
<path d="M26.5257 41.7891H23.5781V44.7366H26.5257V41.7891Z" fill="#D9D9D9"/>
<path d="M26.5257 38.8438H23.5781V41.7913H26.5257V38.8438Z" fill="#D9D9D9"/>
<path d="M29.473 3.47461H26.5254V6.42218H29.473V3.47461Z" fill="white"/>
<path d="M26.5257 6.42188H23.5781V9.36944H26.5257V6.42188Z" fill="white"/>
<path d="M26.5257 21.1582H23.5781V24.1058H26.5257V21.1582Z" fill="white"/>
<path d="M32.4222 3.47461H29.4746V6.42218H32.4222V3.47461Z" fill="white"/>
<path d="M26.5257 3.47461H23.5781V6.42218H26.5257V3.47461Z" fill="white"/>
<path d="M26.5257 18.2109H23.5781V21.1585H26.5257V18.2109Z" fill="white"/>
<path d="M26.5257 15.2637H23.5781V18.2112H26.5257V15.2637Z" fill="white"/>
<path d="M26.5257 12.3164H23.5781V15.264H26.5257V12.3164Z" fill="white"/>
<path d="M26.5257 9.36914H23.5781V12.3167H26.5257V9.36914Z" fill="white"/>
<path d="M26.5257 27.0527H23.5781V30.0003H26.5257V27.0527Z" fill="white"/>
<path d="M94.3148 35.8945H91.3672V38.8421H94.3148V35.8945Z" fill="white"/>
<path d="M94.3148 50.6309H91.3672V53.5784H94.3148V50.6309Z" fill="#D9D9D9"/>
<path d="M94.3148 53.5801H91.3672V56.5276H94.3148V53.5801Z" fill="#D9D9D9"/>
<path d="M94.3148 56.5273H91.3672V59.4749H94.3148V56.5273Z" fill="#FFF7C7"/>
<path d="M94.3148 38.8438H91.3672V41.7913H94.3148V38.8438Z" fill="white"/>
<path d="M94.3148 41.7891H91.3672V44.7366H94.3148V41.7891Z" fill="white"/>
<path d="M94.3148 44.7383H91.3672V47.6858H94.3148V44.7383Z" fill="#D9D9D9"/>
<path d="M94.3148 47.6855H91.3672V50.6331H94.3148V47.6855Z" fill="#D9D9D9"/>
<path d="M44.2132 0.527344H41.2656V3.47491H44.2132V0.527344Z" fill="#FFF7C7"/>
<path d="M26.5257 53.5801H23.5781V56.5276H26.5257V53.5801Z" fill="#D9D9D9"/>
<path d="M97.264 41.7891H94.3164V44.7366H97.264V41.7891Z" fill="white"/>
<path d="M97.264 38.8438H94.3164V41.7913H97.264V38.8438Z" fill="white"/>
<path d="M97.264 35.8945H94.3164V38.8421H97.264V35.8945Z" fill="white"/>
<path d="M97.264 44.7383H94.3164V47.6858H97.264V44.7383Z" fill="white"/>
<path d="M97.264 47.6855H94.3164V50.6331H97.264V47.6855Z" fill="white"/>
<path d="M41.264 0.527344H38.3164V3.47491H41.264V0.527344Z" fill="#FFF7C7"/>
<path d="M32.4222 0.527344H29.4746V3.47491H32.4222V0.527344Z" fill="white"/>
<path d="M29.473 0.527344H26.5254V3.47491H29.473V0.527344Z" fill="white"/>
<path d="M35.3675 0.527344H32.4199V3.47491H35.3675V0.527344Z" fill="white"/>
<path d="M38.3148 0.527344H35.3672V3.47491H38.3148V0.527344Z" fill="white"/>
<path d="M26.5257 0.527344H23.5781V3.47491H26.5257V0.527344Z" fill="white"/>
<path d="M26.5257 59.4746H23.5781V62.4222H26.5257V59.4746Z" fill="#FFF7C7"/>
<path d="M26.5257 62.4219H23.5781V65.3694H26.5257V62.4219Z" fill="#FFF7C7"/>
<path d="M26.5257 56.5273H23.5781V59.4749H26.5257V56.5273Z" fill="#D9D9D9"/>
<path d="M97.264 50.6309H94.3164V53.5784H97.264V50.6309Z" fill="#D9D9D9"/>
<path d="M97.264 56.5273H94.3164V59.4749H97.264V56.5273Z" fill="#FFF7C7"/>
<path d="M97.264 53.5801H94.3164V56.5276H97.264V53.5801Z" fill="#D9D9D9"/>
<path d="M38.3148 9.36914H35.3672V12.3167H38.3148V9.36914Z" fill="white"/>
<path d="M35.3675 9.36914H32.4199V12.3167H35.3675V9.36914Z" fill="white"/>
<path d="M44.2132 9.36914H41.2656V12.3167H44.2132V9.36914Z" fill="white"/>
<path d="M32.4222 9.36914H29.4746V12.3167H32.4222V9.36914Z" fill="white"/>
<path d="M47.1585 9.36914H44.2109V12.3167H47.1585V9.36914Z" fill="white"/>
<path d="M41.264 9.36914H38.3164V12.3167H41.264V9.36914Z" fill="white"/>
<path d="M32.4222 21.1582H29.4746V24.1058H32.4222V21.1582Z" fill="white"/>
<path d="M32.4222 18.2109H29.4746V21.1585H32.4222V18.2109Z" fill="white"/>
<path d="M32.4222 12.3164H29.4746V15.264H32.4222V12.3164Z" fill="white"/>
<path d="M32.4222 15.2637H29.4746V18.2112H32.4222V15.2637Z" fill="white"/>
<path d="M53.0511 9.36914H50.1035V12.3167H53.0511V9.36914Z" fill="#FFF7C7"/>
<path d="M32.4222 24.1055H29.4746V27.053H32.4222V24.1055Z" fill="white"/>
<path d="M50.1058 9.36914H47.1582V12.3167H50.1058V9.36914Z" fill="#FFF7C7"/>
<path d="M32.4222 62.4219H29.4746V65.3694H32.4222V62.4219Z" fill="#FFF7C7"/>
<path d="M32.4222 59.4746H29.4746V62.4222H32.4222V59.4746Z" fill="#FFF7C7"/>
<path d="M32.4222 56.5273H29.4746V59.4749H32.4222V56.5273Z" fill="#D9D9D9"/>
<path d="M32.4222 44.7383H29.4746V47.6858H32.4222V44.7383Z" fill="#D9D9D9"/>
<path d="M32.4222 38.8438H29.4746V41.7913H32.4222V38.8438Z" fill="#D9D9D9"/>
<path d="M32.4222 32.9473H29.4746V35.8948H32.4222V32.9473Z" fill="#D9D9D9"/>
<path d="M32.4222 35.8945H29.4746V38.8421H32.4222V35.8945Z" fill="#D9D9D9"/>
<path d="M32.4222 30.002H29.4746V32.9495H32.4222V30.002Z" fill="white"/>
<path d="M32.4222 50.6309H29.4746V53.5784H32.4222V50.6309Z" fill="#D9D9D9"/>
<path d="M32.4222 41.7891H29.4746V44.7366H32.4222V41.7891Z" fill="#D9D9D9"/>
<path d="M32.4222 47.6855H29.4746V50.6331H32.4222V47.6855Z" fill="#D9D9D9"/>
<path d="M32.4222 53.5801H29.4746V56.5276H32.4222V53.5801Z" fill="#D9D9D9"/>
<path d="M32.4222 27.0527H29.4746V30.0003H32.4222V27.0527Z" fill="white"/>
<path d="M88.4222 53.5801H85.4746V56.5276H88.4222V53.5801Z" fill="#D9D9D9"/>
<path d="M88.4222 59.4746H85.4746V62.4222H88.4222V59.4746Z" fill="#FFF7C7"/>
<path d="M88.4222 56.5273H85.4746V59.4749H88.4222V56.5273Z" fill="#D9D9D9"/>
<path d="M88.4222 44.7383H85.4746V47.6858H88.4222V44.7383Z" fill="#D9D9D9"/>
<path d="M88.4222 50.6309H85.4746V53.5784H88.4222V50.6309Z" fill="#D9D9D9"/>
<path d="M88.4222 47.6855H85.4746V50.6331H88.4222V47.6855Z" fill="#D9D9D9"/>
<path d="M88.4222 41.7891H85.4746V44.7366H88.4222V41.7891Z" fill="#D9D9D9"/>
<path d="M88.4222 35.8945H85.4746V38.8421H88.4222V35.8945Z" fill="white"/>
<path d="M88.4222 38.8438H85.4746V41.7913H88.4222V38.8438Z" fill="#D9D9D9"/>
<path d="M32.4222 6.42188H29.4746V9.36944H32.4222V6.42188Z" fill="white"/>
<path d="M35.3675 6.42188H32.4199V9.36944H35.3675V6.42188Z" fill="white"/>
<path d="M47.1585 6.42188H44.2109V9.36944H47.1585V6.42188Z" fill="#FFF7C7"/>
<path d="M41.264 6.42188H38.3164V9.36944H41.264V6.42188Z" fill="white"/>
<path d="M44.2132 6.42188H41.2656V9.36944H44.2132V6.42188Z" fill="white"/>
<path d="M38.3148 6.42188H35.3672V9.36944H38.3148V6.42188Z" fill="white"/>
<path d="M29.473 12.3164H26.5254V15.264H29.473V12.3164Z" fill="white"/>
<path d="M29.473 15.2637H26.5254V18.2112H29.473V15.2637Z" fill="white"/>
<path d="M29.473 6.42188H26.5254V9.36944H29.473V6.42188Z" fill="white"/>
<path d="M50.1058 6.42188H47.1582V9.36944H50.1058V6.42188Z" fill="#FFF7C7"/>
<path d="M29.473 18.2109H26.5254V21.1585H29.473V18.2109Z" fill="white"/>
<path d="M29.473 9.36914H26.5254V12.3167H29.473V9.36914Z" fill="white"/>
<path d="M29.473 56.5273H26.5254V59.4749H29.473V56.5273Z" fill="#D9D9D9"/>
<path d="M29.473 62.4219H26.5254V65.3694H29.473V62.4219Z" fill="#FFF7C7"/>
<path d="M29.473 59.4746H26.5254V62.4222H29.473V59.4746Z" fill="#FFF7C7"/>
<path d="M29.473 53.5801H26.5254V56.5276H29.473V53.5801Z" fill="#D9D9D9"/>
<path d="M29.473 21.1582H26.5254V24.1058H29.473V21.1582Z" fill="white"/>
<path d="M29.473 50.6309H26.5254V53.5784H29.473V50.6309Z" fill="#D9D9D9"/>
<path d="M29.473 47.6855H26.5254V50.6331H29.473V47.6855Z" fill="#D9D9D9"/>
<path d="M29.473 30.002H26.5254V32.9495H29.473V30.002Z" fill="white"/>
<path d="M29.473 32.9473H26.5254V35.8948H29.473V32.9473Z" fill="#D9D9D9"/>
<path d="M29.473 24.1055H26.5254V27.053H29.473V24.1055Z" fill="white"/>
<path d="M29.473 27.0527H26.5254V30.0003H29.473V27.0527Z" fill="white"/>
<path d="M29.473 41.7891H26.5254V44.7366H29.473V41.7891Z" fill="#D9D9D9"/>
<path d="M29.473 35.8945H26.5254V38.8421H29.473V35.8945Z" fill="#D9D9D9"/>
<path d="M29.473 44.7383H26.5254V47.6858H29.473V44.7383Z" fill="#D9D9D9"/>
<path d="M29.473 38.8438H26.5254V41.7913H29.473V38.8438Z" fill="#D9D9D9"/>
<path d="M91.3675 59.4746H88.4199V62.4222H91.3675V59.4746Z" fill="#FFF7C7"/>
<path d="M91.3675 56.5273H88.4199V59.4749H91.3675V56.5273Z" fill="#D9D9D9"/>
<path d="M91.3675 53.5801H88.4199V56.5276H91.3675V53.5801Z" fill="#D9D9D9"/>
<path d="M91.3675 44.7383H88.4199V47.6858H91.3675V44.7383Z" fill="#D9D9D9"/>
<path d="M91.3675 38.8438H88.4199V41.7913H91.3675V38.8438Z" fill="#D9D9D9"/>
<path d="M91.3675 47.6855H88.4199V50.6331H91.3675V47.6855Z" fill="#D9D9D9"/>
<path d="M91.3675 41.7891H88.4199V44.7366H91.3675V41.7891Z" fill="#D9D9D9"/>
<path d="M91.3675 35.8945H88.4199V38.8421H91.3675V35.8945Z" fill="white"/>
<path d="M91.3675 50.6309H88.4199V53.5784H91.3675V50.6309Z" fill="#D9D9D9"/>
<path d="M44.2132 12.3164H41.2656V15.264H44.2132V12.3164Z" fill="#D9D9D9"/>
<path d="M2.94757 53.5801H0V56.5276H2.94757V53.5801Z" fill="#FFF7C7"/>
<path d="M2.94757 50.6309H0V53.5784H2.94757V50.6309Z" fill="#D9D9D9"/>
<path d="M2.94757 35.8945H0V38.8421H2.94757V35.8945Z" fill="white"/>
<path d="M2.94757 47.6855H0V50.6331H2.94757V47.6855Z" fill="#D9D9D9"/>
<path d="M2.94757 38.8438H0V41.7913H2.94757V38.8438Z" fill="white"/>
<path d="M2.94757 44.7383H0V47.6858H2.94757V44.7383Z" fill="#D9D9D9"/>
<path d="M2.94757 41.7891H0V44.7366H2.94757V41.7891Z" fill="#D9D9D9"/>
<path d="M5.89483 35.8945H2.94727V38.8421H5.89483V35.8945Z" fill="#D9D9D9"/>
<path d="M5.89483 56.5273H2.94727V59.4749H5.89483V56.5273Z" fill="#FFF7C7"/>
<path d="M5.89483 32.9473H2.94727V35.8948H5.89483V32.9473Z" fill="white"/>
<path d="M5.89483 41.7891H2.94727V44.7366H5.89483V41.7891Z" fill="#D9D9D9"/>
<path d="M5.89483 38.8438H2.94727V41.7913H5.89483V38.8438Z" fill="#D9D9D9"/>
<path d="M5.89483 44.7383H2.94727V47.6858H5.89483V44.7383Z" fill="#D9D9D9"/>
<path d="M5.89483 50.6309H2.94727V53.5784H5.89483V50.6309Z" fill="#D9D9D9"/>
<path d="M5.89483 53.5801H2.94727V56.5276H5.89483V53.5801Z" fill="#FFF7C7"/>
<path d="M5.89483 47.6855H2.94727V50.6331H5.89483V47.6855Z" fill="#D9D9D9"/>
<path d="M5.89483 30.002H2.94727V32.9495H5.89483V30.002Z" fill="white"/>
<path d="M341.273 6.5H337.578V10.1945H341.273V6.5Z" fill="#FFF7C7"/>
<path d="M344.968 6.5H341.273V10.1945H344.968V6.5Z" fill="#FFF7C7"/>
<path d="M352.357 6.5H348.662V10.1945H352.357V6.5Z" fill="#FFF7C7"/>
<path d="M348.665 6.5H344.971V10.1945H348.665V6.5Z" fill="#FFF7C7"/>
<path d="M293.249 58.2207H289.555V61.9152H293.249V58.2207Z" fill="white"/>
<path d="M293.249 65.6094H289.555V69.3039H293.249V65.6094Z" fill="#FFF7C7"/>
<path d="M293.249 61.916H289.555V65.6105H293.249V61.916Z" fill="#FFF7C7"/>
<path d="M293.249 36.0547H289.555V39.7492H293.249V36.0547Z" fill="white"/>
<path d="M293.249 32.3594H289.555V36.0539H293.249V32.3594Z" fill="white"/>
<path d="M293.249 24.9727H289.555V28.6672H293.249V24.9727Z" fill="#FFF7C7"/>
<path d="M293.249 43.4434H289.555V47.1379H293.249V43.4434Z" fill="white"/>
<path d="M293.249 47.1387H289.555V50.8332H293.249V47.1387Z" fill="white"/>
<path d="M293.249 50.832H289.555V54.5266H293.249V50.832Z" fill="white"/>
<path d="M293.249 39.75H289.555V43.4445H293.249V39.75Z" fill="white"/>
<path d="M293.249 54.5254H289.555V58.2199H293.249V54.5254Z" fill="white"/>
<path d="M293.249 28.666H289.555V32.3605H293.249V28.666Z" fill="#FFF7C7"/>
<path d="M359.745 6.5H356.051V10.1945H359.745V6.5Z" fill="#FFF7C7"/>
<path d="M363.441 6.5H359.746V10.1945H363.441V6.5Z" fill="#FFF7C7"/>
<path d="M367.134 6.5H363.439V10.1945H367.134V6.5Z" fill="#FFF7C7"/>
<path d="M356.052 6.5H352.357V10.1945H356.052V6.5Z" fill="#FFF7C7"/>
<path d="M300.638 69.3027H296.943V72.9973H300.638V69.3027Z" fill="#FFF7C7"/>
<path d="M300.638 61.916H296.943V65.6105H300.638V61.916Z" fill="#FFF7C7"/>
<path d="M300.638 65.6094H296.943V69.3039H300.638V65.6094Z" fill="#FFF7C7"/>
<path d="M300.638 58.2207H296.943V61.9152H300.638V58.2207Z" fill="#FFF7C7"/>
<path d="M300.638 50.832H296.943V54.5266H300.638V50.832Z" fill="white"/>
<path d="M300.638 54.5254H296.943V58.2199H300.638V54.5254Z" fill="#FFF7C7"/>
<path d="M300.638 43.4434H296.943V47.1379H300.638V43.4434Z" fill="#D9D9D9"/>
<path d="M300.638 24.9727H296.943V28.6672H300.638V24.9727Z" fill="#FFF7C7"/>
<path d="M300.638 28.666H296.943V32.3605H300.638V28.666Z" fill="#FFF7C7"/>
<path d="M300.638 32.3594H296.943V36.0539H300.638V32.3594Z" fill="white"/>
<path d="M300.638 47.1387H296.943V50.8332H300.638V47.1387Z" fill="white"/>
<path d="M300.638 39.75H296.943V43.4445H300.638V39.75Z" fill="white"/>
<path d="M300.638 36.0547H296.943V39.7492H300.638V36.0547Z" fill="white"/>
<path d="M348.665 10.1934H344.971V13.8879H348.665V10.1934Z" fill="#FFF7C7"/>
<path d="M344.968 10.1934H341.273V13.8879H344.968V10.1934Z" fill="#FFF7C7"/>
<path d="M341.273 10.1934H337.578V13.8879H341.273V10.1934Z" fill="#FFF7C7"/>
<path d="M337.579 10.1934H333.885V13.8879H337.579V10.1934Z" fill="white"/>
<path d="M370.829 10.1934H367.135V13.8879H370.829V10.1934Z" fill="#FFF7C7"/>
<path d="M356.052 10.1934H352.357V13.8879H356.052V10.1934Z" fill="#FFF7C7"/>
<path d="M367.134 10.1934H363.439V13.8879H367.134V10.1934Z" fill="#FFF7C7"/>
<path d="M359.745 10.1934H356.051V13.8879H359.745V10.1934Z" fill="#FFF7C7"/>
<path d="M352.357 10.1934H348.662V13.8879H352.357V10.1934Z" fill="#FFF7C7"/>
<path d="M363.441 10.1934H359.746V13.8879H363.441V10.1934Z" fill="#FFF7C7"/>
<path d="M296.943 39.75H293.248V43.4445H296.943V39.75Z" fill="white"/>
<path d="M296.945 65.6094H293.25V69.3039H296.945V65.6094Z" fill="#FFF7C7"/>
<path d="M296.943 43.4434H293.248V47.1379H296.943V43.4434Z" fill="white"/>
<path d="M296.943 47.1387H293.248V50.8332H296.943V47.1387Z" fill="white"/>
<path d="M296.943 36.0547H293.248V39.7492H296.943V36.0547Z" fill="white"/>
<path d="M296.943 58.2207H293.248V61.9152H296.943V58.2207Z" fill="white"/>
<path d="M296.945 61.916H293.25V65.6105H296.945V61.916Z" fill="#FFF7C7"/>
<path d="M296.943 32.3594H293.248V36.0539H296.943V32.3594Z" fill="white"/>
<path d="M296.943 54.5254H293.248V58.2199H296.943V54.5254Z" fill="white"/>
<path d="M296.943 50.832H293.248V54.5266H296.943V50.832Z" fill="white"/>
<path d="M296.943 28.666H293.248V32.3605H296.943V28.666Z" fill="#FFF7C7"/>
<path d="M296.943 24.9727H293.248V28.6672H296.943V24.9727Z" fill="#FFF7C7"/>
<path d="M285.861 65.6094H282.166V69.3039H285.861V65.6094Z" fill="#FFF7C7"/>
<path d="M285.861 61.916H282.166V65.6105H285.861V61.916Z" fill="#FFF7C7"/>
<path d="M282.163 47.1387H278.469V50.8332H282.163V47.1387Z" fill="white"/>
<path d="M282.163 36.0547H278.469V39.7492H282.163V36.0547Z" fill="white"/>
<path d="M282.163 39.748H278.469V43.4426H282.163V39.748Z" fill="white"/>
<path d="M282.163 32.3594H278.469V36.0539H282.163V32.3594Z" fill="#FFF7C7"/>
<path d="M282.163 50.832H278.469V54.5266H282.163V50.832Z" fill="#D9D9D9"/>
<path d="M282.163 61.916H278.469V65.6105H282.163V61.916Z" fill="#FFF7C7"/>
<path d="M282.163 58.2207H278.469V61.9152H282.163V58.2207Z" fill="#D9D9D9"/>
<path d="M282.163 54.5254H278.469V58.2199H282.163V54.5254Z" fill="#D9D9D9"/>
<path d="M282.163 28.666H278.469V32.3605H282.163V28.666Z" fill="#FFF7C7"/>
<path d="M282.163 24.9727H278.469V28.6672H282.163V24.9727Z" fill="#FFF7C7"/>
<path d="M285.861 58.2207H282.166V61.9152H285.861V58.2207Z" fill="#FFF7C7"/>
<path d="M282.163 43.4434H278.469V47.1379H282.163V43.4434Z" fill="white"/>
<path d="M289.554 61.916H285.859V65.6105H289.554V61.916Z" fill="#FFF7C7"/>
<path d="M289.554 65.6094H285.859V69.3039H289.554V65.6094Z" fill="#FFF7C7"/>
<path d="M285.861 54.5254H282.166V58.2199H285.861V54.5254Z" fill="#D9D9D9"/>
<path d="M289.554 54.5254H285.859V58.2199H289.554V54.5254Z" fill="#D9D9D9"/>
<path d="M289.554 58.2207H285.859V61.9152H289.554V58.2207Z" fill="#D9D9D9"/>
<path d="M289.554 24.9727H285.859V28.6672H289.554V24.9727Z" fill="#FFF7C7"/>
<path d="M289.554 28.666H285.859V32.3605H289.554V28.666Z" fill="#FFF7C7"/>
<path d="M289.554 50.832H285.859V54.5266H289.554V50.832Z" fill="white"/>
<path d="M289.554 32.3594H285.859V36.0539H289.554V32.3594Z" fill="white"/>
<path d="M289.554 36.0547H285.859V39.7492H289.554V36.0547Z" fill="white"/>
<path d="M289.554 43.4434H285.859V47.1379H289.554V43.4434Z" fill="white"/>
<path d="M289.554 47.1387H285.859V50.8332H289.554V47.1387Z" fill="white"/>
<path d="M289.554 39.75H285.859V43.4445H289.554V39.75Z" fill="white"/>
<path d="M285.861 32.3594H282.166V36.0539H285.861V32.3594Z" fill="white"/>
<path d="M285.861 36.0547H282.166V39.7492H285.861V36.0547Z" fill="white"/>
<path d="M285.861 24.9727H282.166V28.6672H285.861V24.9727Z" fill="#FFF7C7"/>
<path d="M285.861 47.1387H282.166V50.8332H285.861V47.1387Z" fill="white"/>
<path d="M285.861 50.832H282.166V54.5266H285.861V50.832Z" fill="white"/>
<path d="M285.861 43.4434H282.166V47.1379H285.861V43.4434Z" fill="white"/>
<path d="M285.861 39.748H282.166V43.4426H285.861V39.748Z" fill="white"/>
<path d="M285.861 28.666H282.166V32.3605H285.861V28.666Z" fill="#FFF7C7"/>
<path d="M374.521 43.4434H370.826V47.1379H374.521V43.4434Z" fill="white"/>
<path d="M374.521 61.916H370.826V65.6105H374.521V61.916Z" fill="#FFF7C7"/>
<path d="M374.521 50.832H370.826V54.5266H374.521V50.832Z" fill="white"/>
<path d="M374.521 47.1387H370.826V50.8332H374.521V47.1387Z" fill="white"/>
<path d="M374.521 54.5254H370.826V58.2199H374.521V54.5254Z" fill="white"/>
<path d="M374.521 58.2207H370.826V61.9152H374.521V58.2207Z" fill="#D9D9D9"/>
<path d="M374.521 39.748H370.826V43.4426H374.521V39.748Z" fill="white"/>
<path d="M337.579 32.3594H333.885V36.0539H337.579V32.3594Z" fill="white"/>
<path d="M330.191 32.3594H326.496V36.0539H330.191V32.3594Z" fill="#FFF7C7"/>
<path d="M341.273 32.3594H337.578V36.0539H341.273V32.3594Z" fill="white"/>
<path d="M326.497 32.3594H322.803V36.0539H326.497V32.3594Z" fill="#FFF7C7"/>
<path d="M319.111 36.0547H315.416V39.7492H319.111V36.0547Z" fill="#D9D9D9"/>
<path d="M344.968 32.3594H341.273V36.0539H344.968V32.3594Z" fill="white"/>
<path d="M319.111 39.748H315.416V43.4426H319.111V39.748Z" fill="white"/>
<path d="M374.521 32.3594H370.826V36.0539H374.521V32.3594Z" fill="#D9D9D9"/>
<path d="M370.829 32.3594H367.135V36.0539H370.829V32.3594Z" fill="#D9D9D9"/>
<path d="M348.665 32.3594H344.971V36.0539H348.665V32.3594Z" fill="white"/>
<path d="M374.521 36.0547H370.826V39.7492H374.521V36.0547Z" fill="white"/>
<path d="M367.134 32.3594H363.439V36.0539H367.134V32.3594Z" fill="#D9D9D9"/>
<path d="M352.357 32.3594H348.662V36.0539H352.357V32.3594Z" fill="white"/>
<path d="M363.441 32.3594H359.746V36.0539H363.441V32.3594Z" fill="#D9D9D9"/>
<path d="M356.052 32.3594H352.357V36.0539H356.052V32.3594Z" fill="white"/>
<path d="M359.745 32.3594H356.051V36.0539H359.745V32.3594Z" fill="#D9D9D9"/>
<path d="M333.886 32.3594H330.191V36.0539H333.886V32.3594Z" fill="white"/>
<path d="M344.968 36.0547H341.273V39.7492H344.968V36.0547Z" fill="white"/>
<path d="M352.357 36.0547H348.662V39.7492H352.357V36.0547Z" fill="white"/>
<path d="M359.745 36.0547H356.051V39.7492H359.745V36.0547Z" fill="#D9D9D9"/>
<path d="M356.052 36.0547H352.357V39.7492H356.052V36.0547Z" fill="white"/>
<path d="M337.579 36.0547H333.885V39.7492H337.579V36.0547Z" fill="white"/>
<path d="M333.886 36.0547H330.191V39.7492H333.886V36.0547Z" fill="white"/>
<path d="M330.191 36.0547H326.496V39.7492H330.191V36.0547Z" fill="#D9D9D9"/>
<path d="M363.441 36.0547H359.746V39.7492H363.441V36.0547Z" fill="#D9D9D9"/>
<path d="M370.829 43.4434H367.135V47.1379H370.829V43.4434Z" fill="white"/>
<path d="M367.134 36.0547H363.439V39.7492H367.134V36.0547Z" fill="#D9D9D9"/>
<path d="M370.829 54.5254H367.135V58.2199H370.829V54.5254Z" fill="white"/>
<path d="M370.829 58.2207H367.135V61.9152H370.829V58.2207Z" fill="#D9D9D9"/>
<path d="M370.829 61.916H367.135V65.6105H370.829V61.916Z" fill="#FFF7C7"/>
<path d="M370.829 50.832H367.135V54.5266H370.829V50.832Z" fill="white"/>
<path d="M370.829 39.748H367.135V43.4426H370.829V39.748Z" fill="white"/>
<path d="M370.829 36.0547H367.135V39.7492H370.829V36.0547Z" fill="white"/>
<path d="M326.497 36.0547H322.803V39.7492H326.497V36.0547Z" fill="#D9D9D9"/>
<path d="M370.829 47.1387H367.135V50.8332H370.829V47.1387Z" fill="#D9D9D9"/>
<path d="M348.665 36.0547H344.971V39.7492H348.665V36.0547Z" fill="white"/>
<path d="M322.804 36.0547H319.109V39.7492H322.804V36.0547Z" fill="#D9D9D9"/>
<path d="M322.804 50.832H319.109V54.5266H322.804V50.832Z" fill="white"/>
<path d="M322.804 43.4434H319.109V47.1379H322.804V43.4434Z" fill="white"/>
<path d="M322.804 47.1387H319.109V50.8332H322.804V47.1387Z" fill="white"/>
<path d="M322.804 39.75H319.109V43.4445H322.804V39.75Z" fill="white"/>
<path d="M322.804 54.5254H319.109V58.2199H322.804V54.5254Z" fill="white"/>
<path d="M322.804 69.3027H319.109V72.9973H322.804V69.3027Z" fill="#FFF7C7"/>
<path d="M322.804 65.6094H319.109V69.3039H322.804V65.6094Z" fill="#D9D9D9"/>
<path d="M322.804 61.916H319.109V65.6105H322.804V61.916Z" fill="white"/>
<path d="M322.804 58.2207H319.109V61.9152H322.804V58.2207Z" fill="white"/>
<path d="M352.357 28.666H348.662V32.3605H352.357V28.666Z" fill="white"/>
<path d="M348.665 28.666H344.971V32.3605H348.665V28.666Z" fill="white"/>
<path d="M356.052 28.666H352.357V32.3605H356.052V28.666Z" fill="white"/>
<path d="M359.745 28.666H356.051V32.3605H359.745V28.666Z" fill="white"/>
<path d="M344.968 28.666H341.273V32.3605H344.968V28.666Z" fill="white"/>
<path d="M333.886 28.666H330.191V32.3605H333.886V28.666Z" fill="white"/>
<path d="M341.273 28.666H337.578V32.3605H341.273V28.666Z" fill="white"/>
<path d="M330.191 28.666H326.496V32.3605H330.191V28.666Z" fill="#FFF7C7"/>
<path d="M363.441 28.666H359.746V32.3605H363.441V28.666Z" fill="#D9D9D9"/>
<path d="M337.579 28.666H333.885V32.3605H337.579V28.666Z" fill="white"/>
<path d="M378.216 39.748H374.521V43.4426H378.216V39.748Z" fill="white"/>
<path d="M378.216 43.4434H374.521V47.1379H378.216V43.4434Z" fill="white"/>
<path d="M378.216 36.0547H374.521V39.7492H378.216V36.0547Z" fill="white"/>
<path d="M378.216 47.1387H374.521V50.8332H378.216V47.1387Z" fill="white"/>
<path d="M367.134 28.666H363.439V32.3605H367.134V28.666Z" fill="#D9D9D9"/>
<path d="M378.216 32.3594H374.521V36.0539H378.216V32.3594Z" fill="#D9D9D9"/>
<path d="M370.829 28.666H367.135V32.3605H370.829V28.666Z" fill="#D9D9D9"/>
<path d="M374.521 28.666H370.826V32.3605H374.521V28.666Z" fill="#D9D9D9"/>
<path d="M378.216 50.832H374.521V54.5266H378.216V50.832Z" fill="white"/>
<path d="M378.216 28.666H374.521V32.3605H378.216V28.666Z" fill="#D9D9D9"/>
<path d="M315.415 69.3027H311.721V72.9973H315.415V69.3027Z" fill="#FFF7C7"/>
<path d="M315.415 65.6094H311.721V69.3039H315.415V65.6094Z" fill="#D9D9D9"/>
<path d="M315.415 61.916H311.721V65.6105H315.415V61.916Z" fill="white"/>
<path d="M315.415 36.0547H311.721V39.7492H315.415V36.0547Z" fill="#D9D9D9"/>
<path d="M315.415 58.2207H311.721V61.9152H315.415V58.2207Z" fill="white"/>
<path d="M315.415 39.748H311.721V43.4426H315.415V39.748Z" fill="#D9D9D9"/>
<path d="M315.415 54.5254H311.721V58.2199H315.415V54.5254Z" fill="white"/>
<path d="M315.415 43.4434H311.721V47.1379H315.415V43.4434Z" fill="white"/>
<path d="M315.415 50.832H311.721V54.5266H315.415V50.832Z" fill="white"/>
<path d="M315.415 47.1387H311.721V50.8332H315.415V47.1387Z" fill="white"/>
<path d="M319.111 61.916H315.416V65.6105H319.111V61.916Z" fill="white"/>
<path d="M319.111 58.2207H315.416V61.9152H319.111V58.2207Z" fill="white"/>
<path d="M319.111 50.832H315.416V54.5266H319.111V50.832Z" fill="white"/>
<path d="M319.111 54.5254H315.416V58.2199H319.111V54.5254Z" fill="white"/>
<path d="M319.111 47.1387H315.416V50.8332H319.111V47.1387Z" fill="white"/>
<path d="M319.111 69.3027H315.416V72.9973H319.111V69.3027Z" fill="#FFF7C7"/>
<path d="M319.111 65.6094H315.416V69.3039H319.111V65.6094Z" fill="#D9D9D9"/>
<path d="M319.111 43.4434H315.416V47.1379H319.111V43.4434Z" fill="#D9D9D9"/>
<path d="M378.216 58.2207H374.521V61.9152H378.216V58.2207Z" fill="#D9D9D9"/>
<path d="M378.216 54.5254H374.521V58.2199H378.216V54.5254Z" fill="white"/>
<path d="M378.216 61.916H374.521V65.6105H378.216V61.916Z" fill="#FFF7C7"/>
<path d="M341.273 36.0547H337.578V39.7492H341.273V36.0547Z" fill="white"/>
<path d="M359.745 47.1387H356.051V50.8332H359.745V47.1387Z" fill="white"/>
<path d="M341.273 47.1387H337.578V50.8332H341.273V47.1387Z" fill="#FFF7C7"/>
<path d="M344.968 47.1387H341.273V50.8332H344.968V47.1387Z" fill="#FFF7C7"/>
<path d="M356.052 47.1387H352.357V50.8332H356.052V47.1387Z" fill="white"/>
<path d="M352.357 47.1387H348.662V50.8332H352.357V47.1387Z" fill="white"/>
<path d="M348.665 47.1387H344.971V50.8332H348.665V47.1387Z" fill="white"/>
<path d="M337.579 47.1387H333.885V50.8332H337.579V47.1387Z" fill="#FFF7C7"/>
<path d="M333.886 50.832H330.191V54.5266H333.886V50.832Z" fill="white"/>
<path d="M333.886 54.5254H330.191V58.2199H333.886V54.5254Z" fill="white"/>
<path d="M333.886 47.1387H330.191V50.8332H333.886V47.1387Z" fill="#D9D9D9"/>
<path d="M333.886 58.2207H330.191V61.9152H333.886V58.2207Z" fill="white"/>
<path d="M363.441 50.832H359.746V54.5266H363.441V50.832Z" fill="white"/>
<path d="M359.745 58.2207H356.051V61.9152H359.745V58.2207Z" fill="#D9D9D9"/>
<path d="M359.745 50.832H356.051V54.5266H359.745V50.832Z" fill="white"/>
<path d="M359.745 54.5254H356.051V58.2199H359.745V54.5254Z" fill="white"/>
<path d="M359.745 61.916H356.051V65.6105H359.745V61.916Z" fill="#FFF7C7"/>
<path d="M333.886 69.3027H330.191V72.9973H333.886V69.3027Z" fill="#FFF7C7"/>
<path d="M363.441 61.916H359.746V65.6105H363.441V61.916Z" fill="#FFF7C7"/>
<path d="M363.441 54.5254H359.746V58.2199H363.441V54.5254Z" fill="white"/>
<path d="M363.441 58.2207H359.746V61.9152H363.441V58.2207Z" fill="#D9D9D9"/>
<path d="M333.886 61.916H330.191V65.6105H333.886V61.916Z" fill="white"/>
<path d="M333.886 65.6094H330.191V69.3039H333.886V65.6094Z" fill="#D9D9D9"/>
<path d="M341.273 54.5254H337.578V58.2199H341.273V54.5254Z" fill="#FFF7C7"/>
<path d="M344.968 54.5254H341.273V58.2199H344.968V54.5254Z" fill="#FFF7C7"/>
<path d="M341.273 58.2207H337.578V61.9152H341.273V58.2207Z" fill="#D9D9D9"/>
<path d="M348.665 54.5254H344.971V58.2199H348.665V54.5254Z" fill="#FFF7C7"/>
<path d="M344.968 69.3027H341.273V72.9973H344.968V69.3027Z" fill="#FFF7C7"/>
<path d="M341.273 69.3027H337.578V72.9973H341.273V69.3027Z" fill="#FFF7C7"/>
<path d="M352.357 54.5254H348.662V58.2199H352.357V54.5254Z" fill="#FFF7C7"/>
<path d="M341.273 65.6094H337.578V69.3039H341.273V65.6094Z" fill="#D9D9D9"/>
<path d="M341.273 61.916H337.578V65.6105H341.273V61.916Z" fill="#D9D9D9"/>
<path d="M344.968 58.2207H341.273V61.9152H344.968V58.2207Z" fill="#FFF7C7"/>
<path d="M352.357 58.2207H348.662V61.9152H352.357V58.2207Z" fill="#FFF7C7"/>
<path d="M344.968 61.916H341.273V65.6105H344.968V61.916Z" fill="#D9D9D9"/>
<path d="M348.665 61.916H344.971V65.6105H348.665V61.916Z" fill="#FFF7C7"/>
<path d="M348.665 58.2207H344.971V61.9152H348.665V58.2207Z" fill="#FFF7C7"/>
<path d="M352.357 65.6094H348.662V69.3039H352.357V65.6094Z" fill="#FFF7C7"/>
<path d="M344.968 65.6094H341.273V69.3039H344.968V65.6094Z" fill="#D9D9D9"/>
<path d="M352.357 61.916H348.662V65.6105H352.357V61.916Z" fill="#FFF7C7"/>
<path d="M348.665 65.6094H344.971V69.3039H348.665V65.6094Z" fill="#FFF7C7"/>
<path d="M337.579 54.5254H333.885V58.2199H337.579V54.5254Z" fill="white"/>
<path d="M337.579 58.2207H333.885V61.9152H337.579V58.2207Z" fill="white"/>
<path d="M337.579 50.832H333.885V54.5266H337.579V50.832Z" fill="#FFF7C7"/>
<path d="M341.273 50.832H337.578V54.5266H341.273V50.832Z" fill="#FFF7C7"/>
<path d="M337.579 61.916H333.885V65.6105H337.579V61.916Z" fill="#D9D9D9"/>
<path d="M337.579 65.6094H333.885V69.3039H337.579V65.6094Z" fill="#D9D9D9"/>
<path d="M337.579 69.3027H333.885V72.9973H337.579V69.3027Z" fill="#FFF7C7"/>
<path d="M356.052 61.916H352.357V65.6105H356.052V61.916Z" fill="#FFF7C7"/>
<path d="M356.052 65.6094H352.357V69.3039H356.052V65.6094Z" fill="#FFF7C7"/>
<path d="M356.052 58.2207H352.357V61.9152H356.052V58.2207Z" fill="#FFF7C7"/>
<path d="M348.665 50.832H344.971V54.5266H348.665V50.832Z" fill="#FFF7C7"/>
<path d="M344.968 50.832H341.273V54.5266H344.968V50.832Z" fill="#FFF7C7"/>
<path d="M352.357 50.832H348.662V54.5266H352.357V50.832Z" fill="white"/>
<path d="M356.052 50.832H352.357V54.5266H356.052V50.832Z" fill="white"/>
<path d="M356.052 54.5254H352.357V58.2199H356.052V54.5254Z" fill="white"/>
<path d="M326.497 43.4434H322.803V47.1379H326.497V43.4434Z" fill="white"/>
<path d="M326.497 50.832H322.803V54.5266H326.497V50.832Z" fill="white"/>
<path d="M326.497 47.1387H322.803V50.8332H326.497V47.1387Z" fill="white"/>
<path d="M326.497 39.75H322.803V43.4445H326.497V39.75Z" fill="#D9D9D9"/>
<path d="M330.191 39.75H326.496V43.4445H330.191V39.75Z" fill="#D9D9D9"/>
<path d="M326.497 54.5254H322.803V58.2199H326.497V54.5254Z" fill="white"/>
<path d="M333.886 39.75H330.191V43.4445H333.886V39.75Z" fill="#D9D9D9"/>
<path d="M326.497 65.6094H322.803V69.3039H326.497V65.6094Z" fill="#D9D9D9"/>
<path d="M326.497 61.916H322.803V65.6105H326.497V61.916Z" fill="white"/>
<path d="M326.497 58.2207H322.803V61.9152H326.497V58.2207Z" fill="white"/>
<path d="M337.579 39.75H333.885V43.4445H337.579V39.75Z" fill="white"/>
<path d="M356.052 39.748H352.357V43.4426H356.052V39.748Z" fill="white"/>
<path d="M359.745 39.75H356.051V43.4445H359.745V39.75Z" fill="white"/>
<path d="M363.441 39.75H359.746V43.4445H363.441V39.75Z" fill="white"/>
<path d="M367.134 39.75H363.439V43.4445H367.134V39.75Z" fill="white"/>
<path d="M344.968 39.748H341.273V43.4426H344.968V39.748Z" fill="white"/>
<path d="M341.273 39.748H337.578V43.4426H341.273V39.748Z" fill="white"/>
<path d="M326.497 69.3027H322.803V72.9973H326.497V69.3027Z" fill="#FFF7C7"/>
<path d="M348.665 39.748H344.971V43.4426H348.665V39.748Z" fill="white"/>
<path d="M352.357 39.748H348.662V43.4426H352.357V39.748Z" fill="white"/>
<path d="M367.134 43.4434H363.439V47.1379H367.134V43.4434Z" fill="white"/>
<path d="M330.191 54.5254H326.496V58.2199H330.191V54.5254Z" fill="white"/>
<path d="M330.191 50.832H326.496V54.5266H330.191V50.832Z" fill="white"/>
<path d="M363.441 47.1387H359.746V50.8332H363.441V47.1387Z" fill="white"/>
<path d="M330.191 47.1387H326.496V50.8332H330.191V47.1387Z" fill="white"/>
<path d="M330.191 58.2207H326.496V61.9152H330.191V58.2207Z" fill="white"/>
<path d="M330.191 43.4434H326.496V47.1379H330.191V43.4434Z" fill="#D9D9D9"/>
<path d="M367.134 47.1387H363.439V50.8332H367.134V47.1387Z" fill="white"/>
<path d="M330.191 69.3027H326.496V72.9973H330.191V69.3027Z" fill="#FFF7C7"/>
<path d="M330.191 65.6094H326.496V69.3039H330.191V65.6094Z" fill="#D9D9D9"/>
<path d="M330.191 61.916H326.496V65.6105H330.191V61.916Z" fill="white"/>
<path d="M363.441 43.4434H359.746V47.1379H363.441V43.4434Z" fill="white"/>
<path d="M333.886 43.4434H330.191V47.1379H333.886V43.4434Z" fill="#FFF7C7"/>
<path d="M352.357 43.4434H348.662V47.1379H352.357V43.4434Z" fill="white"/>
<path d="M359.745 43.4434H356.051V47.1379H359.745V43.4434Z" fill="white"/>
<path d="M356.052 43.4434H352.357V47.1379H356.052V43.4434Z" fill="white"/>
<path d="M341.273 43.4434H337.578V47.1379H341.273V43.4434Z" fill="#FFF7C7"/>
<path d="M337.579 43.4434H333.885V47.1379H337.579V43.4434Z" fill="#FFF7C7"/>
<path d="M348.665 43.4434H344.971V47.1379H348.665V43.4434Z" fill="white"/>
<path d="M344.968 43.4434H341.273V47.1379H344.968V43.4434Z" fill="white"/>
<path d="M367.134 61.916H363.439V65.6105H367.134V61.916Z" fill="#FFF7C7"/>
<path d="M367.134 50.832H363.439V54.5266H367.134V50.832Z" fill="white"/>
<path d="M367.134 54.5254H363.439V58.2199H367.134V54.5254Z" fill="white"/>
<path d="M367.134 58.2207H363.439V61.9152H367.134V58.2207Z" fill="#D9D9D9"/>
<path d="M352.357 13.8887H348.662V17.5832H352.357V13.8887Z" fill="white"/>
<path d="M341.273 17.582H337.578V21.2766H341.273V17.582Z" fill="white"/>
<path d="M337.579 17.582H333.885V21.2766H337.579V17.582Z" fill="#FFF7C7"/>
<path d="M344.968 17.582H341.273V21.2766H344.968V17.582Z" fill="white"/>
<path d="M352.357 17.582H348.662V21.2766H352.357V17.582Z" fill="white"/>
<path d="M348.665 17.582H344.971V21.2766H348.665V17.582Z" fill="white"/>
<path d="M333.886 17.582H330.191V21.2766H333.886V17.582Z" fill="#FFF7C7"/>
<path d="M359.745 17.582H356.051V21.2766H359.745V17.582Z" fill="white"/>
<path d="M367.134 17.582H363.439V21.2766H367.134V17.582Z" fill="white"/>
<path d="M374.521 17.582H370.826V21.2766H374.521V17.582Z" fill="#FFF7C7"/>
<path d="M363.441 17.582H359.746V21.2766H363.441V17.582Z" fill="white"/>
<path d="M370.829 17.582H367.135V21.2766H370.829V17.582Z" fill="white"/>
<path d="M356.052 17.582H352.357V21.2766H356.052V17.582Z" fill="white"/>
<path d="M304.329 43.4434H300.635V47.1379H304.329V43.4434Z" fill="white"/>
<path d="M304.329 58.2207H300.635V61.9152H304.329V58.2207Z" fill="#FFF7C7"/>
<path d="M304.329 54.5254H300.635V58.2199H304.329V54.5254Z" fill="#FFF7C7"/>
<path d="M304.329 50.832H300.635V54.5266H304.329V50.832Z" fill="white"/>
<path d="M304.329 69.3027H300.635V72.9973H304.329V69.3027Z" fill="#FFF7C7"/>
<path d="M304.329 65.6094H300.635V69.3039H304.329V65.6094Z" fill="#FFF7C7"/>
<path d="M304.329 61.916H300.635V65.6105H304.329V61.916Z" fill="#FFF7C7"/>
<path d="M304.329 39.748H300.635V43.4426H304.329V39.748Z" fill="#D9D9D9"/>
<path d="M304.329 36.0547H300.635V39.7492H304.329V36.0547Z" fill="white"/>
<path d="M304.329 32.3594H300.635V36.0539H304.329V32.3594Z" fill="#FFF7C7"/>
<path d="M304.329 28.666H300.635V32.3605H304.329V28.666Z" fill="#FFF7C7"/>
<path d="M304.329 47.1387H300.635V50.8332H304.329V47.1387Z" fill="white"/>
<path d="M389.3 50.832H385.605V54.5266H389.3V50.832Z" fill="#FFF7C7"/>
<path d="M389.3 43.4434H385.605V47.1379H389.3V43.4434Z" fill="#FFF7C7"/>
<path d="M389.3 47.1387H385.605V50.8332H389.3V47.1387Z" fill="#FFF7C7"/>
<path d="M389.3 54.5254H385.605V58.2199H389.3V54.5254Z" fill="#FFF7C7"/>
<path d="M389.3 39.75H385.605V43.4445H389.3V39.75Z" fill="#FFF7C7"/>
<path d="M389.3 58.2207H385.605V61.9152H389.3V58.2207Z" fill="#FFF7C7"/>
<path d="M389.3 36.0547H385.605V39.7492H389.3V36.0547Z" fill="#D9D9D9"/>
<path d="M392.993 54.5254H389.299V58.2199H392.993V54.5254Z" fill="#FFF7C7"/>
<path d="M392.993 43.4434H389.299V47.1379H392.993V43.4434Z" fill="#FFF7C7"/>
<path d="M392.993 47.1387H389.299V50.8332H392.993V47.1387Z" fill="#FFF7C7"/>
<path d="M392.993 50.832H389.299V54.5266H392.993V50.832Z" fill="#FFF7C7"/>
<path d="M392.993 39.75H389.299V43.4445H392.993V39.75Z" fill="#FFF7C7"/>
<path d="M333.886 13.8887H330.191V17.5832H333.886V13.8887Z" fill="#FFF7C7"/>
<path d="M374.521 13.8887H370.826V17.5832H374.521V13.8887Z" fill="#FFF7C7"/>
<path d="M337.579 13.8887H333.885V17.5832H337.579V13.8887Z" fill="#FFF7C7"/>
<path d="M363.441 13.8887H359.746V17.5832H363.441V13.8887Z" fill="white"/>
<path d="M367.134 13.8887H363.439V17.5832H367.134V13.8887Z" fill="white"/>
<path d="M359.745 13.8887H356.051V17.5832H359.745V13.8887Z" fill="white"/>
<path d="M370.829 13.8887H367.135V17.5832H370.829V13.8887Z" fill="white"/>
<path d="M356.052 13.8887H352.357V17.5832H356.052V13.8887Z" fill="white"/>
<path d="M341.273 13.8887H337.578V17.5832H341.273V13.8887Z" fill="#FFF7C7"/>
<path d="M344.968 13.8887H341.273V17.5832H344.968V13.8887Z" fill="white"/>
<path d="M348.665 13.8887H344.971V17.5832H348.665V13.8887Z" fill="white"/>
<path d="M330.191 24.9727H326.496V28.6672H330.191V24.9727Z" fill="#FFF7C7"/>
<path d="M311.718 39.748H308.023V43.4426H311.718V39.748Z" fill="#D9D9D9"/>
<path d="M311.718 36.0547H308.023V39.7492H311.718V36.0547Z" fill="white"/>
<path d="M311.718 32.3594H308.023V36.0539H311.718V32.3594Z" fill="#FFF7C7"/>
<path d="M337.579 24.9727H333.885V28.6672H337.579V24.9727Z" fill="white"/>
<path d="M359.745 24.9727H356.051V28.6672H359.745V24.9727Z" fill="white"/>
<path d="M356.052 24.9727H352.357V28.6672H356.052V24.9727Z" fill="white"/>
<path d="M363.441 24.9727H359.746V28.6672H363.441V24.9727Z" fill="white"/>
<path d="M352.357 24.9727H348.662V28.6672H352.357V24.9727Z" fill="white"/>
<path d="M311.718 43.4434H308.023V47.1379H311.718V43.4434Z" fill="white"/>
<path d="M348.665 24.9727H344.971V28.6672H348.665V24.9727Z" fill="white"/>
<path d="M341.273 24.9727H337.578V28.6672H341.273V24.9727Z" fill="white"/>
<path d="M333.886 24.9727H330.191V28.6672H333.886V24.9727Z" fill="white"/>
<path d="M344.968 24.9727H341.273V28.6672H344.968V24.9727Z" fill="white"/>
<path d="M367.134 24.9727H363.439V28.6672H367.134V24.9727Z" fill="white"/>
<path d="M311.718 69.3027H308.023V72.9973H311.718V69.3027Z" fill="#FFF7C7"/>
<path d="M311.718 61.916H308.023V65.6105H311.718V61.916Z" fill="white"/>
<path d="M311.718 54.5254H308.023V58.2199H311.718V54.5254Z" fill="white"/>
<path d="M311.718 58.2207H308.023V61.9152H311.718V58.2207Z" fill="white"/>
<path d="M311.718 50.832H308.023V54.5266H311.718V50.832Z" fill="white"/>
<path d="M311.718 65.6094H308.023V69.3039H311.718V65.6094Z" fill="#FFF7C7"/>
<path d="M311.718 47.1387H308.023V50.8332H311.718V47.1387Z" fill="white"/>
<path d="M381.909 39.748H378.215V43.4426H381.909V39.748Z" fill="white"/>
<path d="M370.829 24.9727H367.135V28.6672H370.829V24.9727Z" fill="white"/>
<path d="M381.909 32.3594H378.215V36.0539H381.909V32.3594Z" fill="#D9D9D9"/>
<path d="M381.909 36.0547H378.215V39.7492H381.909V36.0547Z" fill="white"/>
<path d="M381.909 47.1387H378.215V50.8332H381.909V47.1387Z" fill="white"/>
<path d="M381.909 43.4434H378.215V47.1379H381.909V43.4434Z" fill="white"/>
<path d="M378.216 24.9727H374.521V28.6672H378.216V24.9727Z" fill="white"/>
<path d="M374.521 24.9727H370.826V28.6672H374.521V24.9727Z" fill="white"/>
<path d="M381.909 50.832H378.215V54.5266H381.909V50.832Z" fill="#D9D9D9"/>
<path d="M381.909 54.5254H378.215V58.2199H381.909V54.5254Z" fill="#D9D9D9"/>
<path d="M381.909 58.2207H378.215V61.9152H381.909V58.2207Z" fill="#FFF7C7"/>
<path d="M381.909 61.916H378.215V65.6105H381.909V61.916Z" fill="#FFF7C7"/>
<path d="M308.025 28.666H304.33V32.3605H308.025V28.666Z" fill="#FFF7C7"/>
<path d="M308.025 32.3594H304.33V36.0539H308.025V32.3594Z" fill="#FFF7C7"/>
<path d="M367.134 21.2793H363.439V24.9738H367.134V21.2793Z" fill="white"/>
<path d="M337.579 21.2793H333.885V24.9738H337.579V21.2793Z" fill="#FFF7C7"/>
<path d="M352.357 21.2793H348.662V24.9738H352.357V21.2793Z" fill="white"/>
<path d="M333.886 21.2793H330.191V24.9738H333.886V21.2793Z" fill="#FFF7C7"/>
<path d="M356.052 21.2793H352.357V24.9738H356.052V21.2793Z" fill="white"/>
<path d="M363.441 21.2793H359.746V24.9738H363.441V21.2793Z" fill="white"/>
<path d="M359.745 21.2793H356.051V24.9738H359.745V21.2793Z" fill="white"/>
<path d="M308.025 36.0547H304.33V39.7492H308.025V36.0547Z" fill="white"/>
<path d="M348.665 21.2793H344.971V24.9738H348.665V21.2793Z" fill="white"/>
<path d="M341.273 21.2793H337.578V24.9738H341.273V21.2793Z" fill="white"/>
<path d="M344.968 21.2793H341.273V24.9738H344.968V21.2793Z" fill="white"/>
<path d="M308.025 39.748H304.33V43.4426H308.025V39.748Z" fill="#D9D9D9"/>
<path d="M308.025 50.832H304.33V54.5266H308.025V50.832Z" fill="white"/>
<path d="M308.025 54.5254H304.33V58.2199H308.025V54.5254Z" fill="white"/>
<path d="M308.025 43.4434H304.33V47.1379H308.025V43.4434Z" fill="white"/>
<path d="M308.025 47.1387H304.33V50.8332H308.025V47.1387Z" fill="white"/>
<path d="M308.025 65.6094H304.33V69.3039H308.025V65.6094Z" fill="#FFF7C7"/>
<path d="M308.025 58.2207H304.33V61.9152H308.025V58.2207Z" fill="white"/>
<path d="M308.025 69.3027H304.33V72.9973H308.025V69.3027Z" fill="#FFF7C7"/>
<path d="M308.025 61.916H304.33V65.6105H308.025V61.916Z" fill="white"/>
<path d="M378.216 21.2793H374.521V24.9738H378.216V21.2793Z" fill="#FFF7C7"/>
<path d="M385.607 39.748H381.912V43.4426H385.607V39.748Z" fill="#D9D9D9"/>
<path d="M385.607 36.0547H381.912V39.7492H385.607V36.0547Z" fill="#D9D9D9"/>
<path d="M385.607 32.3594H381.912V36.0539H385.607V32.3594Z" fill="#D9D9D9"/>
<path d="M374.521 21.2793H370.826V24.9738H374.521V21.2793Z" fill="white"/>
<path d="M370.829 21.2793H367.135V24.9738H370.829V21.2793Z" fill="#D9D9D9"/>
<path d="M385.607 54.5254H381.912V58.2199H385.607V54.5254Z" fill="#FFF7C7"/>
<path d="M385.607 43.4434H381.912V47.1379H385.607V43.4434Z" fill="#D9D9D9"/>
<path d="M385.607 61.916H381.912V65.6105H385.607V61.916Z" fill="#FFF7C7"/>
<path d="M385.607 47.1387H381.912V50.8332H385.607V47.1387Z" fill="#D9D9D9"/>
<path d="M385.607 50.832H381.912V54.5266H385.607V50.832Z" fill="#D9D9D9"/>
<path d="M385.607 58.2207H381.912V61.9152H385.607V58.2207Z" fill="#FFF7C7"/>
<path d="M326.497 28.666H322.803V32.3605H326.497V28.666Z" fill="#FFF7C7"/>
<path d="M263.695 43.4434H260V47.1379H263.695V43.4434Z" fill="#FFF7C7"/>
<path d="M263.695 47.1387H260V50.8332H263.695V47.1387Z" fill="#D9D9D9"/>
<path d="M263.695 54.5254H260V58.2199H263.695V54.5254Z" fill="#FFF7C7"/>
<path d="M263.695 58.2207H260V61.9152H263.695V58.2207Z" fill="#FFF7C7"/>
<path d="M263.695 50.832H260V54.5266H263.695V50.832Z" fill="#D9D9D9"/>
<path d="M274.777 47.1387H271.082V50.8332H274.777V47.1387Z" fill="#D9D9D9"/>
<path d="M274.777 50.832H271.082V54.5266H274.777V50.832Z" fill="#D9D9D9"/>
<path d="M274.777 54.5254H271.082V58.2199H274.777V54.5254Z" fill="#D9D9D9"/>
<path d="M274.777 43.4434H271.082V47.1379H274.777V43.4434Z" fill="#FFF7C7"/>
<path d="M274.777 58.2207H271.082V61.9152H274.777V58.2207Z" fill="#FFF7C7"/>
<path d="M274.777 61.916H271.082V65.6105H274.777V61.916Z" fill="#FFF7C7"/>
<path d="M274.777 36.0547H271.082V39.7492H274.777V36.0547Z" fill="#FFF7C7"/>
<path d="M274.777 39.748H271.082V43.4426H274.777V39.748Z" fill="#FFF7C7"/>
<path d="M278.474 58.2207H274.779V61.9152H278.474V58.2207Z" fill="#D9D9D9"/>
<path d="M278.474 54.5254H274.779V58.2199H278.474V54.5254Z" fill="#D9D9D9"/>
<path d="M278.474 61.916H274.779V65.6105H278.474V61.916Z" fill="#FFF7C7"/>
<path d="M278.474 50.832H274.779V54.5266H278.474V50.832Z" fill="#D9D9D9"/>
<path d="M278.474 28.666H274.779V32.3605H278.474V28.666Z" fill="#FFF7C7"/>
<path d="M278.474 36.0547H274.779V39.7492H278.474V36.0547Z" fill="white"/>
<path d="M278.474 39.748H274.779V43.4426H278.474V39.748Z" fill="white"/>
<path d="M278.474 32.3594H274.779V36.0539H278.474V32.3594Z" fill="#FFF7C7"/>
<path d="M278.474 47.1387H274.779V50.8332H278.474V47.1387Z" fill="white"/>
<path d="M278.474 43.4434H274.779V47.1379H278.474V43.4434Z" fill="white"/>
<path d="M267.388 54.5254H263.693V58.2199H267.388V54.5254Z" fill="#FFF7C7"/>
<path d="M267.388 58.2207H263.693V61.9152H267.388V58.2207Z" fill="#FFF7C7"/>
<path d="M267.388 50.832H263.693V54.5266H267.388V50.832Z" fill="#D9D9D9"/>
<path d="M267.388 47.1387H263.693V50.8332H267.388V47.1387Z" fill="#D9D9D9"/>
<path d="M267.388 39.75H263.693V43.4445H267.388V39.75Z" fill="#FFF7C7"/>
<path d="M267.388 43.4434H263.693V47.1379H267.388V43.4434Z" fill="#FFF7C7"/>
<path d="M271.083 50.832H267.389V54.5266H271.083V50.832Z" fill="#D9D9D9"/>
<path d="M271.083 47.1387H267.389V50.8332H271.083V47.1387Z" fill="#D9D9D9"/>
<path d="M271.083 43.4434H267.389V47.1379H271.083V43.4434Z" fill="#FFF7C7"/>
<path d="M271.083 39.748H267.389V43.4426H271.083V39.748Z" fill="#FFF7C7"/>
<path d="M271.083 54.5254H267.389V58.2199H271.083V54.5254Z" fill="#D9D9D9"/>
<path d="M271.083 61.916H267.389V65.6105H271.083V61.916Z" fill="#FFF7C7"/>
<path d="M271.083 58.2207H267.389V61.9152H271.083V58.2207Z" fill="#FFF7C7"/>
<path d="M271.083 36.0547H267.389V39.7492H271.083V36.0547Z" fill="#FFF7C7"/>
</svg>
