<svg width="1440" height="620" viewBox="0 0 1440 620" fill="none" xmlns="http://www.w3.org/2000/svg">
<g clip-path="url(#clip0_443_105)">
<rect width="1440" height="620" fill="#4DAFF6"/>
<g style="mix-blend-mode:soft-light">
<path d="M-258.219 429.576V518.472C-147.677 484.366 -31.4605 466.624 87.4487 466.624C88.4526 466.624 89.4455 466.628 90.4479 466.628C204.177 466.912 315.391 483.416 421.488 514.916V426.312C199.353 365.484 -36.5265 366.56 -258.219 429.576Z" fill="#EFDABF"/>
<path d="M-258.219 236.238V324.17C-144.825 294.295 -27.9937 279.319 90.9196 279.629C203.872 279.912 314.699 293.935 421.488 320.884V233.424C198.213 180.775 -35.3549 181.703 -258.219 236.238Z" fill="#F7B350"/>
<path d="M-243.488 620.462H418.567C203.923 550.931 -28.7831 550.931 -243.488 620.462Z" fill="#027967"/>
<path d="M-258.219 527.075V616.81C-148.326 579.567 -31.9101 560.13 87.4529 560.13C88.377 560.13 89.2914 560.13 90.2127 560.134C204.433 560.421 315.903 578.473 421.487 612.882V523.493C200.126 457.523 -37.3818 458.719 -258.219 527.075Z" fill="#10A27C"/>
<path d="M-258.219 332.637V420.926C-147.16 389.466 -31.0988 373.127 87.4391 373.127C88.5241 373.127 89.5967 373.127 90.6789 373.131C203.991 373.414 314.998 388.596 421.487 417.641V329.706C198.744 273.262 -35.8513 274.177 -258.219 332.637Z" fill="#FDCD8C"/>
<path d="M-258.219 140.276V227.651C-146.832 200.355 -32.4025 186.419 83.8679 186.129C85.1013 186.125 86.35 186.122 87.5835 186.122C200.961 186.122 312.623 199.162 421.487 224.878V137.585C197.847 88.236 -34.8626 89.1723 -258.219 140.276Z" fill="#F59342"/>
<path d="M139.312 0C234.745 2.96008 328.971 14.1304 421.487 33.3312V0H139.312Z" fill="#CE3D29"/>
<path d="M-258.219 0V35.7242C-161.515 14.9075 -62.9084 3.02873 36.9621 0H-258.219Z" fill="#CE3D29"/>
<path d="M-258.219 44.4614V131.622C-145.426 105.765 -29.8515 92.6232 87.4351 92.6232C88.7607 92.6232 90.0643 92.626 91.39 92.6301C203.34 92.9074 313.69 105.057 421.487 128.871V42.1151C197.517 -4.32781 -34.4927 -3.62624 -258.219 44.4614Z" fill="#EA6234"/>
</g>
<g style="mix-blend-mode:soft-light">
<path d="M1320.71 25.676C1300.84 21.3859 1280.24 19.0684 1259.09 19.0684C1221.98 19.0684 1186.54 26.0962 1153.92 38.7718C1143.73 43.4743 1133.56 48.2219 1123.42 52.9582C1122.03 53.6071 1120.64 54.256 1119.24 54.9061C1066.11 84.1429 1023.14 129.502 996.949 184.402C1038.79 165.281 1080.47 142.206 1121.48 119.472C1187.19 83.0444 1253.76 46.1545 1320.71 25.676Z" fill="#13789F"/>
<path d="M1501.72 149.892C1481.98 119.926 1456.83 93.8593 1427.65 73.0281C1412.43 72.5291 1396.9 73.4562 1381.05 75.8661C1295.4 88.8988 1208.08 142.059 1123.63 193.464C1073.02 224.266 1021.9 255.364 970.48 278.318C969.428 288.347 968.869 298.521 968.869 308.829C968.869 321.629 969.788 334.205 971.399 346.567C1021.77 322.893 1072.06 291.222 1121.38 260.153C1246.13 181.551 1374.01 101.001 1501.72 149.892Z" fill="#F2D3A4"/>
<path d="M1421.88 68.9295C1393.95 50.0001 1362.53 35.8476 1328.8 27.541C1260.08 47.5689 1190.9 85.8614 1123.55 123.201C1080.79 146.908 1037.66 170.814 994.291 190.264C982.627 216.188 974.682 244.124 971.104 273.419C1021.58 250.528 1071.98 219.91 1121.4 189.827C1220.15 129.717 1320.85 68.4338 1421.88 68.9295Z" fill="#489E9F"/>
<path d="M1123.24 558.589C1120.94 559.417 1118.63 560.245 1116.32 561.069C1158.49 584.914 1207.17 598.587 1259.09 598.587C1349.44 598.587 1430.14 557.358 1483.36 492.724C1362.57 472.6 1241.49 516.098 1123.24 558.589Z" fill="#E62925"/>
<path d="M1381.03 301.521C1295.36 313.668 1208.03 363.212 1123.57 411.122C1088.33 431.117 1052.83 451.237 1017.16 468.847C1027.78 484.818 1039.91 499.695 1053.41 513.231C1076.22 502.845 1098.96 491.904 1121.59 481.01C1256.13 416.227 1394.29 349.741 1531.98 407.642C1540.38 384.502 1545.87 359.974 1548.11 334.516C1496.31 303.846 1441.01 293.01 1381.03 301.521Z" fill="#F2B923"/>
<path d="M1543.58 251.357C1493.09 220.185 1439.27 209.295 1381.05 218.271C1295.41 231.479 1208.09 285.338 1123.64 337.425C1079.09 364.897 1034.15 392.6 988.951 414.709C995.945 432.478 1004.63 449.38 1014.84 465.235C1050.66 447.542 1086.31 427.359 1121.46 407.418C1261.42 328.021 1405.3 246.438 1548.47 329.773C1548.97 322.849 1549.31 315.878 1549.31 308.829C1549.31 289.149 1547.33 269.937 1543.58 251.357Z" fill="#F1A477"/>
<path d="M1123.38 483.858C1101.17 494.395 1078.86 504.972 1056.47 515.042C1072.85 531.155 1091.14 545.338 1110.98 557.226C1114.43 556.01 1117.88 554.795 1121.33 553.578C1241.22 511.284 1363.98 467.986 1486.33 489.961C1504.85 466.965 1519.92 441.098 1530.77 413.105C1394.83 355.13 1257.3 420.339 1123.38 483.858Z" fill="#F16622"/>
<path d="M1542.27 245.488C1535.09 213.355 1522.6 183.239 1505.71 156.108C1466.35 139.771 1424.96 135.135 1381.06 142.056C1295.42 155.542 1208.1 210.555 1123.65 263.757C1073.52 295.342 1022.88 327.221 971.953 350.911C974.977 371.656 980.203 391.68 987.386 410.755C1032.41 388.629 1077.29 361.002 1121.39 333.8C1259.35 248.7 1401.12 161.276 1542.27 245.488Z" fill="#C6AD98"/>
</g>
</g>
<defs>
<clipPath id="clip0_443_105">
<rect width="1440" height="620" fill="white"/>
</clipPath>
</defs>
</svg>
