<svg width="272" height="157" viewBox="0 0 272 157" fill="none" xmlns="http://www.w3.org/2000/svg">
<path d="M42.8165 107.047H35.6797V114.184H42.8165V107.047Z" fill="#D9D9D9"/>
<path d="M42.8165 85.6348H35.6797V92.7716H42.8165V85.6348Z" fill="#D9D9D9"/>
<path d="M42.8165 99.9082H35.6797V107.045H42.8165V99.9082Z" fill="#D9D9D9"/>
<path d="M42.8165 121.316H35.6797V128.453H42.8165V121.316Z" fill="#D9D9D9"/>
<path d="M42.8165 92.7715H35.6797V99.9083H42.8165V92.7715Z" fill="#D9D9D9"/>
<path d="M42.8165 114.18H35.6797V121.317H42.8165V114.18Z" fill="#D9D9D9"/>
<path d="M42.8185 142.727H35.6816V149.863H42.8185V142.727Z" fill="#FFF7C7"/>
<path d="M42.8165 135.59H35.6797V142.727H42.8165V135.59Z" fill="#FFF7C7"/>
<path d="M42.8165 128.453H35.6797V135.59H42.8165V128.453Z" fill="#D9D9D9"/>
<path d="M42.8165 42.8184H35.6797V49.9552H42.8165V42.8184Z" fill="white"/>
<path d="M42.8165 14.2734H35.6797V21.4103H42.8165V14.2734Z" fill="white"/>
<path d="M42.8165 35.6816H35.6797V42.8185H42.8165V35.6816Z" fill="white"/>
<path d="M42.8165 21.4102H35.6797V28.547H42.8165V21.4102Z" fill="white"/>
<path d="M42.8165 57.0918H35.6797V64.2286H42.8165V57.0918Z" fill="white"/>
<path d="M42.8165 64.2285H35.6797V71.3653H42.8165V64.2285Z" fill="white"/>
<path d="M42.8165 71.3613H35.6797V78.4982H42.8165V71.3613Z" fill="#D9D9D9"/>
<path d="M42.8165 49.9551H35.6797V57.0919H42.8165V49.9551Z" fill="white"/>
<path d="M42.8185 78.498H35.6816V85.6349H42.8185V78.498Z" fill="#D9D9D9"/>
<path d="M42.8165 28.543H35.6797V35.6798H42.8165V28.543Z" fill="white"/>
<path d="M249.772 92.7715H242.635V99.9083H249.772V92.7715Z" fill="white"/>
<path d="M249.772 114.18H242.635V121.317H249.772V114.18Z" fill="#FFF7C7"/>
<path d="M249.772 107.047H242.635V114.184H249.772V107.047Z" fill="white"/>
<path d="M249.772 99.9082H242.635V107.045H249.772V99.9082Z" fill="white"/>
<path d="M249.772 121.316H242.635V128.453H249.772V121.316Z" fill="#FFF7C7"/>
<path d="M249.772 128.453H242.635V135.59H249.772V128.453Z" fill="#FFF7C7"/>
<path d="M256.906 114.18H249.77V121.317H256.906V114.18Z" fill="#FFF7C7"/>
<path d="M256.906 128.453H249.77V135.59H256.906V128.453Z" fill="#FFF7C7"/>
<path d="M256.906 121.316H249.77V128.453H256.906V121.316Z" fill="#FFF7C7"/>
<path d="M256.906 107.047H249.77V114.184H256.906V107.047Z" fill="white"/>
<path d="M49.9532 135.59H42.8164V142.727H49.9532V135.59Z" fill="#D9D9D9"/>
<path d="M242.635 121.316H235.498V128.453H242.635V121.316Z" fill="#FFF7C7"/>
<path d="M242.635 135.59H235.498V142.727H242.635V135.59Z" fill="#FFF7C7"/>
<path d="M242.635 128.453H235.498V135.59H242.635V128.453Z" fill="#FFF7C7"/>
<path d="M242.635 114.18H235.498V121.317H242.635V114.18Z" fill="white"/>
<path d="M242.635 99.9082H235.498V107.045H242.635V99.9082Z" fill="white"/>
<path d="M242.635 92.7715H235.498V99.9083H242.635V92.7715Z" fill="white"/>
<path d="M242.635 107.047H235.498V114.184H242.635V107.047Z" fill="white"/>
<path d="M57.09 107.047H49.9531V114.184H57.09V107.047Z" fill="#D9D9D9"/>
<path d="M57.09 92.7715H49.9531V99.9083H57.09V92.7715Z" fill="#D9D9D9"/>
<path d="M57.09 99.9082H49.9531V107.045H57.09V99.9082Z" fill="#D9D9D9"/>
<path d="M57.09 85.6348H49.9531V92.7716H57.09V85.6348Z" fill="#D9D9D9"/>
<path d="M57.09 71.3613H49.9531V78.4982H57.09V71.3613Z" fill="#D9D9D9"/>
<path d="M57.09 78.498H49.9531V85.6349H57.09V78.498Z" fill="#D9D9D9"/>
<path d="M57.09 135.59H49.9531V142.727H57.09V135.59Z" fill="#D9D9D9"/>
<path d="M57.09 128.453H49.9531V135.59H57.09V128.453Z" fill="#D9D9D9"/>
<path d="M57.09 121.316H49.9531V128.453H57.09V121.316Z" fill="#D9D9D9"/>
<path d="M57.09 114.18H49.9531V121.317H57.09V114.18Z" fill="#D9D9D9"/>
<path d="M57.09 57.0918H49.9531V64.2286H57.09V57.0918Z" fill="white"/>
<path d="M57.09 21.4102H49.9531V28.547H57.09V21.4102Z" fill="white"/>
<path d="M57.09 7.13672H49.9531V14.2735H57.09V7.13672Z" fill="white"/>
<path d="M57.09 28.543H49.9531V35.6798H57.09V28.543Z" fill="white"/>
<path d="M57.09 35.6816H49.9531V42.8185H57.09V35.6816Z" fill="white"/>
<path d="M57.09 64.2285H49.9531V71.3653H57.09V64.2285Z" fill="white"/>
<path d="M57.09 142.727H49.9531V149.863H57.09V142.727Z" fill="#FFF7C7"/>
<path d="M57.09 49.9531H49.9531V57.09H57.09V49.9531Z" fill="white"/>
<path d="M57.09 42.8164H49.9531V49.9532H57.09V42.8164Z" fill="white"/>
<path d="M57.09 14.2734H49.9531V21.4103H57.09V14.2734Z" fill="white"/>
<path d="M57.09 149.863H49.9531V157H57.09V149.863Z" fill="#FFF7C7"/>
<path d="M49.9552 142.727H42.8184V149.863H49.9552V142.727Z" fill="#FFF7C7"/>
<path d="M49.9532 107.047H42.8164V114.184H49.9532V107.047Z" fill="#D9D9D9"/>
<path d="M49.9532 121.316H42.8164V128.453H49.9532V121.316Z" fill="#D9D9D9"/>
<path d="M49.9532 128.453H42.8164V135.59H49.9532V128.453Z" fill="#D9D9D9"/>
<path d="M49.9532 114.18H42.8164V121.317H49.9532V114.18Z" fill="#D9D9D9"/>
<path d="M49.9552 149.863H42.8184V157H49.9552V149.863Z" fill="#FFF7C7"/>
<path d="M49.9532 49.9551H42.8164V57.0919H49.9532V49.9551Z" fill="white"/>
<path d="M49.9532 99.9082H42.8164V107.045H49.9532V99.9082Z" fill="#D9D9D9"/>
<path d="M49.9532 57.0918H42.8164V64.2286H49.9532V57.0918Z" fill="white"/>
<path d="M49.9532 64.2285H42.8164V71.3653H49.9532V64.2285Z" fill="white"/>
<path d="M49.9532 42.8184H42.8164V49.9552H49.9532V42.8184Z" fill="white"/>
<path d="M49.9532 85.6348H42.8164V92.7716H49.9532V85.6348Z" fill="#D9D9D9"/>
<path d="M49.9532 92.7715H42.8164V99.9083H49.9532V92.7715Z" fill="#D9D9D9"/>
<path d="M49.9532 35.6816H42.8164V42.8185H49.9532V35.6816Z" fill="white"/>
<path d="M49.9552 78.498H42.8184V85.6349H49.9552V78.498Z" fill="#D9D9D9"/>
<path d="M49.9532 71.3613H42.8164V78.4982H49.9532V71.3613Z" fill="#D9D9D9"/>
<path d="M49.9532 14.2734H42.8164V21.4103H49.9532V14.2734Z" fill="white"/>
<path d="M49.9532 28.543H42.8164V35.6798H49.9532V28.543Z" fill="white"/>
<path d="M49.9532 21.4102H42.8164V28.547H49.9532V21.4102Z" fill="white"/>
<path d="M49.9552 7.13672H42.8184V14.2735H49.9552V7.13672Z" fill="white"/>
<path d="M271.18 121.316H264.043V128.453H271.18V121.316Z" fill="#FFF7C7"/>
<path d="M271.18 114.18H264.043V121.317H271.18V114.18Z" fill="#FFF7C7"/>
<path d="M271.18 107.047H264.043V114.184H271.18V107.047Z" fill="#FFF7C7"/>
<path d="M28.547 107.047H21.4102V114.184H28.547V107.047Z" fill="#D9D9D9"/>
<path d="M28.547 99.9082H21.4102V107.045H28.547V99.9082Z" fill="#D9D9D9"/>
<path d="M28.547 92.7715H21.4102V99.9083H28.547V92.7715Z" fill="#D9D9D9"/>
<path d="M28.547 114.18H21.4102V121.317H28.547V114.18Z" fill="#D9D9D9"/>
<path d="M28.547 135.59H21.4102V142.727H28.547V135.59Z" fill="#FFF7C7"/>
<path d="M28.547 121.316H21.4102V128.453H28.547V121.316Z" fill="#D9D9D9"/>
<path d="M28.547 142.727H21.4102V149.863H28.547V142.727Z" fill="#FFF7C7"/>
<path d="M28.547 128.453H21.4102V135.59H28.547V128.453Z" fill="#FFF7C7"/>
<path d="M21.4103 64.2285H14.2734V71.3653H21.4103V64.2285Z" fill="white"/>
<path d="M21.4103 42.8164H14.2734V49.9532H21.4103V42.8164Z" fill="white"/>
<path d="M21.4103 49.9531H14.2734V57.09H21.4103V49.9531Z" fill="white"/>
<path d="M21.4103 71.3613H14.2734V78.4982H21.4103V71.3613Z" fill="white"/>
<path d="M21.4103 92.7715H14.2734V99.9083H21.4103V92.7715Z" fill="#D9D9D9"/>
<path d="M21.4103 99.9082H14.2734V107.045H21.4103V99.9082Z" fill="#D9D9D9"/>
<path d="M21.4103 85.6348H14.2734V92.7716H21.4103V85.6348Z" fill="#D9D9D9"/>
<path d="M21.4103 78.498H14.2734V85.6349H21.4103V78.498Z" fill="#D9D9D9"/>
<path d="M21.4103 107.047H14.2734V114.184H21.4103V107.047Z" fill="#D9D9D9"/>
<path d="M28.547 85.6348H21.4102V92.7716H28.547V85.6348Z" fill="#D9D9D9"/>
<path d="M21.4103 135.59H14.2734V142.727H21.4103V135.59Z" fill="#FFF7C7"/>
<path d="M21.4103 128.453H14.2734V135.59H21.4103V128.453Z" fill="#FFF7C7"/>
<path d="M21.4103 114.18H14.2734V121.317H21.4103V114.18Z" fill="#D9D9D9"/>
<path d="M21.4103 121.316H14.2734V128.453H21.4103V121.316Z" fill="#FFF7C7"/>
<path d="M21.4103 57.0918H14.2734V64.2286H21.4103V57.0918Z" fill="white"/>
<path d="M35.6817 142.727H28.5449V149.863H35.6817V142.727Z" fill="#FFF7C7"/>
<path d="M35.6798 92.7715H28.543V99.9083H35.6798V92.7715Z" fill="#D9D9D9"/>
<path d="M35.6798 99.9082H28.543V107.045H35.6798V99.9082Z" fill="#D9D9D9"/>
<path d="M28.547 78.498H21.4102V85.6349H28.547V78.498Z" fill="#D9D9D9"/>
<path d="M35.6817 78.498H28.5449V85.6349H35.6817V78.498Z" fill="#D9D9D9"/>
<path d="M35.6798 85.6348H28.543V92.7716H35.6798V85.6348Z" fill="#D9D9D9"/>
<path d="M35.6798 135.59H28.543V142.727H35.6798V135.59Z" fill="#FFF7C7"/>
<path d="M35.6798 128.453H28.543V135.59H35.6798V128.453Z" fill="#D9D9D9"/>
<path d="M35.6798 121.316H28.543V128.453H35.6798V121.316Z" fill="#D9D9D9"/>
<path d="M35.6798 114.18H28.543V121.317H35.6798V114.18Z" fill="#D9D9D9"/>
<path d="M35.6798 107.047H28.543V114.184H35.6798V107.047Z" fill="#D9D9D9"/>
<path d="M35.6798 21.4102H28.543V28.547H35.6798V21.4102Z" fill="white"/>
<path d="M35.6798 28.543H28.543V35.6798H35.6798V28.543Z" fill="white"/>
<path d="M35.6798 71.3613H28.543V78.4982H35.6798V71.3613Z" fill="#D9D9D9"/>
<path d="M35.6798 35.6816H28.543V42.8185H35.6798V35.6816Z" fill="white"/>
<path d="M35.6798 42.8184H28.543V49.9552H35.6798V42.8184Z" fill="white"/>
<path d="M35.6798 57.0918H28.543V64.2286H35.6798V57.0918Z" fill="white"/>
<path d="M35.6798 64.2285H28.543V71.3653H35.6798V64.2285Z" fill="white"/>
<path d="M35.6798 49.9551H28.543V57.0919H35.6798V49.9551Z" fill="#D9D9D9"/>
<path d="M28.547 35.6816H21.4102V42.8185H28.547V35.6816Z" fill="white"/>
<path d="M28.547 42.8164H21.4102V49.9532H28.547V42.8164Z" fill="white"/>
<path d="M28.547 64.2285H21.4102V71.3653H28.547V64.2285Z" fill="white"/>
<path d="M28.547 71.3613H21.4102V78.4982H28.547V71.3613Z" fill="#D9D9D9"/>
<path d="M28.547 57.0918H21.4102V64.2286H28.547V57.0918Z" fill="white"/>
<path d="M28.547 49.9531H21.4102V57.09H28.547V49.9531Z" fill="white"/>
<path d="M28.547 28.543H21.4102V35.6798H28.547V28.543Z" fill="white"/>
<path d="M264.043 121.316H256.906V128.453H264.043V121.316Z" fill="#FFF7C7"/>
<path d="M264.043 114.18H256.906V121.317H264.043V114.18Z" fill="#FFF7C7"/>
<path d="M264.043 107.047H256.906V114.184H264.043V107.047Z" fill="#FFF7C7"/>
<path d="M264.043 128.453H256.906V135.59H264.043V128.453Z" fill="#FFF7C7"/>
<path d="M199.817 92.7715H192.68V99.9083H199.817V92.7715Z" fill="#D9D9D9"/>
<path d="M199.817 99.9082H192.68V107.045H199.817V99.9082Z" fill="#D9D9D9"/>
<path d="M199.817 114.18H192.68V121.317H199.817V114.18Z" fill="#D9D9D9"/>
<path d="M199.817 121.316H192.68V128.453H199.817V121.316Z" fill="#D9D9D9"/>
<path d="M199.817 71.3613H192.68V78.4982H199.817V71.3613Z" fill="#FFF7C7"/>
<path d="M199.817 128.453H192.68V135.59H199.817V128.453Z" fill="#D9D9D9"/>
<path d="M199.817 78.498H192.68V85.6349H199.817V78.498Z" fill="white"/>
<path d="M199.817 85.6348H192.68V92.7716H199.817V85.6348Z" fill="white"/>
<path d="M199.817 107.047H192.68V114.184H199.817V107.047Z" fill="#D9D9D9"/>
<path d="M171.27 142.727H164.133V149.863H171.27V142.727Z" fill="#FFF7C7"/>
<path d="M142.727 142.727H135.59V149.863H142.727V142.727Z" fill="#FFF7C7"/>
<path d="M164.133 142.727H156.996V149.863H164.133V142.727Z" fill="#FFF7C7"/>
<path d="M149.863 142.727H142.727V149.863H149.863V142.727Z" fill="#FFF7C7"/>
<path d="M192.68 142.727H185.543V149.863H192.68V142.727Z" fill="#FFF7C7"/>
<path d="M199.817 135.59H192.68V142.727H199.817V135.59Z" fill="#D9D9D9"/>
<path d="M199.817 142.727H192.68V149.863H199.817V142.727Z" fill="#FFF7C7"/>
<path d="M157 142.727H149.863V149.863H157V142.727Z" fill="#FFF7C7"/>
<path d="M128.453 35.6816H121.316V42.8185H128.453V35.6816Z" fill="#FFF7C7"/>
<path d="M114.184 35.6816H107.047V42.8185H114.184V35.6816Z" fill="white"/>
<path d="M135.59 35.6816H128.453V42.8185H135.59V35.6816Z" fill="#FFF7C7"/>
<path d="M107.047 35.6816H99.9102V42.8185H107.047V35.6816Z" fill="white"/>
<path d="M92.7716 35.6816H85.6348V42.8185H92.7716V35.6816Z" fill="white"/>
<path d="M92.7716 42.8164H85.6348V49.9532H92.7716V42.8164Z" fill="white"/>
<path d="M142.727 35.6816H135.59V42.8185H142.727V35.6816Z" fill="#FFF7C7"/>
<path d="M99.9083 35.6816H92.7715V42.8185H99.9083V35.6816Z" fill="white"/>
<path d="M92.7716 49.9531H85.6348V57.09H92.7716V49.9531Z" fill="white"/>
<path d="M121.317 35.6816H114.18V42.8185H121.317V35.6816Z" fill="white"/>
<path d="M142.727 42.8164H135.59V49.9532H142.727V42.8164Z" fill="#FFF7C7"/>
<path d="M135.59 142.727H128.453V149.863H135.59V142.727Z" fill="#FFF7C7"/>
<path d="M128.453 42.8164H121.316V49.9532H128.453V42.8164Z" fill="white"/>
<path d="M121.317 42.8164H114.18V49.9532H121.317V42.8164Z" fill="white"/>
<path d="M114.184 42.8164H107.047V49.9532H114.184V42.8164Z" fill="white"/>
<path d="M192.68 57.0918H185.543V64.2286H192.68V57.0918Z" fill="#FFF7C7"/>
<path d="M192.68 78.498H185.543V85.6349H192.68V78.498Z" fill="white"/>
<path d="M192.68 85.6348H185.543V92.7716H192.68V85.6348Z" fill="white"/>
<path d="M192.68 92.7715H185.543V99.9083H192.68V92.7715Z" fill="white"/>
<path d="M192.68 71.3613H185.543V78.4982H192.68V71.3613Z" fill="white"/>
<path d="M107.047 42.8164H99.9102V49.9532H107.047V42.8164Z" fill="white"/>
<path d="M192.68 64.2285H185.543V71.3653H192.68V64.2285Z" fill="#FFF7C7"/>
<path d="M99.9083 128.453H92.7715V135.59H99.9083V128.453Z" fill="#D9D9D9"/>
<path d="M99.9083 135.59H92.7715V142.727H99.9083V135.59Z" fill="#FFF7C7"/>
<path d="M99.9083 121.316H92.7715V128.453H99.9083V121.316Z" fill="#D9D9D9"/>
<path d="M99.9083 114.18H92.7715V121.317H99.9083V114.18Z" fill="#D9D9D9"/>
<path d="M99.9083 142.727H92.7715V149.863H99.9083V142.727Z" fill="#FFF7C7"/>
<path d="M192.68 99.9082H185.543V107.045H192.68V99.9082Z" fill="#D9D9D9"/>
<path d="M99.9083 42.8164H92.7715V49.9532H99.9083V42.8164Z" fill="white"/>
<path d="M114.184 142.727H107.047V149.863H114.184V142.727Z" fill="#FFF7C7"/>
<path d="M107.047 142.727H99.9102V149.863H107.047V142.727Z" fill="#FFF7C7"/>
<path d="M121.317 142.727H114.18V149.863H121.317V142.727Z" fill="#FFF7C7"/>
<path d="M99.9083 71.3613H92.7715V78.4982H99.9083V71.3613Z" fill="white"/>
<path d="M99.9083 57.0918H92.7715V64.2286H99.9083V57.0918Z" fill="white"/>
<path d="M99.9083 64.2285H92.7715V71.3653H99.9083V64.2285Z" fill="white"/>
<path d="M99.9083 49.9531H92.7715V57.09H99.9083V49.9531Z" fill="white"/>
<path d="M99.9083 78.498H92.7715V85.6349H99.9083V78.498Z" fill="white"/>
<path d="M99.9083 107.047H92.7715V114.184H99.9083V107.047Z" fill="#D9D9D9"/>
<path d="M99.9083 99.9082H92.7715V107.045H99.9083V99.9082Z" fill="#D9D9D9"/>
<path d="M99.9083 92.7715H92.7715V99.9083H99.9083V92.7715Z" fill="#D9D9D9"/>
<path d="M99.9083 85.6348H92.7715V92.7716H99.9083V85.6348Z" fill="white"/>
<path d="M128.453 142.727H121.316V149.863H128.453V142.727Z" fill="#FFF7C7"/>
<path d="M99.9083 28.543H92.7715V35.6798H99.9083V28.543Z" fill="white"/>
<path d="M121.317 28.543H114.18V35.6798H121.317V28.543Z" fill="white"/>
<path d="M135.59 28.543H128.453V35.6798H135.59V28.543Z" fill="#FFF7C7"/>
<path d="M114.184 28.543H107.047V35.6798H114.184V28.543Z" fill="white"/>
<path d="M128.453 28.543H121.316V35.6798H128.453V28.543Z" fill="#FFF7C7"/>
<path d="M85.6349 114.18H78.498V121.317H85.6349V114.18Z" fill="#D9D9D9"/>
<path d="M85.6349 121.316H78.498V128.453H85.6349V121.316Z" fill="#D9D9D9"/>
<path d="M85.6349 107.047H78.498V114.184H85.6349V107.047Z" fill="#D9D9D9"/>
<path d="M85.6349 99.9082H78.498V107.045H85.6349V99.9082Z" fill="#D9D9D9"/>
<path d="M85.6349 149.863H78.498V157H85.6349V149.863Z" fill="#FFF7C7"/>
<path d="M92.7716 28.543H85.6348V35.6798H92.7716V28.543Z" fill="white"/>
<path d="M85.6349 142.727H78.498V149.863H85.6349V142.727Z" fill="#FFF7C7"/>
<path d="M85.6349 92.7715H78.498V99.9083H85.6349V92.7715Z" fill="#D9D9D9"/>
<path d="M85.6349 135.59H78.498V142.727H85.6349V135.59Z" fill="#FFF7C7"/>
<path d="M85.6349 128.453H78.498V135.59H85.6349V128.453Z" fill="#D9D9D9"/>
<path d="M85.6349 35.6816H78.498V42.8185H85.6349V35.6816Z" fill="white"/>
<path d="M85.6349 42.8184H78.498V49.9552H85.6349V42.8184Z" fill="white"/>
<path d="M85.6349 85.6348H78.498V92.7716H85.6349V85.6348Z" fill="#D9D9D9"/>
<path d="M85.6349 28.543H78.498V35.6798H85.6349V28.543Z" fill="white"/>
<path d="M85.6349 49.9551H78.498V57.0919H85.6349V49.9551Z" fill="white"/>
<path d="M85.6349 78.498H78.498V85.6349H85.6349V78.498Z" fill="white"/>
<path d="M85.6349 57.0918H78.498V64.2286H85.6349V57.0918Z" fill="white"/>
<path d="M85.6349 71.3613H78.498V78.4982H85.6349V71.3613Z" fill="white"/>
<path d="M85.6349 64.2285H78.498V71.3653H85.6349V64.2285Z" fill="white"/>
<path d="M206.953 107.047H199.816V114.184H206.953V107.047Z" fill="#D9D9D9"/>
<path d="M92.7716 149.863H85.6348V157H92.7716V149.863Z" fill="#FFF7C7"/>
<path d="M92.7716 142.727H85.6348V149.863H92.7716V142.727Z" fill="#FFF7C7"/>
<path d="M92.7716 135.59H85.6348V142.727H92.7716V135.59Z" fill="#FFF7C7"/>
<path d="M92.7716 128.453H85.6348V135.59H92.7716V128.453Z" fill="#D9D9D9"/>
<path d="M92.7716 92.7715H85.6348V99.9083H92.7716V92.7715Z" fill="#D9D9D9"/>
<path d="M92.7716 85.6348H85.6348V92.7716H92.7716V85.6348Z" fill="#D9D9D9"/>
<path d="M92.7716 71.3613H85.6348V78.4982H92.7716V71.3613Z" fill="white"/>
<path d="M92.7716 78.498H85.6348V85.6349H92.7716V78.498Z" fill="white"/>
<path d="M92.7716 121.316H85.6348V128.453H92.7716V121.316Z" fill="#D9D9D9"/>
<path d="M92.7716 64.2285H85.6348V71.3653H92.7716V64.2285Z" fill="white"/>
<path d="M92.7716 107.047H85.6348V114.184H92.7716V107.047Z" fill="#D9D9D9"/>
<path d="M92.7716 114.18H85.6348V121.317H92.7716V114.18Z" fill="#D9D9D9"/>
<path d="M92.7716 99.9082H85.6348V107.045H92.7716V99.9082Z" fill="#D9D9D9"/>
<path d="M92.7716 57.0918H85.6348V64.2286H92.7716V57.0918Z" fill="#D9D9D9"/>
<path d="M206.953 128.453H199.816V135.59H206.953V128.453Z" fill="#D9D9D9"/>
<path d="M206.953 121.316H199.816V128.453H206.953V121.316Z" fill="#D9D9D9"/>
<path d="M206.953 135.59H199.816V142.727H206.953V135.59Z" fill="#D9D9D9"/>
<path d="M206.953 114.18H199.816V121.317H206.953V114.18Z" fill="#D9D9D9"/>
<path d="M206.953 85.6348H199.816V92.7716H206.953V85.6348Z" fill="white"/>
<path d="M206.953 78.498H199.816V85.6349H206.953V78.498Z" fill="white"/>
<path d="M206.953 92.7715H199.816V99.9083H206.953V92.7715Z" fill="#D9D9D9"/>
<path d="M206.953 99.9082H199.816V107.045H206.953V99.9082Z" fill="#D9D9D9"/>
<path d="M206.953 142.727H199.816V149.863H206.953V142.727Z" fill="#FFF7C7"/>
<path d="M135.59 42.8164H128.453V49.9532H135.59V42.8164Z" fill="#FFF7C7"/>
<path d="M171.27 64.2285H164.133V71.3653H171.27V64.2285Z" fill="white"/>
<path d="M135.59 64.2285H128.453V71.3653H135.59V64.2285Z" fill="#FFF7C7"/>
<path d="M142.727 64.2285H135.59V71.3653H142.727V64.2285Z" fill="white"/>
<path d="M164.133 64.2285H156.996V71.3653H164.133V64.2285Z" fill="white"/>
<path d="M157 64.2285H149.863V71.3653H157V64.2285Z" fill="white"/>
<path d="M149.863 64.2285H142.727V71.3653H149.863V64.2285Z" fill="white"/>
<path d="M128.453 64.2285H121.316V71.3653H128.453V64.2285Z" fill="#FFF7C7"/>
<path d="M121.317 71.3613H114.18V78.4982H121.317V71.3613Z" fill="#FFF7C7"/>
<path d="M121.317 78.498H114.18V85.6349H121.317V78.498Z" fill="#FFF7C7"/>
<path d="M121.317 64.2285H114.18V71.3653H121.317V64.2285Z" fill="#FFF7C7"/>
<path d="M121.317 85.6348H114.18V92.7716H121.317V85.6348Z" fill="white"/>
<path d="M164.133 114.18H156.996V121.317H164.133V114.18Z" fill="#D9D9D9"/>
<path d="M178.406 71.3613H171.27V78.4982H178.406V71.3613Z" fill="white"/>
<path d="M157 114.18H149.863V121.317H157V114.18Z" fill="#D9D9D9"/>
<path d="M171.27 107.047H164.133V114.184H171.27V107.047Z" fill="white"/>
<path d="M171.27 85.6348H164.133V92.7716H171.27V85.6348Z" fill="white"/>
<path d="M171.27 99.9082H164.133V107.045H171.27V99.9082Z" fill="white"/>
<path d="M171.27 71.3613H164.133V78.4982H171.27V71.3613Z" fill="white"/>
<path d="M171.27 78.498H164.133V85.6349H171.27V78.498Z" fill="white"/>
<path d="M171.27 92.7715H164.133V99.9083H171.27V92.7715Z" fill="white"/>
<path d="M121.317 107.047H114.18V114.184H121.317V107.047Z" fill="#D9D9D9"/>
<path d="M178.406 114.18H171.27V121.317H178.406V114.18Z" fill="#D9D9D9"/>
<path d="M178.406 121.316H171.27V128.453H178.406V121.316Z" fill="#D9D9D9"/>
<path d="M171.27 121.316H164.133V128.453H171.27V121.316Z" fill="#D9D9D9"/>
<path d="M178.406 107.047H171.27V114.184H178.406V107.047Z" fill="#D9D9D9"/>
<path d="M178.406 92.7715H171.27V99.9083H178.406V92.7715Z" fill="white"/>
<path d="M178.406 99.9082H171.27V107.045H178.406V99.9082Z" fill="white"/>
<path d="M178.406 78.498H171.27V85.6349H178.406V78.498Z" fill="white"/>
<path d="M178.406 85.6348H171.27V92.7716H178.406V85.6348Z" fill="white"/>
<path d="M192.68 107.047H185.543V114.184H192.68V107.047Z" fill="#D9D9D9"/>
<path d="M121.317 114.18H114.18V121.317H121.317V114.18Z" fill="#D9D9D9"/>
<path d="M121.317 92.7715H114.18V99.9083H121.317V92.7715Z" fill="white"/>
<path d="M121.317 121.316H114.18V128.453H121.317V121.316Z" fill="#D9D9D9"/>
<path d="M149.863 114.18H142.727V121.317H149.863V114.18Z" fill="#D9D9D9"/>
<path d="M157 121.316H149.863V128.453H157V121.316Z" fill="#D9D9D9"/>
<path d="M121.317 99.9082H114.18V107.045H121.317V99.9082Z" fill="white"/>
<path d="M142.727 121.316H135.59V128.453H142.727V121.316Z" fill="#D9D9D9"/>
<path d="M128.453 121.316H121.316V128.453H128.453V121.316Z" fill="#D9D9D9"/>
<path d="M149.863 121.316H142.727V128.453H149.863V121.316Z" fill="#D9D9D9"/>
<path d="M135.59 121.316H128.453V128.453H135.59V121.316Z" fill="#D9D9D9"/>
<path d="M171.27 114.18H164.133V121.317H171.27V114.18Z" fill="#D9D9D9"/>
<path d="M135.59 78.498H128.453V85.6349H135.59V78.498Z" fill="white"/>
<path d="M142.727 78.498H135.59V85.6349H142.727V78.498Z" fill="white"/>
<path d="M135.59 85.6348H128.453V92.7716H135.59V85.6348Z" fill="white"/>
<path d="M149.863 78.498H142.727V85.6349H149.863V78.498Z" fill="white"/>
<path d="M142.727 107.047H135.59V114.184H142.727V107.047Z" fill="white"/>
<path d="M135.59 107.047H128.453V114.184H135.59V107.047Z" fill="white"/>
<path d="M157 78.498H149.863V85.6349H157V78.498Z" fill="white"/>
<path d="M149.863 107.047H142.727V114.184H149.863V107.047Z" fill="white"/>
<path d="M135.59 99.9082H128.453V107.045H135.59V99.9082Z" fill="white"/>
<path d="M135.59 92.7715H128.453V99.9083H135.59V92.7715Z" fill="white"/>
<path d="M142.727 85.6348H135.59V92.7716H142.727V85.6348Z" fill="white"/>
<path d="M157 85.6348H149.863V92.7716H157V85.6348Z" fill="white"/>
<path d="M142.727 92.7715H135.59V99.9083H142.727V92.7715Z" fill="white"/>
<path d="M149.863 92.7715H142.727V99.9083H149.863V92.7715Z" fill="white"/>
<path d="M149.863 85.6348H142.727V92.7716H149.863V85.6348Z" fill="white"/>
<path d="M157 99.9082H149.863V107.045H157V99.9082Z" fill="white"/>
<path d="M142.727 99.9082H135.59V107.045H142.727V99.9082Z" fill="white"/>
<path d="M157 92.7715H149.863V99.9083H157V92.7715Z" fill="white"/>
<path d="M149.863 99.9082H142.727V107.045H149.863V99.9082Z" fill="white"/>
<path d="M128.453 114.18H121.316V121.317H128.453V114.18Z" fill="#D9D9D9"/>
<path d="M128.453 78.498H121.316V85.6349H128.453V78.498Z" fill="#FFF7C7"/>
<path d="M128.453 85.6348H121.316V92.7716H128.453V85.6348Z" fill="white"/>
<path d="M128.453 71.3613H121.316V78.4982H128.453V71.3613Z" fill="#FFF7C7"/>
<path d="M135.59 71.3613H128.453V78.4982H135.59V71.3613Z" fill="white"/>
<path d="M128.453 92.7715H121.316V99.9083H128.453V92.7715Z" fill="white"/>
<path d="M128.453 99.9082H121.316V107.045H128.453V99.9082Z" fill="white"/>
<path d="M142.727 114.18H135.59V121.317H142.727V114.18Z" fill="#D9D9D9"/>
<path d="M135.59 114.18H128.453V121.317H135.59V114.18Z" fill="#D9D9D9"/>
<path d="M128.453 107.047H121.316V114.184H128.453V107.047Z" fill="#D9D9D9"/>
<path d="M164.133 92.7715H156.996V99.9083H164.133V92.7715Z" fill="white"/>
<path d="M157 107.047H149.863V114.184H157V107.047Z" fill="white"/>
<path d="M164.133 99.9082H156.996V107.045H164.133V99.9082Z" fill="white"/>
<path d="M164.133 85.6348H156.996V92.7716H164.133V85.6348Z" fill="white"/>
<path d="M164.133 107.047H156.996V114.184H164.133V107.047Z" fill="white"/>
<path d="M149.863 71.3613H142.727V78.4982H149.863V71.3613Z" fill="white"/>
<path d="M142.727 71.3613H135.59V78.4982H142.727V71.3613Z" fill="white"/>
<path d="M157 71.3613H149.863V78.4982H157V71.3613Z" fill="white"/>
<path d="M164.133 71.3613H156.996V78.4982H164.133V71.3613Z" fill="white"/>
<path d="M164.133 78.498H156.996V85.6349H164.133V78.498Z" fill="#D9D9D9"/>
<path d="M164.133 121.316H156.996V128.453H164.133V121.316Z" fill="#D9D9D9"/>
<path d="M107.047 57.0918H99.9102V64.2286H107.047V57.0918Z" fill="white"/>
<path d="M107.047 71.3613H99.9102V78.4982H107.047V71.3613Z" fill="white"/>
<path d="M107.047 64.2285H99.9102V71.3653H107.047V64.2285Z" fill="white"/>
<path d="M107.047 49.9531H99.9102V57.09H107.047V49.9531Z" fill="white"/>
<path d="M114.184 49.9531H107.047V57.09H114.184V49.9531Z" fill="white"/>
<path d="M107.047 78.498H99.9102V85.6349H107.047V78.498Z" fill="white"/>
<path d="M121.317 49.9531H114.18V57.09H121.317V49.9531Z" fill="white"/>
<path d="M107.047 99.9082H99.9102V107.045H107.047V99.9082Z" fill="#D9D9D9"/>
<path d="M107.047 92.7715H99.9102V99.9083H107.047V92.7715Z" fill="#D9D9D9"/>
<path d="M107.047 85.6348H99.9102V92.7716H107.047V85.6348Z" fill="white"/>
<path d="M128.453 49.9531H121.316V57.09H128.453V49.9531Z" fill="white"/>
<path d="M164.133 49.9531H156.996V57.09H164.133V49.9531Z" fill="#FFF7C7"/>
<path d="M171.27 49.9531H164.133V57.09H171.27V49.9531Z" fill="#FFF7C7"/>
<path d="M178.406 49.9551H171.27V57.0919H178.406V49.9551Z" fill="#FFF7C7"/>
<path d="M142.727 49.9531H135.59V57.09H142.727V49.9531Z" fill="#FFF7C7"/>
<path d="M135.59 49.9531H128.453V57.09H135.59V49.9531Z" fill="#FFF7C7"/>
<path d="M107.047 107.047H99.9102V114.184H107.047V107.047Z" fill="#D9D9D9"/>
<path d="M171.27 135.59H164.133V142.727H171.27V135.59Z" fill="#D9D9D9"/>
<path d="M185.543 57.0918H178.406V64.2286H185.543V57.0918Z" fill="#FFF7C7"/>
<path d="M185.543 135.59H178.406V142.727H185.543V135.59Z" fill="#D9D9D9"/>
<path d="M107.047 114.18H99.9102V121.317H107.047V114.18Z" fill="#D9D9D9"/>
<path d="M164.133 135.59H156.996V142.727H164.133V135.59Z" fill="#D9D9D9"/>
<path d="M192.68 121.316H185.543V128.453H192.68V121.316Z" fill="#D9D9D9"/>
<path d="M157 135.59H149.863V142.727H157V135.59Z" fill="#D9D9D9"/>
<path d="M192.68 114.18H185.543V121.317H192.68V114.18Z" fill="#D9D9D9"/>
<path d="M192.68 128.453H185.543V135.59H192.68V128.453Z" fill="#D9D9D9"/>
<path d="M192.68 135.59H185.543V142.727H192.68V135.59Z" fill="#D9D9D9"/>
<path d="M178.406 135.59H171.27V142.727H178.406V135.59Z" fill="#D9D9D9"/>
<path d="M107.047 128.453H99.9102V135.59H107.047V128.453Z" fill="#D9D9D9"/>
<path d="M107.047 135.59H99.9102V142.727H107.047V135.59Z" fill="#FFF7C7"/>
<path d="M149.863 135.59H142.727V142.727H149.863V135.59Z" fill="#FFF7C7"/>
<path d="M114.184 135.59H107.047V142.727H114.184V135.59Z" fill="#FFF7C7"/>
<path d="M107.047 121.316H99.9102V128.453H107.047V121.316Z" fill="#D9D9D9"/>
<path d="M142.727 135.59H135.59V142.727H142.727V135.59Z" fill="#FFF7C7"/>
<path d="M135.59 135.59H128.453V142.727H135.59V135.59Z" fill="#FFF7C7"/>
<path d="M128.453 135.59H121.316V142.727H128.453V135.59Z" fill="#FFF7C7"/>
<path d="M121.317 135.59H114.18V142.727H121.317V135.59Z" fill="#FFF7C7"/>
<path d="M114.184 78.498H107.047V85.6349H114.184V78.498Z" fill="white"/>
<path d="M114.184 71.3613H107.047V78.4982H114.184V71.3613Z" fill="white"/>
<path d="M178.406 64.2285H171.27V71.3653H178.406V64.2285Z" fill="white"/>
<path d="M114.184 64.2285H107.047V71.3653H114.184V64.2285Z" fill="white"/>
<path d="M114.184 85.6348H107.047V92.7716H114.184V85.6348Z" fill="white"/>
<path d="M114.184 57.0918H107.047V64.2286H114.184V57.0918Z" fill="white"/>
<path d="M185.543 64.2285H178.406V71.3653H185.543V64.2285Z" fill="white"/>
<path d="M114.184 107.047H107.047V114.184H114.184V107.047Z" fill="#D9D9D9"/>
<path d="M114.184 99.9082H107.047V107.045H114.184V99.9082Z" fill="#D9D9D9"/>
<path d="M114.184 92.7715H107.047V99.9083H114.184V92.7715Z" fill="white"/>
<path d="M178.406 57.0918H171.27V64.2286H178.406V57.0918Z" fill="#FFF7C7"/>
<path d="M121.317 57.0918H114.18V64.2286H121.317V57.0918Z" fill="white"/>
<path d="M157 57.0918H149.863V64.2286H157V57.0918Z" fill="#FFF7C7"/>
<path d="M171.27 57.0918H164.133V64.2286H171.27V57.0918Z" fill="#FFF7C7"/>
<path d="M114.184 121.316H107.047V128.453H114.184V121.316Z" fill="#D9D9D9"/>
<path d="M164.133 57.0918H156.996V64.2286H164.133V57.0918Z" fill="#FFF7C7"/>
<path d="M135.59 57.0918H128.453V64.2286H135.59V57.0918Z" fill="#FFF7C7"/>
<path d="M128.453 57.0918H121.316V64.2286H128.453V57.0918Z" fill="#FFF7C7"/>
<path d="M149.863 57.0918H142.727V64.2286H149.863V57.0918Z" fill="#FFF7C7"/>
<path d="M142.727 57.0918H135.59V64.2286H142.727V57.0918Z" fill="#FFF7C7"/>
<path d="M114.184 114.18H107.047V121.317H114.184V114.18Z" fill="#D9D9D9"/>
<path d="M185.543 99.9082H178.406V107.045H185.543V99.9082Z" fill="#D9D9D9"/>
<path d="M185.543 114.18H178.406V121.317H185.543V114.18Z" fill="#D9D9D9"/>
<path d="M114.184 128.453H107.047V135.59H114.184V128.453Z" fill="#D9D9D9"/>
<path d="M185.543 121.316H178.406V128.453H185.543V121.316Z" fill="#D9D9D9"/>
<path d="M185.543 92.7715H178.406V99.9083H185.543V92.7715Z" fill="white"/>
<path d="M185.543 71.3613H178.406V78.4982H185.543V71.3613Z" fill="white"/>
<path d="M185.543 128.453H178.406V135.59H185.543V128.453Z" fill="#D9D9D9"/>
<path d="M185.543 78.498H178.406V85.6349H185.543V78.498Z" fill="white"/>
<path d="M185.543 85.6348H178.406V92.7716H185.543V85.6348Z" fill="white"/>
<path d="M185.543 107.047H178.406V114.184H185.543V107.047Z" fill="#D9D9D9"/>
<path d="M128.453 128.453H121.316V135.59H128.453V128.453Z" fill="#D9D9D9"/>
<path d="M135.59 128.453H128.453V135.59H135.59V128.453Z" fill="#D9D9D9"/>
<path d="M121.317 128.453H114.18V135.59H121.317V128.453Z" fill="#D9D9D9"/>
<path d="M142.727 128.453H135.59V135.59H142.727V128.453Z" fill="#D9D9D9"/>
<path d="M157 128.453H149.863V135.59H157V128.453Z" fill="#D9D9D9"/>
<path d="M171.27 128.453H164.133V135.59H171.27V128.453Z" fill="#D9D9D9"/>
<path d="M149.863 128.453H142.727V135.59H149.863V128.453Z" fill="#D9D9D9"/>
<path d="M164.133 128.453H156.996V135.59H164.133V128.453Z" fill="#D9D9D9"/>
<path d="M178.406 128.453H171.27V135.59H178.406V128.453Z" fill="#D9D9D9"/>
<path d="M107.047 7.13672H99.9102V14.2735H107.047V7.13672Z" fill="#FFF7C7"/>
<path d="M99.9083 7.13672H92.7715V14.2735H99.9083V7.13672Z" fill="white"/>
<path d="M114.184 7.13672H107.047V14.2735H114.184V7.13672Z" fill="#FFF7C7"/>
<path d="M92.7716 7.13672H85.6348V14.2735H92.7716V7.13672Z" fill="white"/>
<path d="M64.2267 57.0918H57.0898V64.2286H64.2267V57.0918Z" fill="white"/>
<path d="M64.2267 85.6348H57.0898V92.7716H64.2267V85.6348Z" fill="#D9D9D9"/>
<path d="M64.2267 78.498H57.0898V85.6349H64.2267V78.498Z" fill="#D9D9D9"/>
<path d="M64.2267 121.316H57.0898V128.453H64.2267V121.316Z" fill="#D9D9D9"/>
<path d="M64.2267 71.3613H57.0898V78.4982H64.2267V71.3613Z" fill="#D9D9D9"/>
<path d="M85.6349 7.13672H78.498V14.2735H85.6349V7.13672Z" fill="white"/>
<path d="M64.2267 114.18H57.0898V121.317H64.2267V114.18Z" fill="#D9D9D9"/>
<path d="M64.2267 107.047H57.0898V114.184H64.2267V107.047Z" fill="#D9D9D9"/>
<path d="M64.2267 99.9082H57.0898V107.045H64.2267V99.9082Z" fill="#D9D9D9"/>
<path d="M64.2267 92.7715H57.0898V99.9083H64.2267V92.7715Z" fill="#D9D9D9"/>
<path d="M71.3653 7.13672H64.2285V14.2735H71.3653V7.13672Z" fill="white"/>
<path d="M64.2267 14.2734H57.0898V21.4103H64.2267V14.2734Z" fill="white"/>
<path d="M64.2267 49.9531H57.0898V57.09H64.2267V49.9531Z" fill="white"/>
<path d="M78.4982 7.13672H71.3613V14.2735H78.4982V7.13672Z" fill="white"/>
<path d="M64.2267 7.13672H57.0898V14.2735H64.2267V7.13672Z" fill="white"/>
<path d="M64.2267 42.8164H57.0898V49.9532H64.2267V42.8164Z" fill="white"/>
<path d="M64.2267 35.6816H57.0898V42.8185H64.2267V35.6816Z" fill="white"/>
<path d="M64.2267 28.543H57.0898V35.6798H64.2267V28.543Z" fill="white"/>
<path d="M64.2267 21.4102H57.0898V28.547H64.2267V21.4102Z" fill="white"/>
<path d="M64.2267 64.2285H57.0898V71.3653H64.2267V64.2285Z" fill="white"/>
<path d="M228.361 85.6348H221.225V92.7716H228.361V85.6348Z" fill="white"/>
<path d="M228.361 121.316H221.225V128.453H228.361V121.316Z" fill="#D9D9D9"/>
<path d="M228.361 128.453H221.225V135.59H228.361V128.453Z" fill="#D9D9D9"/>
<path d="M228.361 135.59H221.225V142.727H228.361V135.59Z" fill="#FFF7C7"/>
<path d="M228.361 92.7715H221.225V99.9083H228.361V92.7715Z" fill="white"/>
<path d="M228.361 99.9082H221.225V107.045H228.361V99.9082Z" fill="white"/>
<path d="M228.361 107.047H221.225V114.184H228.361V107.047Z" fill="#D9D9D9"/>
<path d="M228.361 114.18H221.225V121.317H228.361V114.18Z" fill="#D9D9D9"/>
<path d="M107.047 0H99.9102V7.13683H107.047V0Z" fill="#FFF7C7"/>
<path d="M64.2267 128.453H57.0898V135.59H64.2267V128.453Z" fill="#D9D9D9"/>
<path d="M235.498 99.9082H228.361V107.045H235.498V99.9082Z" fill="white"/>
<path d="M235.498 92.7715H228.361V99.9083H235.498V92.7715Z" fill="white"/>
<path d="M235.498 85.6348H228.361V92.7716H235.498V85.6348Z" fill="white"/>
<path d="M235.498 107.047H228.361V114.184H235.498V107.047Z" fill="white"/>
<path d="M235.498 114.18H228.361V121.317H235.498V114.18Z" fill="white"/>
<path d="M99.9083 0H92.7715V7.13683H99.9083V0Z" fill="#FFF7C7"/>
<path d="M78.4982 0H71.3613V7.13683H78.4982V0Z" fill="white"/>
<path d="M71.3653 0H64.2285V7.13683H71.3653V0Z" fill="white"/>
<path d="M85.6349 0H78.498V7.13683H85.6349V0Z" fill="white"/>
<path d="M92.7716 0H85.6348V7.13683H92.7716V0Z" fill="white"/>
<path d="M64.2267 0H57.0898V7.13683H64.2267V0Z" fill="white"/>
<path d="M64.2267 142.727H57.0898V149.863H64.2267V142.727Z" fill="#FFF7C7"/>
<path d="M64.2267 149.863H57.0898V157H64.2267V149.863Z" fill="#FFF7C7"/>
<path d="M64.2267 135.59H57.0898V142.727H64.2267V135.59Z" fill="#D9D9D9"/>
<path d="M235.498 121.316H228.361V128.453H235.498V121.316Z" fill="#D9D9D9"/>
<path d="M235.498 135.59H228.361V142.727H235.498V135.59Z" fill="#FFF7C7"/>
<path d="M235.498 128.453H228.361V135.59H235.498V128.453Z" fill="#D9D9D9"/>
<path d="M92.7716 21.4102H85.6348V28.547H92.7716V21.4102Z" fill="white"/>
<path d="M85.6349 21.4102H78.498V28.547H85.6349V21.4102Z" fill="white"/>
<path d="M107.047 21.4102H99.9102V28.547H107.047V21.4102Z" fill="white"/>
<path d="M78.4982 21.4102H71.3613V28.547H78.4982V21.4102Z" fill="white"/>
<path d="M114.184 21.4102H107.047V28.547H114.184V21.4102Z" fill="white"/>
<path d="M99.9083 21.4102H92.7715V28.547H99.9083V21.4102Z" fill="white"/>
<path d="M78.4982 49.9531H71.3613V57.09H78.4982V49.9531Z" fill="white"/>
<path d="M78.4982 42.8164H71.3613V49.9532H78.4982V42.8164Z" fill="white"/>
<path d="M78.4982 28.543H71.3613V35.6798H78.4982V28.543Z" fill="white"/>
<path d="M78.4982 35.6816H71.3613V42.8185H78.4982V35.6816Z" fill="white"/>
<path d="M128.453 21.4102H121.316V28.547H128.453V21.4102Z" fill="#FFF7C7"/>
<path d="M78.4982 57.0918H71.3613V64.2286H78.4982V57.0918Z" fill="white"/>
<path d="M121.317 21.4102H114.18V28.547H121.317V21.4102Z" fill="#FFF7C7"/>
<path d="M78.4982 149.863H71.3613V157H78.4982V149.863Z" fill="#FFF7C7"/>
<path d="M78.4982 142.727H71.3613V149.863H78.4982V142.727Z" fill="#FFF7C7"/>
<path d="M78.4982 135.59H71.3613V142.727H78.4982V135.59Z" fill="#D9D9D9"/>
<path d="M78.4982 107.047H71.3613V114.184H78.4982V107.047Z" fill="#D9D9D9"/>
<path d="M78.4982 92.7715H71.3613V99.9083H78.4982V92.7715Z" fill="#D9D9D9"/>
<path d="M78.4982 78.498H71.3613V85.6349H78.4982V78.498Z" fill="#D9D9D9"/>
<path d="M78.4982 85.6348H71.3613V92.7716H78.4982V85.6348Z" fill="#D9D9D9"/>
<path d="M78.4982 71.3613H71.3613V78.4982H78.4982V71.3613Z" fill="white"/>
<path d="M78.4982 121.316H71.3613V128.453H78.4982V121.316Z" fill="#D9D9D9"/>
<path d="M78.4982 99.9082H71.3613V107.045H78.4982V99.9082Z" fill="#D9D9D9"/>
<path d="M78.4982 114.18H71.3613V121.317H78.4982V114.18Z" fill="#D9D9D9"/>
<path d="M78.4982 128.453H71.3613V135.59H78.4982V128.453Z" fill="#D9D9D9"/>
<path d="M78.4982 64.2285H71.3613V71.3653H78.4982V64.2285Z" fill="white"/>
<path d="M214.088 128.453H206.951V135.59H214.088V128.453Z" fill="#D9D9D9"/>
<path d="M214.088 142.727H206.951V149.863H214.088V142.727Z" fill="#FFF7C7"/>
<path d="M214.088 135.59H206.951V142.727H214.088V135.59Z" fill="#D9D9D9"/>
<path d="M214.088 107.047H206.951V114.184H214.088V107.047Z" fill="#D9D9D9"/>
<path d="M214.088 121.316H206.951V128.453H214.088V121.316Z" fill="#D9D9D9"/>
<path d="M214.088 114.18H206.951V121.317H214.088V114.18Z" fill="#D9D9D9"/>
<path d="M214.088 99.9082H206.951V107.045H214.088V99.9082Z" fill="#D9D9D9"/>
<path d="M214.088 85.6348H206.951V92.7716H214.088V85.6348Z" fill="white"/>
<path d="M214.088 92.7715H206.951V99.9083H214.088V92.7715Z" fill="#D9D9D9"/>
<path d="M78.4982 14.2734H71.3613V21.4103H78.4982V14.2734Z" fill="white"/>
<path d="M85.6349 14.2734H78.498V21.4103H85.6349V14.2734Z" fill="white"/>
<path d="M114.184 14.2734H107.047V21.4103H114.184V14.2734Z" fill="#FFF7C7"/>
<path d="M99.9083 14.2734H92.7715V21.4103H99.9083V14.2734Z" fill="white"/>
<path d="M107.047 14.2734H99.9102V21.4103H107.047V14.2734Z" fill="white"/>
<path d="M92.7716 14.2734H85.6348V21.4103H92.7716V14.2734Z" fill="white"/>
<path d="M71.3653 28.543H64.2285V35.6798H71.3653V28.543Z" fill="white"/>
<path d="M71.3653 35.6816H64.2285V42.8185H71.3653V35.6816Z" fill="white"/>
<path d="M71.3653 14.2734H64.2285V21.4103H71.3653V14.2734Z" fill="white"/>
<path d="M121.317 14.2734H114.18V21.4103H121.317V14.2734Z" fill="#FFF7C7"/>
<path d="M71.3653 42.8164H64.2285V49.9532H71.3653V42.8164Z" fill="white"/>
<path d="M71.3653 21.4102H64.2285V28.547H71.3653V21.4102Z" fill="white"/>
<path d="M71.3653 135.59H64.2285V142.727H71.3653V135.59Z" fill="#D9D9D9"/>
<path d="M71.3653 149.863H64.2285V157H71.3653V149.863Z" fill="#FFF7C7"/>
<path d="M71.3653 142.727H64.2285V149.863H71.3653V142.727Z" fill="#FFF7C7"/>
<path d="M71.3653 128.453H64.2285V135.59H71.3653V128.453Z" fill="#D9D9D9"/>
<path d="M71.3653 49.9531H64.2285V57.09H71.3653V49.9531Z" fill="white"/>
<path d="M71.3653 121.316H64.2285V128.453H71.3653V121.316Z" fill="#D9D9D9"/>
<path d="M71.3653 114.18H64.2285V121.317H71.3653V114.18Z" fill="#D9D9D9"/>
<path d="M71.3653 71.3613H64.2285V78.4982H71.3653V71.3613Z" fill="white"/>
<path d="M71.3653 78.498H64.2285V85.6349H71.3653V78.498Z" fill="#D9D9D9"/>
<path d="M71.3653 57.0918H64.2285V64.2286H71.3653V57.0918Z" fill="white"/>
<path d="M71.3653 64.2285H64.2285V71.3653H71.3653V64.2285Z" fill="white"/>
<path d="M71.3653 99.9082H64.2285V107.045H71.3653V99.9082Z" fill="#D9D9D9"/>
<path d="M71.3653 85.6348H64.2285V92.7716H71.3653V85.6348Z" fill="#D9D9D9"/>
<path d="M71.3653 107.047H64.2285V114.184H71.3653V107.047Z" fill="#D9D9D9"/>
<path d="M71.3653 92.7715H64.2285V99.9083H71.3653V92.7715Z" fill="#D9D9D9"/>
<path d="M221.225 142.727H214.088V149.863H221.225V142.727Z" fill="#FFF7C7"/>
<path d="M221.225 135.59H214.088V142.727H221.225V135.59Z" fill="#D9D9D9"/>
<path d="M221.225 128.453H214.088V135.59H221.225V128.453Z" fill="#D9D9D9"/>
<path d="M221.225 107.047H214.088V114.184H221.225V107.047Z" fill="#D9D9D9"/>
<path d="M221.225 92.7715H214.088V99.9083H221.225V92.7715Z" fill="#D9D9D9"/>
<path d="M221.225 114.18H214.088V121.317H221.225V114.18Z" fill="#D9D9D9"/>
<path d="M221.225 99.9082H214.088V107.045H221.225V99.9082Z" fill="#D9D9D9"/>
<path d="M221.225 85.6348H214.088V92.7716H221.225V85.6348Z" fill="white"/>
<path d="M221.225 121.316H214.088V128.453H221.225V121.316Z" fill="#D9D9D9"/>
<path d="M107.047 28.543H99.9102V35.6798H107.047V28.543Z" fill="#D9D9D9"/>
<path d="M7.13683 128.453H0V135.59H7.13683V128.453Z" fill="#FFF7C7"/>
<path d="M7.13683 121.316H0V128.453H7.13683V121.316Z" fill="#D9D9D9"/>
<path d="M7.13683 85.6348H0V92.7716H7.13683V85.6348Z" fill="white"/>
<path d="M7.13683 114.18H0V121.317H7.13683V114.18Z" fill="#D9D9D9"/>
<path d="M7.13683 92.7715H0V99.9083H7.13683V92.7715Z" fill="white"/>
<path d="M7.13683 107.047H0V114.184H7.13683V107.047Z" fill="#D9D9D9"/>
<path d="M7.13683 99.9082H0V107.045H7.13683V99.9082Z" fill="#D9D9D9"/>
<path d="M14.2735 85.6348H7.13672V92.7716H14.2735V85.6348Z" fill="#D9D9D9"/>
<path d="M14.2735 135.59H7.13672V142.727H14.2735V135.59Z" fill="#FFF7C7"/>
<path d="M14.2735 78.498H7.13672V85.6349H14.2735V78.498Z" fill="white"/>
<path d="M14.2735 99.9082H7.13672V107.045H14.2735V99.9082Z" fill="#D9D9D9"/>
<path d="M14.2735 92.7715H7.13672V99.9083H14.2735V92.7715Z" fill="#D9D9D9"/>
<path d="M14.2735 107.047H7.13672V114.184H14.2735V107.047Z" fill="#D9D9D9"/>
<path d="M14.2735 121.316H7.13672V128.453H14.2735V121.316Z" fill="#D9D9D9"/>
<path d="M14.2735 128.453H7.13672V135.59H14.2735V128.453Z" fill="#FFF7C7"/>
<path d="M14.2735 114.18H7.13672V121.317H14.2735V114.18Z" fill="#D9D9D9"/>
<path d="M14.2735 71.3613H7.13672V78.4982H14.2735V71.3613Z" fill="white"/>
</svg>
