<svg width="305" height="153" viewBox="0 0 305 153" fill="none" xmlns="http://www.w3.org/2000/svg">
<path d="M186.389 0H177.916V8.47278H186.389V0Z" fill="#FFF7C7"/>
<path d="M194.861 0H186.389V8.47278H194.861V0Z" fill="#FFF7C7"/>
<path d="M211.805 0H203.332V8.47278H211.805V0Z" fill="#FFF7C7"/>
<path d="M203.336 0H194.863V8.47278H203.336V0Z" fill="#FFF7C7"/>
<path d="M76.2501 118.611H67.7773V127.084H76.2501V118.611Z" fill="white"/>
<path d="M76.2521 135.557H67.7793V144.029H76.2521V135.557Z" fill="#FFF7C7"/>
<path d="M76.2521 127.084H67.7793V135.557H76.2521V127.084Z" fill="#FFF7C7"/>
<path d="M76.2501 67.7773H67.7773V76.2501H76.2501V67.7773Z" fill="white"/>
<path d="M76.2501 59.3047H67.7773V67.7774H76.2501V59.3047Z" fill="white"/>
<path d="M76.2501 42.3633H67.7773V50.8361H76.2501V42.3633Z" fill="#FFF7C7"/>
<path d="M76.2501 84.7246H67.7773V93.1974H76.2501V84.7246Z" fill="white"/>
<path d="M76.2501 93.1973H67.7773V101.67H76.2501V93.1973Z" fill="white"/>
<path d="M76.2501 101.67H67.7773V110.143H76.2501V101.67Z" fill="white"/>
<path d="M76.2501 76.252H67.7773V84.7247H76.2501V76.252Z" fill="white"/>
<path d="M76.2501 110.139H67.7773V118.611H76.2501V110.139Z" fill="white"/>
<path d="M76.2501 50.832H67.7773V59.3048H76.2501V50.832Z" fill="#FFF7C7"/>
<path d="M228.748 0H220.275V8.47278H228.748V0Z" fill="#FFF7C7"/>
<path d="M237.223 0H228.75V8.47278H237.223V0Z" fill="#FFF7C7"/>
<path d="M245.695 0H237.223V8.47278H245.695V0Z" fill="#FFF7C7"/>
<path d="M220.277 0H211.805V8.47278H220.277V0Z" fill="#FFF7C7"/>
<path d="M93.1974 144.029H84.7246V152.502H93.1974V144.029Z" fill="#FFF7C7"/>
<path d="M93.1974 127.084H84.7246V135.557H93.1974V127.084Z" fill="#FFF7C7"/>
<path d="M93.1974 135.557H84.7246V144.029H93.1974V135.557Z" fill="#FFF7C7"/>
<path d="M93.1954 118.611H84.7227V127.084H93.1954V118.611Z" fill="#FFF7C7"/>
<path d="M93.1954 101.67H84.7227V110.143H93.1954V101.67Z" fill="white"/>
<path d="M93.1954 110.139H84.7227V118.611H93.1954V110.139Z" fill="#FFF7C7"/>
<path d="M93.1954 84.7246H84.7227V93.1974H93.1954V84.7246Z" fill="#D9D9D9"/>
<path d="M93.1954 42.3633H84.7227V50.8361H93.1954V42.3633Z" fill="#FFF7C7"/>
<path d="M93.1954 50.832H84.7227V59.3048H93.1954V50.832Z" fill="#FFF7C7"/>
<path d="M93.1954 59.3047H84.7227V67.7774H93.1954V59.3047Z" fill="white"/>
<path d="M93.1954 93.1973H84.7227V101.67H93.1954V93.1973Z" fill="white"/>
<path d="M93.1954 76.252H84.7227V84.7247H93.1954V76.252Z" fill="white"/>
<path d="M93.1954 67.7773H84.7227V76.2501H93.1954V67.7773Z" fill="white"/>
<path d="M203.336 8.47266H194.863V16.9454H203.336V8.47266Z" fill="#FFF7C7"/>
<path d="M194.861 8.47266H186.389V16.9454H194.861V8.47266Z" fill="#FFF7C7"/>
<path d="M186.389 8.47266H177.916V16.9454H186.389V8.47266Z" fill="#FFF7C7"/>
<path d="M177.916 8.47266H169.443V16.9454H177.916V8.47266Z" fill="white"/>
<path d="M254.168 8.47266H245.695V16.9454H254.168V8.47266Z" fill="#FFF7C7"/>
<path d="M220.277 8.47266H211.805V16.9454H220.277V8.47266Z" fill="#FFF7C7"/>
<path d="M245.695 8.47266H237.223V16.9454H245.695V8.47266Z" fill="#FFF7C7"/>
<path d="M228.748 8.47266H220.275V16.9454H228.748V8.47266Z" fill="#FFF7C7"/>
<path d="M211.805 8.47266H203.332V16.9454H211.805V8.47266Z" fill="#FFF7C7"/>
<path d="M237.223 8.47266H228.75V16.9454H237.223V8.47266Z" fill="#FFF7C7"/>
<path d="M84.7228 76.252H76.25V84.7247H84.7228V76.252Z" fill="white"/>
<path d="M84.7248 135.557H76.252V144.029H84.7248V135.557Z" fill="#FFF7C7"/>
<path d="M84.7228 84.7246H76.25V93.1974H84.7228V84.7246Z" fill="white"/>
<path d="M84.7228 93.1973H76.25V101.67H84.7228V93.1973Z" fill="white"/>
<path d="M84.7228 67.7773H76.25V76.2501H84.7228V67.7773Z" fill="white"/>
<path d="M84.7228 118.611H76.25V127.084H84.7228V118.611Z" fill="white"/>
<path d="M84.7248 127.084H76.252V135.557H84.7248V127.084Z" fill="#FFF7C7"/>
<path d="M84.7228 59.3047H76.25V67.7774H84.7228V59.3047Z" fill="white"/>
<path d="M84.7228 110.139H76.25V118.611H84.7228V110.139Z" fill="white"/>
<path d="M84.7228 101.67H76.25V110.143H84.7228V101.67Z" fill="white"/>
<path d="M84.7228 50.832H76.25V59.3048H84.7228V50.832Z" fill="#FFF7C7"/>
<path d="M84.7228 42.3633H76.25V50.8361H84.7228V42.3633Z" fill="#FFF7C7"/>
<path d="M59.3048 135.557H50.832V144.029H59.3048V135.557Z" fill="#FFF7C7"/>
<path d="M59.3048 127.084H50.832V135.557H59.3048V127.084Z" fill="#FFF7C7"/>
<path d="M50.8321 93.1973H42.3594V101.67H50.8321V93.1973Z" fill="white"/>
<path d="M50.8321 67.7773H42.3594V76.2501H50.8321V67.7773Z" fill="white"/>
<path d="M50.8321 76.25H42.3594V84.7228H50.8321V76.25Z" fill="white"/>
<path d="M50.8321 59.3047H42.3594V67.7774H50.8321V59.3047Z" fill="#FFF7C7"/>
<path d="M50.8321 101.67H42.3594V110.143H50.8321V101.67Z" fill="#D9D9D9"/>
<path d="M50.8321 127.084H42.3594V135.557H50.8321V127.084Z" fill="#FFF7C7"/>
<path d="M50.8321 118.611H42.3594V127.084H50.8321V118.611Z" fill="#D9D9D9"/>
<path d="M50.8321 110.139H42.3594V118.611H50.8321V110.139Z" fill="#D9D9D9"/>
<path d="M50.8321 50.832H42.3594V59.3048H50.8321V50.832Z" fill="#FFF7C7"/>
<path d="M50.8321 42.3633H42.3594V50.8361H50.8321V42.3633Z" fill="#FFF7C7"/>
<path d="M59.3048 118.611H50.832V127.084H59.3048V118.611Z" fill="#FFF7C7"/>
<path d="M50.8321 84.7246H42.3594V93.1974H50.8321V84.7246Z" fill="white"/>
<path d="M67.7775 127.084H59.3047V135.557H67.7775V127.084Z" fill="#FFF7C7"/>
<path d="M67.7775 135.557H59.3047V144.029H67.7775V135.557Z" fill="#FFF7C7"/>
<path d="M59.3048 110.139H50.832V118.611H59.3048V110.139Z" fill="#D9D9D9"/>
<path d="M67.7775 110.139H59.3047V118.611H67.7775V110.139Z" fill="#D9D9D9"/>
<path d="M67.7775 118.611H59.3047V127.084H67.7775V118.611Z" fill="#D9D9D9"/>
<path d="M67.7775 42.3633H59.3047V50.8361H67.7775V42.3633Z" fill="#FFF7C7"/>
<path d="M67.7775 50.832H59.3047V59.3048H67.7775V50.832Z" fill="#FFF7C7"/>
<path d="M67.7775 101.67H59.3047V110.143H67.7775V101.67Z" fill="white"/>
<path d="M67.7775 59.3047H59.3047V67.7774H67.7775V59.3047Z" fill="white"/>
<path d="M67.7775 67.7773H59.3047V76.2501H67.7775V67.7773Z" fill="white"/>
<path d="M67.7775 84.7246H59.3047V93.1974H67.7775V84.7246Z" fill="white"/>
<path d="M67.7775 93.1973H59.3047V101.67H67.7775V93.1973Z" fill="white"/>
<path d="M67.7775 76.252H59.3047V84.7247H67.7775V76.252Z" fill="white"/>
<path d="M59.3048 59.3047H50.832V67.7774H59.3048V59.3047Z" fill="white"/>
<path d="M59.3048 67.7773H50.832V76.2501H59.3048V67.7773Z" fill="white"/>
<path d="M59.3048 42.3633H50.832V50.8361H59.3048V42.3633Z" fill="#FFF7C7"/>
<path d="M59.3048 93.1973H50.832V101.67H59.3048V93.1973Z" fill="white"/>
<path d="M59.3048 101.67H50.832V110.143H59.3048V101.67Z" fill="white"/>
<path d="M59.3048 84.7246H50.832V93.1974H59.3048V84.7246Z" fill="white"/>
<path d="M59.3048 76.25H50.832V84.7228H59.3048V76.25Z" fill="white"/>
<path d="M59.3048 50.832H50.832V59.3048H59.3048V50.832Z" fill="#FFF7C7"/>
<path d="M262.637 84.7246H254.164V93.1974H262.637V84.7246Z" fill="white"/>
<path d="M262.637 127.084H254.164V135.557H262.637V127.084Z" fill="#FFF7C7"/>
<path d="M262.637 101.67H254.164V110.143H262.637V101.67Z" fill="white"/>
<path d="M262.637 93.1973H254.164V101.67H262.637V93.1973Z" fill="white"/>
<path d="M262.637 110.139H254.164V118.611H262.637V110.139Z" fill="white"/>
<path d="M262.637 118.611H254.164V127.084H262.637V118.611Z" fill="#D9D9D9"/>
<path d="M262.637 76.25H254.164V84.7228H262.637V76.25Z" fill="white"/>
<path d="M177.916 59.3047H169.443V67.7774H177.916V59.3047Z" fill="white"/>
<path d="M160.971 59.3047H152.498V67.7774H160.971V59.3047Z" fill="#FFF7C7"/>
<path d="M186.389 59.3047H177.916V67.7774H186.389V59.3047Z" fill="white"/>
<path d="M152.502 59.3047H144.029V67.7774H152.502V59.3047Z" fill="#FFF7C7"/>
<path d="M135.557 67.7773H127.084V76.2501H135.557V67.7773Z" fill="#D9D9D9"/>
<path d="M194.861 59.3047H186.389V67.7774H194.861V59.3047Z" fill="white"/>
<path d="M135.557 76.25H127.084V84.7228H135.557V76.25Z" fill="white"/>
<path d="M262.637 59.3047H254.164V67.7774H262.637V59.3047Z" fill="#D9D9D9"/>
<path d="M254.168 59.3047H245.695V67.7774H254.168V59.3047Z" fill="#D9D9D9"/>
<path d="M203.336 59.3047H194.863V67.7774H203.336V59.3047Z" fill="white"/>
<path d="M262.637 67.7773H254.164V76.2501H262.637V67.7773Z" fill="white"/>
<path d="M245.695 59.3047H237.223V67.7774H245.695V59.3047Z" fill="#D9D9D9"/>
<path d="M211.805 59.3047H203.332V67.7774H211.805V59.3047Z" fill="white"/>
<path d="M237.223 59.3047H228.75V67.7774H237.223V59.3047Z" fill="#D9D9D9"/>
<path d="M220.277 59.3047H211.805V67.7774H220.277V59.3047Z" fill="white"/>
<path d="M228.75 59.3047H220.277V67.7774H228.75V59.3047Z" fill="#D9D9D9"/>
<path d="M169.444 59.3047H160.971V67.7774H169.444V59.3047Z" fill="white"/>
<path d="M194.861 67.7773H186.389V76.2501H194.861V67.7773Z" fill="white"/>
<path d="M211.805 67.7773H203.332V76.2501H211.805V67.7773Z" fill="white"/>
<path d="M228.75 67.7773H220.277V76.2501H228.75V67.7773Z" fill="#D9D9D9"/>
<path d="M220.277 67.7773H211.805V76.2501H220.277V67.7773Z" fill="white"/>
<path d="M177.916 67.7773H169.443V76.2501H177.916V67.7773Z" fill="white"/>
<path d="M169.444 67.7773H160.971V76.2501H169.444V67.7773Z" fill="white"/>
<path d="M160.971 67.7773H152.498V76.2501H160.971V67.7773Z" fill="#D9D9D9"/>
<path d="M237.223 67.7773H228.75V76.2501H237.223V67.7773Z" fill="#D9D9D9"/>
<path d="M254.168 84.7246H245.695V93.1974H254.168V84.7246Z" fill="white"/>
<path d="M245.695 67.7773H237.223V76.2501H245.695V67.7773Z" fill="#D9D9D9"/>
<path d="M254.168 110.139H245.695V118.611H254.168V110.139Z" fill="white"/>
<path d="M254.168 118.611H245.695V127.084H254.168V118.611Z" fill="#D9D9D9"/>
<path d="M254.168 127.084H245.695V135.557H254.168V127.084Z" fill="#FFF7C7"/>
<path d="M254.168 101.67H245.695V110.143H254.168V101.67Z" fill="white"/>
<path d="M254.168 76.25H245.695V84.7228H254.168V76.25Z" fill="white"/>
<path d="M254.168 67.7773H245.695V76.2501H254.168V67.7773Z" fill="white"/>
<path d="M152.502 67.7773H144.029V76.2501H152.502V67.7773Z" fill="#D9D9D9"/>
<path d="M254.168 93.1973H245.695V101.67H254.168V93.1973Z" fill="#D9D9D9"/>
<path d="M203.336 67.7773H194.863V76.2501H203.336V67.7773Z" fill="white"/>
<path d="M144.029 67.7773H135.557V76.2501H144.029V67.7773Z" fill="#D9D9D9"/>
<path d="M144.029 101.67H135.557V110.143H144.029V101.67Z" fill="white"/>
<path d="M144.029 84.7246H135.557V93.1974H144.029V84.7246Z" fill="white"/>
<path d="M144.029 93.1973H135.557V101.67H144.029V93.1973Z" fill="white"/>
<path d="M144.029 76.252H135.557V84.7247H144.029V76.252Z" fill="white"/>
<path d="M144.029 110.139H135.557V118.611H144.029V110.139Z" fill="white"/>
<path d="M144.029 144.029H135.557V152.502H144.029V144.029Z" fill="#FFF7C7"/>
<path d="M144.029 135.557H135.557V144.029H144.029V135.557Z" fill="#D9D9D9"/>
<path d="M144.029 127.084H135.557V135.557H144.029V127.084Z" fill="white"/>
<path d="M144.029 118.611H135.557V127.084H144.029V118.611Z" fill="white"/>
<path d="M211.805 50.832H203.332V59.3048H211.805V50.832Z" fill="white"/>
<path d="M203.336 50.832H194.863V59.3048H203.336V50.832Z" fill="white"/>
<path d="M220.277 50.832H211.805V59.3048H220.277V50.832Z" fill="white"/>
<path d="M228.75 50.832H220.277V59.3048H228.75V50.832Z" fill="white"/>
<path d="M194.861 50.832H186.389V59.3048H194.861V50.832Z" fill="white"/>
<path d="M169.444 50.832H160.971V59.3048H169.444V50.832Z" fill="white"/>
<path d="M186.389 50.832H177.916V59.3048H186.389V50.832Z" fill="white"/>
<path d="M160.971 50.832H152.498V59.3048H160.971V50.832Z" fill="#FFF7C7"/>
<path d="M237.223 50.832H228.75V59.3048H237.223V50.832Z" fill="#D9D9D9"/>
<path d="M177.916 50.832H169.443V59.3048H177.916V50.832Z" fill="white"/>
<path d="M271.109 76.25H262.637V84.7228H271.109V76.25Z" fill="white"/>
<path d="M271.109 84.7246H262.637V93.1974H271.109V84.7246Z" fill="white"/>
<path d="M271.109 67.7773H262.637V76.2501H271.109V67.7773Z" fill="white"/>
<path d="M271.109 93.1973H262.637V101.67H271.109V93.1973Z" fill="white"/>
<path d="M245.695 50.832H237.223V59.3048H245.695V50.832Z" fill="#D9D9D9"/>
<path d="M271.109 59.3047H262.637V67.7774H271.109V59.3047Z" fill="#D9D9D9"/>
<path d="M254.168 50.832H245.695V59.3048H254.168V50.832Z" fill="#D9D9D9"/>
<path d="M262.637 50.832H254.164V59.3048H262.637V50.832Z" fill="#D9D9D9"/>
<path d="M271.109 101.67H262.637V110.143H271.109V101.67Z" fill="white"/>
<path d="M271.109 50.832H262.637V59.3048H271.109V50.832Z" fill="#D9D9D9"/>
<path d="M127.084 144.029H118.611V152.502H127.084V144.029Z" fill="#FFF7C7"/>
<path d="M127.084 135.557H118.611V144.029H127.084V135.557Z" fill="#D9D9D9"/>
<path d="M127.084 127.084H118.611V135.557H127.084V127.084Z" fill="white"/>
<path d="M127.084 67.7773H118.611V76.2501H127.084V67.7773Z" fill="#D9D9D9"/>
<path d="M127.084 118.611H118.611V127.084H127.084V118.611Z" fill="white"/>
<path d="M127.084 76.25H118.611V84.7228H127.084V76.25Z" fill="#D9D9D9"/>
<path d="M127.084 110.139H118.611V118.611H127.084V110.139Z" fill="white"/>
<path d="M127.084 84.7246H118.611V93.1974H127.084V84.7246Z" fill="white"/>
<path d="M127.084 101.67H118.611V110.143H127.084V101.67Z" fill="white"/>
<path d="M127.084 93.1973H118.611V101.67H127.084V93.1973Z" fill="white"/>
<path d="M135.557 127.084H127.084V135.557H135.557V127.084Z" fill="white"/>
<path d="M135.557 118.611H127.084V127.084H135.557V118.611Z" fill="white"/>
<path d="M135.557 101.67H127.084V110.143H135.557V101.67Z" fill="white"/>
<path d="M135.557 110.139H127.084V118.611H135.557V110.139Z" fill="white"/>
<path d="M135.557 93.1973H127.084V101.67H135.557V93.1973Z" fill="white"/>
<path d="M135.557 144.029H127.084V152.502H135.557V144.029Z" fill="#FFF7C7"/>
<path d="M135.557 135.557H127.084V144.029H135.557V135.557Z" fill="#D9D9D9"/>
<path d="M135.557 84.7246H127.084V93.1974H135.557V84.7246Z" fill="#D9D9D9"/>
<path d="M271.109 118.611H262.637V127.084H271.109V118.611Z" fill="#D9D9D9"/>
<path d="M271.109 110.139H262.637V118.611H271.109V110.139Z" fill="white"/>
<path d="M271.109 127.084H262.637V135.557H271.109V127.084Z" fill="#FFF7C7"/>
<path d="M186.389 67.7773H177.916V76.2501H186.389V67.7773Z" fill="white"/>
<path d="M228.75 93.1973H220.277V101.67H228.75V93.1973Z" fill="white"/>
<path d="M186.389 93.1973H177.916V101.67H186.389V93.1973Z" fill="#FFF7C7"/>
<path d="M194.861 93.1973H186.389V101.67H194.861V93.1973Z" fill="#FFF7C7"/>
<path d="M220.277 93.1973H211.805V101.67H220.277V93.1973Z" fill="white"/>
<path d="M211.805 93.1973H203.332V101.67H211.805V93.1973Z" fill="white"/>
<path d="M203.336 93.1973H194.863V101.67H203.336V93.1973Z" fill="white"/>
<path d="M177.916 93.1973H169.443V101.67H177.916V93.1973Z" fill="#FFF7C7"/>
<path d="M169.444 101.67H160.971V110.143H169.444V101.67Z" fill="white"/>
<path d="M169.444 110.139H160.971V118.611H169.444V110.139Z" fill="white"/>
<path d="M169.444 93.1973H160.971V101.67H169.444V93.1973Z" fill="#D9D9D9"/>
<path d="M169.444 118.611H160.971V127.084H169.444V118.611Z" fill="white"/>
<path d="M237.223 101.67H228.75V110.143H237.223V101.67Z" fill="white"/>
<path d="M228.75 118.611H220.277V127.084H228.75V118.611Z" fill="#D9D9D9"/>
<path d="M228.75 101.67H220.277V110.143H228.75V101.67Z" fill="white"/>
<path d="M228.75 110.139H220.277V118.611H228.75V110.139Z" fill="white"/>
<path d="M228.748 127.084H220.275V135.557H228.748V127.084Z" fill="#FFF7C7"/>
<path d="M169.444 144.029H160.971V152.502H169.444V144.029Z" fill="#FFF7C7"/>
<path d="M237.223 127.084H228.75V135.557H237.223V127.084Z" fill="#FFF7C7"/>
<path d="M237.223 110.139H228.75V118.611H237.223V110.139Z" fill="white"/>
<path d="M237.223 118.611H228.75V127.084H237.223V118.611Z" fill="#D9D9D9"/>
<path d="M169.444 127.084H160.971V135.557H169.444V127.084Z" fill="white"/>
<path d="M169.444 135.557H160.971V144.029H169.444V135.557Z" fill="#D9D9D9"/>
<path d="M186.389 110.139H177.916V118.611H186.389V110.139Z" fill="#FFF7C7"/>
<path d="M194.861 110.139H186.389V118.611H194.861V110.139Z" fill="#FFF7C7"/>
<path d="M186.389 118.611H177.916V127.084H186.389V118.611Z" fill="#D9D9D9"/>
<path d="M203.336 110.139H194.863V118.611H203.336V110.139Z" fill="#FFF7C7"/>
<path d="M194.861 144.029H186.389V152.502H194.861V144.029Z" fill="#FFF7C7"/>
<path d="M186.389 144.029H177.916V152.502H186.389V144.029Z" fill="#FFF7C7"/>
<path d="M211.805 110.139H203.332V118.611H211.805V110.139Z" fill="#FFF7C7"/>
<path d="M186.389 135.557H177.916V144.029H186.389V135.557Z" fill="#D9D9D9"/>
<path d="M186.389 127.084H177.916V135.557H186.389V127.084Z" fill="#D9D9D9"/>
<path d="M194.861 118.611H186.389V127.084H194.861V118.611Z" fill="#FFF7C7"/>
<path d="M211.805 118.611H203.332V127.084H211.805V118.611Z" fill="#FFF7C7"/>
<path d="M194.861 127.084H186.389V135.557H194.861V127.084Z" fill="#D9D9D9"/>
<path d="M203.336 127.084H194.863V135.557H203.336V127.084Z" fill="#FFF7C7"/>
<path d="M203.336 118.611H194.863V127.084H203.336V118.611Z" fill="#FFF7C7"/>
<path d="M211.805 135.557H203.332V144.029H211.805V135.557Z" fill="#FFF7C7"/>
<path d="M194.861 135.557H186.389V144.029H194.861V135.557Z" fill="#D9D9D9"/>
<path d="M211.805 127.084H203.332V135.557H211.805V127.084Z" fill="#FFF7C7"/>
<path d="M203.336 135.557H194.863V144.029H203.336V135.557Z" fill="#FFF7C7"/>
<path d="M177.916 110.139H169.443V118.611H177.916V110.139Z" fill="white"/>
<path d="M177.916 118.611H169.443V127.084H177.916V118.611Z" fill="white"/>
<path d="M177.916 101.67H169.443V110.143H177.916V101.67Z" fill="#FFF7C7"/>
<path d="M186.389 101.67H177.916V110.143H186.389V101.67Z" fill="#FFF7C7"/>
<path d="M177.916 127.084H169.443V135.557H177.916V127.084Z" fill="#D9D9D9"/>
<path d="M177.916 135.557H169.443V144.029H177.916V135.557Z" fill="#D9D9D9"/>
<path d="M177.916 144.029H169.443V152.502H177.916V144.029Z" fill="#FFF7C7"/>
<path d="M220.277 127.084H211.805V135.557H220.277V127.084Z" fill="#FFF7C7"/>
<path d="M220.277 135.557H211.805V144.029H220.277V135.557Z" fill="#FFF7C7"/>
<path d="M220.277 118.611H211.805V127.084H220.277V118.611Z" fill="#FFF7C7"/>
<path d="M203.336 101.67H194.863V110.143H203.336V101.67Z" fill="#FFF7C7"/>
<path d="M194.861 101.67H186.389V110.143H194.861V101.67Z" fill="#FFF7C7"/>
<path d="M211.805 101.67H203.332V110.143H211.805V101.67Z" fill="white"/>
<path d="M220.277 101.67H211.805V110.143H220.277V101.67Z" fill="white"/>
<path d="M220.277 110.139H211.805V118.611H220.277V110.139Z" fill="white"/>
<path d="M152.502 84.7246H144.029V93.1974H152.502V84.7246Z" fill="white"/>
<path d="M152.502 101.67H144.029V110.143H152.502V101.67Z" fill="white"/>
<path d="M152.502 93.1973H144.029V101.67H152.502V93.1973Z" fill="white"/>
<path d="M152.502 76.252H144.029V84.7247H152.502V76.252Z" fill="#D9D9D9"/>
<path d="M160.971 76.252H152.498V84.7247H160.971V76.252Z" fill="#D9D9D9"/>
<path d="M152.502 110.139H144.029V118.611H152.502V110.139Z" fill="white"/>
<path d="M169.444 76.252H160.971V84.7247H169.444V76.252Z" fill="#D9D9D9"/>
<path d="M152.502 135.557H144.029V144.029H152.502V135.557Z" fill="#D9D9D9"/>
<path d="M152.502 127.084H144.029V135.557H152.502V127.084Z" fill="white"/>
<path d="M152.502 118.611H144.029V127.084H152.502V118.611Z" fill="white"/>
<path d="M177.916 76.252H169.443V84.7247H177.916V76.252Z" fill="white"/>
<path d="M220.277 76.25H211.805V84.7228H220.277V76.25Z" fill="white"/>
<path d="M228.75 76.252H220.277V84.7247H228.75V76.252Z" fill="white"/>
<path d="M237.223 76.252H228.75V84.7247H237.223V76.252Z" fill="white"/>
<path d="M245.695 76.252H237.223V84.7247H245.695V76.252Z" fill="white"/>
<path d="M194.861 76.25H186.389V84.7228H194.861V76.25Z" fill="white"/>
<path d="M186.389 76.25H177.916V84.7228H186.389V76.25Z" fill="white"/>
<path d="M152.502 144.029H144.029V152.502H152.502V144.029Z" fill="#FFF7C7"/>
<path d="M203.336 76.25H194.863V84.7228H203.336V76.25Z" fill="white"/>
<path d="M211.805 76.25H203.332V84.7228H211.805V76.25Z" fill="white"/>
<path d="M245.695 84.7246H237.223V93.1974H245.695V84.7246Z" fill="white"/>
<path d="M160.971 110.139H152.498V118.611H160.971V110.139Z" fill="white"/>
<path d="M160.971 101.67H152.498V110.143H160.971V101.67Z" fill="white"/>
<path d="M237.223 93.1973H228.75V101.67H237.223V93.1973Z" fill="white"/>
<path d="M160.971 93.1973H152.498V101.67H160.971V93.1973Z" fill="white"/>
<path d="M160.971 118.611H152.498V127.084H160.971V118.611Z" fill="white"/>
<path d="M160.971 84.7246H152.498V93.1974H160.971V84.7246Z" fill="#D9D9D9"/>
<path d="M245.695 93.1973H237.223V101.67H245.695V93.1973Z" fill="white"/>
<path d="M160.971 144.029H152.498V152.502H160.971V144.029Z" fill="#FFF7C7"/>
<path d="M160.971 135.557H152.498V144.029H160.971V135.557Z" fill="#D9D9D9"/>
<path d="M160.971 127.084H152.498V135.557H160.971V127.084Z" fill="white"/>
<path d="M237.223 84.7246H228.75V93.1974H237.223V84.7246Z" fill="white"/>
<path d="M169.444 84.7246H160.971V93.1974H169.444V84.7246Z" fill="#FFF7C7"/>
<path d="M211.805 84.7246H203.332V93.1974H211.805V84.7246Z" fill="white"/>
<path d="M228.75 84.7246H220.277V93.1974H228.75V84.7246Z" fill="white"/>
<path d="M220.277 84.7246H211.805V93.1974H220.277V84.7246Z" fill="white"/>
<path d="M186.389 84.7246H177.916V93.1974H186.389V84.7246Z" fill="#FFF7C7"/>
<path d="M177.916 84.7246H169.443V93.1974H177.916V84.7246Z" fill="#FFF7C7"/>
<path d="M203.336 84.7246H194.863V93.1974H203.336V84.7246Z" fill="white"/>
<path d="M194.861 84.7246H186.389V93.1974H194.861V84.7246Z" fill="white"/>
<path d="M245.695 127.084H237.223V135.557H245.695V127.084Z" fill="#FFF7C7"/>
<path d="M245.695 101.67H237.223V110.143H245.695V101.67Z" fill="white"/>
<path d="M245.695 110.139H237.223V118.611H245.695V110.139Z" fill="white"/>
<path d="M245.695 118.611H237.223V127.084H245.695V118.611Z" fill="#D9D9D9"/>
<path d="M211.805 16.9453H203.332V25.4181H211.805V16.9453Z" fill="white"/>
<path d="M186.389 25.418H177.916V33.8907H186.389V25.418Z" fill="white"/>
<path d="M177.916 25.418H169.443V33.8907H177.916V25.418Z" fill="#FFF7C7"/>
<path d="M194.861 25.418H186.389V33.8907H194.861V25.418Z" fill="white"/>
<path d="M211.805 25.418H203.332V33.8907H211.805V25.418Z" fill="white"/>
<path d="M203.336 25.418H194.863V33.8907H203.336V25.418Z" fill="white"/>
<path d="M169.444 25.418H160.971V33.8907H169.444V25.418Z" fill="#FFF7C7"/>
<path d="M228.748 25.418H220.275V33.8907H228.748V25.418Z" fill="white"/>
<path d="M245.695 25.418H237.223V33.8907H245.695V25.418Z" fill="white"/>
<path d="M262.637 25.418H254.164V33.8907H262.637V25.418Z" fill="#FFF7C7"/>
<path d="M237.223 25.418H228.75V33.8907H237.223V25.418Z" fill="white"/>
<path d="M254.168 25.418H245.695V33.8907H254.168V25.418Z" fill="white"/>
<path d="M220.277 25.418H211.805V33.8907H220.277V25.418Z" fill="white"/>
<path d="M101.664 84.7246H93.1914V93.1974H101.664V84.7246Z" fill="white"/>
<path d="M101.664 118.611H93.1914V127.084H101.664V118.611Z" fill="#FFF7C7"/>
<path d="M101.664 110.139H93.1914V118.611H101.664V110.139Z" fill="#FFF7C7"/>
<path d="M101.664 101.67H93.1914V110.143H101.664V101.67Z" fill="white"/>
<path d="M101.664 144.029H93.1914V152.502H101.664V144.029Z" fill="#FFF7C7"/>
<path d="M101.664 135.557H93.1914V144.029H101.664V135.557Z" fill="#FFF7C7"/>
<path d="M101.664 127.084H93.1914V135.557H101.664V127.084Z" fill="#FFF7C7"/>
<path d="M101.664 76.25H93.1914V84.7228H101.664V76.25Z" fill="#D9D9D9"/>
<path d="M101.664 67.7773H93.1914V76.2501H101.664V67.7773Z" fill="white"/>
<path d="M101.664 59.3047H93.1914V67.7774H101.664V59.3047Z" fill="#FFF7C7"/>
<path d="M101.664 50.832H93.1914V59.3048H101.664V50.832Z" fill="#FFF7C7"/>
<path d="M101.664 93.1973H93.1914V101.67H101.664V93.1973Z" fill="white"/>
<path d="M296.527 101.67H288.055V110.143H296.527V101.67Z" fill="#FFF7C7"/>
<path d="M296.527 84.7246H288.055V93.1974H296.527V84.7246Z" fill="#FFF7C7"/>
<path d="M296.527 93.1973H288.055V101.67H296.527V93.1973Z" fill="#FFF7C7"/>
<path d="M296.527 110.139H288.055V118.611H296.527V110.139Z" fill="#FFF7C7"/>
<path d="M296.527 76.252H288.055V84.7247H296.527V76.252Z" fill="#FFF7C7"/>
<path d="M296.527 118.611H288.055V127.084H296.527V118.611Z" fill="#FFF7C7"/>
<path d="M296.527 67.7773H288.055V76.2501H296.527V67.7773Z" fill="#D9D9D9"/>
<path d="M305 110.139H296.527V118.611H305V110.139Z" fill="#FFF7C7"/>
<path d="M305 84.7246H296.527V93.1974H305V84.7246Z" fill="#FFF7C7"/>
<path d="M305 93.1973H296.527V101.67H305V93.1973Z" fill="#FFF7C7"/>
<path d="M305 101.67H296.527V110.143H305V101.67Z" fill="#FFF7C7"/>
<path d="M305 76.252H296.527V84.7247H305V76.252Z" fill="#FFF7C7"/>
<path d="M169.444 16.9453H160.971V25.4181H169.444V16.9453Z" fill="#FFF7C7"/>
<path d="M262.637 16.9453H254.164V25.4181H262.637V16.9453Z" fill="#FFF7C7"/>
<path d="M177.916 16.9453H169.443V25.4181H177.916V16.9453Z" fill="#FFF7C7"/>
<path d="M237.223 16.9453H228.75V25.4181H237.223V16.9453Z" fill="white"/>
<path d="M245.695 16.9453H237.223V25.4181H245.695V16.9453Z" fill="white"/>
<path d="M228.75 16.9453H220.277V25.4181H228.75V16.9453Z" fill="white"/>
<path d="M254.168 16.9453H245.695V25.4181H254.168V16.9453Z" fill="white"/>
<path d="M220.277 16.9453H211.805V25.4181H220.277V16.9453Z" fill="white"/>
<path d="M186.389 16.9453H177.916V25.4181H186.389V16.9453Z" fill="#FFF7C7"/>
<path d="M194.861 16.9453H186.389V25.4181H194.861V16.9453Z" fill="white"/>
<path d="M203.336 16.9453H194.863V25.4181H203.336V16.9453Z" fill="white"/>
<path d="M160.971 42.3633H152.498V50.8361H160.971V42.3633Z" fill="#FFF7C7"/>
<path d="M118.61 76.25H110.137V84.7228H118.61V76.25Z" fill="#D9D9D9"/>
<path d="M118.61 67.7773H110.137V76.2501H118.61V67.7773Z" fill="white"/>
<path d="M118.61 59.3047H110.137V67.7774H118.61V59.3047Z" fill="#FFF7C7"/>
<path d="M177.916 42.3633H169.443V50.8361H177.916V42.3633Z" fill="white"/>
<path d="M228.75 42.3633H220.277V50.8361H228.75V42.3633Z" fill="white"/>
<path d="M220.277 42.3633H211.805V50.8361H220.277V42.3633Z" fill="white"/>
<path d="M237.223 42.3633H228.75V50.8361H237.223V42.3633Z" fill="white"/>
<path d="M211.805 42.3633H203.332V50.8361H211.805V42.3633Z" fill="white"/>
<path d="M118.61 84.7246H110.137V93.1974H118.61V84.7246Z" fill="white"/>
<path d="M203.336 42.3633H194.863V50.8361H203.336V42.3633Z" fill="white"/>
<path d="M186.389 42.3633H177.916V50.8361H186.389V42.3633Z" fill="white"/>
<path d="M169.444 42.3633H160.971V50.8361H169.444V42.3633Z" fill="white"/>
<path d="M194.861 42.3633H186.389V50.8361H194.861V42.3633Z" fill="white"/>
<path d="M245.695 42.3633H237.223V50.8361H245.695V42.3633Z" fill="white"/>
<path d="M118.61 144.029H110.137V152.502H118.61V144.029Z" fill="#FFF7C7"/>
<path d="M118.61 127.084H110.137V135.557H118.61V127.084Z" fill="white"/>
<path d="M118.61 110.139H110.137V118.611H118.61V110.139Z" fill="white"/>
<path d="M118.61 118.611H110.137V127.084H118.61V118.611Z" fill="white"/>
<path d="M118.61 101.67H110.137V110.143H118.61V101.67Z" fill="white"/>
<path d="M118.61 135.557H110.137V144.029H118.61V135.557Z" fill="#FFF7C7"/>
<path d="M118.61 93.1973H110.137V101.67H118.61V93.1973Z" fill="white"/>
<path d="M279.582 76.25H271.109V84.7228H279.582V76.25Z" fill="white"/>
<path d="M254.168 42.3633H245.695V50.8361H254.168V42.3633Z" fill="white"/>
<path d="M279.582 59.3047H271.109V67.7774H279.582V59.3047Z" fill="#D9D9D9"/>
<path d="M279.582 67.7773H271.109V76.2501H279.582V67.7773Z" fill="white"/>
<path d="M279.582 93.1973H271.109V101.67H279.582V93.1973Z" fill="white"/>
<path d="M279.582 84.7246H271.109V93.1974H279.582V84.7246Z" fill="white"/>
<path d="M271.109 42.3633H262.637V50.8361H271.109V42.3633Z" fill="white"/>
<path d="M262.637 42.3633H254.164V50.8361H262.637V42.3633Z" fill="white"/>
<path d="M279.582 101.67H271.109V110.143H279.582V101.67Z" fill="#D9D9D9"/>
<path d="M279.582 110.139H271.109V118.611H279.582V110.139Z" fill="#D9D9D9"/>
<path d="M279.582 118.611H271.109V127.084H279.582V118.611Z" fill="#FFF7C7"/>
<path d="M279.582 127.084H271.109V135.557H279.582V127.084Z" fill="#FFF7C7"/>
<path d="M110.137 50.832H101.664V59.3048H110.137V50.832Z" fill="#FFF7C7"/>
<path d="M110.137 59.3047H101.664V67.7774H110.137V59.3047Z" fill="#FFF7C7"/>
<path d="M245.695 33.8906H237.223V42.3634H245.695V33.8906Z" fill="white"/>
<path d="M177.916 33.8906H169.443V42.3634H177.916V33.8906Z" fill="#FFF7C7"/>
<path d="M211.805 33.8906H203.332V42.3634H211.805V33.8906Z" fill="white"/>
<path d="M169.444 33.8906H160.971V42.3634H169.444V33.8906Z" fill="#FFF7C7"/>
<path d="M220.277 33.8906H211.805V42.3634H220.277V33.8906Z" fill="white"/>
<path d="M237.223 33.8906H228.75V42.3634H237.223V33.8906Z" fill="white"/>
<path d="M228.75 33.8906H220.277V42.3634H228.75V33.8906Z" fill="white"/>
<path d="M110.137 67.7773H101.664V76.2501H110.137V67.7773Z" fill="white"/>
<path d="M203.336 33.8906H194.863V42.3634H203.336V33.8906Z" fill="white"/>
<path d="M186.389 33.8906H177.916V42.3634H186.389V33.8906Z" fill="white"/>
<path d="M194.861 33.8906H186.389V42.3634H194.861V33.8906Z" fill="white"/>
<path d="M110.137 76.25H101.664V84.7228H110.137V76.25Z" fill="#D9D9D9"/>
<path d="M110.137 101.67H101.664V110.143H110.137V101.67Z" fill="white"/>
<path d="M110.137 110.139H101.664V118.611H110.137V110.139Z" fill="white"/>
<path d="M110.137 84.7246H101.664V93.1974H110.137V84.7246Z" fill="white"/>
<path d="M110.137 93.1973H101.664V101.67H110.137V93.1973Z" fill="white"/>
<path d="M110.137 135.557H101.664V144.029H110.137V135.557Z" fill="#FFF7C7"/>
<path d="M110.137 118.611H101.664V127.084H110.137V118.611Z" fill="white"/>
<path d="M110.137 144.029H101.664V152.502H110.137V144.029Z" fill="#FFF7C7"/>
<path d="M110.137 127.084H101.664V135.557H110.137V127.084Z" fill="white"/>
<path d="M271.109 33.8906H262.637V42.3634H271.109V33.8906Z" fill="#FFF7C7"/>
<path d="M288.055 76.25H279.582V84.7228H288.055V76.25Z" fill="#D9D9D9"/>
<path d="M288.055 67.7773H279.582V76.2501H288.055V67.7773Z" fill="#D9D9D9"/>
<path d="M288.055 59.3047H279.582V67.7774H288.055V59.3047Z" fill="#D9D9D9"/>
<path d="M262.637 33.8906H254.164V42.3634H262.637V33.8906Z" fill="white"/>
<path d="M254.168 33.8906H245.695V42.3634H254.168V33.8906Z" fill="#D9D9D9"/>
<path d="M288.055 110.139H279.582V118.611H288.055V110.139Z" fill="#FFF7C7"/>
<path d="M288.055 84.7246H279.582V93.1974H288.055V84.7246Z" fill="#D9D9D9"/>
<path d="M288.055 127.084H279.582V135.557H288.055V127.084Z" fill="#FFF7C7"/>
<path d="M288.055 93.1973H279.582V101.67H288.055V93.1973Z" fill="#D9D9D9"/>
<path d="M288.055 101.67H279.582V110.143H288.055V101.67Z" fill="#D9D9D9"/>
<path d="M288.055 118.611H279.582V127.084H288.055V118.611Z" fill="#FFF7C7"/>
<path d="M152.502 50.832H144.029V59.3048H152.502V50.832Z" fill="#FFF7C7"/>
<path d="M8.47281 84.7246H0V93.1974H8.47281V84.7246Z" fill="#FFF7C7"/>
<path d="M8.47281 93.1973H0V101.67H8.47281V93.1973Z" fill="#D9D9D9"/>
<path d="M8.47281 110.139H0V118.611H8.47281V110.139Z" fill="#FFF7C7"/>
<path d="M8.47281 118.611H0V127.084H8.47281V118.611Z" fill="#FFF7C7"/>
<path d="M8.47281 101.67H0V110.143H8.47281V101.67Z" fill="#D9D9D9"/>
<path d="M33.8907 93.1973H25.418V101.67H33.8907V93.1973Z" fill="#D9D9D9"/>
<path d="M33.8907 101.67H25.418V110.143H33.8907V101.67Z" fill="#D9D9D9"/>
<path d="M33.8907 110.139H25.418V118.611H33.8907V110.139Z" fill="#D9D9D9"/>
<path d="M33.8907 84.7246H25.418V93.1974H33.8907V84.7246Z" fill="#FFF7C7"/>
<path d="M33.8907 118.611H25.418V127.084H33.8907V118.611Z" fill="#FFF7C7"/>
<path d="M33.8907 127.084H25.418V135.557H33.8907V127.084Z" fill="#FFF7C7"/>
<path d="M33.8907 67.7773H25.418V76.2501H33.8907V67.7773Z" fill="#FFF7C7"/>
<path d="M33.8907 76.25H25.418V84.7228H33.8907V76.25Z" fill="#FFF7C7"/>
<path d="M42.3634 118.611H33.8906V127.084H42.3634V118.611Z" fill="#D9D9D9"/>
<path d="M42.3634 110.139H33.8906V118.611H42.3634V110.139Z" fill="#D9D9D9"/>
<path d="M42.3634 127.084H33.8906V135.557H42.3634V127.084Z" fill="#FFF7C7"/>
<path d="M42.3634 101.67H33.8906V110.143H42.3634V101.67Z" fill="#D9D9D9"/>
<path d="M42.3634 50.832H33.8906V59.3048H42.3634V50.832Z" fill="#FFF7C7"/>
<path d="M42.3634 67.7773H33.8906V76.2501H42.3634V67.7773Z" fill="white"/>
<path d="M42.3634 76.25H33.8906V84.7228H42.3634V76.25Z" fill="white"/>
<path d="M42.3634 59.3047H33.8906V67.7774H42.3634V59.3047Z" fill="#FFF7C7"/>
<path d="M42.3634 93.1973H33.8906V101.67H42.3634V93.1973Z" fill="white"/>
<path d="M42.3634 84.7246H33.8906V93.1974H42.3634V84.7246Z" fill="white"/>
<path d="M16.9454 110.139H8.47266V118.611H16.9454V110.139Z" fill="#FFF7C7"/>
<path d="M16.9454 118.611H8.47266V127.084H16.9454V118.611Z" fill="#FFF7C7"/>
<path d="M16.9454 101.67H8.47266V110.143H16.9454V101.67Z" fill="#D9D9D9"/>
<path d="M16.9454 93.1973H8.47266V101.67H16.9454V93.1973Z" fill="#D9D9D9"/>
<path d="M16.9454 76.252H8.47266V84.7247H16.9454V76.252Z" fill="#FFF7C7"/>
<path d="M16.9454 84.7246H8.47266V93.1974H16.9454V84.7246Z" fill="#FFF7C7"/>
<path d="M25.4181 101.67H16.9453V110.143H25.4181V101.67Z" fill="#D9D9D9"/>
<path d="M25.4181 93.1973H16.9453V101.67H25.4181V93.1973Z" fill="#D9D9D9"/>
<path d="M25.4181 84.7246H16.9453V93.1974H25.4181V84.7246Z" fill="#FFF7C7"/>
<path d="M25.4181 76.25H16.9453V84.7228H25.4181V76.25Z" fill="#FFF7C7"/>
<path d="M25.4181 110.139H16.9453V118.611H25.4181V110.139Z" fill="#D9D9D9"/>
<path d="M25.4181 127.084H16.9453V135.557H25.4181V127.084Z" fill="#FFF7C7"/>
<path d="M25.4181 118.611H16.9453V127.084H25.4181V118.611Z" fill="#FFF7C7"/>
<path d="M25.4181 67.7773H16.9453V76.2501H25.4181V67.7773Z" fill="#FFF7C7"/>
</svg>
