<svg width="202" height="310" viewBox="0 0 202 310" fill="none" xmlns="http://www.w3.org/2000/svg">
<path d="M199.243 238.177C190.995 270.419 113.199 310.904 97.3919 307.157C81.5852 303.41 34.5273 206.614 34.5273 206.614C14.999 195.861 19.1983 182.836 19.1983 182.836C2.64231 155.824 -36.2684 87.2665 -35.9868 77.3591C-35.6699 66.1842 -24.0978 55.4621 -23.7357 55.1301L82.1133 142.014L107.556 162.9L199.243 238.177Z" fill="#FE8E90"/>
<path d="M199.981 235.597C199.898 236.496 199.647 237.371 199.242 238.177C191.28 254.98 122.874 292.94 107.766 289.912C94.0212 287.166 45.8467 189.248 45.8467 189.248C45.8467 189.248 30.4776 184.003 31.0006 167.16C31.0006 167.16 -30.6218 65.4301 -24.6421 56.2367C-24.3733 55.8422 -24.0704 55.472 -23.7369 55.1303C-13.0348 43.7946 62.2318 0.443109 71.1938 2.04239C79.5472 3.55114 131.182 107.152 131.182 107.152C131.182 107.152 147.974 113.122 147.476 134.913C147.476 134.933 200.816 221.928 199.981 235.597Z" fill="#5CBC65"/>
<path d="M147.477 134.933C147.477 134.933 131.535 148.713 107.555 162.9C90.1947 173.165 68.6296 183.64 45.8475 189.248L34.5017 206.629C14.9734 195.876 19.1728 182.851 19.1728 182.851L31.0014 167.16C31.0014 167.16 53.8841 158.545 82.1128 142.014C97.824 132.811 115.19 121.158 131.182 107.172C131.182 107.172 147.975 113.157 147.477 134.933Z" fill="#FCBB41"/>
<path d="M-1.34574 56.8302C-3.60384 62.6942 40.3964 142.075 45.9687 141.823C51.541 141.572 104.574 113.263 103.663 107.062C102.753 100.861 63.3998 23.4113 56.3489 23.0744C51.2292 22.7827 2.44625 47.0082 -1.34574 56.8302Z" fill="#FCBB41"/>
<rect x="28.3906" y="62.4468" width="26.1279" height="54.3992" rx="13.0639" transform="rotate(-23.8877 28.3906 62.4468)" stroke="black" stroke-width="1.05258"/>
<path d="M56.431 107.83C55.9616 107.862 55.4844 107.944 55.0563 107.655C54.5191 107.437 54.0752 107.195 53.7463 106.617C53.431 106.058 52.8003 105.75 52.047 106.066C51.5781 106.261 51.0611 106.499 50.5882 106.034C48.945 105.027 47.6589 103.642 46.4876 102.14C46.1487 101.708 46.0006 101.161 45.6485 100.728C45.4212 100.448 45.4081 100.114 45.8042 99.9389C46.1517 99.7871 46.432 99.9113 46.5659 100.278C46.6531 100.52 46.7136 100.775 46.979 101.128C46.6916 100.435 46.9444 100.139 47.4088 99.8367C48.1981 99.326 49.2139 99.3919 49.946 98.7725C50.9405 98.2332 52.0335 97.94 53.0729 97.5139C53.9136 97.1706 53.9528 97.0906 53.586 96.2512C53.3643 95.75 53.1374 95.2496 52.9207 94.7475C52.6638 94.1445 52.3094 94.0797 51.7612 94.3354C50.5049 94.9258 49.1909 95.3578 47.8599 95.7507C46.7546 96.08 45.6608 96.4311 44.4832 96.4339C44.1083 96.4354 43.8191 96.3363 43.5377 96.1256C43.0295 95.6218 42.8629 94.9304 42.5741 94.309C41.9629 93.0062 41.3909 91.6865 40.8189 90.3667C40.7285 90.1534 40.4748 89.9355 40.7157 89.6622C41.4974 89.4073 42.3181 89.5631 43.118 89.4337C45.9305 88.9721 48.5964 88.0677 51.2137 86.9798C51.7145 86.7712 52.1903 86.4592 52.777 86.5644C53.5292 87.0043 53.6355 87.8552 53.9455 88.5413C56.5664 94.3426 59.1757 100.154 61.7676 105.97C61.8838 106.229 62.0643 106.48 61.94 106.792C61.6048 107.209 61.1004 107.253 60.6351 107.374C59.2469 107.659 57.8423 107.796 56.4259 107.83L56.431 107.83Z" fill="#F83857"/>
<path d="M64.4283 79.2061C65.0975 80.6856 65.572 82.3363 66.2391 83.8188C66.5811 84.19 66.6496 84.7165 66.854 85.1603C67.0992 85.6918 67.2439 85.9171 66.839 86.3565C65.7442 87.5447 64.3777 88.358 63.0095 89.161C62.1128 89.6894 61.1674 90.1288 60.2296 90.5827C59.9404 90.7222 59.6321 90.8256 59.5655 91.2013C59.0239 92.4975 59.8101 93.1916 60.75 93.8157C61.5554 93.9425 62.1509 93.3694 62.8623 93.1811C64.1363 92.7295 65.2389 91.9703 66.3491 91.2256C66.4215 91.1874 66.4986 91.1616 66.5795 91.143C66.843 91.1021 67.0679 90.9705 67.2996 90.8483C67.4516 90.7681 67.6135 90.6994 67.7918 90.6831C67.9395 90.6719 68.1769 90.6799 68.1866 90.7859C68.294 91.7547 69.6407 91.0444 69.7156 92.1654C69.7762 93.1052 70.0649 94.0913 70.1192 95.04C70.18 95.8538 70.0941 96.6524 69.8554 97.4317C69.4092 98.6387 69.0412 99.8749 68.4466 101.025C67.6236 102.62 66.3781 103.848 65.0978 105.057C64.9363 105.207 64.7243 105.195 64.5223 105.162C64.2304 105.111 64.0511 105.216 63.8906 105.484C63.2412 106.573 62.6457 106.668 61.7413 105.863C61.1668 105.037 60.8866 104.07 60.4527 103.174C60.1313 102.133 60.9527 101.816 61.5909 101.39C61.6268 101.29 61.6385 101.186 61.6391 101.078C61.6262 100.889 61.5907 100.706 61.505 100.536C61.4715 100.476 61.4401 100.413 61.4108 100.347C61.3328 100.192 61.2245 100.06 61.1298 99.916C61.0496 99.7954 60.9787 99.6681 60.9172 99.5339C60.792 99.3001 60.7993 99.026 60.669 98.7931C60.6188 98.7436 60.5751 98.6852 60.5343 98.629C60.4498 98.5144 60.39 98.3904 60.3468 98.2559C60.3095 98.1571 60.2795 98.0545 60.2422 97.9557C60.1756 97.8224 60.1119 97.6912 60.01 97.5821C59.8663 97.4746 59.697 97.4344 59.5238 97.4183C59.4387 97.4114 59.3417 97.3959 59.2752 97.4384C58.5152 97.9521 58.0404 97.6028 57.6747 96.9128C56.9673 95.3609 56.1321 93.8616 55.6402 92.2164C55.669 91.9939 55.7838 91.8149 55.9275 91.6521C56.186 91.2789 56.8115 91.3173 56.9124 90.7681C56.8969 90.5949 56.8763 90.4225 56.8004 90.2645C56.772 90.2036 56.7508 90.1388 56.7266 90.072C56.6763 89.9098 56.6093 89.7582 56.5031 89.6235C56.4623 89.5673 56.4339 89.5064 56.4025 89.4433C56.3245 89.2568 56.2456 89.0652 56.0909 88.9228C55.9797 88.789 55.882 88.6424 55.8133 88.4806C55.7433 88.3269 55.7155 88.1583 55.6332 88.0092C55.5729 87.93 55.522 87.8439 55.471 87.7579C55.3874 87.6169 55.3566 87.4462 55.244 87.3205C54.7816 87.2367 54.409 87.6183 53.9499 87.555C53.1865 86.9989 53.2001 86.4457 53.9877 86.0192C54.3395 85.83 54.7189 85.6965 55.0054 85.3974C56.562 84.4006 58.2709 83.6751 59.8114 82.6443C61.2292 81.6966 62.633 80.7434 63.7806 79.4626C63.9379 79.2871 64.1137 79.0482 64.4224 79.2019L64.4283 79.2061Z" fill="#F83857"/>
<path d="M39.8248 85.7771C41.0515 85.6429 42.2905 85.5669 43.4755 85.1641C43.7871 84.8424 44.2085 84.7571 44.616 84.6348C46.4149 84.1044 48.1663 83.4454 49.9075 82.7566C51.0454 82.3064 51.2031 82.388 51.6717 83.4939C52.052 84.3835 52.6916 85.1752 52.7271 86.2005C52.6282 86.571 52.2787 86.6313 51.9993 86.7509C49.2576 87.9118 46.4677 88.939 43.5262 89.4612C42.639 89.6181 41.7156 89.8571 40.8217 89.4326C39.7796 88.7939 39.6785 87.609 39.2013 86.6409C39.4081 86.3523 39.5279 85.9967 39.8329 85.7784L39.8248 85.7771Z" fill="#FCFCFC"/>
<path d="M63.9989 78.6734C63.9834 78.8019 63.9708 78.9325 63.9532 79.064C63.7571 80.0854 62.869 80.539 62.1736 81.0945C60.225 82.6571 58.0574 83.8781 55.8299 85.0066C55.2851 85.2828 54.9342 85.1439 54.7172 84.6235C54.5264 84.167 54.2973 83.7325 54.1312 83.2667C53.167 81.2876 53.1577 81.2314 55.1122 80.245C57.0884 79.2472 58.9271 78.0517 60.6549 76.6777C60.8616 76.515 61.075 76.3617 61.3508 76.3477C61.8165 76.0058 62.1539 75.554 62.456 75.0004C62.963 75.7195 62.9744 76.615 63.4909 77.2643C63.4094 77.6608 63.3581 78.0655 63.1949 78.4755C63.4659 78.5436 63.8392 78.2301 63.9908 78.6721L63.9989 78.6734Z" fill="#FBFBFC"/>
<path d="M67.4957 86.0189C67.7372 86.9892 68.4356 87.7869 68.5434 88.8055C68.437 89.3373 68.1555 89.7301 67.7289 90.0865C65.865 91.6377 63.8085 92.8482 61.5554 93.7422C61.0456 93.9443 60.7267 93.7923 60.4946 93.3243C60.2236 92.7787 59.9721 92.2246 59.7278 91.6667C59.4751 91.0893 59.6314 90.7644 60.1999 90.5052C61.9396 89.7118 63.6114 88.793 65.1835 87.6992C65.8047 87.2661 66.315 86.7175 66.8958 86.2465C67.0764 86.1012 67.2087 85.8853 67.4855 86.0206L67.4957 86.0189Z" fill="#FAFBFB"/>
<path d="M45.0781 99.3876C44.318 98.6131 44.161 97.5187 43.6232 96.6288C43.701 96.4323 43.8674 96.4075 44.0483 96.4065C46.5911 96.3778 48.8865 95.406 51.2042 94.5223C51.4729 94.4176 51.7463 94.3253 52.0103 94.2082C52.3941 94.0373 52.668 94.1076 52.8576 94.5092C53.1698 95.1608 53.4428 95.8294 53.7448 96.4827C53.9615 96.9533 53.7878 97.2837 53.3411 97.4545C51.0816 98.3259 48.8649 99.345 46.4128 99.6054C45.9459 99.6536 45.4905 99.6606 45.076 99.3905L45.0781 99.3876Z" fill="#FAFBFB"/>
<path d="M61.3562 76.3465C59.8016 77.9437 57.8781 79.0063 55.9719 80.0949C55.3939 80.4238 54.8176 80.7629 54.2065 81.0186C53.6294 81.2581 53.5724 81.564 53.8601 82.0675C54.0596 82.4176 54.1888 82.803 54.3499 83.1752C54.2573 83.298 54.142 83.283 54.02 83.227C53.7934 83.0781 53.6456 82.8506 53.5613 82.6101C53.3152 81.9292 52.9078 81.9571 52.3355 82.209C51.6703 82.5024 51.8143 82.8984 52.0412 83.3988C52.4068 84.2148 52.7979 85.0265 53.0902 85.8756C53.1358 86.0884 53.1278 86.2944 52.9756 86.4691C52.9087 86.5247 52.83 86.5403 52.744 86.5283C52.6271 86.44 52.6239 86.3251 52.6658 86.1975C52.1912 85.1503 51.6992 84.1085 51.2545 83.0511C51.0985 82.6781 50.9581 82.6541 50.5838 82.7867C48.7975 83.4252 47.0633 84.2046 45.2296 84.7146C44.6501 84.8758 44.0643 85.0144 43.4802 85.1633C43.5161 85.0944 43.5549 85.0277 43.5886 84.9618C43.6265 84.6827 43.8531 84.5928 44.0698 84.5229C44.4973 84.3789 44.7974 84.067 45.1425 83.8054C45.7471 83.3514 45.8156 82.86 45.5592 82.1493C45.3533 81.5694 44.7203 81.1517 44.8827 80.4349C44.9742 80.4329 45.0657 80.4309 45.1572 80.4289C45.0473 79.9538 44.586 79.6863 44.4501 79.2286C44.4065 79.1072 44.4075 78.9864 44.4724 78.8707C44.572 78.87 44.6715 78.8693 44.772 78.8737C45.3727 78.953 45.4919 79.4843 45.6951 79.9046C46.0009 80.5337 46.1075 81.2271 46.3014 81.893C46.425 82.3239 46.5506 82.7833 47.1734 82.9638C46.9874 82.4252 46.7468 82.0005 46.5977 81.5424C46.2191 80.3927 46.5135 79.6489 47.5952 79.1135C48.893 78.4717 50.2268 77.9052 51.5529 77.3243C52.9255 76.7226 53.6935 77.0523 54.3335 78.4343C54.465 78.7222 54.5654 79.0283 54.9065 79.3945C55.0842 78.7066 54.784 78.2708 54.4757 77.8651C53.8378 77.0206 53.3124 76.1261 53.2362 75.0446C53.2104 74.6658 53.098 74.2069 53.6353 74.029C53.6889 74.0674 53.7437 74.0977 53.7994 74.1331C54.1717 74.4809 53.9965 74.9454 54.0124 75.3442C54.0363 75.8387 54.2773 75.7727 54.5851 75.714C54.9778 76.3288 54.9634 77.0841 55.3207 77.723C55.8143 78.5992 55.9745 78.6961 57.2426 78.5104C58.0573 78.3917 58.4644 78.0123 58.618 77.2261C58.63 77.1716 58.6581 77.1197 58.6952 77.0743C58.7409 77.0169 58.7873 76.9646 58.8329 76.9072C59.6395 76.8187 60.3609 76.5475 60.9342 75.936C61.0817 75.7805 61.2896 75.6412 61.5409 75.7808C61.4577 75.9598 61.3059 76.1213 61.3613 76.3456L61.3562 76.3465Z" fill="#1B1A24"/>
<path d="M59.8627 69.7321C59.0619 67.9962 58.2148 66.2811 57.4728 64.5198C54.2124 56.7828 45.1568 54.0087 38.2843 58.8345C34.2778 61.6471 32.558 65.6933 32.9775 70.6195C33.1956 73.181 34.4702 75.3555 35.4475 77.6368C36.2489 79.5038 37.1112 81.3424 37.9394 83.197C38.0802 83.5096 38.2802 83.8151 38.1533 84.4132C37.5353 83.0696 36.9848 81.8958 36.4538 80.7136C35.5527 78.7031 34.666 76.6849 33.767 74.6714C30.2484 66.817 34.8663 57.9162 43.2947 56.3179C49.0114 55.2353 55.1158 58.4257 57.4808 63.7418C58.3676 65.7285 59.2492 67.716 60.133 69.7006C60.0583 69.8362 59.9722 69.8872 59.8627 69.7321Z" fill="#3E6B9F"/>
<path d="M53.6335 74.0274C53.1206 75.1642 53.6741 76.1013 54.2156 77.0299C54.4172 77.3771 54.6653 77.7035 54.9052 78.0285C55.4003 78.7077 55.4644 79.3661 54.8007 80.0345C54.5174 79.4306 54.2511 78.8344 53.9631 78.2496C53.5104 77.3352 52.8912 77.0491 51.9803 77.4277C50.4613 78.0641 48.9563 78.7375 47.4614 79.4408C46.7212 79.7886 46.4966 80.5419 46.803 81.365C46.9251 81.6912 47.0812 82.0012 47.2207 82.3219C47.3564 82.6353 47.4878 82.9547 47.6307 83.2958C46.3564 83.0942 46.2302 82.9813 45.9006 81.4615C45.6949 80.5168 45.4474 79.6052 44.7753 78.8714C44.5961 78.6123 44.3363 78.4532 44.08 78.283C43.6735 78.0142 43.9627 77.9062 44.2139 77.807C46.3994 78.7922 48.4641 78.3307 50.3828 77.143C51.5065 76.4486 52.5849 75.6225 52.8209 74.1432C52.8893 73.7148 53.1895 73.5786 53.5943 73.8057C53.6091 73.8793 53.6217 73.9559 53.6335 74.0274Z" fill="#F8F8FA"/>
<path d="M58.6912 77.0747C59.0752 77.7958 58.4725 78.6115 57.4561 78.7478C57.3999 78.7571 57.339 78.754 57.2846 78.742C56.7179 78.6466 55.9349 79.1484 55.6537 78.7803C55.1887 78.1723 54.7502 77.4392 54.64 76.6125C54.6009 76.3278 54.5728 76.0464 54.5388 75.7608C54.1673 75.4811 54.2851 75.2412 54.6004 75.0213C55.8329 74.4453 56.3345 74.575 57.616 75.8538C57.9992 76.2365 58.3352 76.6665 58.6912 77.0747Z" fill="#F6F8F9"/>
<path d="M67.4281 86.2458C66.8306 86.4572 66.6296 86.8131 66.163 87.1813C64.335 88.6321 62.2957 89.7244 60.1999 90.713C59.7931 90.9035 59.7176 91.0655 59.9157 91.4552C60.2958 92.2006 60.4672 93.3503 61.0456 93.6117C61.649 93.882 62.5436 93.0863 63.2723 92.6853C65.1997 91.63 67.1721 90.6249 68.5432 88.806C68.5625 88.955 68.5827 89.1091 68.6021 89.2581C68.6643 90.0323 68.0484 90.3386 67.5673 90.7145C67.2793 90.9404 66.9458 91.1293 66.5703 91.207L66.566 91.2129C65.4187 92.0346 64.1975 92.7268 62.9338 93.3525C62.2009 93.665 61.5417 94.2014 60.6695 94.0673C59.975 93.2138 59.5003 92.261 59.3178 91.1708C59.1969 90.6293 59.6583 90.5637 59.9722 90.4148C61.7742 89.5533 63.5328 88.6202 65.1718 87.4708C67.1772 86.0615 66.9396 85.6705 66.4312 84.1802C66.8717 85.0363 66.7485 85.1328 67.2371 85.8838L67.4281 86.2458Z" fill="#370A17"/>
<path d="M45.078 99.3876C48.0603 99.4621 50.7144 98.2789 53.401 97.2137C53.6543 97.1116 53.798 96.9803 53.6358 96.6974C53.6091 96.6468 53.5947 96.5914 53.5701 96.5378C53.2385 95.8001 53.0908 94.7619 52.5185 94.4104C51.9135 94.0353 51.0722 94.8196 50.3317 95.0861C48.1545 95.8679 45.9744 96.616 43.6231 96.6289C43.5983 96.4624 43.5713 96.299 43.5464 96.1325C45.5126 96.3931 47.3087 95.7031 49.1175 95.1212C50.1066 94.8032 51.0588 94.3732 52.0183 93.9708C52.4923 93.7745 52.8042 93.7729 53.0131 94.355C53.2953 95.1427 53.6618 95.9008 54.0253 96.6568C54.2416 97.1091 54.1221 97.3387 53.6724 97.5074C52.4848 97.9579 51.3044 98.4361 50.1244 98.901C48.7123 99.4699 47.2977 100.023 45.7321 99.9329C45.4989 99.9189 45.2644 99.976 45.1384 99.7056C45.1207 99.5983 45.0979 99.4919 45.0802 99.3846L45.078 99.3876Z" fill="#3D0C16"/>
<path d="M44.8864 80.4374C45.0151 80.6287 45.1748 80.8017 45.2643 81.01C45.601 81.7782 46.4381 82.5899 45.9262 83.367C45.5064 84.003 44.8928 84.7838 43.9053 84.8418C43.7964 84.8493 43.6933 84.924 43.5872 84.9651C42.7413 85.1651 43.0405 84.3706 42.7912 84.0523C42.5159 83.4812 42.7129 83.244 43.2798 83.4837C44.095 83.8292 44.6356 83.496 45.1289 82.9082C45.3125 82.2876 45.0609 81.7965 44.5366 81.5289C43.8145 81.16 43.2059 81.4625 42.5974 82.274C42.6814 81.3523 42.5009 80.5609 43.1349 80.1099C43.7241 79.69 44.3427 80.0838 44.8822 80.4434L44.8864 80.4374Z" fill="#F6F6F9"/>
<path d="M55.782 92.2582C56.3771 93.7971 57.0722 95.2907 57.8117 96.7665C58.9729 98.7787 60.0123 100.848 60.6411 103.1C61.0181 103.938 61.39 104.776 61.767 105.614C61.9809 105.988 62.406 106.275 62.2592 106.8C62.1567 106.798 62.049 106.798 61.9435 106.794C60.7651 104.599 59.8645 102.273 58.8377 100.011C56.8945 95.7398 54.9875 91.45 53.0638 87.1709C52.9816 86.9903 52.8529 86.8305 52.7459 86.6592C52.7077 86.5868 52.7295 86.5439 52.8104 86.5253L52.8125 86.5223C52.9811 86.4945 53.1484 86.4433 53.304 86.5593C54.056 87.9044 54.6623 89.3208 55.3027 90.7211C55.5258 91.2143 55.8042 91.693 55.7901 92.2595L55.782 92.2582Z" fill="#600510"/>
<path d="M41.5261 72.0344C41.2208 71.8382 41.1847 71.5555 41.2227 71.2134C41.3677 69.8986 41.9533 68.805 42.8252 67.8399C43.1155 67.5165 43.2405 67.5746 43.4199 67.9464C43.705 68.529 43.9035 68.9685 43.3573 69.6175C42.3643 70.802 42.3901 72.2618 42.7086 73.7152C41.9456 73.416 41.7719 72.697 41.521 72.0353L41.5261 72.0344Z" fill="#F9F9FB"/>
<path d="M56.7454 74.6939C57.9806 74.246 59.1952 73.9904 60.4477 73.9333C60.9116 73.9144 61.3811 73.913 61.8131 74.1146C62.1172 74.2559 62.2198 74.4961 62.1282 74.8313C62.0516 75.1142 61.9338 75.291 61.5959 75.2786C60.4848 75.239 59.4052 75.4696 58.3248 75.6952C57.49 75.8671 57.3386 74.9344 56.7432 74.6968L56.7454 74.6939Z" fill="#CDBAD5"/>
<path d="M53.5945 73.8052C53.4262 73.9143 53.0296 73.5941 53.0558 73.9912C53.1462 75.254 52.2506 75.9318 51.4911 76.6396C49.7863 78.2328 47.7078 78.77 45.4096 78.5327C44.9025 78.48 44.4555 78.2993 44.2111 77.8044C44.2996 77.8003 44.3903 77.7932 44.4788 77.7891C45.2262 77.7707 45.9282 78.1612 46.6889 78.0173C49.6244 77.7925 52.3434 75.8902 52.4247 73.9983C52.3092 74.0777 52.2307 74.2061 52.0966 74.2676C51.9739 74.3193 51.8539 74.3234 51.7485 74.2253C51.6294 73.9013 51.7606 73.5989 51.8598 73.3097C52.1671 72.422 51.9849 71.6833 51.2513 71.0855C51.143 70.9539 51.0666 70.809 51.009 70.6506C50.9276 70.2049 50.6822 69.8309 50.4926 69.4293C50.3892 68.8508 49.9467 68.2679 50.4775 67.6844C50.6354 67.6715 50.7962 67.6607 50.952 67.6507C50.8364 69.1758 51.357 70.4227 52.5914 71.3523C52.6355 71.4605 52.6817 71.5657 52.7288 71.676C52.8484 71.9554 53.0503 71.8433 53.2228 71.7598C53.7364 71.5018 54.2577 71.5286 54.7877 71.6878C54.9056 71.9569 55.0213 72.229 55.1392 72.4982C54.87 72.6476 54.6499 72.4583 54.4112 72.3953C53.962 72.2806 53.5316 72.3595 53.2328 72.6948C52.8917 73.0764 53.5192 73.2378 53.5182 73.5659C53.5419 73.646 53.5665 73.7311 53.5902 73.8112L53.5945 73.8052Z" fill="#292233"/>
<path d="M40.5649 84.1724C40.2922 84.4273 39.9888 84.6558 39.7526 84.9414C39.4899 85.2576 39.188 85.3835 38.856 85.1681C38.4474 84.9023 38.5791 84.5238 38.7818 84.1781C39.1526 83.5476 39.6794 83.0513 40.2372 82.5998C40.8806 82.0791 41.5631 81.6044 42.3582 81.0166C42.3507 81.7184 42.3443 82.2678 42.3379 82.8172C41.9198 83.4949 41.3313 83.9515 40.5688 84.1796L40.5649 84.1724Z" fill="#CCBBD3"/>
<path d="M45.1357 99.708C46.6713 99.9347 48.0927 99.3905 49.5419 99.0464C49.7364 99.0012 49.9301 98.9508 50.1217 98.9035C49.5523 99.6979 48.5546 99.5504 47.788 99.9288C46.9213 100.353 46.8547 100.728 47.5055 101.492C46.6086 101.606 46.4959 101.034 46.3784 100.545C46.3302 100.348 46.3999 100.119 46.1267 100.085C45.9982 100.069 45.8028 100.11 45.7329 100.195C45.5947 100.375 45.6808 100.594 45.8116 100.751C46.5562 101.622 46.8114 102.85 48.0536 103.398C48.464 103.58 48.5544 104.541 49.1602 104.921C49.6755 105.245 50.1532 105.628 50.6451 105.985C50.6815 106.079 50.6487 106.118 50.5517 106.103C48.2671 104.803 46.5746 102.942 45.3824 100.614C45.2424 100.338 45.0569 100.057 45.1315 99.7139L45.1357 99.708Z" fill="#D83C59"/>
<path d="M53.1825 86.5947C53.0604 86.5703 52.9361 86.5488 52.8111 86.5222C52.8509 86.3661 52.8907 86.21 52.9305 86.0539C53.1299 85.6878 53.5159 85.6267 53.8558 85.4919C54.4004 85.2787 54.6014 84.9543 54.3329 84.361C54.1684 83.9999 53.8272 83.6338 54.108 83.1729C54.1892 83.1726 54.2684 83.1753 54.3497 83.175C54.759 83.7476 54.7416 84.8341 55.3589 84.9342C55.9358 85.0279 56.6412 84.3894 57.2745 84.0461C59.3271 82.9228 61.3432 81.7374 63.0523 80.1067C63.3831 79.7898 63.659 79.411 63.9583 79.0625C64.1127 79.1236 64.3882 78.7896 64.4339 79.2097C61.8708 82.0885 58.4917 83.7743 55.1822 85.5642C54.541 85.956 53.8121 86.1812 53.1854 86.5969L53.1825 86.5947Z" fill="#3D0D18"/>
<path d="M43.8813 69.4153C44.6114 68.4657 45.6448 68.1299 46.7711 67.9912C47.1115 67.7487 47.4804 67.8059 47.856 67.8725C49.9956 68.2619 51.5894 70.3995 51.3328 72.5801C51.1072 74.4723 50.1072 75.7734 48.2856 76.4046C47.9556 76.5194 47.6209 76.6218 47.2812 76.4234C47.172 76.3181 47.1399 76.187 47.1682 76.0407C47.3628 75.6937 47.7352 75.6768 48.0588 75.571C49.5401 75.0877 50.4481 73.8648 50.5243 72.2439C50.5947 70.7945 49.6414 69.4222 48.1558 68.8305C46.8357 68.3032 45.3929 68.6699 44.3719 69.7803C44.125 70.0493 43.9559 70.4236 43.5196 70.4667C43.2115 69.9666 43.8722 69.8051 43.8822 69.4204L43.8813 69.4153Z" fill="#B6AFC6"/>
<path d="M62.2578 106.801C62.0955 106.405 61.928 106.01 61.7656 105.615C62.249 105.92 62.636 106.612 63.3474 105.946C63.5153 105.788 63.6332 105.755 63.6184 105.443C63.5951 104.84 64.1433 104.553 64.6325 104.895C64.9828 105.141 65.0794 104.9 65.2486 104.733C67.1509 102.858 68.8015 100.825 69.3696 98.1152C69.4305 97.8166 69.6266 97.6058 69.8533 97.4215C68.962 101.877 66.3956 104.974 62.254 106.793L62.2578 106.801Z" fill="#CC3D56"/>
<path d="M47.2568 76.2985C49.5399 76.0791 51.1065 74.3959 51.1173 72.1561C51.13 70.0393 49.4616 68.2446 47.2877 68.0288C47.1146 68.0128 46.9422 68.0019 46.7699 67.991C46.7508 67.9233 46.7339 67.8526 46.7149 67.7849C47.3772 67.1876 48.0199 67.6483 48.6695 67.8165C49.4525 68.094 50.1741 68.4445 50.5116 69.2809C50.7722 69.7154 51.006 70.1621 51.2398 70.6089C51.28 70.7099 51.3233 70.8129 51.3636 70.9138C52.215 72.3213 51.3613 74.7946 49.7367 75.9679C49.1931 76.362 48.593 76.6525 47.9314 76.809C46.4994 77.0663 45.1886 76.8025 44.0478 75.8679C43.7958 75.6602 43.4518 75.4677 43.621 75.0305C43.7096 75.0264 43.7981 75.0223 43.8845 75.0211C44.3878 74.8594 44.5772 75.3554 44.8969 75.5441C45.635 75.9785 46.5131 75.9096 47.2496 76.3023L47.2568 76.2985Z" fill="#262032"/>
<path d="M66.5705 91.2128C67.3077 90.6241 68.086 90.0785 68.6014 89.2588C68.7936 89.0723 68.8862 89.1882 68.9694 89.3738C69.7679 91.1757 70.3126 93.0299 70.1188 95.0349C69.7837 94.3398 70.0412 93.547 69.7661 92.8499C69.5423 92.2886 69.8119 91.0451 68.4859 91.8333C68.295 91.9488 68.3672 91.7663 68.3593 91.6705C68.2652 90.6392 67.7334 90.8031 67.1059 91.2136C66.9355 91.3257 66.7469 91.5825 66.5726 91.2098L66.5705 91.2128Z" fill="#B93D58"/>
<path d="M43.6291 75.0266C44.7274 76.4667 46.2313 76.7564 47.9143 76.5573C48.1641 76.5922 48.4019 76.65 48.5074 76.9238C48.474 77.3727 48.1197 77.4837 47.7851 77.5231C46.3639 77.7026 45.0392 77.609 43.839 76.6002C43.2512 76.1069 42.6947 75.7711 42.9169 74.908C42.9473 74.7901 43.0113 74.7009 43.1148 74.6444C43.2852 74.7711 43.4587 74.8999 43.6291 75.0266Z" fill="#F5F6F9"/>
<path d="M43.1142 74.6451C42.911 75.576 43.2135 76.2161 44.0967 76.6554C45.5365 77.3675 46.9895 77.6026 48.5229 77.0215C48.7261 76.6312 49.1412 76.5233 49.4802 76.3204C50.1584 75.9147 50.7002 75.3661 51.1803 74.7464C51.3513 74.5266 51.4412 74.2127 51.8016 74.2188C51.8962 74.1875 51.9958 74.1553 52.0903 74.1239C52.3497 74.535 52.0662 74.8363 51.867 75.1394C50.6153 77.0619 48.807 77.9323 46.54 77.9155C45.6416 77.9247 44.8434 77.5554 44.0387 77.2264C43.8397 76.8946 43.838 76.3439 43.213 76.4995C43.0089 76.4073 42.7193 76.497 42.6121 76.213C42.4899 75.9813 42.3686 75.7547 42.2464 75.523C42.6102 75.518 42.6412 75.2925 42.5991 75.0056C42.5515 74.7013 42.509 74.3961 42.3856 74.1095L42.3928 74.1371C42.1971 73.587 41.9421 73.0755 41.5266 72.6561C41.3978 72.5278 41.2946 72.3952 41.4018 72.2018C41.4423 72.1452 41.4828 72.0887 41.5263 72.0343C42.1155 72.4565 42.2841 73.1765 42.714 73.7142C42.8467 74.0255 42.9794 74.3368 43.1142 74.6451Z" fill="#302A38"/>
<path d="M38.1824 61.1207C35.9657 63.7928 34.7978 66.8427 34.7493 70.3166C33.7998 68.4426 35.7103 62.754 38.1824 61.1207Z" fill="#366FA8"/>
<path d="M52.8055 86.5231C52.7757 86.5648 52.7569 86.6099 52.7411 86.6571C49.8547 87.8314 46.9645 88.9984 43.8765 89.5553C42.8349 89.7456 41.7842 89.9925 40.7195 89.6618C40.7515 89.5857 40.7827 89.5044 40.8148 89.4283C42.4883 89.6008 44.0996 89.2377 45.6873 88.7947C48.0822 88.1239 50.4482 87.374 52.6541 86.1939C52.7033 86.3013 52.7534 86.4137 52.8026 86.521L52.8055 86.5231Z" fill="#3D0D18"/>
<path d="M53.5221 73.5595C52.977 73.5156 52.7197 73.1645 52.6856 72.6717C52.6681 72.407 54.0371 71.9108 54.4254 72.0539C54.6853 72.1501 54.9084 72.3415 55.1431 72.4917C55.37 72.9921 55.5939 73.4904 55.8135 73.9946C55.8343 74.041 55.813 74.1023 55.8094 74.2078C55.0412 73.9725 54.3195 73.622 53.5191 73.5573L53.5221 73.5595Z" fill="#CDBBD5"/>
<path d="M48.5072 67.9798C47.9133 67.8785 47.34 67.6163 46.7146 67.7851C46.2411 67.4277 46.2361 66.8251 45.8956 66.2883C46.6882 66.1628 47.4015 66.1605 48.1084 66.4059C48.5022 66.5665 48.9173 66.7289 48.9872 67.2158C49.0398 67.5823 49.0809 67.9901 48.5051 67.9828L48.5072 67.9798Z" fill="#F6F8F9"/>
<path d="M50.5573 106.097C50.5872 106.056 50.62 106.016 50.6507 105.98C51.1242 106.368 51.5118 105.871 51.9472 105.855C52.4792 105.835 53.0893 105.128 53.535 106.128C53.5965 106.262 53.8964 106.617 54.0991 106.811C54.3952 107.096 54.6888 107.428 55.0519 107.656C54.0468 107.576 53.0814 107.402 52.2543 106.746C51.7685 106.362 51.0025 106.632 50.5543 106.095L50.5573 106.097Z" fill="#BE3350"/>
<path d="M61.5365 75.7819C61.1504 76.1133 60.7894 76.4851 60.3685 76.7644C59.9028 77.0748 59.3887 77.3774 58.8285 76.9084C58.7538 76.5666 58.3412 76.4195 58.3146 76.0041C59.2261 75.7566 60.1473 75.6151 61.0836 75.5655C61.2475 75.5568 61.5145 75.4419 61.5335 75.7798L61.5365 75.7819Z" fill="#CCBAD2"/>
<path d="M48.5082 67.9802C49.2508 67.2332 48.5577 66.8491 48.1115 66.4032C49.0403 66.5779 49.8423 66.986 50.485 67.6854C50.3624 68.2776 50.5705 68.8231 50.7224 69.3778C50.6605 69.5271 50.5855 69.5815 50.4742 69.4162C49.9424 68.7693 49.2669 68.3167 48.5082 67.9802Z" fill="#CBBDD4"/>
<path d="M42.5512 84.0837C42.7424 84.7973 42.1565 84.9989 41.7226 85.1518C41.1418 85.3526 40.5092 85.4623 39.7617 85.3364C40.1334 84.9497 40.4429 84.6311 40.7524 84.3124C40.8696 83.91 41.2554 83.7676 41.5413 83.5446C41.7667 83.3683 41.9805 82.9946 42.3487 83.2224C42.6701 83.4213 42.6168 83.7659 42.5542 84.0858L42.5512 84.0837Z" fill="#CBBBD4"/>
<path d="M45.0561 68.114C44.7697 68.3817 44.3699 68.7888 44.0825 68.6053C43.7811 68.4163 43.6989 67.871 43.5272 67.4822C43.4771 67.3698 43.496 67.2617 43.6094 67.1853C44.1862 66.8015 44.7999 66.4982 45.481 66.3648C45.7203 66.32 45.7152 66.5596 45.769 66.7108C45.8434 67.3361 45.3794 67.6881 45.0582 68.1111L45.0561 68.114Z" fill="#F7F5F6"/>
<path d="M42.2849 77.2528C42.4846 77.1438 42.6793 77.0041 42.8931 76.9321C43.1294 76.8537 43.3926 76.4928 43.6256 76.8715C43.7979 77.1527 43.9792 77.4717 43.7168 77.8377C43.2242 78.5251 42.9064 79.3017 42.6011 80.2179C42.3412 79.8829 42.1794 79.6184 42.1195 79.2872C42.5214 78.6384 42.3408 77.9415 42.2878 77.255L42.2849 77.2528Z" fill="#C8BCD1"/>
<path d="M47.2573 76.299C45.9173 76.4466 44.8385 75.9032 43.8922 75.0178C42.4129 73.1289 42.4088 71.1487 43.8806 69.4155C43.917 69.811 43.4477 70.0196 43.5143 70.4231C43.6823 70.7417 43.5197 71.0441 43.4575 71.3508C43.0456 73.4652 44.183 75.2217 46.2743 75.7161C46.5989 75.7911 46.9863 75.7219 47.2113 76.0678C47.226 76.1414 47.2417 76.2202 47.2564 76.2938L47.2573 76.299Z" fill="#E6E8EF"/>
<path d="M42.5516 84.0839C42.4703 83.8139 42.392 83.5461 42.287 83.1962C41.7506 83.5864 41.2517 83.9495 40.7549 84.3096C40.6924 84.2648 40.6269 84.2179 40.5645 84.1731C41.0722 83.6092 41.6878 83.1901 42.3336 82.8107C42.5176 83.4965 42.7276 82.3363 42.9174 82.8192C43.0426 82.7828 43.1639 82.8022 43.2791 82.8487C43.7749 83.4202 44.3383 82.9232 44.8698 82.9483C44.9566 82.934 45.0456 82.9167 45.1324 82.9023C44.7932 84.0104 44.0175 84.2066 42.7892 83.457C42.791 83.6744 42.7928 83.8604 42.7925 84.0494C42.7129 84.0599 42.6312 84.0734 42.5516 84.0839Z" fill="#403B4A"/>
<path d="M54.6005 75.0217C54.5384 75.2655 54.4601 75.5066 54.5389 75.7613C54.237 75.8242 54.272 76.0834 54.223 76.3906C53.776 75.6379 53.6359 74.9159 53.8005 74.1331C54.2668 73.7151 54.6324 74.2293 55.1856 74.2115L54.6034 75.0238L54.6005 75.0217Z" fill="#EFEFF1"/>
<path d="M44.0444 77.2259C44.3224 76.8441 44.5269 77.2564 44.7601 77.3019C45.3374 77.4139 45.9087 77.5531 46.4805 77.6791C46.7148 77.811 46.9388 77.9445 46.7128 78.2599C45.9224 78.3196 45.1436 78.3379 44.4835 77.7883C44.3395 77.5995 44.1934 77.4138 44.0465 77.2229L44.0444 77.2259Z" fill="#F3F4F8"/>
<path d="M42.286 77.2537C42.8786 77.9667 42.8091 78.8177 42.1177 79.286C41.7375 78.5721 41.3816 77.8622 42.286 77.2537Z" fill="#F2EFF4"/>
<path d="M44.8678 82.9501C44.3096 83.685 43.7208 83.5198 43.1186 83.0027C42.9549 82.3764 43.1284 81.9332 43.7977 81.7598C44.7158 81.6476 44.8689 82.2258 44.867 82.945L44.8678 82.9501Z" fill="#302F38"/>
<path d="M44.4759 78.8738C44.5115 78.9624 44.5501 79.0531 44.5857 79.1417C44.5726 79.38 44.9745 79.7807 44.3404 79.7856C43.9485 79.748 43.5545 79.7133 43.1626 79.6757C43.5082 78.3199 43.6057 78.2592 44.4738 78.8768L44.4759 78.8738Z" fill="#EBEAEC"/>
<path d="M59.8633 69.7318C59.9531 69.7196 60.0437 69.7125 60.1335 69.7003C60.69 70.9098 61.2494 72.1215 61.808 73.328C61.7253 73.3679 61.6397 73.4056 61.5571 73.4455C60.9398 72.2329 60.3255 71.0225 59.8654 69.7289L59.8633 69.7318Z" fill="#3F6498"/>
<path d="M52.5996 71.3535C52.4606 71.4656 52.3215 71.4335 52.2136 71.3201C51.3138 70.3509 50.8173 69.2024 50.7389 67.8851C50.7322 67.8128 50.8813 67.7304 50.9601 67.6518C51.0591 67.7903 51.258 67.9464 51.2378 68.0625C51.009 69.3308 51.4113 70.2902 52.5393 70.941C52.615 70.9862 52.584 71.2118 52.6017 71.3505L52.5996 71.3535Z" fill="#BBB4C7"/>
<path d="M63.9989 78.6735C63.509 78.4395 63.2316 78.9523 62.5974 79.0202C63.1656 78.4726 62.8799 77.6959 63.4969 77.2687C63.8149 77.6859 63.944 78.1657 64.0019 78.6756L63.9989 78.6735Z" fill="#C3C6CD"/>
<path d="M56.4316 107.83C57.8262 107.599 59.2316 107.467 60.6408 107.374C59.2761 107.864 57.8685 107.999 56.4316 107.83Z" fill="#BE3350"/>
<path d="M54.7945 71.6832C54.1879 71.7754 53.5772 71.7791 52.9924 72.0672C52.3374 72.3904 52.7123 71.8799 52.7356 71.6714C53.423 71.3533 54.1099 71.0484 54.7945 71.6832Z" fill="#CBCAD6"/>
<path d="M42.2137 75.1974C41.5756 74.4788 41.2012 73.8637 41.2079 72.8866C41.8468 73.5788 42.1211 74.2392 42.2137 75.1974Z" fill="#CAC8D7"/>
<path d="M45.0566 68.1148C44.9682 67.484 45.5692 67.1985 45.7674 66.7145C46.1399 67.4139 45.903 67.8807 45.0566 68.1148Z" fill="#C5BCCC"/>
<path d="M52.337 70.4551C51.7272 69.9234 51.4133 69.2616 51.3509 68.3431C52.0819 68.9571 52.2182 69.7033 52.337 70.4551Z" fill="#BBB8C9"/>
<path d="M42.6142 76.2095C42.8786 76.1737 43.0665 76.2949 43.2151 76.496C42.5478 76.7609 41.8623 76.9948 41.4898 77.8538C41.3005 76.7543 42.04 76.5456 42.6142 76.2095Z" fill="#CAC9D6"/>
<path d="M41.4026 72.202C41.7685 72.829 42.34 73.3512 42.3937 74.1374C41.8952 73.708 41.9332 72.794 41.0593 72.6811C40.8904 72.6591 40.9057 72.3863 40.977 72.2303C41.0855 71.9972 41.2496 72.1013 41.3975 72.2028L41.4026 72.202Z" fill="#BAB8C5"/>
<path d="M39.8245 85.7775C39.8922 86.2674 39.5961 86.4921 39.1928 86.6399C39.1326 86.2275 38.713 85.9583 38.7299 85.4885C39.1004 85.5874 39.4599 85.6828 39.8194 85.7783L39.8245 85.7775Z" fill="#C3C4CC"/>
<path d="M42.3907 74.1092C42.7717 74.6209 42.8384 75.2002 42.7945 75.8083C42.5204 75.8325 42.4079 75.6438 42.2536 75.5197C42.7101 75.0902 42.3232 74.5742 42.3929 74.1062L42.3907 74.1092Z" fill="#CAC7D5"/>
<path d="M44.3391 79.7788C44.6963 79.67 44.4036 79.3117 44.5844 79.1349C44.9843 79.4441 45.1458 79.8976 45.2867 80.3544C45.2893 80.3698 45.2637 80.4055 45.2441 80.4139C45.2224 80.4254 45.1879 80.4232 45.1594 80.4253C44.8852 80.2108 44.6102 79.9912 44.3361 79.7767L44.3391 79.7788Z" fill="#BEB9C8"/>
<path d="M43.8009 81.7622C43.3072 82.0299 43.1078 82.459 43.1218 83.005C43.0538 82.9428 42.9837 82.8835 42.9157 82.8213C42.9868 82.2822 43.0026 81.6945 43.7987 81.7651L43.8009 81.7622Z" fill="#D4D4D9"/>
<path d="M60.6416 103.099C59.6196 101.025 58.6565 98.9249 57.8122 96.7659C58.1797 97.3716 58.6103 97.7072 59.2925 97.1512C59.3594 97.0956 59.5542 97.1946 59.6874 97.2225C59.7011 97.417 59.5648 97.513 59.4425 97.6145C59.6944 97.5834 59.9313 97.4289 60.2003 97.4055C60.3192 97.5852 60.4534 97.7625 60.4445 97.9948C60.2441 98.2116 59.9984 98.3282 59.7098 98.3601C59.9817 98.3703 60.2239 98.1205 60.5117 98.2592C60.5635 98.3819 60.6144 98.4994 60.6661 98.6221C60.6374 99.0203 60.2556 99.044 60.1529 99.1055C60.2407 99.0333 60.6743 99.0693 60.6588 98.6259C60.8432 98.6829 60.9839 98.9684 61.0809 99.4824C60.9563 99.7128 60.7089 99.7878 60.4976 99.9381C60.7522 99.8908 60.9699 99.7316 61.2229 99.8499C61.3908 99.9612 61.5848 100.055 61.5537 100.312C61.296 100.483 61.0047 100.594 60.6252 100.791C61.0145 100.606 61.3087 100.497 61.555 100.304C61.8573 100.498 61.8602 100.802 61.8538 101.113C61.6642 101.252 61.4432 101.327 61.2404 101.434C61.4512 101.36 61.6582 101.247 61.8831 101.386C61.9503 101.713 61.668 101.799 61.4811 101.827C60.714 101.949 60.5494 102.43 60.6437 103.096L60.6416 103.099Z" fill="#C24864"/>
<path d="M53.1835 86.5952C53.716 85.9905 54.4819 85.8457 55.1802 85.5626C54.9179 85.9286 54.4994 86.0475 54.1204 86.2307C53.4376 86.5612 53.4252 86.8991 54.0827 87.4333C54.6372 87.7406 55.0336 87.0744 55.5568 87.1927C55.5779 87.3519 55.601 87.5081 55.6221 87.6673C55.5982 87.9834 55.3265 88.0545 55.0935 88.1848C55.3707 88.0997 55.5983 87.9204 55.8796 87.8924C55.9185 88.0644 55.9544 88.2342 55.9933 88.4062C55.9712 88.6696 55.7735 88.7757 55.5418 88.8979C55.799 88.803 56.0267 88.768 56.2633 88.8024C56.4989 88.9262 56.5786 89.123 56.5446 89.3778C56.3179 89.5307 56.0315 89.5596 55.7289 89.7932C56.0621 89.586 56.3315 89.5179 56.6167 89.4971C56.8553 89.623 56.9452 89.8181 56.8835 90.0801C56.6233 90.2044 56.3783 90.3576 55.9784 90.5575C56.3821 90.3649 56.6241 90.2095 56.8873 90.0874C57.1066 90.2401 57.1668 90.4453 57.1012 90.7001C57.0178 91.2438 56.2031 91.0923 56.1668 91.6834C56.0384 91.8751 55.91 92.0669 55.7838 92.2556C54.916 90.3681 54.0504 88.4776 53.1827 86.5901L53.1835 86.5952Z" fill="#C14965"/>
<path d="M59.3171 91.1759C59.863 92.0986 60.284 93.0759 60.6689 94.0723C60.0794 93.8076 59.8141 93.1535 59.1983 92.8878C58.972 92.7887 58.9905 92.3921 59.0889 92.0978C59.1864 91.7983 59.2396 91.4852 59.315 91.1789L59.3171 91.1759Z" fill="#C83A58"/>
<path d="M62.9375 93.3606C64.0955 92.5555 65.3426 91.9089 66.5697 91.221C65.5425 92.2459 64.3 92.9048 62.9375 93.3606Z" fill="#B93D58"/>
<path d="M61.2209 99.8503C60.9407 99.9963 60.668 100.157 60.3785 100.278C60.2064 100.348 59.9573 100.476 59.8338 100.252C59.7027 100.014 59.9348 99.9104 60.1196 99.8222C60.4284 99.6741 60.7138 99.4644 61.0819 99.4849C61.1285 99.6084 61.1773 99.729 61.2239 99.8524L61.2209 99.8503Z" fill="#5D0817"/>
<path d="M55.5566 87.1913C55.2857 87.5692 54.8324 87.6361 54.4478 87.8019C54.1025 87.9508 54.0726 87.6907 54.0803 87.4349C54.5618 87.2846 54.9645 86.6724 55.5544 87.1942L55.5566 87.1913Z" fill="#530715"/>
<path d="M56.6139 89.4995C56.332 89.874 55.8731 89.9234 55.486 90.1054C55.3838 90.1538 55.2536 90.1595 55.2006 90.0135C55.1578 89.8972 55.1606 89.7551 55.2819 89.7114C55.6865 89.5555 56.02 89.0964 56.5409 89.3751C56.5587 89.4194 56.5786 89.4607 56.6109 89.4973L56.6139 89.4995Z" fill="#58071A"/>
<path d="M56.1644 91.6855C55.7441 91.6184 55.6414 91.4413 56.0396 91.1997C56.3706 90.9956 56.7428 90.8659 57.0988 90.7022C57.3915 91.601 56.4527 91.3336 56.1644 91.6855Z" fill="#500613"/>
<path d="M60.5121 98.257C60.4891 98.2765 60.4691 98.2982 60.4423 98.3105C60.0317 98.4937 59.6665 98.8085 59.1793 98.7656C59.1368 98.7621 59.0566 98.5785 59.0732 98.5679C59.4619 98.2204 59.8972 97.9649 60.4419 97.9905C60.4643 98.0786 60.4868 98.1667 60.5092 98.2548L60.5121 98.257Z" fill="#4F0414"/>
<path d="M60.2005 97.4029C60.1493 97.4743 60.1104 97.5726 60.0393 97.6027C59.6381 97.7791 59.0432 98.276 58.8497 97.9302C58.6218 97.5191 59.4087 97.5021 59.6854 97.2229C59.9021 97.153 60.0628 97.2367 60.1975 97.4008L60.2005 97.4029Z" fill="#580416"/>
<path d="M55.8787 87.8915C55.5868 88.3805 55.0887 88.5414 54.5895 88.553C54.2864 88.561 54.4168 88.222 54.9308 87.9824C55.1621 87.8734 55.392 87.7725 55.6241 87.6686C55.71 87.7436 55.7958 87.8186 55.8817 87.8937L55.8787 87.8915Z" fill="#590717"/>
<path d="M61.8816 101.387C61.5392 101.538 61.1998 101.691 60.8544 101.84C60.7122 101.9 60.5581 101.92 60.4843 101.759C60.4173 101.607 60.4975 101.458 60.6512 101.419C61.0518 101.319 61.3729 100.896 61.8544 101.111C61.8644 101.203 61.8715 101.294 61.8837 101.384L61.8816 101.387Z" fill="#540312"/>
<path d="M56.26 88.799C55.82 89.0107 55.08 89.5342 54.9579 89.208C54.7409 88.6247 55.6829 88.7683 55.9929 88.4049C56.0829 88.537 56.1729 88.6691 56.26 88.799Z" fill="#4F0614"/>
<path d="M51.1295 85.8895C51.37 86.0754 51.3018 86.2021 51.0594 86.3077C50.8759 86.3879 50.7469 86.3855 50.6558 86.1671C50.3717 85.4951 50.0732 84.8307 49.7767 84.1634C49.6851 83.9581 49.8587 83.7222 49.9276 83.7895C50.3194 84.1604 51.218 83.4532 51.2947 84.4586C51.3143 84.7203 51.4939 84.9661 51.5991 85.2217C51.2434 85.3031 50.9652 85.1592 50.7644 84.7901C50.7793 85.008 50.8999 85.1665 51.0065 85.3195C51.1275 85.4963 51.1208 85.6941 51.1273 85.8925L51.1295 85.8895Z" fill="#64666E"/>
<path d="M49.4964 84.7143C49.7666 84.953 49.8951 85.2388 49.6704 85.5461C49.3701 85.9525 48.9553 86.1416 48.4809 85.8421C48.1616 85.6403 48.1434 85.276 48.3575 85.0151C48.6385 84.667 49.0345 84.4914 49.4964 84.7143Z" fill="#26272F"/>
<path d="M51.1305 85.8896C50.9266 85.4011 50.7197 84.9106 50.4696 84.3169C51.037 84.5119 50.8196 85.5001 51.6002 85.2218C51.6893 85.619 51.3776 85.7334 51.1305 85.8896Z" fill="#ADAEB8"/>
<path d="M50.1435 86.2856C49.7653 86.4424 49.3727 86.6069 48.9724 86.757C48.9354 86.7709 48.844 86.6785 48.8003 86.6201C48.7255 86.517 48.8278 86.4686 48.8883 86.4219C49.1784 86.193 49.6911 86.2632 49.7801 85.7369C49.7994 85.6156 49.9814 85.701 50.0404 85.7883C50.1334 85.9225 50.2208 86.0708 50.1456 86.2826L50.1435 86.2856Z" fill="#28242C"/>
<path d="M56.9768 83.3367C56.5733 83.8808 55.7416 83.9918 55.1898 83.5739C54.6381 83.156 54.5301 82.3264 54.9607 81.7883C55.3692 81.2748 56.1478 81.1752 56.6783 81.5599C57.2534 81.9766 57.3887 82.7807 56.9768 83.3367Z" fill="#3E141C"/>
<path d="M61.5335 92.5977C61.6528 92.7643 61.7206 92.9525 61.5701 93.1374C61.3974 93.347 61.182 93.3773 60.9815 93.1795C60.8094 93.0111 60.8314 92.8107 60.9794 92.642C61.1367 92.4665 61.3282 92.4821 61.5335 92.5977Z" fill="#2C212E"/>
<path d="M60.7817 90.9681C60.9172 91.1372 60.9812 91.3182 60.8396 91.5095C60.6993 91.6927 60.4945 91.7396 60.3139 91.6146C60.0945 91.4619 60.077 91.2287 60.2454 91.0251C60.3938 90.8432 60.5913 90.8631 60.7847 90.9702L60.7817 90.9681Z" fill="#201F27"/>
<path d="M52.3706 95.3713C52.2052 95.514 52.014 95.5797 51.8244 95.4483C51.6429 95.3182 51.5922 95.1062 51.7193 94.9225C51.8669 94.704 52.104 94.6623 52.3127 94.8299C52.4878 94.9689 52.4828 95.177 52.3684 95.3742L52.3706 95.3713Z" fill="#282834"/>
<path d="M52.9979 96.4072C53.1925 96.6007 53.2326 96.7961 53.0864 96.9751C52.9465 97.1451 52.7473 97.2095 52.5569 97.0415C52.3852 96.8914 52.351 96.7003 52.4918 96.5039C52.641 96.2956 52.8342 96.3529 52.9971 96.4021L52.9979 96.4072Z" fill="#1A1C22"/>
<path d="M53.7037 78.523C54.0836 78.9169 54.2965 79.6505 54.5605 80.3441C54.6427 80.5562 54.3622 80.5894 54.2247 80.6619C52.3468 81.6357 50.4044 82.4731 48.4434 83.2611C48.291 83.323 48.1372 83.4245 47.9583 83.2782C46.8753 82.4075 47.0721 80.6434 48.3204 80.0832C49.5882 79.5145 50.8568 78.9509 52.1208 78.375C52.5965 78.1574 53.0542 78.053 53.7016 78.526L53.7037 78.523Z" fill="#F8F9FA"/>
<path d="M54.1078 83.1738C54.1633 83.3351 54.2094 83.5033 54.2773 83.66C55.0482 85.4376 54.9496 85.6191 52.9283 86.0577C52.4601 85.0015 52.0073 83.9428 51.5195 82.8952C51.3452 82.5225 51.3706 82.3111 51.796 82.2015C52.3349 82.0653 52.8518 81.3818 53.3203 81.6771C53.7331 81.9369 53.8571 82.6563 54.1078 83.1738Z" fill="#F6F5F8"/>
<path d="M53.1264 77.7445C50.9901 78.551 48.8376 79.3234 46.9562 80.6414C46.8987 80.1183 47.2712 79.7997 47.7775 79.5771C49.1267 78.9766 50.4707 78.377 51.8246 77.7889C52.2679 77.5976 52.7287 77.3694 53.1294 77.7467L53.1264 77.7445Z" fill="#C5C0D3"/>
<path d="M45.4941 84.259C45.8527 83.8404 46.1776 83.4247 46.8925 83.4641C46.6071 84.1829 45.9914 84.156 45.4941 84.259Z" fill="#ACA9B8"/>
<path d="M57.0828 79.104C56.5244 79.3929 56.1386 79.8055 55.5239 79.6577C55.861 79.0931 56.0143 79.0363 57.0828 79.104Z" fill="#BAB3C7"/>
<path d="M56.9685 75.5121C57.255 75.7849 57.4835 76.0253 57.1747 76.2364C56.7431 76.5306 56.5602 77.2823 55.8499 77.048C55.6831 76.9915 55.3959 76.6821 55.7206 76.4239C56.131 76.0964 56.3838 75.4984 56.9694 75.5172L56.9685 75.5121Z" fill="#2A2A33"/>
<path d="M57.8261 77.2251C57.4158 77.3139 57.3478 78.3326 56.574 77.8411C56.2636 77.6457 56.2641 77.3623 56.6227 77.1824C57.0537 76.9643 57.1831 76.1428 57.8758 76.5086C58.0824 76.6161 58.3326 76.9395 57.8291 77.2273L57.8261 77.2251Z" fill="#2B2736"/>
<path d="M51.8042 74.2163C51.0441 75.5407 50.0594 76.6005 48.5254 77.019C48.3214 76.8638 48.1203 76.7107 47.9141 76.5584C50.6189 75.6188 51.575 74.0836 51.2902 71.1501C51.2827 71.0726 51.3403 70.9923 51.3693 70.914C52.5431 71.9849 52.578 72.2441 51.8071 74.2184L51.8042 74.2163Z" fill="#CCBED6"/>
<path d="M46.708 78.2602C46.6312 78.0656 46.5545 77.871 46.4757 77.6793C48.7738 77.6463 50.6043 76.7513 51.8301 74.7518C51.9505 74.5587 52.101 74.3739 52.0912 74.1236C52.2265 73.8468 52.3589 73.5678 52.5258 73.228C52.868 74.0138 52.8151 74.6469 52.3136 75.2964C50.8867 77.1428 49.0678 78.2039 46.7088 78.2653L46.708 78.2602Z" fill="#CABED3"/>
<path d="M50.4729 69.4168C50.5547 69.4033 50.6394 69.3919 50.7211 69.3784C50.9426 69.7669 51.162 70.1584 51.2422 70.6121C50.8452 70.3051 50.7234 69.8215 50.4708 69.4197L50.4729 69.4168Z" fill="#968EA2"/>
<path d="M47.2158 76.0758C43.7466 76.0712 42.2921 72.7273 43.5159 70.429C44.9353 68.4421 46.7416 67.8134 48.5561 68.6815C50.1287 69.4347 50.986 70.9408 50.7888 72.6237C50.593 74.2984 49.4189 75.5784 47.7245 75.963C47.5577 76.001 47.3878 76.0369 47.2158 76.0758Z" fill="#0D1226"/>
<path d="M44.2409 82.2485C44.4968 82.4319 44.5262 82.7052 44.3816 82.9258C44.2037 83.1992 43.8844 83.2361 43.6277 83.0476C43.3628 82.8578 43.339 82.5705 43.5633 82.3079C43.7633 82.0728 43.9982 82.0656 44.243 82.2455L44.2409 82.2485Z" fill="#E9E8EE"/>
<path d="M61.5536 100.305C61.4559 101 60.7964 100.883 60.3765 101.105C60.2555 101.167 60.1399 101.07 60.1444 100.939C60.1496 100.843 60.2129 100.686 60.2857 100.666C60.7055 100.539 61.0432 100.105 61.5566 100.307L61.5587 100.304L61.5536 100.305Z" fill="#540B18"/>
<path d="M60.6578 98.6264C60.7248 99.0483 59.9658 99.7429 59.5813 99.6069C59.517 99.5834 59.4551 99.494 59.4352 99.4211C59.3979 99.2909 59.4921 99.2097 59.5965 99.1584C59.95 98.9794 60.3064 98.8025 60.6629 98.6256L60.6587 98.6315L60.6578 98.6264Z" fill="#4E0715"/>
<path d="M56.884 90.0906C56.7669 90.7003 56.1839 90.6653 55.7827 90.8732C55.674 90.9305 55.5567 90.8554 55.5096 90.7451C55.4579 90.6225 55.5215 90.5149 55.6326 90.4729C56.0402 90.3191 56.3681 89.9055 56.8802 90.0834L56.884 90.0906Z" fill="#5A0717"/>
<path d="M49.2968 85.03C49.3997 85.1127 49.4668 85.2013 49.3764 85.3212C49.2092 85.5482 48.9762 85.647 48.7066 85.5708C48.6019 85.5408 48.5613 85.3901 48.6351 85.2809C48.7993 85.0517 49.0284 84.9772 49.2938 85.0278L49.2968 85.03Z" fill="#DBE1E5"/>
<path d="M55.2244 82.0491C55.5914 81.6815 56.0031 81.5532 56.4597 81.8714C56.9162 82.1896 56.9908 82.6575 56.6821 83.0757C56.3797 83.4851 55.9088 83.589 55.454 83.2811C54.9842 82.9624 55.0258 82.5148 55.2244 82.0491Z" fill="#D9435F"/>
<path d="M47.9994 81.3216C48.114 81.2686 48.246 81.2101 48.3751 81.1494C49.2417 80.7572 50.1173 80.3713 50.9793 79.9666C51.291 79.8207 51.5202 79.7147 51.7216 80.1563C51.9091 80.5609 51.7799 80.716 51.4294 80.8657C50.5274 81.2507 49.6318 81.6583 48.7337 82.0505C48.5378 82.1353 48.3085 82.3358 48.1618 81.9875C48.0783 81.7835 47.8986 81.6006 47.9994 81.3216Z" fill="#282039"/>
<path d="M52.7848 79.4271C52.8999 79.2664 53.0579 79.2535 53.2216 79.3393C53.3712 79.4195 53.3786 79.5915 53.3138 79.7071C53.2199 79.8695 53.0458 79.9114 52.8744 79.8111C52.723 79.7206 52.7769 79.5701 52.7878 79.4292L52.7848 79.4271Z" fill="#555756"/>
<path d="M53.3632 83.6165C53.119 83.8378 52.8235 83.8918 52.58 83.7038C52.3335 83.5136 52.2833 83.2254 52.5242 82.9521C52.7271 82.7192 52.9718 82.6919 53.212 82.8596C53.4858 83.0558 53.5122 83.3269 53.3632 83.6165Z" fill="#3D2B2D"/>
<path d="M53.1184 84.5627C53.37 84.243 53.6488 84.1996 53.9188 84.3886C54.1538 84.5571 54.2074 84.8342 54.0436 85.0816C53.8521 85.3677 53.5741 85.4162 53.2957 85.2077C53.0589 85.029 53.0236 84.783 53.1235 84.5618L53.1184 84.5627Z" fill="#341E2A"/>
<path d="M56.8503 75.9409C56.6922 76.3501 56.3969 76.6113 55.8679 76.9033C56.1105 76.307 56.4687 76.1088 56.8503 75.9409Z" fill="#C1BFCB"/>
<path d="M57.7953 76.633C57.5684 77.245 57.1902 77.4334 56.7865 77.5944C56.9556 77.1887 57.262 76.9309 57.7953 76.633Z" fill="#BCB1C6"/>
<path d="M44.0658 74.2016C43.8681 73.7987 43.8338 73.4318 44.0341 72.9763C44.5005 71.9233 44.9121 70.84 45.2742 69.7439C45.4838 69.1059 45.8643 68.7886 46.4956 68.7185C46.9526 68.992 46.7651 69.3982 46.6344 69.7188C46.0564 71.1287 45.5766 72.5774 44.9705 73.9762C44.7723 74.4287 44.5516 74.8875 44.0629 74.1994L44.0658 74.2016Z" fill="#1C7ACE"/>
<path d="M44.0666 74.2012C44.2486 74.3181 44.4733 74.5827 44.6079 74.2063C45.2555 72.4229 46.0906 70.7109 46.5736 68.8681C46.5851 68.8268 46.5282 68.768 46.5015 68.7173C46.7715 68.6045 46.9911 68.8385 47.2469 68.8147C47.3298 69.6668 46.8304 70.3448 46.5454 71.0819C46.0309 72.4156 45.6487 73.8037 44.9628 75.0687C44.7532 74.6887 44.1079 74.7532 44.0666 74.2012Z" fill="#032050"/>
<path d="M44.9658 75.0717C45.448 73.1608 46.3155 71.3909 46.9653 69.5416C47.0508 69.2966 47.1555 69.0563 47.2499 68.8177C47.7156 68.7461 47.5279 69.0394 47.4608 69.2211C46.7551 71.161 46.0413 73.0996 45.3216 75.034C45.2468 75.2326 45.0908 75.1298 44.9628 75.0696L44.9658 75.0717Z" fill="#386DAA"/>
<path d="M50.2358 80.5825C50.4934 80.4744 50.8588 80.3039 51.2382 80.1705C51.3545 80.1277 51.4683 80.2768 51.429 80.3882C51.293 80.7727 50.8735 80.7423 50.5864 80.9104C50.4547 80.9872 50.2843 81.1308 50.1156 80.9828C50.017 80.8941 50.0474 80.7763 50.2388 80.5847L50.2358 80.5825Z" fill="#A74F66"/>
<path d="M49.5893 80.9119C49.7189 81.0453 49.7629 81.185 49.6722 81.2551C49.307 81.5384 48.91 81.7718 48.4308 81.7617C48.3334 81.7594 48.2925 81.5274 48.3793 81.4816C48.7797 81.2686 49.1971 81.0947 49.5893 80.9119Z" fill="#3C709F"/>
<rect x="28.3906" y="62.4468" width="26.1279" height="54.3992" rx="13.0639" transform="rotate(-23.8877 28.3906 62.4468)" stroke="black" stroke-width="1.05258"/>
<path d="M88.9385 186.472C90.5379 186.472 92.1014 186.946 93.4313 187.835C94.7612 188.723 95.7977 189.986 96.4098 191.464C97.0219 192.942 97.182 194.568 96.87 196.137C96.5579 197.705 95.7877 199.146 94.6568 200.277C93.5258 201.408 92.0848 202.178 90.5161 202.49C88.9474 202.802 87.3214 202.642 85.8437 202.03C84.366 201.418 83.103 200.382 82.2144 199.052C81.3258 197.722 80.8516 196.158 80.8516 194.559C80.8516 192.414 81.7036 190.357 83.2202 188.841C84.7367 187.324 86.7937 186.472 88.9385 186.472Z" fill="#FCBB41"/>
<path d="M109.356 218.699C110.956 218.699 112.519 219.174 113.849 220.062C115.179 220.951 116.216 222.214 116.828 223.691C117.44 225.169 117.6 226.795 117.288 228.364C116.976 229.933 116.206 231.373 115.075 232.504C113.944 233.635 112.503 234.406 110.934 234.718C109.365 235.03 107.739 234.87 106.262 234.257C104.784 233.645 103.521 232.609 102.632 231.279C101.744 229.949 101.27 228.386 101.27 226.786C101.27 224.641 102.122 222.584 103.638 221.068C105.155 219.551 107.212 218.699 109.356 218.699Z" fill="#FCBB41"/>
<path d="M111.765 194.559C113.364 194.559 114.928 195.033 116.257 195.922C117.587 196.811 118.624 198.074 119.236 199.551C119.848 201.029 120.008 202.655 119.696 204.224C119.384 205.792 118.614 207.233 117.483 208.364C116.352 209.495 114.911 210.265 113.342 210.578C111.774 210.89 110.148 210.729 108.67 210.117C107.192 209.505 105.929 208.469 105.041 207.139C104.152 205.809 103.678 204.245 103.678 202.646C103.679 200.502 104.532 198.445 106.048 196.929C107.564 195.413 109.62 194.56 111.765 194.559Z" fill="#FCBB41"/>
<path d="M132.889 162.945C133.832 162.945 134.753 163.225 135.538 163.749C136.322 164.273 136.933 165.017 137.293 165.888C137.654 166.76 137.749 167.718 137.565 168.643C137.381 169.568 136.927 170.417 136.26 171.084C135.593 171.751 134.744 172.205 133.819 172.389C132.894 172.573 131.935 172.479 131.064 172.118C130.193 171.757 129.448 171.146 128.925 170.362C128.401 169.578 128.121 168.656 128.121 167.713C128.122 166.449 128.625 165.237 129.519 164.343C130.413 163.449 131.625 162.947 132.889 162.945Z" fill="#FCBB41"/>
<path d="M140.492 256.358C141.435 256.358 142.357 256.637 143.141 257.161C143.925 257.685 144.536 258.43 144.897 259.301C145.258 260.172 145.352 261.131 145.168 262.055C144.984 262.98 144.53 263.83 143.864 264.497C143.197 265.163 142.347 265.617 141.422 265.801C140.498 265.985 139.539 265.891 138.668 265.53C137.797 265.169 137.052 264.558 136.528 263.774C136.004 262.99 135.725 262.068 135.725 261.125C135.726 259.861 136.229 258.649 137.123 257.756C138.016 256.862 139.228 256.359 140.492 256.358Z" fill="#FCBB41"/>
<path d="M157.752 246.822C158.695 246.822 159.617 247.102 160.401 247.626C161.185 248.15 161.796 248.894 162.157 249.765C162.518 250.637 162.612 251.595 162.428 252.52C162.244 253.445 161.79 254.294 161.123 254.961C160.457 255.628 159.607 256.082 158.682 256.266C157.757 256.45 156.799 256.356 155.928 255.995C155.056 255.634 154.312 255.023 153.788 254.239C153.264 253.455 152.984 252.533 152.984 251.59C152.986 250.326 153.488 249.114 154.382 248.22C155.276 247.326 156.488 246.824 157.752 246.822Z" fill="#FCBB41"/>
<path d="M154.88 187.196C157.411 187.196 159.884 187.947 161.988 189.353C164.092 190.758 165.732 192.757 166.7 195.094C167.669 197.432 167.922 200.005 167.429 202.487C166.935 204.968 165.716 207.248 163.927 209.037C162.138 210.827 159.858 212.045 157.376 212.539C154.894 213.033 152.322 212.779 149.984 211.811C147.646 210.842 145.648 209.203 144.242 207.099C142.836 204.995 142.086 202.521 142.086 199.991C142.087 196.598 143.436 193.344 145.835 190.945C148.234 188.546 151.487 187.198 154.88 187.196Z" fill="#FCBB41"/>
<path d="M85.5576 209.214C87.1566 209.214 88.7197 209.688 90.0494 210.576C91.3791 211.464 92.4156 212.727 93.028 214.204C93.6403 215.681 93.8011 217.306 93.4899 218.875C93.1786 220.443 92.4094 221.884 91.2795 223.016C90.1495 224.147 88.7095 224.918 87.1415 225.231C85.5734 225.544 83.9477 225.386 82.4699 224.775C80.992 224.164 79.7283 223.129 78.8385 221.801C77.9487 220.472 77.4727 218.91 77.4707 217.311C77.4694 216.248 77.6776 215.195 78.0834 214.213C78.4892 213.231 79.0847 212.338 79.8357 211.586C80.5868 210.834 81.4788 210.237 82.4606 209.83C83.4424 209.423 84.4948 209.214 85.5576 209.214Z" fill="#FCBB41"/>
<path d="M149.499 134.38C149.605 122.773 144.933 115.526 140.95 111.472C138.565 109.026 135.751 107.04 132.647 105.613C130.519 101.358 118.66 77.7364 106.098 54.235C77.728 1.16723 73.5538 0.417886 71.5522 0.0608151C64.788 -1.14619 33.9742 15.9279 21.0342 23.3207C6.43951 31.6842 -18.3845 46.7164 -25.0733 53.6316C-25.1035 53.6617 -25.1387 53.6869 -25.1638 53.717C-26.6172 55.0699 -37.6714 65.7519 -37.9983 77.2988C-38.3151 88.5843 4.5938 162.795 17.0259 183.193C16.3721 186.603 15.6379 198.281 32.9734 208.077C34.8392 211.89 45.8028 234.118 58.2601 256.473C66.2716 270.852 73.3476 282.479 79.2368 291.024C89.5466 305.94 94.269 308.5 96.9244 309.129C97.8787 309.339 98.8541 309.438 99.8312 309.425C111.026 309.425 133.813 299.095 152.195 287.895C165.125 280.015 195.722 259.506 201.139 238.886C201.614 237.9 201.902 236.834 201.989 235.743C202.829 222.048 156.259 145.424 149.499 134.38ZM197.976 235.466C197.906 236.112 197.718 236.739 197.422 237.317V237.347C196.276 239.766 192.931 244.157 183.532 251.394C159.155 270.152 118.308 289.957 108.18 287.931C105.871 287.468 97.8648 281.634 73.4381 237.574C62.208 217.361 52.0239 197.144 48.755 190.576C67.73 185.607 87.8417 176.897 108.602 164.63C122.035 156.695 134.869 147.786 147 137.976C168.248 172.798 198.549 226.092 197.976 235.476V235.466ZM145.466 133.998C133.2 144.03 120.186 153.109 106.535 161.155C85.4679 173.623 65.0998 182.353 45.9889 187.141C43.4743 186.11 33.3154 181.156 33.0287 168.533C50.309 161.484 67.0592 153.2 83.1495 143.744C101.39 133.062 117.665 121.545 131.565 109.511C134.96 111.145 145.466 117.502 145.466 133.998ZM23.0358 26.816C49.5496 11.6531 66.684 3.99363 70.5011 3.99363C70.5931 3.98541 70.6857 3.98541 70.7777 3.99363C72.0601 4.58204 78.0599 10.2248 103.03 57.0011C114.803 79.049 125.852 100.996 128.679 106.649C115.014 118.458 99.0064 129.783 81.0925 140.259C65.2782 149.549 48.8212 157.698 31.8469 164.645C28.4069 158.927 15.3914 137.146 2.97944 114.671C-24.2636 65.3344 -23.4137 58.2383 -22.951 57.333C-22.7868 57.0863 -22.6017 56.8541 -22.3978 56.639L-22.3424 56.5887C-22.2871 56.5334 -22.2368 56.473 -22.1865 56.4127C-17.6804 51.6651 0.962739 39.4342 23.0358 26.816ZM-33.9749 77.4145C-33.8039 71.3393 -29.8862 65.2791 -26.6524 61.2759C-25.9232 64.7158 -24.0876 69.9713 -20.2956 78.2795C-15.9101 87.9104 -9.33197 100.639 -0.822616 116.114C11.9263 139.248 25.3894 161.739 28.5779 167.034L19.3343 179.275C0.0323417 147.395 -34.2113 85.7579 -33.9749 77.4145ZM21.0191 183.746L29.3926 172.637C31.2434 182.871 38.9481 188.081 42.8859 190.108L33.8334 203.938C19.2136 195.168 20.6067 185.537 21.0191 183.746ZM150.093 284.46C125.907 299.196 104.141 306.71 97.8397 305.216C94.4752 304.416 85.312 296.772 61.7705 254.527C49.7859 233.022 39.1895 211.623 36.8006 206.75L45.6017 193.272C49.3082 200.69 59.1201 220.087 69.8875 239.5C94.963 284.727 103.286 291.049 107.365 291.863C108.134 292.009 108.916 292.078 109.698 292.07C125.123 292.07 165.522 270.313 185.961 254.567C187.409 253.451 188.759 252.371 190.009 251.328C181.932 261.9 168.012 273.547 150.093 284.46ZM11.8861 92.0745C21.4868 110.114 32.1989 128.139 38.5407 136.92C42.6546 142.613 44.4047 143.825 45.9235 143.825H46.0694C49.8915 143.644 66.2967 135.059 74.4339 130.548C81.7866 126.474 99.4088 116.365 104.202 110.537C104.931 109.651 105.876 108.294 105.655 106.765C105.102 102.983 93.8415 80.1101 84.0849 61.9096C62.3035 21.3292 58.2048 21.123 56.4546 21.0325H56.3088C52.1195 21.0325 35.5986 29.1847 26.0432 34.3899C13.9732 40.9631 -0.887995 50.0659 -3.22153 56.116C-3.68924 57.333 -3.79989 59.4654 0.620755 69.403C3.29125 75.4079 7.18886 83.2383 11.8861 92.0745ZM27.7179 38.0562C41.9656 30.2761 53.8696 25.2419 56.1378 25.0558C58.0388 25.9912 65.321 35.3455 81.1428 64.9371C91.865 84.9884 100.963 104.114 101.647 107.182C101.028 108.746 94.8272 114.414 75.1782 125.519C60.478 133.822 48.7851 139.213 46.1649 139.761C43.5246 137.976 33.9491 123.763 20.8431 100.081C7.98346 76.8864 0.495025 60.2801 0.595609 57.4336C1.83781 54.5368 9.59279 47.9586 27.7179 38.0562ZM88.938 184.46C86.9407 184.46 84.9883 185.053 83.3276 186.162C81.6669 187.272 80.3725 188.849 79.6082 190.694C78.8438 192.54 78.6438 194.57 79.0335 196.529C79.4232 198.488 80.385 200.287 81.7973 201.7C83.2096 203.112 85.009 204.074 86.9679 204.464C88.9268 204.853 90.9573 204.653 92.8026 203.889C94.6479 203.125 96.2251 201.83 97.3347 200.169C98.4443 198.509 99.0366 196.556 99.0366 194.559C99.0326 191.882 97.9674 189.316 96.0744 187.423C94.1814 185.53 91.6151 184.464 88.938 184.46ZM88.938 200.634C87.7365 200.634 86.5619 200.278 85.5628 199.61C84.5637 198.943 83.7851 197.994 83.3252 196.884C82.8654 195.774 82.7451 194.552 82.9795 193.374C83.2139 192.195 83.7926 191.113 84.6422 190.263C85.4918 189.414 86.5743 188.835 87.7528 188.6C88.9313 188.366 90.1528 188.486 91.2629 188.946C92.373 189.406 93.3219 190.185 93.9894 191.184C94.657 192.183 95.0133 193.357 95.0133 194.559C95.012 196.17 94.3715 197.714 93.2324 198.853C92.0934 199.992 90.5489 200.633 88.938 200.634ZM109.356 216.687C107.357 216.679 105.401 217.265 103.735 218.37C102.069 219.474 100.768 221.049 99.998 222.893C99.2275 224.738 99.0217 226.77 99.4068 228.731C99.7919 230.693 100.751 232.496 102.161 233.912C103.572 235.329 105.371 236.294 107.331 236.687C109.291 237.08 111.324 236.883 113.171 236.12C115.019 235.356 116.599 234.062 117.71 232.401C118.822 230.739 119.415 228.785 119.415 226.786C119.411 224.116 118.351 221.556 116.467 219.664C114.583 217.772 112.027 216.702 109.356 216.687ZM109.356 232.851C108.153 232.859 106.974 232.509 105.969 231.846C104.965 231.183 104.18 230.236 103.714 229.126C103.248 228.016 103.123 226.793 103.354 225.612C103.584 224.43 104.161 223.344 105.01 222.491C105.859 221.638 106.942 221.056 108.122 220.819C109.303 220.583 110.526 220.702 111.639 221.162C112.751 221.622 113.702 222.403 114.37 223.404C115.038 224.405 115.393 225.582 115.391 226.786C115.388 228.388 114.751 229.924 113.621 231.06C112.491 232.195 110.959 232.839 109.356 232.851ZM111.786 192.537C109.788 192.537 107.836 193.13 106.175 194.239C104.514 195.349 103.22 196.926 102.456 198.771C101.691 200.617 101.491 202.647 101.881 204.606C102.271 206.565 103.232 208.364 104.645 209.777C106.057 211.189 107.857 212.151 109.815 212.54C111.774 212.93 113.805 212.73 115.65 211.966C117.495 211.201 119.073 209.907 120.182 208.246C121.292 206.586 121.884 204.633 121.884 202.636C121.879 199.957 120.81 197.389 118.913 195.497C117.015 193.606 114.445 192.545 111.765 192.547L111.786 192.537ZM111.786 208.711C110.584 208.711 109.409 208.355 108.41 207.687C107.411 207.02 106.633 206.071 106.173 204.961C105.713 203.851 105.593 202.629 105.827 201.451C106.061 200.272 106.64 199.19 107.49 198.34C108.339 197.49 109.422 196.912 110.6 196.677C111.779 196.443 113 196.563 114.11 197.023C115.221 197.483 116.169 198.262 116.837 199.261C117.505 200.26 117.861 201.434 117.861 202.636C117.86 203.435 117.702 204.227 117.395 204.965C117.088 205.703 116.639 206.373 116.073 206.937C115.507 207.502 114.835 207.949 114.096 208.253C113.357 208.557 112.565 208.713 111.765 208.711H111.786ZM139.687 167.693C139.687 166.352 139.29 165.042 138.545 163.927C137.8 162.812 136.741 161.943 135.502 161.43C134.264 160.917 132.901 160.783 131.586 161.044C130.27 161.306 129.062 161.951 128.114 162.899C127.166 163.848 126.521 165.056 126.259 166.371C125.997 167.686 126.132 169.049 126.645 170.287C127.158 171.526 128.027 172.585 129.142 173.33C130.257 174.075 131.567 174.472 132.908 174.472C134.7 174.465 136.416 173.748 137.682 172.48C138.948 171.212 139.662 169.495 139.667 167.703L139.687 167.693ZM132.908 170.449C132.363 170.449 131.83 170.288 131.377 169.985C130.924 169.682 130.57 169.251 130.362 168.748C130.153 168.244 130.099 167.69 130.205 167.155C130.311 166.621 130.574 166.13 130.959 165.744C131.345 165.359 131.836 165.096 132.37 164.99C132.905 164.884 133.459 164.938 133.963 165.147C134.466 165.356 134.897 165.709 135.2 166.162C135.502 166.615 135.664 167.148 135.664 167.693C135.665 168.058 135.594 168.419 135.455 168.756C135.316 169.092 135.112 169.398 134.853 169.656C134.595 169.913 134.289 170.116 133.951 170.254C133.614 170.392 133.252 170.462 132.888 170.459L132.908 170.449ZM140.512 254.336C139.171 254.336 137.861 254.733 136.746 255.478C135.631 256.223 134.762 257.282 134.249 258.521C133.736 259.759 133.602 261.123 133.863 262.438C134.125 263.753 134.77 264.961 135.718 265.909C136.667 266.857 137.875 267.503 139.19 267.764C140.505 268.026 141.868 267.891 143.107 267.378C144.345 266.865 145.404 265.996 146.149 264.881C146.894 263.767 147.292 262.456 147.292 261.115C147.29 260.224 147.112 259.342 146.769 258.52C146.427 257.698 145.925 256.951 145.294 256.322C144.662 255.694 143.913 255.196 143.089 254.856C142.266 254.517 141.383 254.344 140.492 254.346L140.512 254.336ZM140.512 263.891C139.967 263.891 139.434 263.73 138.981 263.427C138.528 263.124 138.175 262.693 137.966 262.19C137.757 261.686 137.703 261.132 137.809 260.598C137.916 260.063 138.178 259.572 138.563 259.186C138.949 258.801 139.44 258.538 139.975 258.432C140.509 258.326 141.063 258.38 141.567 258.589C142.07 258.798 142.501 259.151 142.804 259.604C143.107 260.057 143.268 260.59 143.268 261.135C143.267 261.498 143.194 261.857 143.054 262.191C142.913 262.526 142.708 262.829 142.45 263.085C142.192 263.34 141.887 263.541 141.551 263.678C141.215 263.815 140.855 263.884 140.492 263.881L140.512 263.891ZM157.772 244.821C156.431 244.821 155.121 245.218 154.006 245.963C152.891 246.708 152.022 247.767 151.509 249.006C150.996 250.244 150.862 251.607 151.123 252.922C151.385 254.237 152.03 255.445 152.979 256.394C153.927 257.342 155.135 257.987 156.45 258.249C157.765 258.511 159.128 258.376 160.367 257.863C161.605 257.35 162.664 256.481 163.409 255.366C164.154 254.251 164.552 252.941 164.552 251.6C164.552 250.707 164.377 249.823 164.035 248.999C163.694 248.174 163.193 247.425 162.561 246.794C161.929 246.163 161.179 245.663 160.354 245.323C159.529 244.983 158.645 244.808 157.752 244.81L157.772 244.821ZM157.772 254.376C157.227 254.376 156.694 254.214 156.241 253.911C155.788 253.609 155.435 253.178 155.226 252.675C155.018 252.171 154.963 251.617 155.069 251.082C155.176 250.548 155.438 250.057 155.824 249.671C156.209 249.286 156.7 249.023 157.235 248.917C157.769 248.811 158.323 248.865 158.827 249.074C159.331 249.282 159.761 249.636 160.064 250.089C160.367 250.542 160.528 251.075 160.528 251.62C160.52 252.349 160.224 253.045 159.703 253.556C159.183 254.067 158.481 254.351 157.752 254.346L157.772 254.376ZM140.075 199.991C140.075 202.919 140.943 205.781 142.57 208.216C144.197 210.651 146.509 212.549 149.215 213.669C151.92 214.79 154.897 215.083 157.769 214.512C160.641 213.941 163.279 212.53 165.35 210.46C167.421 208.389 168.831 205.751 169.402 202.879C169.973 200.007 169.68 197.03 168.559 194.325C167.439 191.619 165.541 189.307 163.106 187.68C160.671 186.053 157.809 185.185 154.881 185.185C150.955 185.19 147.193 186.752 144.417 189.527C141.642 192.303 140.08 196.065 140.075 199.991ZM165.663 199.991C165.663 202.123 165.031 204.208 163.846 205.981C162.661 207.754 160.977 209.136 159.007 209.952C157.037 210.768 154.869 210.982 152.777 210.566C150.685 210.15 148.764 209.123 147.256 207.615C145.748 206.107 144.721 204.186 144.305 202.094C143.889 200.002 144.103 197.834 144.919 195.864C145.735 193.894 147.117 192.21 148.89 191.025C150.663 189.84 152.748 189.208 154.881 189.208C157.743 189.207 160.488 190.342 162.514 192.363C164.539 194.385 165.679 197.129 165.683 199.991H165.663ZM85.5584 207.202C83.5611 207.202 81.6087 207.795 79.948 208.904C78.2873 210.014 76.9929 211.591 76.2286 213.436C75.4642 215.282 75.2642 217.312 75.6539 219.271C76.0435 221.23 77.0054 223.029 78.4177 224.442C79.83 225.854 81.6294 226.816 83.5883 227.205C85.5472 227.595 87.5777 227.395 89.423 226.631C91.2683 225.866 92.8455 224.572 93.9551 222.911C95.0648 221.251 95.657 219.298 95.657 217.301C95.6544 214.623 94.5895 212.056 92.6963 210.163C90.803 208.27 88.2359 207.205 85.5584 207.202ZM85.5584 223.376C84.3569 223.376 83.1823 223.02 82.1832 222.352C81.1841 221.685 80.4055 220.736 79.9456 219.626C79.4858 218.516 79.3655 217.294 79.5999 216.116C79.8343 214.937 80.4129 213.855 81.2626 213.005C82.1122 212.155 83.1947 211.577 84.3732 211.342C85.5517 211.108 86.7732 211.228 87.8833 211.688C88.9934 212.148 89.9422 212.927 90.6098 213.926C91.2774 214.925 91.6337 216.099 91.6337 217.301C91.6343 218.099 91.4777 218.89 91.1728 219.628C90.8678 220.366 90.4205 221.037 89.8564 221.602C89.2922 222.167 88.6223 222.615 87.8849 222.921C87.1474 223.228 86.3569 223.386 85.5584 223.386V223.376Z" fill="black"/>
</svg>
