<svg width="145" height="161" viewBox="0 0 145 161" fill="none" xmlns="http://www.w3.org/2000/svg">
<g clip-path="url(#clip0_360_91494)">
<path d="M19.1146 51.0406C19.1146 51.0406 8.14478 41.5346 9.38485 38.1556C10.6249 34.7766 29.2444 9.05918 33.5502 7.91531C39.3398 6.36648 47.2863 14.6891 47.2863 14.6891L19.1146 51.0406Z" fill="#7D67BF"/>
<path d="M132.519 77.3679C132.519 77.3679 143.912 86.3874 142.807 89.8085C141.702 93.2296 124.267 119.744 120.001 121.082C114.289 122.881 105.984 114.913 105.984 114.913L132.519 77.3679Z" fill="#7D67BF"/>
<path d="M58.7976 9.26172L136.384 67.0706L94.8575 122.04L18.0371 62.4636L58.7976 9.26172Z" fill="#FA5946"/>
<path d="M36.685 53.3359C36.685 53.3359 17.6045 75.7506 10.861 94.0104C3.54246 113.798 9.6103 113.312 3.86573 128.837C1.76981 134.511 -0.482444 139.536 2.54087 143.181C5.0157 146.171 21.9897 159.819 26.8334 159.272C33.3464 158.533 37.3209 143.867 45.5933 144.809C59.976 146.471 61.3988 155.217 67.6919 151.94C72.7688 149.3 64.0751 137.527 98.2802 99.9244L36.685 53.3359Z" fill="#7D67BF"/>
<path d="M37.8116 61.7057C36.2615 61.7636 33.1004 66.0945 33.6145 67.1332C34.1285 68.1719 37.589 71.4694 38.8291 70.8567C40.0692 70.244 43.2965 66.2102 43.0262 65.0506C42.756 63.8909 39.0676 61.661 37.8116 61.7057Z" fill="#69CDE0"/>
<path d="M30.9431 71.32C29.5785 71.6303 25.7974 77.347 25.9087 78.746C26.0199 80.1449 30.0448 83.4792 31.4412 82.785C32.8376 82.0908 36.9685 77.6731 36.6559 76.0322C36.3432 74.3914 32.3978 70.986 30.9325 71.32H30.9431Z" fill="#69CDE0"/>
<path d="M22.3349 84.4254C20.9783 84.5543 17.6396 89.9923 18.0318 91.5569C18.424 93.1215 23.1669 96.5531 24.4361 95.9115C25.7054 95.2698 29.1738 91.2466 28.6518 89.4059C28.1298 87.5652 23.7525 84.2861 22.3349 84.4096V84.4254Z" fill="#69CDE0"/>
<path d="M15.8048 100.356C14.9622 100.619 13.8202 108.457 14.48 109.854C15.1397 111.25 18.7009 112.702 19.949 111.942C21.197 111.182 23.3936 105.383 22.8636 103.79C22.3337 102.196 17.4344 99.8166 15.8048 100.345V100.356Z" fill="#69CDE0"/>
<path d="M14.0427 117.085C13.012 117.282 10.985 124.564 11.4354 125.763C11.8859 126.962 15.349 129.586 16.6368 128.85C17.9246 128.113 20.2589 123.065 19.7529 121.358C19.2468 119.651 15.304 116.843 14.0427 117.085Z" fill="#69CDE0"/>
<path d="M10.2112 132.863C8.41205 133.084 5.44173 139.337 5.94782 140.531C6.45391 141.724 9.63356 144.336 10.9081 143.876C12.1826 143.415 15.3119 137.188 14.7237 135.766C14.1354 134.343 11.075 132.758 10.2192 132.873L10.2112 132.863Z" fill="#69CDE0"/>
<path d="M62.1694 131.19C60.8896 131.535 58.3777 138.487 59.1805 139.521C59.9834 140.554 63.6426 143.61 64.7767 142.866C65.9108 142.121 68.0729 135.718 67.6702 134.661C67.2674 133.604 63.4519 130.848 62.1694 131.19Z" fill="#69CDE0"/>
<path d="M69.0737 118.379C67.8521 118.137 64.5427 122.286 64.7732 123.743C65.0037 125.2 69.2989 129.244 70.8675 128.287C72.4361 127.33 75.1547 123.028 74.8739 122.039C74.593 121.05 70.2501 118.621 69.0631 118.379H69.0737Z" fill="#69CDE0"/>
<path d="M78.0633 106.325C76.8391 106.588 73.1375 111.466 73.2302 112.857C73.323 114.248 77.6976 117.853 79.0808 117.064C80.4639 116.275 83.8238 112.147 83.7867 110.927C83.7496 109.707 79.412 106.041 78.0633 106.32V106.325Z" fill="#69CDE0"/>
<path d="M86.5224 96.732C85.3247 96.7188 82.3624 100.576 82.3888 101.907C82.4153 103.238 86.8483 106.832 88.1758 106.312C89.5033 105.791 92.1689 101.894 91.9914 100.96C91.8139 100.027 87.8048 96.753 86.5224 96.732Z" fill="#69CDE0"/>
<path d="M53.5835 1.06747C50.5602 1.40668 8.30261 57.1881 8.57553 59.6231C8.84845 62.0581 16.6492 68.2587 18.6153 67.8906C20.5814 67.5224 63.9041 11.0915 63.9438 8.29095C63.9756 6.05317 56.628 0.725619 53.5835 1.06747Z" fill="#69CDE0"/>
<path d="M133.576 61.5323C130.55 61.8715 88.2955 117.653 88.5657 120.091C88.836 122.528 96.6421 128.724 98.6081 128.358C100.574 127.993 143.897 71.5589 143.937 68.7558C143.968 66.518 136.621 61.1905 133.576 61.5323Z" fill="#69CDE0"/>
<path d="M137.577 80.3629L137.978 79.8107C144.978 70.0812 144.989 69.2923 144.997 68.7664C145.012 67.6962 144.162 66.384 142.474 64.8667C140.413 63.0103 136.141 60.1834 133.465 60.4832C133.131 60.52 132.731 60.5647 131.308 61.961L63.4757 11.4151C65.0019 9.0248 65.0098 8.60933 65.0125 8.2964C65.0284 7.22616 64.1805 5.914 62.49 4.3941C60.4099 2.55075 56.1439 -0.281313 53.4651 0.0237196C52.8344 0.0920889 51.9706 0.189384 44.4163 9.35087L43.7009 10.2213C40.7173 8.05711 36.7348 5.97448 33.2743 6.90009C30.5901 7.62586 24.2891 15.278 19.4746 21.5758C14.7369 27.7764 9.14073 35.7441 8.39086 37.8056C8.10734 38.5735 7.26474 40.8717 14.6362 48.2767L14.199 48.8867C7.37867 58.4716 7.45551 59.1658 7.51911 59.739C7.80528 62.3055 12.8662 66.0921 13.4439 66.5155C15.6484 68.138 17.331 68.9558 18.4518 68.9558C18.5716 68.9559 18.6913 68.9462 18.8095 68.9268C19.146 68.8637 19.4878 68.798 21.5175 66.4997L23.9367 68.3694C18.6558 75.9952 12.951 85.2671 9.8535 93.6397C5.91073 104.305 5.79415 109.128 5.68021 113.772C5.58482 117.666 5.49473 121.345 2.85827 128.476C2.69575 128.911 2.53677 129.342 2.38132 129.77C0.404639 135.029 -1.46341 140.026 1.70565 143.849C3.78832 146.368 20.5186 160.337 26.5546 160.337C26.683 160.336 26.8112 160.329 26.9388 160.316C30.304 159.934 32.8291 156.655 35.5027 153.184C38.4439 149.363 41.4937 145.408 45.455 145.869C52.5085 146.684 56.2261 149.192 59.2123 151.209C62.1985 153.226 64.5117 154.788 68.1683 152.887C70.1105 151.875 70.4921 149.963 71.0697 147.065C72.0687 142.011 73.9234 132.713 85.9425 116.465L88.2319 118.24C87.4502 119.62 87.482 119.933 87.5138 120.212C87.8 122.776 92.8583 126.562 93.4359 126.986C95.6431 128.608 97.3257 129.428 98.4465 129.428C98.5665 129.429 98.6862 129.418 98.8042 129.397C99.3342 129.297 99.8932 129.192 107.344 119.943L108.579 118.403C111.369 120.43 114.917 122.4 118.187 122.4C118.911 122.403 119.631 122.297 120.322 122.084C122.972 121.248 128.934 113.325 133.462 106.832C137.925 100.432 143.152 92.2276 143.82 90.1345C144.239 88.817 144.021 86.3873 137.577 80.3629ZM129.832 63.5046C128.574 64.8773 126.841 66.881 124.414 69.8156C120.254 74.8644 114.777 81.8144 108.995 89.3903C106.131 93.1453 103.301 96.9083 100.699 100.435L75.8657 81.6514L37.3257 52.4972L34.5408 50.3935C37.172 47.025 39.9833 43.3856 42.8477 39.6385C48.7062 31.968 54.0798 24.7603 57.9828 19.3433C59.8985 16.6822 61.2896 14.6942 62.3018 13.1927L129.832 63.5046ZM10.3861 38.5235C10.916 37.0878 15.6405 30.0773 21.1704 22.8407C28.6267 13.0796 32.6516 9.24569 33.8281 8.94065C35.9478 8.37003 38.9579 9.41135 42.3654 11.8674C38.5286 16.6006 33.8731 22.5435 28.9976 28.9334C24.2282 35.1761 19.5673 41.4424 15.8869 46.5517C11.0565 41.6343 10.1317 39.2046 10.3808 38.5288L10.3861 38.5235ZM18.2981 66.8442C17.686 66.7285 15.9134 65.8581 13.5101 63.8964C10.969 61.8164 9.8376 60.2466 9.65212 59.626C10.0284 58.6215 12.5959 54.7428 16.8938 48.75L16.9097 48.729C20.4311 43.8221 25.1079 37.5032 30.7041 30.172C43.9182 12.8587 52.2647 3.02671 53.8122 2.10372C55.2801 2.04324 58.5551 3.75774 60.9399 5.85352C62.3972 7.13676 62.8238 7.95719 62.8821 8.22015C62.2965 9.8426 54.7767 20.5424 41.2976 38.1975C37.9908 42.5284 34.9383 46.4623 32.2223 49.9412C24.5859 59.6917 19.4931 65.8134 18.2981 66.8442ZM22.8954 64.9009C24.0109 63.5861 25.4576 61.8243 27.3495 59.4735C29.1248 57.2672 31.1148 54.7612 33.2398 52.0528L35.1635 53.5069C33.5949 55.4107 29.615 60.3438 25.1476 66.6549L22.8954 64.9009ZM68.9844 146.655C68.4412 149.376 68.1895 150.499 67.1773 151.023C64.7422 152.29 63.4174 151.512 60.3967 149.471C57.376 147.431 53.2557 144.654 45.6935 143.778C40.5265 143.181 36.9494 147.817 33.8095 151.906C31.4248 155.012 29.1593 157.954 26.6897 158.217C26.0326 158.293 23.2054 158.041 14.3978 151.693C9.34741 148.064 4.51699 143.941 3.33787 142.524C0.953129 139.631 2.52706 135.403 4.36065 130.512C4.52229 130.081 4.68657 129.647 4.8482 129.197C7.60655 121.742 7.69929 117.89 7.79998 113.819C7.90861 109.336 8.02255 104.7 11.8434 94.3602C17.7602 78.3671 33.4757 58.8608 36.8514 54.7718L57.3416 70.2706L96.7242 100.072C92.0024 105.302 88.1179 110.035 84.9091 114.314V114.327C72.0104 131.514 70.0416 141.354 68.9844 146.655ZM87.2091 114.776C90.2854 110.727 93.9791 106.264 98.4147 101.35L99.4401 102.125C97.5112 104.755 95.7306 107.198 94.1937 109.359C91.8593 112.638 90.3331 114.882 89.3368 116.428L87.2091 114.776ZM98.3008 127.314C97.686 127.201 95.916 126.328 93.5101 124.369C90.9717 122.289 89.8402 120.717 89.6548 120.099C89.8808 119.591 90.1465 119.101 90.4497 118.634C90.4981 118.569 90.5398 118.499 90.5742 118.426C92.2806 115.676 96.1651 110.119 101.735 102.575V102.559C101.742 102.55 101.748 102.541 101.753 102.53C104.377 98.9804 107.365 94.9939 110.68 90.6525C121.26 76.7893 128.717 67.7277 132.066 64.1909C132.132 64.1377 132.19 64.0768 132.241 64.0095C132.71 63.4807 133.235 63.0029 133.807 62.5843C135.275 62.5238 138.545 64.2383 140.927 66.3341C142.384 67.6199 142.808 68.4377 142.869 68.7007C142.283 70.3231 134.763 81.0229 121.282 98.678C115.943 105.67 111.287 111.637 107.567 116.296L107.554 116.312V116.328C102.54 122.602 99.2255 126.51 98.3008 127.314ZM141.798 89.4902C141.335 90.947 136.926 98.1679 131.729 105.625C124.705 115.707 120.866 119.712 119.692 120.088C119.205 120.238 118.697 120.312 118.187 120.306C115.394 120.306 112.124 118.363 109.906 116.762C113.725 111.96 118.219 106.18 122.85 100.116C127.925 93.4767 132.633 87.1841 136.337 82.0984C142.169 87.5969 141.857 89.3061 141.798 89.4902ZM37.8291 60.6541H37.7735C36.0724 60.7146 34.1354 63.2022 33.3511 64.5091C32.5324 65.8712 32.3071 66.8757 32.6648 67.5963C33.1948 68.6481 35.7412 71.204 37.6039 71.8273C37.8851 71.9252 38.1803 71.9776 38.4783 71.9824C38.7639 71.9852 39.0462 71.9212 39.3024 71.7957C40.6564 71.1252 44.4984 66.7101 44.0586 64.8141C43.6532 63.0602 39.4454 60.6541 37.8291 60.6541ZM38.4174 69.8787C37.5774 69.7999 35.1662 67.662 34.615 66.7732C34.7475 65.7582 37.0289 62.9024 37.8503 62.7578C38.6956 62.7578 41.5334 64.496 41.9627 65.2612C41.809 66.1815 39.4137 69.2976 38.4174 69.8787ZM33.6638 71.1935C32.4502 70.4047 31.4804 70.1075 30.6988 70.2863C29.5223 70.5493 28.0279 72.4715 26.9892 74.0335C26.1466 75.2904 24.7528 77.5834 24.8694 78.8299C25.0019 80.3419 27.2939 82.3745 28.897 83.2607C29.5361 83.6556 30.2651 83.8844 31.0167 83.926C31.3379 83.9293 31.6555 83.8582 31.9441 83.7183C33.4757 82.9504 38.1789 78.2356 37.7231 75.8295C37.3893 74.1544 35.0628 72.106 33.6717 71.2014L33.6638 71.1935ZM30.9982 81.8302C30.145 81.9196 27.1905 79.6003 26.9706 78.6589C27.0395 77.5177 30.1503 72.8607 31.181 72.3479C32.2197 72.3479 35.4205 75.13 35.6166 76.216C35.6961 77.2468 32.3495 81.1229 30.9982 81.8302ZM22.2276 83.379C21.9203 83.408 20.9849 83.4974 19.3395 85.8062C19.2229 85.9692 16.499 89.8242 16.9971 91.8121C17.4131 93.4609 20.4073 95.7565 22.2965 96.5901C22.8429 96.8613 23.4404 97.0163 24.0506 97.045C24.353 97.0502 24.6521 96.9825 24.9224 96.8478C26.4089 96.0878 30.394 91.6675 29.676 89.1273C29.0427 86.8948 24.2388 83.1897 22.2356 83.379H22.2276ZM24.0056 94.9492C22.9298 94.9492 19.3183 92.3039 19.0665 91.3178C18.897 90.2791 21.4062 86.0139 22.482 85.4827C23.5127 85.58 27.2515 88.299 27.6357 89.7032C27.9298 90.7393 25.2059 94.2577 24.0135 94.944L24.0056 94.9492ZM15.4788 99.3538C14.9303 99.5326 14.6548 100.037 14.4931 100.406C13.7274 102.146 12.7152 108.602 13.5101 110.296C14.0718 111.497 15.8021 112.478 17.2674 112.925C17.8327 113.103 18.4207 113.199 19.0135 113.212C19.5327 113.228 20.0463 113.102 20.4974 112.846C22.2674 111.758 24.5408 105.447 23.8731 103.469C23.1577 101.339 17.6675 98.6464 15.4788 99.3538ZM21.1042 107.745C20.3993 109.654 19.6627 110.85 19.3872 111.045C19.2679 111.116 18.7247 111.169 17.8159 110.885C16.5228 110.48 15.6034 109.77 15.4311 109.417C15.0469 108.447 15.7438 102.793 16.3797 101.329C16.9097 101.329 17.9696 101.592 19.2732 102.231C21.0114 103.08 21.7719 103.892 21.854 104.134C21.9362 104.376 21.8779 105.617 21.1042 107.745ZM13.8281 116.052C13.1736 116.178 12.7682 116.751 12.5032 117.238C11.5069 118.997 9.8535 124.6 10.4311 126.131C10.8895 127.351 13.0808 129.16 14.835 129.783C15.2353 129.932 15.6581 130.013 16.0856 130.023C16.4658 130.034 16.842 129.943 17.1746 129.76C18.8943 128.758 21.4142 123.217 20.7703 121.064C20.1264 118.91 15.712 115.702 13.8281 116.052ZM16.1201 127.916C15.3569 128.072 12.7576 126.199 12.4105 125.421C12.2197 124.369 13.6187 119.339 14.3925 118.15C15.4735 118.413 18.367 120.464 18.7221 121.642C19.0771 122.82 17.066 127.314 16.1201 127.916ZM10.0867 131.819C9.02679 131.948 7.91391 133.015 6.75069 134.995C6.65 135.166 4.27056 139.25 4.97274 140.933C5.52388 142.261 8.47565 144.977 10.5954 144.977C10.8274 144.98 11.0581 144.942 11.2764 144.864C12.7788 144.338 14.456 140.704 14.7793 139.986C16.2525 136.683 15.8392 135.695 15.712 135.369C14.9436 133.512 11.4274 131.656 10.0867 131.819ZM10.5451 142.881C9.78461 142.881 7.39457 141.083 6.95737 140.178C6.86728 139.005 9.24937 134.288 10.3384 133.912C11.0432 133.978 13.3405 135.248 13.7406 136.142C13.9288 137.199 11.5732 142.153 10.5451 142.881ZM61.8911 130.165C60.5027 130.538 59.3289 133.441 58.7512 135.137C57.4423 139 58.1179 139.87 58.3405 140.154C58.6956 140.609 62.0713 144.009 64.3713 144.009C64.721 144.017 65.0651 143.921 65.3596 143.733C66.2976 143.121 67.2144 140.935 67.8 139.213C68.3856 137.491 69.0268 135.242 68.6585 134.28C68.1259 132.889 63.8837 129.639 61.8911 130.165ZM64.2467 141.916C63.4147 141.822 60.969 140.018 60.084 138.953C59.8853 137.793 61.5838 133.062 62.5006 132.205C63.4465 132.282 66.234 134.23 66.6606 134.99C66.7692 136.155 65.0602 141.006 64.2467 141.927V141.916ZM69.2812 117.338C68.5233 117.188 67.6595 117.587 66.6315 118.56C65.5716 119.575 63.4518 122.215 63.7168 123.898C63.9817 125.502 66.748 128.174 68.7141 129.076C69.2089 129.321 69.7512 129.458 70.3039 129.476C70.6975 129.481 71.0847 129.377 71.4221 129.176C73.1418 128.124 76.3771 123.43 75.8948 121.742C75.447 120.146 70.4788 117.587 69.2838 117.348L69.2812 117.338ZM70.341 127.369C70.2298 127.385 69.7952 127.327 69.0162 126.844C67.3734 125.823 65.9187 124.059 65.818 123.578C65.773 122.723 68.0331 119.757 68.9605 119.423C69.9992 119.707 73.1815 121.54 73.8254 122.315C73.6293 123.328 71.5387 126.633 70.3463 127.38L70.341 127.369ZM81.7798 106.998C80.0867 105.683 78.7671 105.097 77.845 105.286C76.6897 105.525 75.1264 107.419 74.2971 108.526C73.4677 109.633 72.0872 111.681 72.1773 112.917C72.2859 114.495 74.827 116.678 76.5546 117.595C77.1816 117.966 77.8899 118.181 78.6187 118.221C78.9661 118.227 79.3089 118.142 79.6124 117.974C81.0856 117.14 84.9118 112.691 84.8508 110.892C84.8085 109.522 82.694 107.719 81.7851 107.009L81.7798 106.998ZM78.6002 116.12C77.6966 116.196 74.5594 113.753 74.2891 112.77C74.3898 111.763 77.2594 107.868 78.2637 107.356C79.2229 107.479 82.3336 110.014 82.7072 110.977C82.5032 111.984 79.7528 115.439 78.6028 116.131L78.6002 116.12ZM85.0522 106.296C86.189 107.043 87.1163 107.413 87.8636 107.413C88.1016 107.416 88.3379 107.374 88.5604 107.29C90.2033 106.643 93.3299 102.375 93.0279 100.769C92.853 99.8482 91.4619 98.5807 90.3251 97.6814C89.1884 96.7821 87.5959 95.696 86.5308 95.6803H86.5096C85.8233 95.6803 85.0787 96.1063 84.1672 97.0161C82.9696 98.2152 81.2949 100.532 81.3241 101.931C81.3718 103.837 85.0231 106.27 85.0522 106.296ZM86.544 97.7944C87.4767 97.989 90.3675 100.3 90.9134 101.147C90.6696 102.086 88.677 104.897 87.8291 105.31C86.8726 105.286 83.738 102.82 83.4439 101.86C83.5392 100.976 85.7014 98.1337 86.552 97.7944H86.544Z" fill="black"/>
</g>
<defs>
<clipPath id="clip0_360_91494">
<rect width="145" height="160.337" fill="white"/>
</clipPath>
</defs>
</svg>
