<svg width="121" height="144" viewBox="0 0 121 144" fill="none" xmlns="http://www.w3.org/2000/svg">
<rect x="67.0703" width="62.5669" height="130.267" rx="31.2835" transform="rotate(30.4842 67.0703 0)" stroke="black" stroke-width="2.52055"/>
<path d="M17.8535 117.884C17.1347 117.017 16.3106 116.201 16.2755 114.965C15.9512 113.615 15.8021 112.414 16.4684 110.968C17.1171 109.574 16.8366 107.917 15.171 106.891C14.1365 106.251 12.953 105.576 13.1985 104.007C12.8654 99.4046 13.7683 94.9687 15.057 90.5942C15.4252 89.3318 16.2843 88.2798 16.635 86.9912C16.8629 86.1583 17.4941 85.6674 18.3883 86.1934C19.1685 86.658 19.3175 87.3769 18.7915 88.1483C18.4409 88.6568 18.0288 89.1302 17.7132 90.1383C18.66 88.613 19.5893 88.6919 20.8254 89.174C22.9206 89.9981 24.2093 92.067 26.436 92.628C28.8731 93.8115 30.9683 95.5298 33.2476 96.9587C35.0885 98.1159 35.2989 98.0808 36.421 96.196C37.0873 95.0651 37.7448 93.9255 38.4198 92.8034C39.2351 91.4621 38.8669 90.6819 37.6045 89.9718C34.7028 88.35 32.029 86.395 29.4078 84.3524C27.2249 82.6605 25.0158 81.0211 23.3677 78.7331C22.8417 78.0055 22.6313 77.3041 22.6488 76.4626C22.9206 74.7706 24.0339 73.4819 24.8404 72.053C26.5236 69.0461 28.2945 66.0917 30.0653 63.1374C30.3546 62.664 30.4247 61.8663 31.2926 61.9539C32.8794 63.1199 33.7209 64.9346 35.0885 66.3109C39.9101 71.1413 45.3892 75.0687 51.1576 78.6454C52.2622 79.3292 53.5333 79.8201 54.147 81.1088C54.3399 83.1865 52.832 84.5804 51.929 86.1408C44.2934 99.3344 36.6227 112.519 28.9169 125.678C28.575 126.265 28.3383 126.967 27.5581 127.159C26.2782 127.089 25.4892 126.169 24.6037 125.432C22.114 123.127 19.8874 120.585 17.8447 117.876L17.8535 117.884Z" fill="#F83857"/>
<path d="M84.7238 93.5225C82.7777 96.8888 80.2266 100.115 78.2717 103.481C78.0262 104.665 77.0969 105.533 76.5183 106.55C75.8258 107.768 75.5891 108.364 74.1689 108.189C70.3292 107.716 66.8401 106.19 63.3685 104.647C61.0892 103.639 58.9151 102.412 56.7235 101.22C56.0485 100.851 55.4173 100.395 54.5932 100.79C51.3146 101.544 51.0603 104.042 51.1568 106.742C52.0334 108.487 53.9796 108.846 55.3384 109.969C57.9947 111.818 61.0104 112.905 64.0085 114.027C64.1838 114.115 64.3416 114.229 64.4907 114.361C64.9378 114.816 65.5076 115.071 66.0686 115.351C66.4368 115.535 66.7963 115.754 67.0768 116.079C67.3047 116.351 67.6203 116.824 67.4275 116.991C65.6917 118.551 68.9528 120.181 66.8752 121.891C65.1306 123.32 63.614 125.257 61.8432 126.686C60.3441 127.94 58.6697 128.887 56.8199 129.509C53.8481 130.324 50.9288 131.333 47.8605 131.78C43.6088 132.402 39.4797 131.692 35.3419 130.885C34.8247 130.78 34.5529 130.351 34.3338 129.912C34.0269 129.272 33.5711 129.071 32.8259 129.132C29.8015 129.386 28.7846 128.361 29.0914 125.477C29.8979 123.206 31.3882 121.312 32.5279 119.217C34.1058 117.14 35.8679 118.297 37.5862 118.945C37.8316 118.875 38.0508 118.753 38.2612 118.604C38.6118 118.314 38.9187 117.99 39.1291 117.587C39.1992 117.438 39.2781 117.289 39.3658 117.14C39.5586 116.771 39.6638 116.377 39.8129 115.991C39.9356 115.667 40.0846 115.351 40.26 115.044C40.5405 114.475 41.084 114.106 41.3558 113.528C41.3821 113.361 41.4347 113.195 41.4873 113.037C41.5925 112.712 41.7503 112.423 41.9519 112.151C42.0922 111.941 42.25 111.739 42.3902 111.529C42.5568 111.213 42.7233 110.907 42.7935 110.556C42.8022 110.126 42.6445 109.741 42.4341 109.381C42.3289 109.206 42.2237 108.995 42.0483 108.925C39.9882 108.163 40.0057 106.751 40.8385 105.077C42.8724 101.535 44.6257 97.8181 47.1417 94.5657C47.6151 94.3115 48.1235 94.2852 48.6408 94.3378C49.7278 94.3202 50.5256 95.5914 51.7354 95.0216C52.0509 94.7498 52.3578 94.4693 52.5594 94.1011C52.6383 93.9608 52.7347 93.8293 52.8312 93.6891C53.0766 93.3647 53.2783 93.0228 53.3922 92.6283C53.4448 92.4705 53.5237 92.3302 53.6026 92.1812C53.8569 91.7692 54.1198 91.3484 54.1812 90.8487C54.2864 90.4454 54.4354 90.0509 54.6546 89.6915C54.8562 89.3409 55.1455 89.0515 55.3209 88.6834C55.391 88.4554 55.4874 88.2363 55.5839 88.0171C55.7417 87.6577 56.031 87.3596 56.1186 86.9651C55.6365 85.9482 54.3741 85.7553 53.8569 84.7735C53.8744 82.5117 54.9702 81.7666 56.8988 82.7046C57.758 83.1254 58.547 83.6777 59.5288 83.8179C63.6403 85.4573 67.4362 87.7716 71.5916 89.3321C75.4138 90.7698 79.2272 92.1724 83.3212 92.6195C83.8822 92.6809 84.5923 92.6897 84.7238 93.5049V93.5225Z" fill="#F83857"/>
<path d="M37.6138 54.8004C39.5863 57.0008 41.4623 59.3064 43.8994 61.0509C44.9602 61.2087 45.7141 61.91 46.5206 62.5325C50.0623 65.2939 53.7881 67.7836 57.5577 70.2119C60.0211 71.7987 60.0825 72.2195 58.5834 74.6741C57.3824 76.6553 56.7336 79.0048 54.7875 80.5039C53.9284 80.8282 53.3235 80.2321 52.701 79.8551C46.6171 76.1381 40.726 72.1406 35.6063 67.1437C34.0634 65.6358 32.3101 64.1718 31.8893 61.8399C31.6789 58.9206 33.8442 57.0709 35.0628 54.7916C35.9131 54.7916 36.7722 54.5286 37.6226 54.8179L37.6138 54.8004Z" fill="#FCFCFC"/>
<path d="M85.1622 91.9444C84.8904 92.0934 84.6186 92.2512 84.3381 92.4002C82.0763 93.4434 79.9548 92.3476 77.9035 91.769C72.1439 90.156 66.7437 87.64 61.4399 84.8785C60.1425 84.2035 59.9233 83.3269 60.6334 82.1784C61.2558 81.1703 61.7818 80.1183 62.4568 79.1452C64.9641 74.5077 65.0605 74.4113 69.7068 76.8396C74.4056 79.2942 79.2973 81.2054 84.3819 82.6518C84.9868 82.8272 85.583 83.0288 85.995 83.546C87.31 83.9756 88.66 84.0019 90.1591 83.8178C89.4665 85.8078 87.7395 87.0789 87.196 88.99C86.3106 89.3845 85.4515 89.8492 84.4258 90.1034C84.6712 90.7258 85.8021 91.0151 85.1534 91.9268L85.1622 91.9444Z" fill="#FBFBFC"/>
<path d="M75.7398 108.996C74.1882 110.819 73.6096 113.291 71.7774 114.922C70.5939 115.457 69.4367 115.457 68.148 115.124C62.5287 113.66 57.3038 111.345 52.4208 108.207C51.3163 107.497 51.1672 106.664 51.7546 105.559C52.4384 104.271 53.166 103.008 53.9112 101.755C54.6826 100.457 55.533 100.308 56.8304 101.053C60.8017 103.333 64.9219 105.305 69.2438 106.839C70.9533 107.444 72.7329 107.672 74.4599 108.145C74.9947 108.294 75.5996 108.251 75.7223 108.978L75.7398 108.996Z" fill="#FAFBFB"/>
<path d="M18.4482 84.011C18.8953 81.4512 20.8064 79.619 21.7883 77.3309C22.2792 77.2082 22.5597 77.4975 22.814 77.8482C26.417 82.7574 31.5104 85.8696 36.4635 89.1482C37.042 89.5252 37.6031 89.9285 38.1992 90.2791C39.0671 90.7876 39.3126 91.4188 38.7954 92.348C37.9625 93.8646 37.042 95.3287 36.1917 96.8277C35.578 97.906 34.6926 98.0287 33.7371 97.3976C28.8892 94.2153 23.8133 91.3223 19.8859 86.9128C19.1408 86.0712 18.4921 85.1945 18.4395 84.011H18.4482Z" fill="#FAFBFB"/>
<path d="M86.0051 83.5552C80.7277 82.7575 75.9762 80.4957 71.1984 78.3041C69.752 77.6378 68.2879 76.9891 66.9379 76.1563C65.6667 75.3673 64.9917 75.6829 64.4131 76.9453C64.0099 77.8219 63.44 78.6109 62.9404 79.4437C62.5722 79.435 62.4407 79.1895 62.3793 78.8739C62.353 78.2252 62.5897 77.6203 62.9404 77.1206C63.9222 75.6916 63.2998 74.9377 62.0111 74.175C60.512 73.2896 59.9422 74.1224 59.2847 75.2621C58.2064 77.1118 57.172 79.0054 55.9271 80.7587C55.5765 81.1444 55.1644 81.4162 54.6121 81.3636C54.4105 81.311 54.2702 81.1795 54.1738 80.9954C54.1826 80.6447 54.4017 80.4782 54.7086 80.3817C56.0849 77.9972 57.4262 75.5864 58.8639 73.2458C59.3724 72.4217 59.2233 72.1149 58.4431 71.5714C54.7086 68.9852 50.7724 66.6972 47.222 63.8393C46.0998 62.9363 45.0128 61.9895 43.9082 61.0603C44.0923 61.034 44.2764 61.0165 44.4517 60.9902C45.0478 60.6746 45.5388 60.9902 45.9771 61.3145C46.8538 61.9457 47.8794 62.0947 48.8701 62.4016C50.5971 62.9451 51.6491 62.3928 52.6747 60.9025C53.5163 59.6927 53.4462 57.878 55.068 57.1942C55.1995 57.3696 55.331 57.5449 55.4625 57.7202C56.234 56.8436 56.1112 55.5724 56.8125 54.6695C56.9879 54.4153 57.2246 54.2487 57.5402 54.2136C57.6804 54.4065 57.8207 54.5993 57.9522 54.801C58.636 56.0809 57.7681 57.054 57.2333 58.0358C56.4356 59.5086 55.2346 60.6833 54.2089 61.9895C53.5426 62.8311 52.8238 63.7165 53.341 65.1806C54.13 64.0672 54.6209 63.0065 55.3047 62.0772C57.0142 59.7365 58.8727 59.2719 61.4237 60.6307C64.4833 62.2613 67.4464 64.0672 70.427 65.838C73.5128 67.6703 73.9424 69.6252 72.1452 72.7987C71.7683 73.4562 71.3124 74.0786 71.0757 75.2533C72.6624 74.6397 73.092 73.4474 73.4514 72.2815C74.2054 69.8619 75.2135 67.5914 77.2123 65.9345C77.9136 65.3559 78.65 64.4968 79.7458 65.2945C79.7458 65.4523 79.7633 65.6014 79.7721 65.7592C79.6143 66.9689 78.4659 67.2758 77.712 67.8631C76.7827 68.5995 77.2473 68.9765 77.7909 69.4937C77.1421 71.1155 75.6518 72.1412 74.9067 73.7279C73.8898 75.9108 73.9248 76.3579 76.0551 78.5671C77.4227 79.9872 78.7289 80.2502 80.4734 79.4525C80.5962 79.3999 80.7364 79.3823 80.8767 79.3911C81.052 79.3999 81.2186 79.4174 81.3939 79.4262C82.6914 80.8727 84.2255 81.8983 86.2155 82.1613C86.724 82.2315 87.285 82.4419 87.3639 83.1257C86.8993 83.2133 86.3733 83.1432 86.0139 83.564L86.0051 83.5552Z" fill="#1B1A24"/>
<path d="M96.7941 71.4217C99.0559 67.4417 101.212 63.4004 103.606 59.4992C114.117 42.3607 106.884 20.8651 87.9048 14.2201C76.8415 10.3453 66.5671 12.6421 57.5638 20.3303C52.8825 24.3279 50.4279 29.842 47.3508 34.9266C44.8348 39.0907 42.4591 43.3337 40.0045 47.5329C39.5924 48.243 39.2768 49.0583 37.9355 49.6456C39.6889 46.5686 41.2055 43.8597 42.7659 41.1772C45.4222 36.6186 48.1135 32.0775 50.7785 27.5189C61.1581 9.71407 84.9242 6.28635 99.7923 20.4618C109.874 30.0787 112.179 46.4108 105.131 58.4297C102.501 62.927 99.8624 67.4154 97.2324 71.9039C96.8642 71.9477 96.6451 71.8513 96.7941 71.4217Z" fill="#3E6B9F"/>
<path d="M79.7466 65.2859C76.8185 65.8733 75.7666 68.2578 74.7146 70.6072C74.3201 71.4839 74.0308 72.4219 73.7327 73.3424C73.1015 75.2535 71.9093 76.2967 69.6826 75.9373C70.4628 74.5434 71.2518 73.1933 71.9882 71.817C73.1366 69.6604 72.8298 68.0562 70.8222 66.8113C67.4646 64.7424 64.0545 62.7524 60.6004 60.8238C58.891 59.8682 57.1114 60.4819 55.9366 62.2264C55.472 62.919 55.0863 63.6554 54.6567 64.3742C54.2359 65.0755 53.7976 65.7769 53.333 66.5308C51.9479 63.7693 51.9917 63.3661 54.4902 60.6046C56.0418 58.8864 57.4708 57.1331 57.9617 54.8012C58.2159 54.0911 58.1633 53.3634 58.137 52.6271C58.0932 51.4611 58.7069 51.8731 59.2504 52.2238C60.3813 57.8519 64.1597 61.227 69.1478 63.3047C72.0671 64.5232 75.1792 65.47 78.3878 63.8658C79.317 63.4011 80.0008 63.7956 80.1235 64.9002C80.0008 65.0317 79.8693 65.1632 79.7466 65.2859Z" fill="#F8F8FA"/>
<path d="M80.8664 79.3823C79.9985 81.1356 77.5702 81.1005 75.887 79.3121C75.7906 79.2157 75.7117 79.093 75.6591 78.9702C75.0542 77.7342 72.9853 76.9101 73.3097 75.8493C73.8444 74.096 74.6597 72.22 76.115 70.8524C76.6147 70.379 77.1231 69.9319 77.6316 69.4673C77.6579 68.354 78.2891 68.2488 79.157 68.5556C81.9973 70.1511 82.4444 71.3083 81.7431 75.5863C81.5327 76.8663 81.1645 78.1199 80.8664 79.3823Z" fill="#F6F8F9"/>
<path d="M75.2023 109.181C73.9574 108.313 72.9844 108.418 71.6168 108.023C66.2429 106.489 61.2723 104.043 56.4244 101.343C55.4863 100.817 55.0656 100.896 54.5834 101.825C53.6629 103.605 51.6641 105.542 51.9622 107.033C52.2778 108.584 55.0743 109.215 56.8715 110.075C61.6142 112.354 66.3218 114.791 71.7746 114.922C71.5116 115.168 71.2398 115.422 70.9768 115.668C69.5566 116.869 68.1014 116.097 66.6987 115.685C65.8572 115.44 65.0243 115.054 64.3493 114.432H64.3318C61.132 113.344 58.0812 111.933 55.1006 110.346C53.47 109.356 51.5063 108.821 50.5508 106.936C51.2433 104.394 52.4356 102.141 54.3029 100.265C55.1883 99.2742 55.9597 100.081 56.6874 100.484C60.8778 102.79 65.1471 104.911 69.6706 106.498C75.2111 108.435 75.6406 107.427 77.8322 104.359C76.7803 106.41 76.4208 106.305 75.6406 108.304L75.2023 109.181Z" fill="#370A17"/>
<path d="M18.4478 84.0109C22.4629 89.9196 28.468 93.435 34.289 97.1783C34.8412 97.5289 35.2971 97.6254 35.6215 96.9153C35.6828 96.7926 35.7705 96.6874 35.8406 96.5646C36.8137 94.8902 38.6284 93.1544 38.5144 91.5502C38.4005 89.8495 35.7004 89.3059 34.1487 88.2364C29.5901 85.0892 25.0929 81.8894 21.7879 77.3308C22.0772 77.0503 22.3577 76.7698 22.647 76.4893C24.8825 80.6797 28.731 83.2132 32.3866 85.9221C34.3854 87.4036 36.5507 88.6572 38.6722 89.9634C39.7154 90.6122 40.1538 91.217 39.3122 92.4356C38.1725 94.0837 37.2082 95.8545 36.2439 97.6166C35.6653 98.6686 35.0516 98.7563 34.0961 98.1163C31.5626 96.4331 28.9852 94.8026 26.4341 93.1544C23.3571 91.1995 20.3063 89.2183 18.2988 86.0448C18.0007 85.5714 17.5624 85.1944 17.9131 84.572C18.0972 84.3879 18.2725 84.195 18.4566 84.0109H18.4478Z" fill="#3D0C16"/>
<path d="M55.0648 57.2033C54.872 57.7205 54.758 58.2728 54.4775 58.7374C53.4518 60.4645 53.0398 63.2259 50.8131 63.3136C48.9896 63.3837 46.6139 63.2785 45.1236 61.4375C44.957 61.2359 44.6677 61.1395 44.4398 60.9904C42.8706 59.6229 44.8343 59.0969 45.106 58.1676C45.8337 56.8351 46.57 56.8877 46.8944 58.3254C47.359 60.3943 48.7617 60.9817 50.5939 61.1219C52.0579 60.6135 52.6628 59.4388 52.4524 58.0449C52.1631 56.125 50.7254 55.3623 48.2971 55.3097C50.2082 54.1876 51.4968 52.7324 53.2589 53.3373C54.8983 53.8983 54.9947 55.6516 55.0473 57.2033H55.0648Z" fill="#F6F6F9"/>
<path d="M47.257 94.8993C45.0917 98.2043 43.1543 101.641 41.3133 105.139C39.0165 110.206 36.4391 115.115 32.9325 119.481C31.8279 121.383 30.7145 123.277 29.61 125.179C29.1804 126.117 29.2155 127.344 27.9882 127.791C27.8479 127.59 27.6989 127.379 27.5586 127.169C30.1886 121.813 33.4585 116.816 36.4303 111.661C42.0321 101.921 47.7216 92.2255 53.3673 82.5121C53.604 82.1001 53.7355 81.6267 53.9196 81.1796C54.0072 81.0043 54.1212 80.9868 54.2702 81.1183H54.279C54.5683 81.4076 54.9014 81.6618 54.8927 82.1264C53.3234 85.4665 51.4123 88.6224 49.5801 91.8222C48.9314 92.9443 48.3879 94.1541 47.2658 94.9168L47.257 94.8993Z" fill="#600510"/>
<path d="M66.7369 38.942C66.6931 38.0741 67.1928 37.6095 67.9116 37.2062C70.6731 35.6546 73.6187 35.2688 76.7132 35.6195C77.7477 35.7334 77.8091 36.0578 77.3357 36.9257C76.5993 38.2933 76.0207 39.2927 73.9956 39.1349C70.3049 38.8543 67.4996 40.9408 65.1151 43.5883C64.633 41.6859 65.7901 40.3447 66.7282 38.9332L66.7369 38.942Z" fill="#F9F9FB"/>
<path d="M82.789 72.2725C85.3839 74.0521 87.5756 76.0596 89.4341 78.4178C90.1179 79.2945 90.7753 80.2062 90.9857 81.3283C91.1348 82.1173 90.8104 82.652 90.0302 82.9413C89.3727 83.1868 88.8643 83.2043 88.4172 82.5293C86.9444 80.3114 84.9894 78.5318 83.0433 76.7434C81.5442 75.3583 83.1485 73.7628 82.7803 72.2725H82.789Z" fill="#CDBAD5"/>
<path d="M80.1213 64.9C79.6742 64.7247 79.7443 63.5061 79.0079 64.111C76.676 66.0484 74.1074 65.2507 71.6703 64.7597C66.1912 63.6639 62.2463 60.3677 59.5024 55.5636C58.8975 54.5029 58.6257 53.3808 59.2482 52.2148C59.3796 52.3814 59.5199 52.5479 59.6514 52.7145C60.7297 54.1434 60.9489 56.0546 62.2901 57.3345C66.8224 62.7347 74.3178 65.3734 78.1137 62.8925C77.7981 62.7785 77.4387 62.8048 77.1319 62.6295C76.8601 62.4629 76.6848 62.235 76.7286 61.8931C77.1933 61.2093 77.9647 61.0427 78.666 60.8323C80.8226 60.1924 82.0061 58.8072 82.1463 56.5455C82.2515 56.151 82.4269 55.8003 82.6548 55.4672C83.4087 54.687 83.7945 53.6876 84.3117 52.7583C85.2935 51.7502 85.8108 50.0758 87.6868 50.2949C87.9323 50.5842 88.1777 50.8823 88.4144 51.1716C85.2848 53.0739 83.5841 55.8266 83.4964 59.5261C83.3474 59.7628 83.2071 59.9995 83.0581 60.245C82.6811 60.8674 83.1808 61.1041 83.5841 61.3232C84.8026 61.9632 85.4776 63.0152 85.9072 64.2688C85.5478 64.8737 85.1796 65.4786 84.8201 66.0835C84.1539 65.7679 84.2152 65.0753 84.0048 64.523C83.6016 63.4886 82.8477 62.761 81.7782 62.647C80.5596 62.5155 81.1207 63.962 80.4807 64.4178C80.358 64.5756 80.2265 64.7422 80.1037 64.9H80.1213Z" fill="#292233"/>
<path d="M41.7694 54.0032C40.8927 53.8279 40.0248 53.5562 39.1394 53.4948C38.1576 53.4247 37.4913 53.0126 37.4475 52.0658C37.3949 50.8999 38.3154 50.6281 39.2709 50.5405C41.0154 50.3827 42.7162 50.7158 44.373 51.1717C46.2841 51.6976 48.1602 52.3639 50.4132 53.0915C49.0368 54.0558 47.9585 54.8098 46.8803 55.5637C44.9779 55.6952 43.2684 55.1867 41.7606 54.0208L41.7694 54.0032Z" fill="#CCBBD3"/>
<path d="M17.906 84.572C19.6067 87.877 22.6487 89.8846 25.34 92.2252C25.6994 92.5408 26.0676 92.8476 26.427 93.1545C24.0864 93.1545 22.9818 91.0067 21.1759 90.0423C19.1421 88.9465 18.318 89.341 17.7394 91.6729C16.2666 90.0862 17.2222 89.0693 18.0112 88.1575C18.3268 87.7894 18.8703 87.6052 18.5547 87.0267C18.4057 86.7549 18.055 86.4305 17.792 86.413C17.2485 86.3955 16.9417 86.8689 16.8189 87.3423C16.1614 90.0073 14.1276 92.2164 14.7939 95.3987C15.013 96.4507 13.2685 97.9673 13.3737 99.6768C13.4613 101.132 13.3824 102.596 13.3737 104.051C13.2422 104.253 13.1194 104.244 13.0142 104.034C12.3568 97.7744 13.6191 91.8833 16.4858 86.3166C16.8277 85.6591 17.117 84.9051 17.8884 84.572H17.906Z" fill="#D83C59"/>
<path d="M54.6563 81.9423C54.5335 81.6705 54.402 81.3988 54.2793 81.1183C54.6387 80.978 54.9982 80.8377 55.3576 80.6975C56.3482 80.5747 57.0057 81.241 57.7421 81.7144C58.9168 82.4771 59.8285 82.4157 60.6087 81.0657C61.0821 80.2416 61.3188 79.0669 62.6075 78.9705C62.7215 79.1283 62.8267 79.2861 62.9406 79.4439C62.3971 81.0394 60.2581 82.5209 60.9243 83.8622C61.5468 85.1158 63.7735 85.598 65.3251 86.3519C70.3747 88.7802 75.4943 91.0508 81.0523 92.1027C82.1306 92.3044 83.2527 92.3131 84.3485 92.4096C84.445 92.7953 85.4794 92.8654 84.7255 93.5404C75.5469 92.5674 67.5518 88.3419 59.4516 84.3969C57.7947 83.6956 56.3394 82.591 54.6563 81.9511V81.9423Z" fill="#3D0D18"/>
<path d="M75.1168 39.8716C77.9834 39.968 80.0786 41.5109 81.9196 43.5097C82.8664 43.8341 83.2697 44.6318 83.6642 45.4559C85.8909 50.1635 83.9535 56.2475 79.351 58.7898C75.3535 60.9902 71.4261 60.8587 67.6565 58.1936C66.9727 57.7115 66.3064 57.203 66.2188 56.265C66.2713 55.9056 66.4817 55.6601 66.8061 55.5111C67.7529 55.4059 68.3052 56.1072 68.9627 56.5894C71.9696 58.7985 75.6165 58.8599 78.8776 56.7472C81.7969 54.8624 83.1382 51.0927 82.2177 47.3757C81.4024 44.0708 78.676 41.7739 75.0905 41.3356C74.2226 41.2304 73.2583 41.4233 72.5657 40.6343C73.1092 39.3368 74.3453 40.3976 75.108 39.8803L75.1168 39.8716Z" fill="#B6AFC6"/>
<path d="M27.9883 127.791C28.5318 126.923 29.0666 126.046 29.6101 125.178C29.689 126.546 28.8825 128.264 31.1705 128.72C31.7141 128.825 31.942 129.009 32.5293 128.545C33.669 127.659 34.9927 128.326 35.0103 129.755C35.019 130.78 35.6239 130.631 36.185 130.728C42.4881 131.815 48.7474 132.192 54.8139 129.518C55.4801 129.22 56.1639 129.308 56.839 129.492C46.924 133.971 37.3159 133.296 27.997 127.773L27.9883 127.791Z" fill="#CC3D56"/>
<path d="M66.4291 56.0464C70.041 60.1842 75.5025 60.8855 79.877 57.7821C84.0148 54.8541 85.1808 49.1033 82.5683 44.571C82.3579 44.2115 82.1388 43.8609 81.9196 43.5102C82.0248 43.3787 82.1388 43.2472 82.244 43.1157C84.3304 43.5716 84.3304 45.4652 84.909 46.9642C85.4613 48.8753 85.7857 50.7689 84.6285 52.5923C84.1463 53.7057 83.6028 54.784 83.0593 55.8623C82.919 56.0814 82.7787 56.3094 82.6385 56.5285C81.0868 60.1491 75.0817 61.9375 70.5319 60.4121C69.0065 59.9036 67.6039 59.141 66.3765 58.0714C63.8781 55.6431 62.5631 52.7239 62.791 49.1997C62.8436 48.4195 62.7384 47.4815 63.8255 47.2009C63.957 47.3675 64.0885 47.5341 64.2112 47.7006C65.2281 48.4545 64.5268 49.5153 64.6057 50.4007C64.7898 52.4433 66.1486 54.0564 66.4116 56.0376L66.4291 56.0464Z" fill="#262032"/>
<path d="M64.3393 114.44C66.5134 115.053 68.6612 115.807 70.9756 115.667C71.6068 115.781 71.5103 116.123 71.2649 116.544C68.8716 120.611 66.0225 124.258 61.8496 126.678C62.735 125.056 64.6374 124.451 65.6105 122.943C66.3907 121.725 69.1872 120.515 65.8033 119.033C65.3124 118.823 65.7683 118.709 65.9436 118.56C67.8196 116.938 66.7589 116.132 65.0845 115.483C64.6286 115.308 63.8659 115.299 64.3481 114.44H64.3393Z" fill="#B93D58"/>
<path d="M63.8439 47.2091C62.5727 51.3556 64.1069 54.6869 66.842 57.6851C67.1226 58.2199 67.3417 58.7634 66.956 59.3507C66.0355 59.9118 65.3254 59.377 64.7819 58.7809C62.45 56.2649 60.7844 53.5561 61.0737 49.8127C61.2139 47.9805 61.0912 46.4289 63.0812 45.6574C63.353 45.5522 63.616 45.5522 63.8702 45.6749C63.8614 46.1834 63.8527 46.7006 63.8439 47.2091Z" fill="#F5F6F9"/>
<path d="M63.8697 45.6748C61.7745 46.5778 60.9505 48.0593 61.3274 50.3912C61.9499 54.1871 63.5191 57.3431 66.789 59.5172C67.8322 59.3681 68.6212 60.0256 69.4891 60.4026C71.2249 61.1565 73.0483 61.4458 74.9243 61.5159C75.5906 61.5422 76.327 61.2792 76.8179 61.9893C77.0108 62.1296 77.2124 62.2786 77.4053 62.4189C76.9669 63.4972 75.9851 63.3657 75.1172 63.4008C69.6293 63.6462 65.4127 61.3406 62.283 56.9048C61.0119 55.169 60.6174 53.1001 60.1352 51.075C60.5034 50.2246 61.5729 49.4532 60.3982 48.4538C60.293 47.9278 59.7144 47.4895 60.1177 46.8846C60.3982 46.3235 60.67 45.7712 60.9505 45.2102C61.4677 45.9115 61.9499 45.6573 62.4496 45.1751C62.9756 44.6579 63.5103 44.1494 63.896 43.5095L63.8522 43.5621C64.65 42.4137 65.2899 41.2039 65.5266 39.81C65.5967 39.3804 65.7107 38.9947 66.2367 38.9333C66.4033 38.9333 66.5698 38.9333 66.7364 38.9421C66.7364 40.6779 65.5704 42.0104 65.1234 43.5971C64.7026 44.2897 64.2818 44.9823 63.8697 45.6748Z" fill="#302A38"/>
<path d="M83.3128 17.2101C75.0197 16.6228 67.4541 18.604 60.625 23.3555C62.9481 18.8933 76.6853 14.6766 83.3128 17.2101Z" fill="#366FA8"/>
<path d="M54.2691 81.1087C54.1464 81.1087 54.0324 81.1349 53.9184 81.17C47.6065 77.19 41.3034 73.1925 35.912 67.9588C34.0885 66.1968 32.1424 64.4961 31.3008 61.9625C31.4936 61.9187 31.6953 61.8661 31.8881 61.8223C33.8869 65.3201 36.8412 67.9501 39.9183 70.4222C44.5646 74.148 49.3248 77.7072 54.6987 80.3547C54.5584 80.6002 54.4094 80.8544 54.2691 81.0999V81.1087Z" fill="#3D0D18"/>
<path d="M80.5004 64.4181C79.8254 63.296 80.1497 62.3054 81.0614 61.5514C81.5524 61.1482 84.4278 63.1206 84.6908 64.0762C84.8661 64.7162 84.8048 65.4175 84.8398 66.0837C84.1823 67.2234 83.5248 68.3543 82.8498 69.4851C82.7885 69.5903 82.6394 69.6342 82.429 69.7744C81.8154 67.951 81.491 66.0574 80.5004 64.4093V64.4181Z" fill="#CDBBD5"/>
<path d="M84.3656 46.8759C83.7345 45.5784 83.4452 44.0969 82.2441 43.115C82.2792 41.6949 83.4452 40.8445 84.015 39.4331C85.365 40.8007 86.3644 42.1858 86.8729 43.904C87.1096 44.8947 87.3726 45.9291 86.5222 46.7444C85.8823 47.3581 85.1459 48.0068 84.3569 46.8759H84.3656Z" fill="#F6F8F9"/>
<path d="M13.0298 104.034C13.1525 104.034 13.2752 104.042 13.3892 104.051C13.2928 105.515 14.8006 105.577 15.4406 106.401C16.2208 107.409 18.4475 107.61 17.1237 109.872C16.9484 110.179 16.6767 111.257 16.5802 111.924C16.44 112.897 16.2033 113.931 16.2646 114.957C15.0198 112.888 14.0116 110.766 14.1344 108.242C14.2045 106.76 12.609 105.647 13.0298 104.025V104.034Z" fill="#BE3350"/>
<path d="M87.3542 83.1168C86.1707 82.8275 84.9434 82.6434 83.8125 82.2138C82.5589 81.7404 81.2527 81.1618 81.3842 79.4173C81.9452 78.7949 81.6559 77.7867 82.4274 77.1555C84.1807 78.5845 85.7411 80.18 87.1438 81.9333C87.3892 82.2401 87.9854 82.5995 87.3542 83.108V83.1168Z" fill="#CCBAD2"/>
<path d="M84.3623 46.8759C86.852 47.2792 86.6328 45.3944 86.8783 43.9041C87.8338 45.9554 88.1582 48.0857 87.6935 50.3124C86.3698 50.8997 85.5983 52.0657 84.7305 53.1352C84.3535 53.2229 84.1431 53.1528 84.3097 52.7057C84.8269 50.7683 84.7655 48.8221 84.3623 46.8759Z" fill="#CBBDD4"/>
<path d="M44.7162 57.7464C43.594 59.114 42.3843 58.2549 41.4813 57.6237C40.2803 56.7733 39.1845 55.695 38.3867 54.0645C39.6579 54.2486 40.7098 54.4063 41.7618 54.5641C42.7086 54.231 43.5239 54.7833 44.3567 55.0288C45.0142 55.2216 46.0399 55.1164 46.11 56.1509C46.1714 57.0538 45.4262 57.4308 44.7162 57.7552V57.7464Z" fill="#CBBBD4"/>
<path d="M79.2891 40.3452C78.3686 40.1611 77.0186 39.9507 76.9748 39.1354C76.9222 38.285 77.8689 37.3646 78.3862 36.4879C78.5352 36.2337 78.7719 36.1197 79.0787 36.2337C80.6304 36.821 82.0769 37.5925 83.2867 38.7321C83.7075 39.1354 83.2341 39.4598 83.0149 39.7754C81.9016 40.7923 80.569 40.3802 79.2979 40.3452H79.2891Z" fill="#F7F5F6"/>
<path d="M57.6347 47.6997C58.1257 47.9364 58.6692 48.1205 59.1075 48.4361C59.5897 48.7868 60.6592 48.7955 60.2472 49.7774C59.9403 50.505 59.5722 51.3028 58.4939 51.3028C56.4688 51.3028 54.5139 51.7674 52.3047 52.4512C52.594 51.4781 52.8833 50.7943 53.4443 50.2157C55.2678 50.093 56.3724 48.7692 57.6347 47.7085V47.6997Z" fill="#C8BCD1"/>
<path d="M66.4278 56.0455C64.2712 53.6434 63.8241 50.7856 64.2274 47.7085C65.8404 42.1943 69.6889 39.4241 75.1154 39.8712C74.3966 40.4936 73.3358 39.8712 72.6433 40.5638C72.2575 41.3352 71.4423 41.4404 70.7585 41.7473C66.0684 43.8951 64.2362 48.5589 66.1911 53.3191C66.4979 54.0555 67.1729 54.713 66.8135 55.6335C66.6908 55.7649 66.5593 55.9052 66.4366 56.0367L66.4278 56.0455Z" fill="#E6E8EF"/>
<path d="M44.7151 57.7465C45.1271 57.2117 45.5391 56.6857 46.0739 55.9932C44.5661 55.4935 43.1634 55.0289 41.7695 54.5642C41.7695 54.3801 41.7695 54.1873 41.7695 54.0032C43.5754 54.2048 45.2498 54.8185 46.8892 55.5461C45.8109 56.8611 48.362 55.6513 47.6869 56.6945C47.9324 56.8874 48.0639 57.1504 48.134 57.4397C47.7132 59.2017 49.4666 59.605 50.1591 60.6745C50.3081 60.8235 50.4659 60.9726 50.615 61.1216C47.985 62.007 46.521 60.7709 46.2668 57.3345C45.846 57.6413 45.4865 57.9043 45.1183 58.1673C44.9869 58.027 44.8466 57.8868 44.7151 57.7465Z" fill="#403B4A"/>
<path d="M79.1578 68.5558C78.5968 68.775 78.0182 68.9591 77.6324 69.4675C77.0889 68.9678 76.6331 69.3974 75.9668 69.7305C76.8084 67.8106 78.0182 66.5307 79.7715 65.7593C81.2355 66.0836 80.7446 67.5126 81.5511 68.5646H79.1578V68.5558Z" fill="#EFEFF1"/>
<path d="M60.144 51.084C61.2748 51.0928 60.7576 52.0658 60.9943 52.5831C61.5817 53.863 62.1077 55.1692 62.6599 56.4579C62.7301 57.0978 62.7827 57.7203 61.8534 57.7203C60.6349 56.265 59.5128 54.7747 59.6618 52.7233C59.8284 52.1798 59.9862 51.6363 60.1527 51.084H60.144Z" fill="#F3F4F8"/>
<path d="M57.6377 47.7003C57.0766 49.8481 55.3233 50.9001 53.4473 50.2075C54.3064 48.4717 55.1918 46.7886 57.6377 47.7003Z" fill="#F2EFF4"/>
<path d="M50.1499 60.6739C47.9407 60.6125 47.441 59.2362 47.6076 57.3426C48.5982 56.1504 49.7028 55.8698 50.9739 56.9306C52.473 58.5612 51.5613 59.6658 50.1586 60.6651L50.1499 60.6739Z" fill="#302F38"/>
<path d="M57.5411 54.2227C57.4184 54.4156 57.2956 54.6172 57.1729 54.8101C56.6907 55.1169 56.4716 56.4582 55.5774 55.2309C55.104 54.4156 54.6218 53.6003 54.1484 52.785C57.2693 51.5665 57.5235 51.6716 57.5323 54.2227H57.5411Z" fill="#EBEAEC"/>
<path d="M96.7971 71.4221C96.9461 71.5799 97.0864 71.7465 97.2354 71.9043C95.6574 74.6745 94.0794 77.4535 92.5102 80.2237C92.3174 80.1185 92.1245 80.0046 91.9316 79.8994C93.4307 77.0064 94.9298 74.1222 96.8058 71.4221H96.7971Z" fill="#3F6498"/>
<path d="M83.5069 59.544C83.0949 59.43 82.9634 59.1144 83.0335 58.7462C83.6647 55.6429 85.2076 53.0743 87.6623 51.0843C87.7938 50.9703 88.162 51.1456 88.425 51.1895C88.2935 51.5752 88.2672 52.1801 88.0129 52.3028C85.2252 53.6266 83.9189 55.7481 84.2258 58.8514C84.2433 59.0618 83.7612 59.316 83.5157 59.544H83.5069Z" fill="#BBB4C7"/>
<path d="M85.1632 91.9442C84.9352 90.6642 83.5501 90.8396 82.5332 89.6999C84.3917 90.0418 85.5051 88.4025 87.197 89.0074C86.8288 90.2084 86.0749 91.1289 85.1632 91.9529V91.9442Z" fill="#C3C6CD"/>
<path d="M17.8555 117.885C20.2487 120.279 22.4667 122.83 24.6145 125.442C21.7566 123.47 19.5299 120.918 17.8555 117.885Z" fill="#BE3350"/>
<path d="M85.9264 64.2773C84.9007 63.2253 84.0416 62.0418 82.6652 61.3054C81.1223 60.4813 82.6389 60.4989 83.0772 60.2534C84.6552 61.1476 86.2069 62.0593 85.9264 64.2773Z" fill="#CBCAD6"/>
<path d="M61.5371 44.6927C62.0456 42.4485 62.7206 40.8618 64.6317 39.5117C64.1758 41.7209 63.2729 43.1761 61.5371 44.6927Z" fill="#CAC8D7"/>
<path d="M79.2871 40.3448C80.3917 39.2928 81.7856 40.0643 83.0041 39.775C82.1625 41.4757 80.9235 41.6657 79.2871 40.3448Z" fill="#C5BCCC"/>
<path d="M84.8906 57.7814C85.0747 55.8528 85.9251 54.3187 87.6258 52.916C87.4504 55.1953 86.1881 56.5015 84.8906 57.7814Z" fill="#BBB8C9"/>
<path d="M60.1284 46.8842C60.5667 47.3489 60.593 47.8836 60.4089 48.4535C58.9624 47.5242 57.551 46.516 55.3594 46.9894C57.2354 45.0871 58.6731 46.2355 60.1284 46.8842Z" fill="#CAC9D6"/>
<path d="M66.2361 38.9334C65.526 40.5202 65.3068 42.3611 63.8516 43.5621C63.9918 41.9929 65.824 40.7919 64.8246 38.9334C64.6318 38.574 65.1841 38.2233 65.5873 38.1444C66.1922 38.0305 66.2185 38.4951 66.2273 38.9246L66.2361 38.9334Z" fill="#BAB8C5"/>
<path d="M37.6165 54.8009C36.7574 55.6162 35.907 55.3532 35.0566 54.7746C35.7755 54.082 35.7141 52.8898 36.6522 52.2673C36.9765 53.1265 37.2921 53.9593 37.6077 54.7921L37.6165 54.8009Z" fill="#C3C4CC"/>
<path d="M63.9059 43.5186C63.4413 44.9738 62.4068 45.9118 61.162 46.6745C60.7324 46.1748 60.9428 45.6927 60.9691 45.2193C62.4419 45.5086 62.9065 44.0358 63.9147 43.5186H63.9059Z" fill="#CAC7D5"/>
<path d="M55.5866 55.2213C56.2967 55.7649 56.586 54.6954 57.1821 54.8006C57.1383 56.0103 56.4808 56.9571 55.7883 57.8688C55.762 57.8951 55.6568 57.8951 55.6129 57.8688C55.5603 57.8425 55.5165 57.7724 55.4727 57.7198C55.5077 56.887 55.5516 56.0454 55.5866 55.2126V55.2213Z" fill="#BEB9C8"/>
<path d="M50.9738 56.9392C49.764 56.3518 48.6506 56.5622 47.6074 57.3512C47.6337 57.132 47.6513 56.9129 47.6776 56.6937C48.826 56.08 49.9919 55.2911 50.965 56.9392H50.9738Z" fill="#D4D4D9"/>
<path d="M32.9297 119.481C35.5421 114.598 38.286 109.794 41.3105 105.139C40.6442 106.699 40.5916 108.005 42.6255 108.558C42.8271 108.61 42.906 109.127 43.0375 109.426C42.6781 109.724 42.3011 109.592 41.9329 109.496C42.345 109.943 42.9761 110.188 43.3969 110.679C43.2128 111.161 43.055 111.67 42.5904 111.977C41.8891 111.889 41.3193 111.573 40.8546 111.056C41.2141 111.6 42.0381 111.722 42.1696 112.476C42.0031 112.748 41.8453 113.011 41.6787 113.283C40.8634 113.782 40.2848 113.072 40.0218 112.958C40.2848 113.029 40.8196 113.923 41.6612 113.274C41.8073 113.712 41.4478 114.384 40.5829 115.29C39.9605 115.369 39.4695 114.992 38.8822 114.791C39.3293 115.22 39.9429 115.422 40.0656 116.079C40.0832 116.561 40.1708 117.07 39.6273 117.368C38.9348 117.105 38.3123 116.693 37.4006 116.228C38.3036 116.728 38.926 117.149 39.6449 117.359C39.6887 118.218 39.1013 118.648 38.4877 119.069C37.9529 118.893 37.4971 118.569 37.0061 118.324C37.4445 118.63 37.9529 118.876 37.9967 119.507C37.4532 120.094 36.8922 119.665 36.5766 119.34C35.2704 118.017 34.1044 118.367 32.9385 119.481H32.9297Z" fill="#C24864"/>
<path d="M54.6519 81.9421C56.5718 82.135 57.9218 83.4237 59.4472 84.388C58.3689 84.388 57.5536 83.7393 56.6682 83.2571C55.0727 82.3892 54.3977 82.8363 54.275 84.8614C54.4503 86.3692 56.3 86.2114 56.7997 87.3949C56.5192 87.6579 56.2474 87.9209 55.9669 88.1839C55.3182 88.5784 54.8009 88.1488 54.2224 87.8771C54.7746 88.2979 55.4409 88.4907 55.888 88.9992C55.6075 89.3148 55.3269 89.6216 55.0464 89.9372C54.5029 90.2616 54.0207 90.0249 53.4597 89.7443C54.0032 90.1125 54.3889 90.507 54.6519 91.0155C54.7396 91.6467 54.4678 92.0762 53.9243 92.3655C53.3106 92.1376 52.8548 91.6204 51.9781 91.3574C52.846 91.7168 53.3545 92.1464 53.7928 92.6724C53.8805 93.3123 53.6262 93.7594 53.0301 94.0049C52.4252 93.6717 51.7853 93.4088 50.8385 92.9091C51.7765 93.4263 52.4164 93.6805 53.0213 94.0224C53.0301 94.6624 52.7145 95.0656 52.1272 95.2936C50.9524 95.8897 50.1108 94.0925 48.9098 94.8465C48.3575 94.864 47.8052 94.8815 47.2617 94.8991C49.7251 90.5772 52.1973 86.2553 54.6607 81.9333L54.6519 81.9421Z" fill="#C14965"/>
<path d="M54.2972 100.272C53.2628 102.622 51.9478 104.805 50.5452 106.944C50.2383 105.427 51.1413 103.998 50.7994 102.429C50.6767 101.85 51.4744 101.333 52.1845 101.114C52.9034 100.886 53.5872 100.553 54.2885 100.272H54.2972Z" fill="#C83A58"/>
<path d="M55.0938 110.364C58.276 111.495 61.2742 113.02 64.3249 114.449C60.8972 113.879 57.8815 112.38 55.0938 110.364Z" fill="#B93D58"/>
<path d="M40.0658 116.078C39.3907 115.737 38.6982 115.43 38.0582 115.035C37.6813 114.799 37.0852 114.492 37.3481 113.939C37.6287 113.352 38.1547 113.659 38.5842 113.896C39.3031 114.29 40.1096 114.553 40.583 115.298C40.4077 115.561 40.2411 115.824 40.0658 116.087V116.078Z" fill="#5D0817"/>
<path d="M56.8008 87.3946C55.6875 87.3946 54.9248 86.6056 54.0657 86.0884C53.2942 85.6238 53.7588 85.203 54.2673 84.8611C55.2316 85.5887 56.9849 85.5186 56.7921 87.3946H56.8008Z" fill="#530715"/>
<path d="M53.7886 92.6719C52.6665 92.6456 51.9301 91.8216 51.0359 91.3219C50.7992 91.1904 50.6063 90.9449 50.8167 90.6381C50.9833 90.3926 51.2638 90.1997 51.5181 90.3751C52.386 90.9449 53.7448 90.9537 53.9289 92.3563C53.8675 92.4527 53.8149 92.5492 53.7886 92.6631V92.6719Z" fill="#58071A"/>
<path d="M48.9044 94.8461C48.4485 93.9344 48.6501 93.4873 49.6758 93.9256C50.5349 94.2851 51.3064 94.8286 52.1217 95.2932C50.7804 97.1166 49.9914 94.9162 48.9044 94.8461Z" fill="#500613"/>
<path d="M42.1807 112.476C42.1106 112.458 42.0404 112.45 41.9791 112.415C41.0498 111.871 39.9277 111.599 39.3316 110.591C39.279 110.503 39.5244 110.091 39.5683 110.109C40.7868 110.381 41.8914 110.872 42.6015 111.967C42.4612 112.134 42.321 112.301 42.1807 112.467V112.476Z" fill="#4F0414"/>
<path d="M43.41 110.679C43.1996 110.679 42.9541 110.74 42.7963 110.644C41.8934 110.109 40.0962 109.645 40.4995 108.786C40.9816 107.769 42.1125 109.276 43.0418 109.425C43.4801 109.75 43.5415 110.179 43.41 110.67V110.679Z" fill="#580416"/>
<path d="M55.8931 88.9985C54.5343 89.1125 53.5261 88.3673 52.8073 87.4118C52.3689 86.8332 53.2105 86.614 54.394 87.2803C54.9288 87.5783 55.446 87.8852 55.972 88.192C55.9457 88.4638 55.9194 88.7355 55.8931 89.0073V88.9985Z" fill="#590717"/>
<path d="M37.9969 119.507C37.2254 119.051 36.454 118.604 35.6825 118.139C35.3669 117.947 35.1127 117.675 35.3231 117.307C35.5247 116.965 35.928 116.912 36.2173 117.158C36.9712 117.798 38.2424 117.833 38.4966 119.069C38.33 119.218 38.1635 119.358 38.0057 119.507H37.9969Z" fill="#540312"/>
<path d="M54.6545 91.0066C53.6288 90.4455 51.5774 89.7354 52.0421 89.0428C52.8749 87.8068 53.9093 89.8406 55.049 89.937C54.9175 90.2965 54.786 90.6559 54.6545 91.0066Z" fill="#4F0614"/>
<path d="M53.1666 76.9626C53.1403 77.6902 52.7984 77.734 52.2549 77.4097C51.8429 77.1642 51.6675 76.91 51.9656 76.4278C52.8773 74.9375 53.754 73.4297 54.6394 71.9218C54.9111 71.4572 55.6125 71.466 55.5774 71.6939C55.4021 72.9738 58.032 73.7365 56.1823 75.2882C55.7001 75.6914 55.4722 76.384 55.1215 76.945C54.467 76.3664 54.3589 75.6242 54.7972 74.7183C54.3939 75.0515 54.2537 75.5073 54.1046 75.9281C53.9293 76.4103 53.5348 76.6733 53.1578 76.9626H53.1666Z" fill="#64666E"/>
<path d="M53.1733 72.141C53.0856 73.0001 52.7086 73.6488 51.7969 73.6401C50.5871 73.6225 49.6403 73.079 49.5614 71.7377C49.5088 70.8348 50.1926 70.2912 50.9992 70.3438C52.0687 70.4052 52.9629 70.9312 53.1733 72.141Z" fill="#26272F"/>
<path d="M53.1641 76.9623C53.8303 75.884 54.4966 74.7969 55.3031 73.4819C55.7151 74.8583 53.4884 75.8138 55.119 76.9447C54.4703 77.6723 53.8128 77.2252 53.1641 76.9623Z" fill="#ADAEB8"/>
<path d="M51.0171 75.5947C50.1843 75.0774 49.3164 74.5427 48.466 73.9729C48.3871 73.9203 48.4397 73.6134 48.4923 73.4469C48.5887 73.1576 48.8254 73.2891 49.0008 73.3417C49.8511 73.5871 50.4297 74.6829 51.5781 74.1219C51.8411 73.9904 51.9288 74.4638 51.8411 74.7005C51.7096 75.0687 51.5431 75.4456 51.0258 75.5947H51.0171Z" fill="#28242C"/>
<path d="M66.2874 84.7828C64.6656 84.7565 63.2892 83.2925 63.3331 81.6356C63.3769 79.9787 64.8409 78.6112 66.489 78.6988C68.0582 78.7777 69.3381 80.1541 69.3294 81.7233C69.3206 83.424 67.9443 84.8091 66.2874 84.7828Z" fill="#3E141C"/>
<path d="M54.6216 106.567C54.4638 107.032 54.1921 107.426 53.6223 107.391C52.9735 107.347 52.6141 106.97 52.7193 106.304C52.807 105.734 53.2278 105.498 53.7625 105.55C54.3236 105.611 54.5603 106.006 54.6216 106.567Z" fill="#2C212E"/>
<path d="M56.7452 102.833C56.605 103.332 56.342 103.709 55.7721 103.701C55.2198 103.683 54.8429 103.35 54.8341 102.824C54.8253 102.184 55.2549 101.825 55.8861 101.868C56.4472 101.903 56.6839 102.315 56.7452 102.841V102.833Z" fill="#201F27"/>
<path d="M36.4391 92.6021C35.9306 92.4794 35.5361 92.1989 35.5273 91.6466C35.5273 91.1118 35.8692 90.7173 36.404 90.7086C37.0352 90.691 37.4472 91.0943 37.4122 91.7343C37.3859 92.269 36.9738 92.5495 36.4303 92.6021H36.4391Z" fill="#282834"/>
<path d="M35.2993 95.2673C35.1941 95.9161 34.8697 96.2667 34.3174 96.2317C33.7914 96.1966 33.3882 95.8985 33.4495 95.2936C33.5021 94.7501 33.8265 94.417 34.4051 94.417C35.0187 94.417 35.1765 94.8728 35.308 95.2586L35.2993 95.2673Z" fill="#1A1C22"/>
<path d="M71.0925 71.694C70.8558 72.9827 69.7249 74.4204 68.7431 75.9019C68.445 76.3578 67.9891 75.8581 67.656 75.6915C63.1412 73.3947 58.8018 70.7823 54.5325 68.0646C54.1994 67.8542 53.7873 67.6964 53.8224 67.1441C54.0065 63.8216 57.7147 61.744 60.5463 63.3921C63.4218 65.0665 66.2884 66.7496 69.1726 68.4065C70.2597 69.0289 71.1013 69.7741 71.0837 71.694H71.0925Z" fill="#F8F9FA"/>
<path d="M62.6063 78.9706C62.3697 79.3037 62.1067 79.6281 61.8963 79.9787C59.5118 83.9587 59.0208 84.0201 55.3477 80.6976C56.7503 78.3131 58.1792 75.9549 59.5381 73.5441C60.0202 72.685 60.4673 72.4395 61.2738 73.1145C62.2908 73.9737 64.3421 74.0263 64.421 75.35C64.4912 76.516 63.2638 77.7608 62.6063 78.9706Z" fill="#F6F5F8"/>
<path d="M71.8023 69.4851C67.2524 66.4519 62.7464 63.3397 57.5566 61.5163C58.4947 60.6747 59.6343 60.9552 60.774 61.6303C63.8247 63.4186 66.8667 65.1982 69.8999 67.0129C70.8905 67.609 71.9776 68.1876 71.8023 69.4938V69.4851Z" fill="#C5C0D3"/>
<path d="M48.4766 63.7173C49.7915 63.8313 51.0539 63.8839 51.9744 65.3303C50.1773 65.7774 49.3707 64.5413 48.4766 63.7173Z" fill="#ACA9B8"/>
<path d="M74.6801 79.0837C73.3388 78.3999 71.9976 78.2246 71.4277 76.822C72.9969 76.6905 73.3213 76.9096 74.6801 79.0837Z" fill="#BAB3C7"/>
<path d="M81.508 73.8509C81.3765 74.7889 81.2274 75.5692 80.3859 75.2623C79.2111 74.8328 77.4929 75.5253 76.9581 73.8159C76.8354 73.4126 77.037 72.422 77.9926 72.6937C79.2024 73.0356 80.719 72.6937 81.4992 73.8597L81.508 73.8509Z" fill="#2A2A33"/>
<path d="M79.3689 77.9093C78.6238 77.2343 76.5461 78.523 76.4234 76.3314C76.3708 75.4547 76.9231 75.0602 77.7734 75.5073C78.7991 76.0421 80.5787 75.1479 80.8329 77.0064C80.9118 77.5587 80.6313 78.4967 79.3689 77.9181V77.9093Z" fill="#2B2736"/>
<path d="M76.8277 61.9897C73.1896 62.3578 69.7532 61.9195 66.7988 59.5175C66.8164 58.9038 66.8339 58.2989 66.8427 57.6853C72.4445 61.639 76.7664 61.3585 82.0789 56.7122C82.2192 56.5895 82.4559 56.5895 82.6487 56.5369C82.2016 60.3152 81.7458 60.7448 76.8277 61.9984V61.9897Z" fill="#CCBED6"/>
<path d="M61.8428 57.7116C62.1145 57.2908 62.3863 56.87 62.6493 56.4492C65.9192 60.8763 70.2148 63.1907 75.8166 62.7874C76.3601 62.7524 76.93 62.7874 77.4034 62.4192C78.131 62.2965 78.8586 62.165 79.7528 62.016C78.7008 63.778 77.3946 64.5583 75.4309 64.4881C69.8466 64.2865 65.2442 62.2264 61.834 57.7204L61.8428 57.7116Z" fill="#CABED3"/>
<path d="M84.3161 52.7058C84.4564 52.8461 84.5966 52.9951 84.7369 53.1354C84.2898 54.1085 83.834 55.0815 83.0625 55.8705C83.1063 54.6695 83.8778 53.7578 84.3073 52.7058H84.3161Z" fill="#968EA2"/>
<path d="M66.8033 55.6515C61.9729 48.8925 66.4526 41.3971 72.633 40.573C78.4803 40.5643 82.2236 43.203 83.0652 47.9457C83.7928 52.0572 82.057 55.8268 78.5066 57.7905C74.9737 59.7454 70.8446 59.2457 67.7325 56.4843C67.4257 56.2125 67.1189 55.932 66.8033 55.6515Z" fill="#0D1226"/>
<path d="M50.6414 58.4745C50.6414 59.2284 50.1504 59.6667 49.5193 59.693C48.739 59.7281 48.2218 59.1583 48.2306 58.3956C48.2306 57.6154 48.7566 57.1683 49.5806 57.2384C50.317 57.2998 50.6589 57.7469 50.6501 58.4745H50.6414Z" fill="#E9E8EE"/>
<path d="M39.6492 117.359C38.1589 118.139 37.4663 116.692 36.4494 116.184C36.1601 116.035 36.1864 115.675 36.4494 115.5C36.6423 115.377 37.0368 115.281 37.177 115.395C38.0099 116.035 39.3248 116.087 39.6492 117.367H39.658L39.6492 117.359Z" fill="#540B18"/>
<path d="M41.6639 113.274C40.9362 113.993 38.5255 113.484 38.2537 112.546C38.2099 112.388 38.2975 112.143 38.4115 112.003C38.6131 111.748 38.9024 111.818 39.1479 111.95C39.9895 112.388 40.8311 112.835 41.6726 113.282H41.6551L41.6639 113.274Z" fill="#4E0715"/>
<path d="M53.0154 94.0219C51.6653 94.6443 50.9202 93.4608 49.9558 92.9699C49.6928 92.8384 49.6753 92.5053 49.8243 92.2598C49.9909 91.988 50.289 91.9617 50.5257 92.1195C51.3936 92.6981 52.6559 92.7595 53.0241 94.0043L53.0154 94.0219Z" fill="#5A0717"/>
<path d="M52.2831 72.1939C52.2656 72.5095 52.1867 72.7637 51.8273 72.7549C51.1523 72.7462 50.635 72.4306 50.4071 71.7994C50.3194 71.5539 50.5561 71.2646 50.8717 71.2559C51.5467 71.2559 52.0114 71.5978 52.2831 72.1851V72.1939Z" fill="#DBE1E5"/>
<path d="M66.3482 79.5752C67.5755 79.7768 68.3995 80.3992 68.4171 81.7318C68.4346 83.0643 67.6281 83.862 66.3832 83.8445C65.1647 83.827 64.3056 83.0555 64.2705 81.7405C64.2354 80.3817 65.1647 79.8382 66.3482 79.5752Z" fill="#D9435F"/>
<path d="M57.689 64.4963C57.952 64.6454 58.25 64.8207 58.5481 64.9873C60.5206 66.1269 62.493 67.2929 64.483 68.4062C65.2019 68.8095 65.7279 69.1075 65.1493 70.1157C64.6233 71.0449 64.1411 71.0099 63.3609 70.5365C61.3534 69.3179 59.3108 68.1432 57.2945 66.9422C56.8561 66.6792 56.1461 66.5126 56.6195 65.7412C56.9 65.2941 57.0052 64.6892 57.689 64.4963Z" fill="#282039"/>
<path d="M68.0505 71.1675C68.5239 71.1675 68.7694 71.4568 68.8308 71.8951C68.8834 72.2984 68.559 72.5526 68.2434 72.5877C67.7963 72.6315 67.4719 72.351 67.4281 71.8776C67.393 71.4568 67.7612 71.3516 68.0505 71.1762V71.1675Z" fill="#555756"/>
<path d="M60.7067 78.1372C59.9352 77.9706 59.418 77.4709 59.4443 76.7345C59.4706 75.9894 59.9615 75.4897 60.8294 75.5773C61.5658 75.6475 61.9603 76.0858 61.9691 76.7871C61.9691 77.5937 61.4782 78.0232 60.7067 78.1372Z" fill="#3D2B2D"/>
<path d="M58.5223 78.9792C59.4954 79.0231 59.9688 79.5052 59.9775 80.2942C59.9775 80.9868 59.5129 81.4777 58.8028 81.504C57.9788 81.5303 57.4966 81.0569 57.5141 80.2241C57.5317 79.514 57.9612 79.102 58.5311 78.988L58.5223 78.9792Z" fill="#341E2A"/>
<path d="M80.5073 74.2185C79.4904 74.4815 78.5699 74.2711 77.2637 73.6487C78.7627 73.2893 79.6482 73.7101 80.5073 74.2185Z" fill="#C1BFCB"/>
<path d="M80.4799 77.0239C78.972 77.4359 78.0778 76.9625 77.2012 76.4015C78.2269 76.1648 79.1561 76.4015 80.4799 77.0239Z" fill="#BCB1C6"/>
<path d="M66.0598 46.9103C66.5682 45.9635 67.2345 45.3849 68.4005 45.1394C71.1005 44.5784 73.7831 43.8683 76.4218 43.0442C77.956 42.5621 79.1044 42.8601 80.1213 43.991C80.2265 45.2621 79.1745 45.4638 78.368 45.6566C74.8176 46.4982 71.3285 47.5853 67.7605 48.3567C66.6033 48.6022 65.4023 48.8126 66.0598 46.9015V46.9103Z" fill="#1C7ACE"/>
<path d="M66.0599 46.911C66.0862 47.4282 65.8846 48.2347 66.8051 47.9717C71.1796 46.7444 75.6768 45.9817 79.9373 44.3512C80.0338 44.3161 80.0688 44.1232 80.1302 44.0005C80.7263 44.3687 80.5773 45.1226 80.9806 45.5872C79.4377 46.9373 77.4214 46.911 75.5892 47.3844C72.2754 48.2435 69.0405 49.4357 65.6216 49.8653C66.0687 48.9273 65.043 47.7613 66.0599 46.911Z" fill="#032050"/>
<path d="M65.6211 49.8743C70.0131 48.1473 74.6682 47.367 79.1742 46.052C79.7703 45.8767 80.3839 45.7452 80.9801 45.5962C81.7691 46.4027 80.9362 46.4465 80.4891 46.5693C75.7289 47.9018 70.9599 49.2168 66.1909 50.5142C65.7 50.6457 65.6825 50.1986 65.6211 49.8655V49.8743Z" fill="#386DAA"/>
<path d="M62.2474 67.8193C62.8172 68.1699 63.6588 68.6433 64.4478 69.1956C64.6932 69.3622 64.5617 69.7917 64.29 69.8706C63.352 70.1424 62.826 69.2833 62.0984 68.9589C61.7652 68.8099 61.248 68.6784 61.3006 68.1436C61.3357 67.828 61.6074 67.7228 62.2474 67.828V67.8193Z" fill="#A74F66"/>
<path d="M60.7044 67.0205C60.6255 67.4589 60.4151 67.7394 60.1521 67.6605C59.0913 67.3449 58.0832 66.8978 57.4345 65.951C57.303 65.7582 57.6974 65.3549 57.9078 65.4601C58.8809 65.9423 59.8014 66.5121 60.7044 67.0205Z" fill="#3C709F"/>
<rect x="67.0703" width="62.5669" height="130.267" rx="31.2835" transform="rotate(30.4842 67.0703 0)" stroke="black" stroke-width="2.52055"/>
</svg>
