<svg width="139" height="154" viewBox="0 0 139 154" fill="none" xmlns="http://www.w3.org/2000/svg">
<g clip-path="url(#clip0_360_91514)">
<path d="M134.621 126.828L124.644 129.458L46.5305 150.058L37.5965 152.414C37.0206 152.565 36.4204 152.601 35.8305 152.52C35.2406 152.44 34.6724 152.243 34.1586 151.942C33.6448 151.641 33.1955 151.242 32.8365 150.767C32.4774 150.293 32.2156 149.752 32.0661 149.176C26.9606 129.506 6.24447 49.7144 1.14651 30.1176C0.848735 28.9605 1.02133 27.7326 1.62658 26.7022C2.23184 25.6719 3.22055 24.9228 4.37673 24.6186L89.6269 2.13785C92.3695 1.41453 95.2846 1.75746 97.7841 3.09747L104.994 6.96609C106.363 7.69982 107.564 8.71007 108.521 9.93266C109.478 11.1553 110.171 12.5635 110.554 14.0678C115.381 33.0693 133.229 103.134 137.854 121.334C138.15 122.491 137.976 123.718 137.371 124.747C136.765 125.776 135.777 126.525 134.621 126.828Z" fill="#E86221"/>
<path d="M85.7951 42.7911L49.7725 53.1133L30.6375 58.5972C30.1351 58.7408 29.6092 58.7834 29.0902 58.7226C28.5712 58.6618 28.0694 58.4988 27.6138 58.243C27.1582 57.9872 26.7579 57.6437 26.4359 57.2324C26.114 56.821 25.8768 56.35 25.7382 55.8465C23.5461 47.8882 18.5462 29.7207 16.3718 21.8126C16.0955 20.808 16.2276 19.735 16.7394 18.8274C17.2513 17.9197 18.1013 17.251 19.1043 16.9668L38.2895 11.5256L74.8551 1.15315C75.3624 1.00919 75.8933 0.968139 76.4167 1.03242C76.9401 1.09671 77.4453 1.26503 77.9026 1.52746C78.3599 1.78989 78.76 2.14113 79.0793 2.56048C79.3987 2.97984 79.6308 3.45882 79.762 3.96921C81.8258 11.9853 86.509 30.1628 88.5326 38.0106C88.7886 39.0068 88.6458 40.0634 88.1347 40.956C87.6235 41.8487 86.7842 42.507 85.7951 42.7911Z" fill="#FCBB41"/>
<path d="M85.7941 42.7909L49.7715 53.1131C49.7715 53.1131 46.7726 52.6107 45.0154 46.554C43.9094 42.7457 38.2735 25.4323 36.6898 18.8808C35.3449 13.324 38.2885 11.5253 38.2885 11.5253L74.8541 1.15291C75.3614 1.00894 75.8924 0.967895 76.4157 1.03218C76.9391 1.09646 77.4444 1.26478 77.9016 1.52721C78.3589 1.78965 78.759 2.14089 79.0784 2.56024C79.3977 2.97959 79.6298 3.45857 79.761 3.96897C81.8249 11.9851 86.5081 30.1626 88.5317 38.0104C88.7876 39.0065 88.6449 40.0632 88.1337 40.9558C87.6225 41.8484 86.7832 42.5068 85.7941 42.7909Z" fill="#474A6B"/>
<path d="M61.7976 11.5228C61.4356 12.6407 66.5261 38.4399 69.4999 40.1607C71.0484 41.0575 78.5872 39.0303 78.5093 36.6639C78.4314 34.2975 73.2303 9.34733 71.3299 8.50829C69.4295 7.66925 62.416 9.60608 61.7976 11.5228Z" fill="#FCBB41"/>
<path d="M124.645 129.458L46.5319 150.057C43.7391 139.23 35.3531 106.613 33.6236 98.4035C31.5422 88.5159 38.0705 82.409 45.0865 80.6178C52.1025 78.8267 89.216 68.3086 95.8851 67.4143C102.554 66.52 108.268 69.3636 111.219 79.412C113.713 87.9632 122.169 120.078 124.645 129.458Z" fill="#F0DCC3"/>
<path d="M138.828 121.083L130.085 86.7326L111.528 13.8165C111.108 12.1781 110.353 10.6446 109.31 9.31279C108.266 7.98102 106.958 6.87998 105.467 6.07923L98.2578 2.21061C95.536 0.747445 92.359 0.373833 89.3716 1.16557L80.6538 3.46414C80.2665 2.23653 79.4152 1.2084 78.2809 0.598487C77.1466 -0.011423 75.819 -0.15496 74.5805 0.198417L18.8372 16.0246C17.8162 16.318 16.9161 16.9304 16.2688 17.7722C15.6214 18.6139 15.2609 19.6407 15.2399 20.7021L5.74787 23.2142L4.12145 23.6338C2.70654 24.0063 1.49701 24.9239 0.757762 26.1858C0.0185118 27.4477 -0.190208 28.9508 0.177312 30.3662L2.81176 40.5176C10.2802 69.2861 26.6299 132.257 31.0844 149.424C31.3927 150.611 32.0871 151.661 33.0582 152.41C34.0293 153.159 35.2221 153.564 36.4488 153.562C36.9222 153.563 37.3938 153.502 37.8515 153.381L120.869 131.491L134.876 127.798C136.286 127.423 137.492 126.508 138.232 125.251C138.972 123.994 139.186 122.497 138.828 121.083ZM75.1285 2.12017C75.5065 2.01257 75.9022 1.98171 76.2924 2.02942C76.6825 2.07712 77.0591 2.20242 77.4 2.39793C77.7409 2.59343 78.0392 2.85518 78.2772 3.16774C78.5153 3.48029 78.6883 3.83733 78.786 4.21777L87.5566 38.2592C87.7515 39.0021 87.6468 39.7918 87.2651 40.4584C86.8834 41.125 86.2551 41.6153 85.5154 41.8238L49.7869 52.0631C49.2213 51.827 47.2732 50.7142 45.9911 46.2728C45.6543 45.1122 44.9127 42.7558 43.9801 39.7664C41.9062 33.1621 38.7766 23.1866 37.678 18.6447C36.6549 14.4093 38.3442 12.7639 38.7439 12.4424L75.1285 2.12017ZM19.3877 17.9464L35.8379 13.2789C35.3352 14.6053 35.0838 16.5044 35.7223 19.1296C36.8359 23.7317 39.8525 33.3556 42.057 40.3794C42.9897 43.3562 43.7287 45.705 44.0681 46.8455C44.9781 49.9856 46.2224 51.7717 47.3058 52.7891L30.3755 57.6425C30.0009 57.7498 29.6089 57.7818 29.2219 57.7366C28.8349 57.6914 28.4608 57.57 28.1211 57.3794C27.7814 57.1887 27.4829 56.9326 27.2429 56.626C27.0029 56.3193 26.8262 55.9681 26.7229 55.5926L17.344 21.5462C17.1404 20.7965 17.2408 19.9968 17.6234 19.3205C18.006 18.6443 18.6399 18.146 19.3877 17.9338V17.9464ZM120.359 129.549L47.2581 148.824C44.9529 139.894 36.3482 106.445 34.6112 98.1953C32.6982 89.1065 38.6333 83.3061 45.3401 81.5903C47.2606 81.0879 51.3732 79.9725 56.5842 78.5457C70.3849 74.765 91.2343 69.0499 96.0256 68.4094C103.099 67.4648 107.75 71.1551 110.251 79.6937C112.679 87.9836 120.638 118.156 123.423 128.742L120.359 129.549ZM134.366 125.856L125.362 128.23C122.574 117.634 114.608 87.4435 112.174 79.131C109.386 69.6126 103.861 65.3345 95.7491 66.4198C90.8321 67.0729 69.8998 72.8131 56.0563 76.6189C50.8578 78.0432 46.7553 79.1687 44.8474 79.6535C37.1979 81.6054 30.4609 88.2273 32.6479 98.6198C34.3674 106.779 42.4743 138.331 45.3174 149.347L37.3512 151.449C36.9032 151.568 36.4362 151.597 35.9768 151.535C35.5175 151.473 35.075 151.321 34.6746 151.088C34.2743 150.854 33.924 150.544 33.6439 150.175C33.3639 149.806 33.1595 149.385 33.0426 148.937C28.5856 131.769 12.2385 68.8012 4.76749 40.0302L2.12298 29.8612C1.88883 28.9599 2.02198 28.0025 2.49323 27.1991C2.96448 26.3956 3.73536 25.8118 4.63677 25.5756L6.2632 25.1486L15.5843 22.6892L24.7773 56.1126C25.0636 57.1587 25.6864 58.0816 26.5495 58.739C27.4126 59.3963 28.4682 59.7517 29.5535 59.7502C30.0134 59.7514 30.4712 59.6879 30.9134 59.5618L86.071 43.7556C87.3159 43.4049 88.3732 42.5798 89.0154 41.4579C89.6576 40.336 89.8334 39.0069 89.5048 37.7568L81.1691 5.40599L89.8844 3.10742C92.3793 2.44635 95.0324 2.75891 97.3051 3.98163L104.517 7.85026C105.763 8.5197 106.856 9.44027 107.728 10.5537C108.599 11.6672 109.23 12.9493 109.58 14.3189L128.137 87.2325L136.88 121.585C137.109 122.485 136.974 123.438 136.503 124.238C136.032 125.038 135.264 125.62 134.366 125.856ZM69.0074 41.0325C69.5482 41.2948 70.1467 41.4158 70.7469 41.3842C72.856 41.3842 75.8424 40.4397 77.4562 39.4725C78.864 38.631 79.5603 37.6739 79.5251 36.6313C79.4798 35.2748 78.0545 28.0601 76.5915 21.7874C73.4568 8.35017 72.3457 7.8578 71.7499 7.59152C69.9903 6.81528 65.9682 7.77992 63.751 8.77471C62.0919 9.52834 61.1443 10.3146 60.8526 11.214C60.4429 12.47 62.8209 23.2494 63.4318 25.8469C66.6721 39.6911 68.4217 40.6959 68.9948 41.0325H69.0074ZM64.5856 10.5985C66.8681 9.59366 69.8646 9.1038 70.8173 9.39018C71.0687 9.74438 72.2125 11.8194 74.7514 22.8098C76.232 29.2257 77.4688 35.6541 77.504 36.6992C77.504 36.7946 77.3456 37.1539 76.5739 37.6487C74.4673 39.0002 70.6891 39.6358 70.0054 39.2942C69.4222 38.9174 67.8033 35.634 65.4554 25.7288C63.7938 18.7075 62.8008 12.8117 62.7832 11.7742C62.9039 11.5908 63.3765 11.1361 64.5856 10.5985ZM102.059 84.7531L45.4683 100.097C45.3862 100.119 45.3018 100.131 45.2169 100.132C44.9743 100.129 44.7409 100.039 44.5598 99.8774C44.3787 99.716 44.2621 99.4947 44.2315 99.2542C44.2008 99.0136 44.2583 98.7702 44.3932 98.5686C44.5281 98.3671 44.7313 98.2211 44.9655 98.1576L101.556 82.8137C101.684 82.7758 101.819 82.7639 101.952 82.7787C102.086 82.7936 102.214 82.8349 102.331 82.9002C102.448 82.9655 102.551 83.0535 102.633 83.1591C102.716 83.2646 102.776 83.3856 102.811 83.5148C102.846 83.644 102.855 83.779 102.837 83.9117C102.819 84.0443 102.775 84.1721 102.707 84.2875C102.639 84.4028 102.549 84.5034 102.441 84.5834C102.334 84.6633 102.211 84.721 102.081 84.7531H102.059ZM106.4 103.292L50.0509 118.305C49.9689 118.327 49.8844 118.338 49.7995 118.34C49.5553 118.339 49.3197 118.25 49.1366 118.088C48.9536 117.926 48.8357 117.704 48.8049 117.462C48.7741 117.219 48.8326 116.974 48.9693 116.772C49.1061 116.57 49.3118 116.424 49.5481 116.363L105.897 101.35C106.154 101.284 106.427 101.322 106.656 101.456C106.885 101.589 107.052 101.808 107.121 102.065C107.189 102.321 107.153 102.594 107.021 102.824C106.889 103.054 106.671 103.222 106.415 103.292H106.4ZM110.731 120.091C110.8 120.348 110.763 120.622 110.63 120.852C110.496 121.082 110.277 121.25 110.02 121.319L54.998 135.97C54.916 135.991 54.8316 136.003 54.7467 136.005C54.5024 136.004 54.2668 135.915 54.0838 135.753C53.9007 135.591 53.7828 135.369 53.752 135.127C53.7212 134.885 53.7797 134.639 53.9165 134.437C54.0532 134.235 54.259 134.09 54.4953 134.028L109.517 119.377C109.773 119.314 110.043 119.353 110.27 119.486C110.497 119.619 110.663 119.837 110.731 120.091Z" fill="black"/>
</g>
<defs>
<clipPath id="clip0_360_91514">
<rect width="139" height="153.562" fill="white"/>
</clipPath>
</defs>
</svg>
