<svg width="118" height="168" viewBox="0 0 118 168" fill="none" xmlns="http://www.w3.org/2000/svg">
<g clip-path="url(#clip0_240_3898)">
<path d="M36.1306 49.8356C36.1306 49.8356 34.4467 44.3872 35.3223 42.5783C36.4554 40.2314 42.3155 38.4746 43.6947 39.3453C46.0264 40.8205 47.8161 45.3144 47.8161 45.3144L36.1306 49.8356Z" fill="#729F7E"/>
<path d="M40.711 45.6488C19.1482 54.6483 11.0402 72.3775 24.3186 105.306C38.5764 140.663 41.1329 147.408 49.3807 153.6C62.5577 163.482 78.7449 156.178 88.5312 151.98C100.119 147.012 110.631 139.777 110.205 126.715C109.758 113.343 100.569 92.029 94.3525 76.9447C88.5239 62.79 74.0055 31.7468 40.711 45.6488Z" fill="#FCBB41"/>
<path d="M48.9437 61.897C50.964 61.3616 53.0978 61.4374 55.0751 62.1147C57.0524 62.792 58.7845 64.0404 60.0523 65.7021C61.3201 67.3638 62.0667 69.3641 62.1976 71.4501C62.3286 73.5361 61.838 75.6141 60.788 77.4212C59.7379 79.2284 58.1756 80.6837 56.2985 81.6029C54.4214 82.5222 52.3139 82.8642 50.2424 82.5857C48.1709 82.3071 46.2286 81.4206 44.661 80.0382C43.0934 78.6557 41.9709 76.8395 41.4355 74.8191C40.7196 72.11 41.1082 69.2275 42.516 66.8047C43.9237 64.3818 46.2355 62.6167 48.9437 61.897Z" fill="#729F7E"/>
<path d="M96.5899 79.7458C96.1395 78.6599 95.7004 77.5968 95.275 76.5662C95.2079 76.4008 95.1378 76.2335 95.0683 76.0687L95.0639 76.0518C95.0636 76.0468 95.0623 76.0418 95.06 76.0374C90.3496 64.7091 82.4853 49.3001 68.3606 43.4578C62.0013 40.8279 54.999 40.4562 47.468 42.3357C46.6714 40.9364 45.5512 39.3389 44.23 38.5018C43.1163 37.7955 41.0595 38.2245 39.9294 38.5472C39.4596 37.8466 38.8453 37.2548 38.1278 36.8114C37.4102 36.3681 36.606 36.0836 35.7693 35.977C32.5136 35.4951 28.9196 36.1714 25.4343 36.8292C20.4034 37.7804 15.6524 38.678 13.3895 35.68C12.0637 33.9202 12.1331 30.939 13.5618 27.7111C16.0308 22.1274 23.1428 15.2385 35.0516 14.1603C42.5347 13.4832 48.9418 16.7122 55.1368 19.8322C62.4196 23.5027 69.9144 27.2719 79.1698 24.8193C80.6828 24.4126 82.158 23.8766 83.5792 23.2172C83.701 23.1643 83.811 23.0875 83.9028 22.9915C83.9946 22.8955 84.0663 22.7821 84.1136 22.658C84.161 22.534 84.1832 22.4017 84.1788 22.2689C84.1744 22.1362 84.1435 22.0056 84.088 21.885C84.0325 21.7643 83.9534 21.6559 83.8555 21.5662C83.7575 21.4765 83.6427 21.4072 83.5176 21.3625C83.3926 21.3177 83.2598 21.2984 83.1272 21.3056C82.9946 21.3128 82.8647 21.3464 82.7452 21.4045C72.2742 26.2233 64.3868 22.2485 56.0446 18.038C49.589 14.8012 42.9163 11.4464 34.8724 12.1792C29.2198 12.6835 23.9998 14.5184 19.7776 17.4697C16.1608 20.0076 13.2954 23.3556 11.7343 26.8921C10.0034 30.791 10.0268 34.5219 11.7943 36.877C14.8034 40.8696 20.395 39.8137 25.8044 38.7906C29.1286 38.1678 32.5638 37.5155 35.4739 37.9496C36.4348 38.0709 37.3189 38.5374 37.9613 39.2623C36.4369 39.9475 35.0118 40.9291 34.4249 42.1428C34.2361 42.5309 33.684 43.6708 34.5129 47.5392C26.2553 52.1793 20.99 58.3233 18.4981 66.1972C15.2489 76.5015 16.8363 89.4161 23.3914 105.67L24.5363 108.51C37.7805 141.367 40.5361 148.202 48.7929 154.388C57.1508 160.665 66.6932 160.25 75.0636 158.032C80.0506 156.71 84.6225 154.747 88.2742 153.178L88.937 152.894C98.7312 148.696 111.702 141.408 111.216 126.679C110.789 114.043 102.915 95.0258 96.5899 79.7458ZM92.8312 75.895L59.7778 89.5577L56.8944 82.4166C59.438 81.1205 61.4124 78.9295 62.4376 76.2651C63.4629 73.6008 63.4665 70.6514 62.4478 67.9846C61.4291 65.3177 59.46 63.1219 56.9196 61.8196C54.3791 60.5173 51.4468 60.2005 48.6869 60.9304C48.547 60.9674 48.4096 61.0038 48.2697 61.0409L42.2442 46.0944C51.5574 42.4573 60.0839 42.1825 67.5973 45.2912C80.6782 50.7107 88.2193 64.9975 92.8312 75.895ZM49.1988 62.862C51.0283 62.3771 52.9606 62.4457 54.7512 63.0591C56.5418 63.6724 58.1103 64.8029 59.2584 66.3077C60.4065 67.8125 61.0826 69.6239 61.2012 71.5129C61.3197 73.402 60.8755 75.2837 59.9246 76.9203C58.9737 78.5568 57.5589 79.8746 55.8591 80.7071C54.1592 81.5395 52.2507 81.8492 50.3749 81.597C48.499 81.3448 46.7401 80.542 45.3205 79.2901C43.9009 78.0382 42.8844 76.3935 42.3996 74.5639C41.7522 72.1106 42.1045 69.5007 43.3792 67.3068C44.6539 65.113 46.7468 63.5145 49.1988 62.862ZM36.2192 43.0119C36.6215 42.1827 38.1424 41.2118 40.0062 40.6095C41.7332 40.0461 42.9157 40.0579 43.1596 40.1894C43.885 40.6476 44.6897 41.5905 45.474 42.8848C43.8238 43.3787 42.1998 43.9563 40.6084 44.6155L40.5818 44.6225L40.5529 44.6302C40.4781 44.65 40.4079 44.6867 40.3363 44.7185C38.9418 45.2997 37.6167 45.9089 36.3609 46.5463C35.9737 44.5687 36.0175 43.4293 36.2192 43.0119ZM20.4007 66.8027C22.7895 59.2608 27.943 53.3864 36.0767 48.9701C36.1029 48.957 36.1283 48.9425 36.153 48.9267C37.4862 48.2052 38.9024 47.5211 40.4017 46.8743L46.4208 61.7967C43.8722 63.0887 41.8922 65.2784 40.8622 67.9437C39.8323 70.6089 39.8255 73.5611 40.843 76.2311C41.8606 78.9011 43.8305 81.1 46.373 82.4038C48.9155 83.7076 51.8507 84.0241 54.6127 83.2923C54.7574 83.2539 54.9021 83.2156 55.0436 83.1652L57.9339 90.3225L24.8709 103.988C18.8099 88.6247 17.3442 76.4418 20.4007 66.8027ZM109.208 126.747C109.543 137.03 102.849 144.758 88.1391 151.062L87.4745 151.349C77.4873 155.637 62.3972 162.124 49.979 152.797C42.174 146.942 39.4596 140.195 26.3904 107.774L25.6201 105.841L59.6035 91.7924L59.6156 91.7892L93.6087 77.7382C93.9826 78.643 94.3635 79.5641 94.7532 80.5087C100.68 94.8412 108.806 114.47 109.208 126.747Z" fill="black"/>
</g>
<defs>
<clipPath id="clip0_240_3898">
<rect width="81.6105" height="151.78" fill="white" transform="translate(0 20.9048) rotate(-14.8421)"/>
</clipPath>
</defs>
</svg>
