<svg width="193" height="193" viewBox="0 0 193 193" fill="none" xmlns="http://www.w3.org/2000/svg">
<path d="M92.2114 73.3856C92.2114 73.3856 93.7355 68.4685 94.8057 68.0107C95.8759 67.553 105.101 69.4622 105.333 70.7153C105.564 71.9684 104.667 77.2573 104.667 77.2573L92.2243 73.3977L92.2114 73.3856Z" fill="#69CDE0"/>
<path d="M39.6022 60.8672C39.6022 60.8672 42.9202 52.4495 46.3351 51.1402C49.75 49.831 72.0131 50.8536 73.2966 53.4698C74.5802 56.086 74.44 63.9139 74.44 63.9139L39.6022 60.8672Z" fill="#69CDE0"/>
<path d="M155.827 93.5948C155.827 93.5948 157.425 84.6884 155.212 81.7776C152.999 78.8668 133.519 68.0231 131.056 69.5777C128.593 71.1322 124.592 77.8614 124.592 77.8614L155.827 93.5948Z" fill="#69CDE0"/>
<path d="M98.4808 73.0323C92.3051 71.5189 84.596 69.1266 81.9694 67.2106C79.3428 65.2945 75.1422 60.6023 64.6069 57.4496C54.0717 54.297 37.0215 56.0965 29.1243 68.6234C21.2272 81.1504 21.6673 105.019 23.4701 115.006C25.2729 124.993 35.8417 127.238 44.1204 124.672C52.399 122.106 66.4273 117.017 71.1276 116.676C75.828 116.335 81.1373 119.965 85.1126 121.113C91.3303 122.906 97.2312 122.555 100.655 124.987C104.079 127.42 111.171 138.548 120.465 147.482C129.76 156.416 139.46 152.172 145.94 143.226C152.421 134.28 160.999 115.477 160.403 102.323C159.822 89.4985 144.138 78.8479 131.528 76.7669C120.21 74.9062 117.313 76.8714 113.883 76.6258C110.283 76.37 104.614 74.5236 98.4914 73.021L98.4808 73.0323Z" fill="#7D67BF"/>
<path d="M69.4899 69.6373C72.871 72.8077 75.2361 76.9095 76.286 81.4241C77.3359 85.9386 77.0235 90.6631 75.3884 95.0002C73.7532 99.3372 70.8687 103.092 67.0996 105.79C63.3305 108.487 58.846 110.007 54.2134 110.156C49.5808 110.305 45.008 109.077 41.0733 106.627C37.1386 104.177 34.0187 100.615 32.1082 96.3923C30.1977 92.1693 29.5824 87.4746 30.34 82.9019C31.0977 78.3292 33.1943 74.0839 36.3647 70.7027C40.6176 66.1714 46.4955 63.5139 52.7067 63.3141C58.918 63.1144 64.9545 65.3887 69.4899 69.6373Z" fill="#FCBB41"/>
<path d="M146.582 91.813C149.964 94.9832 152.329 99.085 153.379 103.6C154.43 108.114 154.118 112.839 152.483 117.176C150.847 121.514 147.963 125.269 144.194 127.967C140.425 130.664 135.94 132.184 131.307 132.333C126.674 132.482 122.101 131.254 118.167 128.804C114.232 126.354 111.112 122.792 109.202 118.569C107.291 114.345 106.676 109.65 107.434 105.078C108.192 100.505 110.289 96.2594 113.46 92.8784C117.712 88.3475 123.59 85.6902 129.8 85.4905C136.011 85.2907 142.047 87.5648 146.582 91.813Z" fill="#FCBB41"/>
<path d="M137.555 94.1385C138.408 94.9383 139.004 95.9729 139.268 97.1114C139.532 98.25 139.453 99.4414 139.041 100.535C138.628 101.629 137.9 102.575 136.95 103.255C135.999 103.935 134.868 104.318 133.7 104.356C132.532 104.393 131.378 104.083 130.386 103.465C129.394 102.847 128.607 101.949 128.126 100.884C127.644 99.819 127.489 98.6351 127.68 97.482C127.871 96.3289 128.4 95.2583 129.199 94.4057C130.272 93.263 131.754 92.5927 133.32 92.5421C134.886 92.4914 136.408 93.0645 137.552 94.1354L137.555 94.1385Z" fill="#69CDE0"/>
<path d="M125.081 101.032C125.934 101.832 126.53 102.867 126.795 104.006C127.06 105.145 126.98 106.337 126.567 107.431C126.154 108.525 125.426 109.472 124.475 110.152C123.523 110.832 122.391 111.214 121.222 111.251C120.054 111.287 118.9 110.976 117.908 110.357C116.916 109.738 116.13 108.838 115.65 107.772C115.169 106.706 115.016 105.521 115.209 104.368C115.402 103.214 115.933 102.144 116.734 101.293C117.807 100.15 119.289 99.4798 120.855 99.4297C122.422 99.3797 123.944 99.9537 125.087 101.026L125.081 101.032Z" fill="#69CDE0"/>
<path d="M145.044 107.02C145.897 107.82 146.493 108.854 146.758 109.993C147.023 111.132 146.944 112.323 146.531 113.417C146.119 114.511 145.391 115.458 144.44 116.138C143.49 116.819 142.358 117.202 141.19 117.239C140.022 117.276 138.868 116.966 137.876 116.348C136.884 115.73 136.097 114.832 135.616 113.766C135.134 112.701 134.979 111.517 135.171 110.364C135.362 109.21 135.891 108.14 136.691 107.287C137.764 106.145 139.246 105.475 140.812 105.425C142.378 105.375 143.9 105.949 145.044 107.02Z" fill="#69CDE0"/>
<path d="M131.937 114.028C132.79 114.828 133.387 115.862 133.652 117.001C133.917 118.139 133.839 119.331 133.427 120.425C133.014 121.519 132.287 122.466 131.337 123.147C130.386 123.827 129.255 124.211 128.087 124.249C126.918 124.286 125.765 123.977 124.772 123.359C123.78 122.741 122.993 121.843 122.511 120.778C122.029 119.713 121.874 118.529 122.065 117.376C122.256 116.222 122.785 115.152 123.584 114.299C124.656 113.156 126.138 112.486 127.705 112.435C129.271 112.384 130.793 112.958 131.937 114.028Z" fill="#69CDE0"/>
<path d="M51.3962 71.5395C50.3955 71.9166 48.9918 80.4798 48.0541 81.0132C47.1165 81.5466 40.4909 80.2311 39.57 81.0415C38.6491 81.8519 37.8329 88.7938 38.1117 89.517C38.3906 90.2402 45.8612 91.1178 46.0924 91.9695C46.3237 92.8212 44.6109 100.207 45.221 101.141C45.8311 102.075 52.2306 103.573 52.7385 103.232C53.2465 102.891 54.7605 94.9784 55.5403 94.5583C56.3201 94.1381 63.5096 95.7788 64.4088 94.6352C65.308 93.4915 66.4425 87.963 65.9082 87.1461C65.374 86.3292 58.5886 85.0674 58.2594 84.2878C57.9302 83.5082 60.3789 75.4116 59.8099 74.0972C59.2408 72.7829 52.8691 70.9763 51.3929 71.5365L51.3962 71.5395Z" fill="#69CDE0"/>
<path d="M85.8628 82.3068C84.8128 82.905 81.7035 94.0096 82.3868 95.2669C83.07 96.5243 100.668 101.521 101.722 100.604C102.776 99.6877 106.601 89.0964 105.342 87.7368C104.083 86.3772 87.5224 81.3566 85.8628 82.3068Z" fill="#69CDE0"/>
<path d="M85.4521 104.889C85.052 103.955 75.999 100.871 75.0685 101.967C74.138 103.063 73.307 105.889 73.8179 106.566C74.3288 107.243 83.2385 110.645 84.2224 110.088C85.2063 109.531 85.7647 105.638 85.4476 104.894L85.4521 104.889Z" fill="#69CDE0"/>
<path d="M93.5719 106.961C92.7814 107.195 91.4992 110.859 92.0194 111.63C92.5396 112.4 102.183 115.114 102.965 114.562C103.746 114.01 104.857 110.85 104.09 109.973C103.323 109.096 94.6433 106.638 93.5719 106.961Z" fill="#69CDE0"/>
<path d="M146.654 143.752C152.92 135.09 161.903 115.923 161.284 102.289C161.112 98.5063 159.657 94.6869 157.062 91.1142C157.423 87.6738 157.485 83.3023 155.926 81.2327C154.639 79.5432 148.775 75.922 143.647 73.2132C141.132 71.8533 138.54 70.64 135.884 69.5794C132.317 68.2156 131.206 68.4285 130.592 68.8183C128.961 69.8475 126.847 72.7376 125.265 75.1465C122.541 74.9726 119.805 75.0969 117.107 75.517C115.888 75.6864 114.925 75.8193 113.94 75.749C111.916 75.6041 109.18 74.9317 106.016 74.0912C106.353 71.3994 106.239 70.7665 106.199 70.5467C106.117 70.1151 105.934 69.1348 100.887 67.93C103.168 62.3645 108.91 59.698 116.089 56.3769C118.34 55.334 120.674 54.254 123.068 52.9964C128.974 49.9185 131.292 44.4334 129.266 38.326C126.55 30.1259 116.384 22.5103 105.592 24.2543C97.3897 25.5796 92.9276 29.7195 90.6314 32.9588C88.1297 36.4853 87.5898 39.6853 87.5736 39.8129C87.5401 40.0429 87.5983 40.2769 87.7356 40.4644C87.873 40.652 88.0785 40.778 88.308 40.8155C88.5374 40.8529 88.7724 40.7987 88.9622 40.6646C89.1521 40.5305 89.2817 40.3271 89.323 40.0984C89.3283 40.0669 89.8398 37.1076 92.125 33.9157C95.1829 29.6469 99.8101 26.9833 105.874 26.0043C115.777 24.4049 125.102 31.3687 127.589 38.8895C129.343 44.1794 127.406 48.7429 122.256 51.4296C119.884 52.6629 117.581 53.7295 115.343 54.7688C107.986 58.1756 101.6 61.1372 99.1299 67.5459C97.476 67.2103 95.2324 66.8654 94.4575 67.1961C93.9594 67.4034 93.3255 67.9757 92.3307 70.4362C88.0308 69.1384 84.1272 67.6867 82.4961 66.4975C82.0482 66.1717 81.5424 65.7521 80.9545 65.2646C79.1803 63.7444 77.2897 62.3657 75.3 61.1412C75.1757 57.1818 74.7718 54.4699 74.0954 53.0853C73.7765 52.4308 72.9445 51.6658 69.1931 50.9492C66.3765 50.4548 63.5339 50.1222 60.6792 49.9532C54.8955 49.5638 47.997 49.5599 46.0146 50.3198C43.5366 51.2681 41.2579 55.1496 39.7385 58.3608C35.6864 60.233 31.4579 63.2553 28.3731 68.149C20.0834 81.2921 20.9328 105.942 22.5935 115.167C23.1303 118.159 24.4641 120.682 26.4977 122.586C27.1551 123.201 27.8746 123.747 28.6446 124.213C32.8038 126.74 38.8342 127.246 44.3807 125.526C46.6425 124.824 49.3076 123.942 52.1311 123.011C59.5124 120.573 67.8787 117.806 71.1885 117.568C74.0791 117.359 77.4116 118.846 80.342 120.166C81.9455 120.886 83.4585 121.569 84.8621 121.974C87.3989 122.706 89.912 123.091 92.1273 123.434C95.4141 123.939 98.2518 124.376 100.139 125.717C101.589 126.746 103.858 129.591 106.733 133.192C110.29 137.651 114.72 143.2 119.847 148.129C123.8 151.926 128.032 153.656 132.431 153.266C137.492 152.81 142.544 149.431 146.654 143.752ZM131.514 70.3361C132.209 70.077 135.841 71.0827 143.061 74.9174C148.537 77.8252 153.567 81.075 154.512 82.313C155.315 83.3705 155.642 85.7854 155.452 89.0855C154.103 87.5439 152.621 86.1232 151.025 84.8396C145.477 80.324 138.24 76.9899 131.663 75.9049C130.038 75.6389 128.586 75.4504 127.279 75.3184C129.028 72.7443 130.535 70.9524 131.514 70.3361ZM95.1561 68.8324C95.5934 68.7807 97.1881 68.9332 99.5121 69.4354C102.318 70.0429 104.021 70.6983 104.466 71.0211C104.491 71.3182 104.476 72.0179 104.283 73.6264L104.24 73.6168C102.453 73.135 100.603 72.6363 98.689 72.1664C97.1751 71.7949 95.5878 71.385 94.0321 70.9318C94.6756 69.3934 95.05 68.9455 95.1561 68.8324ZM46.6448 51.9771C48.0991 51.4208 54.0844 51.3004 60.2758 51.6954C68.4315 52.228 72.0543 53.2858 72.5122 53.8731C73.0012 54.8906 73.338 57.0778 73.4871 60.1036C70.7371 58.6474 67.8465 57.4738 64.8596 56.6011C58.9881 54.8474 51.9905 54.7354 45.6613 56.2983C44.5021 56.5851 43.3588 56.9328 42.2362 57.3398C43.8162 54.4041 45.4058 52.4497 46.6448 51.9771ZM132.263 151.495C128.403 151.841 124.632 150.273 121.067 146.845C116.024 141.998 111.631 136.496 108.109 132.082C105.147 128.369 102.808 125.44 101.158 124.267C98.9279 122.683 95.898 122.218 92.3891 121.677C90.1202 121.327 87.7725 120.966 85.3465 120.265C84.0647 119.896 82.6043 119.24 81.0581 118.547C77.9368 117.139 74.388 115.555 71.0516 115.796C67.5212 116.052 59.0447 118.852 51.5642 121.325C48.7501 122.256 46.0927 123.133 43.8449 123.83C38.7702 125.402 33.3018 124.968 29.5632 122.696C26.72 120.969 24.9639 118.332 24.3377 114.853C22.7152 105.84 21.8573 81.8011 29.8742 69.0978C32.613 64.7515 36.3875 61.8018 40.5252 59.9096C40.6872 59.8866 40.8397 59.8193 40.9658 59.7151C49.0656 56.17 58.4768 56.5461 64.3499 58.3013C67.6966 59.2644 70.9137 60.6314 73.9301 62.3721L73.9972 62.4107C76.0547 63.6477 78.0034 65.0573 79.8223 66.6242C80.4328 67.1298 80.9595 67.566 81.4507 67.9233C84.2539 69.9685 92.2658 72.4138 98.2741 73.8887C100.167 74.3546 102.007 74.8488 103.787 75.3278C107.79 76.4047 111.247 77.3345 113.812 77.5185C114.983 77.6016 116.078 77.4503 117.347 77.2763C120.048 76.9041 123.746 76.3947 131.376 77.6497C144.251 79.7676 158.975 90.4381 159.515 102.364C160.114 115.579 151.341 134.25 145.221 142.708C141.414 147.97 136.811 151.087 132.273 151.498L132.263 151.495ZM70.0949 68.9925C66.5864 65.7021 62.181 63.526 57.4357 62.7394C52.6905 61.9528 47.8185 62.591 43.436 64.5733C39.0535 66.5556 35.3572 69.793 32.8146 73.8761C30.272 77.9592 28.9974 82.7045 29.1518 87.5121C29.3062 92.3196 30.8828 96.9734 33.6821 100.885C36.4815 104.796 40.3779 107.79 44.8786 109.487C49.3793 111.184 54.2822 111.508 58.9672 110.419C63.6522 109.329 67.9089 106.875 71.1989 103.366C75.6033 98.6578 77.9605 92.3949 77.7535 85.951C77.5466 79.5072 74.7923 73.4084 70.0949 68.9925ZM38.0382 103.18C34.7849 100.13 32.5091 96.1838 31.4986 91.8405C30.4881 87.4971 30.7883 82.9516 32.3612 78.7789C33.934 74.6061 36.709 70.9935 40.3351 68.3978C43.9612 65.8022 48.2756 64.3401 52.7327 64.1965C57.1897 64.053 61.5893 65.2343 65.3749 67.5912C69.1606 69.9481 72.1623 73.3746 74.0005 77.4375C75.8387 81.5004 76.4308 86.0171 75.7019 90.4165C74.973 94.8159 72.9559 98.9004 69.9057 102.153C65.8124 106.509 60.1585 109.064 54.1842 109.256C48.21 109.449 42.4033 107.263 38.0382 103.18ZM147.188 91.1669C143.678 87.878 139.271 85.7038 134.526 84.9191C129.78 84.1344 124.908 84.7745 120.526 86.7585C116.145 88.7424 112.449 91.9811 109.908 96.065C107.367 100.149 106.093 104.895 106.249 109.702C106.405 114.51 107.983 119.163 110.783 123.074C113.583 126.985 117.48 129.978 121.981 131.674C126.482 133.37 131.385 133.694 136.07 132.604C140.755 131.513 145.012 129.059 148.301 125.549C152.707 120.84 155.065 114.574 154.856 108.128C154.647 101.682 151.889 95.5818 147.188 91.1669ZM115.13 125.356C111.878 122.304 109.604 118.357 108.595 114.013C107.587 109.67 107.889 105.124 109.463 100.952C111.037 96.7801 113.814 93.1684 117.44 90.5739C121.067 87.9794 125.382 86.5185 129.839 86.3761C134.296 86.2336 138.695 87.4159 142.481 89.7734C146.266 92.131 149.267 95.5579 151.105 99.621C152.942 103.684 153.534 108.201 152.805 112.6C152.076 116.999 150.058 121.084 147.008 124.337C142.913 128.695 137.256 131.249 131.28 131.44C125.303 131.631 119.494 129.443 115.13 125.356ZM128.866 103.407C129.847 104.326 131.079 104.933 132.405 105.153C133.731 105.372 135.093 105.193 136.317 104.639C137.542 104.084 138.575 103.179 139.285 102.038C139.995 100.896 140.351 99.5699 140.307 98.2264C140.263 96.8828 139.822 95.5824 139.039 94.4895C138.257 93.3966 137.167 92.5604 135.909 92.0866C134.651 91.6127 133.281 91.5226 131.972 91.8275C130.663 92.1324 129.473 92.8188 128.554 93.7997C127.323 95.1158 126.665 96.8666 126.723 98.6677C126.782 100.469 127.553 102.173 128.866 103.407ZM136.95 94.7854C137.675 95.4653 138.181 96.3448 138.406 97.3126C138.631 98.2804 138.563 99.2931 138.213 100.223C137.862 101.152 137.243 101.957 136.435 102.535C135.627 103.113 134.666 103.438 133.673 103.47C132.68 103.502 131.699 103.238 130.856 102.713C130.013 102.188 129.344 101.424 128.935 100.519C128.525 99.6137 128.394 98.6074 128.556 97.6272C128.718 96.6471 129.168 95.7371 129.847 95.0123C130.76 94.0417 132.02 93.4727 133.352 93.4301C134.684 93.3876 135.978 93.875 136.95 94.7854ZM125.687 100.386C124.706 99.4656 123.474 98.857 122.148 98.6371C120.821 98.4172 119.459 98.5958 118.234 99.1503C117.008 99.7048 115.975 100.61 115.265 101.752C114.555 102.894 114.199 104.221 114.243 105.565C114.287 106.909 114.729 108.21 115.513 109.303C116.296 110.396 117.387 111.232 118.646 111.705C119.905 112.178 121.276 112.267 122.585 111.96C123.894 111.654 125.084 110.966 126.002 109.983C127.229 108.667 127.886 106.918 127.827 105.12C127.768 103.321 126.998 101.619 125.687 100.386ZM117.603 109.007C116.878 108.328 116.371 107.449 116.145 106.482C115.92 105.514 115.986 104.502 116.335 103.572C116.685 102.642 117.303 101.837 118.11 101.258C118.917 100.679 119.878 100.353 120.871 100.32C121.863 100.287 122.844 100.549 123.688 101.073C124.532 101.597 125.201 102.359 125.612 103.263C126.023 104.168 126.156 105.174 125.995 106.154C125.835 107.134 125.387 108.045 124.709 108.771C123.797 109.743 122.537 110.315 121.205 110.359C119.872 110.403 118.577 109.917 117.603 109.007ZM145.651 106.374C144.671 105.454 143.439 104.846 142.113 104.627C140.787 104.407 139.425 104.586 138.2 105.14C136.975 105.694 135.942 106.599 135.232 107.74C134.522 108.882 134.166 110.208 134.209 111.552C134.252 112.895 134.693 114.196 135.476 115.289C136.259 116.382 137.348 117.218 138.606 117.692C139.864 118.166 141.234 118.257 142.544 117.952C143.853 117.647 145.043 116.96 145.962 115.979C147.192 114.664 147.851 112.913 147.793 111.113C147.734 109.312 146.964 107.608 145.651 106.374ZM137.567 114.995C136.843 114.316 136.336 113.436 136.11 112.468C135.885 111.501 135.952 110.488 136.303 109.558C136.653 108.628 137.272 107.823 138.08 107.245C138.888 106.667 139.849 106.341 140.842 106.309C141.835 106.277 142.816 106.54 143.659 107.066C144.503 107.591 145.171 108.354 145.581 109.26C145.991 110.165 146.122 111.171 145.96 112.152C145.798 113.132 145.348 114.042 144.669 114.767C143.756 115.737 142.496 116.306 141.165 116.349C139.834 116.392 138.54 115.905 137.567 114.995ZM132.542 113.382C131.562 112.463 130.33 111.855 129.004 111.635C127.678 111.415 126.317 111.594 125.092 112.148C123.867 112.702 122.834 113.607 122.124 114.748C121.413 115.889 121.057 117.215 121.1 118.559C121.143 119.902 121.584 121.203 122.366 122.296C123.149 123.389 124.238 124.226 125.496 124.7C126.753 125.174 128.124 125.265 129.433 124.96C130.742 124.656 131.932 123.97 132.851 122.989C134.083 121.673 134.742 119.923 134.684 118.122C134.626 116.321 133.856 114.616 132.542 113.382ZM124.458 122.003C123.734 121.324 123.227 120.444 123.001 119.476C122.776 118.508 122.843 117.495 123.194 116.566C123.545 115.636 124.163 114.831 124.972 114.253C125.78 113.674 126.741 113.349 127.734 113.317C128.728 113.285 129.708 113.549 130.551 114.074C131.395 114.6 132.063 115.364 132.473 116.269C132.882 117.175 133.014 118.181 132.851 119.162C132.688 120.142 132.238 121.052 131.558 121.776C130.646 122.745 129.386 123.313 128.056 123.354C126.726 123.396 125.434 122.908 124.463 121.998L124.458 122.003ZM66.6545 86.6675C66.2472 86.0456 65.1445 85.686 62.304 84.8696C61.247 84.5681 59.7184 84.1312 59.1276 83.8477C59.1945 83.1964 59.5353 81.6568 59.7941 80.4899C60.6565 76.5928 61.0173 74.6496 60.6261 73.7481C60.1468 72.6394 57.9511 71.7866 56.1956 71.2677C55.3267 71.0119 52.3927 70.2141 51.0731 70.7175C50.2089 71.0463 49.7887 72.4113 48.7819 76.2065C48.4144 77.5996 47.8724 79.6614 47.5479 80.2473C47.0062 80.3195 45.4528 80.1845 44.3963 80.0931C41.1795 79.8108 39.6899 79.7569 38.9763 80.385C37.6851 81.5256 36.8982 88.8444 37.2828 89.8339C37.5584 90.554 38.3579 90.7933 41.6543 91.5025C42.7705 91.7441 44.556 92.1272 45.2142 92.4102C45.181 92.9867 44.9739 94.2476 44.8067 95.2909C44.1447 99.4214 44.0031 100.917 44.4714 101.633C44.5292 101.719 44.597 101.797 44.6734 101.867C45.805 102.929 49.5941 103.747 50.3876 103.899C52.4864 104.324 52.9147 104.185 53.2277 103.974C53.6912 103.661 53.879 103.066 54.7018 99.8877C55.0771 98.4442 55.6809 96.1123 56.0412 95.3717C56.5397 95.3682 57.6649 95.4997 58.521 95.6008C62.0854 96.0113 64.3193 96.1982 65.1175 95.1816C65.8676 94.2262 66.4227 91.6967 66.5741 90.9424C67.2513 87.5765 66.8028 86.8916 66.6545 86.6675ZM58.7137 93.8402C56.4145 93.5708 55.6284 93.5051 55.1276 93.7768C54.4354 94.1424 54.0696 95.2485 52.9847 99.4413C52.7225 100.453 52.3824 101.772 52.1686 102.388C50.7982 102.285 46.771 101.231 45.9859 100.659C45.8662 99.9085 46.3152 97.1002 46.5621 95.5637C46.9556 93.1256 47.0868 92.234 46.9378 91.7449C46.8843 91.5367 46.7721 91.3482 46.6146 91.2019C46.0795 90.7001 44.8433 90.3824 42.0189 89.7756C41.0039 89.5621 39.5197 89.2367 38.9323 89.0079C38.8867 87.592 39.5663 82.6425 40.1423 81.7334C40.7305 81.5468 42.919 81.7366 44.2475 81.8522C46.8401 82.0777 47.8796 82.1289 48.4879 81.7848C49.2038 81.3777 49.5868 80.1237 50.5003 76.6482C50.8958 75.1476 51.481 72.9197 51.8415 72.3312C53.1846 72.0716 58.3471 73.5706 58.9949 74.4575C59.154 75.1626 58.4727 78.2543 58.0603 80.1067C57.3646 83.2396 57.2134 84.0942 57.4521 84.6431C57.7576 85.367 58.7704 85.7092 61.8197 86.5816C62.9622 86.9086 64.6474 87.389 65.1599 87.6782C65.3179 88.7377 64.458 93.0534 63.758 94.0526C63.0999 94.3591 60.1507 94.0119 58.7202 93.8462L58.7137 93.8402ZM102.295 101.267C103.473 100.244 106.281 92.4544 106.462 89.1279C106.513 88.1699 106.361 87.5351 105.984 87.1271C104.828 85.8912 96.8904 83.5612 95.9868 83.3002C93.586 82.6045 91.313 82.0316 89.5948 81.6934C86.6899 81.1174 85.8719 81.2769 85.4192 81.5329C84.6726 81.9599 83.7283 84.2369 82.6158 88.3036C81.5033 92.3703 81.1588 94.8695 81.6038 95.6877C81.6633 95.8066 81.7443 95.9135 81.8428 96.003C82.3003 96.4319 83.676 97.1841 88.6703 98.7199C92.3456 99.8512 96.3373 100.875 98.8446 101.328C101.201 101.75 101.873 101.636 102.295 101.267ZM83.1597 94.7832C82.9808 93.1694 85.3367 84.4267 86.32 83.0702C87.0365 82.9735 90.0341 83.4086 95.6462 85.0436C100.986 86.5996 104.132 87.8937 104.648 88.302C104.763 88.6495 104.757 90.2724 103.484 94.2282C102.582 97.0276 101.603 99.2446 101.206 99.8202C100.316 99.8755 96.9397 99.2315 92.0289 97.853C86.8555 96.4046 83.8405 95.2332 83.1662 94.7892L83.1597 94.7832ZM86.2739 104.548C86.1518 104.26 85.8911 103.66 82.5484 102.44C80.8041 101.779 79.0026 101.281 77.1668 100.951C75.6779 100.724 74.8496 100.856 74.3949 101.39C73.3888 102.573 72.194 105.885 73.1204 107.097C73.1505 107.135 73.1837 107.172 73.2195 107.205C73.9906 107.928 77.1693 109.119 78.5539 109.616C83.6343 111.439 84.3334 111.043 84.6691 110.853C86.201 109.981 86.6949 105.547 86.2739 104.548ZM74.5627 106.022C74.4742 105.416 75.0074 103.519 75.6783 102.639C76.9899 102.325 83.5151 104.419 84.6573 105.319C84.786 106.154 84.3077 108.686 83.8388 109.267C82.4636 109.259 75.7691 106.825 74.5597 106.025L74.5627 106.022ZM104.767 109.393C104.152 108.689 101.401 107.799 99.1988 107.17C96.9961 106.542 94.1957 105.851 93.3166 106.109C92.6582 106.305 92.0522 107.156 91.5228 108.637C91.1174 109.776 90.7358 111.317 91.2871 112.128C91.3343 112.203 91.3908 112.271 91.4551 112.332C91.7493 112.607 92.5351 113.056 95.2714 113.899C97.1156 114.476 98.9894 114.953 100.885 115.328C102.58 115.639 103.104 115.553 103.478 115.291C104.309 114.703 105.04 112.848 105.201 111.486C105.309 110.555 105.16 109.849 104.756 109.389L104.767 109.393ZM92.7891 111.106C92.7397 110.398 93.4294 108.347 93.8985 107.821C95.3309 107.803 102.466 109.848 103.431 110.568C103.679 111.104 103.025 113.195 102.546 113.757C101.135 113.792 94.1106 111.881 92.778 111.102L92.7891 111.106Z" fill="black"/>
</svg>
