<svg width="153" height="193" viewBox="0 0 153 193" fill="none" xmlns="http://www.w3.org/2000/svg">
<g clip-path="url(#clip0_240_3880)">
<path d="M52.2114 73.3856C52.2114 73.3856 53.7355 68.4685 54.8057 68.0107C55.8759 67.553 65.1013 69.4622 65.3328 70.7153C65.5644 71.9684 64.6668 77.2573 64.6668 77.2573L52.2243 73.3977L52.2114 73.3856Z" fill="#69CDE0"/>
<path d="M-0.397829 60.8672C-0.397829 60.8672 2.92016 52.4495 6.3351 51.1402C9.75004 49.831 32.0131 50.8536 33.2966 53.4698C34.5802 56.086 34.44 63.9139 34.44 63.9139L-0.397829 60.8672Z" fill="#69CDE0"/>
<path d="M115.827 93.5948C115.827 93.5948 117.425 84.6884 115.212 81.7776C112.999 78.8668 93.5193 68.0231 91.0561 69.5777C88.5928 71.1322 84.5918 77.8614 84.5918 77.8614L115.827 93.5948Z" fill="#69CDE0"/>
<path d="M58.4808 73.0323C52.3051 71.5189 44.596 69.1266 41.9694 67.2106C39.3428 65.2945 35.1422 60.6023 24.6069 57.4496C14.0717 54.297 -2.97854 56.0965 -10.8757 68.6234C-18.7728 81.1504 -18.3327 105.019 -16.5299 115.006C-14.7271 124.993 -4.1583 127.238 4.12036 124.672C12.399 122.106 26.4273 117.017 31.1276 116.676C35.828 116.335 41.1373 119.965 45.1126 121.113C51.3303 122.906 57.2312 122.555 60.6552 124.987C64.0792 127.42 71.1709 138.548 80.4654 147.482C89.7599 156.416 99.4599 152.172 105.94 143.226C112.421 134.28 120.999 115.477 120.403 102.323C119.822 89.4985 104.138 78.8479 91.5283 76.7669C80.21 74.9062 77.3131 76.8714 73.8827 76.6258C70.2826 76.37 64.6135 74.5236 58.4914 73.021L58.4808 73.0323Z" fill="#7D67BF"/>
<path d="M29.4899 69.6373C32.871 72.8077 35.2361 76.9095 36.286 81.4241C37.3359 85.9386 37.0235 90.6631 35.3884 95.0002C33.7532 99.3372 30.8687 103.092 27.0996 105.79C23.3305 108.487 18.846 110.007 14.2134 110.156C9.58075 110.305 5.00796 109.077 1.07328 106.627C-2.86141 104.177 -5.98126 100.615 -7.89176 96.3923C-9.80226 92.1693 -10.4176 87.4746 -9.65996 82.9019C-8.90232 78.3292 -6.80574 74.0839 -3.63533 70.7027C0.617581 66.1714 6.49547 63.5139 12.7067 63.3141C18.918 63.1144 24.9545 65.3887 29.4899 69.6373Z" fill="#FCBB41"/>
<path d="M106.582 91.813C109.964 94.9832 112.329 99.085 113.379 103.6C114.43 108.114 114.118 112.839 112.483 117.176C110.847 121.514 107.963 125.269 104.194 127.967C100.425 130.664 95.94 132.184 91.3071 132.333C86.6743 132.482 82.1013 131.254 78.1666 128.804C74.2318 126.354 71.1119 122.792 69.2015 118.569C67.2912 114.345 66.6761 109.65 67.4341 105.078C68.1921 100.505 70.2891 96.2594 73.4599 92.8784C77.7124 88.3475 83.5898 85.6902 89.8005 85.4905C96.0112 85.2907 102.047 87.5648 106.582 91.813Z" fill="#FCBB41"/>
<path d="M97.5552 94.1385C98.4076 94.9383 99.0036 95.9729 99.268 97.1114C99.5324 98.25 99.4533 99.4414 99.0406 100.535C98.628 101.629 97.9003 102.575 96.9496 103.255C95.999 103.935 94.8681 104.318 93.6998 104.356C92.5315 104.393 91.3784 104.083 90.3863 103.465C89.3941 102.847 88.6075 101.949 88.1258 100.884C87.6441 99.819 87.489 98.6351 87.6801 97.482C87.8712 96.3289 88.4 95.2583 89.1995 94.4057C90.2717 93.263 91.7537 92.5927 93.3198 92.5421C94.8859 92.4914 96.4081 93.0645 97.552 94.1354L97.5552 94.1385Z" fill="#69CDE0"/>
<path d="M85.0808 101.032C85.9338 101.832 86.5304 102.867 86.795 104.006C87.0597 105.145 86.9804 106.337 86.5674 107.431C86.1543 108.525 85.426 109.472 84.4745 110.152C83.5231 110.832 82.3913 111.214 81.2225 111.251C80.0536 111.287 78.9002 110.976 77.9082 110.357C76.9162 109.738 76.1303 108.838 75.6497 107.772C75.1692 106.706 75.0158 105.521 75.2088 104.368C75.4019 103.214 75.9327 102.144 76.7342 101.293C77.8066 100.15 79.2889 99.4798 80.8552 99.4297C82.4215 99.3797 83.9436 99.9537 85.0868 101.026L85.0808 101.032Z" fill="#69CDE0"/>
<path d="M105.044 107.02C105.897 107.82 106.493 108.854 106.758 109.993C107.023 111.132 106.944 112.323 106.531 113.417C106.119 114.511 105.391 115.458 104.44 116.138C103.49 116.819 102.358 117.202 101.19 117.239C100.022 117.276 98.8683 116.966 97.876 116.348C96.8838 115.73 96.0971 114.832 95.6156 113.766C95.134 112.701 94.9792 111.517 95.1706 110.364C95.3621 109.21 95.8913 108.14 96.6912 107.287C97.7639 106.145 99.2461 105.475 100.812 105.425C102.378 105.375 103.9 105.949 105.044 107.02Z" fill="#69CDE0"/>
<path d="M91.9368 114.028C92.7898 114.828 93.3867 115.862 93.6519 117.001C93.9171 118.139 93.8387 119.331 93.4266 120.425C93.0144 121.519 92.2872 122.466 91.3367 123.147C90.3862 123.827 89.2552 124.211 88.0868 124.249C86.9183 124.286 85.7649 123.977 84.7725 123.359C83.78 122.741 82.993 121.843 82.511 120.778C82.029 119.713 81.8738 118.529 82.0648 117.376C82.2558 116.222 82.7846 115.152 83.5842 114.299C84.6565 113.156 86.1384 112.486 87.7046 112.435C89.2707 112.384 90.7929 112.958 91.9368 114.028Z" fill="#69CDE0"/>
<path d="M11.3962 71.5395C10.3955 71.9166 8.99179 80.4798 8.05414 81.0132C7.1165 81.5466 0.490896 80.2311 -0.430003 81.0415C-1.3509 81.8519 -2.16708 88.7938 -1.88826 89.517C-1.60945 90.2402 5.86123 91.1178 6.09245 91.9695C6.32366 92.8212 4.61087 100.207 5.22099 101.141C5.83111 102.075 12.2306 103.573 12.7385 103.232C13.2465 102.891 14.7605 94.9784 15.5403 94.5583C16.3201 94.1381 23.5096 95.7788 24.4088 94.6352C25.308 93.4915 26.4425 87.963 25.9082 87.1461C25.374 86.3292 18.5886 85.0674 18.2594 84.2878C17.9302 83.5082 20.3789 75.4116 19.8099 74.0972C19.2408 72.7829 12.8691 70.9763 11.3929 71.5365L11.3962 71.5395Z" fill="#69CDE0"/>
<path d="M45.8628 82.3068C44.8128 82.905 41.7035 94.0096 42.3868 95.2669C43.07 96.5243 60.6681 101.521 61.722 100.604C62.7759 99.6877 66.6009 89.0964 65.3421 87.7368C64.0833 86.3772 47.5224 81.3566 45.8628 82.3068Z" fill="#69CDE0"/>
<path d="M45.4521 104.889C45.052 103.955 35.999 100.871 35.0685 101.967C34.138 103.063 33.307 105.889 33.8179 106.566C34.3288 107.243 43.2385 110.645 44.2224 110.088C45.2063 109.531 45.7647 105.638 45.4476 104.894L45.4521 104.889Z" fill="#69CDE0"/>
<path d="M53.5719 106.961C52.7814 107.195 51.4992 110.859 52.0194 111.63C52.5396 112.4 62.1828 115.114 62.9646 114.562C63.7465 114.01 64.8567 110.85 64.0901 109.973C63.3234 109.096 54.6433 106.638 53.5719 106.961Z" fill="#69CDE0"/>
<path d="M106.654 143.752C112.92 135.09 121.903 115.923 121.284 102.289C121.112 98.5063 119.657 94.6869 117.062 91.1142C117.423 87.6738 117.485 83.3023 115.926 81.2327C114.639 79.5432 108.775 75.922 103.647 73.2132C101.132 71.8533 98.5395 70.64 95.8839 69.5794C92.3172 68.2156 91.2062 68.4285 90.5916 68.8183C88.9612 69.8475 86.8467 72.7376 85.2654 75.1465C82.5407 74.9726 79.8051 75.0969 77.1074 75.517C75.8884 75.6864 74.9253 75.8193 73.94 75.749C71.916 75.6041 69.1805 74.9317 66.0162 74.0912C66.353 71.3994 66.2385 70.7665 66.1985 70.5467C66.1172 70.1151 65.9336 69.1348 60.8873 67.93C63.1682 62.3645 68.91 59.698 76.0888 56.3769C78.3396 55.334 80.6738 54.254 83.0682 52.9964C88.974 49.9185 91.292 44.4334 89.2659 38.326C86.5501 30.1259 76.3839 22.5103 65.5922 24.2543C57.3897 25.5796 52.9276 29.7195 50.6314 32.9588C48.1297 36.4853 47.5898 39.6853 47.5736 39.8129C47.5401 40.0429 47.5983 40.2769 47.7356 40.4644C47.873 40.652 48.0785 40.778 48.308 40.8155C48.5374 40.8529 48.7724 40.7987 48.9622 40.6646C49.1521 40.5305 49.2817 40.3271 49.323 40.0984C49.3283 40.0669 49.8398 37.1076 52.125 33.9157C55.1829 29.6469 59.8101 26.9833 65.8743 26.0043C75.777 24.4049 85.1022 31.3687 87.5892 38.8895C89.3428 44.1794 87.406 48.7429 82.2559 51.4296C79.8842 52.6629 77.5809 53.7295 75.3426 54.7688C67.9862 58.1756 61.6001 61.1372 59.1299 67.5459C57.476 67.2103 55.2324 66.8654 54.4575 67.1961C53.9594 67.4034 53.3255 67.9757 52.3307 70.4362C48.0308 69.1384 44.1272 67.6867 42.4961 66.4975C42.0482 66.1717 41.5424 65.7521 40.9545 65.2646C39.1803 63.7444 37.2897 62.3657 35.3 61.1412C35.1757 57.1818 34.7718 54.4699 34.0954 53.0853C33.7765 52.4308 32.9445 51.6658 29.1931 50.9492C26.3765 50.4548 23.5339 50.1222 20.6792 49.9532C14.8955 49.5638 7.99695 49.5599 6.01459 50.3198C3.53657 51.2681 1.25795 55.1496 -0.261464 58.3608C-4.31365 60.233 -8.54206 63.2553 -11.6269 68.149C-19.9166 81.2921 -19.0672 105.942 -17.4065 115.167C-16.8697 118.159 -15.5359 120.682 -13.5023 122.586C-12.8449 123.201 -12.1254 123.747 -11.3554 124.213C-7.1962 126.74 -1.16578 127.246 4.38074 125.526C6.6425 124.824 9.30765 123.942 12.1311 123.011C19.5124 120.573 27.8787 117.806 31.1885 117.568C34.0791 117.359 37.4116 118.846 40.342 120.166C41.9455 120.886 43.4585 121.569 44.8621 121.974C47.3989 122.706 49.912 123.091 52.1273 123.434C55.4141 123.939 58.2518 124.376 60.1387 125.717C61.5891 126.746 63.8583 129.591 66.7335 133.192C70.2901 137.651 74.7205 143.2 79.8474 148.129C83.7998 151.926 88.0321 153.656 92.4314 153.266C97.4918 152.81 102.544 149.431 106.654 143.752ZM91.5137 70.3361C92.2093 70.077 95.8414 71.0827 103.061 74.9174C108.537 77.8252 113.567 81.075 114.512 82.313C115.315 83.3705 115.642 85.7854 115.452 89.0855C114.103 87.5439 112.621 86.1232 111.025 84.8396C105.477 80.324 98.2404 76.9899 91.663 75.9049C90.038 75.6389 88.5864 75.4504 87.2793 75.3184C89.0277 72.7443 90.5348 70.9524 91.5137 70.3361ZM55.1561 68.8324C55.5934 68.7807 57.1881 68.9332 59.5121 69.4354C62.3177 70.0429 64.021 70.6983 64.4657 71.0211C64.4909 71.3182 64.4758 72.0179 64.2829 73.6264L64.2403 73.6168C62.4532 73.135 60.6028 72.6363 58.689 72.1664C57.1751 71.7949 55.5878 71.385 54.0321 70.9318C54.6756 69.3934 55.05 68.9455 55.1561 68.8324ZM6.64485 51.9771C8.09914 51.4208 14.0844 51.3004 20.2758 51.6954C28.4315 52.228 32.0543 53.2858 32.5122 53.8731C33.0012 54.8906 33.338 57.0778 33.4871 60.1036C30.7371 58.6474 27.8465 57.4738 24.8596 56.6011C18.9881 54.8474 11.9905 54.7354 5.66128 56.2983C4.50209 56.5851 3.35881 56.9328 2.23616 57.3398C3.81617 54.4041 5.40579 52.4497 6.64485 51.9771ZM92.2631 151.495C88.4033 151.841 84.6324 150.273 81.0667 146.845C76.0239 141.998 71.631 136.496 68.1088 132.082C65.1469 128.369 62.8076 125.44 61.1581 124.267C58.9279 122.683 55.898 122.218 52.3891 121.677C50.1202 121.327 47.7725 120.966 45.3465 120.265C44.0647 119.896 42.6043 119.24 41.0581 118.547C37.9368 117.139 34.388 115.555 31.0516 115.796C27.5212 116.052 19.0447 118.852 11.5642 121.325C8.75013 122.256 6.09268 123.133 3.84487 123.83C-1.22976 125.402 -6.69819 124.968 -10.4368 122.696C-13.28 120.969 -15.0361 118.332 -15.6623 114.853C-17.2848 105.84 -18.1427 81.8011 -10.1258 69.0978C-7.38705 64.7515 -3.61254 61.8018 0.525228 59.9096C0.687218 59.8866 0.839701 59.8193 0.9658 59.7151C9.0656 56.17 18.4768 56.5461 24.3499 58.3013C27.6966 59.2644 30.9137 60.6314 33.9301 62.3721L33.9972 62.4107C36.0547 63.6477 38.0034 65.0573 39.8223 66.6242C40.4328 67.1298 40.9595 67.566 41.4507 67.9233C44.2539 69.9685 52.2658 72.4138 58.2741 73.8887C60.1673 74.3546 62.0066 74.8488 63.7874 75.3278C67.7902 76.4047 71.2473 77.3345 73.8119 77.5185C74.9826 77.6016 76.0784 77.4503 77.3474 77.2763C80.0478 76.9041 83.7456 76.3947 91.3758 77.6497C104.251 79.7676 118.975 90.4381 119.515 102.364C120.114 115.579 111.341 134.25 105.221 142.708C101.414 147.97 96.8108 151.087 92.2726 151.498L92.2631 151.495ZM30.0949 68.9925C26.5864 65.7021 22.181 63.526 17.4357 62.7394C12.6905 61.9528 7.81854 62.591 3.43601 64.5733C-0.946531 66.5556 -4.64281 69.793 -7.18538 73.8761C-9.72796 77.9592 -11.0026 82.7045 -10.8482 87.5121C-10.6938 92.3196 -9.11724 96.9734 -6.31788 100.885C-3.51853 104.796 0.377878 107.79 4.87859 109.487C9.3793 111.184 14.2822 111.508 18.9672 110.419C23.6522 109.329 27.9089 106.875 31.1989 103.366C35.6033 98.6578 37.9605 92.3949 37.7535 85.951C37.5466 79.5072 34.7923 73.4084 30.0949 68.9925ZM-1.96178 103.18C-5.21507 100.13 -7.49088 96.1838 -8.50139 91.8405C-9.5119 87.4971 -9.21173 82.9516 -7.63884 78.7789C-6.06595 74.6061 -3.29099 70.9935 0.335122 68.3978C3.96123 65.8022 8.27562 64.3401 12.7327 64.1965C17.1897 64.053 21.5893 65.2343 25.3749 67.5912C29.1606 69.9481 32.1623 73.3746 34.0005 77.4375C35.8387 81.5004 36.4308 86.0171 35.7019 90.4165C34.973 94.8159 32.9559 98.9004 29.9057 102.153C25.8124 106.509 20.1585 109.064 14.1842 109.256C8.20998 109.449 2.40334 107.263 -1.96178 103.18ZM107.188 91.1669C103.678 87.878 99.2713 85.7038 94.5257 84.9191C89.7801 84.1344 84.9083 84.7745 80.5264 86.7585C76.1446 88.7424 72.4494 91.9811 69.9081 96.065C67.3668 100.149 66.0935 104.895 66.2492 109.702C66.4049 114.51 67.9827 119.163 70.783 123.074C73.5832 126.985 77.4803 129.978 81.9814 131.674C86.4824 133.37 91.3854 133.694 96.0703 132.604C100.755 131.513 105.012 129.059 108.301 125.549C112.707 120.84 115.065 114.574 114.856 108.128C114.647 101.682 111.889 95.5818 107.188 91.1669ZM75.1295 125.356C71.8778 122.304 69.6038 118.357 68.5952 114.013C67.5866 109.67 67.8885 105.124 69.4629 100.952C71.0374 96.7801 73.8135 93.1684 77.4404 90.5739C81.0673 87.9794 85.382 86.5185 89.8391 86.3761C94.2961 86.2336 98.6954 87.4159 102.481 89.7734C106.266 92.131 109.267 95.5579 111.105 99.621C112.942 103.684 113.534 108.201 112.805 112.6C112.076 116.999 110.058 121.084 107.008 124.337C102.913 128.695 97.2565 131.249 91.2797 131.44C85.3029 131.631 79.4945 129.443 75.1295 125.356ZM88.8663 103.407C89.8472 104.326 91.0787 104.933 92.405 105.153C93.7312 105.372 95.0927 105.193 96.3173 104.639C97.5419 104.084 98.5745 103.179 99.2847 102.038C99.9948 100.896 100.351 99.5699 100.307 98.2264C100.263 96.8828 99.8222 95.5824 99.0394 94.4895C98.2567 93.3966 97.1675 92.5604 95.9095 92.0866C94.6515 91.6127 93.2812 91.5226 91.972 91.8275C90.6628 92.1324 89.4734 92.8188 88.5542 93.7997C87.3233 95.1158 86.6648 96.8666 86.7233 98.6677C86.7819 100.469 87.5526 102.173 88.8663 103.407ZM96.9502 94.7854C97.6747 95.4653 98.1813 96.3448 98.406 97.3126C98.6307 98.2804 98.5633 99.2931 98.2125 100.223C97.8617 101.152 97.2432 101.957 96.4351 102.535C95.627 103.113 94.6657 103.438 93.6726 103.47C92.6796 103.502 91.6995 103.238 90.8562 102.713C90.0128 102.188 89.3442 101.424 88.9348 100.519C88.5253 99.6137 88.3935 98.6074 88.556 97.6272C88.7184 96.6471 89.1679 95.7371 89.8475 95.0123C90.76 94.0417 92.0204 93.4727 93.3519 93.4301C94.6835 93.3876 95.9776 93.875 96.9502 94.7854ZM85.6868 100.386C84.7061 99.4656 83.4744 98.857 82.1477 98.6371C80.821 98.4172 79.4588 98.5958 78.2336 99.1503C77.0085 99.7048 75.9753 100.61 75.265 101.752C74.5546 102.894 74.199 104.221 74.2431 105.565C74.2872 106.909 74.7291 108.21 75.5128 109.303C76.2965 110.396 77.3868 111.232 78.6457 111.705C79.9046 112.178 81.2755 112.267 82.585 111.96C83.8944 111.654 85.0835 110.966 86.0018 109.983C87.2294 108.667 87.8856 106.918 87.8265 105.12C87.7675 103.321 86.9981 101.619 85.6868 100.386ZM77.6029 109.007C76.878 108.328 76.3707 107.449 76.1451 106.482C75.9195 105.514 75.9858 104.502 76.3355 103.572C76.6852 102.642 77.3027 101.837 78.1099 101.258C78.9171 100.679 79.8779 100.353 80.8707 100.32C81.8635 100.287 82.8438 100.549 83.6877 101.073C84.5316 101.597 85.2012 102.359 85.612 103.263C86.0227 104.168 86.1561 105.174 85.9953 106.154C85.8345 107.134 85.3867 108.045 84.7085 108.771C83.7972 109.743 82.5369 110.315 81.2047 110.359C79.8724 110.403 78.577 109.917 77.6029 109.007ZM105.651 106.374C104.671 105.454 103.439 104.846 102.113 104.627C100.787 104.407 99.425 104.586 98.2002 105.14C96.9754 105.694 95.9424 106.599 95.232 107.74C94.5216 108.882 94.1656 110.208 94.209 111.552C94.2525 112.895 94.6934 114.196 95.476 115.289C96.2587 116.382 97.3479 117.218 98.606 117.692C99.864 118.166 101.234 118.257 102.544 117.952C103.853 117.647 105.043 116.96 105.962 115.979C107.192 114.664 107.851 112.913 107.793 111.113C107.734 109.312 106.964 107.608 105.651 106.374ZM97.5674 114.995C96.8425 114.316 96.3355 113.436 96.1104 112.468C95.8854 111.501 95.9523 110.488 96.3029 109.558C96.6534 108.628 97.2718 107.823 98.0798 107.245C98.8878 106.667 99.8491 106.341 100.842 106.309C101.835 106.277 102.816 106.54 103.659 107.066C104.503 107.591 105.171 108.354 105.581 109.26C105.991 110.165 106.122 111.171 105.96 112.152C105.798 113.132 105.348 114.042 104.669 114.767C103.756 115.737 102.496 116.306 101.165 116.349C99.834 116.392 98.5401 115.905 97.5674 114.995ZM92.5423 113.382C91.5617 112.463 90.3305 111.855 89.0043 111.635C87.6781 111.415 86.3165 111.594 85.0918 112.148C83.867 112.702 82.8341 113.607 82.1235 114.748C81.413 115.889 81.0568 117.215 81.1001 118.559C81.1433 119.902 81.5839 121.203 82.3663 122.296C83.1487 123.389 84.2377 124.226 85.4955 124.7C86.7534 125.174 88.1236 125.265 89.4329 124.96C90.7422 124.656 91.9319 123.97 92.8513 122.989C94.0827 121.673 94.7417 119.923 94.6838 118.122C94.6259 116.321 93.8557 114.616 92.5423 113.382ZM84.4584 122.003C83.7335 121.324 83.2265 120.444 83.0015 119.476C82.7764 118.508 82.8435 117.495 83.1941 116.566C83.5448 115.636 84.1634 114.831 84.9715 114.253C85.7797 113.674 86.7412 113.349 87.7344 113.317C88.7276 113.285 89.7079 113.549 90.5514 114.074C91.3948 114.6 92.0634 115.364 92.4727 116.269C92.882 117.175 93.0136 118.181 92.8508 119.162C92.688 120.142 92.2381 121.052 91.5581 121.776C90.6457 122.745 89.3865 123.313 88.0564 123.354C86.7264 123.396 85.4341 122.908 84.463 121.998L84.4584 122.003ZM26.6545 86.6675C26.2472 86.0456 25.1445 85.686 22.304 84.8696C21.247 84.5681 19.7184 84.1312 19.1276 83.8477C19.1945 83.1964 19.5353 81.6568 19.7941 80.4899C20.6565 76.5928 21.0173 74.6496 20.6261 73.7481C20.1468 72.6394 17.9511 71.7866 16.1956 71.2677C15.3267 71.0119 12.3927 70.2141 11.0731 70.7175C10.2089 71.0463 9.78868 72.4113 8.78192 76.2065C8.41438 77.5996 7.87239 79.6614 7.54788 80.2473C7.00617 80.3195 5.45282 80.1845 4.3963 80.0931C1.17946 79.8108 -0.310141 79.7569 -1.02368 80.385C-2.31494 81.5256 -3.10175 88.8444 -2.71717 89.8339C-2.44158 90.554 -1.64214 90.7933 1.65429 91.5025C2.77051 91.7441 4.55604 92.1272 5.21422 92.4102C5.18102 92.9867 4.97387 94.2476 4.80674 95.2909C4.14471 99.4214 4.00311 100.917 4.47139 101.633C4.5292 101.719 4.59699 101.797 4.67336 101.867C5.80496 102.929 9.59407 103.747 10.3876 103.899C12.4864 104.324 12.9147 104.185 13.2277 103.974C13.6912 103.661 13.879 103.066 14.7018 99.8877C15.0771 98.4442 15.6809 96.1123 16.0412 95.3717C16.5397 95.3682 17.6649 95.4997 18.521 95.6008C22.0854 96.0113 24.3193 96.1982 25.1175 95.1816C25.8676 94.2262 26.4227 91.6967 26.5741 90.9424C27.2513 87.5765 26.8028 86.8916 26.6545 86.6675ZM18.7137 93.8402C16.4145 93.5708 15.6284 93.5051 15.1276 93.7768C14.4354 94.1424 14.0696 95.2485 12.9847 99.4413C12.7225 100.453 12.3824 101.772 12.1686 102.388C10.7982 102.285 6.77101 101.231 5.98594 100.659C5.86617 99.9085 6.31518 97.1002 6.56207 95.5637C6.95557 93.1256 7.0868 92.234 6.93781 91.7449C6.88425 91.5367 6.77208 91.3482 6.61462 91.2019C6.07953 90.7001 4.84327 90.3824 2.01892 89.7756C1.00394 89.5621 -0.480282 89.2367 -1.06773 89.0079C-1.11328 87.592 -0.433686 82.6425 0.142253 81.7334C0.730457 81.5468 2.91897 81.7366 4.2475 81.8522C6.84009 82.0777 7.87963 82.1289 8.48786 81.7848C9.2038 81.3777 9.58678 80.1237 10.5003 76.6482C10.8958 75.1476 11.481 72.9197 11.8415 72.3312C13.1846 72.0716 18.3471 73.5706 18.9949 74.4575C19.154 75.1626 18.4727 78.2543 18.0603 80.1067C17.3646 83.2396 17.2134 84.0942 17.4521 84.6431C17.7576 85.367 18.7704 85.7092 21.8197 86.5816C22.9622 86.9086 24.6474 87.389 25.1599 87.6782C25.3179 88.7377 24.458 93.0534 23.758 94.0526C23.0999 94.3591 20.1507 94.0119 18.7202 93.8462L18.7137 93.8402ZM62.295 101.267C63.4725 100.244 66.2808 92.4544 66.4622 89.1279C66.513 88.1699 66.3608 87.5351 65.984 87.1271C64.8279 85.8912 56.8904 83.5612 55.9868 83.3002C53.586 82.6045 51.313 82.0316 49.5948 81.6934C46.6899 81.1174 45.8719 81.2769 45.4192 81.5329C44.6726 81.9599 43.7283 84.2369 42.6158 88.3036C41.5033 92.3703 41.1588 94.8695 41.6038 95.6877C41.6633 95.8066 41.7443 95.9135 41.8428 96.003C42.3003 96.4319 43.676 97.1841 48.6703 98.7199C52.3456 99.8512 56.3373 100.875 58.8446 101.328C61.2006 101.75 61.8726 101.636 62.295 101.267ZM43.1597 94.7832C42.9808 93.1694 45.3367 84.4267 46.32 83.0702C47.0365 82.9735 50.0341 83.4086 55.6462 85.0436C60.986 86.5996 64.132 87.8937 64.6484 88.302C64.763 88.6495 64.7572 90.2724 63.4844 94.2282C62.582 97.0276 61.6029 99.2446 61.2059 99.8202C60.3156 99.8755 56.9397 99.2315 52.0289 97.853C46.8555 96.4046 43.8405 95.2332 43.1662 94.7892L43.1597 94.7832ZM46.2739 104.548C46.1518 104.26 45.8911 103.66 42.5484 102.44C40.8041 101.779 39.0026 101.281 37.1668 100.951C35.6779 100.724 34.8496 100.856 34.3949 101.39C33.3888 102.573 32.194 105.885 33.1204 107.097C33.1505 107.135 33.1837 107.172 33.2195 107.205C33.9906 107.928 37.1693 109.119 38.5539 109.616C43.6343 111.439 44.3334 111.043 44.6691 110.853C46.201 109.981 46.6949 105.547 46.2739 104.548ZM34.5627 106.022C34.4742 105.416 35.0074 103.519 35.6783 102.639C36.9899 102.325 43.5151 104.419 44.6573 105.319C44.786 106.154 44.3077 108.686 43.8388 109.267C42.4636 109.259 35.7691 106.825 34.5597 106.025L34.5627 106.022ZM64.767 109.393C64.1518 108.689 61.4014 107.799 59.1988 107.17C56.9961 106.542 54.1957 105.851 53.3166 106.109C52.6582 106.305 52.0522 107.156 51.5228 108.637C51.1174 109.776 50.7358 111.317 51.2871 112.128C51.3343 112.203 51.3908 112.271 51.4551 112.332C51.7493 112.607 52.5351 113.056 55.2714 113.899C57.1156 114.476 58.9894 114.953 60.8848 115.328C62.5802 115.639 63.1042 115.553 63.4783 115.291C64.3091 114.703 65.0397 112.848 65.2012 111.486C65.3093 110.555 65.1596 109.849 64.7559 109.389L64.767 109.393ZM52.7891 111.106C52.7397 110.398 53.4294 108.347 53.8985 107.821C55.3309 107.803 62.466 109.848 63.4314 110.568C63.6791 111.104 63.0252 113.195 62.5463 113.757C61.1348 113.792 54.1106 111.881 52.778 111.102L52.7891 111.106Z" fill="black"/>
</g>
<defs>
<clipPath id="clip0_240_3880">
<rect width="138.716" height="133.987" fill="white" transform="translate(51.6484) rotate(43.1577)"/>
</clipPath>
</defs>
</svg>
