<svg width="212" height="141" viewBox="0 0 212 141" fill="none" xmlns="http://www.w3.org/2000/svg">
<path d="M7.0139 68.9845L3.44498 46.8555L7.0139 68.9845ZM7.0139 68.9845L17.3281 132.775M7.0139 68.9845L17.3281 132.775M17.3281 132.775C17.3523 132.923 17.3755 133.067 17.3982 133.209M17.3281 132.775L17.3982 133.209M17.3982 133.209C17.7371 135.32 17.9681 136.759 19.6944 138.152L17.3982 133.209ZM0.854029 34.2886L0.795529 34.449L0.812875 34.6189C1.11546 37.5815 1.62997 40.5868 2.13552 43.5397C2.33316 44.6941 2.52942 45.8405 2.71112 46.9732L2.71122 46.9739L6.28014 69.1029L6.28019 69.1031L16.5944 132.894L16.5946 132.895C16.6203 133.052 16.645 133.207 16.6693 133.36C17.002 135.448 17.2739 137.154 19.2276 138.731L19.2277 138.731C20.4731 139.735 21.75 140.08 23.195 140.013L23.1952 140.013C25.4923 139.907 27.88 139.454 30.1723 139.019C31.1966 138.825 32.2019 138.634 33.1715 138.48L33.1723 138.48L53.3701 135.239L53.3709 135.239L88.6018 129.626C90.5358 129.32 92.4783 129.026 94.4242 128.731C98.662 128.088 102.916 127.443 107.132 126.672C110.316 126.393 113.522 125.846 116.675 125.308C117.903 125.099 119.124 124.891 120.332 124.7L120.332 124.7L144.161 120.925L144.161 120.925L157.462 118.815L157.462 118.815C158.039 118.723 158.62 118.652 159.223 118.579C159.649 118.527 160.087 118.473 160.542 118.41C161.578 118.267 162.644 118.079 163.628 117.753C169.871 117.026 176.131 115.928 182.349 114.837C185.355 114.31 188.35 113.784 191.33 113.303C191.33 113.303 191.331 113.303 191.331 113.303L201.572 111.672C202.015 111.601 202.483 111.537 202.965 111.471C204.417 111.273 205.995 111.057 207.403 110.591L207.403 110.591C208.766 110.141 209.757 108.973 210.279 107.646L210.279 107.646C210.821 106.269 210.622 104.843 210.449 103.612C210.44 103.543 210.43 103.475 210.421 103.407C209.73 98.4078 208.874 93.3901 208.021 88.3943C207.57 85.7533 207.12 83.1185 206.697 80.4957L198.973 32.7115L198.973 32.711L196.064 14.6274C195.926 13.7546 195.806 12.8288 195.681 11.857C195.569 10.9986 195.454 10.1042 195.317 9.17847C195.035 7.26885 194.677 5.33651 194.119 3.77576C193.529 2.12853 192.252 1.43418 191.161 0.869238L190.963 0.766398L190.74 0.790243C187.211 1.16864 183.668 1.78582 180.164 2.3961C178.622 2.66479 177.087 2.93214 175.564 3.17718L146.709 7.82601L60.3077 21.7355L60.3071 21.7356L19.7554 28.2956L19.7552 28.2956L8.50036 30.1199C8.50029 30.12 8.50022 30.12 8.50015 30.12C8.50009 30.12 8.50003 30.12 8.49997 30.12C8.04831 30.193 7.59946 30.2461 7.12609 30.3021C6.77593 30.3435 6.41234 30.3865 6.02427 30.4403C5.15972 30.5602 4.25211 30.7263 3.43146 31.0405L3.43144 31.0405C1.84804 31.6469 1.3253 32.9967 0.854029 34.2886ZM209.588 107.374C209.121 108.558 208.266 109.523 207.17 109.885L205.963 80.6143C206.389 83.2512 206.84 85.8927 207.291 88.5366C208.142 93.5242 208.995 98.5201 209.685 103.509C209.692 103.56 209.699 103.612 209.706 103.663C209.883 104.938 210.056 106.184 209.588 107.374Z" fill="#FDBE31" stroke="black" stroke-width="1.48649"/>
<path d="M97.5643 22.5898C97.9127 22.5234 98.1987 22.4784 98.5566 22.4969C99.1593 22.5282 99.7487 22.8991 100.102 23.3764C100.141 23.4291 100.178 23.4834 100.211 23.5398C100.245 23.5961 100.275 23.6537 100.303 23.7131C100.33 23.7724 100.354 23.8334 100.376 23.8952C100.397 23.957 100.415 24.0199 100.43 24.0837C100.445 24.1475 100.457 24.2118 100.465 24.2767C100.473 24.3419 100.478 24.407 100.48 24.4726C100.482 24.5379 100.48 24.6034 100.475 24.6687C100.47 24.734 100.461 24.7988 100.45 24.8632C100.31 25.6628 99.8637 26.0531 99.2149 26.4815C99.1038 26.4932 98.9929 26.5039 98.8816 26.514C98.1229 26.5761 97.4494 26.4924 96.8846 25.9294C96.5061 25.5521 96.3453 25.0261 96.3839 24.5007C96.4476 23.6351 96.9458 23.1361 97.5643 22.5898Z" fill="#010002"/>
<path d="M7.67737 48.2217C8.16631 47.1248 8.60199 46.2737 9.79397 45.8569C11.2231 45.3571 13.025 45.2646 14.5283 45.0218L25.351 43.2693L64.3442 36.9656L147.423 23.5906L175.169 19.1208C179.999 18.3434 184.866 17.3817 189.723 16.8231C190.755 17.2651 191.725 17.7229 192.158 18.8263C193.112 21.2575 193.336 24.97 193.753 27.6278L196.144 42.4886L202.494 81.75C203.505 88.0039 204.714 94.285 205.557 100.56C205.703 101.653 205.873 102.72 205.379 103.752C204.906 104.739 204.066 105.554 203.008 105.878C201.271 106.408 199.304 106.585 197.509 106.871L187.661 108.443C178.803 109.872 169.883 111.637 160.981 112.728C159.172 113.295 156.987 113.433 155.095 113.735L142.306 115.768L119.395 119.406C115.198 120.07 110.948 120.907 106.722 121.32C100.803 122.384 94.8294 123.225 88.889 124.167L55.0126 129.573L35.5909 132.691C32.4799 133.187 29.2166 133.969 26.0789 134.167C24.8513 134.243 23.8092 134.022 22.7827 133.319C21.0507 132.133 20.9508 130.867 20.6338 128.934L12.1534 76.5219L9.22026 58.3399C8.68454 54.998 7.98798 51.5899 7.67737 48.2217Z" fill="#250C42"/>
<path d="M176.821 37.1088C176.887 37.0443 176.941 36.9652 177.019 36.9148C177.39 36.6742 177.851 36.6925 178.268 36.7206L179.027 37.0375C178.329 37.2414 177.718 37.3527 176.991 37.3773L176.821 37.1088Z" fill="#171033"/>
<path d="M16.5788 92.8718C21.3749 91.9391 26.2685 91.3638 31.0927 90.5672C32.4562 90.3422 36.4633 89.4232 37.54 89.4584C37.6588 89.4625 38.0747 89.7392 38.2048 89.8077C38.1482 89.8462 38.0938 89.888 38.0346 89.9228C37.4246 90.2825 20.1061 92.767 17.9283 92.9607C17.4384 93.0041 17.0592 92.9958 16.5788 92.8718Z" fill="#171033"/>
<path d="M16.9451 101.4C19.1863 101.04 33.5445 98.3457 34.8542 98.785C33.8549 99.9616 30.6539 99.9798 29.1673 100.099C25.1188 100.425 21.1138 101.145 17.1089 101.807L16.9451 101.4Z" fill="#171033"/>
<path d="M85.173 51.3912L84.9874 51.2566L85.0564 50.9598C85.8158 50.5208 86.5839 50.4182 87.4498 50.471C87.7572 50.6522 87.8533 50.7091 88.0616 51.0128L88.2429 51.7529L89.7715 61.2901L93.6715 60.8123C93.2112 60.9107 92.5379 60.9498 92.2167 61.2821C89.6862 61.7527 87.1475 62.172 84.6002 62.5406C85.2188 62.2597 85.9271 62.1136 86.582 61.9307C85.9683 59.2454 85.382 56.0997 85.4485 53.3422C85.4238 52.6966 85.2732 52.0307 85.173 51.3912Z" fill="#09FE09"/>
<path d="M85.173 51.3912L84.9874 51.2566L85.0564 50.9598C85.8158 50.5208 86.5839 50.4182 87.4498 50.471C87.7572 50.6522 87.8533 50.7091 88.0616 51.0128L88.2429 51.7529L89.7715 61.2901L93.6715 60.8123C93.2112 60.9107 92.5379 60.9498 92.2167 61.2821C89.6862 61.7527 87.1475 62.172 84.6002 62.5406C85.2188 62.2597 85.9271 62.1136 86.582 61.9307C85.9683 59.2454 85.382 56.0997 85.4485 53.3422C86.0864 56.1143 86.396 59.0315 86.8774 61.8428L89.251 61.4238C88.7845 57.8823 88.1376 54.3526 87.5634 50.8268C86.835 50.9048 85.7278 50.8899 85.173 51.3912Z" fill="#010002"/>
<path d="M7.67737 48.2217C8.16631 47.1248 8.60199 46.2737 9.79397 45.8569C11.2231 45.3571 13.025 45.2646 14.5283 45.0218L25.351 43.2693L64.3442 36.9656L147.423 23.5906L175.169 19.1208C179.999 18.3434 184.866 17.3817 189.723 16.8231C190.755 17.2651 191.725 17.7229 192.158 18.8263C193.112 21.2575 193.336 24.97 193.753 27.6278L196.144 42.4886L202.494 81.75C203.505 88.0039 204.714 94.285 205.557 100.56C205.703 101.653 205.873 102.72 205.379 103.752C204.906 104.739 204.066 105.554 203.008 105.878C201.271 106.408 199.304 106.585 197.509 106.871L187.661 108.443C178.803 109.872 169.883 111.637 160.981 112.728C161.198 112.535 161.376 112.427 161.659 112.353C164.829 111.531 168.309 111.172 171.553 110.598C182.112 108.73 192.828 107.364 203.327 105.211C204.198 104.466 204.703 103.733 205.141 102.674C204.887 100.264 204.388 97.8336 203.997 95.4388L201.837 82.1515L193.994 34.3003L194.035 34.0298C193.108 29.082 192.363 24.0653 191.671 19.0785C191.044 18.2627 190.558 17.657 189.492 17.5053C187.981 17.2902 183.069 18.4352 181.239 18.7366L161.373 21.9946C126.879 27.3799 92.4142 32.9461 57.9787 38.6927L24.3067 44.1006L14.8875 45.6203C13.1863 45.8929 11.3813 46.0682 9.72628 46.5494C9.12877 47.061 8.6495 47.5672 8.56002 48.385C8.31828 50.5889 9.84904 57.5031 10.2659 59.9733L14.722 87.5474C15.4329 91.8908 16.7422 97.1392 16.9463 101.4L17.1101 101.806C18.0433 107.505 19.0483 113.205 19.8637 118.922C20.4563 123.101 20.8823 127.476 21.8053 131.586C22.7872 132.669 23.7686 133.558 25.3003 133.606C27.1345 133.663 29.1963 133.118 31.012 132.823C34.4909 132.246 37.9736 131.692 41.4601 131.163C56.8424 128.813 72.2126 126.385 87.5701 123.879L101.466 121.662C104.399 121.202 107.46 120.617 110.422 120.471C109.593 121.032 107.741 121.01 106.722 121.32C100.803 122.384 94.8294 123.225 88.889 124.167L55.0126 129.573L35.5909 132.691C32.4799 133.187 29.2166 133.969 26.0789 134.167C24.8513 134.243 23.8092 134.022 22.7827 133.319C21.0507 132.133 20.9508 130.867 20.6338 128.934L12.1534 76.5219L9.22026 58.3399C8.68454 54.998 7.98798 51.5899 7.67737 48.2217Z" fill="#010002"/>
<path d="M72.3186 42.6751L72.7023 42.5441C72.7984 42.6153 72.9266 42.6571 72.991 42.758C73.4929 43.5455 74.6767 51.7726 74.9098 53.2905C75.007 53.9254 75.027 54.571 75.0224 55.2123C76.8258 54.8752 78.6233 54.4605 80.4381 54.1939C80.7707 55.6278 81.7595 62.1009 82.2292 62.7205L82.6321 62.8171C83.2844 62.7407 83.9638 62.6975 84.6013 62.5403C87.1486 62.1718 89.6873 61.7524 92.2178 61.2818C92.539 60.9495 93.2123 60.9104 93.6726 60.812L89.7726 61.2898L88.244 51.7526L88.0627 51.0125C88.594 50.9587 89.1984 50.8289 89.7128 50.9669C94.308 50.5059 98.8841 49.669 103.442 48.934C114.649 47.1265 125.803 44.9785 137.04 43.3599C140.459 42.8186 144.014 42.0181 147.461 41.7727C151.989 41.1794 156.476 40.1215 161.025 39.6951L161.189 39.585C160.831 36.8474 160.33 34.1123 159.9 31.3841C161.003 30.9795 162.036 30.8405 163.199 30.831C163.784 33.4169 164.076 36.075 164.575 38.6815C164.949 38.6301 165.427 38.4945 165.789 38.5949C168.592 38.4196 171.301 37.55 174.078 37.3056L173.632 37.5754L173.732 37.7702C174.656 37.6655 176.04 37.6279 176.823 37.1101L176.993 37.3786L176.455 37.6388C176.724 37.6625 176.936 37.5965 177.115 37.8258C178.143 39.1447 178.567 44.5818 178.856 46.5069C180.386 46.2892 181.922 46.0897 183.444 45.8231C183.36 48.1353 184.018 50.2694 184.153 52.5393L187.526 73.5787C188.132 77.3314 188.591 81.1863 189.369 84.9032C190.069 87.5839 192.211 97.5475 192.142 99.957C191.832 100.291 190.984 100.366 190.526 100.449C185.65 101.341 180.725 102.044 175.832 102.84L138.54 108.77L56.6323 122.027L36.3544 125.271C33.1916 125.774 29.8639 126.027 26.7559 126.76C26.9092 124.015 26.0276 120.713 25.4281 118.027C25.6209 116.474 24.4964 112.009 24.1429 110.31C25.5122 110.157 27.4045 110.187 28.5077 109.325C29.4307 107.808 27.3657 103.64 27.7011 101.641C27.7521 101.338 27.7994 101.378 28.0262 101.209L28.4301 101.276C29.0778 101.22 29.6931 101.175 30.3187 100.99L30.7028 100.796C31.0686 101.01 31.1174 101.22 31.2187 101.615C31.5042 102.727 32.0294 108.717 32.4787 109.063C32.5344 109.106 32.6007 109.134 32.662 109.169C33.8667 108.965 35.1494 108.83 36.3213 108.491L36.911 108.241C37.2571 107.281 35.7984 99.9623 35.5462 98.2687C36.8035 98.0731 39.3368 98.042 40.3307 97.3232C40.5658 97.1533 40.5407 96.7327 40.5814 96.4572C40.3597 93.9361 39.808 91.3638 39.4127 88.8601C39.0824 86.7705 38.9484 84.1664 38.2114 82.1966L38.1571 82.4442L37.6666 80.8586L41.2524 80.2864C42.3104 85.7439 43.18 91.3229 43.9503 96.8294C45.4103 96.663 46.8505 96.4608 48.2964 96.201C47.9768 94.339 47.5773 92.4558 47.4209 90.5731C48.775 90.1817 50.1438 89.8688 51.5174 89.5541C50.901 86.1982 50.3533 82.831 49.8742 79.453C50.9628 79.2163 52.0485 78.9558 53.1566 78.8276C53.8865 82.1819 54.4858 85.6538 54.9431 89.0557C56.614 88.7791 58.2861 88.4672 59.9756 88.3341C59.8493 87.2633 59.732 86.2128 59.722 85.1332C59.9642 86.1754 60.1061 87.3977 60.4788 88.3876C59.2441 79.1109 57.502 69.4534 55.9501 60.193L55.9535 59.9573C57.1069 59.4388 58.6432 59.3078 59.8908 59.0622C59.3498 56.5779 59.0612 54.0229 58.7059 51.5066C59.8101 51.2821 60.8679 51.1261 61.9929 51.0565C62.6937 53.5093 62.9642 56.1369 63.3274 58.657C64.5428 58.4343 65.8809 58.5288 66.9748 57.925C67.3244 57.4099 67.2388 57.165 67.2296 56.5542C68.5165 56.2927 70.7788 56.1131 71.8659 55.3817C72.3019 53.0301 70.3891 46.3843 70.1879 43.4473C70.185 43.4017 70.1827 43.3559 70.1799 43.3107C70.76 42.8879 71.6235 42.8157 72.3186 42.6751Z" fill="#250C42"/>
<path d="M63.2129 75.9092L65.4539 75.5674L66.619 82.7484L64.3805 83.1031L63.2129 75.9092Z" fill="#FE520C"/>
<path d="M28.4288 101.276C29.0764 101.22 29.6918 101.175 30.3173 100.99C30.8672 101.666 31.5653 107.689 31.7612 108.98L29.3024 109.37C28.9577 107.354 27.9703 103.312 28.1206 101.526L28.4288 101.276Z" fill="#09FE09"/>
<path d="M140.465 66.4448L142.63 66.0907L144.127 75.4965L141.956 75.8433C141.426 72.7155 140.93 69.5827 140.465 66.4448Z" fill="#FEF508"/>
<path d="M171.997 23.9208L174.533 23.5193C174.928 26.3705 175.418 29.2141 175.868 32.058L173.371 32.4589L171.997 23.9208Z" fill="#09FE09"/>
<path d="M50.4311 79.7022L52.6229 79.3097C53.1053 82.6318 53.691 85.9407 54.1858 89.2619L51.9851 89.6371C51.3259 86.368 50.9366 83.0008 50.4311 79.7022Z" fill="#FE520C"/>
<path d="M77.5711 75.3035C77.6766 75.4053 77.8121 75.4835 77.8873 75.6093C78.3122 76.3194 79.6377 86.0607 79.8959 87.6827L77.5266 88.0754C77.0353 85.1769 76.2747 78.41 75.4324 75.9391C76.0125 75.5163 76.876 75.4441 77.5711 75.3035Z" fill="#09FE09"/>
<path d="M38.2093 82.1962C38.1945 81.6402 38.1119 81.4726 38.4524 81.016C39.1845 80.6623 39.9747 80.7241 40.764 80.6104C41.6704 86.0213 42.5476 91.4373 43.3955 96.8577C42.6866 97.0087 41.4852 97.4069 40.8256 97.0691C40.7434 96.8697 40.6444 96.6624 40.5793 96.4568C40.3576 93.9357 39.8059 91.3634 39.4106 88.8597C39.0803 86.7701 38.9463 84.166 38.2093 82.1962Z" fill="#09FE09"/>
<path d="M160.493 31.5692L162.762 31.2069L166.465 53.527L164.019 53.955L160.493 31.5692Z" fill="#09FE09"/>
<path d="M164.573 38.6812C164.947 38.6298 165.424 38.4943 165.787 38.5946C168.59 38.4193 171.298 37.5498 174.076 37.3053L173.63 37.5751L173.73 37.7699C174.653 37.6652 176.038 37.6276 176.82 37.1098L176.991 37.3783L176.453 37.6386C175.666 37.8519 174.822 37.8845 174.012 37.9644C174.323 40.979 174.721 44.0287 175.232 47.0155L170.898 47.8C171.16 49.4719 171.417 51.12 171.495 52.8139L167.006 53.4935C166.207 48.5573 165.475 43.5993 164.573 38.6812Z" fill="#250C42"/>
<path d="M36.3197 108.491L36.8673 108.555C37.4433 109.409 39.1922 122.133 39.5207 124.201L27.2616 126.247C26.4606 121.004 25.6144 115.768 24.7237 110.539C27.3793 110.129 30.0309 109.728 32.6604 109.169C33.8651 108.965 35.1478 108.829 36.3197 108.491Z" fill="#09FE09"/>
<path d="M44.9416 97.0137C46.0158 96.7728 47.1313 96.6529 48.2216 96.4968L52.3817 122.055L43.4375 123.501L40.0023 124.049C38.7703 115.533 37.4149 107.037 35.936 98.5604C38.9349 98.0929 41.988 97.716 44.9416 97.0137Z" fill="#09FE09"/>
<path d="M47.8794 90.7071L59.8813 88.7381C61.3756 99.1887 63.2654 109.613 64.9625 120.034L52.9321 121.979C51.1737 111.567 49.4894 101.143 47.8794 90.7071Z" fill="#FB6A09"/>
<path d="M108.695 67.2089C109.045 67.3869 109.02 67.3902 109.126 67.752C109.457 68.8787 109.522 70.2072 109.715 71.3788L111.171 80.1008L116.347 111.821C112.145 112.482 107.943 113.199 103.732 113.79L99.2813 86.1533C98.4617 81.1079 97.7923 75.9817 96.7781 70.9741L96.547 69.3184C100.378 68.6211 104.225 68.0668 108.051 67.3268L108.695 67.2089Z" fill="#09FE09"/>
<path d="M168.822 33.3128C172.772 32.727 176.713 32.0902 180.646 31.402L181.98 39.512L186.289 66.3649C187.062 71.1548 187.693 76.0678 188.637 80.8197C189.548 87.0829 190.632 93.3448 191.684 99.5874L179.708 101.522C176.21 78.7884 172.755 55.9733 168.822 33.3128Z" fill="#09FE09"/>
<path d="M59.6142 82.6331C63.3896 82.097 67.1581 81.5113 70.9188 80.8757L76.8718 118.076C73.1149 118.691 69.3557 119.292 65.5944 119.878L63.4993 106.721C63.1544 104.566 62.9862 102.308 62.4314 100.198C61.7563 94.4041 60.6031 88.3986 59.6142 82.6331Z" fill="#FEF508"/>
<path d="M100.097 59.5402C101.084 59.4178 102.076 59.3205 103.04 59.0683C103.768 61.9076 104.324 64.7045 104.729 67.6073C105.803 67.4961 106.978 67.2783 108.052 67.3252C104.225 68.0652 100.378 68.6195 96.5477 69.3168L96.7788 70.9725C96.3505 72.2467 101.259 100.292 102.006 104.917C102.387 107.273 103.369 111.305 103.243 113.581L103.089 113.811C101.859 114.264 100.323 114.361 99.0214 114.569L90.66 115.884C88.7529 102.723 86.4871 89.597 84.367 76.4688L82.9468 67.8142C82.7009 66.3507 82.1679 64.5286 82.2794 63.0546L82.6308 62.8161C83.283 62.7397 83.9624 62.6965 84.5999 62.5393C87.1472 62.1708 89.6859 61.7514 92.2164 61.2808C92.5376 60.9485 93.2109 60.9094 93.6712 60.811C94.1205 60.6912 94.2763 60.5928 94.7247 60.7468C95.4678 63.4219 95.9771 66.2758 96.4571 69.0109C98.121 68.7375 99.7621 68.4347 101.408 68.0626C100.927 65.2286 100.49 62.3879 100.097 59.5402Z" fill="#09FE09"/>
<path d="M100.097 59.5405C101.084 59.4181 102.076 59.3208 103.04 59.0686C103.768 61.9079 104.324 64.7048 104.729 67.6076C105.803 67.4964 106.978 67.2786 108.052 67.3255C104.226 68.0655 100.378 68.6198 96.5479 69.3171L96.779 70.9728C96.3507 72.2469 101.259 100.292 102.006 104.917C102.388 107.274 103.369 111.306 103.243 113.582C102.711 111.755 102.524 109.707 102.222 107.824L100.49 97.0522L94.6591 60.9042L92.2166 61.2811C92.5379 60.9488 93.2111 60.9097 93.6714 60.8113C94.1207 60.6915 94.2766 60.593 94.7249 60.7471C95.468 63.4221 95.9773 66.2761 96.4574 69.0112C98.1213 68.7378 99.7623 68.435 101.408 68.0629C100.927 65.2288 100.49 62.3882 100.097 59.5405Z" fill="#010A00"/>
<path d="M100.471 59.713L102.927 59.3405C103.389 62.0642 103.881 64.7874 104.235 67.5275L101.853 67.9496C101.353 65.2105 100.893 62.465 100.471 59.713Z" fill="#09FE09"/>
<path d="M72.271 86.4188C76.539 85.6775 80.849 85.0532 85.1275 84.3297L90.1902 115.927L77.2414 118.022C75.7201 107.473 74.135 96.9119 72.271 86.4188Z" fill="#09FE09"/>
<path d="M88.0625 51.0127C88.5938 50.9589 89.1982 50.8291 89.7126 50.9671C94.3078 50.5061 98.8838 49.6692 103.442 48.9342C114.649 47.1267 125.803 44.9787 137.04 43.3602C140.459 42.8188 144.014 42.0184 147.461 41.7729C151.989 41.1796 156.476 40.1217 161.025 39.6953L161.189 39.5852C161.959 44.3761 162.691 49.1766 163.516 53.9579C162.043 54.264 160.566 54.6139 159.078 54.8313C159.599 57.7768 160.06 60.5891 160.123 63.5897C158.556 63.8379 156.985 64.069 155.429 64.3779C154.983 60.9523 154.52 55.7427 153.334 52.5632L153.04 52.5009L152.932 52.5764C152.355 52.7335 151.771 52.7852 151.178 52.851C150.754 52.8046 150.666 52.8153 150.271 52.9768C150.697 56.9791 151.55 60.9966 152.127 64.9895C150.74 65.3009 149.318 65.5654 147.967 66.0089C147.606 68.3451 148.868 72.1456 148.977 74.7448C147.568 74.9529 146.162 75.175 144.757 75.4114C143.928 70.2002 143.224 64.7967 142.045 59.657L139.064 60.1018C139.778 65.3563 140.571 70.5989 141.443 75.8297L136.519 76.7488C136.863 79.3038 137.624 82.0575 137.647 84.6109C137.381 84.7848 137.122 84.9252 136.833 85.0593C135.839 85.4086 134.702 85.524 133.661 85.7039L127.818 86.6312C127.2 86.746 126.571 86.8124 125.948 86.8936C124.736 86.288 125.014 80.5515 123.869 79.1806C123.456 79.1881 123.451 79.1974 123.129 79.4585L120.181 79.9687L120.151 79.8301L119.555 79.7251C119.081 79.2648 116.837 63.8879 116.41 62.0638C115.331 62.2396 114.308 62.4433 113.265 62.7743C113.498 64.8568 114.069 66.9182 114.393 68.9924C114.975 72.7162 115.407 76.4591 116.008 80.1818C114.632 80.5526 113.28 80.8849 111.871 81.107C111.496 78.4319 110.913 75.7878 110.477 73.1216C110.159 71.1758 110.064 68.9102 109.435 67.0643C109.014 66.9586 109.058 67.0215 108.696 67.2084L108.053 67.3264C106.979 67.2795 105.804 67.4973 104.73 67.6085C104.325 64.7057 103.769 61.9088 103.041 59.0695C102.077 59.3217 101.085 59.419 100.098 59.5414C100.491 62.3891 100.928 65.2298 101.409 68.0638C99.7633 68.4359 98.1222 68.7387 96.4583 69.0121C95.9783 66.277 95.4689 63.4231 94.7259 60.7481C94.2775 60.594 94.1217 60.6924 93.6723 60.8122L89.7723 61.29L88.2438 51.7528L88.0625 51.0127Z" fill="#250C42"/>
<path d="M88.0625 51.0127C88.5938 50.9589 89.1982 50.8291 89.7126 50.9671C89.988 51.1006 90.2021 51.2221 90.507 51.2696C89.7568 51.4495 89.0022 51.6106 88.2438 51.7528L88.0625 51.0127Z" fill="#171033"/>
<path d="M128.808 81.4166L132.145 80.7672C132.622 82.2229 132.585 84.1873 133.241 85.5008L133.66 85.703L127.817 86.6303L129.618 86.0187C129.343 84.4899 129.019 82.9545 128.808 81.4166Z" fill="#010002"/>
<path d="M110.322 42.5568L110.156 42.5835L110.182 42.749L112.864 59.9953L112.89 60.162L113.057 60.1359L115.531 59.7488L115.699 59.7225L115.671 59.5547C114.717 53.8121 113.81 48.0619 112.949 42.3046L112.924 42.136L112.755 42.1632L110.322 42.5568Z" fill="#09FE09" stroke="black" stroke-width="0.336971"/>
<path d="M126.157 61.263L125.987 61.2884L126.016 61.4579L126.761 65.8459L126.789 66.0111L126.954 65.984L129.384 65.5857L129.548 65.5587L129.523 65.394L128.858 61.0296L128.832 60.8635L128.666 60.8883L126.157 61.263Z" fill="#09FE09" stroke="black" stroke-width="0.336971"/>
<path d="M133.215 63.1054L133.167 63.1027L133.125 63.1256C132.667 63.3747 132.161 63.5143 131.634 63.6149C131.371 63.6652 131.105 63.7055 130.837 63.7453C130.823 63.7475 130.808 63.7497 130.794 63.7518C130.542 63.7892 130.29 63.8268 130.043 63.8722L124.234 64.781L124.234 64.7808L124.226 64.7826C123.77 64.8783 123.306 64.92 122.832 64.9626C122.707 64.9739 122.581 64.9853 122.453 64.9977L122.434 64.9804L122.166 64.7399L122.153 65.0998L122.138 65.5171L122.058 65.529C122.308 68.7223 122.938 72.2472 123.546 75.6467C123.797 77.0518 124.045 78.4355 124.26 79.7655L129.061 109.645L129.088 109.811L129.254 109.785L141.408 107.859L141.575 107.833L141.548 107.666L136.706 77.7209C136.706 77.7209 136.706 77.7209 136.706 77.7208C136.488 76.3737 136.285 74.97 136.078 73.5462C135.587 70.1574 135.079 66.6551 134.326 63.5325L134.309 63.4613L134.245 63.4253C133.879 63.2182 133.586 63.1264 133.215 63.1054Z" fill="#09FE09" stroke="black" stroke-width="0.336971"/>
<path d="M108.606 60.6033L108.445 60.6353L108.472 60.797C111.367 77.706 114.106 94.64 116.692 111.599L116.717 111.766L116.884 111.74L128.729 109.902L128.897 109.876L128.87 109.708L123.33 75.5592C123.33 75.559 123.33 75.5588 123.33 75.5587C123.203 74.7598 123.016 73.4491 122.795 71.9032C122.583 70.4215 122.34 68.7239 122.09 67.054C121.835 65.3497 121.573 63.6761 121.329 62.296C121.085 60.9211 120.858 59.8237 120.671 59.2815L120.658 59.2414L120.626 59.2126C120.621 59.2074 120.615 59.2021 120.61 59.1969C120.488 59.0848 120.396 58.9994 120.294 58.9486C120.178 58.8912 120.059 58.8818 119.905 58.8753L119.886 58.8745L119.868 58.8778L116.908 59.4135C116.907 59.4135 116.907 59.4136 116.907 59.4136C115.692 59.6202 114.468 59.7698 113.239 59.92C113.08 59.9395 112.921 59.9589 112.761 59.9785C111.374 60.1492 109.983 60.33 108.606 60.6033Z" fill="#09FE09" stroke="black" stroke-width="0.336971"/>
<path d="M136.352 41.0728L138.581 40.7345L139.526 46.8158L137.361 47.1699L136.352 41.0728Z" fill="#09FE09"/>
<path d="M149.826 33.3011C150.419 34.1721 151.575 43.2959 151.85 45.0422C151.015 45.2196 150.168 45.3556 149.328 45.5079C149.015 43.5853 147.312 35.1298 147.636 33.7886L148.072 33.5757C148.665 33.5098 149.248 33.4582 149.826 33.3011Z" fill="#09FE09"/>
<path d="M132.484 47.7605L144.072 45.8252C147.179 65.7725 150.502 85.703 153.748 105.629C152.001 106.721 144.672 107.277 142.228 107.658C139.035 87.6836 135.787 67.7177 132.484 47.7605Z" fill="#09FE09"/>
<path d="M144.552 43.8171L156.393 41.7921L166.402 103.664L154.424 105.59C151.279 84.9897 147.827 64.4012 144.552 43.8171Z" fill="#09FE09"/>
<path d="M156.777 39.0395L168.957 37.0388C172.266 58.54 176.092 79.9902 179.215 101.515C175.215 102.238 171.207 102.908 167.189 103.526C163.988 81.9964 159.914 60.5775 156.777 39.0395Z" fill="#09FE09"/>
</svg>
