<svg width="67" height="67" viewBox="0 0 67 67" fill="none" xmlns="http://www.w3.org/2000/svg">
<path d="M66.4649 33.5002C66.4649 33.999 66.4542 34.4965 66.4313 34.9899C66.0391 43.678 62.2367 51.8609 55.8491 57.7631C49.4615 63.6653 41.0041 66.8105 32.3122 66.5163C23.6202 66.2221 15.3949 62.5122 9.42102 56.1916C3.44717 49.871 0.206766 41.4496 0.402947 32.7549C0.599128 24.0601 4.21607 15.7935 10.4689 9.74873C16.7218 3.70399 25.1061 0.368828 33.8025 0.466949C42.4989 0.565071 50.8058 4.08856 56.9206 10.2728C63.0355 16.4571 66.465 24.8033 66.4649 33.5002Z" fill="#69CDE0"/>
<path d="M66.4639 33.5004C66.4639 33.9991 66.4532 34.4966 66.4303 34.99L33.6008 33.5111L33.5 33.5918L33.5269 33.5084H33.5L33.5323 33.4963L43.8279 2.19141C49.9483 4.21875 55.3419 7.99252 59.3439 13.0476L33.7003 33.4264L64.4097 22.0324C65.7725 25.7021 66.4682 29.5858 66.4639 33.5004Z" fill="#FCBB41"/>
<path d="M33.5013 33.3809L28.4933 29.2751L25.9564 27.1952L8.07422 12.5329C9.93517 10.278 12.0861 8.27902 14.471 6.58789L27.8628 25.4408L29.7638 28.1175L33.5013 33.3809Z" fill="#FCBB41"/>
<path d="M33.6011 33.5049L29.666 38.8113L27.7099 41.4491L13.9376 60.025C9.25634 56.5677 5.56928 51.9374 3.24805 46.6009L24.49 37.4373L27.5042 36.1373L33.5164 33.5425L33.5998 33.5062L33.6011 33.5049Z" fill="#FCBB41"/>
<path d="M52.2857 60.5849C50.455 61.8587 48.4996 62.9429 46.4495 63.8209L37.5588 42.4621L36.3004 39.4277L33.8388 33.5122L33.7891 33.3926L33.8711 33.5136L37.4298 38.7434L39.2783 41.4605L52.2857 60.5849Z" fill="#FCBB41"/>
<path d="M33.5006 23.6621C35.4461 23.6624 37.3478 24.2395 38.9653 25.3205C40.5828 26.4016 41.8435 27.9379 42.5879 29.7354C43.3323 31.5328 43.5269 33.5106 43.1473 35.4187C42.7677 37.3268 41.8309 39.0795 40.4552 40.4552C39.0795 41.8309 37.3268 42.7677 35.4187 43.1473C33.5106 43.5269 31.5328 43.3323 29.7354 42.5879C27.9379 41.8435 26.4016 40.5828 25.3205 38.9653C24.2395 37.3478 23.6624 35.4461 23.6621 33.5006C23.6628 30.8915 24.6996 28.3894 26.5445 26.5445C28.3894 24.6996 30.8915 23.6628 33.5006 23.6621Z" fill="#FCBB41"/>
<path d="M33.5 26.9473C34.796 26.9473 36.0629 27.3316 37.1405 28.0516C38.2181 28.7716 39.058 29.795 39.5539 30.9924C40.0499 32.1897 40.1796 33.5073 39.9268 34.7784C39.674 36.0495 39.0499 37.2171 38.1335 38.1335C37.2171 39.0499 36.0495 39.674 34.7784 39.9268C33.5073 40.1796 32.1897 40.0499 30.9924 39.5539C29.795 39.058 28.7716 38.2181 28.0516 37.1405C27.3316 36.0629 26.9473 34.796 26.9473 33.5C26.948 31.7623 27.6386 30.096 28.8673 28.8673C30.096 27.6386 31.7623 26.948 33.5 26.9473Z" fill="#AB5995"/>
<path d="M64.9143 21.8455C63.6904 18.5487 61.9525 15.4664 59.7651 12.7128C54.4478 5.98974 46.7545 1.56187 38.2702 0.341313C29.7858 -0.879244 21.1564 1.20047 14.1595 6.15205C9.78527 9.2469 6.21671 13.3453 3.75305 18.1038C1.28939 22.8622 0.00242735 28.1419 6.27813e-05 33.5003C-0.00883919 38.0794 0.929031 42.6108 2.75479 46.8101C5.11355 52.2329 8.85991 56.9383 13.6164 60.452C18.3099 63.9162 23.8265 66.0951 29.6205 66.773C35.4145 67.4509 41.2851 66.6044 46.6516 64.3172C48.7359 63.428 50.7243 62.3289 52.5859 61.0368C56.7545 58.1328 60.2159 54.3277 62.7134 49.9037C65.287 45.3501 66.7435 40.2508 66.9632 35.0249C66.9847 34.5355 66.9968 34.026 66.9968 33.5111C67.0047 29.5294 66.2994 25.5785 64.9143 21.8455ZM65.9118 34.428L43.874 33.4318C43.8684 32.4034 43.7094 31.3815 43.4021 30.4001L64.0874 22.7207C65.3087 26.1814 65.9307 29.8251 65.9266 33.495C65.9266 33.8122 65.9217 34.1233 65.9118 34.428ZM46.7323 63.1059L38.2503 42.7244C38.5528 42.5685 38.8472 42.3964 39.1322 42.2122L51.5372 60.4413C50.0141 61.4642 48.4066 62.3556 46.7323 63.1059ZM38.9574 41.0278C38.45 41.3951 37.9068 41.7104 37.3361 41.9689C35.8384 42.6466 34.1877 42.915 32.5525 42.7469C30.9172 42.5787 29.3557 41.98 28.0273 41.0116C26.6948 40.0397 25.6436 38.732 24.9808 37.2217C24.4639 36.0492 24.1978 34.7817 24.1997 33.5003C24.2005 31.3212 24.9672 29.2117 26.3656 27.5405C26.8912 26.9116 27.4973 26.3547 28.1684 25.8842C30.1169 24.5199 32.5144 23.9547 34.867 24.3049C37.2197 24.655 39.3486 25.8939 40.8154 27.7664C42.1001 29.4008 42.7972 31.4201 42.7944 33.499C42.7944 33.659 42.7944 33.7907 42.7837 33.9198C42.7249 35.3168 42.35 36.6822 41.6873 37.9134C41.0245 39.1446 40.0912 40.2094 38.9574 41.0278ZM59.2583 13.8072C61.1108 16.22 62.6126 18.8828 63.7191 21.7165L43.0216 29.3918C42.7378 28.7375 42.3878 28.1141 41.977 27.5311L59.2583 13.8072ZM58.586 12.9643L41.3183 26.6854C40.22 25.4231 38.8318 24.446 37.2729 23.838L44.1698 2.87569C49.8143 4.84335 54.804 8.33514 58.586 12.9643ZM43.148 2.53824L36.2525 23.4992C34.8681 23.1173 33.4194 23.0277 31.9985 23.236C30.5776 23.4444 29.2156 23.946 27.999 24.7091L15.223 6.72209C19.2617 3.96602 23.8711 2.15822 28.7066 1.43374C33.5421 0.709256 38.4789 1.08683 43.148 2.53824ZM14.3478 7.34725L27.1198 25.3262C26.6828 25.6674 26.2741 26.0432 25.8977 26.4502L8.83831 12.4641C10.4712 10.5516 12.32 8.83457 14.3478 7.34725ZM8.15131 13.2923L25.2067 27.2743C23.8566 29.0694 23.1258 31.2542 23.1242 33.5003C23.1242 34.7487 23.352 35.9866 23.7964 37.1531L3.53993 45.8919C1.32736 40.5414 0.588135 34.696 1.39908 28.9631C2.21002 23.2302 4.54153 17.8192 8.15131 13.2923ZM3.96074 46.8801L24.2226 38.1413C24.8836 39.4616 25.8186 40.6258 26.9652 41.5561L13.8288 59.2703C9.57018 56.015 6.18063 51.7591 3.96074 46.8801ZM14.6933 59.9089L27.8297 42.1867C29.2111 43.0891 30.7879 43.6489 32.4291 43.8195C34.0703 43.9902 35.7286 43.7669 37.2662 43.1681L45.736 63.5294C40.6739 65.5927 35.1724 66.3427 29.7427 65.7097C24.313 65.0767 19.1315 63.0813 14.6798 59.9089H14.6933ZM52.4192 59.8269L40.0034 41.5803C41.083 40.7181 41.978 39.6474 42.6351 38.432C43.2922 37.2166 43.698 35.8814 43.8283 34.506L65.8648 35.5022C65.2692 45.2748 60.3997 54.0862 52.4192 59.8269ZM40.5882 33.2946V33.2194C40.5882 33.2019 40.5882 33.1844 40.5882 33.1656V33.0903C40.5882 33.0459 40.5882 33.0016 40.5788 32.9558L40.5667 32.8214C40.5667 32.777 40.5573 32.734 40.5533 32.687C40.5493 32.6399 40.5412 32.5928 40.5345 32.5458C40.5277 32.4987 40.5237 32.4611 40.517 32.4181C40.5103 32.3751 40.5022 32.324 40.4928 32.2769C40.4834 32.2299 40.478 32.1936 40.4699 32.1519C40.4619 32.1102 40.4511 32.0578 40.4417 32.0174C40.4323 31.9771 40.4242 31.9354 40.4148 31.8937C40.4054 31.8521 40.392 31.801 40.3799 31.7593C40.3678 31.7176 40.3597 31.6786 40.3489 31.6383L40.3086 31.5039C40.2965 31.4649 40.2857 31.4259 40.2736 31.3869C40.2615 31.3479 40.2427 31.2941 40.2279 31.2525C40.2131 31.2108 40.2024 31.1758 40.1876 31.1382C40.1728 31.1005 40.154 31.0454 40.1379 31.0037L40.0935 30.8908C40.076 30.8464 40.0572 30.8007 40.0384 30.7564C40.0195 30.712 40.0074 30.6824 39.9913 30.6461L39.9295 30.5117C39.912 30.4754 39.8959 30.4391 39.8784 30.4041L39.8125 30.2697C39.7937 30.2347 39.7762 30.1998 39.7574 30.1662C39.7386 30.1326 39.7103 30.0788 39.6861 30.0317L39.6283 29.9309L39.5517 29.8032C39.5315 29.7709 39.5114 29.7373 39.4898 29.705C39.4683 29.6728 39.4361 29.6217 39.4078 29.58C39.3796 29.5383 39.3662 29.5168 39.3433 29.4845L39.2573 29.3635C39.2344 29.3313 39.2129 29.3004 39.1887 29.2694L39.0986 29.1511L39.0274 29.061L38.9306 28.9454C38.9064 28.9158 38.8822 28.8863 38.8566 28.858C38.8311 28.8298 38.7907 28.7841 38.7571 28.7465L38.6792 28.6618L38.5743 28.5542L38.4936 28.4708C38.4587 28.4359 38.4224 28.4023 38.3861 28.3687L38.3014 28.288L38.1898 28.1885L38.1011 28.1119L37.9868 28.0178L37.8954 27.9425L37.777 27.8524L37.6816 27.7825L37.5579 27.6951L37.4624 27.6279L37.3347 27.5459L37.2352 27.4827C37.1922 27.4558 37.1492 27.4316 37.1008 27.4061C37.0524 27.3805 37.0336 27.3644 36.9986 27.3456L36.8642 27.2716L36.7607 27.2165L36.6181 27.1466L36.516 27.0968C36.4662 27.0726 36.4151 27.0511 36.3641 27.0283L36.2659 26.9853C36.2121 26.9624 36.1557 26.9409 36.1005 26.9194L36.0105 26.8831C35.9244 26.8495 35.837 26.8185 35.7497 26.7903L35.6623 26.7634L35.4767 26.7056L35.3423 26.6707C35.2952 26.6572 35.2482 26.6438 35.2011 26.633L35.0519 26.5994L34.9175 26.5698L34.7749 26.5443C34.7292 26.5362 34.6835 26.5268 34.6405 26.5201L34.4913 26.4986L34.3568 26.4798C34.2936 26.4717 34.2291 26.4663 34.1659 26.4609L34.0745 26.4515C34.0113 26.4515 33.9481 26.4435 33.8849 26.4394H33.7895C33.694 26.4394 33.5986 26.4394 33.5031 26.4394C32.4714 26.4409 31.4524 26.6669 30.5167 27.1017C29.5811 27.5365 28.7514 28.1698 28.0851 28.9575C27.0074 30.237 26.4156 31.8557 26.414 33.5286C26.4117 34.5115 26.616 35.4839 27.0136 36.3828C27.523 37.538 28.3309 38.5366 29.3542 39.276C30.381 40.019 31.5882 40.4732 32.8501 40.5914C34.112 40.7096 35.3825 40.4875 36.5294 39.9482C36.8541 39.7929 37.1665 39.6132 37.4638 39.4104C37.5619 39.3446 37.6574 39.276 37.7515 39.2047C38.632 38.5428 39.3469 37.6857 39.8403 36.7008C40.3337 35.716 40.592 34.6301 40.595 33.5286C40.5909 33.4318 40.5896 33.3632 40.5882 33.2946ZM39.5127 33.585C39.5127 33.6482 39.5127 33.7101 39.506 33.7719C39.4993 33.8338 39.506 33.8875 39.4979 33.944C39.4898 34.0005 39.4858 34.0623 39.4804 34.1215C39.4751 34.1806 39.4697 34.233 39.463 34.2882C39.4562 34.3433 39.4455 34.4065 39.4361 34.4643C39.4267 34.5221 39.4199 34.5745 39.4092 34.6283C39.3984 34.6821 39.385 34.7439 39.3715 34.8017C39.3581 34.8595 39.35 34.9093 39.3366 34.9617C39.3231 35.0142 39.3057 35.0747 39.2895 35.1311C39.2734 35.1876 39.2613 35.2373 39.2452 35.2898C39.229 35.3422 39.2089 35.4 39.19 35.4551C39.1712 35.5103 39.1551 35.56 39.1363 35.6111C39.1174 35.6622 39.0932 35.7173 39.0717 35.7711C39.0502 35.8248 39.0314 35.8746 39.0085 35.9243C38.9857 35.9741 38.9615 36.0265 38.9373 36.0776C38.9131 36.1287 38.8889 36.1798 38.8633 36.2309C38.8378 36.2819 38.8109 36.3277 38.784 36.3761C38.7571 36.4245 38.7302 36.4782 38.702 36.528C38.6738 36.5777 38.6442 36.6207 38.6146 36.6624C38.585 36.7041 38.5541 36.7619 38.5219 36.8117C38.4896 36.8614 38.46 36.9004 38.4291 36.9461C38.3982 36.9918 38.3619 37.0429 38.3269 37.09C38.292 37.137 38.2597 37.176 38.2247 37.2244C38.1898 37.2728 38.1535 37.3185 38.1145 37.3588C38.0755 37.3992 38.0419 37.4395 38.0056 37.4812C37.9693 37.5229 37.9276 37.5713 37.8859 37.6156C37.8443 37.66 37.8093 37.6936 37.7703 37.7312C37.7313 37.7689 37.687 37.8186 37.6426 37.8657L37.5162 37.9786C37.4719 38.0176 37.4288 38.0579 37.3818 38.0969C37.3347 38.1359 37.2904 38.1695 37.2473 38.2072C37.2043 38.2448 37.1559 38.2825 37.1129 38.3188C37.047 38.3685 36.9785 38.4156 36.9112 38.4626L36.8682 38.4935L36.7338 38.5796L36.6141 38.6562L36.5375 38.6992C36.3883 38.7866 36.235 38.8686 36.0777 38.9426C35.1038 39.4025 34.0243 39.5926 32.9518 39.493C31.8794 39.3935 30.8533 39.0079 29.9807 38.3766C29.1118 37.749 28.4259 36.9011 27.9937 35.9203C27.6564 35.1582 27.4833 34.3337 27.4855 33.5003C27.4875 32.0806 27.9902 30.7072 28.9052 29.6217C29.2473 29.2192 29.64 28.8627 30.0735 28.5609C31.0792 27.8588 32.2766 27.4833 33.5031 27.4854C33.5838 27.4854 33.6658 27.4854 33.7465 27.4854C33.8271 27.4854 33.9266 27.4948 34.0153 27.5015C34.4884 27.5418 34.955 27.6379 35.4055 27.7879C36.6033 28.1869 37.6451 28.9529 38.383 29.9773C39.121 31.0017 39.5176 32.2324 39.5167 33.495C39.5154 33.5286 39.5154 33.5568 39.514 33.585H39.5127Z" fill="black"/>
</svg>
