<svg width="92" height="197" viewBox="0 0 92 197" fill="none" xmlns="http://www.w3.org/2000/svg">
<g clip-path="url(#clip0_713_97)">
<mask id="path-1-outside-1_713_97" maskUnits="userSpaceOnUse" x="-1" y="-1" width="1062" height="199" fill="black">
<rect fill="white" x="-1" y="-1" width="1062" height="199"/>
<path d="M15.0947 15.1064H30.2038V30.3108H15.0947V15.1064Z"/>
<path d="M60.3943 0H75.4899V15.1079H60.3943V0Z"/>
<path d="M75.4911 181.414H90.7077V196.522H75.4911V181.414Z"/>
<path d="M0 105.815H15.0944V120.911H0V105.815Z"/>
<path d="M45.2985 181.414H60.3942V196.522H45.2985V181.414Z"/>
<path d="M15.0947 166.319H30.2038V181.415H15.0947V166.319Z"/>
<path d="M30.2038 15.1064H45.2995V30.3108H30.2038V15.1064Z"/>
<path d="M0 75.6113H15.0944V90.707H0V75.6113Z"/>
<path d="M15.0947 151.225H30.2038V166.319H15.0947V151.225Z"/>
<path d="M15.0947 30.3125H30.2038V45.4216H15.0947V30.3125Z"/>
<path d="M30.2038 0H45.2995V15.1079H30.2038V0Z"/>
<path d="M30.2038 166.319H45.2995V181.415H30.2038V166.319Z"/>
<path d="M0 90.707H15.0944V105.815H0V90.707Z"/>
<path d="M30.2038 181.415H45.2995L45.2985 196.522H30.2038L30.2038 181.415Z"/>
<path d="M0 120.911H15.0944V136.007H0V120.911Z"/>
<path d="M45.2995 0H60.3943V15.1079H45.2995V0Z"/>
<path d="M0 60.5156H15.0944V75.6113H0V60.5156Z"/>
<path d="M75.4911 0H90.7077V15.1079H75.4911V0Z"/>
<path d="M0 136.007H15.0944L15.0947 151.225L0 151.224V136.007Z"/>
<path d="M60.3942 181.414H75.4899V196.522H60.3942V181.414Z"/>
<path d="M0 30.3125H15.0947V45.4216H0V30.3125Z"/>
<path d="M0 151.224L15.0947 151.225V166.319L0 166.319V151.224Z"/>
<path d="M0 45.4199H15.0944V60.5156H0V45.4199Z"/>
<path d="M1044.61 15.1064H1029.5V30.3108H1044.61V15.1064Z"/>
<path d="M999.314 0H984.218V15.1079H999.314V0Z"/>
<path d="M984.216 181.414H969V196.522H984.216V181.414Z"/>
<path d="M1059.71 105.815H1044.61V120.911H1059.71V105.815Z"/>
<path d="M1014.41 181.414H999.312V196.522H1014.41V181.414Z"/>
<path d="M1044.61 166.319H1029.5V181.415H1044.61V166.319Z"/>
<path d="M1029.5 15.1064H1014.41V30.3108H1029.5V15.1064Z"/>
<path d="M1059.71 75.6113H1044.61V90.707H1059.71V75.6113Z"/>
<path d="M1044.61 151.225H1029.5V166.319H1044.61V151.225Z"/>
<path d="M1044.61 30.3125H1029.5V45.4216H1044.61V30.3125Z"/>
<path d="M1029.5 0H1014.41V15.1079H1029.5V0Z"/>
<path d="M1029.5 166.319H1014.41V181.414L1029.5 181.415V166.319Z"/>
<path d="M1059.71 90.707H1044.61V105.815H1059.71V90.707Z"/>
<path d="M1029.5 181.415L1014.41 181.414V196.522H1029.5V181.415Z"/>
<path d="M1059.71 120.911H1044.61V136.007H1059.71V120.911Z"/>
<path d="M1014.41 0H999.312V15.1079H1014.41V0Z"/>
<path d="M1059.71 60.5156H1044.61V75.6113H1059.71V60.5156Z"/>
<path d="M984.216 0H969V15.1079H984.216V0Z"/>
<path d="M1059.71 136.007H1044.61L1044.61 151.225L1059.71 151.224V136.007Z"/>
<path d="M999.314 181.414H984.218V196.522H999.314V181.414Z"/>
<path d="M1059.71 30.3125H1044.61V45.4216H1059.71V30.3125Z"/>
<path d="M1059.71 151.224L1044.61 151.225V166.319L1059.71 166.319V151.224Z"/>
<path d="M1059.71 45.4199H1044.61V60.5156H1059.71V45.4199Z"/>
</mask>
<path d="M15.0947 15.1064H30.2038V30.3108H15.0947V15.1064Z" fill="#F6C929"/>
<path d="M60.3943 0H75.4899V15.1079H60.3943V0Z" fill="#F6C929"/>
<path d="M75.4911 181.414H90.7077V196.522H75.4911V181.414Z" fill="#F6C929"/>
<path d="M0 105.815H15.0944V120.911H0V105.815Z" fill="#F6C929"/>
<path d="M45.2985 181.414H60.3942V196.522H45.2985V181.414Z" fill="#F6C929"/>
<path d="M15.0947 166.319H30.2038V181.415H15.0947V166.319Z" fill="#F6C929"/>
<path d="M30.2038 15.1064H45.2995V30.3108H30.2038V15.1064Z" fill="#F6C929"/>
<path d="M0 75.6113H15.0944V90.707H0V75.6113Z" fill="#F6C929"/>
<path d="M15.0947 151.225H30.2038V166.319H15.0947V151.225Z" fill="#F6C929"/>
<path d="M15.0947 30.3125H30.2038V45.4216H15.0947V30.3125Z" fill="#F6C929"/>
<path d="M30.2038 0H45.2995V15.1079H30.2038V0Z" fill="#F6C929"/>
<path d="M30.2038 166.319H45.2995V181.415H30.2038V166.319Z" fill="#F6C929"/>
<path d="M0 90.707H15.0944V105.815H0V90.707Z" fill="#F6C929"/>
<path d="M30.2038 181.415H45.2995L45.2985 196.522H30.2038L30.2038 181.415Z" fill="#F6C929"/>
<path d="M0 120.911H15.0944V136.007H0V120.911Z" fill="#F6C929"/>
<path d="M45.2995 0H60.3943V15.1079H45.2995V0Z" fill="#F6C929"/>
<path d="M0 60.5156H15.0944V75.6113H0V60.5156Z" fill="#F6C929"/>
<path d="M75.4911 0H90.7077V15.1079H75.4911V0Z" fill="#F6C929"/>
<path d="M0 136.007H15.0944L15.0947 151.225L0 151.224V136.007Z" fill="#F6C929"/>
<path d="M60.3942 181.414H75.4899V196.522H60.3942V181.414Z" fill="#F6C929"/>
<path d="M0 30.3125H15.0947V45.4216H0V30.3125Z" fill="#F6C929"/>
<path d="M0 151.224L15.0947 151.225V166.319L0 166.319V151.224Z" fill="#F6C929"/>
<path d="M0 45.4199H15.0944V60.5156H0V45.4199Z" fill="#F6C929"/>
<path d="M1044.61 15.1064H1029.5V30.3108H1044.61V15.1064Z" fill="#F6C929"/>
<path d="M999.314 0H984.218V15.1079H999.314V0Z" fill="#F6C929"/>
<path d="M984.216 181.414H969V196.522H984.216V181.414Z" fill="#F6C929"/>
<path d="M1059.71 105.815H1044.61V120.911H1059.71V105.815Z" fill="#F6C929"/>
<path d="M1014.41 181.414H999.312V196.522H1014.41V181.414Z" fill="#F6C929"/>
<path d="M1044.61 166.319H1029.5V181.415H1044.61V166.319Z" fill="#F6C929"/>
<path d="M1029.5 15.1064H1014.41V30.3108H1029.5V15.1064Z" fill="#F6C929"/>
<path d="M1059.71 75.6113H1044.61V90.707H1059.71V75.6113Z" fill="#F6C929"/>
<path d="M1044.61 151.225H1029.5V166.319H1044.61V151.225Z" fill="#F6C929"/>
<path d="M1044.61 30.3125H1029.5V45.4216H1044.61V30.3125Z" fill="#F6C929"/>
<path d="M1029.5 0H1014.41V15.1079H1029.5V0Z" fill="#F6C929"/>
<path d="M1029.5 166.319H1014.41V181.414L1029.5 181.415V166.319Z" fill="#F6C929"/>
<path d="M1059.71 90.707H1044.61V105.815H1059.71V90.707Z" fill="#F6C929"/>
<path d="M1029.5 181.415L1014.41 181.414V196.522H1029.5V181.415Z" fill="#F6C929"/>
<path d="M1059.71 120.911H1044.61V136.007H1059.71V120.911Z" fill="#F6C929"/>
<path d="M1014.41 0H999.312V15.1079H1014.41V0Z" fill="#F6C929"/>
<path d="M1059.71 60.5156H1044.61V75.6113H1059.71V60.5156Z" fill="#F6C929"/>
<path d="M984.216 0H969V15.1079H984.216V0Z" fill="#F6C929"/>
<path d="M1059.71 136.007H1044.61L1044.61 151.225L1059.71 151.224V136.007Z" fill="#F6C929"/>
<path d="M999.314 181.414H984.218V196.522H999.314V181.414Z" fill="#F6C929"/>
<path d="M1059.71 30.3125H1044.61V45.4216H1059.71V30.3125Z" fill="#F6C929"/>
<path d="M1059.71 151.224L1044.61 151.225V166.319L1059.71 166.319V151.224Z" fill="#F6C929"/>
<path d="M1059.71 45.4199H1044.61V60.5156H1059.71V45.4199Z" fill="#F6C929"/>
<path d="M15.0947 166.319H14.5947V166.819H15.0947V166.319ZM30.2038 166.319H30.7038V165.819H30.2038V166.319ZM30.2038 181.415H29.7038V181.915H30.2038V181.415ZM15.0947 151.225H15.5947V150.725L15.0947 150.725L15.0947 151.225ZM1014.41 181.414L1014.41 180.914L1013.91 180.914V181.414H1014.41ZM1044.61 166.319V166.819H1045.11V166.319H1044.61ZM1029.5 166.319V165.819H1029V166.319H1029.5ZM1029.5 181.415L1029.5 181.915L1030 181.915V181.415H1029.5ZM1044.61 151.225L1044.61 150.725L1044.11 150.725V151.225H1044.61ZM29.7038 15.1064V30.3108H30.7038V15.1064H29.7038ZM60.8943 15.1079V0H59.8943V15.1079H60.8943ZM0 106.315H15.0944V105.315H0V106.315ZM15.0944 120.411H0V121.411H15.0944V120.411ZM59.8942 181.414V196.522H60.8942V181.414H59.8942ZM15.0947 166.819H30.2038V165.819H15.0947V166.819ZM29.7038 166.319V181.415H30.7038V166.319H29.7038ZM0 76.1113H15.0944V75.1113H0V76.1113ZM15.0944 90.207H0V91.207H15.0944V90.207ZM15.5947 166.319V151.225H14.5947V166.319H15.5947ZM15.5947 45.4216V30.3125H14.5947V45.4216H15.5947ZM44.7995 0V15.1079H45.7995V0H44.7995ZM45.2995 180.915H30.2038V181.915H45.2995V180.915ZM15.0944 135.507H0V136.507H15.0944V135.507ZM0 61.0156H15.0944V60.0156H0V61.0156ZM15.0947 150.725L3.08316e-05 150.724L-3.08316e-05 151.724L15.0947 151.725L15.0947 150.725ZM1029 15.1064V30.3108H1030V15.1064H1029ZM1059.71 105.315H1044.61V106.315H1059.71V105.315ZM1044.61 121.411H1059.71V120.411H1044.61V121.411ZM1014.91 196.522V181.414H1013.91V196.522H1014.91ZM1044.61 165.819H1029.5V166.819H1044.61V165.819ZM1029 166.319V181.415H1030V166.319H1029ZM1059.71 75.1113H1044.61V76.1113H1059.71V75.1113ZM1044.61 91.207H1059.71V90.207H1044.61V91.207ZM1045.11 166.319V151.225H1044.11V166.319H1045.11ZM1045.11 45.4216V30.3125H1044.11V45.4216H1045.11ZM1013.91 0V15.1079H1014.91V0H1013.91ZM1014.41 181.914L1029.5 181.915L1029.5 180.915L1014.41 180.914L1014.41 181.914ZM1044.61 136.507H1059.71V135.507H1044.61V136.507ZM1059.71 60.0156H1044.61V61.0156H1059.71V60.0156ZM1044.61 151.725L1059.71 151.724L1059.71 150.724L1044.61 150.725L1044.61 151.725ZM15.0947 15.1064V14.1064H14.0947V15.1064H15.0947ZM15.0947 30.3108H14.0947V31.3108H15.0947V30.3108ZM75.4899 0H76.4899V-1H75.4899V0ZM75.4899 15.1079V16.1079H76.4899V15.1079H75.4899ZM75.4911 181.414V180.414H74.4911V181.414H75.4911ZM90.7077 181.414H91.7077V180.414H90.7077V181.414ZM90.7077 196.522V197.522H91.7077V196.522H90.7077ZM75.4911 196.522H74.4911V197.522H75.4911V196.522ZM45.2985 181.414V180.414H44.2985V181.414H45.2985ZM15.0947 166.319H16.0947V165.319L15.0947 165.319L15.0947 166.319ZM30.2038 166.319H29.2038V167.319H30.2038V166.319ZM30.2038 181.415L31.2038 181.415L31.2038 180.415H30.2038V181.415ZM15.0947 181.415H14.0947V182.415H15.0947V181.415ZM45.2995 15.1064H46.2995V14.1064H45.2995V15.1064ZM45.2995 30.3108V31.3108H46.2995V30.3108H45.2995ZM15.0947 151.225L14.0947 151.225L14.0947 152.225H15.0947V151.225ZM30.2038 151.225H31.2038V150.225H30.2038V151.225ZM30.2038 30.3125H31.2038V29.3125H30.2038V30.3125ZM30.2038 45.4216V46.4216H31.2038V45.4216H30.2038ZM30.2038 0V-1H29.2038V0H30.2038ZM30.2038 15.1079H29.2038V16.1079H30.2038V15.1079ZM45.2995 166.319H46.2995V165.319H45.2995V166.319ZM45.2995 181.415L46.2995 181.415V181.415H45.2995ZM30.2038 196.522L29.2038 196.522L29.2038 197.522H30.2038V196.522ZM15.0944 136.007L14.0944 136.007L14.0944 136.007L15.0944 136.007ZM75.4911 0V-1H74.4911V0H75.4911ZM90.7077 0H91.7077V-1H90.7077V0ZM90.7077 15.1079V16.1079H91.7077V15.1079H90.7077ZM75.4911 15.1079H74.4911V16.1079H75.4911V15.1079ZM75.4899 181.414H76.4899V180.414H75.4899V181.414ZM75.4899 196.522V197.522H76.4899V196.522H75.4899ZM0 30.3125V29.3125H-1V30.3125H0ZM0 45.4216H-1V46.4216H0V45.4216ZM0 166.319H-1V167.319L-1.81957e-05 167.319L0 166.319ZM0 45.4199V44.4199H-1V45.4199H0ZM15.0944 45.4199H16.0944V44.4199H15.0944V45.4199ZM1044.61 15.1064H1045.61V14.1064H1044.61V15.1064ZM1044.61 30.3108V31.3108H1045.61V30.3108H1044.61ZM999.314 0H1000.31V-1H999.314V0ZM984.218 0V-1H983.218V0H984.218ZM984.218 15.1079H983.218V16.1079H984.218V15.1079ZM999.314 15.1079V16.1079H1000.31V15.1079H999.314ZM984.216 181.414H985.216V180.414H984.216V181.414ZM969 181.414V180.414H968V181.414H969ZM969 196.522H968V197.522H969V196.522ZM984.216 196.522V197.522H985.216V196.522H984.216ZM1014.41 181.414V182.414H1015.41V181.414H1014.41ZM999.312 181.414V180.414H998.312V181.414H999.312ZM999.312 196.522H998.312V197.522H999.312V196.522ZM1044.61 166.319L1044.61 165.319L1043.61 165.319V166.319H1044.61ZM1029.5 166.319V167.319H1030.5V166.319H1029.5ZM1029.5 181.415V180.415H1028.5V181.415H1029.5ZM1044.61 181.415V182.415H1045.61V181.415H1044.61ZM1014.41 15.1064V14.1064H1013.41V15.1064H1014.41ZM1014.41 30.3108H1013.41V31.3108H1014.41V30.3108ZM1044.61 151.225V152.225H1045.61L1045.61 151.225L1044.61 151.225ZM1029.5 151.225V150.225H1028.5V151.225H1029.5ZM1029.5 30.3125V29.3125H1028.5V30.3125H1029.5ZM1029.5 45.4216H1028.5V46.4216H1029.5V45.4216ZM1029.5 0H1030.5V-1H1029.5V0ZM1029.5 15.1079V16.1079H1030.5V15.1079H1029.5ZM1014.41 166.319V165.319H1013.41V166.319H1014.41ZM1029.5 196.522V197.522H1030.5V196.522H1029.5ZM1044.61 136.007L1045.61 136.007V136.007H1044.61ZM999.312 0V-1H998.312V0H999.312ZM999.312 15.1079H998.312V16.1079H999.312V15.1079ZM984.216 0H985.216V-1H984.216V0ZM969 0V-1H968V0H969ZM969 15.1079H968V16.1079H969V15.1079ZM984.216 15.1079V16.1079H985.216V15.1079H984.216ZM999.314 181.414H1000.31V180.414H999.314V181.414ZM984.218 181.414V180.414H983.218V181.414H984.218ZM984.218 196.522H983.218V197.522H984.218V196.522ZM999.314 196.522V197.522H1000.31V196.522H999.314ZM1059.71 30.3125H1060.71V29.3125H1059.71V30.3125ZM1059.71 45.4216V46.4216H1060.71V45.4216H1059.71ZM1059.71 166.319L1059.71 167.319L1060.71 167.319V166.319H1059.71ZM1059.71 45.4199H1060.71V44.4199H1059.71V45.4199ZM1044.61 45.4199V44.4199H1043.61V45.4199H1044.61ZM15.0947 16.1064H30.2038V14.1064H15.0947V16.1064ZM30.2038 29.3108H15.0947V31.3108H30.2038V29.3108ZM16.0947 30.3108V15.1064H14.0947V30.3108H16.0947ZM60.3943 1H75.4899V-1H60.3943V1ZM74.4899 0V15.1079H76.4899V0H74.4899ZM75.4899 14.1079H60.3943V16.1079H75.4899V14.1079ZM75.4911 182.414H90.7077V180.414H75.4911V182.414ZM89.7077 181.414V196.522H91.7077V181.414H89.7077ZM90.7077 195.522H75.4911V197.522H90.7077V195.522ZM76.4911 196.522V181.414H74.4911V196.522H76.4911ZM14.0944 105.815V120.911H16.0944V105.815H14.0944ZM1 120.911V105.815H-1V120.911H1ZM45.2985 182.414H60.3942V180.414H45.2985V182.414ZM60.3942 195.522H45.2985V197.522H60.3942V195.522ZM46.2985 196.522V181.414H44.2985V196.522H46.2985ZM30.2038 180.415H15.0947V182.415H30.2038V180.415ZM16.0947 181.415V166.319H14.0947V181.415H16.0947ZM30.2038 16.1064H45.2995V14.1064H30.2038V16.1064ZM44.2995 15.1064V30.3108H46.2995V15.1064H44.2995ZM45.2995 29.3108H30.2038V31.3108H45.2995V29.3108ZM14.0944 75.6113V90.707H16.0944V75.6113H14.0944ZM1 90.707V75.6113H-1V90.707H1ZM15.0947 152.225H30.2038V150.225H15.0947V152.225ZM29.2038 151.225V166.319H31.2038V151.225H29.2038ZM15.0947 31.3125H30.2038V29.3125H15.0947V31.3125ZM29.2038 30.3125V45.4216H31.2038V30.3125H29.2038ZM30.2038 44.4216H15.0947V46.4216H30.2038V44.4216ZM30.2038 1H45.2995V-1H30.2038V1ZM45.2995 14.1079H30.2038V16.1079H45.2995V14.1079ZM31.2038 15.1079V0H29.2038V15.1079H31.2038ZM30.2038 167.319H45.2995V165.319H30.2038V167.319ZM44.2995 166.319V181.415H46.2995V166.319H44.2995ZM14.0944 90.707V105.815H16.0944V90.707H14.0944ZM1 105.815V90.707H-1V105.815H1ZM44.2995 181.415L44.2985 196.522L46.2985 196.522L46.2995 181.415L44.2995 181.415ZM45.2985 195.522H30.2038V197.522H45.2985V195.522ZM31.2038 196.522L31.2038 181.415L29.2038 181.415L29.2038 196.522L31.2038 196.522ZM14.0944 120.911V136.007H16.0944V120.911H14.0944ZM1 136.007V120.911H-1V136.007H1ZM45.2995 1H60.3943V-1H45.2995V1ZM60.3943 14.1079H45.2995V16.1079H60.3943V14.1079ZM14.0944 60.5156V75.6113H16.0944V60.5156H14.0944ZM1 75.6113V60.5156H-1V75.6113H1ZM75.4911 1H90.7077V-1H75.4911V1ZM89.7077 0V15.1079H91.7077V0H89.7077ZM90.7077 14.1079H75.4911V16.1079H90.7077V14.1079ZM76.4911 15.1079V0H74.4911V15.1079H76.4911ZM14.0944 136.007L14.0947 151.225L16.0947 151.225L16.0944 136.007L14.0944 136.007ZM1 151.224V136.007H-1V151.224H1ZM60.3942 182.414H75.4899V180.414H60.3942V182.414ZM74.4899 181.414V196.522H76.4899V181.414H74.4899ZM75.4899 195.522H60.3942V197.522H75.4899V195.522ZM0 31.3125H15.0947V29.3125H0V31.3125ZM15.0947 44.4216H0V46.4216H15.0947V44.4216ZM1 45.4216V30.3125H-1V45.4216H1ZM15.0947 165.319L1.81957e-05 165.319L-1.81957e-05 167.319L15.0947 167.319L15.0947 165.319ZM1 166.319V151.224H-1V166.319H1ZM0 46.4199H15.0944V44.4199H0V46.4199ZM14.0944 45.4199V60.5156H16.0944V45.4199H14.0944ZM1 60.5156V45.4199H-1V60.5156H1ZM1044.61 14.1064H1029.5V16.1064H1044.61V14.1064ZM1029.5 31.3108H1044.61V29.3108H1029.5V31.3108ZM1045.61 30.3108V15.1064H1043.61V30.3108H1045.61ZM999.314 -1H984.218V1H999.314V-1ZM983.218 0V15.1079H985.218V0H983.218ZM984.218 16.1079H999.314V14.1079H984.218V16.1079ZM1000.31 15.1079V0H998.314V15.1079H1000.31ZM984.216 180.414H969V182.414H984.216V180.414ZM968 181.414V196.522H970V181.414H968ZM969 197.522H984.216V195.522H969V197.522ZM985.216 196.522V181.414H983.216V196.522H985.216ZM1043.61 105.815V120.911H1045.61V105.815H1043.61ZM1060.71 120.911V105.815H1058.71V120.911H1060.71ZM1014.41 180.414H999.312V182.414H1014.41V180.414ZM998.312 181.414V196.522H1000.31V181.414H998.312ZM999.312 197.522H1014.41V195.522H999.312V197.522ZM1029.5 182.415H1044.61V180.415H1029.5V182.415ZM1045.61 181.415V166.319H1043.61V181.415H1045.61ZM1029.5 14.1064H1014.41V16.1064H1029.5V14.1064ZM1013.41 15.1064V30.3108H1015.41V15.1064H1013.41ZM1014.41 31.3108H1029.5V29.3108H1014.41V31.3108ZM1043.61 75.6113V90.707H1045.61V75.6113H1043.61ZM1060.71 90.707V75.6113H1058.71V90.707H1060.71ZM1044.61 150.225H1029.5V152.225H1044.61V150.225ZM1028.5 151.225V166.319H1030.5V151.225H1028.5ZM1044.61 29.3125H1029.5V31.3125H1044.61V29.3125ZM1028.5 30.3125V45.4216H1030.5V30.3125H1028.5ZM1029.5 46.4216H1044.61V44.4216H1029.5V46.4216ZM1029.5 -1H1014.41V1H1029.5V-1ZM1014.41 16.1079H1029.5V14.1079H1014.41V16.1079ZM1030.5 15.1079V0H1028.5V15.1079H1030.5ZM1029.5 165.319H1014.41V167.319H1029.5V165.319ZM1013.41 166.319V181.414H1015.41V166.319H1013.41ZM1043.61 90.707V105.815H1045.61V90.707H1043.61ZM1060.71 105.815V90.707H1058.71V105.815H1060.71ZM1014.41 197.522H1029.5V195.522H1014.41V197.522ZM1030.5 196.522V181.415H1028.5V196.522H1030.5ZM1043.61 120.911V136.007H1045.61V120.911H1043.61ZM1060.71 136.007V120.911H1058.71V136.007H1060.71ZM1014.41 -1H999.312V1H1014.41V-1ZM998.312 0V15.1079H1000.31V0H998.312ZM999.312 16.1079H1014.41V14.1079H999.312V16.1079ZM1043.61 60.5156V75.6113H1045.61V60.5156H1043.61ZM1060.71 75.6113V60.5156H1058.71V75.6113H1060.71ZM984.216 -1H969V1H984.216V-1ZM968 0V15.1079H970V0H968ZM969 16.1079H984.216V14.1079H969V16.1079ZM985.216 15.1079V0H983.216V15.1079H985.216ZM1043.61 136.007L1043.61 151.225L1045.61 151.225L1045.61 136.007L1043.61 136.007ZM1060.71 151.224V136.007H1058.71V151.224H1060.71ZM999.314 180.414H984.218V182.414H999.314V180.414ZM983.218 181.414V196.522H985.218V181.414H983.218ZM984.218 197.522H999.314V195.522H984.218V197.522ZM1000.31 196.522V181.414H998.314V196.522H1000.31ZM1059.71 29.3125H1044.61V31.3125H1059.71V29.3125ZM1044.61 46.4216H1059.71V44.4216H1044.61V46.4216ZM1060.71 45.4216V30.3125H1058.71V45.4216H1060.71ZM1044.61 167.319L1059.71 167.319L1059.71 165.319L1044.61 165.319L1044.61 167.319ZM1060.71 166.319V151.224H1058.71V166.319H1060.71ZM1059.71 44.4199H1044.61V46.4199H1059.71V44.4199ZM1043.61 45.4199V60.5156H1045.61V45.4199H1043.61ZM1060.71 60.5156V45.4199H1058.71V60.5156H1060.71Z" fill="black" mask="url(#path-1-outside-1_713_97)"/>
</g>
<defs>
<clipPath id="clip0_713_97">
<rect width="92" height="197" fill="white"/>
</clipPath>
</defs>
</svg>
