<svg width="93" height="294" viewBox="0 0 93 294" fill="none" xmlns="http://www.w3.org/2000/svg">
<path d="M16.0947 15.6064H15.5947V16.1064V30.8125H1H0.5V31.3125V45.9199V46.4199V46.4216V46.9216V61.0156V61.5156V62.0156V76.1113V76.6113V77.1113V91.207V91.707V92.207V106.315V106.815V107.315V121.411V121.911V122.411V136.507V137.007V137.507V152.224V152.263V262.297V262.797H0.999991L15.5947 262.797V277.393V277.893H16.0947H30.7038L30.7038 292.5V293H31.2038H45.7985H46.2985H46.7985H60.8942H61.3942H61.8942H75.9911H76.4899H76.4911H76.9899H91.7077H92.2077V292.5V277.392V276.892H91.7077H76.9899H76.4911H76.4899H75.9911H61.8942H61.3942H60.8942H46.7995V262.297V261.797H46.2995H31.7038V247.203V246.703H31.2038H16.5947L16.5944 137.507V137.007L16.5944 136.507L16.5944 122.411V121.911V121.411V107.315V106.815V106.315V92.207V91.707V91.207V77.1113V76.6113V76.1113V62.0156V61.5156V61.0156V46.9216H16.5947H31.2038H31.7038V46.4216V31.8108H46.2995H46.7995V31.3108V16.6079H60.8943H61.3943H61.8943H75.9911H76.4899H76.4911H76.9899H91.7077H92.2077V16.1079V1V0.5H91.7077H76.9899H76.4911H76.4899H75.9911H61.8943H61.3943H60.8943H46.7995H46.2995H45.7995H31.2038H30.7038V1L30.7038 15.6064H16.0947Z" fill="#F6C929" stroke="black"/>
</svg>
