<svg width="180" height="77" viewBox="0 0 180 77" fill="none" xmlns="http://www.w3.org/2000/svg">
<g id="Frame 1410116254">
<g id="Group 11">
<rect id="Rectangle 6" x="35.0469" width="33.1821" height="69.0863" rx="16.591" transform="rotate(30.4842 35.0469 0)" stroke="black" stroke-width="1.33676"/>
<path id="Vector" d="M8.94513 62.5195C8.56389 62.0593 8.12685 61.6269 8.10825 60.9713C7.93623 60.2553 7.85719 59.6184 8.21054 58.8512C8.55459 58.112 8.40581 57.2333 7.52244 56.6893C6.97383 56.3499 6.34617 55.9919 6.47635 55.1597C6.29968 52.7188 6.77856 50.3663 7.462 48.0463C7.65727 47.3768 8.1129 46.8189 8.29888 46.1354C8.41976 45.6938 8.75451 45.4334 9.22873 45.7123C9.64252 45.9588 9.72156 46.34 9.4426 46.7491C9.25663 47.0188 9.03811 47.2699 8.87074 47.8045C9.37286 46.9956 9.86569 47.0374 10.5212 47.2931C11.6324 47.7301 12.3159 48.8274 13.4968 49.1249C14.7893 49.7526 15.9005 50.6638 17.1093 51.4217C18.0856 52.0354 18.1972 52.0168 18.7923 51.0172C19.1457 50.4174 19.4944 49.813 19.8524 49.2179C20.2848 48.5066 20.0895 48.0928 19.42 47.7162C17.8811 46.8561 16.463 45.8193 15.0729 44.736C13.9152 43.8387 12.7436 42.9693 11.8695 41.7558C11.5906 41.3699 11.479 40.998 11.4883 40.5516C11.6324 39.6543 12.2229 38.9709 12.6506 38.213C13.5433 36.6183 14.4824 35.0515 15.4216 33.4847C15.575 33.2336 15.6122 32.8106 16.0725 32.8571C16.914 33.4754 17.3603 34.4378 18.0856 35.1677C20.6428 37.7295 23.5486 39.8124 26.6078 41.7093C27.1936 42.0719 27.8678 42.3323 28.1932 43.0158C28.2955 44.1176 27.4958 44.8569 27.0169 45.6845C22.9674 52.6816 18.8993 59.6742 14.8125 66.6528C14.6312 66.9643 14.5057 67.3362 14.0919 67.4385C13.4131 67.4013 12.9947 66.9131 12.5251 66.5226C11.2047 65.2998 10.0238 63.9515 8.94048 62.5149L8.94513 62.5195Z" fill="#F83857"/>
<path id="Vector_2" d="M44.4091 49.599C43.377 51.3843 42.024 53.0952 40.9872 54.8805C40.8571 55.5082 40.3642 55.9685 40.0574 56.5078C39.6901 57.154 39.5646 57.4702 38.8114 57.3772C36.775 57.1262 34.9246 56.3172 33.0834 55.4989C31.8746 54.9642 30.7216 54.3133 29.5593 53.681C29.2013 53.4858 28.8665 53.244 28.4295 53.4532C26.6907 53.8531 26.5558 55.1781 26.607 56.6101C27.0719 57.5353 28.104 57.7259 28.8247 58.321C30.2334 59.302 31.8328 59.8786 33.4228 60.4737C33.5158 60.5202 33.5995 60.5806 33.6785 60.6503C33.9157 60.8921 34.2179 61.0269 34.5154 61.1757C34.7107 61.2733 34.9013 61.3896 35.0501 61.5616C35.171 61.7057 35.3383 61.9568 35.2361 62.0451C34.3155 62.8727 36.045 63.7374 34.9431 64.6441C34.0179 65.4019 33.2136 66.4294 32.2745 67.1872C31.4794 67.8521 30.5914 68.3542 29.6104 68.6843C28.0343 69.1167 26.4861 69.6514 24.8588 69.8885C22.6039 70.2186 20.4141 69.842 18.2196 69.4143C17.9453 69.3585 17.8012 69.1306 17.685 68.8982C17.5223 68.5588 17.2805 68.4518 16.8853 68.4844C15.2813 68.6192 14.742 68.0753 14.9047 66.5456C15.3324 65.3415 16.1228 64.3372 16.7272 63.226C17.5641 62.1242 18.4986 62.7379 19.4099 63.0819C19.54 63.0447 19.6563 62.9796 19.7679 62.9006C19.9538 62.7472 20.1166 62.5751 20.2281 62.3613C20.2653 62.2822 20.3072 62.2032 20.3537 62.1242C20.456 61.9289 20.5117 61.7197 20.5908 61.5151C20.6559 61.3431 20.7349 61.1757 20.8279 61.013C20.9767 60.7108 21.2649 60.5155 21.4091 60.2087C21.423 60.1203 21.4509 60.032 21.4788 59.9483C21.5346 59.7763 21.6183 59.6228 21.7252 59.4787C21.7996 59.3671 21.8833 59.2602 21.9577 59.1486C22.046 58.9812 22.1344 58.8185 22.1715 58.6325C22.1762 58.4047 22.0925 58.2002 21.9809 58.0095C21.9251 57.9165 21.8693 57.805 21.7764 57.7678C20.6838 57.3633 20.6931 56.6148 21.1348 55.7267C22.2134 53.8484 23.1432 51.8771 24.4776 50.1522C24.7287 50.0174 24.9983 50.0035 25.2726 50.0314C25.8491 50.0221 26.2722 50.6962 26.9138 50.394C27.0812 50.2499 27.2439 50.1011 27.3509 49.9058C27.3927 49.8314 27.4438 49.7617 27.495 49.6873C27.6252 49.5153 27.7321 49.334 27.7925 49.1247C27.8204 49.041 27.8623 48.9667 27.9041 48.8876C28.039 48.6691 28.1784 48.4459 28.211 48.1809C28.2668 47.9671 28.3458 47.7578 28.462 47.5672C28.569 47.3813 28.7224 47.2278 28.8154 47.0326C28.8526 46.9117 28.9037 46.7954 28.9549 46.6792C29.0386 46.4886 29.192 46.3305 29.2385 46.1213C28.9828 45.582 28.3133 45.4797 28.039 44.959C28.0483 43.7595 28.6294 43.3643 29.6523 43.8617C30.1079 44.0849 30.5263 44.3778 31.047 44.4522C33.2276 45.3216 35.2407 46.549 37.4445 47.3766C39.4716 48.1391 41.494 48.883 43.6652 49.1201C43.9628 49.1526 44.3394 49.1573 44.4091 49.5897V49.599Z" fill="#F83857"/>
<path id="Vector_3" d="M19.4244 29.0632C20.4705 30.2302 21.4655 31.4529 22.758 32.3781C23.3205 32.4618 23.7204 32.8338 24.1481 33.1639C26.0264 34.6284 28.0024 35.9488 30.0016 37.2367C31.308 38.0782 31.3406 38.3013 30.5455 39.6031C29.9086 40.6539 29.5645 41.8999 28.5324 42.6949C28.0768 42.8669 27.756 42.5508 27.4259 42.3509C24.1992 40.3796 21.0749 38.2595 18.3597 35.6094C17.5415 34.8097 16.6116 34.0333 16.3884 32.7966C16.2768 31.2484 17.4252 30.2674 18.0715 29.0585C18.5225 29.0585 18.9781 28.9191 19.4291 29.0725L19.4244 29.0632Z" fill="#FCFCFC"/>
<path id="Vector_4" d="M44.6422 48.7624C44.4981 48.8414 44.354 48.9251 44.2052 49.0041C43.0057 49.5574 41.8805 48.9763 40.7926 48.6694C37.738 47.8139 34.874 46.4796 32.0612 45.0151C31.3731 44.6571 31.2569 44.1921 31.6335 43.5831C31.9636 43.0484 32.2425 42.4905 32.6005 41.9744C33.9302 39.5149 33.9814 39.4638 36.4455 40.7517C38.9375 42.0535 41.5318 43.067 44.2284 43.8341C44.5492 43.9271 44.8654 44.0341 45.0839 44.3084C45.7813 44.5362 46.4973 44.5501 47.2923 44.4525C46.925 45.5079 46.0091 46.182 45.7208 47.1956C45.2513 47.4048 44.7956 47.6512 44.2517 47.786C44.3819 48.1161 44.9816 48.2696 44.6376 48.7531L44.6422 48.7624Z" fill="#FBFBFC"/>
<path id="Vector_5" d="M39.6442 57.8053C38.8212 58.7723 38.5144 60.0834 37.5427 60.9482C36.915 61.2318 36.3013 61.2318 35.6179 61.0551C32.6377 60.2787 29.8667 59.0513 27.277 57.3868C26.6912 57.0102 26.6122 56.5685 26.9237 55.9827C27.2863 55.2993 27.6722 54.6298 28.0674 53.9649C28.4766 53.2768 28.9275 53.1978 29.6156 53.593C31.7218 54.8018 33.9069 55.8479 36.199 56.6615C37.1057 56.9823 38.0495 57.1032 38.9654 57.3543C39.249 57.4333 39.5698 57.4101 39.6349 57.796L39.6442 57.8053Z" fill="#FAFBFB"/>
<path id="Vector_6" d="M9.26051 44.5551C9.49762 43.1975 10.5112 42.2258 11.0319 41.0123C11.2922 40.9472 11.441 41.1006 11.5759 41.2866C13.4867 43.8902 16.188 45.5407 18.8148 47.2795C19.1217 47.4795 19.4192 47.6933 19.7354 47.8793C20.1956 48.149 20.3258 48.4837 20.0515 48.9765C19.6098 49.7809 19.1217 50.5573 18.6707 51.3523C18.3452 51.9242 17.8756 51.9893 17.3689 51.6545C14.7978 49.9668 12.1059 48.4326 10.023 46.094C9.6278 45.6476 9.28376 45.1827 9.25586 44.5551H9.26051Z" fill="#FAFBFB"/>
<path id="Vector_7" d="M45.0896 44.3131C42.2907 43.8901 39.7708 42.6905 37.2369 41.5282C36.4698 41.1749 35.6934 40.8308 34.9774 40.3891C34.3032 39.9707 33.9452 40.1381 33.6384 40.8076C33.4245 41.2725 33.1223 41.6909 32.8573 42.1326C32.662 42.128 32.5923 41.9978 32.5597 41.8304C32.5458 41.4864 32.6713 41.1656 32.8573 40.9006C33.378 40.1427 33.0479 39.7429 32.3645 39.3384C31.5694 38.8688 31.2672 39.3105 30.9185 39.9149C30.3467 40.8959 29.7981 41.9002 29.1379 42.83C28.9519 43.0346 28.7334 43.1787 28.4405 43.1508C28.3335 43.1229 28.2591 43.0532 28.208 42.9555C28.2126 42.7696 28.3289 42.6812 28.4916 42.6301C29.2215 41.3655 29.9329 40.0869 30.6954 38.8456C30.965 38.4085 30.886 38.2458 30.4722 37.9576C28.4916 36.586 26.4041 35.3725 24.5211 33.8569C23.926 33.378 23.3495 32.8759 22.7637 32.3831C22.8613 32.3691 22.9589 32.3598 23.0519 32.3459C23.3681 32.1785 23.6284 32.3459 23.8609 32.5179C24.3258 32.8526 24.8698 32.9317 25.3952 33.0944C26.3111 33.3826 26.869 33.0897 27.413 32.2994C27.8593 31.6578 27.8221 30.6954 28.6822 30.3327C28.752 30.4257 28.8217 30.5187 28.8914 30.6117C29.3006 30.1467 29.2355 29.4726 29.6074 28.9937C29.7004 28.8589 29.8259 28.7706 29.9933 28.752C30.0677 28.8542 30.1421 28.9565 30.2118 29.0635C30.5745 29.7423 30.1142 30.2583 29.8306 30.779C29.4075 31.5601 28.7706 32.1831 28.2266 32.8759C27.8732 33.3222 27.492 33.7918 27.7663 34.5682C28.1847 33.9778 28.4451 33.4152 28.8078 32.9224C29.7144 31.681 30.7 31.4346 32.053 32.1552C33.6756 33.02 35.247 33.9778 36.8278 34.9169C38.4643 35.8886 38.6922 36.9254 37.739 38.6085C37.5391 38.9572 37.2974 39.2873 37.1718 39.9103C38.0134 39.5848 38.2412 38.9525 38.4318 38.3341C38.8316 37.0509 39.3663 35.8468 40.4263 34.9681C40.7983 34.6612 41.1888 34.2056 41.77 34.6287C41.77 34.7123 41.7793 34.7914 41.7839 34.8751C41.7002 35.5167 41.0912 35.6794 40.6913 35.9909C40.1985 36.3814 40.4449 36.5814 40.7332 36.8557C40.3891 37.7158 39.5988 38.2598 39.2036 39.1013C38.6643 40.259 38.6829 40.4961 39.8126 41.6677C40.5379 42.4209 41.2307 42.5604 42.1559 42.1373C42.221 42.1094 42.2954 42.1001 42.3697 42.1047C42.4627 42.1094 42.5511 42.1187 42.644 42.1233C43.3321 42.8905 44.1458 43.4344 45.2012 43.5739C45.4708 43.6111 45.7684 43.7227 45.8102 44.0853C45.5638 44.1318 45.2848 44.0946 45.0942 44.3178L45.0896 44.3131Z" fill="#1B1A24"/>
<path id="Vector_8" d="M50.8111 37.8781C52.0106 35.7673 53.1543 33.624 54.4236 31.5551C59.9981 22.4657 56.1624 11.0656 46.0967 7.54145C40.2293 5.48646 34.7803 6.70457 30.0055 10.782C27.5227 12.9021 26.2209 15.8265 24.589 18.5231C23.2547 20.7315 21.9947 22.9818 20.6929 25.2088C20.4744 25.5854 20.307 26.0177 19.5957 26.3292C20.5256 24.6973 21.3299 23.2607 22.1575 21.838C23.5662 19.4204 24.9935 17.0121 26.4069 14.5944C31.9117 5.15171 44.5159 3.33383 52.4011 10.8517C57.7478 15.952 58.9706 24.6137 55.2325 30.9878C53.8378 33.3729 52.4383 35.7534 51.0435 38.1338C50.8483 38.157 50.732 38.1059 50.8111 37.8781Z" fill="#3E6B9F"/>
<path id="Vector_9" d="M41.7699 34.6241C40.217 34.9356 39.6591 36.2002 39.1012 37.4462C38.892 37.9111 38.7386 38.4086 38.5805 38.8968C38.2457 39.9103 37.6134 40.4636 36.4325 40.273C36.8463 39.5337 37.2647 38.8178 37.6553 38.0878C38.2643 36.9441 38.1016 36.0933 37.0369 35.4331C35.2562 34.3358 33.4477 33.2804 31.6158 32.2576C30.7092 31.7508 29.7654 32.0763 29.1424 33.0015C28.896 33.3688 28.6914 33.7593 28.4636 34.1406C28.2405 34.5125 28.008 34.8845 27.7616 35.2843C27.027 33.8198 27.0502 33.6059 28.3753 32.1414C29.1982 31.2301 29.956 30.3003 30.2164 29.0635C30.3512 28.6869 30.3233 28.3011 30.3094 27.9105C30.2861 27.2922 30.6116 27.5107 30.8999 27.6966C31.4996 30.6815 33.5035 32.4715 36.1489 33.5734C37.6971 34.2196 39.3476 34.7217 41.0493 33.8709C41.5421 33.6245 41.9047 33.8337 41.9698 34.4195C41.9047 34.4893 41.835 34.559 41.7699 34.6241Z" fill="#F8F8FA"/>
<path id="Vector_10" d="M42.3638 42.1001C41.9035 43.03 40.6156 43.0114 39.723 42.0629C39.6718 42.0118 39.63 41.9467 39.6021 41.8816C39.2813 41.226 38.184 40.789 38.3561 40.2265C38.6397 39.2966 39.0721 38.3016 39.8438 37.5764C40.1089 37.3253 40.3785 37.0882 40.6482 36.8418C40.6621 36.2513 40.9969 36.1955 41.4572 36.3582C42.9635 37.2044 43.2006 37.8181 42.8287 40.087C42.7171 40.7658 42.5218 41.4306 42.3638 42.1001Z" fill="#F6F8F9"/>
<path id="Vector_11" d="M39.3609 57.9032C38.7007 57.4429 38.1847 57.4986 37.4594 57.2894C34.6093 56.4757 31.9732 55.1786 29.4021 53.7466C28.9047 53.4677 28.6815 53.5095 28.4258 54.0023C27.9376 54.9461 26.8776 55.9736 27.0356 56.764C27.203 57.5869 28.6861 57.9217 29.6393 58.3773C32.1545 59.5861 34.6512 60.8786 37.543 60.9484C37.4036 61.0785 37.2594 61.2134 37.12 61.3436C36.3668 61.9805 35.595 61.5714 34.8511 61.3529C34.4048 61.2227 33.9631 61.0181 33.6051 60.688H33.5958C31.8988 60.1115 30.2809 59.363 28.7001 58.5214C27.8353 57.9961 26.7939 57.7125 26.2871 56.7129C26.6544 55.3646 27.2867 54.1697 28.277 53.1747C28.7466 52.6494 29.1557 53.0771 29.5416 53.291C31.764 54.5137 34.0282 55.6389 36.4272 56.4804C39.3656 57.5079 39.5934 56.9733 40.7557 55.3461C40.1978 56.4341 40.0072 56.3783 39.5934 57.4382L39.3609 57.9032Z" fill="#370A17"/>
<path id="Vector_12" d="M9.26068 44.5545C11.3901 47.6881 14.5748 49.5525 17.662 51.5378C17.9549 51.7237 18.1966 51.7749 18.3686 51.3983C18.4012 51.3332 18.4477 51.2774 18.4849 51.2123C19.0009 50.3243 19.9634 49.4037 19.9029 48.5529C19.8425 47.651 18.4105 47.3627 17.5876 46.7955C15.1699 45.1264 12.7848 43.4294 11.0321 41.0118C11.1855 40.863 11.3343 40.7142 11.4877 40.5654C12.6733 42.7878 14.7143 44.1314 16.6531 45.5681C17.7131 46.3538 18.8615 47.0187 19.9866 47.7114C20.5399 48.0554 20.7723 48.3762 20.326 49.0225C19.7216 49.8966 19.2102 50.8357 18.6987 51.7702C18.3919 52.3281 18.0664 52.3746 17.5597 52.0352C16.216 51.1426 14.8491 50.2778 13.4962 49.4037C11.8643 48.3669 10.2463 47.3162 9.18164 45.6332C9.02356 45.3821 8.7911 45.1822 8.97707 44.8521C9.07471 44.7544 9.16769 44.6522 9.26533 44.5545H9.26068Z" fill="#3D0C16"/>
<path id="Vector_13" d="M28.6807 30.3375C28.5784 30.6118 28.518 30.9047 28.3692 31.1512C27.8252 32.0671 27.6067 33.5316 26.4258 33.5781C25.4588 33.6153 24.1988 33.5595 23.4084 32.5831C23.3201 32.4762 23.1667 32.4251 23.0458 32.346C22.2135 31.6207 23.255 31.3418 23.3991 30.849C23.785 30.1423 24.1755 30.1702 24.3476 30.9326C24.594 32.0299 25.3379 32.3414 26.3096 32.4158C27.086 32.1461 27.4068 31.5231 27.2952 30.7839C27.1418 29.7657 26.3793 29.3612 25.0915 29.3333C26.105 28.7382 26.7885 27.9664 27.723 28.2872C28.5924 28.5848 28.6435 29.5146 28.6714 30.3375H28.6807Z" fill="#F6F6F9"/>
<path id="Vector_14" d="M24.5388 50.3296C23.3904 52.0823 22.3629 53.9049 21.3865 55.7599C20.1684 58.4472 18.8015 61.0508 16.9418 63.3662C16.356 64.3751 15.7655 65.3793 15.1797 66.3882C14.9519 66.8857 14.9705 67.5366 14.3196 67.7737C14.2452 67.6668 14.1662 67.5552 14.0918 67.4436C15.4866 64.6029 17.2208 61.9528 18.7969 59.219C21.7678 54.0536 24.7852 48.9115 27.7793 43.7601C27.9048 43.5416 27.9746 43.2905 28.0722 43.0534C28.1187 42.9604 28.1792 42.9511 28.2582 43.0209H28.2628C28.4163 43.1743 28.5929 43.3091 28.5883 43.5555C27.7561 45.3269 26.7425 47.0007 25.7708 48.6976C25.4268 49.2928 25.1385 49.9344 24.5434 50.3388L24.5388 50.3296Z" fill="#600510"/>
<path id="Vector_15" d="M34.8694 20.6529C34.8461 20.1926 35.1111 19.9462 35.4924 19.7323C36.9569 18.9094 38.5191 18.7048 40.1603 18.8908C40.7089 18.9512 40.7414 19.1232 40.4903 19.5835C40.0998 20.3088 39.793 20.8388 38.719 20.7551C36.7616 20.6064 35.2738 21.7129 34.0092 23.117C33.7535 22.1081 34.3672 21.3967 34.8647 20.6482L34.8694 20.6529Z" fill="#F9F9FB"/>
<path id="Vector_16" d="M43.3832 38.3296C44.7594 39.2734 45.9217 40.3381 46.9073 41.5887C47.27 42.0537 47.6187 42.5372 47.7303 43.1323C47.8093 43.5507 47.6373 43.8344 47.2235 43.9878C46.8748 44.118 46.6051 44.1273 46.368 43.7693C45.5869 42.593 44.5501 41.6492 43.518 40.7007C42.723 39.9661 43.5738 39.12 43.3785 38.3296H43.3832Z" fill="#CDBAD5"/>
<path id="Vector_17" d="M41.9684 34.4192C41.7313 34.3262 41.7685 33.6799 41.378 34.0007C40.1413 35.0282 38.779 34.6052 37.4865 34.3448C34.5807 33.7636 32.4885 32.0155 31.0333 29.4677C30.7125 28.9051 30.5684 28.31 30.8985 27.6916C30.9682 27.78 31.0426 27.8683 31.1123 27.9567C31.6842 28.7145 31.8004 29.728 32.5118 30.4068C34.9155 33.2708 38.8906 34.6702 40.9038 33.3545C40.7364 33.294 40.5458 33.308 40.383 33.215C40.2389 33.1267 40.1459 33.0058 40.1692 32.8245C40.4156 32.4618 40.8247 32.3735 41.1967 32.2619C42.3404 31.9225 42.968 31.1879 43.0424 29.9884C43.0982 29.7792 43.1912 29.5932 43.3121 29.4165C43.7119 29.0028 43.9165 28.4727 44.1908 27.9799C44.7115 27.4452 44.9858 26.5572 45.9808 26.6735C46.111 26.8269 46.2411 26.985 46.3667 27.1384C44.7069 28.1473 43.8049 29.6072 43.7584 31.5692C43.6794 31.6947 43.605 31.8202 43.526 31.9504C43.326 32.2805 43.591 32.406 43.8049 32.5223C44.4512 32.8617 44.8092 33.4196 45.037 34.0844C44.8464 34.4052 44.6511 34.726 44.4605 35.0468C44.1071 34.8795 44.1397 34.5122 44.0281 34.2193C43.8142 33.6706 43.4144 33.2847 42.8472 33.2243C42.2009 33.1546 42.4985 33.9217 42.1591 34.1635C42.094 34.2472 42.0242 34.3355 41.9591 34.4192H41.9684Z" fill="#292233"/>
<path id="Vector_18" d="M21.6292 28.6403C21.1643 28.5473 20.704 28.4031 20.2344 28.3706C19.7137 28.3334 19.3603 28.1149 19.3371 27.6128C19.3092 26.9944 19.7974 26.8503 20.3041 26.8038C21.2293 26.7201 22.1313 26.8968 23.01 27.1385C24.0236 27.4175 25.0185 27.7708 26.2134 28.1567C25.4834 28.6681 24.9116 29.068 24.3397 29.4678C23.3308 29.5376 22.4242 29.2679 21.6245 28.6496L21.6292 28.6403Z" fill="#CCBBD3"/>
<path id="Vector_19" d="M8.97379 44.8525C9.87575 46.6053 11.4891 47.67 12.9164 48.9114C13.107 49.0788 13.3023 49.2415 13.4929 49.4042C12.2515 49.4042 11.6657 48.2651 10.708 47.7537C9.62934 47.1725 9.1923 47.3818 8.88545 48.6185C8.10437 47.7769 8.61115 47.2376 9.02958 46.7541C9.19696 46.5588 9.48521 46.4612 9.31784 46.1543C9.2388 46.0102 9.05283 45.8382 8.91335 45.8289C8.62509 45.8196 8.46237 46.0707 8.39728 46.3217C8.04858 47.7351 6.96994 48.9067 7.32329 50.5944C7.43952 51.1523 6.51431 51.9567 6.5701 52.8633C6.6166 53.6351 6.57475 54.4115 6.5701 55.1833C6.50037 55.2902 6.43528 55.2856 6.37948 55.174C6.03079 51.8544 6.70028 48.7301 8.2206 45.7778C8.40192 45.4291 8.55535 45.0292 8.96449 44.8525H8.97379Z" fill="#D83C59"/>
<path id="Vector_20" d="M28.4636 43.4575C28.3985 43.3133 28.3288 43.1692 28.2637 43.0204C28.4543 42.946 28.6449 42.8716 28.8355 42.7973C29.3609 42.7322 29.7096 43.0855 30.1001 43.3366C30.7232 43.7411 31.2067 43.7085 31.6205 42.9925C31.8715 42.5555 31.9971 41.9325 32.6805 41.8813C32.7409 41.965 32.7967 42.0487 32.8572 42.1324C32.5689 42.9786 31.4345 43.7643 31.7878 44.4757C32.1179 45.1405 33.2989 45.3962 34.1218 45.7961C36.7998 47.0839 39.515 48.2881 42.4626 48.846C43.0345 48.9529 43.6296 48.9576 44.2107 49.0087C44.2619 49.2133 44.8105 49.2505 44.4107 49.6085C39.5429 49.0924 35.3027 46.8514 31.0068 44.7593C30.128 44.3873 29.3563 43.8015 28.4636 43.4621V43.4575Z" fill="#3D0D18"/>
<path id="Vector_21" d="M39.3147 21.1455C40.8351 21.1967 41.9462 22.0149 42.9226 23.075C43.4247 23.247 43.6386 23.6701 43.8478 24.1071C45.0287 26.6038 44.0012 29.8304 41.5603 31.1787C39.4403 32.3457 37.3574 32.2759 35.3582 30.8625C34.9955 30.6068 34.6422 30.3372 34.5957 29.8397C34.6236 29.6491 34.7352 29.5189 34.9072 29.4398C35.4093 29.3841 35.7022 29.756 36.0509 30.0117C37.6456 31.1833 39.5797 31.2159 41.3093 30.0954C42.8575 29.0958 43.5688 27.0966 43.0807 25.1253C42.6483 23.3725 41.2023 22.1544 39.3008 21.9219C38.8405 21.8661 38.3291 21.9684 37.9618 21.55C38.25 20.8619 38.9056 21.4245 39.3101 21.1502L39.3147 21.1455Z" fill="#B6AFC6"/>
<path id="Vector_22" d="M14.3203 67.7732C14.6086 67.3129 14.8922 66.848 15.1804 66.3877C15.2223 67.113 14.7945 68.0242 16.008 68.266C16.2963 68.3218 16.4171 68.4194 16.7286 68.173C17.3331 67.7034 18.0351 68.0568 18.0444 68.8146C18.049 69.3586 18.3698 69.2796 18.6674 69.3307C22.0102 69.9072 25.3298 70.1071 28.5472 68.6891C28.9005 68.531 29.2631 68.5775 29.6211 68.6751C24.3628 71.0509 19.2672 70.6929 14.325 67.7639L14.3203 67.7732Z" fill="#CC3D56"/>
<path id="Vector_23" d="M34.7066 29.7239C36.6221 31.9184 39.5186 32.2903 41.8386 30.6445C44.0331 29.0916 44.6514 26.0417 43.2659 23.638C43.1544 23.4474 43.0381 23.2614 42.9219 23.0754C42.9777 23.0057 43.0381 22.936 43.0939 22.8662C44.2005 23.108 44.2005 24.1122 44.5073 24.9073C44.8002 25.9208 44.9722 26.925 44.3585 27.8921C44.1028 28.4826 43.8146 29.0544 43.5263 29.6263C43.4519 29.7425 43.3775 29.8634 43.3031 29.9796C42.4802 31.8998 39.2955 32.8482 36.8825 32.0393C36.0735 31.7696 35.3296 31.3651 34.6787 30.7979C33.3537 29.5101 32.6563 27.9618 32.7771 26.0928C32.805 25.679 32.7492 25.1816 33.3258 25.0328C33.3955 25.1211 33.4652 25.2095 33.5303 25.2978C34.0696 25.6976 33.6977 26.2602 33.7395 26.7298C33.8372 27.8131 34.5578 28.6685 34.6973 29.7193L34.7066 29.7239Z" fill="#262032"/>
<path id="Vector_24" d="M33.5997 60.6929C34.7527 61.0183 35.8918 61.4182 37.1192 61.3438C37.454 61.4042 37.4028 61.5855 37.2726 61.8087C36.0034 63.966 34.4924 65.9001 32.2793 67.1833C32.7489 66.3232 33.7578 66.0024 34.2738 65.2027C34.6876 64.5564 36.1708 63.9148 34.3761 63.1291C34.1158 63.0175 34.3575 62.9571 34.4505 62.878C35.4455 62.0179 34.8829 61.5902 33.9949 61.2461C33.7531 61.1532 33.3486 61.1485 33.6043 60.6929H33.5997Z" fill="#B93D58"/>
<path id="Vector_25" d="M33.3361 25.037C32.662 27.2361 33.4756 29.0029 34.9262 30.5929C35.0749 30.8765 35.1912 31.1648 34.9866 31.4763C34.4984 31.7738 34.1218 31.4902 33.8336 31.1741C32.5969 29.8397 31.7135 28.4031 31.8669 26.4179C31.9413 25.4462 31.8762 24.6232 32.9316 24.2141C33.0757 24.1583 33.2152 24.1583 33.3501 24.2234C33.3454 24.493 33.3408 24.7674 33.3361 25.037Z" fill="#F5F6F9"/>
<path id="Vector_26" d="M33.3499 24.2233C32.2387 24.7021 31.8017 25.4879 32.0016 26.7246C32.3317 28.7377 33.1639 30.4115 34.8981 31.5645C35.4514 31.4854 35.8698 31.8341 36.3301 32.0341C37.2506 32.4339 38.2177 32.5873 39.2126 32.6245C39.566 32.6385 39.9565 32.499 40.2169 32.8756C40.3192 32.95 40.4261 33.029 40.5284 33.1034C40.2959 33.6753 39.7752 33.6055 39.3149 33.6241C36.4045 33.7543 34.1682 32.5315 32.5084 30.179C31.8342 29.2584 31.625 28.1612 31.3693 27.0872C31.5646 26.6362 32.1318 26.2271 31.5088 25.6971C31.453 25.4181 31.1461 25.1857 31.36 24.8649C31.5088 24.5673 31.6529 24.2744 31.8017 23.9768C32.076 24.3488 32.3317 24.214 32.5967 23.9582C32.8757 23.6839 33.1593 23.4143 33.3638 23.0749L33.3406 23.1028C33.7637 22.4937 34.1031 21.8521 34.2286 21.1129C34.2658 20.8851 34.3262 20.6805 34.6052 20.6479C34.6935 20.6479 34.7819 20.6479 34.8702 20.6526C34.8702 21.5732 34.2518 22.2799 34.0147 23.1214C33.7916 23.4887 33.5684 23.856 33.3499 24.2233Z" fill="#302A38"/>
<path id="Vector_27" d="M43.6613 9.12749C39.263 8.81599 35.2507 9.86673 31.6289 12.3866C32.861 10.0202 40.1464 7.78384 43.6613 9.12749Z" fill="#366FA8"/>
<path id="Vector_28" d="M28.2573 43.0156C28.1922 43.0156 28.1318 43.0295 28.0714 43.0481C24.7239 40.9373 21.381 38.8172 18.5217 36.0416C17.5546 35.1071 16.5225 34.2051 16.0762 32.8615C16.1785 32.8382 16.2854 32.8104 16.3877 32.7871C17.4477 34.6422 19.0145 36.037 20.6464 37.3481C23.1106 39.324 25.6351 41.2116 28.4851 42.6157C28.4107 42.7459 28.3317 42.8807 28.2573 43.0109V43.0156Z" fill="#3D0D18"/>
<path id="Vector_29" d="M42.1693 34.164C41.8113 33.5689 41.9833 33.0435 42.4669 32.6437C42.7272 32.4298 44.2522 33.4759 44.3917 33.9827C44.4847 34.3221 44.4521 34.694 44.4707 35.0474C44.122 35.6518 43.7733 36.2515 43.4153 36.8513C43.3828 36.9071 43.3037 36.9303 43.1922 37.0047C42.8667 36.0377 42.6947 35.0334 42.1693 34.1593V34.164Z" fill="#CDBBD5"/>
<path id="Vector_30" d="M44.2189 24.8603C43.8841 24.1722 43.7307 23.3865 43.0938 22.8658C43.1123 22.1126 43.7307 21.6616 44.0329 20.9131C44.7489 21.6384 45.2789 22.373 45.5486 23.2842C45.6741 23.8096 45.8136 24.3582 45.3626 24.7906C45.0232 25.116 44.6327 25.4601 44.2142 24.8603H44.2189Z" fill="#F6F8F9"/>
<path id="Vector_31" d="M6.38715 55.1736C6.45224 55.1736 6.51733 55.1782 6.57777 55.1829C6.52663 55.9593 7.32631 55.9919 7.66571 56.4289C8.0795 56.9636 9.26042 57.0705 8.55837 58.27C8.46539 58.4327 8.32126 59.0046 8.27012 59.358C8.19573 59.874 8.0702 60.4226 8.10274 60.9666C7.44254 59.8694 6.90787 58.7443 6.97296 57.4053C7.01016 56.6195 6.16399 56.0291 6.38715 55.1689V55.1736Z" fill="#BE3350"/>
<path id="Vector_32" d="M45.8038 44.0805C45.1762 43.927 44.5253 43.8294 43.9255 43.6016C43.2607 43.3505 42.5679 43.0437 42.6377 42.1185C42.9352 41.7884 42.7818 41.2537 43.1909 40.9189C44.1208 41.6768 44.9484 42.523 45.6923 43.4528C45.8224 43.6155 46.1386 43.8062 45.8038 44.0758V44.0805Z" fill="#CCBAD2"/>
<path id="Vector_33" d="M44.2187 24.8603C45.5391 25.0742 45.4228 24.0746 45.553 23.2842C46.0598 24.3721 46.2318 25.5019 45.9854 26.6828C45.2833 26.9943 44.8742 27.6127 44.4139 28.1799C44.214 28.2264 44.1024 28.1892 44.1908 27.9521C44.4651 26.9246 44.4325 25.8924 44.2187 24.8603Z" fill="#CBBDD4"/>
<path id="Vector_34" d="M23.1908 30.6256C22.5957 31.3508 21.9541 30.8952 21.4752 30.5605C20.8382 30.1095 20.2571 29.5376 19.834 28.6729C20.5081 28.7705 21.066 28.8542 21.624 28.9379C22.1261 28.7612 22.5585 29.0541 23.0002 29.1843C23.3488 29.2866 23.8928 29.2308 23.93 29.7794C23.9626 30.2583 23.5674 30.4582 23.1908 30.6302V30.6256Z" fill="#CBBBD4"/>
<path id="Vector_35" d="M41.5274 21.3968C41.0392 21.2992 40.3232 21.1876 40.2999 20.7552C40.272 20.3043 40.7742 19.8161 41.0485 19.3512C41.1275 19.2163 41.253 19.1559 41.4158 19.2163C42.2387 19.5278 43.0058 19.937 43.6474 20.5414C43.8706 20.7552 43.6195 20.9273 43.5033 21.0946C42.9128 21.634 42.2062 21.4154 41.532 21.3968H41.5274Z" fill="#F7F5F6"/>
<path id="Vector_36" d="M30.0436 25.2974C30.3039 25.4229 30.5922 25.5205 30.8246 25.6879C31.0804 25.8739 31.6476 25.8785 31.4291 26.3992C31.2663 26.7851 31.0711 27.2082 30.4992 27.2082C29.4252 27.2082 28.3884 27.4546 27.2168 27.8173C27.3702 27.3012 27.5237 26.9386 27.8212 26.6317C28.7883 26.5666 29.3741 25.8646 30.0436 25.302V25.2974Z" fill="#C8BCD1"/>
<path id="Vector_37" d="M34.7066 29.7233C33.5629 28.4494 33.3258 26.9338 33.5396 25.3019C34.3951 22.3775 36.4361 20.9083 39.314 21.1454C38.9328 21.4755 38.3702 21.1454 38.0029 21.5127C37.7984 21.9218 37.366 21.9776 37.0034 22.1404C34.516 23.2794 33.5443 25.7529 34.5811 28.2774C34.7438 28.668 35.1018 29.0167 34.9112 29.5048C34.8461 29.5746 34.7763 29.649 34.7112 29.7187L34.7066 29.7233Z" fill="#E6E8EF"/>
<path id="Vector_38" d="M23.1911 30.6259C23.4096 30.3423 23.6281 30.0633 23.9117 29.696C23.112 29.431 22.3681 29.1846 21.6289 28.9382C21.6289 28.8405 21.6289 28.7383 21.6289 28.6406C22.5867 28.7476 23.4747 29.073 24.3441 29.4589C23.7722 30.1563 25.1252 29.5147 24.7672 30.068C24.8974 30.1702 24.9671 30.3097 25.0043 30.4632C24.7811 31.3977 25.711 31.6115 26.0783 32.1787C26.1573 32.2578 26.241 32.3368 26.32 32.4159C24.9253 32.8854 24.1488 32.2299 24.014 30.4074C23.7908 30.5701 23.6002 30.7096 23.4049 30.849C23.3352 30.7747 23.2608 30.7003 23.1911 30.6259Z" fill="#403B4A"/>
<path id="Vector_39" d="M41.458 36.3581C41.1604 36.4744 40.8536 36.572 40.649 36.8416C40.3607 36.5766 40.119 36.8045 39.7656 36.9811C40.212 35.9629 40.8536 35.2841 41.7834 34.875C42.5599 35.047 42.2995 35.8049 42.7272 36.3628H41.458V36.3581Z" fill="#EFEFF1"/>
<path id="Vector_40" d="M31.3741 27.0918C31.9739 27.0964 31.6996 27.6125 31.8251 27.8868C32.1366 28.5656 32.4156 29.2584 32.7085 29.9418C32.7457 30.2812 32.7736 30.6113 32.2807 30.6113C31.6345 29.8395 31.0394 29.0491 31.1184 27.9612C31.2067 27.673 31.2904 27.3847 31.3788 27.0918H31.3741Z" fill="#F3F4F8"/>
<path id="Vector_41" d="M30.0446 25.2975C29.7471 26.4366 28.8172 26.9945 27.8223 26.6272C28.2779 25.7066 28.7475 24.814 30.0446 25.2975Z" fill="#F2EFF4"/>
<path id="Vector_42" d="M26.0729 32.1783C24.9013 32.1458 24.6363 31.4158 24.7246 30.4116C25.25 29.7793 25.8358 29.6305 26.5099 30.1931C27.305 31.0578 26.8214 31.6436 26.0775 32.1737L26.0729 32.1783Z" fill="#302F38"/>
<path id="Vector_43" d="M29.9926 28.7568C29.9275 28.859 29.8625 28.966 29.7974 29.0683C29.5417 29.231 29.4254 29.9423 28.9512 29.2914C28.7001 28.859 28.4444 28.4267 28.1934 27.9943C29.8485 27.348 29.9833 27.4038 29.988 28.7568H29.9926Z" fill="#EBEAEC"/>
<path id="Vector_44" d="M50.8128 37.8784C50.8918 37.9621 50.9662 38.0504 51.0452 38.1341C50.2084 39.6033 49.3715 41.0771 48.5393 42.5463C48.437 42.4905 48.3347 42.4301 48.2324 42.3743C49.0275 40.84 49.8225 39.3104 50.8174 37.8784H50.8128Z" fill="#3F6498"/>
<path id="Vector_45" d="M43.7645 31.5789C43.5459 31.5185 43.4762 31.3511 43.5134 31.1558C43.8481 29.51 44.6664 28.1477 45.9682 27.0924C46.038 27.0319 46.2332 27.1249 46.3727 27.1481C46.303 27.3527 46.289 27.6735 46.1542 27.7386C44.6757 28.4407 43.983 29.5658 44.1457 31.2116C44.155 31.3232 43.8993 31.458 43.7691 31.5789H43.7645Z" fill="#BBB4C7"/>
<path id="Vector_46" d="M44.6428 48.7621C44.522 48.0833 43.7874 48.1763 43.248 47.5719C44.2337 47.7532 44.8242 46.8838 45.7215 47.2046C45.5262 47.8415 45.1264 48.3297 44.6428 48.7667V48.7621Z" fill="#C3C6CD"/>
<path id="Vector_47" d="M8.94531 62.52C10.2146 63.7893 11.3908 65.1422 12.5299 66.5277C11.0142 65.4816 9.83333 64.1287 8.94531 62.52Z" fill="#BE3350"/>
<path id="Vector_48" d="M45.0475 34.0891C44.5036 33.5312 44.0479 32.9035 43.318 32.513C42.4997 32.076 43.304 32.0853 43.5365 31.9551C44.3734 32.4293 45.1963 32.9128 45.0475 34.0891Z" fill="#CBCAD6"/>
<path id="Vector_49" d="M32.1133 23.7023C32.3829 22.5121 32.7409 21.6706 33.7545 20.9546C33.5127 22.1262 33.0338 22.898 32.1133 23.7023Z" fill="#CAC8D7"/>
<path id="Vector_50" d="M41.5273 21.3969C42.1132 20.839 42.8524 21.2481 43.4986 21.0947C43.0523 21.9967 42.3952 22.0974 41.5273 21.3969Z" fill="#C5BCCC"/>
<path id="Vector_51" d="M44.498 30.6443C44.5957 29.6215 45.0467 28.8079 45.9486 28.064C45.8556 29.2728 45.1861 29.9655 44.498 30.6443Z" fill="#BBB8C9"/>
<path id="Vector_52" d="M31.3652 24.8647C31.5976 25.1111 31.6116 25.3947 31.5139 25.6969C30.7468 25.2041 29.9983 24.6694 28.8359 24.9205C29.8309 23.9116 30.5934 24.5207 31.3652 24.8647Z" fill="#CAC9D6"/>
<path id="Vector_53" d="M34.6044 20.6484C34.2279 21.4899 34.1116 22.4663 33.3398 23.1032C33.4142 22.271 34.3859 21.6341 33.8559 20.6484C33.7536 20.4578 34.0465 20.2718 34.2604 20.23C34.5812 20.1695 34.5952 20.4159 34.5998 20.6438L34.6044 20.6484Z" fill="#BAB8C5"/>
<path id="Vector_54" d="M19.426 29.0634C18.9703 29.4958 18.5193 29.3563 18.0684 29.0494C18.4496 28.6821 18.4171 28.0498 18.9145 27.7197C19.0866 28.1754 19.2539 28.617 19.4213 29.0587L19.426 29.0634Z" fill="#C3C4CC"/>
<path id="Vector_55" d="M33.3685 23.0801C33.1221 23.8519 32.5735 24.3493 31.9133 24.7538C31.6855 24.4888 31.7971 24.2331 31.811 23.982C32.5921 24.1355 32.8385 23.3544 33.3732 23.0801H33.3685Z" fill="#CAC7D5"/>
<path id="Vector_56" d="M28.9569 29.2866C29.3335 29.5749 29.4869 29.0077 29.8031 29.0635C29.7799 29.7051 29.4312 30.2072 29.0639 30.6907C29.0499 30.7047 28.9941 30.7047 28.9709 30.6907C28.943 30.6768 28.9197 30.6396 28.8965 30.6117C28.9151 30.17 28.9383 29.7237 28.9569 29.282V29.2866Z" fill="#BEB9C8"/>
<path id="Vector_57" d="M26.5099 30.1974C25.8683 29.8859 25.2779 29.9975 24.7246 30.4159C24.7386 30.2997 24.7479 30.1835 24.7618 30.0672C25.3709 29.7418 25.9892 29.3233 26.5053 30.1974H26.5099Z" fill="#D4D4D9"/>
<path id="Vector_58" d="M16.9414 63.366C18.3269 60.7764 19.7821 58.2285 21.3861 55.7598C21.0328 56.5873 21.0049 57.2801 22.0835 57.573C22.1905 57.6009 22.2323 57.8752 22.302 58.0333C22.1114 58.1913 21.9115 58.1216 21.7162 58.0705C21.9348 58.3076 22.2695 58.4378 22.4927 58.6981C22.395 58.9538 22.3113 59.2235 22.0649 59.3862C21.693 59.3397 21.3908 59.1723 21.1444 58.898C21.335 59.1863 21.772 59.2514 21.8418 59.6512C21.7534 59.7954 21.6697 59.9348 21.5814 60.079C21.149 60.344 20.8422 59.9674 20.7027 59.9069C20.8422 59.9441 21.1258 60.4184 21.5721 60.0743C21.6496 60.3068 21.459 60.6632 21.0002 61.1436C20.6701 61.1855 20.4098 60.9856 20.0983 60.8786C20.3354 61.1065 20.6608 61.2134 20.7259 61.5621C20.7352 61.8178 20.7817 62.0875 20.4935 62.2455C20.1262 62.1061 19.7961 61.8875 19.3125 61.6411C19.7914 61.9061 20.1215 62.1293 20.5028 62.2409C20.526 62.6965 20.2145 62.9243 19.8891 63.1475C19.6055 63.0545 19.3637 62.8825 19.1033 62.7523C19.3358 62.915 19.6055 63.0452 19.6287 63.38C19.3404 63.6915 19.0429 63.4636 18.8755 63.2916C18.1828 62.5896 17.5644 62.7756 16.9461 63.366H16.9414Z" fill="#C24864"/>
<path id="Vector_59" d="M28.4623 43.4578C29.4805 43.5601 30.1965 44.2435 31.0055 44.7549C30.4336 44.7549 30.0012 44.4109 29.5317 44.1552C28.6855 43.6949 28.3275 43.932 28.2624 45.006C28.3554 45.8057 29.3364 45.722 29.6014 46.3496C29.4526 46.4891 29.3085 46.6286 29.1597 46.7681C28.8157 46.9773 28.5414 46.7495 28.2345 46.6053C28.5274 46.8285 28.8808 46.9308 29.1179 47.2005C28.9691 47.3678 28.8203 47.5306 28.6715 47.6979C28.3833 47.87 28.1276 47.7444 27.83 47.5956C28.1183 47.7909 28.3228 48.0001 28.4623 48.2698C28.5088 48.6045 28.3647 48.8324 28.0764 48.9858C27.751 48.8649 27.5092 48.5906 27.0443 48.4511C27.5046 48.6417 27.7742 48.8696 28.0067 49.1485C28.0532 49.4879 27.9184 49.725 27.6022 49.8552C27.2814 49.6785 26.942 49.5391 26.4399 49.274C26.9374 49.5484 27.2768 49.6832 27.5976 49.8645C27.6022 50.2039 27.4348 50.4178 27.1233 50.5387C26.5003 50.8548 26.054 49.9017 25.417 50.3015C25.1241 50.3108 24.8312 50.3201 24.543 50.3294C25.8494 48.0373 27.1605 45.7452 28.467 43.4531L28.4623 43.4578Z" fill="#C14965"/>
<path id="Vector_60" d="M28.2723 53.1792C27.7236 54.4252 27.0262 55.5829 26.2824 56.7173C26.1196 55.913 26.5985 55.1552 26.4172 54.3229C26.3521 54.0161 26.7752 53.7418 27.1518 53.6255C27.533 53.5047 27.8957 53.328 28.2676 53.1792H28.2723Z" fill="#C83A58"/>
<path id="Vector_61" d="M28.6953 58.5308C30.383 59.1305 31.9731 59.9395 33.591 60.6973C31.7731 60.3951 30.1738 59.6001 28.6953 58.5308Z" fill="#B93D58"/>
<path id="Vector_62" d="M20.7257 61.5614C20.3677 61.3801 20.0004 61.2174 19.661 61.0082C19.4611 60.8826 19.145 60.7199 19.2844 60.427C19.4332 60.1155 19.7122 60.2782 19.94 60.4038C20.3212 60.613 20.749 60.7525 21 61.1477C20.907 61.2871 20.8187 61.4266 20.7257 61.5661V61.5614Z" fill="#5D0817"/>
<path id="Vector_63" d="M29.6013 46.3495C29.0109 46.3495 28.6064 45.9311 28.1507 45.6568C27.7416 45.4104 27.988 45.1872 28.2577 45.0059C28.7691 45.3918 29.6989 45.3546 29.5967 46.3495H29.6013Z" fill="#530715"/>
<path id="Vector_64" d="M28.0028 49.1481C27.4077 49.1341 27.0172 48.6971 26.543 48.4321C26.4174 48.3623 26.3152 48.2322 26.4267 48.0694C26.5151 47.9393 26.6638 47.837 26.7987 47.93C27.259 48.2322 27.9796 48.2368 28.0772 48.9807C28.0447 49.0318 28.0168 49.083 28.0028 49.1434V49.1481Z" fill="#58071A"/>
<path id="Vector_65" d="M25.4133 50.3014C25.1715 49.8178 25.2784 49.5807 25.8224 49.8132C26.278 50.0038 26.6872 50.2921 27.1196 50.5385C26.4082 51.5055 25.9898 50.3385 25.4133 50.3014Z" fill="#500613"/>
<path id="Vector_66" d="M21.8469 59.6511C21.8098 59.6418 21.7726 59.6372 21.74 59.6186C21.2472 59.3303 20.6521 59.1862 20.3359 58.6515C20.308 58.605 20.4382 58.3865 20.4615 58.3958C21.1077 58.5399 21.6935 58.8003 22.0701 59.3814C21.9957 59.4698 21.9213 59.5581 21.8469 59.6465V59.6511Z" fill="#4F0414"/>
<path id="Vector_67" d="M22.4982 58.6982C22.3866 58.6982 22.2564 58.7307 22.1727 58.6796C21.6939 58.396 20.7408 58.1495 20.9546 57.6939C21.2103 57.1546 21.8101 57.9543 22.3029 58.0333C22.5354 58.2053 22.5679 58.4331 22.4982 58.6935V58.6982Z" fill="#580416"/>
<path id="Vector_68" d="M29.119 47.2001C28.3983 47.2605 27.8636 46.8653 27.4824 46.3585C27.2499 46.0517 27.6963 45.9355 28.3239 46.2888C28.6075 46.4469 28.8818 46.6096 29.1608 46.7723C29.1468 46.9165 29.1329 47.0606 29.119 47.2047V47.2001Z" fill="#590717"/>
<path id="Vector_69" d="M19.6288 63.38C19.2197 63.1382 18.8105 62.9011 18.4014 62.6547C18.234 62.5524 18.0992 62.4083 18.2108 62.213C18.3177 62.0317 18.5316 62.0038 18.685 62.134C19.0848 62.4734 19.759 62.4919 19.8938 63.1475C19.8055 63.2265 19.7171 63.3009 19.6334 63.38H19.6288Z" fill="#540312"/>
<path id="Vector_70" d="M28.4623 48.2649C27.9183 47.9673 26.8304 47.5907 27.0768 47.2234C27.5185 46.5679 28.0671 47.6465 28.6715 47.6977C28.6018 47.8883 28.532 48.0789 28.4623 48.2649Z" fill="#4F0614"/>
<path id="Vector_71" d="M27.6731 40.8169C27.6592 41.2028 27.4778 41.2261 27.1896 41.054C26.9711 40.9239 26.8781 40.789 27.0361 40.5333C27.5197 39.7429 27.9846 38.9433 28.4542 38.1436C28.5983 37.8972 28.9703 37.9018 28.9517 38.0227C28.8587 38.7015 30.2535 39.106 29.2725 39.9289C29.0167 40.1428 28.8959 40.5101 28.7099 40.8076C28.3627 40.5008 28.3054 40.1071 28.5379 39.6267C28.324 39.8034 28.2496 40.0452 28.1706 40.2683C28.0776 40.524 27.8684 40.6635 27.6685 40.8169H27.6731Z" fill="#64666E"/>
<path id="Vector_72" d="M27.6768 38.2597C27.6303 38.7153 27.4304 39.0593 26.9468 39.0547C26.3052 39.0454 25.8031 38.7571 25.7613 38.0458C25.7334 37.5669 26.096 37.2786 26.5238 37.3065C27.091 37.3391 27.5652 37.618 27.6768 38.2597Z" fill="#26272F"/>
<path id="Vector_73" d="M27.6719 40.8165C28.0252 40.2446 28.3786 39.6681 28.8063 38.9707C29.0248 39.7006 27.8439 40.2074 28.7087 40.8072C28.3646 41.1931 28.0159 40.956 27.6719 40.8165Z" fill="#ADAEB8"/>
<path id="Vector_74" d="M26.5325 40.0915C26.0908 39.8172 25.6305 39.5336 25.1795 39.2314C25.1377 39.2035 25.1656 39.0408 25.1935 38.9524C25.2446 38.799 25.3702 38.8687 25.4631 38.8966C25.9141 39.0268 26.221 39.608 26.83 39.3104C26.9695 39.2407 27.016 39.4918 26.9695 39.6173C26.8998 39.8126 26.8114 40.0125 26.5371 40.0915H26.5325Z" fill="#28242C"/>
<path id="Vector_75" d="M34.6318 44.9641C33.7717 44.9501 33.0417 44.1737 33.065 43.295C33.0882 42.4163 33.8647 41.691 34.7387 41.7375C35.571 41.7793 36.2498 42.5092 36.2451 43.3415C36.2405 44.2434 35.5105 44.978 34.6318 44.9641Z" fill="#3E141C"/>
<path id="Vector_76" d="M28.4443 56.5172C28.3606 56.7636 28.2165 56.9729 27.9143 56.9543C27.5702 56.931 27.3796 56.7311 27.4354 56.3777C27.4819 56.0755 27.7051 55.95 27.9887 55.9779C28.2862 56.0105 28.4117 56.2197 28.4443 56.5172Z" fill="#2C212E"/>
<path id="Vector_77" d="M29.5703 54.5368C29.4959 54.8018 29.3564 55.0017 29.0542 54.997C28.7613 54.9877 28.5614 54.8111 28.5567 54.5321C28.5521 54.1927 28.7799 54.0021 29.1146 54.0253C29.4122 54.0439 29.5377 54.2625 29.5703 54.5414V54.5368Z" fill="#201F27"/>
<path id="Vector_78" d="M18.8019 49.111C18.5322 49.0459 18.323 48.8971 18.3184 48.6042C18.3184 48.3206 18.4997 48.1114 18.7833 48.1067C19.118 48.0974 19.3366 48.3113 19.318 48.6507C19.304 48.9343 19.0855 49.0831 18.7972 49.111H18.8019Z" fill="#282834"/>
<path id="Vector_79" d="M18.1972 50.5247C18.1414 50.8688 17.9694 51.0547 17.6764 51.0361C17.3975 51.0175 17.1836 50.8595 17.2162 50.5387C17.2441 50.2504 17.4161 50.0737 17.7229 50.0737C18.0484 50.0737 18.1321 50.3155 18.2018 50.5201L18.1972 50.5247Z" fill="#1A1C22"/>
<path id="Vector_80" d="M37.1798 38.0229C37.0542 38.7064 36.4545 39.4689 35.9337 40.2546C35.7757 40.4963 35.5339 40.2313 35.3572 40.143C32.9628 38.9249 30.6614 37.5394 28.3972 36.0981C28.2206 35.9865 28.002 35.9028 28.0206 35.6099C28.1183 33.8479 30.0849 32.746 31.5867 33.62C33.1116 34.5081 34.6319 35.4007 36.1616 36.2794C36.7381 36.6095 37.1844 37.0047 37.1751 38.0229H37.1798Z" fill="#F8F9FA"/>
<path id="Vector_81" d="M32.6797 41.8818C32.5542 42.0585 32.4147 42.2305 32.3031 42.4165C31.0385 44.5273 30.7781 44.5598 28.8301 42.7977C29.574 41.5331 30.3318 40.2824 31.0524 39.0039C31.3082 38.5483 31.5453 38.4181 31.973 38.7761C32.5123 39.2317 33.6003 39.2596 33.6421 39.9616C33.6793 40.58 33.0284 41.2402 32.6797 41.8818Z" fill="#F6F5F8"/>
<path id="Vector_82" d="M37.5571 36.8512C35.1441 35.2426 32.7543 33.5921 30.002 32.625C30.4994 32.1787 31.1038 32.3275 31.7082 32.6855C33.3262 33.6339 34.9395 34.5777 36.5482 35.5401C37.0735 35.8563 37.65 36.1631 37.5571 36.8559V36.8512Z" fill="#C5C0D3"/>
<path id="Vector_83" d="M25.1855 33.792C25.8829 33.8524 26.5524 33.8803 27.0406 34.6475C26.0875 34.8846 25.6598 34.229 25.1855 33.792Z" fill="#ACA9B8"/>
<path id="Vector_84" d="M39.0823 41.9416C38.371 41.579 37.6596 41.486 37.3574 40.7421C38.1896 40.6724 38.3617 40.7886 39.0823 41.9416Z" fill="#BAB3C7"/>
<path id="Vector_85" d="M42.7036 39.1667C42.6338 39.6642 42.5548 40.078 42.1085 39.9152C41.4855 39.6874 40.5742 40.0547 40.2906 39.1481C40.2255 38.9342 40.3324 38.4089 40.8392 38.553C41.4808 38.7343 42.2851 38.553 42.6989 39.1713L42.7036 39.1667Z" fill="#2A2A33"/>
<path id="Vector_86" d="M41.5699 41.3191C41.1747 40.9611 40.0728 41.6445 40.0077 40.4822C39.9798 40.0173 40.2727 39.8081 40.7237 40.0452C41.2676 40.3288 42.2115 39.8546 42.3463 40.8402C42.3881 41.1331 42.2394 41.6306 41.5699 41.3237V41.3191Z" fill="#2B2736"/>
<path id="Vector_87" d="M40.2211 32.8757C38.2917 33.071 36.4692 32.8386 34.9023 31.5646C34.9116 31.2392 34.9209 30.9184 34.9256 30.5929C37.8965 32.6898 40.1886 32.541 43.0061 30.0769C43.0804 30.0118 43.206 30.0118 43.3083 29.9839C43.0712 31.9877 42.8294 32.2155 40.2211 32.8804V32.8757Z" fill="#CCBED6"/>
<path id="Vector_88" d="M32.2742 30.607C32.4183 30.3838 32.5624 30.1607 32.7019 29.9375C34.4361 32.2854 36.7143 33.5128 39.6852 33.2989C39.9734 33.2803 40.2756 33.2989 40.5267 33.1037C40.9126 33.0386 41.2985 32.9688 41.7727 32.8898C41.2148 33.8243 40.522 34.2381 39.4806 34.2009C36.519 34.094 34.0781 33.0014 32.2695 30.6116L32.2742 30.607Z" fill="#CABED3"/>
<path id="Vector_89" d="M44.1922 27.9521C44.2666 28.0265 44.341 28.1056 44.4154 28.18C44.1782 28.696 43.9365 29.2121 43.5273 29.6305C43.5506 28.9936 43.9597 28.5101 44.1875 27.9521H44.1922Z" fill="#968EA2"/>
<path id="Vector_90" d="M34.9059 29.5144C32.3441 25.9298 34.7199 21.9546 37.9977 21.5176C41.0988 21.5129 43.084 22.9124 43.5304 25.4276C43.9162 27.6082 42.9957 29.6074 41.1127 30.6488C39.2391 31.6856 37.0492 31.4206 35.3987 29.9561C35.236 29.8119 35.0733 29.6632 34.9059 29.5144Z" fill="#0D1226"/>
<path id="Vector_91" d="M26.3333 31.0114C26.3333 31.4113 26.0729 31.6437 25.7382 31.6577C25.3244 31.6763 25.0501 31.3741 25.0547 30.9696C25.0547 30.5558 25.3337 30.3187 25.7707 30.3559C26.1613 30.3884 26.3426 30.6255 26.3379 31.0114H26.3333Z" fill="#E9E8EE"/>
<path id="Vector_92" d="M20.5042 62.2403C19.7138 62.6541 19.3465 61.8869 18.8072 61.6173C18.6537 61.5382 18.6677 61.3476 18.8072 61.2546C18.9095 61.1895 19.1187 61.1384 19.1931 61.1988C19.6347 61.5382 20.3321 61.5661 20.5042 62.2449H20.5088L20.5042 62.2403Z" fill="#540B18"/>
<path id="Vector_93" d="M21.5725 60.0744C21.1866 60.4557 19.908 60.186 19.7639 59.6885C19.7407 59.6048 19.7872 59.4747 19.8476 59.4003C19.9545 59.2654 20.108 59.3026 20.2381 59.3724C20.6845 59.6048 21.1308 59.8419 21.5771 60.0791H21.5678L21.5725 60.0744Z" fill="#4E0715"/>
<path id="Vector_94" d="M27.5937 49.8641C26.8777 50.1942 26.4825 49.5665 25.9711 49.3062C25.8316 49.2364 25.8223 49.0598 25.9013 48.9296C25.9897 48.7855 26.1478 48.7715 26.2733 48.8552C26.7336 49.162 27.4031 49.1946 27.5983 49.8548L27.5937 49.8641Z" fill="#5A0717"/>
<path id="Vector_95" d="M27.2039 38.2875C27.1946 38.4549 27.1528 38.5897 26.9622 38.5851C26.6042 38.5804 26.3299 38.413 26.209 38.0783C26.1625 37.9481 26.288 37.7947 26.4554 37.79C26.8134 37.79 27.0598 37.9714 27.2039 38.2829V38.2875Z" fill="#DBE1E5"/>
<path id="Vector_96" d="M34.6649 42.2021C35.3158 42.3091 35.7528 42.6392 35.7621 43.3459C35.7714 44.0526 35.3437 44.4757 34.6835 44.4664C34.0372 44.4571 33.5816 44.0479 33.563 43.3505C33.5444 42.6299 34.0372 42.3416 34.6649 42.2021Z" fill="#D9435F"/>
<path id="Vector_97" d="M30.0721 34.2051C30.2116 34.2841 30.3697 34.3771 30.5277 34.4654C31.5738 35.0698 32.6199 35.6882 33.6753 36.2787C34.0566 36.4925 34.3355 36.6506 34.0287 37.1853C33.7497 37.6781 33.494 37.6595 33.0802 37.4084C32.0155 36.7622 30.9322 36.1392 29.8629 35.5022C29.6304 35.3628 29.2538 35.2744 29.5049 34.8653C29.6537 34.6282 29.7095 34.3074 30.0721 34.2051Z" fill="#282039"/>
<path id="Vector_98" d="M35.5677 37.7437C35.8187 37.7437 35.9489 37.8971 35.9815 38.1295C36.0093 38.3434 35.8373 38.4782 35.6699 38.4968C35.4328 38.5201 35.2608 38.3713 35.2376 38.1202C35.219 37.8971 35.4142 37.8413 35.5677 37.7483V37.7437Z" fill="#555756"/>
<path id="Vector_99" d="M31.672 41.4395C31.2628 41.3512 30.9885 41.0862 31.0025 40.6956C31.0164 40.3005 31.2768 40.0354 31.7371 40.0819C32.1276 40.1191 32.3368 40.3516 32.3415 40.7235C32.3415 41.1513 32.0811 41.3791 31.672 41.4395Z" fill="#3D2B2D"/>
<path id="Vector_100" d="M30.5134 41.8862C31.0295 41.9095 31.2806 42.1652 31.2852 42.5836C31.2852 42.9509 31.0388 43.2113 30.6622 43.2252C30.2252 43.2392 29.9695 42.9881 29.9788 42.5464C29.9881 42.1698 30.2159 41.9513 30.5181 41.8909L30.5134 41.8862Z" fill="#341E2A"/>
<path id="Vector_101" d="M42.1734 39.3617C41.634 39.5012 41.1459 39.3896 40.4531 39.0595C41.2482 38.8689 41.7177 39.0921 42.1734 39.3617Z" fill="#C1BFCB"/>
<path id="Vector_102" d="M42.1588 40.8491C41.3591 41.0676 40.8849 40.8166 40.4199 40.519C40.9639 40.3935 41.4567 40.519 42.1588 40.8491Z" fill="#BCB1C6"/>
<path id="Vector_103" d="M34.5111 24.8785C34.7808 24.3764 35.1342 24.0695 35.7525 23.9393C37.1845 23.6418 38.6072 23.2652 40.0066 22.8282C40.8202 22.5724 41.4293 22.7305 41.9686 23.3303C42.0244 24.0044 41.4665 24.1114 41.0388 24.2136C39.1558 24.66 37.3054 25.2365 35.4131 25.6456C34.7994 25.7758 34.1624 25.8874 34.5111 24.8738V24.8785Z" fill="#1C7ACE"/>
<path id="Vector_104" d="M34.5119 24.879C34.5259 25.1533 34.419 25.5811 34.9071 25.4416C37.2271 24.7907 39.6122 24.3862 41.8718 23.5214C41.9229 23.5028 41.9415 23.4005 41.9741 23.3354C42.2902 23.5307 42.2112 23.9306 42.425 24.177C41.6068 24.893 40.5374 24.879 39.5657 25.1301C37.8083 25.5857 36.0927 26.218 34.2795 26.4458C34.5166 25.9483 33.9726 25.33 34.5119 24.879Z" fill="#032050"/>
<path id="Vector_105" d="M34.2793 26.4505C36.6086 25.5346 39.0774 25.1208 41.4671 24.4234C41.7833 24.3304 42.1087 24.2607 42.4249 24.1816C42.8433 24.6094 42.4016 24.6326 42.1645 24.6977C39.6399 25.4044 37.1107 26.1018 34.5815 26.7899C34.3211 26.8596 34.3118 26.6225 34.2793 26.4458V26.4505Z" fill="#386DAA"/>
<path id="Vector_106" d="M32.4885 35.9674C32.7907 36.1534 33.237 36.4045 33.6554 36.6974C33.7856 36.7857 33.7159 37.0135 33.5718 37.0554C33.0743 37.1995 32.7953 36.7439 32.4094 36.5719C32.2328 36.4928 31.9585 36.4231 31.9863 36.1395C32.0049 35.9721 32.1491 35.9163 32.4885 35.9721V35.9674Z" fill="#A74F66"/>
<path id="Vector_107" d="M31.67 35.5442C31.6281 35.7767 31.5166 35.9255 31.3771 35.8836C30.8145 35.7163 30.2798 35.4791 29.9358 34.977C29.8661 34.8747 30.0753 34.6609 30.1869 34.7167C30.7029 34.9724 31.1911 35.2746 31.67 35.5442Z" fill="#3C709F"/>
<rect id="Rectangle 5" x="35.0469" width="33.1821" height="69.0863" rx="16.591" transform="rotate(30.4842 35.0469 0)" stroke="black" stroke-width="1.33676"/>
</g>
<g id="Pump&#226;&#128;&#168;Memes">
<mask id="path-110-outside-1_240_3437" maskUnits="userSpaceOnUse" x="66.5547" y="18.4927" width="114" height="49" fill="black">
<rect fill="white" x="66.5547" y="18.4927" width="114" height="49"/>
<path d="M77.4592 33.8495V42.754H68.5547V20.4927H90.816V22.7188H93.0421V31.6233H90.816V33.8495H77.4592ZM77.4592 24.9449V29.3972H84.1376V24.9449H77.4592Z"/>
<path d="M117.512 40.5279V42.754H97.477V40.5279H95.2509V20.4927H104.155V38.3017H110.834V20.4927H119.738V40.5279H117.512Z"/>
<path d="M130.852 31.6233V42.754H121.947V20.4927H130.852V22.7188H133.078V24.9449H135.304V27.1711H137.53V24.9449H139.756V22.7188H141.982V20.4927H150.887V42.754H141.982V31.6233H139.756V33.8495H137.53V36.0756H135.304V33.8495H133.078V31.6233H130.852Z"/>
<path d="M162.026 33.8495V42.754H153.122V20.4927H175.383V22.7188H177.609V31.6233H175.383V33.8495H162.026ZM162.026 24.9449V29.3972H168.705V24.9449H162.026Z"/>
<path d="M75.5045 56.918V65.6053H68.5547V48.2307H75.5045V49.9682H77.242V51.7056H78.9794V53.4431H80.7169V51.7056H82.4543V49.9682H84.1918V48.2307H91.1416V65.6053H84.1918V56.918H82.4543V58.6555H80.7169V60.3929H78.9794V58.6555H77.242V56.918H75.5045Z"/>
<path d="M94.6233 65.6053V63.8678H92.8859V49.9682H94.6233V48.2307H111.998V51.7056H99.8357V55.1805H105.048V58.6555H99.8357V62.1304H111.998V65.6053H94.6233Z"/>
<path d="M120.672 56.918V65.6053H113.722V48.2307H120.672V49.9682H122.409V51.7056H124.146V53.4431H125.884V51.7056H127.621V49.9682H129.359V48.2307H136.309V65.6053H129.359V56.918H127.621V58.6555H125.884V60.3929H124.146V58.6555H122.409V56.918H120.672Z"/>
<path d="M139.79 65.6053V63.8678H138.053V49.9682H139.79V48.2307H157.165V51.7056H145.003V55.1805H150.215V58.6555H145.003V62.1304H157.165V65.6053H139.79Z"/>
<path d="M158.889 65.6053V62.1304H171.051V58.6555H160.626V56.918H158.889V49.9682H160.626V48.2307H178.001V51.7056H165.839V55.1805H176.263V56.918H178.001V63.8678H176.263V65.6053H158.889Z"/>
</mask>
<path d="M77.4592 33.8495V42.754H68.5547V20.4927H90.816V22.7188H93.0421V31.6233H90.816V33.8495H77.4592ZM77.4592 24.9449V29.3972H84.1376V24.9449H77.4592Z" fill="white"/>
<path d="M117.512 40.5279V42.754H97.477V40.5279H95.2509V20.4927H104.155V38.3017H110.834V20.4927H119.738V40.5279H117.512Z" fill="white"/>
<path d="M130.852 31.6233V42.754H121.947V20.4927H130.852V22.7188H133.078V24.9449H135.304V27.1711H137.53V24.9449H139.756V22.7188H141.982V20.4927H150.887V42.754H141.982V31.6233H139.756V33.8495H137.53V36.0756H135.304V33.8495H133.078V31.6233H130.852Z" fill="white"/>
<path d="M162.026 33.8495V42.754H153.122V20.4927H175.383V22.7188H177.609V31.6233H175.383V33.8495H162.026ZM162.026 24.9449V29.3972H168.705V24.9449H162.026Z" fill="white"/>
<path d="M75.5045 56.918V65.6053H68.5547V48.2307H75.5045V49.9682H77.242V51.7056H78.9794V53.4431H80.7169V51.7056H82.4543V49.9682H84.1918V48.2307H91.1416V65.6053H84.1918V56.918H82.4543V58.6555H80.7169V60.3929H78.9794V58.6555H77.242V56.918H75.5045Z" fill="white"/>
<path d="M94.6233 65.6053V63.8678H92.8859V49.9682H94.6233V48.2307H111.998V51.7056H99.8357V55.1805H105.048V58.6555H99.8357V62.1304H111.998V65.6053H94.6233Z" fill="white"/>
<path d="M120.672 56.918V65.6053H113.722V48.2307H120.672V49.9682H122.409V51.7056H124.146V53.4431H125.884V51.7056H127.621V49.9682H129.359V48.2307H136.309V65.6053H129.359V56.918H127.621V58.6555H125.884V60.3929H124.146V58.6555H122.409V56.918H120.672Z" fill="white"/>
<path d="M139.79 65.6053V63.8678H138.053V49.9682H139.79V48.2307H157.165V51.7056H145.003V55.1805H150.215V58.6555H145.003V62.1304H157.165V65.6053H139.79Z" fill="white"/>
<path d="M158.889 65.6053V62.1304H171.051V58.6555H160.626V56.918H158.889V49.9682H160.626V48.2307H178.001V51.7056H165.839V55.1805H176.263V56.918H178.001V63.8678H176.263V65.6053H158.889Z" fill="white"/>
<path d="M77.4592 33.8495V42.754H68.5547V20.4927H90.816V22.7188H93.0421V31.6233H90.816V33.8495H77.4592ZM77.4592 24.9449V29.3972H84.1376V24.9449H77.4592Z" stroke="black" stroke-width="3.6578" mask="url(#path-110-outside-1_240_3437)"/>
<path d="M117.512 40.5279V42.754H97.477V40.5279H95.2509V20.4927H104.155V38.3017H110.834V20.4927H119.738V40.5279H117.512Z" stroke="black" stroke-width="3.6578" mask="url(#path-110-outside-1_240_3437)"/>
<path d="M130.852 31.6233V42.754H121.947V20.4927H130.852V22.7188H133.078V24.9449H135.304V27.1711H137.53V24.9449H139.756V22.7188H141.982V20.4927H150.887V42.754H141.982V31.6233H139.756V33.8495H137.53V36.0756H135.304V33.8495H133.078V31.6233H130.852Z" stroke="black" stroke-width="3.6578" mask="url(#path-110-outside-1_240_3437)"/>
<path d="M162.026 33.8495V42.754H153.122V20.4927H175.383V22.7188H177.609V31.6233H175.383V33.8495H162.026ZM162.026 24.9449V29.3972H168.705V24.9449H162.026Z" stroke="black" stroke-width="3.6578" mask="url(#path-110-outside-1_240_3437)"/>
<path d="M75.5045 56.918V65.6053H68.5547V48.2307H75.5045V49.9682H77.242V51.7056H78.9794V53.4431H80.7169V51.7056H82.4543V49.9682H84.1918V48.2307H91.1416V65.6053H84.1918V56.918H82.4543V58.6555H80.7169V60.3929H78.9794V58.6555H77.242V56.918H75.5045Z" stroke="black" stroke-width="3.6578" mask="url(#path-110-outside-1_240_3437)"/>
<path d="M94.6233 65.6053V63.8678H92.8859V49.9682H94.6233V48.2307H111.998V51.7056H99.8357V55.1805H105.048V58.6555H99.8357V62.1304H111.998V65.6053H94.6233Z" stroke="black" stroke-width="3.6578" mask="url(#path-110-outside-1_240_3437)"/>
<path d="M120.672 56.918V65.6053H113.722V48.2307H120.672V49.9682H122.409V51.7056H124.146V53.4431H125.884V51.7056H127.621V49.9682H129.359V48.2307H136.309V65.6053H129.359V56.918H127.621V58.6555H125.884V60.3929H124.146V58.6555H122.409V56.918H120.672Z" stroke="black" stroke-width="3.6578" mask="url(#path-110-outside-1_240_3437)"/>
<path d="M139.79 65.6053V63.8678H138.053V49.9682H139.79V48.2307H157.165V51.7056H145.003V55.1805H150.215V58.6555H145.003V62.1304H157.165V65.6053H139.79Z" stroke="black" stroke-width="3.6578" mask="url(#path-110-outside-1_240_3437)"/>
<path d="M158.889 65.6053V62.1304H171.051V58.6555H160.626V56.918H158.889V49.9682H160.626V48.2307H178.001V51.7056H165.839V55.1805H176.263V56.918H178.001V63.8678H176.263V65.6053H158.889Z" stroke="black" stroke-width="3.6578" mask="url(#path-110-outside-1_240_3437)"/>
</g>
</g>
</svg>
