<svg width="348" height="257" viewBox="0 0 348 257" fill="none" xmlns="http://www.w3.org/2000/svg">
<path d="M287.219 120.911H272.123V136.007H287.219V120.911Z" fill="white"/>
<path d="M105.801 90.707H90.707V105.815H105.801V90.707Z" fill="white"/>
<path d="M181.413 15.1064H166.307V30.3108H181.413V15.1064Z" fill="white"/>
<path d="M15.0957 90.707H0V105.815H15.0957V90.707Z" fill="#231F20"/>
<path d="M332.517 15.1064H317.408V30.3108H332.517V15.1064Z" fill="#231F20"/>
<path d="M135.994 30.3125H120.898V45.4216H135.994V30.3125Z" fill="white"/>
<path d="M60.5039 136.006H45.4082V151.224H60.5039V136.006Z" fill="white"/>
<path d="M166.307 166.318H151.211V181.414H166.307V166.318Z" fill="white"/>
<path d="M60.5039 196.522H45.4082V211.618H60.5039V196.522Z" fill="#231F20"/>
<path d="M302.314 90.707H287.219V105.815H302.314V90.707Z" fill="white"/>
<path d="M272.123 75.6113H256.906V90.707H272.123V75.6113Z" fill="white"/>
<path d="M135.994 151.224H120.898V166.318H135.994V151.224Z" fill="white"/>
<path d="M211.605 181.414H196.51V196.522H211.605V181.414Z" fill="#231F20"/>
<path d="M317.408 60.5156H302.312V75.6113H317.408V60.5156Z" fill="white"/>
<path d="M196.511 60.5156H181.414V75.6113H196.511V60.5156Z" fill="white"/>
<path d="M60.5039 241.822H45.4082V256.918H60.5039V241.822Z" fill="#231F20"/>
<path d="M256.904 136.006H241.809V151.224H256.904V136.006Z" fill="white"/>
<path d="M90.7087 90.707H75.5996V105.815H90.7087V90.707Z" fill="white"/>
<path d="M287.219 0H272.123V15.1079H287.219V0Z" fill="#231F20"/>
<path d="M135.994 45.4199H120.898V60.5156H135.994V45.4199Z" fill="white"/>
<path d="M272.123 181.414H256.906V196.522H272.123V181.414Z" fill="#231F20"/>
<path d="M60.5039 151.225H45.4082V166.319H60.5039V151.225Z" fill="white"/>
<path d="M166.307 0H151.211V15.1079H166.307V0Z" fill="#231F20"/>
<path d="M211.605 75.6113H196.51V90.707H211.605V75.6113Z" fill="white"/>
<path d="M256.904 30.3125H241.809V45.4216H256.904V30.3125Z" fill="white"/>
<path d="M226.701 60.5156H211.605V75.6113H226.701V60.5156Z" fill="white"/>
<path d="M287.219 166.319H272.123V181.415H287.219V166.319Z" fill="white"/>
<path d="M60.5039 45.4199H45.4082V60.5156H60.5039V45.4199Z" fill="white"/>
<path d="M347.612 105.815H332.518V120.911H347.612V105.815Z" fill="#231F20"/>
<path d="M256.904 151.225H241.809V166.319H256.904V151.225Z" fill="white"/>
<path d="M45.407 90.707H30.3125V105.815H45.407V90.707Z" fill="white"/>
<path d="M256.904 45.4199H241.809V60.5156H256.904V45.4199Z" fill="white"/>
<path d="M166.307 120.911H151.211V136.007H166.307V120.911Z" fill="white"/>
<path d="M135.994 136.007H120.898V151.225H135.994V136.007Z" fill="white"/>
<path d="M120.896 15.1064H105.801V30.3108H120.896V15.1064Z" fill="white"/>
<path d="M60.5039 30.3125H45.4082V45.4216H60.5039V30.3125Z" fill="white"/>
<path d="M151.211 60.5156H135.994V75.6113H151.211V60.5156Z" fill="white"/>
<path d="M30.3116 105.815H15.0938V120.911H30.3116V105.815Z" fill="white"/>
<path d="M272.121 90.707H256.904V105.815H272.121V90.707Z" fill="white"/>
<path d="M302.314 75.6113H287.219V90.707H302.314V75.6113Z" fill="white"/>
<path d="M75.5996 105.815H60.5039V120.911H75.5996V105.815Z" fill="white"/>
<path d="M226.701 136.006H211.605V151.224H226.701V136.006Z" fill="white"/>
<path d="M181.413 0H166.307V15.1079H181.413V0Z" fill="#231F20"/>
<path d="M90.7087 75.6113H75.5996V90.707H90.7087V75.6113Z" fill="white"/>
<path d="M317.408 30.3125H302.312V45.4216H317.408V30.3125Z" fill="white"/>
<path d="M196.511 30.3125H181.414V45.4216H196.511V30.3125Z" fill="white"/>
<path d="M120.896 166.319H105.801V181.415H120.896V166.319Z" fill="white"/>
<path d="M135.994 60.5156H120.898V75.6113H135.994V60.5156Z" fill="white"/>
<path d="M45.407 181.414H30.3125V196.522H45.407V181.414Z" fill="#231F20"/>
<path d="M317.408 151.225H302.312V166.319H317.408V151.225Z" fill="white"/>
<path d="M196.511 151.225H181.414V166.319H196.511V151.225Z" fill="white"/>
<path d="M151.211 136.007H135.994V151.225H151.211V136.007Z" fill="white"/>
<path d="M105.801 75.6113H90.707V90.707H105.801V75.6113Z" fill="white"/>
<path d="M332.517 120.911H317.408V136.007H332.517V120.911Z" fill="white"/>
<path d="M241.809 105.815H226.701V120.911H241.809V105.815Z" fill="white"/>
<path d="M317.408 45.4199H302.312V60.5156H317.408V45.4199Z" fill="white"/>
<path d="M196.511 45.4199H181.414V60.5156H196.511V45.4199Z" fill="white"/>
<path d="M181.413 120.911H166.307V136.007H181.413V120.911Z" fill="white"/>
<path d="M15.0957 75.6113H0V90.707H15.0957V75.6113Z" fill="#231F20"/>
<path d="M287.219 15.1064H272.123V30.3108H287.219V15.1064Z" fill="white"/>
<path d="M120.896 120.911H105.801V136.007H120.896V120.911Z" fill="white"/>
<path d="M60.5039 60.5156H45.4082V75.6113H60.5039V60.5156Z" fill="white"/>
<path d="M45.407 75.6113H30.3125V90.707H45.407V75.6113Z" fill="white"/>
<path d="M151.211 30.3125H135.994V45.4216H151.211V30.3125Z" fill="white"/>
<path d="M105.801 181.414H90.707V196.522H105.801V181.414Z" fill="#231F20"/>
<path d="M166.307 15.1064H151.211V30.3108H166.307V15.1064Z" fill="white"/>
<path d="M226.701 45.4199H211.605V60.5156H226.701V45.4199Z" fill="white"/>
<path d="M226.701 151.225H211.605V166.319H226.701V151.225Z" fill="white"/>
<path d="M302.314 181.414H287.219V196.522H302.314V181.414Z" fill="#231F20"/>
<path d="M181.413 166.319H166.307V181.415H181.413V166.319Z" fill="white"/>
<path d="M151.211 45.4199H135.994V60.5156H151.211V45.4199Z" fill="white"/>
<path d="M256.904 60.5156H241.809V75.6113H256.904V60.5156Z" fill="white"/>
<path d="M226.701 30.3125H211.605V45.4216H226.701V30.3125Z" fill="white"/>
<path d="M211.605 90.707H196.51V105.815H211.605V90.707Z" fill="white"/>
<path d="M90.7087 181.414H75.5996V196.522H90.7087V181.414Z" fill="#231F20"/>
<path d="M317.408 136.006H302.312V151.224H317.408V136.006Z" fill="white"/>
<path d="M151.211 151.224H135.994V166.318H151.211V151.224Z" fill="white"/>
<path d="M196.511 136.006H181.414V151.224H196.511V136.006Z" fill="white"/>
<path d="M332.517 166.318H317.408V181.414H332.517V166.318Z" fill="#231F20"/>
<path d="M120.896 0H105.801V15.1079H120.896V0Z" fill="#231F20"/>
<path d="M272.121 105.815H256.904V120.911H272.121V105.815Z" fill="white"/>
<path d="M30.3116 90.707H15.0938V105.815H30.3116V90.707Z" fill="white"/>
<path d="M181.413 60.5156H166.307V75.6113H181.413V60.5156Z" fill="white"/>
<path d="M75.5996 90.707H60.5039V105.815H75.5996V90.707Z" fill="white"/>
<path d="M256.904 166.318H241.809V181.414H256.904V166.318Z" fill="white"/>
<path d="M287.219 30.3125H272.123V45.4216H287.219V30.3125Z" fill="white"/>
<path d="M135.994 120.911H120.898V136.007H135.994V120.911Z" fill="white"/>
<path d="M166.307 136.006H151.211V151.224H166.307V136.006Z" fill="white"/>
<path d="M332.517 60.5156H317.408V75.6113H332.517V60.5156Z" fill="white"/>
<path d="M317.408 15.1064H302.312V30.3108H317.408V15.1064Z" fill="#231F20"/>
<path d="M196.511 15.1064H181.414V30.3108H196.511V15.1064Z" fill="white"/>
<path d="M60.5039 166.318H45.4082V181.414H60.5039V166.318Z" fill="white"/>
<path d="M287.219 45.4199H272.123V60.5156H287.219V45.4199Z" fill="white"/>
<path d="M135.994 0H120.898V15.1079H135.994V0Z" fill="#231F20"/>
<path d="M241.809 90.707H226.701V105.815H241.809V90.707Z" fill="white"/>
<path d="M287.219 151.224H272.123V166.318H287.219V151.224Z" fill="white"/>
<path d="M135.994 166.319H120.898V181.415H135.994V166.319Z" fill="white"/>
<path d="M166.307 151.225H151.211V166.319H166.307V151.225Z" fill="white"/>
<path d="M60.5039 0H45.4082V15.1079H60.5039V0Z" fill="#231F20"/>
<path d="M166.307 45.4199H151.211V60.5156H166.307V45.4199Z" fill="white"/>
<path d="M226.701 15.1064H211.605V30.3108H226.701V15.1064Z" fill="white"/>
<path d="M256.904 120.911H241.809V136.007H256.904V120.911Z" fill="white"/>
<path d="M60.5039 226.713H45.4082V241.822H60.5039V226.713Z" fill="#231F20"/>
<path d="M256.904 0H241.809V15.1079H256.904V0Z" fill="#231F20"/>
<path d="M211.605 105.815H196.51V120.911H211.605V105.815Z" fill="white"/>
<path d="M287.219 136.007H272.123V151.225H287.219V136.007Z" fill="white"/>
<path d="M151.211 15.1064H135.994V30.3108H151.211V15.1064Z" fill="white"/>
<path d="M60.5039 120.911H45.4082V136.007H60.5039V120.911Z" fill="white"/>
<path d="M120.896 60.5156H105.801V75.6113H120.896V60.5156Z" fill="white"/>
<path d="M166.307 30.3125H151.211V45.4216H166.307V30.3125Z" fill="white"/>
<path d="M347.612 75.6113H332.518V90.707H347.612V75.6113Z" fill="#231F20"/>
<path d="M332.517 45.4199H317.408V60.5156H332.517V45.4199Z" fill="white"/>
<path d="M105.801 105.815H90.707V120.911H105.801V105.815Z" fill="white"/>
<path d="M181.413 151.224H166.307V166.318H181.413V151.224Z" fill="white"/>
<path d="M332.517 151.225H317.408V166.319H332.517V151.225Z" fill="#231F20"/>
<path d="M241.809 75.6113H226.701V90.707H241.809V75.6113Z" fill="white"/>
<path d="M15.0957 105.815H0V120.911H15.0957V105.815Z" fill="#231F20"/>
<path d="M196.511 120.911H181.414V136.007H196.511V120.911Z" fill="white"/>
<path d="M317.408 120.911H302.312V136.007H317.408V120.911Z" fill="white"/>
<path d="M151.211 166.319H135.994V181.415H151.211V166.319Z" fill="white"/>
<path d="M181.413 45.4199H166.307V60.5156H181.413V45.4199Z" fill="white"/>
<path d="M332.517 30.3125H317.408V45.4216H332.517V30.3125Z" fill="#231F20"/>
<path d="M302.314 105.815H287.219V120.911H302.314V105.815Z" fill="white"/>
<path d="M196.511 0H181.414V15.1079H196.511V0Z" fill="#231F20"/>
<path d="M30.3116 75.6113H15.0938V90.707H30.3116V75.6113Z" fill="white"/>
<path d="M317.408 0H302.312V15.1079H317.408V0Z" fill="#231F20"/>
<path d="M75.5996 75.6113H60.5039V90.707H75.5996V75.6113Z" fill="white"/>
<path d="M135.994 15.1064H120.898V30.3108H135.994V15.1064Z" fill="white"/>
<path d="M120.896 136.007H105.801V151.225H120.896V136.007Z" fill="white"/>
<path d="M90.7087 105.815H75.5996V120.911H90.7087V105.815Z" fill="white"/>
<path d="M226.701 166.318H211.605V181.414H226.701V166.318Z" fill="white"/>
<path d="M287.219 60.5156H272.123V75.6113H287.219V60.5156Z" fill="white"/>
<path d="M181.413 30.3125H166.307V45.4216H181.413V30.3125Z" fill="white"/>
<path d="M166.307 60.5156H151.211V75.6113H166.307V60.5156Z" fill="white"/>
<path d="M332.517 136.006H317.408V151.224H332.517V136.006Z" fill="white"/>
<path d="M75.5996 181.414H60.5039V196.522H75.5996V181.414Z" fill="#231F20"/>
<path d="M60.5039 15.1064H45.4082V30.3108H60.5039V15.1064Z" fill="white"/>
<path d="M151.211 120.911H135.994V136.007H151.211V120.911Z" fill="white"/>
<path d="M196.511 166.318H181.414V181.414H196.511V166.318Z" fill="white"/>
<path d="M120.896 30.3125H105.801V45.4216H120.896V30.3125Z" fill="white"/>
<path d="M317.408 166.318H302.312V181.414H317.408V166.318Z" fill="#231F20"/>
<path d="M347.612 90.707H332.518V105.815H347.612V90.707Z" fill="#231F20"/>
<path d="M181.413 136.007H166.307V151.225H181.413V136.007Z" fill="white"/>
<path d="M226.701 0H211.605V15.1079H226.701V0Z" fill="#231F20"/>
<path d="M45.407 105.815H30.3125V120.911H45.407V105.815Z" fill="white"/>
<path d="M226.701 120.911H211.605V136.007H226.701V120.911Z" fill="white"/>
<path d="M256.904 15.1064H241.809V30.3108H256.904V15.1064Z" fill="white"/>
<path d="M120.896 45.4199H105.801V60.5156H120.896V45.4199Z" fill="white"/>
<path d="M241.809 181.414H226.701V196.522H241.809V181.414Z" fill="#231F20"/>
<path d="M151.211 0H135.994V15.1079H151.211V0Z" fill="#231F20"/>
<path d="M60.5039 211.618H45.4082V226.714H60.5039V211.618Z" fill="#231F20"/>
<path d="M120.896 151.224H105.801V166.318H120.896V151.224Z" fill="white"/>
<path d="M90.7087 151.225H75.5996V166.319H90.7087V151.225Z" fill="white"/>
<path d="M241.809 0H226.701V15.1079H241.809V0Z" fill="#231F20"/>
<path d="M45.407 136.007H30.3125V151.225H45.407V136.007Z" fill="white"/>
<path d="M302.314 45.4199H287.219V60.5156H302.314V45.4199Z" fill="white"/>
<path d="M151.211 181.414H135.994V196.522H151.211V181.414Z" fill="#231F20"/>
<path d="M75.5996 120.911H60.5039V136.007H75.5996V120.911Z" fill="white"/>
<path d="M105.801 30.3125H90.707V45.4216H105.801V30.3125Z" fill="white"/>
<path d="M30.3116 120.911H15.0938V136.007H30.3116V120.911Z" fill="white"/>
<path d="M302.314 151.224H287.219V166.318H302.314V151.224Z" fill="white"/>
<path d="M90.7087 45.4199H75.5996V60.5156H90.7087V45.4199Z" fill="white"/>
<path d="M15.0957 30.3125H0V45.4216H15.0957V30.3125Z" fill="#231F20"/>
<path d="M135.994 90.707H120.898V105.815H135.994V90.707Z" fill="white"/>
<path d="M302.314 30.3125H287.219V45.4216H302.314V30.3125Z" fill="white"/>
<path d="M332.517 105.815H317.408V120.911H332.517V105.815Z" fill="white"/>
<path d="M75.5996 226.713H60.5039V241.822H75.5996V226.713Z" fill="#231F20"/>
<path d="M15.0957 151.224H0V166.318H15.0957V151.224Z" fill="#231F20"/>
<path d="M226.701 181.414H211.605V196.522H226.701V181.414Z" fill="#231F20"/>
<path d="M105.801 45.4199H90.707V60.5156H105.801V45.4199Z" fill="white"/>
<path d="M90.7087 30.3125H75.5996V45.4216H90.7087V30.3125Z" fill="white"/>
<path d="M75.5996 0H60.5039V15.1079H75.5996V0Z" fill="#231F20"/>
<path d="M15.0957 45.4199H0V60.5156H15.0957V45.4199Z" fill="#231F20"/>
<path d="M317.408 75.6113H302.312V90.707H317.408V75.6113Z" fill="white"/>
<path d="M196.511 75.6113H181.414V90.707H196.511V75.6113Z" fill="white"/>
<path d="M105.801 151.224H90.707V166.318H105.801V151.224Z" fill="white"/>
<path d="M272.121 60.5156H256.904V75.6113H272.121V60.5156Z" fill="white"/>
<path d="M181.413 105.815H166.307V120.911H181.413V105.815Z" fill="white"/>
<path d="M241.809 120.911H226.701V136.007H241.809V120.911Z" fill="white"/>
<path d="M45.407 45.4199H30.3125V60.5156H45.407V45.4199Z" fill="white"/>
<path d="M302.314 136.007H287.219V151.225H302.314V136.007Z" fill="white"/>
<path d="M226.701 75.6113H211.605V90.707H226.701V75.6113Z" fill="white"/>
<path d="M120.896 105.815H105.801V120.911H120.896V105.815Z" fill="white"/>
<path d="M90.7087 136.006H75.5996V151.224H90.7087V136.006Z" fill="white"/>
<path d="M256.904 90.707H241.809V105.815H256.904V90.707Z" fill="white"/>
<path d="M211.605 60.5156H196.51V75.6113H211.605V60.5156Z" fill="white"/>
<path d="M45.407 151.224H30.3125V166.318H45.407V151.224Z" fill="white"/>
<path d="M317.408 181.414H302.312V196.522H317.408V181.414Z" fill="#231F20"/>
<path d="M105.801 196.522H90.707V211.618H105.801V196.522Z" fill="#231F20"/>
<path d="M196.511 181.414H181.414V196.522H196.511V181.414Z" fill="#231F20"/>
<path d="M30.3116 166.318H15.0938V181.414H30.3116V166.318Z" fill="#231F20"/>
<path d="M75.5996 166.318H60.5039V181.414H75.5996V166.318Z" fill="white"/>
<path d="M151.211 75.6113H135.994V90.707H151.211V75.6113Z" fill="white"/>
<path d="M45.407 30.3125H30.3125V45.4216H45.407V30.3125Z" fill="white"/>
<path d="M105.801 136.007H90.707V151.225H105.801V136.007Z" fill="white"/>
<path d="M241.809 166.319H226.701V181.415H241.809V166.319Z" fill="white"/>
<path d="M90.7087 196.522H75.5996V211.618H90.7087V196.522Z" fill="#231F20"/>
<path d="M15.0957 136.007H0V151.225H15.0957V136.007Z" fill="#231F20"/>
<path d="M60.5039 90.707H45.4082V105.815H60.5039V90.707Z" fill="white"/>
<path d="M75.5996 211.618H60.5039V226.714H75.5996V211.618Z" fill="#231F20"/>
<path d="M272.121 30.3125H256.904V45.4216H272.121V30.3125Z" fill="white"/>
<path d="M241.809 15.1064H226.701V30.3108H241.809V15.1064Z" fill="white"/>
<path d="M90.7087 60.5156H75.5996V75.6113H90.7087V60.5156Z" fill="white"/>
<path d="M211.605 136.007H196.51V151.225H211.605V136.007Z" fill="white"/>
<path d="M287.219 105.815H272.123V120.911H287.219V105.815Z" fill="white"/>
<path d="M256.904 181.414H241.809V196.522H256.904V181.414Z" fill="#231F20"/>
<path d="M196.511 90.707H181.414V105.815H196.511V90.707Z" fill="white"/>
<path d="M317.408 90.707H302.312V105.815H317.408V90.707Z" fill="white"/>
<path d="M302.314 60.5156H287.219V75.6113H302.314V60.5156Z" fill="white"/>
<path d="M272.123 45.4199H256.906V60.5156H272.123V45.4199Z" fill="white"/>
<path d="M15.0957 60.5156H0V75.6113H15.0957V60.5156Z" fill="#231F20"/>
<path d="M105.801 60.5156H90.707V75.6113H105.801V60.5156Z" fill="white"/>
<path d="M272.123 151.224H256.906V166.318H272.123V151.224Z" fill="white"/>
<path d="M75.5996 15.1064H60.5039V30.3108H75.5996V15.1064Z" fill="white"/>
<path d="M30.3116 15.1064H15.0938V30.3108H30.3116V15.1064Z" fill="#231F20"/>
<path d="M135.994 75.6113H120.898V90.707H135.994V75.6113Z" fill="white"/>
<path d="M60.5039 181.414H45.4082V196.522H60.5039V181.414Z" fill="#231F20"/>
<path d="M151.211 90.707H135.994V105.815H151.211V90.707Z" fill="white"/>
<path d="M211.605 45.4199H196.51V60.5156H211.605V45.4199Z" fill="white"/>
<path d="M347.612 120.911H332.518V136.007H347.612V120.911Z" fill="#231F20"/>
<path d="M135.994 181.414H120.898V196.522H135.994V181.414Z" fill="#231F20"/>
<path d="M211.605 151.224H196.51V166.318H211.605V151.224Z" fill="white"/>
<path d="M45.407 60.5156H30.3125V75.6113H45.407V60.5156Z" fill="white"/>
<path d="M60.5039 75.6113H45.4082V90.707H60.5039V75.6113Z" fill="white"/>
<path d="M272.123 136.007H256.906V151.225H272.123V136.007Z" fill="white"/>
<path d="M226.701 90.707H211.605V105.815H226.701V90.707Z" fill="white"/>
<path d="M211.605 30.3125H196.51V45.4216H211.605V30.3125Z" fill="white"/>
<path d="M256.904 75.6113H241.809V90.707H256.904V75.6113Z" fill="white"/>
<path d="M166.307 105.815H151.211V120.911H166.307V105.815Z" fill="white"/>
<path d="M241.809 151.224H226.701V166.318H241.809V151.224Z" fill="white"/>
<path d="M30.3116 30.3125H15.0938V45.4216H30.3116V30.3125Z" fill="#231F20"/>
<path d="M332.517 75.6113H317.408V90.707H332.517V75.6113Z" fill="white"/>
<path d="M90.7087 0H75.5996V15.1079H90.7087V0Z" fill="#231F20"/>
<path d="M105.801 120.911H90.707V136.007H105.801V120.911Z" fill="white"/>
<path d="M75.5996 30.3125H60.5039V45.4216H75.5996V30.3125Z" fill="white"/>
<path d="M287.219 90.707H272.123V105.815H287.219V90.707Z" fill="white"/>
<path d="M120.896 181.414H105.801V196.522H120.896V181.414Z" fill="#231F20"/>
<path d="M302.314 0H287.219V15.1079H302.314V0Z" fill="#231F20"/>
<path d="M241.809 45.4199H226.701V60.5156H241.809V45.4199Z" fill="white"/>
<path d="M317.408 105.815H302.312V120.911H317.408V105.815Z" fill="white"/>
<path d="M196.511 105.815H181.414V120.911H196.511V105.815Z" fill="white"/>
<path d="M15.0957 120.911H0V136.007H15.0957V120.911Z" fill="#231F20"/>
<path d="M181.413 75.6113H166.307V90.707H181.413V75.6113Z" fill="white"/>
<path d="M75.5996 45.4199H60.5039V60.5156H75.5996V45.4199Z" fill="white"/>
<path d="M30.3116 45.4199H15.0938V60.5156H30.3116V45.4199Z" fill="white"/>
<path d="M302.314 120.911H287.219V136.007H302.314V120.911Z" fill="white"/>
<path d="M30.3116 151.225H15.0938V166.319H30.3116V151.225Z" fill="#231F20"/>
<path d="M241.809 30.3125H226.701V45.4216H241.809V30.3125Z" fill="white"/>
<path d="M272.121 15.1064H256.904V30.3108H272.121V15.1064Z" fill="white"/>
<path d="M75.5996 151.225H60.5039V166.319H75.5996V151.225Z" fill="white"/>
<path d="M45.407 166.319H30.3125V181.415H45.407V166.319Z" fill="#231F20"/>
<path d="M105.801 0H90.707V15.1079H105.801V0Z" fill="#231F20"/>
<path d="M90.7087 120.911H75.5996V136.007H90.7087V120.911Z" fill="white"/>
<path d="M151.211 105.815H135.994V120.911H151.211V105.815Z" fill="white"/>
<path d="M45.407 0H30.3125V15.1079H45.407V0Z" fill="#231F20"/>
<path d="M105.801 166.319H90.707V181.415H105.801V166.319Z" fill="white"/>
<path d="M241.809 136.007H226.701V151.225H241.809V136.007Z" fill="white"/>
<path d="M211.605 15.1064H196.51V30.3108H211.605V15.1064Z" fill="white"/>
<path d="M75.5996 196.522H60.5039V211.618H75.5996V196.522Z" fill="#231F20"/>
<path d="M30.3116 136.006H15.0938V151.224H30.3116V136.006Z" fill="white"/>
<path d="M347.612 60.5156H332.518V75.6113H347.612V60.5156Z" fill="#231F20"/>
<path d="M75.5996 136.006H60.5039V151.224H75.5996V136.006Z" fill="white"/>
<path d="M90.7087 166.318H75.5996V181.414H90.7087V166.318Z" fill="white"/>
<path d="M226.701 105.815H211.605V120.911H226.701V105.815Z" fill="white"/>
<path d="M45.407 120.911H30.3125V136.007H45.407V120.911Z" fill="white"/>
<path d="M120.896 75.6113H105.801V90.707H120.896V75.6113Z" fill="white"/>
<path d="M302.314 166.319H287.219V181.415H302.314V166.319Z" fill="white"/>
<path d="M181.413 181.414H166.307V196.522H181.413V181.414Z" fill="#231F20"/>
<path d="M166.307 90.707H151.211V105.815H166.307V90.707Z" fill="white"/>
<path d="M90.7087 15.1064H75.5996V30.3108H90.7087V15.1064Z" fill="white"/>
<path d="M241.809 60.5156H226.701V75.6113H241.809V60.5156Z" fill="white"/>
<path d="M272.121 120.911H256.904V136.007H272.121V120.911Z" fill="white"/>
<path d="M302.314 15.1064H287.219V30.3108H302.314V15.1064Z" fill="white"/>
<path d="M135.994 105.815H120.898V120.911H135.994V105.815Z" fill="white"/>
<path d="M332.517 90.707H317.408V105.815H332.517V90.707Z" fill="white"/>
<path d="M287.219 75.6113H272.123V90.707H287.219V75.6113Z" fill="white"/>
<path d="M272.121 0H256.904V15.1079H272.121V0Z" fill="#231F20"/>
<path d="M211.605 166.319H196.51V181.415H211.605V166.319Z" fill="white"/>
<path d="M90.7087 211.618H75.5996V226.714H90.7087V211.618Z" fill="#231F20"/>
<path d="M166.307 181.414H151.211V196.522H166.307V181.414Z" fill="#231F20"/>
<path d="M181.413 90.707H166.307V105.815H181.413V90.707Z" fill="white"/>
<path d="M30.3116 60.5156H15.0938V75.6113H30.3116V60.5156Z" fill="white"/>
<path d="M347.612 136.006H332.518V151.224H347.612V136.006Z" fill="#231F20"/>
<path d="M105.801 15.1064H90.707V30.3108H105.801V15.1064Z" fill="white"/>
<path d="M75.5996 60.5156H60.5039V75.6113H75.5996V60.5156Z" fill="white"/>
<path d="M120.896 90.707H105.801V105.815H120.896V90.707Z" fill="white"/>
<path d="M287.219 181.414H272.123V196.522H287.219V181.414Z" fill="#231F20"/>
<path d="M45.407 15.1064H30.3125V30.3108H45.407V15.1064Z" fill="#231F20"/>
<path d="M256.904 105.815H241.809V120.911H256.904V105.815Z" fill="white"/>
<path d="M272.123 166.319H256.906V181.415H272.123V166.319Z" fill="white"/>
<path d="M211.605 0H196.51V15.1079H211.605V0Z" fill="#231F20"/>
<path d="M166.307 75.6113H151.211V90.707H166.307V75.6113Z" fill="white"/>
<path d="M347.612 30.3125H332.518V45.4216H347.612V30.3125Z" fill="#231F20"/>
<path d="M211.605 120.911H196.51V136.007H211.605V120.911Z" fill="white"/>
<path d="M347.612 151.225H332.518V166.319H347.612V151.225Z" fill="#231F20"/>
<path d="M60.5039 105.815H45.4082V120.911H60.5039V105.815Z" fill="white"/>
<path d="M347.612 45.4199H332.518V60.5156H347.612V45.4199Z" fill="#231F20"/>
</svg>
