<svg width="379" height="294" viewBox="0 0 379 294" fill="none" xmlns="http://www.w3.org/2000/svg">
<path d="M225.924 251.2C230.746 254.823 235.952 257.904 241.448 260.387" stroke="#110151" stroke-width="1.40617" stroke-linecap="round" stroke-linejoin="round"/>
<path d="M250.971 21.4785H132.609V80.4626H250.971V21.4785Z" fill="url(#paint0_linear_657_3564)"/>
<path d="M250.971 21.4785H132.609V37.4245H250.971V21.4785Z" fill="url(#paint1_linear_657_3564)"/>
<path d="M250.971 36.9844H132.609V37.8656H250.971V36.9844Z" fill="#110151"/>
<path d="M249.36 23.0909L250.973 21.4785H132.602L134.223 23.0909H249.36Z" fill="white"/>
<path d="M134.223 78.8506L132.602 80.463H250.973L249.36 78.8506H134.223Z" fill="#A388D4"/>
<path d="M249.359 23.0909V78.8502L250.972 80.4626V21.4785L249.359 23.0909Z" fill="#C5B6E3"/>
<path d="M134.223 23.0909L132.602 21.4785V80.4626L134.223 78.8502V23.0909Z" fill="#F0E7FF"/>
<path d="M243.633 33.7217H236.846L236.705 33.5811V26.7939H243.492L243.633 26.9346V33.7217Z" fill="#543880"/>
<path d="M243.492 26.7939H236.705V33.5811H243.492V26.7939Z" fill="#F0E7FF"/>
<path d="M242.798 27.4795H237.389V32.8886H242.798V27.4795Z" fill="url(#paint2_linear_657_3564)"/>
<path d="M241.148 31.8574L238.42 29.1388L239.048 28.5107L241.767 31.2387L241.148 31.8574Z" fill="#110151"/>
<path d="M241.147 28.6035L238.43 31.3213L239.053 31.9444L241.771 29.2266L241.147 28.6035Z" fill="#110151"/>
<path d="M237.389 27.4783L236.705 26.7939H243.492L242.808 27.4783H237.389Z" fill="white"/>
<path d="M242.808 32.8975L243.492 33.5818H236.705L237.389 32.8975H242.808Z" fill="#A388D4"/>
<path d="M242.807 27.4783L243.491 26.7939V33.5811L242.807 32.8967V27.4783Z" fill="#C5B6E3"/>
<path d="M234.051 33.7217H227.264L227.123 33.5811V26.7939H233.91L234.051 26.9346V33.7217Z" fill="#543880"/>
<path d="M233.91 26.7939H227.123V33.5811H233.91V26.7939Z" fill="#F0E7FF"/>
<path d="M233.218 27.4785H227.809V32.8876H233.218V27.4785Z" fill="url(#paint3_linear_657_3564)"/>
<path d="M232.402 31.9599H228.652V28.4727H232.402V31.9599ZM229.515 31.0225H231.521V29.3069H229.515V31.0225Z" fill="#110151"/>
<path d="M231.962 28.8848H229.074V29.7566H231.962V28.8848Z" fill="#110151"/>
<path d="M227.807 27.4783L227.123 26.7939H233.91L233.216 27.4783H227.807Z" fill="white"/>
<path d="M233.216 32.8975L233.91 33.5818H227.123L227.807 32.8975H233.216Z" fill="#A388D4"/>
<path d="M233.217 27.4783L233.911 26.7939V33.5811L233.217 32.8967V27.4783Z" fill="#C5B6E3"/>
<path d="M224.47 33.7217H217.683L217.533 33.5811V26.7939H224.32L224.47 26.9346V33.7217Z" fill="#543880"/>
<path d="M224.32 26.7939H217.533V33.5811H224.32V26.7939Z" fill="#F0E7FF"/>
<path d="M223.636 27.4795H218.227V32.8886H223.636V27.4795Z" fill="url(#paint4_linear_657_3564)"/>
<path d="M222.417 31.3408H219.436V32.222H222.417V31.3408Z" fill="#110151"/>
<path d="M218.227 27.4783L217.533 26.7939H224.32L223.636 27.4783H218.227Z" fill="white"/>
<path d="M223.636 32.8975L224.32 33.5818H217.533L218.227 32.8975H223.636Z" fill="#A388D4"/>
<path d="M223.637 27.4783L224.321 26.7939V33.5811L223.637 32.8967V27.4783Z" fill="#C5B6E3"/>
<path d="M250.971 21.4785H132.609V80.4626H250.971V21.4785Z" stroke="#110151" stroke-width="1.40617" stroke-linejoin="round"/>
<path d="M102.35 33.7599H86.7885C86.2687 33.7747 85.7703 33.9699 85.3786 34.312C84.9869 34.6541 84.7264 35.1217 84.6418 35.6348L84.0981 39.3002H66.7272C66.2074 39.3151 65.7089 39.5102 65.3172 39.8523C64.9256 40.1943 64.6651 40.662 64.5804 41.1751L60.615 67.7705C60.5682 68.0019 60.5744 68.2409 60.6331 68.4696C60.6917 68.6982 60.8013 68.9107 60.9537 69.091C61.1061 69.2714 61.2973 69.4149 61.513 69.5109C61.7287 69.6069 61.9633 69.6529 62.1993 69.6454H97.0161C97.5353 69.6288 98.0329 69.433 98.4242 69.0912C98.8155 68.7495 99.0765 68.2828 99.1628 67.7705L99.9877 62.2489L103.128 41.1751L103.953 35.6442C104 35.4107 103.994 35.1697 103.934 34.9391C103.874 34.7086 103.763 34.4946 103.609 34.3132C103.454 34.1318 103.261 33.9878 103.043 33.892C102.825 33.7961 102.588 33.751 102.35 33.7599Z" fill="url(#paint5_linear_657_3564)" stroke="#110151" stroke-width="1.40617" stroke-linejoin="round"/>
<path d="M98.4974 67.7514C98.589 67.9612 98.6254 68.191 98.603 68.4188C98.5806 68.6467 98.5003 68.8649 98.3697 69.0529C98.239 69.2409 98.0624 69.3923 97.8567 69.4927C97.6509 69.5931 97.4229 69.6391 97.1944 69.6263H62.387C61.8397 69.5939 61.3148 69.3978 60.8802 69.0635C60.4456 68.7292 60.1214 68.2721 59.9497 67.7514L53.5 46.6683C53.4061 46.4594 53.3675 46.2298 53.3883 46.0017C53.409 45.7736 53.4883 45.5547 53.6183 45.3662C53.7484 45.1777 53.9249 45.0259 54.1308 44.9256C54.3367 44.8252 54.5651 44.7797 54.7937 44.7934H89.6104C90.1577 44.8259 90.6827 45.022 91.1173 45.3562C91.5519 45.6905 91.876 46.1476 92.0478 46.6683L98.4974 67.7514Z" fill="url(#paint6_linear_657_3564)" stroke="#110151" stroke-width="1.40617" stroke-linejoin="round"/>
<path d="M299.674 130.204C304.896 133.228 310.435 135.668 316.192 137.479" stroke="#110151" stroke-width="1.40617" stroke-linecap="round" stroke-linejoin="round"/>
<path d="M283.906 116.799C281.139 111.447 277.791 106.417 273.922 101.8" stroke="#110151" stroke-width="1.40617" stroke-linecap="round" stroke-linejoin="round"/>
<path d="M48.9141 94.0557C42.0239 88.2154 39.2209 78.7941 48.0798 67.9854C55.0169 75.8318 55.8981 85.9937 48.9141 94.0557Z" fill="url(#paint7_linear_657_3564)" stroke="#110151" stroke-width="1.40617" stroke-linejoin="round"/>
<path d="M75.5569 152.515C75.5569 152.515 46.1023 113.958 47.7991 77.8008" stroke="#110151" stroke-width="1.40617" stroke-linecap="round" stroke-linejoin="round"/>
<path d="M51.7273 105.709C43.0559 108.24 33.6533 105.39 29.5098 92.0313C39.8967 90.5783 48.9149 95.4436 51.7273 105.709Z" fill="url(#paint8_linear_657_3564)" stroke="#110151" stroke-width="1.40617" stroke-linejoin="round"/>
<path d="M51.7269 105.708C46.7221 103.561 41.9687 100.87 37.5527 97.6836" stroke="#110151" stroke-width="1.40617" stroke-linecap="round" stroke-linejoin="round"/>
<path d="M51.7267 105.709C50.4143 96.7657 54.5391 87.8413 68.3289 85.582C68.357 96.0439 62.3105 104.265 51.7267 105.709Z" fill="url(#paint9_linear_657_3564)" stroke="#110151" stroke-width="1.40617" stroke-linejoin="round"/>
<path d="M51.7285 105.709C54.543 101.043 57.8628 96.7015 61.6279 92.7627" stroke="#110151" stroke-width="1.40617" stroke-linecap="round" stroke-linejoin="round"/>
<path d="M57.9525 122.329C49.703 125.995 40.0004 124.429 34.1133 111.755C44.2283 108.924 53.734 112.58 57.9525 122.329Z" fill="url(#paint10_linear_657_3564)" stroke="#110151" stroke-width="1.40617" stroke-linejoin="round"/>
<path d="M57.953 122.33C52.7051 120.875 47.634 118.844 42.832 116.274" stroke="#110151" stroke-width="1.40617" stroke-linecap="round" stroke-linejoin="round"/>
<path d="M57.9434 122.339C55.5529 113.63 58.5621 104.274 72.0051 100.365C73.2894 110.752 68.246 119.639 57.9434 122.339Z" fill="url(#paint11_linear_657_3564)" stroke="#110151" stroke-width="1.40617" stroke-linejoin="round"/>
<path d="M57.9414 122.339C60.1704 117.363 62.94 112.648 66.2003 108.277" stroke="#110151" stroke-width="1.40617" stroke-linecap="round" stroke-linejoin="round"/>
<path d="M65.4623 137.46C57.6346 141.969 47.8195 141.435 40.6387 129.445C50.36 125.573 60.2313 128.17 65.4623 137.46Z" fill="url(#paint12_linear_657_3564)" stroke="#110151" stroke-width="1.40617" stroke-linejoin="round"/>
<path d="M65.4519 137.459C60.0835 136.56 54.8304 135.073 49.7871 133.025" stroke="#110151" stroke-width="1.40617" stroke-linecap="round" stroke-linejoin="round"/>
<path d="M65.4411 137.47C62.16 129.033 64.1661 119.443 77.1029 114.137C79.4653 124.336 75.4061 133.701 65.4411 137.47Z" fill="url(#paint13_linear_657_3564)" stroke="#110151" stroke-width="1.40617" stroke-linejoin="round"/>
<path d="M65.4414 137.469C67.1401 132.298 69.4003 127.328 72.1816 122.648" stroke="#110151" stroke-width="1.40617" stroke-linecap="round" stroke-linejoin="round"/>
<path d="M17.9791 141.575C8.94214 141.36 0.842608 135.81 0.936353 121.823C11.2108 123.567 18.2979 130.916 17.9791 141.575Z" fill="url(#paint14_linear_657_3564)" stroke="#110151" stroke-width="1.40617" stroke-linejoin="round"/>
<path d="M75.4164 170.27C75.4164 170.27 28.291 158.824 6.85156 129.642" stroke="#110151" stroke-width="1.40617" stroke-linecap="round" stroke-linejoin="round"/>
<path d="M27.4672 148.859C22.3113 156.275 13.2087 159.978 1.59375 152.197C8.73709 144.547 18.7677 142.682 27.4672 148.859Z" fill="url(#paint15_linear_657_3564)" stroke="#110151" stroke-width="1.40617" stroke-linejoin="round"/>
<path d="M27.467 148.859C22.2307 150.332 16.849 151.228 11.418 151.531" stroke="#110151" stroke-width="1.40617" stroke-linecap="round" stroke-linejoin="round"/>
<path d="M27.4652 148.86C20.8187 142.729 18.4095 133.204 27.709 122.771C34.3086 130.898 34.7679 141.098 27.4652 148.86Z" fill="url(#paint16_linear_657_3564)" stroke="#110151" stroke-width="1.40617" stroke-linejoin="round"/>
<path d="M27.465 148.859C26.7209 143.461 26.57 137.997 27.0151 132.566" stroke="#110151" stroke-width="1.40617" stroke-linecap="round" stroke-linejoin="round"/>
<path d="M42.7458 157.878C38.6304 165.921 30.109 170.805 17.5566 164.646C23.6032 156.115 33.3057 152.891 42.7458 157.878Z" fill="url(#paint17_linear_657_3564)" stroke="#110151" stroke-width="1.40617" stroke-linejoin="round"/>
<path d="M42.7467 157.878C37.7478 160.043 32.5262 161.653 27.1758 162.678" stroke="#110151" stroke-width="1.40617" stroke-linecap="round" stroke-linejoin="round"/>
<path d="M42.7374 157.897C35.4066 152.619 31.8631 143.46 39.8407 131.967C47.3684 139.241 49.0558 149.31 42.7374 157.897Z" fill="url(#paint18_linear_657_3564)" stroke="#110151" stroke-width="1.40617" stroke-linejoin="round"/>
<path d="M42.7378 157.897C41.3483 152.63 40.5435 147.226 40.3379 141.782" stroke="#110151" stroke-width="1.40617" stroke-linecap="round" stroke-linejoin="round"/>
<path d="M58.0924 164.918C54.8394 173.355 46.843 179.101 33.7188 174.292C38.8747 165.171 48.1835 160.99 58.0924 164.918Z" fill="url(#paint19_linear_657_3564)" stroke="#110151" stroke-width="1.40617" stroke-linejoin="round"/>
<path d="M58.0929 164.918C53.3448 167.602 48.3146 169.752 43.0938 171.33" stroke="#110151" stroke-width="1.40617" stroke-linecap="round" stroke-linejoin="round"/>
<path d="M58.0919 164.936C50.2361 160.465 45.7551 151.718 52.4672 139.466C60.7355 145.906 63.4728 155.702 58.0919 164.936Z" fill="url(#paint20_linear_657_3564)" stroke="#110151" stroke-width="1.40617" stroke-linejoin="round"/>
<path d="M58.0838 164.937C56.1511 159.836 54.7836 154.539 54.0059 149.141" stroke="#110151" stroke-width="1.40617" stroke-linecap="round" stroke-linejoin="round"/>
<path d="M257.77 252.175C264.922 257.687 274.719 258.456 283.437 247.488C274.315 242.398 264.182 243.663 257.77 252.175Z" fill="url(#paint21_linear_657_3564)" stroke="#110151" stroke-width="1.40617" stroke-linejoin="round"/>
<path d="M257.77 252.175C263.212 251.994 268.619 251.221 273.894 249.869" stroke="#110151" stroke-width="1.40617" stroke-linecap="round" stroke-linejoin="round"/>
<path d="M398.595 280.849H393.748V275.553H388.47V270.265H384.383V264.969H375.065V270.265H364.837V275.553H356.391V280.849H346.51V286.146H332.523V291.442H405.101V286.146H398.595V280.849Z" fill="url(#paint22_linear_657_3564)" stroke="#110151" stroke-width="1.40617" stroke-linejoin="round"/>
<path d="M256.54 93.5684L225.117 246.128L271.249 265.318L300.778 251.003L332.483 146.815L256.54 93.5684Z" fill="url(#paint23_linear_657_3564)"/>
<path style="mix-blend-mode:multiply" d="M227.592 234.092L246.134 242.529L284.617 113.255L256.54 93.5684L227.592 234.092Z" fill="url(#paint24_linear_657_3564)"/>
<path d="M256.54 93.5684L332.483 146.815L300.778 251.003L271.249 265.318L225.117 246.128" stroke="#110151" stroke-width="1.40617" stroke-linejoin="round"/>
<path d="M261.088 157.643C262.091 158.206 263.244 157.577 263.675 156.218C263.9 155.606 263.921 154.938 263.735 154.313C263.549 153.688 263.167 153.14 262.644 152.75C261.641 152.187 260.479 152.825 260.057 154.165C259.83 154.778 259.808 155.449 259.994 156.076C260.18 156.703 260.564 157.252 261.088 157.643Z" fill="url(#paint25_linear_657_3564)" stroke="#110151" stroke-width="1.40617" stroke-miterlimit="10"/>
<path d="M267.81 161.459C268.822 162.022 269.985 161.394 270.416 160.035C270.64 159.42 270.66 158.75 270.472 158.123C270.285 157.496 269.9 156.947 269.375 156.557C268.372 155.985 267.21 156.622 266.779 157.972C266.553 158.587 266.531 159.258 266.717 159.887C266.903 160.515 267.286 161.066 267.81 161.459Z" fill="url(#paint26_linear_657_3564)" stroke="#110151" stroke-width="1.40617" stroke-miterlimit="10"/>
<path d="M274.578 165.293C275.591 165.865 276.772 165.237 277.203 163.868C277.422 163.252 277.438 162.582 277.249 161.957C277.06 161.331 276.676 160.782 276.153 160.39C275.141 159.828 273.969 160.465 273.538 161.815C273.315 162.43 273.296 163.1 273.483 163.726C273.671 164.352 274.055 164.902 274.578 165.293Z" fill="url(#paint27_linear_657_3564)" stroke="#110151" stroke-width="1.40617" stroke-miterlimit="10"/>
<path d="M281.402 169.154C282.424 169.736 283.605 169.098 284.036 167.729C284.265 167.11 284.286 166.433 284.097 165.801C283.907 165.169 283.518 164.615 282.986 164.223C281.965 163.652 280.783 164.289 280.352 165.648C280.124 166.268 280.103 166.944 280.292 167.577C280.481 168.209 280.871 168.763 281.402 169.154Z" fill="url(#paint28_linear_657_3564)" stroke="#110151" stroke-width="1.40617" stroke-miterlimit="10"/>
<path d="M288.245 173.046C289.267 173.617 290.458 172.989 290.898 171.621C291.126 170.997 291.145 170.317 290.954 169.682C290.763 169.047 290.372 168.49 289.839 168.096C288.808 167.524 287.627 168.152 287.186 169.521C286.957 170.144 286.937 170.824 287.128 171.46C287.319 172.095 287.711 172.652 288.245 173.046Z" fill="url(#paint29_linear_657_3564)" stroke="#110151" stroke-width="1.40617" stroke-miterlimit="10"/>
<path d="M295.146 176.954C296.177 177.536 297.377 176.898 297.818 175.529C298.045 174.904 298.063 174.222 297.871 173.585C297.678 172.948 297.285 172.39 296.749 171.995C295.718 171.414 294.518 172.052 294.077 173.42C293.849 174.046 293.83 174.728 294.022 175.366C294.215 176.003 294.609 176.56 295.146 176.954Z" fill="url(#paint30_linear_657_3564)" stroke="#110151" stroke-width="1.40617" stroke-miterlimit="10"/>
<path d="M303.695 175.924C302.664 175.333 301.454 175.924 301.014 177.339C300.783 177.966 300.762 178.65 300.955 179.29C301.148 179.929 301.544 180.488 302.082 180.883C303.123 181.473 304.332 180.883 304.773 179.467C305.004 178.84 305.024 178.154 304.83 177.514C304.635 176.874 304.236 176.316 303.695 175.924Z" fill="url(#paint31_linear_657_3564)" stroke="#110151" stroke-width="1.40617" stroke-miterlimit="10"/>
<path d="M257.694 168.321C258.697 168.893 259.85 168.265 260.272 166.924C260.497 166.311 260.519 165.643 260.335 165.017C260.151 164.391 259.771 163.84 259.25 163.446C258.247 162.874 257.094 163.512 256.663 164.862C256.442 165.473 256.423 166.139 256.609 166.761C256.795 167.384 257.175 167.93 257.694 168.321Z" fill="url(#paint32_linear_657_3564)" stroke="#110151" stroke-width="1.40617" stroke-miterlimit="10"/>
<path d="M264.395 172.164C265.398 172.736 266.56 172.108 266.992 170.758C267.218 170.144 267.24 169.474 267.055 168.847C266.869 168.22 266.485 167.67 265.961 167.28C264.957 166.708 263.795 167.336 263.364 168.686C263.14 169.3 263.12 169.969 263.305 170.595C263.491 171.221 263.873 171.771 264.395 172.164Z" fill="url(#paint33_linear_657_3564)" stroke="#110151" stroke-width="1.40617" stroke-miterlimit="10"/>
<path d="M271.145 176.026C272.158 176.607 273.33 176.026 273.761 174.629C273.985 174.01 274.003 173.334 273.814 172.703C273.625 172.072 273.238 171.518 272.711 171.123C271.708 170.551 270.536 171.18 270.105 172.539C269.882 173.155 269.862 173.826 270.049 174.454C270.237 175.082 270.621 175.633 271.145 176.026Z" fill="url(#paint34_linear_657_3564)" stroke="#110151" stroke-width="1.40617" stroke-miterlimit="10"/>
<path d="M277.934 179.917C278.956 180.498 280.127 179.87 280.568 178.52C280.792 177.899 280.812 177.222 280.623 176.589C280.434 175.957 280.046 175.401 279.518 175.005C278.496 174.424 277.324 175.005 276.884 176.411C276.66 177.031 276.641 177.706 276.83 178.337C277.019 178.968 277.406 179.522 277.934 179.917Z" fill="url(#paint35_linear_657_3564)" stroke="#110151" stroke-width="1.40617" stroke-miterlimit="10"/>
<path d="M284.767 183.826C285.789 184.408 286.97 183.826 287.41 182.42C287.639 181.797 287.66 181.117 287.469 180.481C287.278 179.846 286.886 179.289 286.351 178.895C285.329 178.314 284.148 178.895 283.708 180.302C283.48 180.925 283.461 181.605 283.652 182.24C283.842 182.875 284.234 183.432 284.767 183.826Z" fill="url(#paint36_linear_657_3564)" stroke="#110151" stroke-width="1.40617" stroke-miterlimit="10"/>
<path d="M291.648 187.772C292.679 188.363 293.87 187.772 294.31 186.375C294.538 185.749 294.557 185.065 294.364 184.426C294.172 183.788 293.778 183.228 293.242 182.832C292.211 182.251 291.02 182.832 290.579 184.238C290.351 184.863 290.331 185.546 290.524 186.183C290.717 186.821 291.111 187.378 291.648 187.772Z" fill="url(#paint37_linear_657_3564)" stroke="#110151" stroke-width="1.40617" stroke-miterlimit="10"/>
<path d="M300.15 186.779C299.119 186.198 297.919 186.826 297.469 188.195C297.241 188.821 297.222 189.505 297.415 190.144C297.608 190.782 298.001 191.342 298.538 191.738C299.578 192.329 300.778 191.738 301.219 190.341C301.451 189.712 301.472 189.024 301.28 188.382C301.087 187.739 300.69 187.177 300.15 186.779Z" fill="url(#paint38_linear_657_3564)" stroke="#110151" stroke-width="1.40617" stroke-miterlimit="10"/>
<path d="M254.318 178.97C255.256 179.542 256.456 178.923 256.887 177.583C257.107 176.97 257.125 176.303 256.94 175.68C256.754 175.056 256.375 174.507 255.856 174.114C254.862 173.543 253.709 174.161 253.287 175.502C253.067 176.114 253.049 176.781 253.234 177.405C253.42 178.029 253.799 178.577 254.318 178.97Z" fill="url(#paint39_linear_657_3564)" stroke="#110151" stroke-width="1.40617" stroke-miterlimit="10"/>
<path d="M262.549 177.967C261.556 177.395 260.393 177.967 259.962 179.364C259.743 179.978 259.725 180.646 259.91 181.271C260.095 181.896 260.475 182.446 260.993 182.842C261.996 183.413 263.149 182.795 263.581 181.454C263.806 180.839 263.828 180.168 263.642 179.54C263.457 178.912 263.073 178.36 262.549 177.967Z" fill="url(#paint40_linear_657_3564)" stroke="#110151" stroke-width="1.40617" stroke-miterlimit="10"/>
<path d="M269.28 181.848C268.277 181.267 267.114 181.848 266.683 183.245C266.461 183.861 266.443 184.532 266.63 185.159C266.817 185.787 267.2 186.338 267.724 186.732C268.727 187.313 269.899 186.732 270.33 185.344C270.553 184.726 270.571 184.052 270.382 183.423C270.193 182.793 269.807 182.241 269.28 181.848Z" fill="url(#paint41_linear_657_3564)" stroke="#110151" stroke-width="1.40617" stroke-miterlimit="10"/>
<path d="M276.067 185.757C275.046 185.167 273.874 185.757 273.443 187.145C273.22 187.765 273.202 188.439 273.391 189.07C273.58 189.701 273.966 190.255 274.493 190.651C275.505 191.232 276.677 190.651 277.108 189.263C277.336 188.645 277.358 187.969 277.17 187.337C276.983 186.705 276.596 186.151 276.067 185.757Z" fill="url(#paint42_linear_657_3564)" stroke="#110151" stroke-width="1.40617" stroke-miterlimit="10"/>
<path d="M282.882 189.685C281.86 189.094 280.679 189.685 280.248 191.072C280.02 191.693 280 192.371 280.189 193.004C280.378 193.638 280.767 194.193 281.298 194.588C282.32 195.178 283.501 194.588 283.932 193.21C284.162 192.588 284.184 191.908 283.994 191.272C283.805 190.637 283.415 190.08 282.882 189.685Z" fill="url(#paint43_linear_657_3564)" stroke="#110151" stroke-width="1.40617" stroke-miterlimit="10"/>
<path d="M289.746 193.632C288.724 193.041 287.533 193.632 287.093 195.029C286.868 195.652 286.85 196.331 287.041 196.966C287.232 197.6 287.621 198.157 288.152 198.554C289.183 199.154 290.374 198.554 290.814 197.176C291.042 196.549 291.061 195.865 290.868 195.226C290.676 194.588 290.282 194.029 289.746 193.632Z" fill="url(#paint44_linear_657_3564)" stroke="#110151" stroke-width="1.40617" stroke-miterlimit="10"/>
<path d="M296.654 197.616C295.623 197.016 294.423 197.616 293.983 199.003C293.755 199.63 293.736 200.314 293.929 200.952C294.121 201.591 294.515 202.15 295.051 202.547C296.083 203.147 297.282 202.547 297.723 201.169C297.951 200.54 297.971 199.855 297.778 199.215C297.586 198.575 297.192 198.014 296.654 197.616Z" fill="url(#paint45_linear_657_3564)" stroke="#110151" stroke-width="1.40617" stroke-miterlimit="10"/>
<path d="M252.48 184.763C251.487 184.182 250.343 184.763 249.921 186.141C249.701 186.751 249.681 187.416 249.865 188.038C250.049 188.66 250.426 189.208 250.943 189.6C251.937 190.182 253.08 189.6 253.511 188.232C253.731 187.619 253.75 186.952 253.564 186.328C253.379 185.704 252.999 185.156 252.48 184.763Z" fill="url(#paint46_linear_657_3564)" stroke="#110151" stroke-width="1.40617" stroke-miterlimit="10"/>
<path d="M259.155 188.625C258.162 188.044 256.999 188.625 256.577 190.003C256.358 190.618 256.34 191.286 256.525 191.911C256.711 192.536 257.09 193.086 257.608 193.481C258.602 194.063 259.755 193.481 260.186 192.103C260.408 191.49 260.428 190.821 260.243 190.195C260.057 189.569 259.676 189.019 259.155 188.625Z" fill="url(#paint47_linear_657_3564)" stroke="#110151" stroke-width="1.40617" stroke-miterlimit="10"/>
<path d="M265.868 192.526C264.865 191.944 263.702 192.526 263.271 193.913C263.049 194.529 263.031 195.2 263.218 195.828C263.405 196.455 263.788 197.006 264.312 197.4C265.315 197.991 266.477 197.4 266.908 196.032C267.13 195.413 267.149 194.739 266.962 194.108C266.775 193.478 266.391 192.924 265.868 192.526Z" fill="url(#paint48_linear_657_3564)" stroke="#110151" stroke-width="1.40617" stroke-miterlimit="10"/>
<path d="M272.628 196.462C271.616 195.872 270.444 196.462 270.013 197.84C269.791 198.46 269.773 199.135 269.962 199.766C270.151 200.397 270.536 200.951 271.063 201.347C272.066 201.937 273.238 201.347 273.669 199.978C273.891 199.357 273.911 198.682 273.723 198.05C273.536 197.418 273.153 196.862 272.628 196.462Z" fill="url(#paint49_linear_657_3564)" stroke="#110151" stroke-width="1.40617" stroke-miterlimit="10"/>
<path d="M279.423 200.419C278.402 199.829 277.23 200.419 276.799 201.797C276.571 202.418 276.55 203.096 276.74 203.73C276.929 204.363 277.318 204.919 277.849 205.313C278.861 205.903 280.033 205.313 280.473 203.944C280.699 203.322 280.718 202.643 280.529 202.009C280.34 201.374 279.953 200.817 279.423 200.419Z" fill="url(#paint50_linear_657_3564)" stroke="#110151" stroke-width="1.40617" stroke-miterlimit="10"/>
<path d="M286.268 204.449C285.246 203.849 284.065 204.449 283.624 205.827C283.399 206.449 283.379 207.128 283.568 207.762C283.757 208.397 284.145 208.954 284.674 209.352C285.705 209.952 286.886 209.352 287.327 207.983C287.553 207.358 287.572 206.677 287.382 206.041C287.191 205.404 286.8 204.846 286.268 204.449Z" fill="url(#paint51_linear_657_3564)" stroke="#110151" stroke-width="1.40617" stroke-miterlimit="10"/>
<path d="M293.149 208.406C292.118 207.806 290.927 208.406 290.487 209.784C290.261 210.411 290.242 211.094 290.435 211.732C290.627 212.371 291.02 212.93 291.555 213.327C292.587 213.927 293.777 213.328 294.218 211.959C294.445 211.33 294.463 210.646 294.271 210.006C294.078 209.366 293.685 208.805 293.149 208.406Z" fill="url(#paint52_linear_657_3564)" stroke="#110151" stroke-width="1.40617" stroke-miterlimit="10"/>
<path d="M249.115 195.338C248.177 194.756 246.987 195.338 246.565 196.697C246.345 197.309 246.326 197.974 246.51 198.598C246.693 199.221 247.07 199.77 247.586 200.165C248.571 200.747 249.715 200.165 250.136 198.806C250.359 198.195 250.38 197.528 250.196 196.904C250.012 196.28 249.633 195.731 249.115 195.338Z" fill="url(#paint53_linear_657_3564)" stroke="#110151" stroke-width="1.40617" stroke-miterlimit="10"/>
<path d="M255.771 199.247C254.777 198.656 253.624 199.247 253.202 200.606C252.979 201.219 252.958 201.887 253.142 202.513C253.325 203.139 253.705 203.689 254.224 204.084C255.217 204.675 256.371 204.084 256.792 202.734C257.015 202.12 257.035 201.451 256.852 200.823C256.668 200.196 256.289 199.644 255.771 199.247Z" fill="url(#paint54_linear_657_3564)" stroke="#110151" stroke-width="1.40617" stroke-miterlimit="10"/>
<path d="M262.466 203.184C261.463 202.594 260.31 203.184 259.879 204.544C259.657 205.159 259.638 205.829 259.823 206.456C260.009 207.083 260.389 207.635 260.91 208.031C261.913 208.622 263.075 208.031 263.497 206.681C263.722 206.065 263.744 205.392 263.558 204.763C263.372 204.133 262.99 203.58 262.466 203.184Z" fill="url(#paint55_linear_657_3564)" stroke="#110151" stroke-width="1.40617" stroke-miterlimit="10"/>
<path d="M269.215 207.14C268.212 206.55 267.04 207.14 266.609 208.5C266.39 209.12 266.373 209.794 266.562 210.424C266.751 211.054 267.135 211.608 267.659 212.006C268.662 212.596 269.824 212.006 270.256 210.647C270.479 210.028 270.498 209.353 270.311 208.723C270.124 208.092 269.74 207.537 269.215 207.14Z" fill="url(#paint56_linear_657_3564)" stroke="#110151" stroke-width="1.40617" stroke-miterlimit="10"/>
<path d="M275.973 211.125C274.96 210.525 273.789 211.125 273.348 212.484C273.127 213.106 273.109 213.782 273.298 214.414C273.487 215.046 273.872 215.601 274.398 216C275.41 216.6 276.582 216 277.023 214.65C277.245 214.027 277.263 213.349 277.074 212.716C276.885 212.082 276.5 211.525 275.973 211.125Z" fill="url(#paint57_linear_657_3564)" stroke="#110151" stroke-width="1.40617" stroke-miterlimit="10"/>
<path d="M282.79 215.137C281.777 214.537 280.596 215.137 280.156 216.496C279.933 217.119 279.915 217.796 280.104 218.43C280.293 219.064 280.679 219.621 281.205 220.021C282.227 220.63 283.418 220.021 283.849 218.671C284.074 218.046 284.092 217.365 283.902 216.729C283.711 216.093 283.321 215.535 282.79 215.137Z" fill="url(#paint58_linear_657_3564)" stroke="#110151" stroke-width="1.40617" stroke-miterlimit="10"/>
<path d="M289.65 219.168C288.628 218.568 287.438 219.168 287.006 220.527C286.779 221.153 286.76 221.836 286.95 222.474C287.141 223.112 287.532 223.672 288.066 224.071C289.087 224.68 290.278 224.071 290.719 222.721C290.945 222.092 290.964 221.408 290.772 220.768C290.579 220.128 290.186 219.567 289.65 219.168Z" fill="url(#paint59_linear_657_3564)" stroke="#110151" stroke-width="1.40617" stroke-miterlimit="10"/>
<path d="M200.688 206.091L53.0966 200.223L48.25 197.973L85.1948 60.2056L240.389 55.0215L243.023 59.4744L200.688 206.091Z" fill="url(#paint60_linear_657_3564)" stroke="#110151" stroke-width="1.40617" stroke-linejoin="round"/>
<path d="M242.806 229.236L87.265 221.661L62.0664 209.54L213.492 216.065L242.806 229.236Z" fill="url(#paint61_linear_657_3564)" stroke="#110151" stroke-width="1.40617" stroke-linejoin="round"/>
<path d="M213.494 216.064L62.068 209.54L48.25 197.972L197.435 203.559L213.494 216.064Z" fill="url(#paint62_linear_657_3564)" stroke="#110151" stroke-width="1.40617" stroke-linejoin="round"/>
<path d="M91.0531 78.0447L63.3516 180.77L190.929 184.37L222.417 74.8574L91.0531 78.0447Z" fill="url(#paint63_linear_657_3564)" stroke="#110151" stroke-width="1.40617" stroke-linejoin="round"/>
<mask id="mask0_657_3564" style="mask-type:luminance" maskUnits="userSpaceOnUse" x="69" y="82" width="149" height="99">
<path d="M94.4095 84.8965L69.4453 177.226L189.307 180.385L217.459 82.3467L94.4095 84.8965Z" fill="white"/>
</mask>
<g mask="url(#mask0_657_3564)">
<path d="M94.7565 85.2822L78.6699 145.541L94.7471 145.616L111.162 84.7197L94.7565 85.2822Z" fill="#E5E4EB"/>
<path d="M111.161 84.7193L94.7461 145.616L111.151 145.691L127.932 84.1475L111.161 84.7193Z" fill="#FFDE3B"/>
<path d="M127.933 84.1472L111.152 145.691L127.914 145.775L145.05 83.5566L127.933 84.1472Z" fill="#48DDF7"/>
<path d="M145.049 83.5564L127.912 145.775L145.039 145.85L162.56 82.9658L145.049 83.5564Z" fill="#1BBA1A"/>
<path d="M162.562 82.9668L145.041 145.851L162.543 145.935L180.448 82.3574L162.562 82.9668Z" fill="#FF5CAE"/>
<path d="M180.448 82.3566L162.543 145.934L180.439 146.019L198.738 81.7285L180.448 82.3566Z" fill="#E03053"/>
<path d="M198.738 81.7289L180.439 146.019L198.729 146.113L217.44 81.082L198.738 81.7289Z" fill="#3E3DFE"/>
<path d="M78.6694 145.541L75.9414 155.778L91.953 155.965L94.7466 145.616L78.6694 145.541Z" fill="#3E3DFE"/>
<path d="M94.7467 145.615L91.9531 155.965L98.6746 156.04L108.312 156.152L111.152 145.69L94.7467 145.615Z" fill="#201551"/>
<path d="M111.153 145.69L108.312 156.152L125.008 156.34L127.915 145.775L111.153 145.69Z" fill="#FF5CAE"/>
<path d="M127.914 145.775L125.008 156.34L131.204 156.415L142.069 156.537L145.041 145.85L127.914 145.775Z" fill="#201551"/>
<path d="M145.04 145.851L142.068 156.537L153.665 156.669L159.505 156.734L162.542 145.935L145.04 145.851Z" fill="#48DDF7"/>
<path d="M162.543 145.935L159.506 156.734L177.327 156.94L180.439 146.019L162.543 145.935Z" fill="#201551"/>
<path d="M180.439 146.02L177.326 156.941L184.61 157.025L195.55 157.156L198.728 146.113L180.439 146.02Z" fill="white"/>
<path d="M91.9531 155.965L75.9415 155.777L70.3262 176.814L92.8905 177.385L98.6746 156.04L91.9531 155.965Z" fill="#2928A8"/>
<path d="M125.008 156.34L108.312 156.153L98.6747 156.04L92.8906 177.386L125.186 178.201L131.204 156.415L125.008 156.34Z" fill="white"/>
<path d="M142.069 156.538L131.204 156.416L125.186 178.202L147.469 178.765L153.665 156.669L142.069 156.538Z" fill="#841FA1"/>
<path d="M159.506 156.734L153.665 156.668L147.469 178.764L170.952 179.364L177.326 156.94L159.506 156.734Z" fill="#201551"/>
<path d="M184.611 157.024L178.18 179.551L189.026 179.823L195.551 157.156L184.611 157.024Z" fill="#201551"/>
<path d="M177.328 156.94L170.953 179.364L178.181 179.552L184.612 157.025L177.328 156.94Z" fill="#E5E4EB"/>
</g>
<path d="M94.4095 84.8971L69.4453 177.217L189.298 180.376L217.459 82.3379L94.4095 84.8971Z" stroke="#110151" stroke-width="1.40617" stroke-linejoin="round"/>
<path d="M91.0527 78.0449L94.4088 84.8977" stroke="#110151" stroke-width="1.40617" stroke-linejoin="round"/>
<path d="M69.445 177.218L63.3516 180.761" stroke="#110151" stroke-width="1.40617" stroke-linejoin="round"/>
<path d="M190.928 184.37L189.297 180.376" stroke="#110151" stroke-width="1.40617" stroke-linejoin="round"/>
<path d="M222.418 74.8574L217.459 82.3382" stroke="#110151" stroke-width="1.40617" stroke-linejoin="round"/>
<path d="M75.2383 155.768L196.056 156.846" stroke="#110151" stroke-width="1.40617" stroke-linejoin="round"/>
<path d="M78.6699 145.541L198.729 146.113" stroke="#110151" stroke-width="1.40617" stroke-linejoin="round"/>
<path d="M111.162 84.7188L91.9629 155.918" stroke="#110151" stroke-width="1.40617" stroke-linejoin="round"/>
<path d="M127.913 84.2031L108.367 155.918" stroke="#110151" stroke-width="1.40617" stroke-linejoin="round"/>
<path d="M145.014 83.585L125.121 155.918" stroke="#110151" stroke-width="1.40617" stroke-linejoin="round"/>
<path d="M162.411 83.4814L142.115 156.368" stroke="#110151" stroke-width="1.40617" stroke-linejoin="round"/>
<path d="M180.232 83.1162L159.57 156.518" stroke="#110151" stroke-width="1.40617" stroke-linejoin="round"/>
<path d="M198.446 82.7314L170.951 179.363" stroke="#110151" stroke-width="1.40617" stroke-linejoin="round"/>
<path d="M184.61 157.025L178.17 179.552" stroke="#110151" stroke-width="1.40617" stroke-linejoin="round"/>
<path d="M153.806 156.472L147.469 178.764" stroke="#110151" stroke-width="1.40617" stroke-linejoin="round"/>
<path d="M131.298 156.274L125.186 178.201" stroke="#110151" stroke-width="1.40617" stroke-linejoin="round"/>
<path d="M98.4965 155.975L92.8906 177.386" stroke="#110151" stroke-width="1.40617" stroke-linejoin="round"/>
<path d="M258.904 60.5049L213.494 216.065L242.808 229.236L285.565 85.0753L258.904 60.5049Z" fill="url(#paint64_linear_657_3564)"/>
<path d="M240.389 55.0215L197.436 203.56L213.494 216.065L258.904 60.5055L240.389 55.0215Z" fill="url(#paint65_linear_657_3564)"/>
<path d="M258.904 60.5055L285.565 85.076L242.808 229.237L213.494 216.065L197.436 203.56L240.389 55.0215L258.904 60.5055Z" stroke="#110151" stroke-width="1.40617" stroke-linejoin="round"/>
<path style="mix-blend-mode:overlay" d="M90.9686 177.789L135.197 178.951L87.9969 108.605L75.5195 154.756L90.9686 177.789Z" fill="url(#paint66_linear_657_3564)"/>
<path style="mix-blend-mode:overlay" d="M171.093 83.3037L128.242 84.1943L190.339 176.758L203.36 131.413L171.093 83.3037Z" fill="url(#paint67_linear_657_3564)"/>
<path d="M199.795 234.842L78.3492 229.048L71.459 227.23L74.4682 210.103L200.677 215.54L202.214 217.686L199.795 234.842Z" fill="url(#paint68_linear_657_3564)" stroke="#110151" stroke-width="1.40617" stroke-linejoin="round"/>
<path d="M200.678 215.54L197.275 233.773L225.118 246.129L228.736 228.552L200.678 215.54Z" fill="url(#paint69_linear_657_3564)"/>
<path style="mix-blend-mode:multiply" d="M228.735 228.552L200.884 215.634L200.631 216.515L216.736 229.142L227.592 234.092L228.735 228.552Z" fill="url(#paint70_linear_657_3564)"/>
<path d="M225.118 246.129L197.275 233.773L200.678 215.54L228.736 228.552L232.383 228.73" stroke="#110151" stroke-width="1.40617" stroke-linejoin="round"/>
<path d="M197.274 233.773L71.459 227.229L136.602 256.59L271.248 265.318L197.274 233.773Z" fill="url(#paint71_linear_657_3564)" stroke="#110151" stroke-width="1.40617" stroke-linejoin="round"/>
<path d="M258.904 60.5049L213.494 216.065" stroke="#110151" stroke-width="1.40617" stroke-linejoin="round"/>
<path d="M226.504 207.591L225.764 205.388L223.561 206.138L222.829 203.935L220.626 204.675L219.886 202.481L217.692 203.222L216.952 201.019L214.758 201.76L214.017 199.566L211.824 200.307L211.083 198.113L208.88 198.854L208.14 196.651L205.946 197.391L205.205 195.198L203.012 195.938L202.271 193.744L200.068 194.485L199.337 192.282L197.134 193.023L196.393 190.829L194.2 191.57L193.459 189.376L191.266 190.117L204.587 229.649L206.78 228.908L206.04 226.714L208.243 225.974L207.502 223.78L209.696 223.04L208.955 220.846L213.352 219.365L214.824 223.752L217.027 223.012L218.508 227.408L220.701 226.668L222.183 231.055L224.376 230.324L225.117 232.517L229.513 231.036L228.773 228.842L230.966 228.102L229.485 223.705L227.292 224.446L225.811 220.049L223.617 220.79L222.136 216.403L219.942 217.143L218.461 212.747L229.438 209.044L228.698 206.85L226.504 207.591Z" fill="#110151"/>
<path d="M222.088 201.741L221.348 199.547L219.145 200.288L218.404 198.085L216.211 198.825L215.47 196.632L213.276 197.372L212.536 195.169L210.333 195.91L209.592 193.716L207.399 194.457L206.658 192.263L204.464 193.004L203.724 190.801L201.53 191.541L200.79 189.348L198.587 190.088L197.846 187.895L195.652 188.635L206.021 219.383L208.214 218.643L207.474 216.449L209.677 215.709L208.927 213.506L211.13 212.765L210.389 210.571L212.583 209.831L214.064 214.227L216.257 213.487L217.739 217.883L219.942 217.143L221.423 221.53L223.616 220.79L225.098 225.186L229.485 223.705L228.013 219.308L225.81 220.049L224.329 215.662L222.135 216.402L220.654 212.006L218.46 212.746L216.239 206.156L225.023 203.194L224.282 201L222.088 201.741Z" fill="url(#paint72_linear_657_3564)"/>
<path d="M205.281 217.19L195.653 188.635L197.847 187.894L197.116 185.691L194.913 186.432L194.172 184.238L191.979 184.979L205.3 224.52L207.503 223.78L206.762 221.586L208.956 220.846L208.215 218.643L206.021 219.383L205.281 217.19Z" fill="#110151"/>
<path d="M208.215 218.642L210.418 217.902L209.678 215.708L207.475 216.449L208.215 218.642Z" fill="#110151"/>
<path d="M212.584 209.831L210.39 210.572L211.131 212.765L208.928 213.506L209.678 215.709L214.065 214.228L212.584 209.831Z" fill="#110151"/>
<path d="M216.258 213.487L214.064 214.228L215.546 218.625L217.739 217.884L216.258 213.487Z" fill="#110151"/>
<path d="M219.941 217.143L217.738 217.883L219.219 222.27L221.422 221.53L219.941 217.143Z" fill="#110151"/>
<path d="M223.617 220.79L221.424 221.531L222.905 225.927L225.099 225.187L223.617 220.79Z" fill="#110151"/>
<path d="M227.218 202.452L226.477 200.259L224.284 200.999L225.024 203.193L216.24 206.155L218.462 212.746L220.656 212.005L219.174 207.608L230.161 203.915L229.421 201.712L227.218 202.452Z" fill="#110151"/>
<path d="M222.137 216.403L224.331 215.662L222.85 211.266L220.656 212.006L222.137 216.403Z" fill="#110151"/>
<path d="M225.811 220.049L228.014 219.308L226.533 214.921L224.33 215.661L225.811 220.049Z" fill="#110151"/>
<path d="M229.485 223.705L231.688 222.964L230.207 218.567L228.014 219.308L229.485 223.705Z" fill="#110151"/>
<path d="M225.1 225.186L225.84 227.38L230.227 225.899L229.487 223.705L225.1 225.186Z" fill="#110151"/>
<path d="M200.789 189.348L200.049 187.154L197.846 187.895L198.586 190.088L200.789 189.348Z" fill="#110151"/>
<path d="M203.725 190.801L202.985 188.607L200.791 189.348L201.532 191.542L203.725 190.801Z" fill="#110151"/>
<path d="M206.659 192.263L205.918 190.06L203.725 190.8L204.465 193.003L206.659 192.263Z" fill="#110151"/>
<path d="M209.594 193.716L208.854 191.522L206.66 192.263L207.401 194.457L209.594 193.716Z" fill="#110151"/>
<path d="M212.537 195.169L211.797 192.976L209.594 193.716L210.334 195.91L212.537 195.169Z" fill="#110151"/>
<path d="M215.471 196.631L214.731 194.428L212.537 195.168L213.278 197.371L215.471 196.631Z" fill="#110151"/>
<path d="M218.405 198.084L217.674 195.891L215.471 196.631L216.211 198.825L218.405 198.084Z" fill="#110151"/>
<path d="M221.348 199.547L220.607 197.344L218.404 198.084L219.145 200.287L221.348 199.547Z" fill="#110151"/>
<path d="M224.282 201L223.541 198.807L221.348 199.547L222.088 201.741L224.282 201Z" fill="#110151"/>
<path d="M57.212 186.339H34.1133V188.907H57.212V186.339Z" fill="#FFF4F6"/>
<path d="M49.5155 160.671V158.102H52.0747V155.534H54.6434V152.975H57.212V142.7H34.1133V152.975H36.6819V155.534H39.2505V158.102H41.8191V160.671H44.3783V165.808H41.8191V168.367H39.2505V170.936H36.6819V173.505H34.1133V183.77H57.212V173.505H54.6434V170.936H52.0747V168.367H49.5155V165.808H46.9469V160.671H49.5155Z" fill="#FFF4F6"/>
<path d="M57.212 137.572H34.1133V140.141H57.212V137.572Z" fill="#FFF4F6"/>
<path d="M41.8186 147.837H39.25V150.406H41.8186V147.837Z" fill="#110151"/>
<path d="M46.9475 147.837H44.3789V150.406H46.9475V147.837Z" fill="#110151"/>
<path d="M52.0842 147.837H49.5156V150.406H52.0842V147.837Z" fill="#110151"/>
<path d="M44.387 150.406H41.8184V152.975H44.387V150.406Z" fill="#110151"/>
<path d="M46.9475 152.975H44.3789V155.543H46.9475V152.975Z" fill="#110151"/>
<path d="M46.9475 158.103H44.3789V160.671H46.9475V158.103Z" fill="#110151"/>
<path d="M49.5139 150.406H46.9453V152.975H49.5139V150.406Z" fill="#110151"/>
<path d="M28.9844 135.004V142.71H31.553V155.534H34.1122V158.103H36.7277V160.671H39.2963V165.808H36.7277V168.368H34.1591V170.936H31.5999V183.77H29.0312V191.466H62.395V183.77H59.8264V170.936H57.2578V168.368H54.6985V165.808H52.1299V160.671H54.6985V158.103H57.2578V155.534H59.8264V142.71H62.395V135.004H28.9844ZM57.2109 188.907H34.1122V186.338H57.2109V188.907ZM57.2109 152.975H54.6517V155.534H52.0831V158.103H49.5145V160.671H46.9459V165.808H49.5145V168.368H52.0831V170.936H54.6517V173.514H57.2109V183.826H34.1122V173.514H36.7277V170.946H39.2963V168.377H41.8649V165.818H44.4241V160.671H41.8649V158.103H39.2963V155.534H36.7277V152.975H34.1591V142.663H57.2578L57.2109 152.975ZM57.2109 140.141H34.1122V137.572H57.2109V140.141Z" fill="#110151"/>
<path d="M46.9475 168.367H44.3789V170.936H46.9475V168.367Z" fill="#110151"/>
<path d="M255.154 116.977H270.687C271.206 116.994 271.704 117.19 272.095 117.531C272.486 117.873 272.747 118.34 272.834 118.852L273.377 122.508H290.776C291.296 122.525 291.793 122.721 292.185 123.062C292.576 123.404 292.837 123.871 292.923 124.383L296.898 151.016C296.945 151.247 296.939 151.486 296.88 151.715C296.821 151.944 296.712 152.156 296.559 152.336C296.407 152.517 296.216 152.66 296 152.756C295.784 152.852 295.55 152.898 295.314 152.891H260.497C259.978 152.874 259.48 152.678 259.089 152.337C258.698 151.995 258.437 151.528 258.35 151.016L257.525 145.485L254.385 124.42L253.56 118.89C253.51 118.655 253.514 118.412 253.572 118.18C253.63 117.947 253.739 117.731 253.893 117.547C254.046 117.362 254.239 117.216 254.458 117.117C254.676 117.018 254.914 116.971 255.154 116.977Z" fill="url(#paint73_linear_657_3564)" stroke="#110151" stroke-width="1.40617" stroke-miterlimit="10"/>
<path d="M258.979 151.016C258.885 151.225 258.846 151.454 258.867 151.682C258.888 151.91 258.967 152.129 259.097 152.318C259.227 152.506 259.403 152.658 259.609 152.758C259.815 152.859 260.044 152.904 260.272 152.891H295.089C295.636 152.858 296.161 152.662 296.596 152.328C297.03 151.993 297.355 151.536 297.526 151.016L303.976 129.923C304.07 129.714 304.108 129.485 304.088 129.257C304.067 129.028 303.988 128.81 303.858 128.621C303.728 128.433 303.551 128.281 303.345 128.18C303.139 128.08 302.911 128.035 302.682 128.048H267.866C267.319 128.082 266.794 128.279 266.36 128.613C265.926 128.947 265.601 129.403 265.428 129.923L258.979 151.016Z" fill="url(#paint74_linear_657_3564)" stroke="#110151" stroke-width="1.40617" stroke-miterlimit="10"/>
<path d="M313.462 183.423L299.953 196.941V225.992H335.304V183.423H313.462Z" fill="url(#paint75_linear_657_3564)"/>
<path d="M335.314 225.993H299.953V228.702H335.314V225.993Z" fill="#110151"/>
<path d="M310.744 186.142H308.035V188.851H310.744V186.142Z" fill="#110151"/>
<path d="M308.035 188.852H305.326V191.57H308.035V188.852Z" fill="#110151"/>
<path d="M316.171 199.65V199.594V183.423H335.304V180.714H316.171H313.462V183.423H310.743V186.142H313.462V196.941H302.662V194.279H305.325V191.56H302.606V194.222H299.953V196.941H297.234V199.65V225.993H299.953V199.65H316.171Z" fill="#110151"/>
<path d="M338.014 183.423H335.305V225.992H338.014V183.423Z" fill="#110151"/>
<path d="M286.941 11.7108L283.604 27.2443L317.633 -0.297852L286.941 11.7108Z" fill="url(#paint76_linear_657_3564)" stroke="#110151" stroke-width="1.40617" stroke-linejoin="round"/>
<path d="M292.884 15.8543L283.604 27.2443L317.633 -0.297852L292.884 15.8543Z" fill="url(#paint77_linear_657_3564)" stroke="#110151" stroke-width="1.40617" stroke-linejoin="round"/>
<path d="M273.406 4.15502L317.635 -0.297852L286.943 11.7108L273.406 4.15502Z" fill="url(#paint78_linear_657_3564)" stroke="#110151" stroke-width="1.40617" stroke-linejoin="round"/>
<path d="M303.722 26.0725L317.633 -0.297852L292.885 15.8543L303.722 26.0725Z" fill="url(#paint79_linear_657_3564)" stroke="#110151" stroke-width="1.40617" stroke-linejoin="round"/>
<path d="M181.319 278.068L184.657 293.592L150.637 266.05L181.319 278.068Z" fill="url(#paint80_linear_657_3564)" stroke="#110151" stroke-width="1.40617" stroke-linejoin="round"/>
<path d="M175.385 282.211L184.657 293.592L150.637 266.05L175.385 282.211Z" fill="url(#paint81_linear_657_3564)" stroke="#110151" stroke-width="1.40617" stroke-linejoin="round"/>
<path d="M194.865 270.503L150.637 266.05L181.319 278.068L194.865 270.503Z" fill="url(#paint82_linear_657_3564)" stroke="#110151" stroke-width="1.40617" stroke-linejoin="round"/>
<path d="M164.539 292.42L150.637 266.05L175.385 282.211L164.539 292.42Z" fill="url(#paint83_linear_657_3564)" stroke="#110151" stroke-width="1.40617" stroke-linejoin="round"/>
<path d="M355.858 112.129H353.467V107.357H351.086V112.129H346.314V114.52H351.086V119.282H353.467V114.52H358.239V112.129H355.858ZM353.467 114.52H351.086V112.129H353.467V114.52Z" fill="white"/>
<path d="M81.3421 13.2105H78.9141V8.44824H76.5705V13.2105H71.7988V15.601H76.5705V20.3632H78.9141V15.601H83.6857V13.2105H81.3421ZM78.9141 15.5916H76.5705V13.2105H78.9141V15.5916Z" fill="white"/>
<path d="M61.6647 267.061H59.2836V262.299H56.9025V267.061H52.1309V269.452H56.9025V274.214H59.2836V269.452H64.0552V267.061H61.6647ZM59.2836 269.452H56.9025V267.061H59.2836V269.452Z" fill="white"/>
<defs>
<linearGradient id="paint0_linear_657_3564" x1="132.609" y1="50.9706" x2="250.971" y2="50.9706" gradientUnits="userSpaceOnUse">
<stop stop-color="white"/>
<stop offset="1" stop-color="#E5D6FF"/>
</linearGradient>
<linearGradient id="paint1_linear_657_3564" x1="153.355" y1="25.2658" x2="245.993" y2="35.3433" gradientUnits="userSpaceOnUse">
<stop stop-color="#6ECFFF"/>
<stop offset="1" stop-color="#1159F5"/>
</linearGradient>
<linearGradient id="paint2_linear_657_3564" x1="237.389" y1="30.1887" x2="242.807" y2="30.1887" gradientUnits="userSpaceOnUse">
<stop stop-color="white"/>
<stop offset="1" stop-color="#E5D6FF"/>
</linearGradient>
<linearGradient id="paint3_linear_657_3564" x1="227.809" y1="30.1877" x2="233.218" y2="30.1877" gradientUnits="userSpaceOnUse">
<stop stop-color="white"/>
<stop offset="1" stop-color="#E5D6FF"/>
</linearGradient>
<linearGradient id="paint4_linear_657_3564" x1="218.227" y1="30.1887" x2="223.636" y2="30.1887" gradientUnits="userSpaceOnUse">
<stop stop-color="white"/>
<stop offset="1" stop-color="#E5D6FF"/>
</linearGradient>
<linearGradient id="paint5_linear_657_3564" x1="77.9015" y1="17.6077" x2="82.2607" y2="51.8807" gradientUnits="userSpaceOnUse">
<stop stop-color="#FFCEE0"/>
<stop offset="1" stop-color="#FF498A"/>
</linearGradient>
<linearGradient id="paint6_linear_657_3564" x1="72.1083" y1="48.8619" x2="87.7824" y2="82.5444" gradientUnits="userSpaceOnUse">
<stop stop-color="#FFCEE0"/>
<stop offset="1" stop-color="#FF498A"/>
</linearGradient>
<linearGradient id="paint7_linear_657_3564" x1="49.2474" y1="74.0169" x2="50.3086" y2="94.9165" gradientUnits="userSpaceOnUse">
<stop stop-color="#65C25F"/>
<stop offset="1" stop-color="#05614F"/>
</linearGradient>
<linearGradient id="paint8_linear_657_3564" x1="30.9508" y1="93.5857" x2="49.0395" y2="104.218" gradientUnits="userSpaceOnUse">
<stop stop-color="#65C25F"/>
<stop offset="1" stop-color="#05614F"/>
</linearGradient>
<linearGradient id="paint9_linear_657_3564" x1="68.0758" y1="85.9512" x2="55.0577" y2="102.463" gradientUnits="userSpaceOnUse">
<stop stop-color="#65C25F"/>
<stop offset="1" stop-color="#05614F"/>
</linearGradient>
<linearGradient id="paint10_linear_657_3564" x1="35.7112" y1="112.914" x2="55.0573" y2="121.037" gradientUnits="userSpaceOnUse">
<stop stop-color="#65C25F"/>
<stop offset="1" stop-color="#05614F"/>
</linearGradient>
<linearGradient id="paint11_linear_657_3564" x1="70.3976" y1="101.634" x2="59.457" y2="119.538" gradientUnits="userSpaceOnUse">
<stop stop-color="#65C25F"/>
<stop offset="1" stop-color="#05614F"/>
</linearGradient>
<linearGradient id="paint12_linear_657_3564" x1="42.1473" y1="130.734" x2="62.2397" y2="136.78" gradientUnits="userSpaceOnUse">
<stop stop-color="#65C25F"/>
<stop offset="1" stop-color="#05614F"/>
</linearGradient>
<linearGradient id="paint13_linear_657_3564" x1="75.6719" y1="115.617" x2="66.6693" y2="134.569" gradientUnits="userSpaceOnUse">
<stop stop-color="#65C25F"/>
<stop offset="1" stop-color="#05614F"/>
</linearGradient>
<linearGradient id="paint14_linear_657_3564" x1="1.73988" y1="123.66" x2="15.7668" y2="139.264" gradientUnits="userSpaceOnUse">
<stop stop-color="#65C25F"/>
<stop offset="1" stop-color="#05614F"/>
</linearGradient>
<linearGradient id="paint15_linear_657_3564" x1="3.6631" y1="152.366" x2="24.4137" y2="149.256" gradientUnits="userSpaceOnUse">
<stop stop-color="#65C25F"/>
<stop offset="1" stop-color="#05614F"/>
</linearGradient>
<linearGradient id="paint16_linear_657_3564" x1="27.0305" y1="124.714" x2="27.2511" y2="145.695" gradientUnits="userSpaceOnUse">
<stop stop-color="#65C25F"/>
<stop offset="1" stop-color="#05614F"/>
</linearGradient>
<linearGradient id="paint17_linear_657_3564" x1="19.5024" y1="165.015" x2="39.6464" y2="159.168" gradientUnits="userSpaceOnUse">
<stop stop-color="#65C25F"/>
<stop offset="1" stop-color="#05614F"/>
</linearGradient>
<linearGradient id="paint18_linear_657_3564" x1="39.4194" y1="133.991" x2="42.1665" y2="154.785" gradientUnits="userSpaceOnUse">
<stop stop-color="#65C25F"/>
<stop offset="1" stop-color="#05614F"/>
</linearGradient>
<linearGradient id="paint19_linear_657_3564" x1="35.5962" y1="174.237" x2="55.0159" y2="166.309" gradientUnits="userSpaceOnUse">
<stop stop-color="#65C25F"/>
<stop offset="1" stop-color="#05614F"/>
</linearGradient>
<linearGradient id="paint20_linear_657_3564" x1="52.3422" y1="141.582" x2="57.2626" y2="161.98" gradientUnits="userSpaceOnUse">
<stop stop-color="#65C25F"/>
<stop offset="1" stop-color="#05614F"/>
</linearGradient>
<linearGradient id="paint21_linear_657_3564" x1="289.183" y1="248.996" x2="268.479" y2="252.257" gradientUnits="userSpaceOnUse">
<stop stop-color="#65C25F"/>
<stop offset="1" stop-color="#05614F"/>
</linearGradient>
<linearGradient id="paint22_linear_657_3564" x1="332.523" y1="278.205" x2="405.101" y2="278.205" gradientUnits="userSpaceOnUse">
<stop stop-color="#D1C1FB"/>
<stop offset="1" stop-color="#FFECF6"/>
</linearGradient>
<linearGradient id="paint23_linear_657_3564" x1="197.331" y1="214.771" x2="328.114" y2="146.45" gradientUnits="userSpaceOnUse">
<stop stop-color="#E3D4FF"/>
<stop offset="0.99" stop-color="#AC85F2"/>
<stop offset="1" stop-color="#AC85F2"/>
</linearGradient>
<linearGradient id="paint24_linear_657_3564" x1="247.438" y1="103.28" x2="265.483" y2="249.784" gradientUnits="userSpaceOnUse">
<stop stop-color="#E3D4FF" stop-opacity="0"/>
<stop offset="0.99" stop-color="#AC85F2"/>
</linearGradient>
<linearGradient id="paint25_linear_657_3564" x1="264.81" y1="171.574" x2="275.028" y2="228.327" gradientUnits="userSpaceOnUse">
<stop stop-color="#6821FF"/>
<stop offset="1" stop-color="#2201A1"/>
</linearGradient>
<linearGradient id="paint26_linear_657_3564" x1="270.688" y1="170.609" x2="280.934" y2="227.55" gradientUnits="userSpaceOnUse">
<stop stop-color="#6821FF"/>
<stop offset="1" stop-color="#2201A1"/>
</linearGradient>
<linearGradient id="paint27_linear_657_3564" x1="276.594" y1="169.633" x2="286.877" y2="226.77" gradientUnits="userSpaceOnUse">
<stop stop-color="#6821FF"/>
<stop offset="1" stop-color="#2201A1"/>
</linearGradient>
<linearGradient id="paint28_linear_657_3564" x1="282.537" y1="168.648" x2="292.858" y2="225.973" gradientUnits="userSpaceOnUse">
<stop stop-color="#6821FF"/>
<stop offset="1" stop-color="#2201A1"/>
</linearGradient>
<linearGradient id="paint29_linear_657_3564" x1="288.517" y1="167.665" x2="298.876" y2="225.187" gradientUnits="userSpaceOnUse">
<stop stop-color="#6821FF"/>
<stop offset="1" stop-color="#2201A1"/>
</linearGradient>
<linearGradient id="paint30_linear_657_3564" x1="294.546" y1="166.661" x2="304.933" y2="224.38" gradientUnits="userSpaceOnUse">
<stop stop-color="#6821FF"/>
<stop offset="1" stop-color="#2201A1"/>
</linearGradient>
<linearGradient id="paint31_linear_657_3564" x1="300.601" y1="165.659" x2="311.026" y2="223.564" gradientUnits="userSpaceOnUse">
<stop stop-color="#6821FF"/>
<stop offset="1" stop-color="#2201A1"/>
</linearGradient>
<linearGradient id="paint32_linear_657_3564" x1="259.653" y1="172.455" x2="269.853" y2="229.124" gradientUnits="userSpaceOnUse">
<stop stop-color="#6821FF"/>
<stop offset="1" stop-color="#2201A1"/>
</linearGradient>
<linearGradient id="paint33_linear_657_3564" x1="265.501" y1="171.489" x2="275.738" y2="228.355" gradientUnits="userSpaceOnUse">
<stop stop-color="#6821FF"/>
<stop offset="1" stop-color="#2201A1"/>
</linearGradient>
<linearGradient id="paint34_linear_657_3564" x1="271.38" y1="170.514" x2="281.654" y2="227.576" gradientUnits="userSpaceOnUse">
<stop stop-color="#6821FF"/>
<stop offset="1" stop-color="#2201A1"/>
</linearGradient>
<linearGradient id="paint35_linear_657_3564" x1="277.296" y1="169.53" x2="287.608" y2="226.799" gradientUnits="userSpaceOnUse">
<stop stop-color="#6821FF"/>
<stop offset="1" stop-color="#2201A1"/>
</linearGradient>
<linearGradient id="paint36_linear_657_3564" x1="283.248" y1="168.546" x2="293.598" y2="225.993" gradientUnits="userSpaceOnUse">
<stop stop-color="#6821FF"/>
<stop offset="1" stop-color="#2201A1"/>
</linearGradient>
<linearGradient id="paint37_linear_657_3564" x1="289.248" y1="167.542" x2="299.626" y2="225.186" gradientUnits="userSpaceOnUse">
<stop stop-color="#6821FF"/>
<stop offset="1" stop-color="#2201A1"/>
</linearGradient>
<linearGradient id="paint38_linear_657_3564" x1="295.275" y1="166.54" x2="305.69" y2="224.38" gradientUnits="userSpaceOnUse">
<stop stop-color="#6821FF"/>
<stop offset="1" stop-color="#2201A1"/>
</linearGradient>
<linearGradient id="paint39_linear_657_3564" x1="254.506" y1="173.318" x2="264.696" y2="229.939" gradientUnits="userSpaceOnUse">
<stop stop-color="#6821FF"/>
<stop offset="1" stop-color="#2201A1"/>
</linearGradient>
<linearGradient id="paint40_linear_657_3564" x1="260.328" y1="172.361" x2="270.555" y2="229.161" gradientUnits="userSpaceOnUse">
<stop stop-color="#6821FF"/>
<stop offset="1" stop-color="#2201A1"/>
</linearGradient>
<linearGradient id="paint41_linear_657_3564" x1="266.186" y1="171.386" x2="276.442" y2="228.382" gradientUnits="userSpaceOnUse">
<stop stop-color="#6821FF"/>
<stop offset="1" stop-color="#2201A1"/>
</linearGradient>
<linearGradient id="paint42_linear_657_3564" x1="272.074" y1="170.402" x2="282.367" y2="227.596" gradientUnits="userSpaceOnUse">
<stop stop-color="#6821FF"/>
<stop offset="1" stop-color="#2201A1"/>
</linearGradient>
<linearGradient id="paint43_linear_657_3564" x1="277.998" y1="169.408" x2="288.328" y2="226.798" gradientUnits="userSpaceOnUse">
<stop stop-color="#6821FF"/>
<stop offset="1" stop-color="#2201A1"/>
</linearGradient>
<linearGradient id="paint44_linear_657_3564" x1="283.971" y1="168.415" x2="294.339" y2="225.993" gradientUnits="userSpaceOnUse">
<stop stop-color="#6821FF"/>
<stop offset="1" stop-color="#2201A1"/>
</linearGradient>
<linearGradient id="paint45_linear_657_3564" x1="289.97" y1="167.402" x2="300.376" y2="225.186" gradientUnits="userSpaceOnUse">
<stop stop-color="#6821FF"/>
<stop offset="1" stop-color="#2201A1"/>
</linearGradient>
<linearGradient id="paint46_linear_657_3564" x1="249.377" y1="174.179" x2="259.558" y2="230.735" gradientUnits="userSpaceOnUse">
<stop stop-color="#6821FF"/>
<stop offset="1" stop-color="#2201A1"/>
</linearGradient>
<linearGradient id="paint47_linear_657_3564" x1="255.171" y1="173.214" x2="265.389" y2="229.957" gradientUnits="userSpaceOnUse">
<stop stop-color="#6821FF"/>
<stop offset="1" stop-color="#2201A1"/>
</linearGradient>
<linearGradient id="paint48_linear_657_3564" x1="261.002" y1="172.239" x2="271.249" y2="229.17" gradientUnits="userSpaceOnUse">
<stop stop-color="#6821FF"/>
<stop offset="1" stop-color="#2201A1"/>
</linearGradient>
<linearGradient id="paint49_linear_657_3564" x1="266.863" y1="171.254" x2="277.147" y2="228.383" gradientUnits="userSpaceOnUse">
<stop stop-color="#6821FF"/>
<stop offset="1" stop-color="#2201A1"/>
</linearGradient>
<linearGradient id="paint50_linear_657_3564" x1="272.768" y1="170.271" x2="283.089" y2="227.587" gradientUnits="userSpaceOnUse">
<stop stop-color="#6821FF"/>
<stop offset="1" stop-color="#2201A1"/>
</linearGradient>
<linearGradient id="paint51_linear_657_3564" x1="278.712" y1="169.267" x2="289.061" y2="226.779" gradientUnits="userSpaceOnUse">
<stop stop-color="#6821FF"/>
<stop offset="1" stop-color="#2201A1"/>
</linearGradient>
<linearGradient id="paint52_linear_657_3564" x1="284.684" y1="168.264" x2="295.071" y2="225.974" gradientUnits="userSpaceOnUse">
<stop stop-color="#6821FF"/>
<stop offset="1" stop-color="#2201A1"/>
</linearGradient>
<linearGradient id="paint53_linear_657_3564" x1="244.259" y1="175.023" x2="254.43" y2="231.514" gradientUnits="userSpaceOnUse">
<stop stop-color="#6821FF"/>
<stop offset="1" stop-color="#2201A1"/>
</linearGradient>
<linearGradient id="paint54_linear_657_3564" x1="250.033" y1="174.058" x2="260.233" y2="230.745" gradientUnits="userSpaceOnUse">
<stop stop-color="#6821FF"/>
<stop offset="1" stop-color="#2201A1"/>
</linearGradient>
<linearGradient id="paint55_linear_657_3564" x1="255.838" y1="173.083" x2="266.075" y2="229.958" gradientUnits="userSpaceOnUse">
<stop stop-color="#6821FF"/>
<stop offset="1" stop-color="#2201A1"/>
</linearGradient>
<linearGradient id="paint56_linear_657_3564" x1="261.669" y1="172.099" x2="271.943" y2="229.17" gradientUnits="userSpaceOnUse">
<stop stop-color="#6821FF"/>
<stop offset="1" stop-color="#2201A1"/>
</linearGradient>
<linearGradient id="paint57_linear_657_3564" x1="267.545" y1="171.105" x2="277.848" y2="228.374" gradientUnits="userSpaceOnUse">
<stop stop-color="#6821FF"/>
<stop offset="1" stop-color="#2201A1"/>
</linearGradient>
<linearGradient id="paint58_linear_657_3564" x1="273.462" y1="170.102" x2="283.802" y2="227.567" gradientUnits="userSpaceOnUse">
<stop stop-color="#6821FF"/>
<stop offset="1" stop-color="#2201A1"/>
</linearGradient>
<linearGradient id="paint59_linear_657_3564" x1="279.404" y1="169.099" x2="289.781" y2="226.752" gradientUnits="userSpaceOnUse">
<stop stop-color="#6821FF"/>
<stop offset="1" stop-color="#2201A1"/>
</linearGradient>
<linearGradient id="paint60_linear_657_3564" x1="101.759" y1="69.505" x2="201.729" y2="203.382" gradientUnits="userSpaceOnUse">
<stop stop-color="white"/>
<stop offset="0.99" stop-color="#C6A6FF"/>
</linearGradient>
<linearGradient id="paint61_linear_657_3564" x1="86.7775" y1="255.044" x2="218.095" y2="183.732" gradientUnits="userSpaceOnUse">
<stop stop-color="#E3D4FF"/>
<stop offset="0.99" stop-color="#9D71EB"/>
</linearGradient>
<linearGradient id="paint62_linear_657_3564" x1="70.8518" y1="239.604" x2="190.882" y2="174.432" gradientUnits="userSpaceOnUse">
<stop stop-color="#E3D4FF"/>
<stop offset="0.99" stop-color="#9D71EB"/>
</linearGradient>
<linearGradient id="paint63_linear_657_3564" x1="63.3516" y1="129.614" x2="222.417" y2="129.614" gradientUnits="userSpaceOnUse">
<stop stop-color="#E3D4FF"/>
<stop offset="0.99" stop-color="#9D71EB"/>
</linearGradient>
<linearGradient id="paint64_linear_657_3564" x1="240.896" y1="140.019" x2="273.322" y2="179.654" gradientUnits="userSpaceOnUse">
<stop stop-color="#E3D4FF"/>
<stop offset="0.99" stop-color="#AC85F2"/>
<stop offset="1" stop-color="#AC85F2"/>
</linearGradient>
<linearGradient id="paint65_linear_657_3564" x1="190.433" y1="106.384" x2="258.566" y2="153.875" gradientUnits="userSpaceOnUse">
<stop stop-color="#E3D4FF"/>
<stop offset="0.99" stop-color="#AC85F2"/>
<stop offset="1" stop-color="#AC85F2"/>
</linearGradient>
<linearGradient id="paint66_linear_657_3564" x1="120.029" y1="187.932" x2="85.0346" y2="136.682" gradientUnits="userSpaceOnUse">
<stop stop-color="white"/>
<stop offset="1" stop-color="white" stop-opacity="0.3"/>
</linearGradient>
<linearGradient id="paint67_linear_657_3564" x1="203.079" y1="173.336" x2="154.022" y2="87.091" gradientUnits="userSpaceOnUse">
<stop stop-color="white"/>
<stop offset="1" stop-color="white" stop-opacity="0.3"/>
</linearGradient>
<linearGradient id="paint68_linear_657_3564" x1="134.362" y1="249.222" x2="138.036" y2="209.521" gradientUnits="userSpaceOnUse">
<stop stop-color="white"/>
<stop offset="0.99" stop-color="#C6A6FF"/>
</linearGradient>
<linearGradient id="paint69_linear_657_3564" x1="207.831" y1="233.483" x2="331.396" y2="168.93" gradientUnits="userSpaceOnUse">
<stop stop-color="#E3D4FF"/>
<stop offset="0.99" stop-color="#AC85F2"/>
<stop offset="1" stop-color="#AC85F2"/>
</linearGradient>
<linearGradient id="paint70_linear_657_3564" x1="200.209" y1="105.034" x2="218.724" y2="255.353" gradientUnits="userSpaceOnUse">
<stop stop-color="#E3D4FF" stop-opacity="0"/>
<stop offset="0.99" stop-color="#AC85F2"/>
</linearGradient>
<linearGradient id="paint71_linear_657_3564" x1="71.459" y1="246.278" x2="271.248" y2="246.278" gradientUnits="userSpaceOnUse">
<stop stop-color="#E3D4FF"/>
<stop offset="0.99" stop-color="#9D71EB"/>
</linearGradient>
<linearGradient id="paint72_linear_657_3564" x1="212.569" y1="187.895" x2="237.955" y2="244.61" gradientUnits="userSpaceOnUse">
<stop stop-color="#FDBE31"/>
<stop offset="1" stop-color="#F26C2F"/>
</linearGradient>
<linearGradient id="paint73_linear_657_3564" x1="279.565" y1="100.834" x2="275.206" y2="135.107" gradientUnits="userSpaceOnUse">
<stop stop-color="#FFE6DA"/>
<stop offset="1" stop-color="#F4B188"/>
</linearGradient>
<linearGradient id="paint74_linear_657_3564" x1="285.358" y1="132.089" x2="269.694" y2="165.771" gradientUnits="userSpaceOnUse">
<stop stop-color="#FFE6DA"/>
<stop offset="1" stop-color="#FFC5A1"/>
</linearGradient>
<linearGradient id="paint75_linear_657_3564" x1="308.278" y1="188.785" x2="328.273" y2="222.842" gradientUnits="userSpaceOnUse">
<stop stop-color="white"/>
<stop offset="1" stop-color="#E5D6FF"/>
</linearGradient>
<linearGradient id="paint76_linear_657_3564" x1="283.604" y1="13.4732" x2="317.633" y2="13.4732" gradientUnits="userSpaceOnUse">
<stop stop-color="#E3D4FF"/>
<stop offset="0.99" stop-color="#9D71EB"/>
</linearGradient>
<linearGradient id="paint77_linear_657_3564" x1="283.604" y1="13.4732" x2="317.633" y2="13.4732" gradientUnits="userSpaceOnUse">
<stop stop-color="#E3D4FF"/>
<stop offset="0.99" stop-color="#9D71EB"/>
</linearGradient>
<linearGradient id="paint78_linear_657_3564" x1="273.406" y1="5.71118" x2="317.635" y2="5.71118" gradientUnits="userSpaceOnUse">
<stop stop-color="#E3D4FF"/>
<stop offset="0.99" stop-color="#9D71EB"/>
</linearGradient>
<linearGradient id="paint79_linear_657_3564" x1="292.885" y1="12.8826" x2="317.633" y2="12.8826" gradientUnits="userSpaceOnUse">
<stop stop-color="#E3D4FF"/>
<stop offset="0.99" stop-color="#9D71EB"/>
</linearGradient>
<linearGradient id="paint80_linear_657_3564" x1="184.657" y1="279.821" x2="150.637" y2="279.821" gradientUnits="userSpaceOnUse">
<stop stop-color="#E3D4FF"/>
<stop offset="0.99" stop-color="#9D71EB"/>
</linearGradient>
<linearGradient id="paint81_linear_657_3564" x1="184.657" y1="279.821" x2="150.637" y2="279.821" gradientUnits="userSpaceOnUse">
<stop stop-color="#E3D4FF"/>
<stop offset="0.99" stop-color="#9D71EB"/>
</linearGradient>
<linearGradient id="paint82_linear_657_3564" x1="194.865" y1="272.059" x2="150.637" y2="272.059" gradientUnits="userSpaceOnUse">
<stop stop-color="#E3D4FF"/>
<stop offset="0.99" stop-color="#9D71EB"/>
</linearGradient>
<linearGradient id="paint83_linear_657_3564" x1="175.385" y1="279.24" x2="150.637" y2="279.24" gradientUnits="userSpaceOnUse">
<stop stop-color="#E3D4FF"/>
<stop offset="0.99" stop-color="#9D71EB"/>
</linearGradient>
</defs>
</svg>
