<svg width="74" height="113" viewBox="0 0 74 113" fill="none" xmlns="http://www.w3.org/2000/svg">
<g clip-path="url(#clip0_360_79855)">
<path d="M5.03722 3.76327C-0.724106 7.82512 0.368465 105.416 2.21091 108.28C4.73322 112.22 57.1932 113.356 60.4027 111.166C63.6123 108.977 72.8466 89.8416 73.134 85.3282C73.4214 80.8148 73.4859 6.17753 70.5657 2.83443C67.568 -0.608187 9.61939 0.532594 5.03722 3.76327Z" fill="#69CDE0"/>
<path d="M10.6089 11.6363C8.78857 12.7421 8.97466 51.5729 10.6089 54.3059C12.2432 57.039 64.272 58.9833 65.5728 56.3332C66.8735 53.683 66.6174 12.3477 64.821 10.7517C61.991 8.2416 15.9962 8.35586 10.6089 11.6363Z" fill="#3A6B58"/>
<path d="M17.5035 17.5909C15.8269 18.9086 16.0112 45.8892 16.7113 47.8723C17.4114 49.8553 56.6297 51.9544 58.4058 49.9916C60.182 48.0289 59.8945 18.2562 58.4058 17.1209C56.9171 15.9857 19.7145 15.8493 17.5035 17.5909Z" fill="#FCBB41"/>
<path d="M15.6504 63.5005C14.9797 63.9263 15.3832 70.1867 14.9429 71.0382C14.5025 71.8896 8.91069 72.4517 8.35427 73.2939C7.79785 74.1362 8.43165 79.6539 8.79646 80.2971C9.16126 80.9403 15.0608 79.3259 15.2966 80.2971C15.5324 81.2683 15.5527 87.0478 16.2012 87.6173C16.8498 88.1868 22.2997 88.5498 22.7696 87.6173C23.2394 86.6848 22.6903 80.7505 23.0791 79.8769C23.4679 79.0034 28.8386 79.9322 29.2513 78.8725C29.7451 77.6046 29.8888 73.0912 29.2513 72.4462C28.6138 71.8012 23.9708 71.5044 23.4771 71.0308C22.9833 70.5572 23.4642 63.8304 22.7696 63.202C22.075 62.5735 16.6047 62.8905 15.6504 63.4932V63.5005Z" fill="#FCBB41"/>
<path d="M58.7087 64.5991C59.9313 64.5991 61.1264 64.9618 62.143 65.6412C63.1595 66.3206 63.9518 67.2862 64.4196 68.416C64.8875 69.5458 65.0099 70.7891 64.7714 71.9885C64.5329 73.1879 63.9441 74.2896 63.0797 75.1543C62.2152 76.019 61.1138 76.6079 59.9147 76.8465C58.7156 77.085 57.4727 76.9626 56.3432 76.4946C55.2137 76.0266 54.2483 75.2341 53.5691 74.2173C52.8899 73.2005 52.5273 72.0051 52.5273 70.7822C52.5283 69.1426 53.1799 67.5705 54.3389 66.4112C55.4979 65.2518 57.0696 64.6001 58.7087 64.5991Z" fill="#FCBB41"/>
<path d="M49.3788 79.1416C50.6013 79.1412 51.7964 79.5035 52.8131 80.1825C53.8298 80.8615 54.6224 81.8268 55.0906 82.9564C55.5589 84.0859 55.6818 85.329 55.4437 86.5284C55.2057 87.7279 54.6175 88.8298 53.7535 89.6948C52.8894 90.5599 51.7884 91.1492 50.5895 91.3884C49.3906 91.6275 48.1478 91.5057 47.0181 91.0383C45.8884 90.571 44.9226 89.779 44.2429 88.7627C43.5631 87.7463 43.1999 86.5512 43.1992 85.3284C43.1992 83.6885 43.8501 82.1157 45.0088 80.9556C46.1676 79.7955 47.7394 79.1431 49.3788 79.1416Z" fill="#FCBB41"/>
<path d="M73.7903 43.6265C73.1712 4.69431 71.6309 2.93061 71.1187 2.35009C70.7373 1.91515 69.8474 0.894163 59.7416 0.337595C54.03 0.0224514 46.452 -0.0752245 38.3692 0.0593103C27.2095 0.24729 7.52116 1.1061 4.60641 3.16098C3.53963 3.9129 2.18543 6.66257 1.16472 21.3545C0.387207 32.6591 0.121894 46.6876 0.0389842 56.4644C-0.0641928 68.403 0.0389842 81.1119 0.330091 91.3329C0.783332 107.422 1.38765 108.367 1.58664 108.677C1.91644 109.191 2.7308 109.869 6.15406 110.569C13.1111 111.99 26.7268 112.722 37.1495 112.932C38.2974 112.954 40.9229 113 44.0347 113C50.5975 113 59.3123 112.799 60.8157 111.777C63.1593 110.177 67.3104 101.932 68.5245 99.4418C70.8847 94.6115 73.7018 88.0266 73.8676 85.3709C74.0095 83.1778 74.1071 63.4952 73.7903 43.6265ZM72.3992 85.277C72.1173 89.7129 62.8277 108.614 59.9848 110.558C59.0452 111.198 50.7339 111.731 37.1809 111.458C26.8208 111.25 13.3083 110.525 6.44885 109.125C3.46041 108.513 2.92057 108 2.8395 107.897C2.04725 106.028 1.29 81.8049 1.51663 56.0258C1.64191 42.1337 2.0362 30.1214 2.65526 21.2882C3.68518 6.70127 5.06333 4.64824 5.46314 4.36627C7.34797 3.03566 21.4924 1.81932 38.3619 1.53366C46.3931 1.39913 53.9416 1.49496 59.6145 1.80642C68.8488 2.31139 69.923 3.21811 70.0132 3.31763C70.413 3.83366 71.7599 8.28068 72.3218 43.82C72.6313 63.5818 72.5374 83.117 72.4084 85.277H72.3992ZM66.6158 18.1294C66.1717 10.964 65.6319 10.4867 65.3113 10.2047C64.9907 9.92274 64.1027 9.13396 55.9591 8.64005C51.2074 8.35071 45.0665 8.22907 38.6677 8.29173C26.8871 8.40415 13.2291 9.18003 10.2259 11.0064C9.815 11.257 9.24937 11.5998 8.87535 18.345C8.67084 22.0309 8.56398 27.016 8.57688 32.3624C8.57688 34.4154 8.65979 52.4836 9.97714 54.686C10.2793 55.1928 11.0826 56.5289 29.3118 57.6457C36.6815 58.0917 44.499 58.3331 50.9734 58.3331C53.6634 58.3331 56.1212 58.2926 58.2161 58.206C65.6264 57.9019 65.9912 57.1592 66.2344 56.6653C67.1095 54.8887 67.1869 41.0445 67.0966 33.1438C67.0285 27.392 66.859 22.0585 66.6158 18.1294ZM64.9447 55.9355C64.6425 56.1032 63.1391 56.6284 55.9738 56.8035C51.1024 56.9215 44.7349 56.8477 38.0321 56.5952C31.3292 56.3428 24.9691 55.9355 20.1235 55.4508C12.7537 54.7136 11.44 54.0538 11.2208 53.8898C10.681 52.808 10.1006 44.7949 10.0527 33.024C10.0029 20.8606 10.5409 13.3045 11.0844 12.2135C13.5073 10.8866 24.5177 9.90431 38.6456 9.76793C53.0719 9.62049 63.1151 10.4369 64.2961 11.2828C64.8489 12.3149 65.4863 20.2635 65.6264 33.6377C65.7572 45.9633 65.3776 54.6638 64.9447 55.9355ZM58.8646 16.5352C58.5938 16.3288 58.1405 15.9823 51.738 15.7335C48.0365 15.5898 43.1154 15.5198 38.2347 15.5492C33.0298 15.5714 28.1842 15.6948 24.5896 15.8976C18.0213 16.2661 17.3727 16.773 17.0595 17.0181C16.6726 17.3221 15.6408 18.1238 15.4861 32.484C15.4271 38.1787 15.5524 46.7963 16.024 48.1269C16.1991 48.6172 16.6984 48.9821 18.7398 49.3912C23.3238 50.3127 33.3117 51.0314 41.1753 51.3373C44.3074 51.459 47.189 51.5216 49.6597 51.5216C50.7892 51.5216 51.8357 51.5087 52.7919 51.4811C57.7923 51.3447 58.603 50.9006 58.9696 50.4951C59.2644 50.1726 60.1562 49.1866 60.357 38.0479C60.4675 31.8925 60.2906 25.0017 59.9166 20.9085C59.5795 17.359 59.2239 16.8153 58.8572 16.5352H58.8646ZM57.8881 49.4741C56.8877 50.0362 49.4792 50.3016 37.5475 49.6897C26.2736 49.1147 18.5703 48.1343 17.3764 47.4893C17.1203 46.2803 16.8918 40.0641 16.9563 32.8987C17.0521 22.5045 17.6472 18.7689 18.001 18.1552C18.9572 17.6447 25.5642 17.0789 38.0118 17.0181C48.5487 16.9628 56.6205 17.3277 57.9286 17.7092C58.3874 18.7947 58.8793 24.9888 58.907 33.5732C58.9291 42.8598 58.4058 48.6651 57.8807 49.4741H57.8881ZM26.117 70.902C25.4445 70.7933 24.4717 70.6348 24.0626 70.5076C23.976 69.9916 23.9576 68.6462 23.9429 67.6345C23.895 64.4296 23.825 63.1709 23.2649 62.6585C23.0806 62.4945 22.5279 61.9951 19.2723 62.1536C18.5353 62.1886 16.0922 62.3379 15.2557 62.8742C14.6312 63.2704 14.5317 64.1974 14.4616 67.6658C14.4395 68.7458 14.4101 70.1999 14.3014 70.6385C13.9108 70.8891 12.4589 71.2282 11.4695 71.4549C9.30464 71.9562 8.15312 72.2474 7.73857 72.8776C7.5967 73.0951 7.21715 73.6701 7.49536 76.9321C7.523 77.2417 7.7662 79.973 8.15312 80.6641C8.56582 81.4013 9.62707 81.252 11.7717 80.9682C12.6505 80.8521 14.0563 80.6641 14.6219 80.7304C14.6754 81.1709 14.7251 81.9928 14.7712 82.7374C14.9923 86.3901 15.1599 87.6875 15.7145 88.1759C16.2691 88.6643 18.3142 88.926 20.0387 88.926C20.6958 88.9363 21.3524 88.8882 22.0009 88.7822C22.4818 88.6882 23.1525 88.5003 23.4288 87.9548C23.7236 87.3669 23.7328 86.0805 23.6868 83.4819C23.6684 82.413 23.6407 80.8484 23.7236 80.3121C24.1345 80.1978 25.2142 80.1923 25.953 80.1886C27.9576 80.1775 29.5402 80.1683 29.9382 79.1473C30.4172 77.9162 30.7747 72.944 29.7761 71.9341C29.3118 71.4678 28.2542 71.2522 26.117 70.902ZM28.5987 78.5097C28.1971 78.694 26.7987 78.705 25.9456 78.7106C24.0424 78.7216 22.784 78.7271 22.4063 79.5786C22.1778 80.0909 22.1723 81.169 22.222 83.5059C22.246 84.796 22.2791 86.696 22.1428 87.2194C21.3579 87.6359 17.592 87.4553 16.7315 87.0738C16.4828 86.462 16.3336 83.9943 16.2507 82.6508C16.1678 81.3073 16.118 80.5185 16.0204 80.1278C15.7293 78.9594 13.9937 79.1897 11.5856 79.5104C10.8532 79.6244 10.1151 79.6976 9.37466 79.7297C9.07065 78.5686 8.6819 74.5455 8.96563 73.7254C9.33412 73.4748 10.8081 73.132 11.803 72.9016C14.2313 72.3395 15.2539 72.0446 15.5984 71.3793C15.849 70.8965 15.8914 69.94 15.9356 67.7064C15.9596 66.5379 15.9983 64.6305 16.1659 64.0665C17.1608 63.6574 21.3248 63.4418 22.246 63.7569C22.4302 64.3411 22.4615 66.3997 22.48 67.6584C22.5205 70.4818 22.5721 71.1821 22.9774 71.571C23.3459 71.9175 24.0239 72.0557 25.8903 72.3598C26.8116 72.5109 28.3371 72.7597 28.7259 72.9735C29.0428 73.6572 29.0225 77.2454 28.5987 78.5097ZM58.7098 63.8564C57.3415 63.8564 56.0039 64.2623 54.8662 65.0227C53.7285 65.7831 52.8417 66.8639 52.3181 68.1284C51.7944 69.3929 51.6574 70.7844 51.9244 72.1268C52.1913 73.4692 52.8502 74.7022 53.8178 75.67C54.7853 76.6379 56.0181 77.297 57.3601 77.564C58.7022 77.831 60.0932 77.6939 61.3574 77.1702C62.6216 76.6464 63.7021 75.7594 64.4623 74.6214C65.2225 73.4833 65.6282 72.1454 65.6282 70.7767C65.6243 68.943 64.894 67.1857 63.5972 65.8896C62.3005 64.5935 60.543 63.8644 58.7098 63.862V63.8564ZM58.7098 76.2226C57.633 76.2226 56.5804 75.9032 55.6851 75.3048C54.7897 74.7064 54.0919 73.8559 53.6798 72.8607C53.2678 71.8656 53.1599 70.7707 53.37 69.7142C53.5801 68.6579 54.0986 67.6875 54.86 66.9259C55.6215 66.1642 56.5916 65.6456 57.6477 65.4354C58.7038 65.2253 59.7985 65.3332 60.7933 65.7453C61.7882 66.1575 62.6385 66.8555 63.2367 67.7511C63.8349 68.6467 64.1543 69.6996 64.1543 70.7767C64.1538 72.2214 63.5802 73.6069 62.5594 74.6289C61.5387 75.651 60.1541 76.2262 58.7098 76.2281V76.2226ZM49.3778 78.4046C48.0098 78.405 46.6725 78.8111 45.5351 79.5715C44.3977 80.332 43.5112 81.4127 42.9878 82.677C42.4643 83.9414 42.3273 85.3326 42.5942 86.6747C42.861 88.0169 43.5197 89.2498 44.487 90.2176C45.4543 91.1854 46.6867 91.8446 48.0284 92.1118C49.3701 92.3791 50.761 92.2425 52.0251 91.7192C53.2892 91.196 54.3699 90.3096 55.1304 89.1721C55.891 88.0345 56.2973 86.697 56.2981 85.3286C56.2971 83.4928 55.5677 81.7326 54.2702 80.4343C52.9727 79.1361 51.2131 78.4061 49.3778 78.4046ZM49.3778 90.7689C48.3009 90.7686 47.2482 90.4487 46.353 89.8499C45.4578 89.251 44.7603 88.4 44.3486 87.4045C43.937 86.4091 43.8298 85.3139 44.0405 84.2574C44.2512 83.201 44.7705 82.2308 45.5325 81.4696C46.2945 80.7084 47.2652 80.1903 48.3216 79.981C49.378 79.7716 50.4728 79.8804 51.4674 80.2934C52.4621 80.7065 53.3119 81.4054 53.9094 82.3017C54.5069 83.1979 54.8252 84.2513 54.8241 85.3286C54.8212 86.7718 54.2462 88.155 53.2253 89.1749C52.2043 90.1947 50.8207 90.768 49.3778 90.7689ZM14.8412 96.694L11.4806 102.96C11.4175 103.078 11.3237 103.176 11.2092 103.244C11.0946 103.313 10.9636 103.349 10.8302 103.349C10.7085 103.349 10.5887 103.319 10.482 103.26C10.3101 103.168 10.182 103.011 10.1257 102.824C10.0694 102.637 10.0895 102.435 10.1816 102.263L13.5423 95.9974C13.6452 95.8472 13.8 95.7404 13.9768 95.6976C14.1537 95.6547 14.3402 95.6789 14.5004 95.7654C14.6605 95.8519 14.783 95.9946 14.8442 96.1661C14.9055 96.3375 14.9011 96.5256 14.832 96.694H14.8412ZM21.2363 96.694L17.872 102.967C17.809 103.085 17.7152 103.183 17.6006 103.252C17.4861 103.32 17.3551 103.356 17.2216 103.356C17.1 103.357 16.9802 103.326 16.8734 103.268C16.7032 103.174 16.577 103.016 16.5225 102.829C16.468 102.642 16.4895 102.442 16.5823 102.271L19.9429 96.0047C20.0366 95.8349 20.1934 95.7088 20.3794 95.6538C20.5654 95.5988 20.7656 95.6194 20.9365 95.7111C21.1074 95.8028 21.2353 95.9581 21.2925 96.1435C21.3496 96.3289 21.3314 96.5293 21.2419 96.7014L21.2363 96.694ZM27.6315 96.694L24.2708 102.96C24.2078 103.078 24.114 103.176 23.9994 103.244C23.8849 103.313 23.7539 103.349 23.6204 103.349C23.4988 103.349 23.379 103.319 23.2722 103.26C23.1004 103.168 22.9723 103.011 22.916 102.824C22.8597 102.637 22.8798 102.435 22.9719 102.263L26.3325 95.9974C26.4262 95.8275 26.583 95.7014 26.769 95.6464C26.955 95.5915 27.1552 95.6121 27.3261 95.7037C27.497 95.7954 27.6249 95.9508 27.6821 96.1361C27.7392 96.3215 27.7211 96.5219 27.6315 96.694Z" fill="black"/>
</g>
<defs>
<clipPath id="clip0_360_79855">
<rect width="74" height="113" fill="white"/>
</clipPath>
</defs>
</svg>
