<svg width="64" height="11" viewBox="0 0 64 11" fill="none" xmlns="http://www.w3.org/2000/svg">
<path d="M8.68713 9.39924C7.04437 9.47601 5.23421 8.22733 4.70532 6.48067C4.06113 4.35321 5.48577 2.08446 7.51288 1.48204C7.57153 1.4637 7.63411 1.46187 7.69373 1.47677C7.75335 1.49166 7.80771 1.5227 7.85084 1.56647C7.97432 1.65679 7.90967 1.75274 7.84395 1.88533C7.14124 3.30317 7.28826 5.16281 8.5911 6.12856C9.62776 6.89699 10.757 7.07702 11.9787 6.66865C12.1592 6.60825 12.3609 6.52899 12.4954 6.66787C12.6227 6.79935 12.551 6.96239 12.4489 7.14503C11.715 8.45848 10.2309 9.46086 8.68713 9.39924Z" fill="#E6EF4A"/>
<path d="M17.2451 4.01633C17.7312 3.63021 18.1239 3.1694 18.7922 3.1618C19.2194 3.15694 19.5765 3.24212 19.8609 3.57045C20.0703 3.81203 20.2705 3.83145 20.5421 3.61209C21.0402 3.20982 21.6155 2.98339 22.2458 3.27869C22.9872 3.6261 23.3296 4.25921 23.3635 5.05673C23.3866 5.59999 23.3626 6.14059 23.5739 6.66647C23.6472 6.84889 23.7003 7.00393 23.8865 7.07102C24.1654 7.17158 24.0583 7.39305 24.057 7.57833C24.0551 7.85208 23.8364 7.75836 23.6919 7.77533C22.9572 7.86161 22.494 7.46751 22.4351 6.67042C22.3962 6.14267 22.4253 5.60996 22.3866 5.08219C22.3793 4.89479 22.3214 4.71288 22.2189 4.55582C22.1164 4.39876 21.9733 4.27245 21.8047 4.19033C21.5053 4.04255 21.2188 4.15072 21.0029 4.3706C20.8754 4.49438 20.7739 4.64235 20.7043 4.80584C20.6347 4.96934 20.5984 5.14507 20.5976 5.32276C20.5962 5.96186 20.5969 6.60099 20.5896 7.24002C20.5866 7.50403 20.5638 7.77271 20.2055 7.79111C19.928 7.80535 19.7519 7.78725 19.6085 7.42516C19.3646 6.80938 19.5169 6.20168 19.4389 5.59769C19.4011 5.30441 19.471 5.01705 19.2846 4.71277C19.0911 4.39685 18.8803 4.27747 18.5469 4.28856C18.3845 4.28844 18.2263 4.33953 18.0947 4.43456C17.9631 4.52959 17.8648 4.66372 17.8138 4.81785C17.4866 5.62427 17.4392 6.47687 17.4033 7.32995C17.3911 7.6217 17.3079 7.8088 16.9657 7.81826C16.5954 7.8285 16.381 7.74411 16.3987 7.30929C16.433 6.46987 16.4215 5.62871 16.4447 4.78871C16.4569 4.34868 16.2962 4.09473 15.8232 4.09915C15.6081 4.10116 15.4138 4.02602 15.342 3.81696C15.2635 3.58831 15.4951 3.5045 15.6247 3.40616C16.2657 2.91974 16.7484 3.09723 17.2451 4.01633Z" fill="#E6EF4A"/>
<path d="M48.3807 3.15442C48.3009 3.37335 48.2836 3.62647 48.4639 3.76142C48.6252 3.88221 48.8068 3.66897 48.9225 3.56862C49.3597 3.18945 49.8753 3.0165 50.3785 3.25137C50.9778 3.53113 51.228 4.12087 51.2752 4.76962C51.3163 5.3333 51.3325 5.89882 51.3558 6.46369C51.3681 6.76032 51.4583 7.00431 51.7771 7.09005C52.0085 7.15229 52.397 7.11199 52.2413 7.49789C52.1139 7.81377 51.7882 7.97193 51.4056 7.87088C50.8186 7.71587 50.5567 7.36128 50.3708 6.75354C50.1595 6.06287 50.2396 5.39747 50.2032 4.72234C50.1875 4.43205 50.0966 4.21564 49.8407 4.12882C49.6172 4.05298 49.4206 4.12859 49.2129 4.3163C48.5756 4.89231 48.466 5.65153 48.373 6.42402C48.3552 6.67906 48.3519 6.9349 48.363 7.19032C48.3606 7.58221 48.1999 7.80868 47.7684 7.78593C47.3626 7.76454 47.2123 7.5439 47.2129 7.1637C47.2161 5.22841 47.2165 3.29311 47.2142 1.35781C47.2143 0.913811 47.5793 0.430467 47.932 0.449779C48.4102 0.475961 48.3138 0.898475 48.4004 1.19035C48.3487 1.84381 48.3421 2.50005 48.3807 3.15442Z" fill="#E6EF4A"/>
<path d="M39.6194 5.84865C39.6194 5.5568 39.6256 5.26479 39.6179 4.97314C39.6057 4.75808 39.5178 4.55428 39.3698 4.39779C39.2218 4.24129 39.0232 4.14218 38.8091 4.11799C38.4775 4.10082 37.93 4.53771 37.831 4.84523C37.5821 5.61919 37.5794 6.41357 37.5993 7.20985C37.6065 7.49782 37.5774 7.74475 37.2836 7.88347C37.0464 7.99543 36.8435 7.80258 36.7121 7.71454C36.5073 7.57727 36.3255 7.28224 36.4532 6.99954C36.7069 6.43794 36.5702 5.85123 36.6328 5.27903C36.663 5.04656 36.6352 4.81026 36.5521 4.59109C36.4689 4.37193 36.3329 4.17669 36.1562 4.02272C35.9454 3.8269 35.8739 3.60391 36.0207 3.41207C36.1628 3.22643 36.4145 3.05027 36.6827 3.24434C37.2136 3.62857 37.5931 3.6348 38.2786 3.2943C39.3007 2.7866 40.3134 3.30064 40.5615 4.61572C40.6545 5.10869 40.5807 5.63315 40.5791 6.14324C40.5718 6.31482 40.6085 6.48542 40.6857 6.63882C40.7629 6.79223 40.878 6.92335 41.0201 7.01973C41.1904 7.13602 41.3335 7.25109 41.2317 7.44153C41.1948 7.53106 41.1351 7.60932 41.0584 7.66848C40.9818 7.72764 40.891 7.76561 40.795 7.77861C40.1002 7.85495 39.6516 7.49159 39.619 6.77897C39.6048 6.46947 39.6166 6.15879 39.6166 5.84865H39.6194Z" fill="#E6EF4A"/>
<path d="M55.2479 7.79611C54.0304 7.84857 52.9966 6.99826 52.948 5.91907C52.8727 4.24844 53.7257 3.19366 55.0444 3.16302C56.449 3.1304 57.5838 3.97305 57.5295 5.19274C57.4692 6.54694 57.0813 7.7913 55.2479 7.79611ZM56.3979 5.41575C56.4389 4.2765 55.6727 3.79432 54.8555 4.08534C54.0409 4.37542 53.725 6.11985 54.3938 6.67335C54.6321 6.87055 54.8954 7.0583 55.2805 6.94528C56.0581 6.71705 56.3875 6.30003 56.3979 5.41575Z" fill="#E6EF4A"/>
<path d="M35.0758 5.41801C35.0645 7.00888 34.2229 7.80944 32.6253 7.8139C31.2204 7.81782 30.5738 6.5991 30.4913 5.5559C30.3836 4.19439 31.5414 3.15917 33.0009 3.17001C34.2472 3.17926 35.0853 4.0872 35.0758 5.41801ZM31.6068 5.49963C31.588 6.24614 31.8982 6.70627 32.5777 6.93959C32.9755 7.07618 33.5264 6.79953 33.861 6.2952C34.3427 5.56899 33.8524 4.19919 33.0551 4.04395C32.239 3.88503 31.6323 4.4949 31.6068 5.49963Z" fill="#E6EF4A"/>
<path d="M27.1515 7.80155C25.905 7.93956 24.9836 6.76062 24.9186 5.7623C24.8257 4.33628 25.7437 3.16676 26.9569 3.16407C28.4729 3.16071 29.5167 3.97832 29.5301 5.26262C29.5434 6.53791 28.6246 7.93571 27.1515 7.80155ZM28.3694 5.51482C28.3854 4.91552 28.308 4.32768 27.6737 4.07534C26.7532 3.70912 25.8313 4.59506 26.004 5.67664C26.0693 6.0858 26.0771 6.52079 26.5304 6.80509C27.271 7.26961 28.5954 6.62963 28.3694 5.51482Z" fill="#E6EF4A"/>
<path d="M44.0218 7.80159C43.4251 7.85981 42.8297 7.67884 42.3663 7.29842C42.0999 7.08105 41.9313 6.76476 42.1357 6.49385C42.3535 6.20522 42.6719 6.33443 42.9402 6.55544C43.4421 6.96877 43.9801 7.23411 44.643 6.88499C44.9799 6.70759 45.0263 6.4301 44.7322 6.17689C44.6467 6.09376 44.5456 6.0283 44.4348 5.98425C44.324 5.9402 44.2055 5.91842 44.0863 5.92017C43.519 5.94725 43.0299 5.65676 42.6087 5.38127C41.9767 4.96783 41.8754 3.94931 42.6633 3.50619C43.5101 3.03001 44.3854 3.01364 45.2648 3.40588C45.6395 3.57299 45.657 3.92633 45.5615 4.24694C45.5051 4.4363 45.3461 4.60332 45.0619 4.41402C44.8545 4.26455 44.6195 4.15788 44.3705 4.10024C44.1214 4.0426 43.8634 4.03514 43.6115 4.07829C43.4029 4.11718 43.1836 4.21168 43.1445 4.41003C43.1025 4.62354 43.3311 4.71026 43.499 4.81703C43.906 5.07582 44.396 5.05506 44.832 5.22636C45.0157 5.28217 45.1902 5.36474 45.3499 5.47139C45.977 5.9629 46.0824 6.23355 45.8887 6.83042C45.7447 7.27425 45.0805 7.74971 44.5723 7.77348C44.3888 7.78207 44.2053 7.79218 44.0218 7.80159Z" fill="#E6EF4A"/>
<path d="M58.9223 4.12119C58.0993 3.70741 58.1116 3.71187 58.8825 3.12281C59.1241 2.93826 59.3724 2.68727 59.3506 2.32666C59.3371 2.10431 59.4954 1.95941 59.5578 1.77275C59.6377 1.5338 59.8438 1.59093 60.0187 1.5942C60.0599 1.59016 60.1016 1.59535 60.1406 1.60939C60.1796 1.62343 60.215 1.64597 60.2442 1.67538C60.2734 1.70479 60.2957 1.74034 60.3095 1.77943C60.3233 1.81853 60.3282 1.86021 60.3239 1.90144C60.3274 2.04713 60.3526 2.19272 60.3502 2.33806C60.3368 3.16532 60.3351 3.17519 61.1961 3.16605C61.4902 3.16292 61.7996 3.19159 61.8323 3.50287C61.8594 3.76154 61.6016 3.92237 61.3223 3.96416C61.233 3.97753 61.1484 4.02208 61.0591 4.03632C60.1517 4.18091 60.1365 4.17938 60.1003 5.07676C60.0822 5.52533 60.0278 5.97463 60.2047 6.42468C60.3871 6.88864 60.6903 7.03178 61.1435 6.92932C61.4479 6.86048 61.8164 6.81841 61.8554 7.17969C61.896 7.55516 61.5874 7.74677 61.1778 7.78064C59.9524 7.88197 59.5187 7.70789 59.1284 6.68077C59.1319 5.93865 59.1354 5.19657 59.1389 4.4545C59.1397 4.29612 59.1897 4.10696 58.9223 4.12119Z" fill="#E6EF4A"/>
<path d="M9.82106 5.12554C9.80572 4.91124 9.80751 4.69605 9.8264 4.48203C9.9247 3.9181 9.82138 3.44277 9.32411 3.09271C9.28046 3.06276 9.24375 3.02377 9.21647 2.9784C9.1892 2.93303 9.17199 2.88232 9.16602 2.82972C9.17758 2.69075 9.33723 2.71536 9.43404 2.72289C10.1623 2.7795 10.85 2.77255 11.3882 2.13719C11.5597 1.93472 11.7033 2.20422 11.6667 2.34774C11.4677 3.12774 11.6641 3.77565 12.244 4.32509C12.3821 4.4559 12.3283 4.54714 12.1518 4.57871C12.116 4.58513 12.0778 4.57992 12.0423 4.58745C11.6438 4.67193 11.2764 4.40267 10.8534 4.52919C10.4632 4.6459 10.2997 5.08227 9.82106 5.12554Z" fill="#E6EF4A"/>
</svg>
