<svg width="68" height="70" viewBox="0 0 68 70" fill="none" xmlns="http://www.w3.org/2000/svg">
<path d="M48.3203 40.9502V43.3243V45.7283V48.1027V50.4767H50.6946V48.1027V45.7283V43.3243V40.9502H48.3203Z" fill="#FEA621"/>
<path d="M48.32 50.4766H45.916V52.8805H48.32V50.4766Z" fill="#FEA621"/>
<path d="M48.32 38.5762H45.916V40.9504H48.32V38.5762Z" fill="#FEA621"/>
<path d="M48.32 17.1187H45.916V19.4929H48.32V17.1187Z" fill="#FEA621"/>
<path d="M45.9171 52.8809H43.543V55.2551H45.9171V52.8809Z" fill="#FEA621"/>
<path d="M45.9171 36.2021H43.543V38.5763H45.9171V36.2021Z" fill="#FEA621"/>
<path d="M45.9171 14.7446H43.543V17.1188H45.9171V14.7446Z" fill="#FEA621"/>
<path d="M43.5422 55.2554H41.168V57.6295H43.5422V55.2554Z" fill="#FEA621"/>
<path d="M43.5422 33.7979H41.168V36.2018H43.5422V33.7979Z" fill="#FEA621"/>
<path d="M43.5422 12.3408H41.168V14.7448H43.5422V12.3408Z" fill="#FEA621"/>
<path d="M36.3906 60.0333V62.4077H38.7648V60.0333V57.6294H36.3906V60.0333Z" fill="#FEA621"/>
<path d="M36.3906 38.5763V40.9505V43.3247V45.7286V48.103V50.477V52.8811V55.2554H38.7648V52.8811V50.477V48.103V45.7286V43.3247V40.9505V38.5763V36.2021H36.3906V38.5763Z" fill="#FEA621"/>
<path d="M36.3906 17.1188V19.493V21.897V24.2711V26.6454V29.0494V31.4236V33.7978H38.7648V31.4236V29.0494V26.6454V24.2711V21.897V19.493V17.1188V14.7446H36.3906V17.1188Z" fill="#FEA621"/>
<path d="M36.3906 9.96641V12.3408H38.7648V9.96641V7.59229H36.3906V9.96641Z" fill="#FEA621"/>
<path d="M31.6124 52.8809H29.2383V55.2551H31.6124V52.8809Z" fill="#FEA621"/>
<path d="M31.6124 29.0498H29.2383V31.4239H31.6124V29.0498Z" fill="#FEA621"/>
<path d="M31.6124 17.1187H29.2383V19.4929H31.6124V17.1187Z" fill="#FEA621"/>
<path d="M29.2376 50.4766H26.8633V52.8805H29.2376V50.4766Z" fill="#FEA621"/>
<path d="M26.8633 21.8971V24.2712V26.6455V29.0496H29.2376V26.6455V24.2712V21.8971V19.4932H26.8633V21.8971Z" fill="#FEA621"/>
<path d="M45.916 40.9502V43.3243V45.7283V48.1027V50.4767H48.3201V48.1027V45.7283V43.3243V40.9502H45.916Z" fill="#FF8000"/>
<path d="M45.9171 50.4766H43.543V52.8805H45.9171V50.4766Z" fill="#FF8000"/>
<path d="M45.9171 38.5762H43.543V40.9504H45.9171V38.5762Z" fill="#FF8000"/>
<path d="M45.9171 17.1187H43.543V19.4929H45.9171V17.1187Z" fill="#FF8000"/>
<path d="M43.5422 52.8809H41.168V55.2551H43.5422V52.8809Z" fill="#FF8000"/>
<path d="M43.5422 36.2021H41.168V38.5763H43.5422V36.2021Z" fill="#FF8000"/>
<path d="M43.5422 14.7446H41.168V17.1188H43.5422V14.7446Z" fill="#FF8000"/>
<path d="M41.1678 55.2554H38.7637V57.6295H41.1678V55.2554Z" fill="#FF8000"/>
<path d="M41.1678 33.7979H38.7637V36.2018H41.1678V33.7979Z" fill="#FF8000"/>
<path d="M41.1678 12.3408H38.7637V14.7448H41.1678V12.3408Z" fill="#FF8000"/>
<path d="M34.0156 60.0333V62.4077H36.3899V60.0333V57.6294H34.0156V60.0333Z" fill="#FF8000"/>
<path d="M34.0156 38.5763V40.9505V43.3247V45.7286V48.103V50.477V52.8811V55.2554H36.3899V52.8811V50.477V48.103V45.7286V43.3247V40.9505V38.5763V36.2021H34.0156V38.5763Z" fill="#FF8000"/>
<path d="M34.0156 17.1188V19.493V21.897V24.2711V26.6454V29.0494V31.4236V33.7978H36.3899V31.4236V29.0494V26.6454V24.2711V21.897V19.493V17.1188V14.7446H34.0156V17.1188Z" fill="#FF8000"/>
<path d="M34.0156 9.96641V12.3408H36.3899V9.96641V7.59229H34.0156V9.96641Z" fill="#FF8000"/>
<path d="M31.6124 31.4238H29.2383V33.7981H31.6124V31.4238Z" fill="#FF8000"/>
<path d="M31.6124 14.7446H29.2383V17.1188H31.6124V14.7446Z" fill="#FF8000"/>
<path d="M29.2376 52.8809H26.8633V55.2551H29.2376V52.8809Z" fill="#FF8000"/>
<path d="M29.2376 29.0498H26.8633V31.4239H29.2376V29.0498Z" fill="#FF8000"/>
<path d="M29.2376 17.1187H26.8633V19.4929H29.2376V17.1187Z" fill="#FF8000"/>
<path d="M26.8629 50.4766H24.459V52.8805H26.8629V50.4766Z" fill="#FF8000"/>
<path d="M24.459 21.8971V24.2712V26.6455V29.0496H26.8631V26.6455V24.2712V21.8971V19.4932H24.459V21.8971Z" fill="#FF8000"/>
<path d="M14.9329 9.96631H12.5586V12.3406H14.9329V9.96631Z" fill="#EDC13B"/>
<path d="M12.5577 12.3408H10.1836V14.7448H12.5577V12.3408Z" fill="#EDC13B"/>
<path d="M10.1832 17.1188V14.7446H7.7793V17.1188V19.493H10.1832V17.1188Z" fill="#EDC13B"/>
<path d="M7.77871 24.2712V21.8971V19.4932H5.4043V21.8971V24.2712V26.6455H7.77871V24.2712Z" fill="#EDC13B"/>
<path d="M12.5577 55.2549H10.1836V57.629H12.5577V55.2549Z" fill="#EDC13B"/>
<path d="M10.1832 50.4766H7.7793V52.8806V55.2549H10.1832V52.8806V50.4766Z" fill="#EDC13B"/>
<path d="M7.77871 45.7282V43.3242H5.4043V45.7282V48.1026V50.4766H7.77871V48.1026V45.7282Z" fill="#EDC13B"/>
<path d="M5.40523 38.5761V36.2019V33.798V31.4237V29.0496V26.6455H3.03125V29.0496V31.4237V33.798V36.2019V38.5761V40.9503V43.3245H5.40523V40.9503V38.5761Z" fill="#EDC13B"/>
<path d="M62.5957 26.6455V29.0496V31.4237V33.798V36.2019V38.5761V40.9503V43.3245H64.9994V40.9503V38.5761V36.2019V33.798V31.4237V29.0496V26.6455H62.5957Z" fill="#EDC13B"/>
<path d="M60.2207 45.7282V48.1026V50.4766H62.5951V48.1026V45.7282V43.3242H60.2207V45.7282Z" fill="#EDC13B"/>
<path d="M60.2207 24.2712V26.6455H62.5951V24.2712V21.8971V19.4932H60.2207V21.8971V24.2712Z" fill="#EDC13B"/>
<path d="M57.8477 52.8806V55.2549H60.2216V52.8806V50.4766H57.8477V52.8806Z" fill="#EDC13B"/>
<path d="M57.8477 19.493H60.2216V17.1188V14.7446H57.8477V17.1188V19.493Z" fill="#EDC13B"/>
<path d="M57.8469 55.2549H55.4727V57.629H57.8469V55.2549Z" fill="#EDC13B"/>
<path d="M57.8469 12.3408H55.4727V14.7448H57.8469V12.3408Z" fill="#EDC13B"/>
<path d="M55.4723 57.6289H53.0684V60.0328H55.4723V57.6289Z" fill="#EDC13B"/>
<path d="M55.4723 9.96631H53.0684V12.3406H55.4723V9.96631Z" fill="#EDC13B"/>
<path d="M48.3203 60.0332V62.4076H50.6946H53.0687V60.0332H50.6946H48.3203Z" fill="#EDC13B"/>
<path d="M50.6946 9.96641H53.0687V7.59229H50.6946H48.3203V9.96641H50.6946Z" fill="#EDC13B"/>
<path d="M43.5422 62.4077H41.168V64.7817H43.5422H45.9162H48.3203V62.4077H45.9162H43.5422Z" fill="#EDC13B"/>
<path d="M43.5422 7.59241H45.9162H48.3203V5.18848H45.9162H43.5422H41.168V7.59241H43.5422Z" fill="#EDC13B"/>
<path d="M36.3899 64.7812H34.0156H31.6117H29.2376H26.8633V67.1853H29.2376H31.6117H34.0156H36.3899H38.764H41.1681V64.7812H38.764H36.3899Z" fill="#EDC13B"/>
<path d="M31.6117 5.18824H34.0156H36.3899H38.764H41.1681V2.81396H38.764H36.3899H34.0156H31.6117H29.2376H26.8633V5.18824H29.2376H31.6117Z" fill="#EDC13B"/>
<path d="M24.4593 62.4077H22.0852H19.7109V64.7817H22.0852H24.4593H26.8634V62.4077H24.4593Z" fill="#EDC13B"/>
<path d="M24.4593 7.59241H26.8634V5.18848H24.4593H22.0852H19.7109V7.59241H22.0852H24.4593Z" fill="#EDC13B"/>
<path d="M17.3356 60.0332H14.9316V62.4076H17.3356H19.7097V60.0332H17.3356Z" fill="#EDC13B"/>
<path d="M19.7097 9.96641V7.59229H17.3356H14.9316V9.96641H17.3356H19.7097Z" fill="#EDC13B"/>
<path d="M14.9329 57.6289H12.5586V60.0328H14.9329V57.6289Z" fill="#EDC13B"/>
<path d="M60.2211 26.6455V19.4931H57.847V14.7447H55.4727V12.3408H53.0688V9.96654H48.3204V7.59241H41.1681V5.18848H26.8633V7.59241H19.7109V9.96654H14.9329V12.3408H12.5586V14.7447H10.1845V19.4931H7.78052V26.6455H5.40625V43.3244H7.78052V50.4768H10.1845V55.2551H12.5586V57.6292H14.9329V60.0332H19.7109V62.4074H26.8633V64.7816H41.1681V62.4074H48.3204V60.0332H53.0688V57.6292H55.4727V55.2551H57.847V50.4768H60.2211V43.3244H62.5954V26.6455H60.2211ZM36.3899 62.4074H31.6115V57.6291H26.8631V55.255H24.4592V52.8807H22.0851V50.4768H29.2374V52.8807H31.6115V36.2019H29.2374V33.798H26.8631V31.4237H24.4592V29.0496H22.0851V19.4931H24.4592V17.1189H26.8631V14.7447H29.2374V12.3408H31.6115V7.59241H38.7639V12.3408H43.5422V14.7447H45.9163V17.1189H48.3203V19.4931H41.1679V17.1189H38.7639V33.798H43.5422V36.2019H45.9163V38.576H48.3203V40.9503H50.6945V50.4768H48.3203V52.8807H45.9163V55.255H43.5422V57.6291H38.7639V62.4074H36.3897H36.3899Z" fill="#FFF286"/>
<path d="M41.1678 50.4769H43.542V48.1029V45.7285V43.3246V40.9504H41.1678V38.5762H38.7637V40.9504V43.3246V45.7285V48.1029V50.4769V52.881H41.1678V50.4769Z" fill="#FFF286"/>
<path d="M29.2383 21.8971V24.2712V26.6455V29.0496H31.6124V26.6455V24.2712V21.8971V19.4932H29.2383V21.8971Z" fill="#FFF286"/>
<path d="M64.998 26.6455V29.0496V31.4237V33.798V36.2019V38.5761V40.9503V43.3245H67.3725V40.9503V38.5761V36.2019V33.798V31.4237V29.0496V26.6455H64.998Z" fill="black"/>
<path d="M62.5938 45.7282V48.1026V50.4766H64.9974V48.1026V45.7282V43.3242H62.5938V45.7282Z" fill="black"/>
<path d="M62.5938 24.2712V26.6455H64.9974V24.2712V21.8971V19.4932H62.5938V21.8971V24.2712Z" fill="black"/>
<path d="M60.2188 52.8806V55.2549H62.5932V52.8806V50.4766H60.2188V52.8806Z" fill="black"/>
<path d="M60.2188 19.493H62.5932V17.1188V14.7446H60.2188V17.1188V19.493Z" fill="black"/>
<path d="M60.2198 55.2549H57.8457V57.629H60.2198V55.2549Z" fill="black"/>
<path d="M60.2218 12.3408H57.8477V14.7448H60.2218V12.3408Z" fill="black"/>
<path d="M57.8469 57.6294H55.4727V60.0333H57.8469V57.6294Z" fill="black"/>
<path d="M57.8469 9.96631H55.4727V12.3406H57.8469V9.96631Z" fill="black"/>
<path d="M55.4703 60.0332H53.0664V62.4075H55.4703V60.0332Z" fill="black"/>
<path d="M55.4703 7.59229H53.0664V9.96641H55.4703V7.59229Z" fill="black"/>
<path d="M48.3203 62.4077V64.7817H50.6946H53.0687V62.4077H50.6946H48.3203Z" fill="black"/>
<path d="M50.6946 7.59241H53.0687V5.18848H50.6946H48.3203V7.59241H50.6946Z" fill="black"/>
<path d="M43.5422 64.7817H41.168V67.1858H43.5422H45.9162H48.3203V64.7817H45.9162H43.5422Z" fill="black"/>
<path d="M43.541 43.3243V45.7283V48.1027V50.4767H45.915V48.1027V45.7283V43.3243V40.9502H43.541V43.3243Z" fill="black"/>
<path d="M43.5422 50.4766H41.168V52.8805H43.5422V50.4766Z" fill="black"/>
<path d="M43.5422 38.5762H41.168V40.9504H43.5422V38.5762Z" fill="black"/>
<path d="M43.5422 17.1187H41.168V19.4929H43.5422V17.1187Z" fill="black"/>
<path d="M43.5422 5.18824H45.9162H48.3203V2.81396H45.9162H43.5422H41.168V5.18824H43.5422Z" fill="black"/>
<path d="M41.1658 52.8809H38.7617V55.2551H41.1658V52.8809Z" fill="black"/>
<path d="M41.1658 36.2021H38.7617V38.5763H41.1658V36.2021Z" fill="black"/>
<path d="M41.1658 14.7446H38.7617V17.1188H41.1658V14.7446Z" fill="black"/>
<path d="M36.3899 67.1855H34.0156H31.6117H29.2376H26.8633V69.5598H29.2376H31.6117H34.0156H36.3899H38.764H41.1681V67.1855H38.764H36.3899Z" fill="black"/>
<path d="M34.0156 55.2551V52.8809V50.4768V48.1028V45.7284V43.3244V40.9503V38.576V36.2019H36.3899H38.764V33.798H36.3899H34.0156V31.4237V29.0496V26.6455V24.2712V21.8971V19.4932V17.1189V14.7448H36.3899H38.764V12.3408H36.3899H34.0156V9.96641V7.59229H31.6117V9.96641V12.3408H29.2376V14.7448H31.6117V17.1189V19.4932V21.8971V24.2712V26.6455V29.0496V31.4237V33.798H29.2376V36.2019H31.6117V38.576V40.9503V43.3244V45.7284V48.1028V50.4768V52.8809V55.2551H29.2376H26.8633V57.6293H29.2376H31.6117V60.0332V62.4076H34.0156V60.0332V57.6293H36.3899H38.764V55.2551H36.3899H34.0156Z" fill="black"/>
<path d="M31.6117 2.81407H34.0156H36.3899H38.764H41.1681V0.439941H38.764H36.3899H34.0156H31.6117H29.2376H26.8633V2.81407H29.2376H31.6117Z" fill="black"/>
<path d="M29.2376 31.4238H26.8633V33.7981H29.2376V31.4238Z" fill="black"/>
<path d="M29.2376 14.7446H26.8633V17.1188H29.2376V14.7446Z" fill="black"/>
<path d="M24.4574 64.7817H22.0833H19.709V67.1858H22.0833H24.4574H26.8615V64.7817H24.4574Z" fill="black"/>
<path d="M26.8629 52.8809H24.459V55.2551H26.8629V52.8809Z" fill="black"/>
<path d="M26.8629 29.0498H24.459V31.4239H26.8629V29.0498Z" fill="black"/>
<path d="M26.8629 17.1187H24.459V19.4929H26.8629V17.1187Z" fill="black"/>
<path d="M24.4581 50.4766H22.084V52.8805H24.4581V50.4766Z" fill="black"/>
<path d="M24.4581 24.2712V21.8971V19.4932H22.084V21.8971V24.2712V26.6455V29.0496H24.4581V26.6455V24.2712Z" fill="black"/>
<path d="M24.4574 5.18824H26.8615V2.81396H24.4574H22.0833H19.709V5.18824H22.0833H24.4574Z" fill="black"/>
<path d="M17.3356 62.4077H14.9316V64.7817H17.3356H19.7097V62.4077H17.3356Z" fill="black"/>
<path d="M19.7097 7.59241V5.18848H17.3356H14.9316V7.59241H17.3356H19.7097Z" fill="black"/>
<path d="M14.9309 60.0332H12.5566V62.4075H14.9309V60.0332Z" fill="black"/>
<path d="M14.9309 7.59229H12.5566V9.96641H14.9309V7.59229Z" fill="black"/>
<path d="M12.5577 57.6294H10.1836V60.0333H12.5577V57.6294Z" fill="black"/>
<path d="M12.5577 9.96631H10.1836V12.3406H12.5577V9.96631Z" fill="black"/>
<path d="M10.1832 55.2549H7.7793V57.629H10.1832V55.2549Z" fill="black"/>
<path d="M10.1832 12.3408H7.7793V14.7448H10.1832V12.3408Z" fill="black"/>
<path d="M7.78067 50.4766H5.40625V52.8806V55.2549H7.78067V52.8806V50.4766Z" fill="black"/>
<path d="M7.78067 17.1188V14.7446H5.40625V17.1188V19.493H7.78067V17.1188Z" fill="black"/>
<path d="M5.40523 45.7282V43.3242H3.03125V45.7282V48.1026V50.4766H5.40523V48.1026V45.7282Z" fill="black"/>
<path d="M5.40523 24.2712V21.8971V19.4932H3.03125V21.8971V24.2712V26.6455H5.40523V24.2712Z" fill="black"/>
<path d="M3.03103 38.5761V36.2019V33.798V31.4237V29.0496V26.6455H0.626953V29.0496V31.4237V33.798V36.2019V38.5761V40.9503V43.3245H3.03103V40.9503V38.5761Z" fill="black"/>
</svg>
