<svg width="208" height="192" viewBox="0 0 208 192" fill="none" xmlns="http://www.w3.org/2000/svg">
<path d="M29.1562 32.4541C29.1562 32.4541 33.6592 4.07129 38.2239 1.73497C44.5042 -1.4765 204.631 36.24 205.833 44.6484C206.697 50.6743 200.795 75.1053 200.795 75.1053L190.89 72.3295C190.89 72.3295 194.449 53.851 194.318 51.0482C194.055 45.3809 47.9971 9.66919 43.7756 13.7597C41.3429 16.1153 38.2239 35.3186 38.2239 35.3186L29.1562 32.4541Z" fill="#FA5946"/>
<path d="M46.6523 34.7672C46.6523 34.7672 48.314 23.4172 51.0011 23.4827C53.6883 23.5482 68.6199 27.0412 69.1982 29.0305C69.7765 31.0198 68.0416 39.3936 68.0416 39.3936L46.6523 34.7672Z" fill="#FA5946"/>
<path d="M160.846 63.3082C160.846 63.3082 162.507 51.9582 165.194 52.0237C167.882 52.0893 182.813 55.5822 183.392 57.5715C183.97 59.5608 182.235 67.9346 182.235 67.9346L160.861 63.3082H160.846Z" fill="#FA5946"/>
<path d="M26.3793 29.7713C21.9187 31.8455 11.4863 65.5756 10.9273 69.0106C9.77067 76.0774 15.5536 81.0199 13.0554 89.4438C10.5571 97.8676 0.232635 134.551 1.67452 143.534C3.11641 152.517 30.2231 161.048 84.7718 176.246C144.602 192.913 168.189 190.985 172.176 186.833C176.162 182.681 185.55 145.134 190.889 129.238C192.555 124.284 200.527 117.707 202.274 111.473C203.388 107.521 207.995 77.0567 205.917 73.9069C203.839 70.7571 169.708 60.1164 117.538 46.7C70.9081 34.6984 32.9411 26.7256 26.3793 29.7713Z" fill="#5CBC65"/>
<path d="M39.936 45.9978C42.3561 45.9978 44.7218 46.7157 46.7339 48.0605C48.7459 49.4054 50.3138 51.3168 51.2392 53.553C52.1646 55.7891 52.406 58.2496 51.9327 60.6229C51.4595 62.9963 50.2929 65.176 48.5805 66.8862C46.8682 68.5963 44.687 69.7602 42.3131 70.2305C39.9391 70.7007 37.479 70.4563 35.244 69.528C33.009 68.5998 31.0996 67.0295 29.7572 65.0157C28.4149 63.002 27.7001 60.6354 27.7031 58.2153C27.7042 54.9713 28.9933 51.8604 31.2872 49.5665C33.5811 47.2726 36.692 45.9834 39.936 45.9824V45.9978Z" fill="#FA5946"/>
<path d="M47.2164 93.5957C52.6302 93.5957 57.9225 95.2011 62.4239 98.2088C66.9253 101.217 70.4337 105.492 72.5055 110.493C74.5773 115.495 75.1194 120.999 74.0632 126.309C73.007 131.618 70.4 136.496 66.5718 140.324C62.7437 144.152 57.8664 146.759 52.5566 147.815C47.2468 148.871 41.7431 148.329 36.7414 146.257C31.7397 144.186 27.4646 140.677 24.4569 136.176C21.4491 131.674 19.8438 126.382 19.8438 120.968C19.8438 113.709 22.7276 106.746 27.861 101.613C32.9944 96.4796 39.9568 93.5957 47.2164 93.5957Z" fill="#FCBB41"/>
<path d="M144.806 116.477C150.22 116.477 155.512 118.082 160.014 121.09C164.515 124.098 168.024 128.373 170.095 133.375C172.167 138.376 172.709 143.88 171.653 149.19C170.597 154.5 167.99 159.377 164.162 163.205C160.334 167.033 155.456 169.64 150.146 170.696C144.837 171.753 139.333 171.211 134.331 169.139C129.33 167.067 125.054 163.559 122.047 159.057C119.039 154.556 117.434 149.264 117.434 143.85C117.434 136.59 120.317 129.628 125.451 124.494C130.584 119.361 137.547 116.477 144.806 116.477Z" fill="#FCBB41"/>
<path d="M47.219 113.3C48.736 113.3 50.2191 113.749 51.4807 114.591C52.7423 115.433 53.7258 116.631 54.3067 118.032C54.8875 119.434 55.0397 120.976 54.744 122.464C54.4482 123.951 53.7178 125.318 52.6451 126.391C51.5725 127.463 50.2058 128.194 48.7179 128.49C47.2301 128.785 45.688 128.633 44.2866 128.052C42.8853 127.471 41.6877 126.488 40.8454 125.226C40.0031 123.965 39.5539 122.482 39.5547 120.965C39.5557 118.932 40.3635 116.983 41.8007 115.546C43.2378 114.109 45.1866 113.301 47.219 113.3Z" fill="#FA5946"/>
<path d="M144.807 136.182C146.324 136.181 147.807 136.63 149.069 137.472C150.33 138.315 151.314 139.512 151.895 140.914C152.475 142.315 152.628 143.857 152.332 145.345C152.036 146.833 151.306 148.199 150.233 149.272C149.16 150.345 147.794 151.075 146.306 151.371C144.818 151.667 143.276 151.514 141.875 150.934C140.473 150.353 139.276 149.369 138.433 148.108C137.591 146.846 137.142 145.363 137.143 143.846C137.144 141.814 137.951 139.865 139.389 138.428C140.826 136.99 142.775 136.183 144.807 136.182Z" fill="#FA5946"/>
<path d="M74.5862 51.4229L72.8281 58.9176L157.861 78.4409L159.896 71.1312L74.5862 51.4229Z" fill="#FCBB41"/>
<path d="M71.8361 64.3184L70.0742 71.8131L155.107 91.3364L157.146 84.0267L71.8361 64.3184Z" fill="#FCBB41"/>
<path d="M68.5998 77.3682L66.8418 84.8629L151.874 104.386L153.906 97.0765L68.5998 77.3682Z" fill="#FCBB41"/>
<path d="M174.979 80.8188L170.549 95.7929L185.897 99.3513L188.95 85.4722L174.979 80.8188Z" fill="#FA5946"/>
<path d="M90.6866 109.414C87.8992 110.879 85.6554 123.447 86.7079 125.884C87.7604 128.32 108.999 132.522 110.252 130.626C111.505 128.729 115.557 117.325 113.614 115.293C111.671 113.261 93.447 107.968 90.6866 109.414Z" fill="#FA5946"/>
<path d="M76.9188 151.514C75.1608 151.857 74.1314 155.435 74.6056 157.089C75.0798 158.743 103.709 166.045 104.48 165.046C105.251 164.048 105.938 160.181 105.498 159.124C105.059 158.068 80.1457 150.886 76.9188 151.514Z" fill="#FA5946"/>
<path d="M207.205 73.0584C206.935 72.6497 206.492 71.9751 203.423 70.5602C205.293 62.2211 208.003 48.9203 207.359 44.425C207.182 43.1798 206.049 42.1119 203.454 40.7779C191.576 34.6094 149.777 23.429 114.62 14.9859C95.6134 10.4097 77.4703 6.404 63.5218 3.65902C40.0969 -0.951932 38.3543 -0.0652109 37.5216 0.362728C36.1453 1.06439 34.233 3.12698 31.6345 12.9079C30.2389 18.1704 29.0823 24.0575 28.4115 27.7046C27.4818 27.7797 26.5704 28.0049 25.7128 28.3715C24.7644 28.8149 22.243 29.9869 15.7198 48.3652C12.4929 57.4637 9.69784 66.8706 9.38941 68.752C8.81497 72.2835 9.77494 75.2829 10.7041 78.186C11.7874 81.5825 12.8129 84.7901 11.5638 88.9808C11.4481 89.4165 -1.54039 133.282 0.152095 143.776C1.74434 153.719 27.0352 161.757 84.3597 177.73C120.06 187.677 143.751 191.224 157.799 191.224C166.37 191.224 171.355 189.897 173.29 187.885C175.989 185.086 180.01 171.6 185.851 151.348C188.26 143.001 190.535 135.117 192.351 129.712C193.025 127.704 195.022 125.201 197.139 122.553C199.88 119.114 202.718 115.559 203.759 111.878C204.356 109.757 205.794 101.044 206.843 92.5586C208.882 75.5991 207.706 73.8179 207.205 73.0584ZM38.8787 3.13469C42.3484 2.25183 76.7725 8.84441 122.766 20.1366C144.121 25.3798 163.706 30.6269 177.897 34.914C200.532 41.7456 203.832 44.4135 204.31 45.0111C204.661 48.0683 203.257 57.0589 200.524 69.3265C198.731 68.6094 196.437 67.7574 193.492 66.7434C195.119 57.7837 195.913 52.4788 195.844 50.9829C195.782 49.7222 194.849 48.7237 189.906 46.7652C176.32 41.3678 139.34 31.6139 108.721 24.2888C91.7581 20.2446 76.1479 16.821 64.794 14.6505C44.6115 10.7952 43.505 11.8593 42.6993 12.6419C42.1171 13.2048 40.602 14.6736 37.9804 27.9937C35.3164 27.7046 33.2268 27.5773 31.569 27.5581C34.4489 12.0405 37.3327 4.05611 38.8787 3.13469ZM181.945 58.2155C182.007 58.7706 181.965 60.1894 181.56 62.8804L180.97 62.6992C175.785 61.0993 169.978 59.3798 163.621 57.5639C164.446 54.63 165.105 53.7973 165.317 53.593C168.479 53.7549 180.118 56.7312 181.945 58.2155ZM184.871 57.163C184.64 56.3534 184.247 54.9963 175.492 52.6099C171.37 51.4841 166.771 50.5396 165.229 50.501C163.301 50.4663 161.902 52.3438 160.672 56.7196C148.177 53.1766 133.731 49.2904 117.92 45.2269C99.6152 40.5003 83.7506 36.6913 70.5539 33.8268C71.0127 30.4418 70.87 29.2506 70.6811 28.599C70.4459 27.7932 70.0527 26.4362 61.2973 24.0459C57.176 22.9201 52.5727 21.9756 51.0383 21.9409C48.9564 21.8831 47.4953 24.0652 46.223 29.1272C44.3339 28.8303 42.6222 28.5797 41.0685 28.3561C43.0809 18.1203 44.3378 15.6028 44.7233 15.036C48.3434 14.3035 75.4347 19.2769 119.566 30.118C163.424 40.8666 189.621 49.0553 192.767 51.515C192.709 52.6214 192.328 55.9216 190.546 65.741C188.75 65.1435 186.753 64.4958 184.532 63.7941C185.334 58.7398 185.003 57.5948 184.871 57.1437V57.163ZM67.5159 33.1753C63.8688 32.4042 60.4388 31.7064 57.2261 31.0818C54.3076 30.5189 51.6629 30.0409 49.2649 29.6322C50.1554 26.2203 50.9111 25.2565 51.1308 25.0328C54.2575 25.2102 65.9044 28.1865 67.7395 29.6592C67.7819 30.0178 67.805 30.9662 67.5159 33.1753ZM203.724 92.5277C202.648 101.302 201.268 109.364 200.79 111.06C199.919 114.144 197.278 117.452 194.726 120.652C192.436 123.521 190.277 126.231 189.428 128.748C187.589 134.215 185.307 142.13 182.874 150.508C178.657 165.119 173.41 183.305 171.05 185.764C168.328 188.602 147.594 192.149 85.1693 174.758C57.3225 167.001 37.3635 161.175 23.8353 156.121C10.5229 151.14 3.78765 146.945 3.18237 143.291C1.96023 135.665 10.2916 104.001 14.517 89.8598C16.0591 84.7593 14.7676 80.7652 13.6418 77.2453C12.7859 74.5736 11.9802 72.0483 12.4351 69.2494C12.6857 67.7072 15.3921 58.5316 18.6036 49.5102C24.4868 32.9015 26.7846 31.2977 27.0313 31.1705C27.881 30.8535 28.7807 30.6916 29.6876 30.6924H29.8765C36.685 30.384 56.9793 32.7319 117.153 48.2071C166.223 60.8217 191.869 69.0258 200.917 72.8194C200.992 72.8606 201.071 72.8942 201.152 72.9196C203.119 73.7601 204.237 74.3769 204.622 74.774C204.78 75.1326 205.524 77.8197 203.724 92.5277ZM39.935 72.0059C42.6588 72.0059 45.3214 71.1984 47.5864 69.6855C49.8514 68.1725 51.6169 66.0221 52.66 63.5059C53.703 60.9898 53.9767 58.2209 53.4465 55.5492C52.9162 52.8775 51.6058 50.423 49.6809 48.4959C47.7559 46.5689 45.3029 45.2557 42.6318 44.7225C39.9608 44.1892 37.1915 44.4598 34.6742 45.5C32.1569 46.5403 30.0045 48.3034 28.489 50.5667C26.9735 52.83 26.1631 55.4917 26.16 58.2155C26.16 61.8703 27.6108 65.3756 30.1937 67.9613C32.7766 70.5471 36.2802 72.0018 39.935 72.0059ZM39.935 47.5401C42.0501 47.5401 44.1177 48.1675 45.8761 49.3429C47.6345 50.5183 49.0048 52.1889 49.8135 54.1433C50.6222 56.0977 50.833 58.248 50.4192 60.3222C50.0055 62.3965 48.9857 64.3014 47.4891 65.7959C45.9924 67.2904 44.086 68.3074 42.0112 68.7181C39.9364 69.1289 37.7864 68.915 35.8331 68.1034C33.8799 67.2919 32.2113 65.9193 31.0385 64.1591C29.8656 62.399 29.2412 60.3306 29.2442 58.2155C29.2514 55.3837 30.3805 52.6702 32.3843 50.6693C34.3881 48.6684 37.1033 47.5432 39.935 47.5401ZM47.2177 92.0535C41.4989 92.0535 35.9085 93.7493 31.1535 96.9265C26.3985 100.104 22.6924 104.62 20.5039 109.903C18.3154 115.187 17.7428 121 18.8585 126.609C19.9742 132.218 22.728 137.37 26.7718 141.414C30.8156 145.458 35.9678 148.212 41.5767 149.328C47.1856 150.443 52.9994 149.871 58.2829 147.682C63.5664 145.494 68.0823 141.788 71.2595 137.033C74.4367 132.278 76.1325 126.687 76.1325 120.968C76.1254 113.302 73.0767 105.951 67.6557 100.53C62.2346 95.1093 54.8842 92.0607 47.2177 92.0535ZM47.2177 146.799C42.1089 146.799 37.1148 145.284 32.867 142.446C28.6192 139.607 25.3084 135.573 23.3534 130.853C21.3983 126.133 20.8868 120.94 21.8835 115.929C22.8801 110.918 25.3403 106.316 28.9527 102.703C32.5652 99.0909 37.1678 96.6308 42.1784 95.6341C47.189 94.6374 52.3827 95.1489 57.1026 97.104C61.8225 99.0591 65.8567 102.37 68.695 106.618C71.5333 110.865 73.0483 115.86 73.0483 120.968C73.0401 127.816 70.3158 134.38 65.4732 139.222C60.6306 144.063 54.0652 146.785 47.2177 146.791V146.799ZM144.807 114.935C139.088 114.935 133.498 116.631 128.743 119.808C123.988 122.985 120.282 127.501 118.093 132.784C115.905 138.068 115.332 143.882 116.448 149.491C117.564 155.1 120.317 160.252 124.361 164.295C128.405 168.339 133.557 171.093 139.166 172.209C144.775 173.324 150.589 172.752 155.872 170.563C161.156 168.375 165.672 164.669 168.849 159.914C172.026 155.159 173.722 149.568 173.722 143.85C173.715 136.183 170.666 128.833 165.245 123.412C159.824 117.991 152.474 114.942 144.807 114.935ZM144.807 169.68C139.698 169.68 134.704 168.165 130.456 165.327C126.209 162.489 122.898 158.454 120.943 153.735C118.988 149.015 118.476 143.821 119.473 138.81C120.47 133.8 122.93 129.197 126.542 125.585C130.155 121.972 134.757 119.512 139.768 118.515C144.778 117.519 149.972 118.03 154.692 119.985C159.412 121.94 163.446 125.251 166.284 129.499C169.123 133.747 170.638 138.741 170.638 143.85C170.63 150.697 167.905 157.262 163.063 162.103C158.22 166.944 151.655 169.666 144.807 169.672V169.68ZM47.2177 111.758C45.3959 111.758 43.615 112.298 42.1003 113.31C40.5856 114.323 39.4051 115.761 38.7081 117.445C38.0111 119.128 37.8289 120.98 38.1846 122.767C38.5403 124.553 39.4179 126.194 40.7064 127.482C41.9948 128.77 43.6363 129.647 45.4232 130.002C47.2101 130.357 49.0621 130.174 50.745 129.476C52.4279 128.779 53.8661 127.598 54.8777 126.083C55.8893 124.567 56.4288 122.786 56.428 120.964C56.426 118.523 55.4548 116.182 53.7279 114.455C52.0009 112.729 49.6594 111.759 47.2177 111.758ZM47.2177 127.091C46.0061 127.091 44.8217 126.731 43.8142 126.058C42.8068 125.385 42.0216 124.428 41.5579 123.309C41.0943 122.189 40.9729 120.958 41.2093 119.769C41.4457 118.581 42.0291 117.489 42.8859 116.633C43.7426 115.776 44.8342 115.192 46.0226 114.956C47.2109 114.72 48.4426 114.841 49.562 115.305C50.6814 115.768 51.6382 116.554 52.3113 117.561C52.9845 118.568 53.3438 119.753 53.3438 120.964C53.3428 122.589 52.697 124.146 51.5484 125.295C50.3997 126.444 48.8421 127.09 47.2177 127.091ZM144.807 134.639C142.985 134.639 141.204 135.18 139.69 136.192C138.175 137.204 136.994 138.643 136.298 140.326C135.601 142.009 135.418 143.861 135.774 145.648C136.13 147.435 137.007 149.076 138.296 150.364C139.584 151.652 141.226 152.528 143.013 152.883C144.8 153.238 146.652 153.055 148.334 152.358C150.017 151.66 151.456 150.479 152.467 148.964C153.479 147.449 154.018 145.668 154.017 143.846C154.015 141.404 153.044 139.063 151.317 137.337C149.59 135.61 147.249 134.64 144.807 134.639ZM144.807 149.972C143.595 149.972 142.411 149.613 141.404 148.939C140.396 148.266 139.611 147.309 139.147 146.19C138.684 145.071 138.562 143.839 138.799 142.651C139.035 141.462 139.619 140.371 140.475 139.514C141.332 138.657 142.424 138.074 143.612 137.837C144.8 137.601 146.032 137.722 147.151 138.186C148.271 138.65 149.228 139.435 149.901 140.442C150.574 141.45 150.933 142.634 150.933 143.846C150.932 145.47 150.286 147.028 149.138 148.176C147.989 149.325 146.432 149.971 144.807 149.972ZM72.4815 60.4207L157.514 79.944C157.901 80.0329 158.308 79.9691 158.649 79.7658C158.99 79.5626 159.239 79.2356 159.345 78.8529L161.381 71.5279C161.437 71.3277 161.452 71.1183 161.424 70.9122C161.397 70.7062 161.329 70.5078 161.223 70.3289C161.117 70.1493 160.975 69.9932 160.807 69.8699C160.639 69.7467 160.447 69.6588 160.244 69.6118L74.9335 49.9189C74.5353 49.8277 74.1171 49.8983 73.7709 50.1152C73.4247 50.332 73.1786 50.6774 73.0868 51.0754L71.3249 58.5663C71.2333 58.9617 71.3011 59.3773 71.5138 59.7229C71.7313 60.0744 72.0793 60.3254 72.4815 60.4207ZM75.7393 53.273L157.977 72.2719L156.77 76.6092L74.6829 57.7606L75.7393 53.273ZM69.7327 73.3206L154.765 92.8361C154.879 92.8634 154.995 92.8776 155.112 92.8786C155.449 92.8782 155.777 92.7676 156.045 92.5636C156.313 92.3596 156.507 92.0735 156.597 91.7489L158.632 84.4239C158.69 84.2225 158.706 84.0116 158.679 83.8038C158.653 83.5961 158.584 83.396 158.478 83.2156C158.372 83.0352 158.229 82.8784 158.06 82.7547C157.891 82.6311 157.699 82.5431 157.495 82.4962L72.1847 62.8149C71.7864 62.7237 71.3683 62.7943 71.0221 63.0112C70.6758 63.228 70.4298 63.5734 70.338 63.9715L68.5761 71.4662C68.4856 71.862 68.5548 72.2776 68.7689 72.6228C68.8761 72.7957 69.0164 72.9457 69.1818 73.0641C69.3472 73.1826 69.5345 73.2671 69.7327 73.3129V73.3206ZM72.9866 66.1728L155.228 85.1641L154.021 89.5013L71.9341 70.6566L72.9866 66.1728ZM66.4942 86.3592L151.515 105.89C151.629 105.917 151.745 105.932 151.862 105.933C152.199 105.932 152.527 105.822 152.795 105.618C153.063 105.414 153.257 105.128 153.347 104.803L155.382 97.4779C155.438 97.2769 155.452 97.0667 155.425 96.8599C155.397 96.6532 155.327 96.4542 155.22 96.2751C155.115 96.0958 154.974 95.94 154.807 95.8173C154.639 95.6946 154.448 95.6077 154.245 95.5618L68.9462 75.8689C68.548 75.7778 68.1299 75.8484 67.7836 76.0652C67.4374 76.2821 67.1914 76.6274 67.0995 77.0255L65.3376 84.5202C65.2914 84.718 65.2846 84.9229 65.3177 85.1232C65.3509 85.3236 65.4233 85.5154 65.5307 85.6877C65.6382 85.86 65.7786 86.0094 65.944 86.1273C66.1093 86.2452 66.2963 86.3292 66.4942 86.3746V86.3592ZM69.7481 79.2115L151.99 98.2104L150.783 102.552L68.6956 83.7106L69.7481 79.2115ZM189.436 84.0036L175.465 79.3503C175.268 79.2849 175.061 79.2596 174.854 79.2761C174.648 79.2925 174.447 79.3503 174.264 79.446C174.08 79.5417 173.918 79.6733 173.787 79.8331C173.655 79.9928 173.557 80.1774 173.498 80.3758L169.069 95.3498C169.011 95.5509 168.995 95.7616 169.021 95.9691C169.047 96.1766 169.115 96.3766 169.221 96.557C169.328 96.7373 169.469 96.8941 169.638 97.018C169.806 97.1419 169.998 97.2301 170.202 97.2775L185.55 100.836C185.664 100.862 185.78 100.875 185.897 100.874C186.249 100.875 186.59 100.755 186.864 100.535C187.138 100.315 187.329 100.007 187.404 99.6639L190.458 85.7848C190.534 85.4154 190.472 85.0309 190.284 84.7041C190.095 84.3774 189.794 84.1309 189.436 84.0113V84.0036ZM184.725 97.4972L172.492 94.6597L176.004 82.7892L187.146 86.498L184.725 97.4972ZM102.858 109.56C95.9642 107.687 91.627 107.178 89.9692 108.049C87.8179 109.179 86.4994 113.52 85.7284 116.959C85.5742 117.684 84.2402 124.11 85.2734 126.497C85.551 127.133 86.1255 128.463 93.6433 130.383C97.5821 131.397 101.591 132.115 105.637 132.53C106.547 132.608 107.314 132.646 107.95 132.646C110.221 132.646 111.035 132.187 111.52 131.489C112.322 130.275 113.702 126.663 114.605 123.44C116.397 116.967 115.526 115.093 114.713 114.241C112.962 112.371 104.527 110.012 102.858 109.56ZM109.134 129.492C108.043 129.701 104.211 129.492 98.447 128.313C92.4096 127.087 88.8396 125.76 88.084 125.147C87.8604 124.303 87.9683 121.338 88.7586 117.633C89.734 113.065 90.9446 111.06 91.3918 110.783C92.105 110.528 95.6327 110.783 102.187 112.568C107.92 114.137 111.825 115.752 112.488 116.338C113.325 117.973 110.491 127.04 109.134 129.492ZM92.6602 153.199C87.6483 151.815 78.9045 149.555 76.626 149.999C75.6506 150.188 74.787 150.855 74.1239 151.926C73.1138 153.561 72.6743 155.959 73.1022 157.501C73.349 158.392 73.5841 159.232 84.0937 162.216C89.5297 163.758 95.9179 165.324 99.993 166.118C101.301 166.419 102.632 166.608 103.972 166.681C104.889 166.681 105.336 166.453 105.695 165.987C106.736 164.634 107.6 160.177 106.913 158.531C106.64 157.871 106.262 156.961 92.6602 153.199ZM103.49 163.585C99.1063 163.238 79.1396 157.945 76.013 156.279C75.9552 155.099 76.6722 153.195 77.2197 153.025C79.7719 152.601 100.463 158.349 104.095 160.053C104.061 161.253 103.857 162.442 103.49 163.585Z" fill="black"/>
</svg>
