<svg width="192" height="256" viewBox="0 0 192 256" fill="none" xmlns="http://www.w3.org/2000/svg">
<g clip-path="url(#clip0_360_80427)">
<path d="M-54.8223 104.444C-56.348 102.838 -57.2332 100.73 -57.3108 98.5163C-57.3884 96.3029 -56.6531 94.1377 -55.2436 92.4293C-42.2645 76.8595 -5.92234 35.1799 36.3386 3.48C38.0052 2.23339 40.0499 1.59817 42.1295 1.68102C44.2091 1.76386 46.1968 2.55973 47.759 3.93496C68.4008 22.2598 142.69 89.531 188.46 148.398C189.732 150.05 190.395 152.091 190.337 154.175C190.28 156.259 189.505 158.26 188.144 159.839C174.179 175.927 132.285 223.075 96.2503 251.915C94.4715 253.312 92.2347 253.993 89.979 253.826C87.7234 253.658 85.6118 252.653 84.059 251.009C65.7974 231.652 5.99514 168.336 -54.8223 104.444Z" fill="#7D67BF"/>
<path d="M47.5489 20.6881C46.3049 19.5866 44.7084 18.9656 43.047 18.9371C41.3857 18.9085 39.7688 19.4742 38.4876 20.5323C28.0572 29.2271 2.02745 51.6593 -17.2958 74.618C-18.4066 75.9525 -18.9791 77.6536 -18.9012 79.3882C-18.8233 81.1228 -18.1005 82.7657 -16.8745 83.9952C1.56407 102.442 72.6182 173.534 108.531 209.674C109.78 210.933 111.461 211.668 113.233 211.73C115.005 211.792 116.734 211.176 118.068 210.007C128.966 200.415 155.379 176.677 171.501 158.066C172.55 156.832 173.137 155.272 173.16 153.652C173.183 152.033 172.641 150.457 171.627 149.194C158.838 133.485 112.676 78.5231 47.5237 20.7092L47.5489 20.6881Z" fill="#FCBB41"/>
<path d="M16.8754 92.8378C14.1231 90.0875 11.9464 86.8164 10.4723 83.2154C8.99826 79.6145 8.25644 75.756 8.29016 71.8652C8.32389 67.9744 9.13249 64.1293 10.6687 60.5545C12.205 56.9796 14.4381 53.7467 17.2377 51.0445L18.1687 50.1472C23.7422 44.7699 31.2187 41.8188 38.9625 41.9396C46.7062 42.0604 54.087 45.2432 59.4902 50.7918C82.0697 73.9906 118.323 111.226 141.059 134.581C143.761 137.357 145.882 140.644 147.299 144.25C148.715 147.855 149.398 151.708 149.307 155.581C149.217 159.453 148.354 163.269 146.771 166.805C145.188 170.341 142.915 173.525 140.086 176.172C134.57 181.331 127.265 184.145 119.714 184.021C112.162 183.897 104.954 180.844 99.6111 175.506L16.8754 92.8378Z" fill="#6FC0A3"/>
<path d="M40.6717 51.6763C45.2077 51.6763 49.6418 53.0214 53.4133 55.5415C57.1848 58.0617 60.1242 61.6437 61.8599 65.8344C63.5955 70.0252 64.0494 74.6366 63.1642 79.0854C62.279 83.5341 60.0944 87.6205 56.8866 90.8276C53.6789 94.0347 49.5922 96.2186 45.1432 97.103C40.6943 97.9874 36.083 97.5327 31.8926 95.7963C27.7021 94.0598 24.1207 91.1197 21.6012 87.3478C19.0818 83.5759 17.7374 79.1415 17.7383 74.6055C17.7416 68.5246 20.159 62.6938 24.4593 58.3943C28.7595 54.0948 34.5908 51.6785 40.6717 51.6763Z" fill="#7D67BF"/>
<path d="M116.601 128.805C121.137 128.805 125.572 130.15 129.343 132.67C133.114 135.191 136.054 138.773 137.79 142.963C139.525 147.154 139.979 151.766 139.094 156.214C138.209 160.663 136.024 164.749 132.816 167.957C129.609 171.164 125.522 173.348 121.073 174.232C116.624 175.116 112.013 174.662 107.822 172.925C103.632 171.189 100.05 168.249 97.5309 164.477C95.0114 160.705 93.6671 156.27 93.668 151.734C93.6713 145.653 96.0887 139.823 100.389 135.523C104.689 131.224 110.521 128.807 116.601 128.805Z" fill="#7D67BF"/>
<path d="M40.6726 66.8926C42.1991 66.8926 43.6914 67.3453 44.9606 68.1935C46.2299 69.0417 47.219 70.2473 47.803 71.6577C48.387 73.0681 48.5396 74.6201 48.2415 76.1172C47.9434 77.6144 47.2079 78.9895 46.1282 80.0687C45.0485 81.1478 43.6729 81.8825 42.1756 82.1798C40.6783 82.4771 39.1264 82.3237 37.7163 81.7389C36.3062 81.1542 35.1012 80.1643 34.2537 78.8946C33.4062 77.6249 32.9542 76.1324 32.9551 74.6059C32.9551 73.5926 33.1547 72.5892 33.5426 71.6532C33.9305 70.7171 34.499 69.8666 35.2157 69.1503C35.9324 68.434 36.7832 67.8659 37.7195 67.4785C38.6558 67.0911 39.6593 66.892 40.6726 66.8926Z" fill="#FCBB41"/>
<path d="M116.6 144.021C118.127 144.021 119.619 144.474 120.888 145.322C122.158 146.17 123.147 147.376 123.731 148.786C124.315 150.197 124.467 151.748 124.169 153.246C123.871 154.743 123.136 156.118 122.056 157.197C120.976 158.276 119.601 159.011 118.103 159.308C116.606 159.606 115.054 159.452 113.644 158.867C112.234 158.283 111.029 157.293 110.181 156.023C109.334 154.753 108.882 153.261 108.883 151.734C108.884 149.688 109.698 147.726 111.145 146.28C112.592 144.834 114.554 144.021 116.6 144.021Z" fill="#FCBB41"/>
<path d="M74.5383 97.539C72.0108 97.6022 65.4896 103.395 65.1358 106.942C64.7819 110.489 83.6713 128.965 86.6706 128.805C89.67 128.645 96.8989 121.972 96.0732 118.771C95.2475 115.569 78.7172 97.4337 74.5383 97.539Z" fill="#7D67BF"/>
<path d="M-40.5199 127.752C-42.4114 125.928 -38.1271 120.814 -36.3747 119.782C-34.6222 118.75 -14.0141 111.559 -11.9078 113.172C-9.80153 114.786 79.0846 204.502 79.5058 208.196C79.9271 211.891 74.0547 230.679 72.5297 232.511C71.0048 234.344 67.66 238.687 63.6201 237.567C60.9619 236.825 -31.4965 136.434 -40.503 127.752H-40.5199Z" fill="#FCBB41"/>
<path d="M59.5796 205.083C60.6779 205.083 61.7515 205.409 62.6647 206.019C63.5778 206.629 64.2894 207.497 64.7096 208.511C65.1297 209.526 65.2394 210.643 65.0248 211.72C64.8102 212.797 64.281 213.786 63.5041 214.563C62.7272 215.339 61.7375 215.868 60.6602 216.081C59.5829 216.295 58.4664 216.184 57.4519 215.764C56.4374 215.343 55.5706 214.63 54.961 213.717C54.3514 212.803 54.0265 211.729 54.0273 210.631C54.0273 209.902 54.171 209.18 54.4501 208.507C54.7291 207.834 55.1382 207.222 55.6538 206.706C56.1694 206.191 56.7815 205.783 57.4551 205.504C58.1287 205.226 58.8506 205.082 59.5796 205.083Z" fill="#7D67BF"/>
<path d="M189.774 147.362C144.105 88.6128 70.3804 21.7629 48.8708 2.67134C47.0147 1.04765 44.6584 0.108608 42.1943 0.0105016C39.7301 -0.0876049 37.3067 0.661143 35.3273 2.13213C-6.7988 33.7478 -42.9599 75.0566 -56.5497 91.3552C-58.2209 93.3819 -59.0928 95.9499 -59.0013 98.575C-58.9097 101.2 -57.8609 103.701 -56.0526 105.606C-50.9048 111.001 -45.7781 116.381 -40.6724 121.745C-41.6666 123.097 -42.4838 124.631 -42.6481 125.996C-42.7358 126.528 -42.6944 127.074 -42.5272 127.587C-42.3601 128.1 -42.0722 128.566 -41.6876 128.944C-38.0943 132.411 -21.1891 150.509 -1.60886 171.466C12.4402 186.505 28.3681 203.554 40.572 216.461C61.6351 238.75 62.3765 238.952 63.1516 239.167C63.7426 239.333 64.3534 239.418 64.9672 239.42C66.5652 239.375 68.1125 238.849 69.4073 237.912C75.0438 243.911 79.5934 248.713 82.8329 252.146C84.6686 254.106 87.174 255.303 89.8516 255.5C92.5292 255.698 95.1832 254.881 97.2864 253.212C132.837 224.777 173.535 179.213 189.395 160.956C191.007 159.077 191.925 156.701 191.994 154.226C192.063 151.751 191.279 149.328 189.774 147.362ZM64.2637 235.991C60.7125 233.261 26.1649 196.283 0.851299 169.187C-18.6868 148.284 -35.5709 130.196 -39.3117 126.581C-39.5055 125.545 -36.9063 122.053 -35.5204 121.235C-33.6079 120.136 -15.8685 114.158 -12.806 114.621C-10.5564 116.69 10.2749 137.572 32.5301 160.366C71.4336 200.213 77.0659 207.324 77.8283 208.58C77.9421 212.32 72.4615 229.752 71.2188 231.433L70.9913 231.707C69.58 233.417 66.9851 236.564 64.2637 235.991ZM186.851 158.736C171.062 176.934 130.524 222.317 95.2011 250.571C93.7568 251.718 91.9337 252.278 90.0946 252.142C88.2555 252.005 86.5353 251.181 85.2762 249.834C82.0578 246.421 77.5377 241.64 71.9475 235.726C72.5963 235.039 73.1481 234.378 73.582 233.851L73.8011 233.586C75.7389 231.256 81.5776 211.988 81.1563 208.015C81.0468 206.979 80.8403 205.066 35.6306 158.728C14.041 136.607 -9.63389 112.81 -10.8892 111.833C-11.6602 111.243 -12.9534 110.253 -24.7909 113.876C-30.0271 115.481 -36.0849 117.646 -37.2518 118.329C-37.6766 118.596 -38.0757 118.902 -38.4439 119.243C-43.4822 113.94 -48.5373 108.62 -53.6093 103.281C-54.845 101.975 -55.5611 100.262 -55.6232 98.4645C-55.6852 96.6673 -55.0889 94.9092 -53.9463 93.5205C-40.4449 77.3062 -4.50714 36.229 37.3494 4.8282C38.7065 3.81877 40.3684 3.3046 42.0585 3.37129C43.7485 3.43797 45.3648 4.08148 46.6382 5.19469C68.0888 24.2357 141.624 90.9087 187.112 149.426C188.142 150.772 188.678 152.431 188.632 154.126C188.586 155.82 187.96 157.447 186.859 158.736H186.851ZM48.6771 19.4291C47.1353 18.0515 45.1495 17.2744 43.0822 17.2396C41.0149 17.2048 39.004 17.9146 37.4168 19.2395C27.0537 27.8754 0.851303 50.4508 -18.5688 73.5401C-19.9567 75.1949 -20.672 77.3109 -20.5729 79.4684C-20.4738 81.6259 -19.5676 83.6673 -18.0338 85.188L-17.503 85.723C41.7431 145.003 83.7555 187.108 107.359 210.863C108.91 212.426 110.998 213.339 113.198 213.417C115.399 213.495 117.546 212.733 119.205 211.284C129.917 201.856 156.579 177.912 172.81 159.17C174.111 157.635 174.838 155.696 174.865 153.684C174.891 151.672 174.217 149.714 172.958 148.145C160.307 132.592 113.956 77.3862 48.6686 19.4291H48.6771ZM170.253 156.967C154.157 175.536 127.638 199.362 116.98 208.74C115.968 209.624 114.657 210.09 113.314 210.043C111.97 209.996 110.695 209.44 109.747 208.487C86.1567 184.732 44.1275 142.623 -15.1271 83.3386L-15.6621 82.8036C-16.5965 81.8771 -17.1492 80.6337 -17.2109 79.3193C-17.2725 78.0049 -16.8386 76.7152 -15.9949 75.7054C3.24828 52.8267 29.2696 30.4072 39.5736 21.8345C40.5421 21.0257 41.7694 20.5925 43.031 20.6142C44.2926 20.6359 45.5042 21.1109 46.4444 21.9525C111.525 79.7368 157.733 134.77 170.337 150.252C171.104 151.207 171.515 152.399 171.499 153.624C171.484 154.849 171.043 156.031 170.253 156.967ZM60.6957 49.6167C54.974 43.7634 47.1717 40.4074 38.9874 40.2796C30.8032 40.1518 22.8998 43.2624 16.9982 48.9342L16.0672 49.8357C13.1071 52.6933 10.7459 56.112 9.12153 59.8922C7.49716 63.6724 6.64217 67.7383 6.60648 71.8526C6.5708 75.9668 7.35513 80.047 8.91367 83.8548C10.4722 87.6626 12.7738 91.1217 15.6839 94.0302L98.4196 176.699C104.063 182.359 111.693 185.592 119.685 185.709H120.203C128.018 185.723 135.542 182.75 141.237 177.398C144.23 174.599 146.635 171.23 148.31 167.49C149.986 163.75 150.898 159.713 150.994 155.615C151.09 151.518 150.367 147.443 148.868 143.629C147.369 139.814 145.124 136.337 142.264 133.401L60.6957 49.6167ZM138.936 174.942C133.753 179.829 126.866 182.499 119.743 182.381C112.619 182.264 105.824 179.369 100.804 174.314L18.064 91.6459C15.4707 89.0535 13.4198 85.9706 12.031 82.5769C10.6421 79.1833 9.94317 75.5471 9.97494 71.8804C10.0067 68.2137 10.7685 64.5901 12.216 61.221C13.6634 57.852 15.7674 54.805 18.4053 52.258L19.3362 51.3607C24.5959 46.3056 31.6397 43.533 38.9339 43.6466C46.2281 43.7602 53.1821 46.7508 58.2818 51.9673L139.834 135.756C142.379 138.371 144.376 141.468 145.71 144.864C147.044 148.26 147.687 151.889 147.602 155.537C147.517 159.185 146.705 162.779 145.214 166.11C143.724 169.44 141.584 172.44 138.92 174.933L138.936 174.942ZM40.6731 49.9916C35.803 49.9874 31.041 51.4278 26.9896 54.1306C22.9383 56.8334 19.7796 60.6771 17.9132 65.1754C16.0467 69.6737 15.5565 74.6245 16.5043 79.4016C17.4522 84.1786 19.7956 88.5671 23.2382 92.012C26.6807 95.4569 31.0677 97.8034 35.844 98.7545C40.6204 99.7057 45.5716 99.2188 50.0712 97.3554C54.5708 95.4921 58.4166 92.336 61.1222 88.2865C63.8277 84.237 65.2714 79.476 65.2705 74.6059C65.2627 68.0831 62.6693 61.8294 58.0585 57.2155C53.4478 52.6016 47.1959 50.0039 40.6731 49.9916ZM40.6731 95.8543C36.4697 95.8585 32.3594 94.6158 28.8624 92.2835C25.3653 89.9513 22.6386 86.6342 21.0271 82.7519C19.4156 78.8696 18.9919 74.5966 19.8093 70.4734C20.6268 66.3503 22.6489 62.5622 25.6197 59.5885C28.5905 56.6147 32.3766 54.5889 36.4989 53.7673C40.6213 52.9457 44.8947 53.3653 48.7786 54.9729C52.6625 56.5805 55.9822 59.304 58.318 62.7987C60.6537 66.2934 61.9005 70.4025 61.9005 74.6059C61.8938 80.2356 59.6559 85.6332 55.677 89.616C51.6982 93.5988 46.3028 95.842 40.6731 95.8543ZM116.601 127.12C111.732 127.119 106.971 128.563 102.922 131.268C98.8732 133.972 95.7171 137.817 93.8533 142.316C91.9894 146.814 91.5016 151.765 92.4513 156.541C93.4011 161.316 95.7459 165.703 99.1891 169.147C102.632 172.59 107.019 174.935 111.795 175.884C116.571 176.834 121.521 176.346 126.02 174.483C130.519 172.619 134.363 169.463 137.068 165.413C139.773 161.364 141.216 156.604 141.215 151.735C141.208 145.209 138.612 138.953 133.998 134.338C129.383 129.724 123.127 127.128 116.601 127.12ZM116.601 172.983C112.398 172.984 108.29 171.738 104.795 169.404C101.3 167.07 98.5761 163.751 96.9672 159.869C95.3584 155.986 94.937 151.714 95.7563 147.592C96.5758 143.47 98.5991 139.683 101.571 136.711C104.542 133.739 108.328 131.715 112.45 130.895C116.572 130.075 120.845 130.495 124.727 132.103C128.61 133.711 131.929 136.435 134.264 139.929C136.599 143.424 137.845 147.532 137.845 151.735C137.839 157.367 135.598 162.767 131.616 166.751C127.633 170.734 122.234 172.975 116.601 172.983ZM40.6731 65.2075C38.8131 65.2067 36.9946 65.7576 35.4478 66.7904C33.9009 67.8232 32.6951 69.2917 31.9829 71.0099C31.2707 72.7282 31.0841 74.6191 31.4468 76.4434C31.8095 78.2677 32.7051 79.9435 34.0203 81.2587C35.3355 82.5739 37.0113 83.4695 38.8356 83.8322C40.6599 84.1948 42.5508 84.0083 44.269 83.2961C45.9873 82.5839 47.4557 81.3781 48.4886 79.8312C49.5214 78.2844 50.0723 76.4659 50.0714 74.6059C50.0681 72.1143 49.0768 69.7258 47.315 67.964C45.5532 66.2021 43.1647 65.2109 40.6731 65.2075ZM40.6731 80.6383C39.4798 80.6392 38.3131 80.2861 37.3205 79.6237C36.3279 78.9614 35.5541 78.0195 35.0968 76.9173C34.6396 75.8151 34.5195 74.6021 34.7518 73.4316C34.9841 72.2611 35.5583 71.1859 36.4018 70.3418C37.2453 69.4977 38.3202 68.9228 39.4905 68.6896C40.6608 68.4565 41.8739 68.5758 42.9764 69.0322C44.079 69.4887 45.0214 70.2619 45.6844 71.254C46.3475 72.2461 46.7014 73.4126 46.7014 74.6059C46.7002 76.2047 46.0649 77.7378 44.9347 78.8688C43.8046 79.9997 42.2719 80.6361 40.6731 80.6383ZM116.601 142.336C114.741 142.335 112.923 142.886 111.376 143.919C109.829 144.952 108.623 146.42 107.911 148.139C107.199 149.857 107.012 151.748 107.375 153.572C107.738 155.396 108.633 157.072 109.948 158.387C111.264 159.703 112.939 160.598 114.764 160.961C116.588 161.324 118.479 161.137 120.197 160.425C121.915 159.713 123.384 158.507 124.417 156.96C125.45 155.413 126 153.595 126 151.735C125.996 149.243 125.005 146.854 123.243 145.093C121.481 143.331 119.093 142.34 116.601 142.336ZM116.601 157.767C115.408 157.768 114.241 157.415 113.249 156.752C112.256 156.09 111.482 155.148 111.025 154.046C110.568 152.944 110.448 151.731 110.68 150.56C110.912 149.39 111.486 148.315 112.33 147.47C113.173 146.626 114.248 146.051 115.419 145.818C116.589 145.585 117.802 145.704 118.905 146.161C120.007 146.617 120.949 147.391 121.613 148.383C122.276 149.375 122.629 150.541 122.629 151.735C122.628 153.333 121.993 154.867 120.863 155.997C119.733 157.128 118.2 157.765 116.601 157.767ZM95.9594 123.856C97.5139 121.749 98.1036 119.887 97.7076 118.354C97.0547 115.826 90.9254 109.002 87.7743 105.745C81.3711 99.1191 76.9184 95.7869 74.4962 95.8543C71.0629 95.9385 63.8888 102.481 63.4591 106.773C63.3791 107.582 63.1642 109.722 71.4631 118.417C74.1692 121.264 77.0237 123.967 80.0147 126.514C84.0841 129.93 85.6343 130.49 86.6201 130.49H86.7549C89.4551 130.343 93.693 126.943 95.9552 123.851L95.9594 123.856ZM86.6917 127.112C85.6217 126.787 81.5228 123.742 75.7894 118.013C69.8918 112.115 67.0272 108.083 66.8334 107.06C67.2041 104.166 73.0976 99.2918 74.5888 99.2412C75.5367 99.296 79.1974 101.714 85.4279 108.168C90.7863 113.716 94.1691 118.223 94.4555 119.209C94.5229 119.474 94.3628 120.372 93.2549 121.88C91.1612 124.694 87.9091 126.939 86.6748 127.112H86.6917ZM-14.8322 126.067C-16.2642 126.065 -17.6647 126.487 -18.8565 127.281C-20.0483 128.074 -20.9779 129.204 -21.5276 130.526C-22.0773 131.848 -22.2224 133.304 -21.9446 134.709C-21.6668 136.113 -20.9785 137.404 -19.9669 138.417C-18.9552 139.431 -17.6657 140.121 -16.2615 140.402C-14.8572 140.682 -13.4014 140.539 -12.0782 139.992C-10.7551 139.445 -9.624 138.517 -8.8282 137.327C-8.0324 136.136 -7.60762 134.736 -7.60762 133.304C-7.60985 131.385 -8.37364 129.545 -9.73132 128.188C-11.089 126.831 -12.9296 126.068 -14.8491 126.067H-14.8322ZM-14.8322 137.172C-15.5973 137.172 -16.3454 136.946 -16.9819 136.522C-17.6184 136.097 -18.1147 135.494 -18.4081 134.787C-18.7014 134.081 -18.7786 133.303 -18.6298 132.553C-18.4811 131.802 -18.1131 131.113 -17.5725 130.571C-17.0318 130.03 -16.3427 129.661 -15.5925 129.512C-14.8422 129.362 -14.0644 129.439 -13.3575 129.731C-12.6507 130.024 -12.0464 130.519 -11.6213 131.155C-11.1962 131.792 -10.9693 132.539 -10.9693 133.304C-10.9698 133.813 -11.0707 134.317 -11.266 134.787C-11.4613 135.256 -11.7473 135.683 -12.1077 136.042C-12.468 136.401 -12.8956 136.686 -13.366 136.88C-13.8364 137.074 -14.3403 137.173 -14.8491 137.172H-14.8322ZM59.5793 203.398C58.1475 203.397 56.7477 203.821 55.5569 204.616C54.3661 205.411 53.4378 206.541 52.8895 207.864C52.3412 209.186 52.1976 210.642 52.4767 212.046C52.7558 213.45 53.4452 214.74 54.4576 215.753C55.47 216.765 56.7599 217.455 58.1642 217.734C59.5685 218.013 61.024 217.869 62.3466 217.321C63.6692 216.773 64.7995 215.844 65.5944 214.653C66.3893 213.463 66.8132 212.063 66.8124 210.631C66.8101 208.713 66.0474 206.875 64.6914 205.519C63.3354 204.163 61.4969 203.4 59.5793 203.398ZM59.5793 214.498C58.8143 214.499 58.0662 214.273 57.4297 213.849C56.7932 213.424 56.2968 212.82 56.0035 212.114C55.7102 211.407 55.633 210.63 55.7817 209.879C55.9304 209.129 56.2984 208.439 56.8391 207.898C57.3798 207.357 58.0688 206.988 58.8191 206.839C59.5694 206.689 60.3471 206.765 61.054 207.058C61.7609 207.35 62.3651 207.846 62.7902 208.482C63.2153 209.118 63.4423 209.866 63.4423 210.631C63.4412 211.656 63.0339 212.638 62.3099 213.363C61.5858 214.088 60.6039 214.496 59.5793 214.498Z" fill="black"/>
</g>
<defs>
<clipPath id="clip0_360_80427">
<rect width="251" height="255.537" fill="white" transform="translate(-59)"/>
</clipPath>
</defs>
</svg>
