<svg width="152" height="338" viewBox="0 0 152 338" fill="none" xmlns="http://www.w3.org/2000/svg">
<g clip-path="url(#clip0_360_80407)">
<path d="M24.5355 86.73C24.5355 86.73 7.50747 88.0662 4.65843 92.533C1.80938 96.9998 -0.00164604 190.996 7.66207 203.74C15.3258 216.483 56.2505 224.964 79.3134 226.598C79.3134 226.598 81.7208 259.004 81.6656 285.633C81.6104 312.263 82.8692 315.51 79.2361 317.437C75.6031 319.364 57.2057 319.303 54.1192 321.655C51.0328 324.007 49.15 328.098 50.1107 334.691L144.593 335.591C144.593 335.591 144.521 324.322 142.075 322.34C137.454 318.546 116.644 319.48 114.645 315.339C112.646 311.197 112.343 299.829 111.73 282.26C111.117 264.691 112.911 236.669 114.645 226.62C114.645 226.62 179.378 218.99 186.65 206.28C193.921 193.569 195.219 95.8017 192.171 92.5385C187.417 87.4699 169.235 86.7355 169.235 86.7355V97.8667C169.235 97.8667 179.35 97.1489 181.018 100.997C182.685 104.846 181.415 192.134 176.788 198.047C172.162 203.961 133.821 211.768 94.9666 212.221C56.1125 212.673 19.0141 201.123 15.9166 194C12.8191 186.877 11.1074 104.178 12.4767 101.66C14.8289 97.3477 25.5901 97.0716 25.5901 97.0716L24.53 86.7355L24.5355 86.73Z" fill="#5CBC65"/>
<path d="M76.4536 269.804C73.6267 272.012 74.7696 298.813 77.2763 302.198C80.4787 306.516 115.816 306.013 117.428 301.27C119.04 296.527 122.397 273.464 118.356 269.798C114.314 266.132 80.7217 266.436 76.4536 269.798V269.804Z" fill="#FE8E90"/>
<path d="M36.3314 79.0171C36.3314 79.0171 24.1015 76.9852 22.1414 79.8343C20.1813 82.6833 19.9991 104.957 20.9598 107.254C21.9205 109.551 36.3314 114.222 36.3314 114.222V79.0171Z" fill="#FE8E90"/>
<path d="M153.207 188.689C150.446 189.766 145.477 191.003 139.21 192.14C135.897 192.736 132.253 193.305 128.394 193.796C119.77 194.93 111.086 195.538 102.388 195.618C100.75 195.618 99.1322 195.6 97.5347 195.563C95.5249 195.503 93.5758 195.442 91.6709 195.37C82.0526 195.017 73.7153 194.492 65.8086 193.41C62.1756 192.907 58.6308 192.306 55.1026 191.516C51.5744 190.726 48.0352 189.815 44.4132 188.689C30.6649 184.404 30.1348 172.009 29.5551 155.561C28.4508 123.674 32.9618 50.6538 32.8679 34.3877C32.7961 15.0959 36.5507 8.53092 54.1088 5.36715C55.9529 5.03586 58.1946 4.71562 60.7345 4.41746C63.9038 4.05305 67.5589 3.71072 71.5343 3.42361C77.8508 2.95429 84.9735 2.5954 92.2562 2.39663C95.8286 2.29724 99.434 2.23651 103.012 2.21994C109.974 2.18681 116.815 2.31381 122.961 2.63957C126.859 2.84938 130.486 3.14202 133.7 3.523C134.716 3.63895 135.693 3.77146 136.621 3.90949C157.911 7.09535 161.97 18.221 161.953 26.0338C161.936 33.8466 162.814 135.358 163.825 156.367C164.747 175.526 159.667 186.149 153.207 188.689Z" fill="#69CDE0"/>
<path d="M71.5617 3.42334C71.374 10.6012 71.0096 21.76 70.5181 24.3164C69.7893 28.1482 62.363 26.8673 61.1317 24.3164C60.2649 22.5495 60.5354 11.2196 60.7839 4.43928C63.9311 4.05278 67.5863 3.71045 71.5617 3.42334Z" fill="#FE8E90"/>
<path d="M139.211 192.145C135.898 192.741 132.254 193.31 128.395 193.801C128.577 186.767 128.947 174.416 129.499 171.716C130.228 167.889 137.654 169.17 138.885 171.716C139.769 173.521 139.459 185.42 139.211 192.145Z" fill="#FE8E90"/>
<path d="M103.018 2.2085C102.835 9.24278 102.466 21.5997 101.913 24.2941C101.185 28.126 93.7582 26.845 92.527 24.2941C91.5662 22.3396 91.9748 8.64646 92.2509 2.37414C95.8343 2.29684 99.4398 2.2361 103.018 2.2085Z" fill="#FE8E90"/>
<path d="M102.389 195.624C100.751 195.624 99.1331 195.605 97.5356 195.568C95.5258 195.508 93.5768 195.447 91.6719 195.375C91.8375 188.799 92.224 174.631 92.7762 171.71C93.4995 167.884 100.931 169.165 102.163 171.71C103.283 173.925 102.593 191.041 102.389 195.624Z" fill="#FE8E90"/>
<path d="M133.707 3.52274C133.508 10.7006 133.154 21.1581 132.685 23.6152C131.956 27.447 124.53 26.166 123.299 23.6152C122.382 21.7489 122.746 9.25948 122.989 2.63379C126.865 2.84912 130.493 3.14176 133.707 3.52274Z" fill="#FE8E90"/>
<path d="M65.8076 193.415C62.1745 192.913 58.6297 192.311 55.1016 191.521C55.2948 184.371 55.6537 174.228 56.112 171.81C56.8353 167.978 64.2616 169.259 65.4984 171.81C66.4646 173.731 66.0616 187.01 65.8076 193.415Z" fill="#FE8E90"/>
<path d="M54.1082 44.475C53.0039 44.845 53.5064 53.0443 54.1082 53.8614C54.71 54.6786 140.424 55.0596 141.004 53.8614C141.584 52.6633 141.761 44.6351 140.209 43.7904C138.658 42.9456 58.6523 42.9787 54.1082 44.475Z" fill="#FE8E90"/>
<path d="M54.6219 96.7017C53.5176 97.0716 54.02 105.276 54.6219 106.088C55.2237 106.9 140.938 107.286 141.518 106.088C142.098 104.89 142.274 96.8618 140.723 96.017C139.171 95.1723 59.1549 95.1999 54.6219 96.6906V96.7017Z" fill="#FE8E90"/>
<path d="M54.1082 146.091C53.0039 146.461 53.5064 154.66 54.1082 155.478C54.71 156.295 140.424 156.676 141.004 155.478C141.584 154.279 141.761 146.251 140.209 145.407C138.658 144.562 58.6523 144.595 54.1082 146.091Z" fill="#FE8E90"/>
<path d="M54.6219 70.7237C53.5176 71.0937 54.02 79.293 54.6219 80.1101C55.2237 80.9273 140.938 81.3083 141.518 80.1101C142.098 78.912 142.274 70.8838 140.723 70.0391C139.171 69.1943 59.1549 69.2219 54.6219 70.7182V70.7237Z" fill="#FE8E90"/>
<path d="M54.7764 121.548C53.6721 121.918 54.1801 130.123 54.7764 130.935C55.3727 131.746 141.098 132.133 141.678 130.935C142.258 129.737 142.429 121.708 140.883 120.864C139.337 120.019 59.315 120.047 54.7764 121.537V121.548Z" fill="#FE8E90"/>
<path d="M195.827 109.843C195.496 92.8428 194.508 91.7937 193.79 91.0262C191.14 88.1992 185.248 86.2171 176.265 85.1238C175.818 80.1214 175.531 79.3539 175.415 79.0503C174.713 77.2006 172.692 76.2896 164.615 77.035C164.328 51.4432 164.156 29.0925 164.162 26.0392C164.162 18.4804 160.656 5.27315 136.952 1.74497C117.694 -1.15377 80.0266 -0.0384468 60.4919 2.20877H60.3538C57.8085 2.50692 55.5668 2.82717 53.7281 3.15845C44.0381 4.93635 38.4559 7.73018 35.0713 12.5614C31.8965 17.0779 30.6265 23.4055 30.6542 34.3986C30.6542 40.1574 30.102 53.5469 29.4394 69.051C29.3401 71.3424 29.2351 73.7055 29.1358 76.1184C24.31 75.9859 21.5493 76.7699 20.3015 78.592C19.7825 79.3595 19.1972 80.7729 18.7445 85.2177C5.45995 87.1778 3.46119 90.3139 2.78758 91.3685C0.291903 95.2832 -0.0669885 132.371 -0.000731564 145.048C0.104175 164.003 0.998644 196.949 5.7581 204.878C14.2887 219.035 57.0189 226.93 77.2438 228.653C77.6138 233.953 78.6407 249.684 79.1542 266.475C77.3763 266.889 75.9297 267.408 75.085 268.07C74.3561 268.622 72.1476 270.384 72.6555 285.639C72.7715 289.09 73.3126 300.547 75.4991 303.512C76.2113 304.473 77.669 305.213 79.6125 305.776C79.6788 313.892 79.3751 314.864 78.199 315.488C76.896 316.178 71.6009 316.681 67.3495 317.084C59.6195 317.813 54.8214 318.337 52.784 319.9C49.8852 322.108 46.7104 326.525 47.9251 335.012C48.0015 335.533 48.2615 336.01 48.6584 336.356C49.0553 336.702 49.5629 336.895 50.0895 336.9L144.572 337.8C145.158 337.8 145.719 337.568 146.134 337.153C146.548 336.739 146.78 336.177 146.78 335.592C146.78 331.892 146.383 323.025 143.468 320.623C140.773 318.415 134.816 317.664 128.505 316.88C124.441 316.366 117.655 315.521 116.6 314.323C115.734 312.485 115.27 308.653 114.988 305.34C117.6 304.517 119.013 303.452 119.51 301.994C120.493 299.09 125.518 273.327 119.825 268.181C118.748 267.203 116.562 266.524 113.923 266.044C114.259 252.307 115.358 236.714 116.556 228.598C121.134 228.012 134.517 226.201 148.354 223.369C183.514 216.191 187.308 209.565 188.555 207.357C193.282 199.075 194.971 161.64 195.479 145.92C195.905 133.105 196.009 119.953 195.827 109.843ZM179.053 149.045C178.142 179.142 176.381 194.663 175.056 196.678C171.616 201.096 136.268 209.527 94.951 210.007C77.3045 210.188 59.7077 208.104 42.5914 203.807C26.0824 199.577 18.8107 195.094 17.9494 193.112C17.088 191.129 15.6966 177.828 14.769 147.212C14.0623 123.884 14.0789 105.277 14.5371 102.533C15.0893 101.754 16.3758 101.025 18.2034 100.451C18.2641 104.537 18.5015 107.11 18.9212 108.104C19.4015 109.247 20.5058 110.605 27.7554 113.471C27.253 129.66 26.9935 144.998 27.3689 155.632C27.9211 171.931 28.4401 186 43.7785 190.793C50.8096 192.984 58.013 194.578 65.3121 195.558C65.457 195.592 65.6049 195.612 65.7538 195.618C73.423 196.651 81.7217 197.203 91.5719 197.573H91.6547C93.5394 197.639 95.4792 197.704 97.4743 197.766C98.8933 197.805 100.323 197.827 101.781 197.827H102.399C111.225 197.743 120.037 197.122 128.786 195.966H128.847C132.657 195.475 136.279 194.912 139.564 194.31C145.974 193.15 151.126 191.869 153.997 190.743C162.406 187.43 166.895 174.543 166.017 156.256C165.675 149.249 165.355 133.066 165.073 114.354C175.265 110.059 176.033 108.684 176.453 107.938C176.756 107.386 177.198 106.602 177.104 100.727C178.208 101.07 178.761 101.478 178.959 101.832C179.6 104.416 179.765 125.419 179.053 149.078V149.045ZM63.6943 190.864C61.5465 190.533 59.4428 190.163 57.3612 189.76C57.6373 180.374 57.9741 173.869 58.2833 172.241C58.2833 172.141 58.3606 171.843 59.2275 171.689C60.9667 171.379 63.1421 172.241 63.5231 172.793C63.8654 173.886 64.0973 179.275 63.6943 190.864ZM100.274 193.41C99.3736 193.41 98.4847 193.41 97.6013 193.36L93.9351 193.244C94.3602 177.381 94.7578 173.196 94.962 172.119C94.962 172.025 95.0338 171.727 95.8951 171.567C97.6344 171.252 99.8154 172.119 100.202 172.671C100.599 173.969 100.776 180.942 100.274 193.41ZM137.068 190.252C135.047 190.594 132.905 190.931 130.675 191.245C130.967 180.755 131.315 173.831 131.641 172.125C131.641 172.025 131.718 171.727 132.579 171.573C134.313 171.263 136.489 172.125 136.881 172.677C136.997 173.074 137.549 175.852 137.068 190.252ZM171.4 81.303C171.544 82.2527 171.759 84.1134 172.013 87.2937C172.3 90.9434 172.527 94.8802 172.632 98.0936C172.814 103.317 172.632 105.172 172.565 105.763C171.892 106.315 169.727 107.535 165.023 109.584C164.891 100.407 164.769 90.8109 164.664 81.4686C168.695 81.0932 170.611 81.1926 171.4 81.303ZM125.275 22.6656C124.938 21.5613 124.722 16.3049 125.092 4.99708C127.329 5.14064 129.454 5.30628 131.436 5.51057C131.033 19.165 130.658 22.4392 130.514 23.2122C130.514 23.3116 130.437 23.6153 129.565 23.7644C127.825 24.0736 125.656 23.2233 125.275 22.6656ZM94.5314 23.3668C94.178 22.2294 93.9516 16.6473 94.3823 4.59402C96.5025 4.54433 98.6283 4.5112 100.748 4.48911C100.45 15.0129 100.091 22.2073 99.7712 23.9245C99.7712 24.0183 99.6939 24.322 98.8215 24.4766C97.0878 24.7748 94.9123 23.9245 94.5314 23.3668ZM63.109 23.3668C62.9931 22.9582 62.452 20.2527 62.9047 6.40504C64.8814 6.19523 67.0182 6.00198 69.2875 5.81977C69.0059 15.5651 68.6636 22.2515 68.3488 23.9024C68.3488 23.9963 68.2715 24.2999 67.3991 24.4545C65.6599 24.7693 63.4955 23.9245 63.109 23.3723V23.3668ZM35.0934 34.3765C35.005 15.416 38.6492 10.397 54.5122 7.54245C55.6717 7.33264 57.0023 7.12835 58.4655 6.9351C57.9686 22.9141 58.7747 24.5705 59.1281 25.2938C60.2765 27.6294 63.6888 28.9434 66.6372 28.9434C67.0397 28.9433 67.4417 28.9175 67.8409 28.8661C70.4525 28.5128 72.258 26.9668 72.6887 24.7306C73.1525 22.2957 73.4948 13.3234 73.7156 5.49953C78.7733 5.1572 84.2891 4.88113 89.9596 4.69893C89.3192 22.776 90.175 24.5318 90.5504 25.2938C91.6989 27.6294 95.1111 28.9434 98.0596 28.9434C98.462 28.9433 98.8641 28.9175 99.2632 28.8661C101.875 28.5128 103.68 26.9668 104.111 24.7251C104.58 22.2294 104.939 12.7491 105.166 4.44494H105.398C110.698 4.44494 115.888 4.54433 120.681 4.75414C120.084 22.1135 120.924 23.8417 121.294 24.5926C122.442 26.9281 125.854 28.2422 128.803 28.2422C129.205 28.2421 129.607 28.2163 130.006 28.1649C132.618 27.8116 134.424 26.2656 134.854 24.0239C135.208 22.1521 135.539 16.0951 135.843 6.02959L136.301 6.09584C155.703 9.00011 159.756 18.5356 159.745 26.0281C159.745 32.8913 160.579 134.883 161.622 156.472C162.544 175.697 157.205 184.736 152.401 186.635C150.298 187.463 146.449 188.457 141.513 189.434C142.027 173.124 141.22 171.462 140.862 170.733C139.547 168.072 135.296 166.747 132.143 167.172C129.537 167.525 127.726 169.066 127.301 171.302C126.914 173.35 126.556 180.252 126.235 191.825C119.089 192.711 111.902 193.234 104.702 193.393C105.513 173.433 104.525 171.412 104.194 170.755C102.88 168.094 98.6227 166.758 95.47 167.194C92.8639 167.547 91.0529 169.093 90.6332 171.319C90.2357 173.417 89.8658 180.738 89.529 193.101C81.5064 192.769 74.5549 192.289 68.1004 191.494C68.7519 173.389 67.885 171.617 67.5096 170.855C66.19 168.188 61.933 166.857 58.7802 167.288C56.1741 167.647 54.3631 169.193 53.949 171.423C53.5349 173.654 53.1926 181.627 52.9772 188.788C50.349 188.153 47.7319 187.436 45.0761 186.607C33.2989 182.936 32.3768 172.909 31.764 155.505C31.0462 135.115 32.686 97.0556 33.8787 69.2663C34.5688 53.0389 35.121 40.2403 35.0934 34.3765ZM28.9701 80.5355C28.5891 89.6017 28.2026 99.2642 27.8658 108.767C24.426 107.325 23.2886 106.558 22.9518 106.26C22.7861 105.382 22.5708 102.56 22.5874 97.6905V97.6574C22.5874 93.9912 22.7364 90.3195 22.9794 87.3158C23.3493 82.733 23.8242 81.3913 23.9235 81.1484C24.1554 80.9993 25.2929 80.4472 28.9701 80.5355ZM112.636 316.278C114.127 319.37 119.427 320.181 127.947 321.247C132.85 321.86 138.946 322.627 140.646 324.008C141.408 324.803 142.109 328.9 142.303 333.361L52.0993 332.505C51.8509 328.353 52.9772 325.3 55.4563 323.411C56.6821 322.534 63.6225 321.876 67.7636 321.484C74.2291 320.872 78.2874 320.441 80.2696 319.392C83.8088 317.515 84.1346 314.594 84.0407 306.693C87.7705 307.168 91.528 307.391 95.2878 307.361C100.273 307.389 105.255 307.07 110.196 306.405L110.659 306.328C111.107 311.303 111.725 314.351 112.636 316.278ZM117.788 284.96C117.235 291.719 116.054 298.212 115.375 300.371C114.95 300.724 113.823 301.144 112.062 301.536H112.012C108.942 302.22 103.945 302.833 97.27 302.927C90.4566 303.015 85.3548 302.524 82.2683 301.917H82.1524C80.4573 301.574 79.3917 301.199 78.9996 300.867C78.4033 299.863 77.3874 294.579 77.0616 286.158C76.7359 277.738 77.3543 272.642 77.923 271.46C79.3696 270.621 86.2382 269.445 97.3473 269.395C101.958 269.32 106.569 269.547 111.151 270.075C111.234 270.075 111.322 270.075 111.41 270.108C114.486 270.516 116.33 271.024 116.849 271.455C117.517 272.029 118.544 275.602 117.81 284.96H117.788ZM184.735 205.165C179.837 213.717 138.99 221.508 114.386 224.407C113.914 224.463 113.472 224.67 113.127 224.997C112.782 225.325 112.552 225.755 112.47 226.224C111.162 233.826 109.909 250.656 109.528 265.426C105.061 264.989 100.301 264.929 97.4798 264.945C92.8258 264.948 88.1754 265.204 83.5493 265.713C82.9088 245.283 81.5284 226.616 81.5174 226.417C81.4776 225.888 81.2487 225.391 80.8725 225.017C80.4964 224.643 79.9982 224.416 79.4689 224.379C55.2189 222.657 16.3647 213.889 9.55683 202.586C6.62496 197.7 4.64278 176.001 4.4164 145.959C4.21763 117.761 5.52068 96.266 6.54766 93.6544C7.35931 92.5501 10.9317 90.8937 18.3911 89.7176C18.2862 91.6556 18.2144 93.7483 18.1868 95.8685C14.2832 96.8513 11.7102 98.4359 10.5341 100.595C10.1863 101.23 9.7556 102.019 9.78321 116.149C9.78321 124.519 9.9875 135.474 10.3022 146.163C10.7826 162.379 11.8813 190.274 13.8801 194.878C16.5911 201.112 34.0829 206.197 41.4872 208.091C58.2308 212.29 75.4252 214.424 92.6872 214.446H95.0007C132.232 214.016 172.853 206.716 178.529 199.423C179.186 198.583 180.549 196.839 181.841 181.125C182.714 170.485 183.216 157.692 183.498 148.83C183.84 137.235 184.508 103.449 183.073 100.125C182.222 98.1764 180.18 96.8458 176.999 96.1611C176.911 94.1072 176.789 91.871 176.635 89.6459C183.47 90.5569 188.489 92.0918 190.4 93.8697C192.873 101.5 191.283 193.719 184.735 205.165ZM66.2562 56.5671C73.4341 56.6941 83.0192 56.7824 93.2835 56.8211C96.497 56.8211 99.8651 56.8211 103.266 56.8211C118.986 56.8211 135.401 56.683 140.033 56.2689C141.138 56.1695 142.419 56.0591 143.02 54.8113C143.777 53.2487 143.655 49.08 143.639 48.6052C143.473 43.6801 142.358 42.4212 141.292 41.8415C140.663 41.4991 140.249 41.2893 126.793 41.1126C118.969 41.0188 108.572 40.9912 98.297 41.0353C82.837 41.1016 56.4888 41.3611 53.4465 42.3605C53.0117 42.5148 52.6215 42.7739 52.3104 43.1148C51.9994 43.4557 51.7771 43.8679 51.6631 44.3151C50.9895 46.3801 51.1496 53.5579 52.3312 55.1646C53.1318 56.2689 53.176 56.3186 66.2562 56.5671ZM55.7655 46.4187C65.4611 45.2316 130.559 45.3144 138.94 45.8666C139.283 47.872 139.369 49.9131 139.194 51.9401C129.256 52.6248 66.3114 52.5806 55.9367 51.8794C55.6987 50.0695 55.6266 48.2417 55.7214 46.4187H55.7655ZM66.8084 108.811C73.9862 108.938 83.5658 109.026 93.8633 109.065C97.0712 109.065 100.434 109.065 103.802 109.065C119.527 109.065 135.947 108.927 140.58 108.513C141.684 108.413 142.965 108.297 143.567 107.055C144.219 105.708 145.141 95.8795 141.839 94.0851C141.209 93.7427 140.795 93.5329 127.34 93.3562C119.521 93.2624 109.119 93.2348 98.8436 93.2789C83.3836 93.3452 57.0299 93.5992 53.9932 94.6041C53.5575 94.7571 53.1666 95.0158 52.8554 95.3569C52.5442 95.698 52.3223 96.1109 52.2097 96.5587C51.5527 98.5961 51.7128 105.768 52.8944 107.392C53.6343 108.501 53.6784 108.562 66.7476 108.8L66.8084 108.811ZM56.2845 98.6623C65.9857 97.4752 131.078 97.558 139.465 98.1102C139.803 100.116 139.887 102.157 139.713 104.184C129.775 104.868 66.8304 104.824 56.4557 104.123C56.2115 102.31 56.1339 100.478 56.2238 98.6513L56.2845 98.6623ZM66.2562 158.183C73.4341 158.31 83.0192 158.398 93.2835 158.437C96.497 158.437 99.8651 158.437 103.266 158.437C118.986 158.437 135.401 158.299 140.033 157.885C141.138 157.786 142.419 157.675 143.02 156.427C143.777 154.865 143.655 150.696 143.639 150.221C143.473 145.296 142.358 144.037 141.292 143.458C140.663 143.115 140.249 142.905 126.793 142.729C118.969 142.635 108.572 142.607 98.297 142.651C82.837 142.718 56.4888 142.977 53.4465 143.977C53.0117 144.131 52.6215 144.39 52.3104 144.731C51.9994 145.072 51.7771 145.484 51.6631 145.931C50.9895 147.974 51.1496 155.152 52.3312 156.808C53.1318 157.913 53.176 157.951 66.2562 158.183ZM55.7655 148.035C65.4611 146.848 130.559 146.93 138.94 147.483C139.283 149.488 139.369 151.529 139.194 153.556C129.256 154.241 66.3114 154.197 55.9367 153.495C55.6987 151.686 55.6266 149.858 55.7214 148.035H55.7655ZM141.778 68.1068C141.149 67.7645 140.735 67.5547 127.279 67.378C119.461 67.2841 109.058 67.2565 98.7829 67.3007C83.3229 67.367 56.9692 67.6265 53.9324 68.6258C53.4975 68.7802 53.1073 69.0392 52.7963 69.3801C52.4853 69.721 52.263 70.1332 52.149 70.5804C51.492 72.6178 51.6521 79.7846 52.8337 81.4134C53.6343 82.5177 53.6784 82.584 66.7476 82.8159C73.9255 82.9429 83.5106 83.0312 93.8025 83.0698C97.005 83.0698 100.368 83.0698 103.769 83.0698C119.494 83.0698 135.914 82.9318 140.547 82.5177C141.651 82.4183 142.927 82.3079 143.528 81.0656C144.158 79.7294 145.08 69.9013 141.778 68.1068ZM139.652 78.1779C129.714 78.8625 66.7697 78.8239 56.395 78.1171C56.1723 76.3096 56.115 74.4855 56.2238 72.6675C65.9249 71.4859 131.017 71.5632 139.404 72.1154C139.741 74.1177 139.825 76.1546 139.652 78.1779ZM141.938 118.937C141.309 118.595 140.895 118.385 127.439 118.208C119.615 118.114 109.218 118.087 98.9375 118.131C83.4775 118.197 57.1293 118.451 54.087 119.45C53.6523 119.606 53.2625 119.866 52.9524 120.208C52.6423 120.55 52.4213 120.963 52.3091 121.411C51.6521 123.448 51.8067 130.615 52.9938 132.244C53.7889 133.348 53.8386 133.409 66.9022 133.646C74.0801 133.773 83.6652 133.861 93.9571 133.9C97.1651 133.9 100.533 133.9 103.929 133.9C119.648 133.9 136.069 133.762 140.707 133.348C141.811 133.248 143.092 133.138 143.694 131.89C144.445 130.328 144.329 126.159 144.312 125.684C144.108 120.77 143.004 119.517 141.938 118.937ZM139.812 129.008C129.874 129.693 66.9298 129.648 56.5496 128.947C56.3315 127.139 56.2761 125.315 56.3839 123.498C66.0795 122.311 131.177 122.393 139.558 122.945C139.898 124.948 139.983 126.985 139.812 129.008Z" fill="black"/>
</g>
<defs>
<clipPath id="clip0_360_80407">
<rect width="195.922" height="337.8" fill="white"/>
</clipPath>
</defs>
</svg>
