<svg width="79" height="32" viewBox="0 0 79 32" fill="none" xmlns="http://www.w3.org/2000/svg">
<mask id="path-1-outside-1_360_80019" maskUnits="userSpaceOnUse" x="-1.3457" y="-2" width="82" height="36" fill="black">
<rect fill="white" x="-1.3457" y="-2" width="82" height="36"/>
<path d="M7.00185 9.65245V16H0.654297L0.654297 0.131114L7.00185 0.131114H11.7625L16.5232 0.131114V1.718H18.1101V8.06556H16.5232V9.65245L7.00185 9.65245ZM7.00185 3.30489V6.47867L11.7625 6.47867L11.7625 3.30489H7.00185ZM35.5534 14.4131V16H21.2715V14.4131H19.6846L19.6846 0.131114L26.0321 0.131114L26.0321 12.8262H30.7928L30.7928 0.131114L37.1403 0.131114V14.4131H35.5534ZM45.0624 8.06556V16H38.7148V0.131114L45.0624 0.131114V1.718H46.6493V3.30489H48.2362V4.89178H49.823V3.30489H51.4099V1.718L52.9968 1.718V0.131114H59.3444V16H52.9968V8.06556H51.4099V9.65245H49.823V11.2393H48.2362V9.65245H46.6493V8.06556H45.0624ZM67.285 9.65245V16H60.9375V0.131114H67.285L72.0457 0.131114L76.8064 0.131114V1.718H78.3932V8.06556H76.8064V9.65245L67.285 9.65245ZM67.285 3.30489V6.47867H72.0457V3.30489L67.285 3.30489ZM5.60845 25.8073V32H0.654297L0.654297 19.6146H5.60845V20.8532H6.84699V22.0917H8.08553V23.3302H9.32406V22.0917H10.5626V20.8532H11.8011L11.8011 19.6146L16.7553 19.6146V32H11.8011V25.8073H10.5626V27.0458H9.32406V28.2844H8.08553V27.0458H6.84699V25.8073H5.60845ZM19.2372 32V30.7615H17.9987V20.8532H19.2372V19.6146H31.6226V22.0917H22.9528V24.5688H26.6684V27.0458H22.9528V29.5229H31.6226V32H19.2372ZM37.8056 25.8073L37.8056 32H32.8515L32.8515 19.6146H37.8056V20.8532H39.0441V22.0917H40.2827V23.3302H41.5212V22.0917H42.7598V20.8532H43.9983V19.6146L48.9524 19.6146L48.9524 32H43.9983L43.9983 25.8073H42.7598V27.0458H41.5212L41.5212 28.2844H40.2827L40.2827 27.0458H39.0441V25.8073H37.8056ZM51.4344 32V30.7615H50.1958L50.1958 20.8532H51.4344V19.6146H63.8197V22.0917H55.15V24.5688H58.8656V27.0458H55.15L55.15 29.5229H63.8197V32H51.4344ZM65.0486 32V29.5229H73.7184V27.0458H66.2871V25.8073H65.0486V20.8532H66.2871V19.6146H78.6725V22.0917H70.0028V24.5688H73.7184H77.434V25.8073H78.6725V30.7615H77.434V32H65.0486Z"/>
</mask>
<path d="M7.00185 9.65245V16H0.654297L0.654297 0.131114L7.00185 0.131114H11.7625L16.5232 0.131114V1.718H18.1101V8.06556H16.5232V9.65245L7.00185 9.65245ZM7.00185 3.30489V6.47867L11.7625 6.47867L11.7625 3.30489H7.00185ZM35.5534 14.4131V16H21.2715V14.4131H19.6846L19.6846 0.131114L26.0321 0.131114L26.0321 12.8262H30.7928L30.7928 0.131114L37.1403 0.131114V14.4131H35.5534ZM45.0624 8.06556V16H38.7148V0.131114L45.0624 0.131114V1.718H46.6493V3.30489H48.2362V4.89178H49.823V3.30489H51.4099V1.718L52.9968 1.718V0.131114H59.3444V16H52.9968V8.06556H51.4099V9.65245H49.823V11.2393H48.2362V9.65245H46.6493V8.06556H45.0624ZM67.285 9.65245V16H60.9375V0.131114H67.285L72.0457 0.131114L76.8064 0.131114V1.718H78.3932V8.06556H76.8064V9.65245L67.285 9.65245ZM67.285 3.30489V6.47867H72.0457V3.30489L67.285 3.30489ZM5.60845 25.8073V32H0.654297L0.654297 19.6146H5.60845V20.8532H6.84699V22.0917H8.08553V23.3302H9.32406V22.0917H10.5626V20.8532H11.8011L11.8011 19.6146L16.7553 19.6146V32H11.8011V25.8073H10.5626V27.0458H9.32406V28.2844H8.08553V27.0458H6.84699V25.8073H5.60845ZM19.2372 32V30.7615H17.9987V20.8532H19.2372V19.6146H31.6226V22.0917H22.9528V24.5688H26.6684V27.0458H22.9528V29.5229H31.6226V32H19.2372ZM37.8056 25.8073L37.8056 32H32.8515L32.8515 19.6146H37.8056V20.8532H39.0441V22.0917H40.2827V23.3302H41.5212V22.0917H42.7598V20.8532H43.9983V19.6146L48.9524 19.6146L48.9524 32H43.9983L43.9983 25.8073H42.7598V27.0458H41.5212L41.5212 28.2844H40.2827L40.2827 27.0458H39.0441V25.8073H37.8056ZM51.4344 32V30.7615H50.1958L50.1958 20.8532H51.4344V19.6146H63.8197V22.0917H55.15V24.5688H58.8656V27.0458H55.15L55.15 29.5229H63.8197V32H51.4344ZM65.0486 32V29.5229H73.7184V27.0458H66.2871V25.8073H65.0486V20.8532H66.2871V19.6146H78.6725V22.0917H70.0028V24.5688H73.7184H77.434V25.8073H78.6725V30.7615H77.434V32H65.0486Z" fill="#F6C929"/>
<path d="M7.00185 9.65245V8.34872H5.69813V9.65245H7.00185ZM7.00185 16L7.00185 17.3037H8.30558L8.30558 16H7.00185ZM0.654297 16H-0.649428L-0.649428 17.3037H0.654297L0.654297 16ZM0.654297 0.131114L0.654297 -1.17261H-0.649428L-0.649428 0.131114H0.654297ZM16.5232 0.131114H17.8269V-1.17261H16.5232V0.131114ZM16.5232 1.718H15.2195V3.02173H16.5232V1.718ZM18.1101 1.718H19.4138V0.414278H18.1101V1.718ZM18.1101 8.06556V9.36928H19.4138V8.06556H18.1101ZM16.5232 8.06556V6.76183H15.2195V8.06556H16.5232ZM16.5232 9.65245V10.9562H17.8269V9.65245H16.5232ZM7.00185 3.30489V2.00117H5.69813V3.30489H7.00185ZM7.00185 6.47867H5.69813V7.78239H7.00185V6.47867ZM11.7625 6.47867V7.78239H13.0662V6.47867H11.7625ZM11.7625 3.30489L13.0662 3.30489V2.00117L11.7625 2.00117V3.30489ZM5.69813 9.65245V16H8.30558V9.65245H5.69813ZM7.00185 14.6963H0.654297L0.654297 17.3037H7.00185L7.00185 14.6963ZM1.95802 16L1.95802 0.131114H-0.649428L-0.649428 16H1.95802ZM0.654297 1.43484L7.00185 1.43484L7.00185 -1.17261L0.654297 -1.17261L0.654297 1.43484ZM7.00185 1.43484H11.7625V-1.17261L7.00185 -1.17261L7.00185 1.43484ZM11.7625 1.43484L16.5232 1.43484V-1.17261L11.7625 -1.17261V1.43484ZM15.2195 0.131114V1.718H17.8269V0.131114H15.2195ZM16.5232 3.02173H18.1101V0.414278H16.5232V3.02173ZM16.8063 1.718V8.06556H19.4138V1.718H16.8063ZM18.1101 6.76183H16.5232V9.36928H18.1101V6.76183ZM15.2195 8.06556V9.65245H17.8269V8.06556H15.2195ZM16.5232 8.34872L7.00185 8.34872V10.9562L16.5232 10.9562V8.34872ZM5.69813 3.30489V6.47867H8.30558V3.30489H5.69813ZM7.00185 7.78239L11.7625 7.78239V5.17494L7.00185 5.17494V7.78239ZM13.0662 6.47867L13.0662 3.30489L10.4588 3.30489L10.4588 6.47867H13.0662ZM11.7625 2.00117H7.00185V4.60862L11.7625 4.60862L11.7625 2.00117ZM35.5534 14.4131V13.1094H34.2497V14.4131H35.5534ZM35.5534 16V17.3037H36.8572V16H35.5534ZM21.2715 16H19.9677V17.3037H21.2715V16ZM21.2715 14.4131H22.5752V13.1094H21.2715V14.4131ZM19.6846 14.4131H18.3808V15.7168H19.6846V14.4131ZM19.6846 0.131114V-1.17261L18.3808 -1.17261V0.131114H19.6846ZM26.0321 0.131114H27.3358V-1.17261L26.0321 -1.17261V0.131114ZM26.0321 12.8262H24.7284V14.1299H26.0321V12.8262ZM30.7928 12.8262V14.1299H32.0965V12.8262H30.7928ZM30.7928 0.131114V-1.17261L29.4891 -1.17261V0.131114H30.7928ZM37.1403 0.131114H38.4441V-1.17261H37.1403V0.131114ZM37.1403 14.4131V15.7168H38.4441V14.4131H37.1403ZM34.2497 14.4131V16H36.8572V14.4131H34.2497ZM35.5534 14.6963H21.2715V17.3037H35.5534V14.6963ZM22.5752 16V14.4131H19.9677V16H22.5752ZM21.2715 13.1094H19.6846V15.7168H21.2715V13.1094ZM20.9883 14.4131L20.9883 0.131114L18.3808 0.131114L18.3808 14.4131H20.9883ZM19.6846 1.43484L26.0321 1.43484V-1.17261L19.6846 -1.17261V1.43484ZM24.7284 0.131114L24.7284 12.8262H27.3358L27.3358 0.131114H24.7284ZM26.0321 14.1299H30.7928L30.7928 11.5225H26.0321L26.0321 14.1299ZM32.0965 12.8262V0.131114H29.4891L29.4891 12.8262H32.0965ZM30.7928 1.43484L37.1403 1.43484V-1.17261L30.7928 -1.17261V1.43484ZM35.8366 0.131114V14.4131H38.4441V0.131114L35.8366 0.131114ZM37.1403 13.1094H35.5534V15.7168H37.1403V13.1094ZM45.0624 8.06556V6.76183H43.7587V8.06556H45.0624ZM45.0624 16V17.3037H46.3661V16H45.0624ZM38.7148 16H37.4111V17.3037H38.7148V16ZM38.7148 0.131114V-1.17261L37.4111 -1.17261V0.131114H38.7148ZM45.0624 0.131114H46.3661V-1.17261H45.0624V0.131114ZM45.0624 1.718L43.7587 1.718V3.02173L45.0624 3.02173V1.718ZM46.6493 1.718H47.953V0.414278H46.6493V1.718ZM46.6493 3.30489H45.3455V4.60862H46.6493V3.30489ZM48.2362 3.30489H49.5399V2.00117H48.2362V3.30489ZM48.2362 4.89178H46.9324V6.1955H48.2362V4.89178ZM49.823 4.89178V6.1955H51.1268V4.89178H49.823ZM49.823 3.30489V2.00117H48.5193V3.30489H49.823ZM51.4099 3.30489V4.60862H52.7137V3.30489L51.4099 3.30489ZM51.4099 1.718V0.414278H50.1062V1.718H51.4099ZM52.9968 1.718V3.02173H54.3006V1.718H52.9968ZM52.9968 0.131114V-1.17261H51.6931V0.131114L52.9968 0.131114ZM59.3444 0.131114H60.6481V-1.17261H59.3444V0.131114ZM59.3444 16V17.3037H60.6481V16H59.3444ZM52.9968 16H51.6931V17.3037H52.9968V16ZM52.9968 8.06556H54.3006V6.76183H52.9968V8.06556ZM51.4099 8.06556V6.76183H50.1062V8.06556H51.4099ZM51.4099 9.65245V10.9562H52.7137V9.65245H51.4099ZM49.823 9.65245V8.34872H48.5193V9.65245H49.823ZM49.823 11.2393V12.5431H51.1268V11.2393H49.823ZM48.2362 11.2393H46.9324V12.5431H48.2362V11.2393ZM48.2362 9.65245H49.5399V8.34872H48.2362V9.65245ZM46.6493 9.65245H45.3455V10.9562H46.6493V9.65245ZM46.6493 8.06556H47.953V6.76183H46.6493V8.06556ZM43.7587 8.06556V16H46.3661V8.06556H43.7587ZM45.0624 14.6963H38.7148V17.3037H45.0624V14.6963ZM40.0186 16V0.131114H37.4111V16H40.0186ZM38.7148 1.43484L45.0624 1.43484V-1.17261L38.7148 -1.17261V1.43484ZM43.7587 0.131114V1.718L46.3661 1.718V0.131114L43.7587 0.131114ZM45.0624 3.02173H46.6493V0.414278H45.0624V3.02173ZM45.3455 1.718V3.30489H47.953V1.718H45.3455ZM46.6493 4.60862H48.2362V2.00117H46.6493V4.60862ZM46.9324 3.30489V4.89178H49.5399V3.30489H46.9324ZM48.2362 6.1955H49.823V3.58805H48.2362V6.1955ZM51.1268 4.89178V3.30489H48.5193V4.89178H51.1268ZM49.823 4.60862H51.4099V2.00117H49.823V4.60862ZM52.7137 3.30489V1.718L50.1062 1.718V3.30489L52.7137 3.30489ZM51.4099 3.02173L52.9968 3.02173V0.414278L51.4099 0.414278V3.02173ZM54.3006 1.718V0.131114L51.6931 0.131114V1.718L54.3006 1.718ZM52.9968 1.43484H59.3444V-1.17261L52.9968 -1.17261V1.43484ZM58.0407 0.131114V16H60.6481V0.131114H58.0407ZM59.3444 14.6963H52.9968V17.3037H59.3444V14.6963ZM54.3006 16V8.06556H51.6931V16H54.3006ZM52.9968 6.76183H51.4099V9.36928H52.9968V6.76183ZM50.1062 8.06556V9.65245H52.7137V8.06556H50.1062ZM51.4099 8.34872H49.823V10.9562H51.4099V8.34872ZM48.5193 9.65245V11.2393H51.1268V9.65245H48.5193ZM49.823 9.93561H48.2362V12.5431L49.823 12.5431V9.93561ZM49.5399 11.2393V9.65245H46.9324V11.2393H49.5399ZM48.2362 8.34872H46.6493V10.9562H48.2362V8.34872ZM47.953 9.65245V8.06556H45.3455V9.65245H47.953ZM46.6493 6.76183H45.0624V9.36928H46.6493V6.76183ZM67.285 9.65245V8.34872H65.9813V9.65245H67.285ZM67.285 16V17.3037H68.5887V16H67.285ZM60.9375 16H59.6337V17.3037H60.9375V16ZM60.9375 0.131114V-1.17261H59.6337V0.131114L60.9375 0.131114ZM76.8064 0.131114H78.1101V-1.17261H76.8064V0.131114ZM76.8064 1.718L75.5026 1.718V3.02173L76.8064 3.02173V1.718ZM78.3932 1.718H79.697V0.414278H78.3932V1.718ZM78.3932 8.06556V9.36928H79.697V8.06556H78.3932ZM76.8064 8.06556V6.76183H75.5026V8.06556H76.8064ZM76.8064 9.65245V10.9562H78.1101V9.65245H76.8064ZM67.285 3.30489V2.00117H65.9813V3.30489H67.285ZM67.285 6.47867H65.9813V7.78239H67.285V6.47867ZM72.0457 6.47867V7.78239L73.3494 7.78239V6.47867L72.0457 6.47867ZM72.0457 3.30489H73.3494V2.00117H72.0457V3.30489ZM65.9813 9.65245V16H68.5887V9.65245H65.9813ZM67.285 14.6963H60.9375V17.3037H67.285V14.6963ZM62.2412 16V0.131114L59.6337 0.131114V16H62.2412ZM60.9375 1.43484H67.285V-1.17261L60.9375 -1.17261V1.43484ZM67.285 1.43484L72.0457 1.43484V-1.17261L67.285 -1.17261V1.43484ZM72.0457 1.43484L76.8064 1.43484V-1.17261L72.0457 -1.17261V1.43484ZM75.5026 0.131114V1.718L78.1101 1.718V0.131114L75.5026 0.131114ZM76.8064 3.02173H78.3932V0.414278H76.8064V3.02173ZM77.0895 1.718V8.06556H79.697V1.718H77.0895ZM78.3932 6.76183H76.8064V9.36928H78.3932V6.76183ZM75.5026 8.06556V9.65245H78.1101V8.06556H75.5026ZM76.8064 8.34872L67.285 8.34872V10.9562L76.8064 10.9562V8.34872ZM65.9813 3.30489V6.47867H68.5887V3.30489H65.9813ZM67.285 7.78239H72.0457V5.17494H67.285V7.78239ZM73.3494 6.47867V3.30489H70.742V6.47867L73.3494 6.47867ZM72.0457 2.00117L67.285 2.00117V4.60862H72.0457V2.00117ZM5.60845 25.8073V24.5036H4.30473V25.8073H5.60845ZM5.60845 32L5.60845 33.3037H6.91217L6.91217 32H5.60845ZM0.654297 32H-0.649428L-0.649428 33.3037H0.654297L0.654297 32ZM0.654297 19.6146L0.654297 18.3109H-0.649428L-0.649428 19.6146H0.654297ZM5.60845 19.6146H6.91217V18.3109H5.60845V19.6146ZM5.60845 20.8532H4.30473L4.30473 22.1569H5.60845V20.8532ZM6.84699 20.8532H8.15071V19.5494H6.84699V20.8532ZM6.84699 22.0917H5.54326V23.3954H6.84699V22.0917ZM8.08553 22.0917H9.38925V20.788H8.08553V22.0917ZM8.08553 23.3302H6.7818L6.7818 24.634H8.08553V23.3302ZM9.32406 23.3302V24.634H10.6278V23.3302H9.32406ZM9.32406 22.0917V20.788H8.02034V22.0917H9.32406ZM10.5626 22.0917V23.3954H11.8663V22.0917H10.5626ZM10.5626 20.8532L10.5626 19.5494H9.25888L9.25888 20.8532H10.5626ZM11.8011 20.8532V22.1569H13.1049V20.8532H11.8011ZM11.8011 19.6146V18.3109H10.4974V19.6146H11.8011ZM16.7553 19.6146H18.059V18.3109H16.7553V19.6146ZM16.7553 32V33.3037H18.059V32H16.7553ZM11.8011 32H10.4974V33.3037H11.8011V32ZM11.8011 25.8073H13.1049V24.5036H11.8011V25.8073ZM10.5626 25.8073V24.5036H9.25888V25.8073H10.5626ZM10.5626 27.0458V28.3496H11.8663V27.0458H10.5626ZM9.32406 27.0458V25.7421H8.02034V27.0458H9.32406ZM9.32406 28.2844V29.5881H10.6278V28.2844H9.32406ZM8.08553 28.2844H6.7818V29.5881H8.08553V28.2844ZM8.08553 27.0458H9.38925V25.7421H8.08553V27.0458ZM6.84699 27.0458H5.54326V28.3496H6.84699V27.0458ZM6.84699 25.8073H8.15071V24.5036H6.84699V25.8073ZM4.30473 25.8073V32H6.91217V25.8073H4.30473ZM5.60845 30.6963H0.654297L0.654297 33.3037H5.60845L5.60845 30.6963ZM1.95802 32L1.95802 19.6146H-0.649428L-0.649428 32H1.95802ZM0.654297 20.9183H5.60845V18.3109H0.654297L0.654297 20.9183ZM4.30473 19.6146V20.8532H6.91217V19.6146H4.30473ZM5.60845 22.1569H6.84699V19.5494H5.60845V22.1569ZM5.54326 20.8532V22.0917H8.15071V20.8532H5.54326ZM6.84699 23.3954H8.08553V20.788H6.84699V23.3954ZM6.7818 22.0917V23.3302H9.38925V22.0917H6.7818ZM8.08553 24.634H9.32406V22.0265H8.08553V24.634ZM10.6278 23.3302V22.0917H8.02034V23.3302H10.6278ZM9.32406 23.3954H10.5626V20.788H9.32406V23.3954ZM11.8663 22.0917V20.8532H9.25888V22.0917H11.8663ZM10.5626 22.1569H11.8011L11.8011 19.5494H10.5626L10.5626 22.1569ZM13.1049 20.8532L13.1049 19.6146H10.4974L10.4974 20.8532H13.1049ZM11.8011 20.9183L16.7553 20.9183V18.3109L11.8011 18.3109L11.8011 20.9183ZM15.4516 19.6146L15.4516 32H18.059V19.6146L15.4516 19.6146ZM16.7553 30.6963H11.8011V33.3037H16.7553V30.6963ZM13.1049 32V25.8073H10.4974V32H13.1049ZM11.8011 24.5036H10.5626V27.111H11.8011V24.5036ZM9.25888 25.8073V27.0458H11.8663V25.8073H9.25888ZM10.5626 25.7421H9.32406V28.3496H10.5626V25.7421ZM8.02034 27.0458V28.2844H10.6278V27.0458H8.02034ZM9.32406 26.9807H8.08553V29.5881H9.32406V26.9807ZM9.38925 28.2844V27.0458H6.7818V28.2844H9.38925ZM8.08553 25.7421H6.84699V28.3496H8.08553V25.7421ZM8.15071 27.0458V25.8073H5.54326V27.0458H8.15071ZM6.84699 24.5036H5.60845V27.111H6.84699V24.5036ZM19.2372 32H17.9335V33.3037H19.2372V32ZM19.2372 30.7615H20.5409V29.4577H19.2372V30.7615ZM17.9987 30.7615H16.6949V32.0652H17.9987V30.7615ZM17.9987 20.8532V19.5494H16.6949V20.8532H17.9987ZM19.2372 20.8532V22.1569H20.5409V20.8532H19.2372ZM19.2372 19.6146V18.3109H17.9335V19.6146H19.2372ZM31.6226 19.6146H32.9263V18.3109H31.6226V19.6146ZM31.6226 22.0917V23.3954H32.9263V22.0917H31.6226ZM22.9528 22.0917V20.788H21.6491V22.0917H22.9528ZM22.9528 24.5688H21.6491V25.8725H22.9528V24.5688ZM26.6684 24.5688H27.9722V23.265H26.6684V24.5688ZM26.6684 27.0458V28.3496H27.9722V27.0458H26.6684ZM22.9528 27.0458V25.7421H21.6491V27.0458H22.9528ZM22.9528 29.5229H21.6491V30.8266H22.9528V29.5229ZM31.6226 29.5229L32.9263 29.5229V28.2192L31.6226 28.2192V29.5229ZM31.6226 32V33.3037L32.9263 33.3037V32L31.6226 32ZM20.5409 32V30.7615H17.9335V32H20.5409ZM19.2372 29.4577H17.9987V32.0652H19.2372V29.4577ZM19.3024 30.7615V20.8532H16.6949V30.7615H19.3024ZM17.9987 22.1569H19.2372V19.5494H17.9987V22.1569ZM20.5409 20.8532V19.6146H17.9335V20.8532H20.5409ZM19.2372 20.9183H31.6226V18.3109H19.2372V20.9183ZM30.3189 19.6146V22.0917H32.9263V19.6146H30.3189ZM31.6226 20.788H22.9528V23.3954H31.6226V20.788ZM21.6491 22.0917V24.5688H24.2565V22.0917H21.6491ZM22.9528 25.8725H26.6684V23.265H22.9528V25.8725ZM25.3647 24.5688V27.0458H27.9722V24.5688H25.3647ZM26.6684 25.7421H22.9528V28.3496H26.6684V25.7421ZM21.6491 27.0458V29.5229H24.2565V27.0458H21.6491ZM22.9528 30.8266H31.6226V28.2192H22.9528V30.8266ZM30.3189 29.5229V32L32.9263 32V29.5229L30.3189 29.5229ZM31.6226 30.6963H19.2372V33.3037H31.6226V30.6963ZM37.8056 25.8073V24.5036H36.5019V25.8073H37.8056ZM37.8056 32V33.3037H39.1093V32H37.8056ZM32.8515 32L31.5477 32V33.3037L32.8515 33.3037V32ZM32.8515 19.6146V18.3109H31.5477V19.6146H32.8515ZM37.8056 19.6146H39.1093V18.3109H37.8056V19.6146ZM37.8056 20.8532H36.5019V22.1569H37.8056V20.8532ZM39.0441 20.8532H40.3479V19.5494H39.0441V20.8532ZM39.0441 22.0917H37.7404V23.3954H39.0441V22.0917ZM40.2827 22.0917H41.5864V20.788H40.2827V22.0917ZM40.2827 23.3302H38.979V24.634H40.2827V23.3302ZM41.5212 23.3302V24.634H42.8249V23.3302H41.5212ZM41.5212 22.0917V20.788H40.2175V22.0917H41.5212ZM42.7598 22.0917V23.3954H44.0635V22.0917H42.7598ZM42.7598 20.8532V19.5494H41.456V20.8532H42.7598ZM43.9983 20.8532V22.1569H45.302V20.8532H43.9983ZM43.9983 19.6146V18.3109H42.6946V19.6146H43.9983ZM48.9524 19.6146H50.2562V18.3109H48.9524V19.6146ZM48.9524 32V33.3037H50.2562V32H48.9524ZM43.9983 32H42.6946V33.3037H43.9983V32ZM43.9983 25.8073H45.302V24.5036H43.9983V25.8073ZM42.7598 25.8073V24.5036H41.456V25.8073H42.7598ZM42.7598 27.0458L42.7598 28.3496H44.0635L44.0635 27.0458H42.7598ZM41.5212 27.0458V25.7421H40.2175V27.0458H41.5212ZM41.5212 28.2844V29.5881H42.8249V28.2844H41.5212ZM40.2827 28.2844H38.979V29.5881H40.2827V28.2844ZM40.2827 27.0458H41.5864V25.7421H40.2827V27.0458ZM39.0441 27.0458H37.7404L37.7404 28.3496H39.0441L39.0441 27.0458ZM39.0441 25.8073H40.3479V24.5036H39.0441V25.8073ZM36.5019 25.8073L36.5019 32H39.1093L39.1093 25.8073H36.5019ZM37.8056 30.6963H32.8515V33.3037H37.8056V30.6963ZM34.1552 32L34.1552 19.6146H31.5477V32L34.1552 32ZM32.8515 20.9183H37.8056V18.3109H32.8515V20.9183ZM36.5019 19.6146V20.8532H39.1093V19.6146H36.5019ZM37.8056 22.1569H39.0441V19.5494H37.8056V22.1569ZM37.7404 20.8532V22.0917H40.3479V20.8532H37.7404ZM39.0441 23.3954H40.2827V20.788H39.0441V23.3954ZM38.979 22.0917V23.3302H41.5864V22.0917H38.979ZM40.2827 24.634H41.5212V22.0265H40.2827V24.634ZM42.8249 23.3302V22.0917H40.2175V23.3302H42.8249ZM41.5212 23.3954H42.7598V20.788H41.5212V23.3954ZM44.0635 22.0917V20.8532H41.456V22.0917H44.0635ZM42.7598 22.1569H43.9983V19.5494H42.7598V22.1569ZM45.302 20.8532V19.6146H42.6946V20.8532H45.302ZM43.9983 20.9183L48.9524 20.9183V18.3109L43.9983 18.3109V20.9183ZM47.6487 19.6146L47.6487 32H50.2562L50.2562 19.6146L47.6487 19.6146ZM48.9524 30.6963H43.9983V33.3037H48.9524V30.6963ZM45.302 32L45.302 25.8073H42.6946L42.6946 32H45.302ZM43.9983 24.5036H42.7598V27.111H43.9983V24.5036ZM41.456 25.8073V27.0458H44.0635V25.8073H41.456ZM42.7598 25.7421H41.5212L41.5212 28.3496H42.7598L42.7598 25.7421ZM40.2175 27.0458L40.2175 28.2844H42.8249L42.8249 27.0458H40.2175ZM41.5212 26.9807H40.2827L40.2827 29.5881H41.5212L41.5212 26.9807ZM41.5864 28.2844L41.5864 27.0458H38.979L38.979 28.2844H41.5864ZM40.2827 25.7421H39.0441L39.0441 28.3496H40.2827L40.2827 25.7421ZM40.3479 27.0458V25.8073H37.7404V27.0458H40.3479ZM39.0441 24.5036H37.8056V27.111H39.0441V24.5036ZM51.4344 32H50.1306V33.3037H51.4344V32ZM51.4344 30.7615H52.7381V29.4577H51.4344V30.7615ZM50.1958 30.7615H48.8921V32.0652H50.1958V30.7615ZM50.1958 20.8532V19.5494H48.8921V20.8532H50.1958ZM51.4344 20.8532V22.1569H52.7381V20.8532H51.4344ZM51.4344 19.6146V18.3109H50.1306V19.6146H51.4344ZM63.8197 19.6146H65.1235V18.3109H63.8197V19.6146ZM63.8197 22.0917V23.3954H65.1235V22.0917H63.8197ZM55.15 22.0917V20.788H53.8463V22.0917H55.15ZM55.15 24.5688H53.8463V25.8725H55.15V24.5688ZM58.8656 24.5688H60.1693V23.265H58.8656V24.5688ZM58.8656 27.0458L58.8656 28.3496H60.1693L60.1693 27.0458H58.8656ZM55.15 27.0458V25.7421H53.8463V27.0458H55.15ZM55.15 29.5229H53.8463V30.8266H55.15V29.5229ZM63.8197 29.5229H65.1235V28.2192H63.8197V29.5229ZM63.8197 32V33.3037H65.1235V32H63.8197ZM52.7381 32V30.7615H50.1306V32H52.7381ZM51.4344 29.4577H50.1958V32.0652H51.4344V29.4577ZM51.4995 30.7615L51.4995 20.8532H48.8921L48.8921 30.7615H51.4995ZM50.1958 22.1569H51.4344V19.5494H50.1958V22.1569ZM52.7381 20.8532V19.6146H50.1306V20.8532H52.7381ZM51.4344 20.9183H63.8197V18.3109H51.4344V20.9183ZM62.516 19.6146V22.0917H65.1235V19.6146H62.516ZM63.8197 20.788H55.15V23.3954H63.8197V20.788ZM53.8463 22.0917V24.5688H56.4537V22.0917H53.8463ZM55.15 25.8725H58.8656V23.265H55.15V25.8725ZM57.5619 24.5688V27.0458H60.1693V24.5688H57.5619ZM58.8656 25.7421H55.15L55.15 28.3496H58.8656L58.8656 25.7421ZM53.8463 27.0458L53.8463 29.5229H56.4537L56.4537 27.0458H53.8463ZM55.15 30.8266H63.8197V28.2192H55.15V30.8266ZM62.516 29.5229V32H65.1235V29.5229H62.516ZM63.8197 30.6963H51.4344V33.3037H63.8197V30.6963ZM65.0486 32H63.7449V33.3037H65.0486V32ZM65.0486 29.5229V28.2192H63.7449V29.5229H65.0486ZM73.7184 29.5229V30.8266H75.0221V29.5229H73.7184ZM73.7184 27.0458H75.0221V25.7421H73.7184V27.0458ZM66.2871 27.0458H64.9834V28.3496H66.2871V27.0458ZM66.2871 25.8073H67.5909V24.5036H66.2871V25.8073ZM65.0486 25.8073H63.7449V27.111H65.0486V25.8073ZM65.0486 20.8532V19.5494H63.7449V20.8532H65.0486ZM66.2871 20.8532V22.1569H67.5909V20.8532H66.2871ZM66.2871 19.6146V18.3109H64.9834V19.6146H66.2871ZM78.6725 19.6146H79.9762V18.3109H78.6725V19.6146ZM78.6725 22.0917V23.3954H79.9762V22.0917H78.6725ZM70.0028 22.0917V20.788H68.699V22.0917H70.0028ZM70.0028 24.5688H68.699V25.8725H70.0028V24.5688ZM77.434 24.5688H78.7377V23.265H77.434V24.5688ZM77.434 25.8073H76.1303V27.111H77.434V25.8073ZM78.6725 25.8073H79.9762V24.5036H78.6725V25.8073ZM78.6725 30.7615V32.0652H79.9762V30.7615H78.6725ZM77.434 30.7615V29.4577H76.1303V30.7615H77.434ZM77.434 32V33.3037H78.7377V32H77.434ZM66.3523 32V29.5229H63.7449V32H66.3523ZM65.0486 30.8266H73.7184V28.2192H65.0486V30.8266ZM75.0221 29.5229V27.0458H72.4146V29.5229H75.0221ZM73.7184 25.7421H66.2871V28.3496H73.7184V25.7421ZM67.5909 27.0458V25.8073H64.9834V27.0458H67.5909ZM66.2871 24.5036H65.0486V27.111H66.2871V24.5036ZM66.3523 25.8073V20.8532H63.7449V25.8073H66.3523ZM65.0486 22.1569H66.2871V19.5494H65.0486V22.1569ZM67.5909 20.8532V19.6146H64.9834V20.8532H67.5909ZM66.2871 20.9183H78.6725V18.3109H66.2871V20.9183ZM77.3688 19.6146V22.0917H79.9762V19.6146H77.3688ZM78.6725 20.788H70.0028V23.3954H78.6725V20.788ZM68.699 22.0917V24.5688H71.3065V22.0917H68.699ZM70.0028 25.8725H73.7184V23.265H70.0028V25.8725ZM73.7184 25.8725H77.434V23.265H73.7184V25.8725ZM76.1303 24.5688V25.8073H78.7377V24.5688H76.1303ZM77.434 27.111H78.6725V24.5036H77.434V27.111ZM77.3688 25.8073V30.7615H79.9762V25.8073H77.3688ZM78.6725 29.4577H77.434V32.0652H78.6725V29.4577ZM76.1303 30.7615V32H78.7377V30.7615H76.1303ZM77.434 30.6963H65.0486V33.3037H77.434V30.6963Z" fill="black" mask="url(#path-1-outside-1_360_80019)"/>
</svg>
