<svg width="185" height="72" viewBox="0 0 185 72" fill="none" xmlns="http://www.w3.org/2000/svg">
<rect x="33.043" width="31.2835" height="65.1333" rx="15.6417" transform="rotate(30.4842 33.043 0)" stroke="black" stroke-width="1.26027"/>
<path d="M8.43652 58.9427C8.07709 58.5088 7.66507 58.1011 7.64753 57.4831C7.48535 56.8081 7.41084 56.2075 7.74397 55.4843C8.06833 54.7874 7.92806 53.9589 7.09524 53.4461C6.57802 53.1261 5.98627 52.7886 6.10901 52.004C5.94244 49.7028 6.39392 47.4848 7.03826 45.2976C7.22236 44.6664 7.65192 44.1404 7.82725 43.4961C7.94121 43.0797 8.25681 42.8342 8.7039 43.0972C9.09401 43.3295 9.16853 43.6889 8.90553 44.0747C8.7302 44.3289 8.52419 44.5656 8.36639 45.0697C8.83978 44.307 9.30441 44.3464 9.92245 44.5875C10.9701 44.9995 11.6144 46.034 12.7277 46.3145C13.9463 46.9062 14.9939 47.7654 16.1335 48.4798C17.054 49.0584 17.1592 49.0409 17.7203 48.0985C18.0534 47.5331 18.3822 46.9632 18.7197 46.4022C19.1273 45.7315 18.9432 45.3414 18.312 44.9864C16.8612 44.1755 15.5243 43.198 14.2137 42.1767C13.1222 41.3307 12.0177 40.5111 11.1936 39.367C10.9306 39.0032 10.8254 38.6526 10.8342 38.2318C10.9701 37.3858 11.5267 36.7415 11.93 36.027C12.7716 34.5235 13.657 33.0464 14.5424 31.5692C14.6871 31.3325 14.7221 30.9336 15.1561 30.9775C15.9494 31.5604 16.3702 32.4678 17.054 33.1559C19.4648 35.5711 22.2044 37.5348 25.0886 39.3232C25.6409 39.6651 26.2764 39.9106 26.5833 40.5549C26.6797 41.5937 25.9258 42.2907 25.4743 43.0709C21.6565 49.6677 17.8211 56.2601 13.9682 62.8394C13.7973 63.1331 13.6789 63.4838 13.2888 63.5802C12.6488 63.5451 12.2543 63.0849 11.8116 62.7167C10.5668 61.5639 9.45344 60.2928 8.43214 58.9383L8.43652 58.9427Z" fill="#F83857"/>
<path d="M41.8678 46.7597C40.8947 48.4428 39.6192 50.0559 38.6417 51.739C38.519 52.3308 38.0543 52.7647 37.765 53.2732C37.4188 53.8824 37.3004 54.1805 36.5903 54.0929C34.6705 53.8562 32.9259 53.0935 31.1901 52.322C30.0505 51.818 28.9634 51.2043 27.8676 50.6082C27.5301 50.4241 27.2145 50.1961 26.8025 50.3934C25.1631 50.7703 25.036 52.0196 25.0842 53.3696C25.5226 54.2419 26.4956 54.4216 27.1751 54.9827C28.5032 55.9075 30.011 56.4511 31.5101 57.0121C31.5978 57.056 31.6767 57.1129 31.7512 57.1787C31.9747 57.4066 32.2597 57.5337 32.5402 57.674C32.7243 57.766 32.904 57.8756 33.0443 58.0378C33.1582 58.1737 33.316 58.4104 33.2196 58.4937C32.3517 59.2739 33.9823 60.0892 32.9434 60.9439C32.0712 61.6584 31.3129 62.6271 30.4274 63.3416C29.6779 63.9684 28.8407 64.4418 27.9158 64.753C26.4299 65.1606 24.9703 65.6647 23.4361 65.8882C21.3102 66.1995 19.2457 65.8444 17.1768 65.4411C16.9182 65.3885 16.7823 65.1738 16.6727 64.9546C16.5193 64.6346 16.2914 64.5338 15.9188 64.5645C14.4066 64.6916 13.8981 64.1788 14.0516 62.7367C14.4548 61.6014 15.2 60.6546 15.7698 59.607C16.5588 58.5682 17.4398 59.1468 18.2989 59.4711C18.4217 59.4361 18.5313 59.3747 18.6364 59.3002C18.8118 59.1555 18.9652 58.9934 19.0704 58.7917C19.1055 58.7172 19.1449 58.6427 19.1887 58.5682C19.2852 58.3841 19.3378 58.1868 19.4123 57.994C19.4737 57.8318 19.5482 57.674 19.6358 57.5206C19.7761 57.2357 20.0479 57.0516 20.1837 56.7623C20.1969 56.679 20.2232 56.5957 20.2495 56.5168C20.3021 56.3546 20.381 56.21 20.4818 56.0741C20.5519 55.9689 20.6308 55.8681 20.701 55.7629C20.7843 55.6051 20.8675 55.4517 20.9026 55.2764C20.907 55.0616 20.8281 54.8687 20.7229 54.689C20.6703 54.6013 20.6177 54.4961 20.53 54.4611C19.5 54.0797 19.5087 53.374 19.9251 52.5368C20.9421 50.766 21.8187 48.9075 23.0767 47.2813C23.3134 47.1542 23.5676 47.141 23.8262 47.1673C24.3698 47.1585 24.7686 47.7941 25.3735 47.5092C25.5313 47.3733 25.6847 47.2331 25.7856 47.049C25.825 46.9788 25.8732 46.9131 25.9214 46.8429C26.0442 46.6808 26.145 46.5098 26.202 46.3126C26.2283 46.2337 26.2677 46.1635 26.3072 46.089C26.4343 45.883 26.5658 45.6726 26.5965 45.4228C26.6491 45.2211 26.7236 45.0239 26.8332 44.8442C26.934 44.6688 27.0786 44.5242 27.1663 44.3401C27.2014 44.2261 27.2496 44.1165 27.2978 44.007C27.3767 43.8272 27.5213 43.6782 27.5652 43.481C27.3241 42.9725 26.6929 42.8761 26.4343 42.3852C26.4431 41.2543 26.991 40.8817 27.9553 41.3507C28.3848 41.5611 28.7793 41.8372 29.2703 41.9074C31.326 42.7271 33.224 43.8842 35.3016 44.6645C37.2127 45.3833 39.1195 46.0846 41.1665 46.3082C41.447 46.3389 41.802 46.3432 41.8678 46.7509V46.7597Z" fill="#F83857"/>
<path d="M18.3167 27.3999C19.3029 28.5001 20.2409 29.6529 21.4595 30.5252C21.9899 30.6041 22.3668 30.9548 22.7701 31.266C24.5409 32.6467 26.4038 33.8916 28.2886 35.1057C29.5203 35.8991 29.551 36.1095 28.8015 37.3368C28.201 38.3274 27.8766 39.5021 26.9035 40.2517C26.4739 40.4139 26.1715 40.1158 25.8603 39.9273C22.8183 38.0688 19.8727 36.07 17.3129 33.5716C16.5415 32.8177 15.6648 32.0857 15.4544 30.9197C15.3492 29.4601 16.4319 28.5352 17.0411 27.3956C17.4663 27.3956 17.8959 27.2641 18.3211 27.4087L18.3167 27.3999Z" fill="#FCFCFC"/>
<path d="M42.0908 45.9725C41.955 46.0471 41.8191 46.126 41.6788 46.2005C40.5479 46.7221 39.4872 46.1742 38.4615 45.8849C35.5817 45.0784 32.8816 43.8204 30.2297 42.4396C29.581 42.1021 29.4714 41.6638 29.8265 41.0896C30.1377 40.5855 30.4007 40.0595 30.7382 39.573C31.9918 37.2542 32.04 37.206 34.3631 38.4202C36.7126 39.6475 39.1584 40.603 41.7007 41.3263C42.0032 41.414 42.3012 41.5148 42.5073 41.7734C43.1647 41.9882 43.8398 42.0013 44.5893 41.9093C44.243 42.9043 43.3795 43.5398 43.1078 44.4954C42.6651 44.6926 42.2355 44.9249 41.7227 45.0521C41.8454 45.3633 42.4108 45.5079 42.0865 45.9638L42.0908 45.9725Z" fill="#FBFBFC"/>
<path d="M37.3768 54.4979C36.6009 55.4096 36.3116 56.6457 35.3955 57.461C34.8038 57.7284 34.2252 57.7284 33.5808 57.5618C30.7712 56.8298 28.1587 55.6726 25.7173 54.1034C25.165 53.7483 25.0905 53.3319 25.3841 52.7796C25.726 52.1353 26.0898 51.5041 26.4624 50.8773C26.8481 50.2286 27.2733 50.1541 27.922 50.5266C29.9077 51.6663 31.9678 52.6525 34.1288 53.4196C34.9835 53.722 35.8733 53.836 36.7368 54.0727C37.0042 54.1472 37.3066 54.1253 37.368 54.4891L37.3768 54.4979Z" fill="#FAFBFB"/>
<path d="M8.73095 42.0058C8.95449 40.7259 9.91005 39.8098 10.401 38.6657C10.6464 38.6044 10.7867 38.749 10.9138 38.9243C12.7153 41.379 15.262 42.935 17.7386 44.5744C18.0279 44.7628 18.3084 44.9645 18.6065 45.1398C19.0404 45.394 19.1631 45.7096 18.9045 46.1743C18.4881 46.9326 18.0279 47.6646 17.6027 48.4141C17.2959 48.9533 16.8531 49.0146 16.3754 48.699C13.9514 47.1079 11.4135 45.6614 9.4498 43.4566C9.07722 43.0358 8.75286 42.5975 8.72656 42.0058H8.73095Z" fill="#FAFBFB"/>
<path d="M42.5074 41.7777C39.8687 41.3789 37.493 40.248 35.1041 39.1522C34.3809 38.819 33.6489 38.4947 32.9738 38.0783C32.3383 37.6838 32.0007 37.8416 31.7115 38.4728C31.5098 38.9111 31.2249 39.3056 30.9751 39.722C30.791 39.7176 30.7252 39.5949 30.6945 39.4371C30.6814 39.1127 30.7997 38.8103 30.9751 38.5604C31.466 37.8459 31.1548 37.469 30.5104 37.0876C29.7609 36.6449 29.476 37.0613 29.1472 37.6312C28.6081 38.556 28.0909 39.5028 27.4684 40.3795C27.2931 40.5723 27.0871 40.7082 26.811 40.6819C26.7101 40.6556 26.64 40.5899 26.5918 40.4978C26.5962 40.3225 26.7058 40.2392 26.8592 40.191C27.5473 38.9987 28.218 37.7933 28.9368 36.623C29.1911 36.211 29.1166 36.0576 28.7264 35.7858C26.8592 34.4927 24.8911 33.3487 23.1159 31.9198C22.5548 31.4683 22.0113 30.9949 21.459 30.5303C21.551 30.5171 21.6431 30.5083 21.7307 30.4952C22.0288 30.3374 22.2743 30.4952 22.4934 30.6574C22.9318 30.973 23.4446 31.0475 23.9399 31.2009C24.8034 31.4727 25.3294 31.1965 25.8423 30.4514C26.263 29.8465 26.228 28.9391 27.0389 28.5972C27.1046 28.6849 27.1704 28.7726 27.2361 28.8602C27.6219 28.4219 27.5605 27.7863 27.9112 27.3349C27.9988 27.2077 28.1172 27.1245 28.275 27.1069C28.3451 27.2034 28.4152 27.2998 28.481 27.4006C28.8229 28.0406 28.3889 28.5271 28.1216 29.018C27.7227 29.7544 27.1222 30.3418 26.6093 30.9949C26.2762 31.4157 25.9168 31.8584 26.1754 32.5904C26.5699 32.0337 26.8153 31.5034 27.1572 31.0387C28.012 29.8684 28.9412 29.6361 30.2168 30.3155C31.7465 31.1308 33.2281 32.0337 34.7184 32.9191C36.2613 33.8352 36.4761 34.8127 35.5775 36.3995C35.389 36.7282 35.1611 37.0394 35.0427 37.6268C35.8361 37.32 36.0509 36.7238 36.2306 36.1409C36.6076 34.9311 37.1116 33.7958 38.111 32.9674C38.4617 32.6781 38.8299 32.2485 39.3778 32.6474C39.3778 32.7263 39.3866 32.8008 39.3909 32.8797C39.312 33.4846 38.7378 33.638 38.3609 33.9317C37.8962 34.2999 38.1286 34.4884 38.4003 34.747C38.076 35.5579 37.3308 36.0707 36.9582 36.8641C36.4498 37.9555 36.4673 38.1791 37.5324 39.2837C38.2162 39.9937 38.8693 40.1252 39.7416 39.7264C39.803 39.7001 39.8731 39.6913 39.9432 39.6957C40.0309 39.7001 40.1142 39.7088 40.2018 39.7132C40.8506 40.4365 41.6176 40.9493 42.6126 41.0808C42.8669 41.1159 43.1474 41.2211 43.1868 41.563C42.9545 41.6068 42.6915 41.5717 42.5118 41.7821L42.5074 41.7777Z" fill="#1B1A24"/>
<path d="M47.9058 35.7111C49.0367 33.7211 50.115 31.7004 51.3116 29.7499C56.5672 21.1806 52.951 10.4328 43.4612 7.11028C37.9295 5.17287 32.7923 6.32129 28.2907 10.1654C25.95 12.1642 24.7227 14.9213 23.1842 17.4636C21.9262 19.5456 20.7383 21.6671 19.511 23.7667C19.305 24.1217 19.1472 24.5294 18.4766 24.8231C19.3532 23.2845 20.1115 21.9301 20.8917 20.5888C22.2199 18.3095 23.5655 16.039 24.8981 13.7597C30.0878 4.85728 41.9709 3.14342 49.4049 10.2312C54.4457 15.0396 55.5985 23.2056 52.0743 29.2151C50.7593 31.4637 49.44 33.708 48.125 35.9522C47.9409 35.9741 47.8313 35.9259 47.9058 35.7111Z" fill="#3E6B9F"/>
<path d="M39.3782 32.6428C37.9141 32.9365 37.3882 34.1288 36.8622 35.3035C36.6649 35.7418 36.5203 36.2108 36.3712 36.6711C36.0556 37.6266 35.4595 38.1482 34.3462 37.9685C34.7363 37.2716 35.1308 36.5966 35.499 35.9084C36.0732 34.8301 35.9198 34.028 34.916 33.4055C33.2372 32.3711 31.5321 31.3761 29.8051 30.4118C28.9504 29.934 28.0606 30.2408 27.4732 31.1131C27.2409 31.4594 27.048 31.8276 26.8332 32.187C26.6228 32.5376 26.4037 32.8883 26.1714 33.2653C25.4788 31.8845 25.5007 31.6829 26.75 30.3022C27.5258 29.4431 28.2403 28.5664 28.4857 27.4005C28.6129 27.0454 28.5866 26.6816 28.5734 26.3134C28.5515 25.7304 28.8583 25.9364 29.1301 26.1118C29.6955 28.9258 31.5847 30.6134 34.0788 31.6522C35.5384 32.2615 37.0945 32.7349 38.6988 31.9328C39.1634 31.7004 39.5053 31.8977 39.5666 32.45C39.5053 32.5157 39.4395 32.5815 39.3782 32.6428Z" fill="#F8F8FA"/>
<path d="M39.942 39.6924C39.5081 40.569 38.2939 40.5515 37.4523 39.6573C37.4041 39.6091 37.3646 39.5477 37.3383 39.4863C37.0359 38.8683 36.0014 38.4563 36.1636 37.9259C36.431 37.0492 36.8386 36.1112 37.5663 35.4274C37.8161 35.1907 38.0704 34.9672 38.3246 34.7349C38.3377 34.1782 38.6533 34.1256 39.0873 34.279C40.5074 35.0768 40.731 35.6554 40.3803 37.7944C40.2751 38.4344 40.091 39.0612 39.942 39.6924Z" fill="#F6F8F9"/>
<path d="M37.107 54.5904C36.4846 54.1565 35.998 54.209 35.3142 54.0117C32.6273 53.2446 30.142 52.0217 27.718 50.6717C27.249 50.4087 27.0386 50.4481 26.7976 50.9128C26.3373 51.8026 25.3379 52.7713 25.487 53.5164C25.6448 54.2923 27.043 54.6079 27.9416 55.0374C30.3129 56.1771 32.6668 57.3956 35.3931 57.4614C35.2616 57.5841 35.1258 57.7112 34.9943 57.8339C34.2842 58.4344 33.5566 58.0487 32.8552 57.8427C32.4344 57.72 32.018 57.5271 31.6805 57.2159H31.6718C30.0719 56.6724 28.5465 55.9667 27.0562 55.1733C26.2409 54.678 25.259 54.4106 24.7812 53.4682C25.1275 52.1971 25.7237 51.0706 26.6573 50.1325C27.1 49.6372 27.4857 50.0405 27.8495 50.2421C29.9447 51.3949 32.0794 52.4557 34.3412 53.249C37.1114 54.2177 37.3262 53.7137 38.422 52.1796C37.896 53.2054 37.7163 53.1528 37.3262 54.1521L37.107 54.5904Z" fill="#370A17"/>
<path d="M8.73075 42.005C10.7383 44.9593 13.7408 46.717 16.6513 48.5887C16.9275 48.764 17.1554 48.8122 17.3176 48.4572C17.3483 48.3958 17.3921 48.3432 17.4271 48.2818C17.9137 47.4446 18.821 46.5767 18.764 45.7746C18.7071 44.9242 17.357 44.6525 16.5812 44.1177C14.3019 42.5441 12.0533 40.9442 10.4008 38.6649C10.5454 38.5247 10.6857 38.3844 10.8303 38.2441C11.9481 40.3393 13.8723 41.6061 15.7001 42.9605C16.6995 43.7013 17.7822 44.3281 18.8429 44.9812C19.3646 45.3056 19.5837 45.608 19.1629 46.2173C18.5931 47.0414 18.1109 47.9268 17.6288 48.8078C17.3395 49.3338 17.0327 49.3776 16.5549 49.0577C15.2881 48.2161 13.9994 47.4008 12.7239 46.5767C11.1854 45.5993 9.66 44.6086 8.65623 43.0219C8.5072 42.7852 8.28804 42.5967 8.46337 42.2855C8.55541 42.1935 8.64308 42.097 8.73513 42.005H8.73075Z" fill="#3D0C16"/>
<path d="M27.0392 28.6017C26.9428 28.8603 26.8858 29.1364 26.7456 29.3687C26.2327 30.2322 26.0267 31.613 24.9134 31.6568C24.0016 31.6919 22.8138 31.6393 22.0686 30.7188C21.9853 30.618 21.8407 30.5697 21.7267 30.4952C20.9421 29.8114 21.924 29.5484 22.0599 29.0838C22.4237 28.4176 22.7919 28.4439 22.954 29.1627C23.1864 30.1972 23.8877 30.4908 24.8038 30.561C25.5358 30.3067 25.8382 29.7194 25.733 29.0224C25.5884 28.0625 24.8695 27.6812 23.6554 27.6549C24.6109 27.0938 25.2553 26.3662 26.1363 26.6686C26.956 26.9492 27.0042 27.8258 27.0305 28.6017H27.0392Z" fill="#F6F6F9"/>
<path d="M23.1363 47.4498C22.0536 49.1023 21.0849 50.8205 20.1645 52.5694C19.016 55.1029 17.7274 57.5576 15.9741 59.7404C15.4218 60.6916 14.8651 61.6384 14.3128 62.5896C14.098 63.0586 14.1155 63.6722 13.5019 63.8958C13.4318 63.795 13.3572 63.6898 13.2871 63.5846C14.6021 60.9064 16.237 58.4079 17.723 55.8306C20.5239 50.9608 23.3686 46.1129 26.1915 41.2562C26.3098 41.0502 26.3756 40.8135 26.4676 40.5899C26.5114 40.5023 26.5684 40.4935 26.6429 40.5593H26.6473C26.792 40.7039 26.9585 40.831 26.9541 41.0633C26.1695 42.7334 25.214 44.3113 24.2979 45.9112C23.9735 46.4723 23.7018 47.0772 23.1407 47.4585L23.1363 47.4498Z" fill="#600510"/>
<path d="M32.8753 19.4717C32.8534 19.0378 33.1032 18.8055 33.4627 18.6038C34.8434 17.828 36.3162 17.6351 37.8635 17.8105C38.3807 17.8675 38.4114 18.0296 38.1747 18.4636C37.8065 19.1474 37.5172 19.6471 36.5046 19.5682C34.6593 19.4279 33.2566 20.4711 32.0644 21.7949C31.8233 20.8437 32.4019 20.1731 32.8709 19.4674L32.8753 19.4717Z" fill="#F9F9FB"/>
<path d="M40.9004 36.1362C42.1978 37.026 43.2936 38.0298 44.2229 39.2089C44.5648 39.6472 44.8935 40.1031 44.9987 40.6641C45.0732 41.0586 44.9111 41.326 44.521 41.4707C44.1922 41.5934 43.938 41.6022 43.7144 41.2647C42.978 40.1557 42.0006 39.2659 41.0275 38.3717C40.278 37.6791 41.0801 36.8814 40.896 36.1362H40.9004Z" fill="#CDBAD5"/>
<path d="M39.5645 32.449C39.341 32.3614 39.3761 31.7521 39.0079 32.0545C37.8419 33.0232 36.5576 32.6244 35.3391 32.3789C32.5995 31.831 30.6271 30.1829 29.2551 27.7808C28.9526 27.2505 28.8168 26.6894 29.128 26.1064C29.1937 26.1897 29.2639 26.273 29.3296 26.3563C29.8688 27.0707 29.9783 28.0263 30.649 28.6663C32.9151 31.3664 36.6628 32.6857 38.5608 31.4453C38.403 31.3883 38.2233 31.4014 38.0698 31.3138C37.934 31.2305 37.8463 31.1165 37.8682 30.9456C38.1005 30.6037 38.4863 30.5204 38.8369 30.4152C39.9152 30.0952 40.5069 29.4026 40.5771 28.2718C40.6297 28.0745 40.7173 27.8992 40.8313 27.7326C41.2083 27.3425 41.4011 26.8428 41.6597 26.3782C42.1507 25.8741 42.4093 25.0369 43.3473 25.1465C43.47 25.2911 43.5928 25.4402 43.7111 25.5848C42.1463 26.536 41.2959 27.9123 41.2521 29.7621C41.1776 29.8804 41.1075 29.9988 41.0329 30.1215C40.8445 30.4327 41.0943 30.5511 41.2959 30.6606C41.9052 30.9806 42.2427 31.5066 42.4575 32.1334C42.2778 32.4359 42.0937 32.7383 41.914 33.0408C41.5808 32.883 41.6115 32.5367 41.5063 32.2605C41.3047 31.7433 40.9277 31.3795 40.393 31.3225C39.7837 31.2568 40.0642 31.98 39.7443 32.2079C39.6829 32.2868 39.6171 32.3701 39.5558 32.449H39.5645Z" fill="#292233"/>
<path d="M20.3964 27.0017C19.9581 26.9141 19.5241 26.7782 19.0814 26.7475C18.5905 26.7124 18.2574 26.5064 18.2355 26.033C18.2092 25.4501 18.6694 25.3142 19.1472 25.2704C20.0194 25.1915 20.8698 25.358 21.6982 25.5859C22.6538 25.8489 23.5918 26.1821 24.7183 26.5459C24.0301 27.028 23.491 27.405 22.9518 27.782C22.0007 27.8477 21.1459 27.5935 20.392 27.0105L20.3964 27.0017Z" fill="#CCBBD3"/>
<path d="M8.46275 42.2861C9.31311 43.9386 10.8341 44.9424 12.1798 46.1127C12.3595 46.2705 12.5436 46.4239 12.7233 46.5774C11.553 46.5774 11.0007 45.5035 10.0977 45.0213C9.08079 44.4734 8.66876 44.6706 8.37947 45.8366C7.64308 45.0432 8.12086 44.5348 8.51535 44.0789C8.67315 43.8948 8.94491 43.8027 8.78711 43.5134C8.7126 43.3776 8.53727 43.2154 8.40577 43.2066C8.13401 43.1979 7.98059 43.4346 7.91923 43.6712C7.59048 45.0038 6.57356 46.1083 6.90669 47.6995C7.01627 48.2255 6.144 48.9838 6.1966 49.8385C6.24043 50.5661 6.20099 51.2981 6.1966 52.0258C6.13085 52.1266 6.06949 52.1222 6.01689 52.017C5.68814 48.8873 6.31933 45.9418 7.75266 43.1584C7.92361 42.8297 8.06826 42.4527 8.45399 42.2861H8.46275Z" fill="#D83C59"/>
<path d="M26.8369 40.9713C26.7756 40.8354 26.7098 40.6995 26.6484 40.5593C26.8282 40.4891 27.0079 40.419 27.1876 40.3489C27.6829 40.2875 28.0116 40.6206 28.3798 40.8573C28.9672 41.2387 29.423 41.208 29.8132 40.533C30.0499 40.1209 30.1682 39.5336 30.8125 39.4854C30.8695 39.5643 30.9221 39.6431 30.9791 39.722C30.7073 40.5198 29.6378 41.2606 29.971 41.9312C30.2822 42.558 31.3955 42.7991 32.1714 43.1761C34.6961 44.3902 37.2559 45.5255 40.0349 46.0515C40.5741 46.1523 41.1351 46.1567 41.6831 46.2049C41.7313 46.3978 42.2485 46.4328 41.8715 46.7703C37.2823 46.2838 33.2847 44.1711 29.2346 42.1986C28.4061 41.8479 27.6785 41.2956 26.8369 40.9757V40.9713Z" fill="#3D0D18"/>
<path d="M37.0662 19.9365C38.4995 19.9847 39.5471 20.7562 40.4676 21.7556C40.941 21.9178 41.1426 22.3166 41.3399 22.7287C42.4532 25.0825 41.4845 28.1245 39.1833 29.3956C37.1846 30.4958 35.2208 30.4301 33.336 29.0976C32.9941 28.8565 32.661 28.6022 32.6172 28.1332C32.6435 27.9535 32.7487 27.8308 32.9109 27.7563C33.3843 27.7037 33.6604 28.0543 33.9891 28.2954C35.4926 29.4 37.3161 29.4307 38.9466 28.3743C40.4063 27.4319 41.0769 25.5471 40.6167 23.6886C40.209 22.0361 38.8458 20.8877 37.0531 20.6685C36.6191 20.6159 36.137 20.7124 35.7907 20.3179C36.0624 19.6691 36.6805 20.1995 37.0618 19.9409L37.0662 19.9365Z" fill="#B6AFC6"/>
<path d="M13.5039 63.8956C13.7757 63.4616 14.043 63.0233 14.3148 62.5894C14.3543 63.2731 13.951 64.1323 15.095 64.3602C15.3668 64.4128 15.4808 64.5048 15.7744 64.2725C16.3443 63.8298 17.0061 64.1629 17.0149 64.8774C17.0193 65.3903 17.3217 65.3157 17.6023 65.364C20.7538 65.9075 23.8835 66.096 26.9167 64.7591C27.2498 64.61 27.5917 64.6539 27.9292 64.7459C22.9718 66.9858 18.1677 66.6483 13.5083 63.8868L13.5039 63.8956Z" fill="#CC3D56"/>
<path d="M32.7224 28.0239C34.5283 30.0928 37.2591 30.4435 39.4463 28.8918C41.5152 27.4278 42.0982 24.5524 40.792 22.2862C40.6868 22.1065 40.5772 21.9312 40.4676 21.7558C40.5202 21.6901 40.5772 21.6243 40.6298 21.5586C41.673 21.7865 41.673 22.7333 41.9623 23.4828C42.2385 24.4384 42.4006 25.3852 41.8221 26.2969C41.581 26.8536 41.3092 27.3927 41.0374 27.9319C40.9673 28.0415 40.8972 28.1554 40.827 28.265C40.0512 30.0753 37.0487 30.9695 34.7738 30.2068C34.0111 29.9526 33.3097 29.5712 32.6961 29.0365C31.4469 27.8223 30.7894 26.3627 30.9033 24.6006C30.9296 24.2105 30.877 23.7415 31.4206 23.6012C31.4863 23.6845 31.5521 23.7678 31.6134 23.851C32.1219 24.228 31.7712 24.7584 31.8107 25.2011C31.9027 26.2224 32.5821 27.0289 32.7136 28.0195L32.7224 28.0239Z" fill="#262032"/>
<path d="M31.6784 57.2202C32.7655 57.527 33.8394 57.904 34.9966 57.8339C35.3122 57.8909 35.264 58.0618 35.1412 58.2722C33.9446 60.306 32.52 62.1295 30.4336 63.3393C30.8763 62.5284 31.8275 62.2259 32.314 61.472C32.7041 60.8627 34.1024 60.2578 32.4104 59.5171C32.165 59.4119 32.3929 59.3549 32.4806 59.2804C33.4186 58.4694 32.8882 58.0662 32.051 57.7418C31.8231 57.6542 31.4417 57.6498 31.6828 57.2202H31.6784Z" fill="#B93D58"/>
<path d="M31.4307 23.6038C30.7952 25.6771 31.5622 27.3427 32.9298 28.8418C33.0701 29.1092 33.1797 29.381 32.9868 29.6746C32.5266 29.9552 32.1715 29.6878 31.8997 29.3897C30.7338 28.1317 29.901 26.7773 30.0456 24.9056C30.1158 23.9895 30.0544 23.2137 31.0494 22.828C31.1853 22.7754 31.3168 22.7754 31.4439 22.8367C31.4395 23.091 31.4351 23.3496 31.4307 23.6038Z" fill="#F5F6F9"/>
<path d="M31.4407 22.8375C30.3931 23.289 29.9811 24.0298 30.1696 25.1957C30.4808 27.0937 31.2654 28.6717 32.9004 29.7587C33.422 29.6842 33.8165 30.0129 34.2504 30.2014C35.1183 30.5784 36.03 30.723 36.968 30.7581C37.3012 30.7712 37.6694 30.6397 37.9148 30.9948C38.0112 31.0649 38.1121 31.1394 38.2085 31.2096C37.9893 31.7487 37.4984 31.683 37.0645 31.7005C34.3205 31.8232 32.2122 30.6704 30.6474 28.4525C30.0118 27.5846 29.8145 26.5502 29.5735 25.5376C29.7576 25.1124 30.2923 24.7267 29.705 24.227C29.6524 23.964 29.3631 23.7449 29.5647 23.4424C29.705 23.1619 29.8408 22.8857 29.9811 22.6052C30.2397 22.9559 30.4808 22.8288 30.7306 22.5877C30.9936 22.3291 31.261 22.0748 31.4539 21.7549L31.432 21.7812C31.8308 21.207 32.1508 20.6021 32.2692 19.9051C32.3042 19.6903 32.3612 19.4975 32.6242 19.4668C32.7075 19.4668 32.7908 19.4668 32.8741 19.4712C32.8741 20.3391 32.2911 21.0053 32.0675 21.7987C31.8571 22.145 31.6467 22.4913 31.4407 22.8375Z" fill="#302A38"/>
<path d="M41.1623 8.60433C37.0157 8.31065 33.2329 9.30126 29.8184 11.677C30.9799 9.44591 37.8485 7.33756 41.1623 8.60433Z" fill="#366FA8"/>
<path d="M26.6404 40.5538C26.5791 40.5538 26.5221 40.567 26.4651 40.5845C23.3091 38.5945 20.1576 36.5957 17.4619 33.9789C16.5501 33.0979 15.577 32.2475 15.1562 30.9808C15.2527 30.9589 15.3535 30.9326 15.4499 30.9106C16.4493 32.6596 17.9265 33.9745 19.465 35.2106C21.7881 37.0735 24.1683 38.8531 26.8552 40.1769C26.7851 40.2996 26.7105 40.4267 26.6404 40.5495V40.5538Z" fill="#3D0D18"/>
<path d="M39.758 32.2082C39.4205 31.6471 39.5827 31.1518 40.0385 30.7749C40.284 30.5732 41.7217 31.5595 41.8532 32.0372C41.9409 32.3572 41.9102 32.7079 41.9277 33.041C41.599 33.6108 41.2702 34.1763 40.9327 34.7417C40.902 34.7943 40.8275 34.8162 40.7223 34.8864C40.4155 33.9746 40.2533 33.0279 39.758 32.2038V32.2082Z" fill="#CDBBD5"/>
<path d="M41.6897 23.4387C41.3741 22.79 41.2294 22.0492 40.6289 21.5583C40.6464 20.8482 41.2294 20.423 41.5143 19.7173C42.1894 20.4011 42.689 21.0936 42.9433 21.9528C43.0616 22.4481 43.1931 22.9653 42.7679 23.3729C42.448 23.6798 42.0798 24.0041 41.6853 23.4387H41.6897Z" fill="#F6F8F9"/>
<path d="M6.01977 52.0166C6.08114 52.0166 6.1425 52.021 6.19949 52.0254C6.15127 52.7574 6.90519 52.788 7.22517 53.2001C7.61528 53.7042 8.72863 53.805 8.06676 54.9358C7.97909 55.0893 7.84321 55.6284 7.79499 55.9615C7.72486 56.4481 7.60651 56.9653 7.6372 57.4781C7.01477 56.4437 6.5107 55.3829 6.57206 54.1206C6.60713 53.3798 5.80937 52.8231 6.01977 52.0122V52.0166Z" fill="#BE3350"/>
<path d="M43.1829 41.5583C42.5912 41.4136 41.9776 41.3216 41.4121 41.1068C40.7853 40.8701 40.1322 40.5808 40.1979 39.7085C40.4785 39.3973 40.3338 38.8932 40.7196 38.5776C41.5962 39.2921 42.3764 40.0899 43.0777 40.9665C43.2005 41.1199 43.4985 41.2996 43.1829 41.5539V41.5583Z" fill="#CCBAD2"/>
<path d="M41.688 23.4376C42.9328 23.6392 42.8232 22.6968 42.946 21.9517C43.4237 22.9773 43.5859 24.0425 43.3536 25.1558C42.6917 25.4495 42.306 26.0325 41.8721 26.5672C41.6836 26.6111 41.5784 26.576 41.6617 26.3525C41.9203 25.3838 41.8896 24.4107 41.688 23.4376Z" fill="#CBBDD4"/>
<path d="M21.8639 28.8737C21.3029 29.5575 20.698 29.1279 20.2465 28.8123C19.646 28.3871 19.0981 27.848 18.6992 27.0327C19.3348 27.1248 19.8608 27.2037 20.3868 27.2826C20.8602 27.116 21.2678 27.3921 21.6842 27.5149C22.013 27.6113 22.5258 27.5587 22.5609 28.0759C22.5916 28.5274 22.219 28.7159 21.8639 28.8781V28.8737Z" fill="#CBBBD4"/>
<path d="M39.1563 20.1716C38.696 20.0796 38.021 19.9744 37.9991 19.5667C37.9728 19.1415 38.4462 18.6813 38.7048 18.243C38.7793 18.1159 38.8977 18.0589 39.0511 18.1159C39.8269 18.4095 40.5502 18.7953 41.1551 19.3651C41.3654 19.5667 41.1288 19.7289 41.0192 19.8867C40.4625 20.3952 39.7962 20.1891 39.1607 20.1716H39.1563Z" fill="#F7F5F6"/>
<path d="M28.3271 23.8501C28.5726 23.9684 28.8444 24.0605 29.0635 24.2183C29.3046 24.3936 29.8394 24.398 29.6334 24.8889C29.4799 25.2527 29.2958 25.6516 28.7567 25.6516C27.7442 25.6516 26.7667 25.8839 25.6621 26.2258C25.8068 25.7393 25.9514 25.3974 26.2319 25.1081C27.1437 25.0467 27.6959 24.3849 28.3271 23.8545V23.8501Z" fill="#C8BCD1"/>
<path d="M32.7178 28.0226C31.6395 26.8216 31.416 25.3927 31.6176 23.8541C32.4241 21.0971 34.3484 19.7119 37.0616 19.9355C36.7022 20.2467 36.1718 19.9355 35.8255 20.2818C35.6327 20.6675 35.225 20.7201 34.8831 20.8735C32.5381 21.9474 31.622 24.2793 32.5995 26.6594C32.7529 27.0276 33.0904 27.3564 32.9107 27.8166C32.8493 27.8824 32.7836 27.9525 32.7222 28.0182L32.7178 28.0226Z" fill="#E6E8EF"/>
<path d="M21.8634 28.8736C22.0694 28.6062 22.2754 28.3432 22.5428 27.997C21.7889 27.7471 21.0876 27.5148 20.3906 27.2825C20.3906 27.1904 20.3906 27.094 20.3906 27.002C21.2936 27.1028 22.1308 27.4096 22.9505 27.7734C22.4113 28.4309 23.6868 27.826 23.3493 28.3476C23.4721 28.444 23.5378 28.5755 23.5729 28.7202C23.3625 29.6012 24.2391 29.8029 24.5854 30.3376C24.6599 30.4121 24.7388 30.4867 24.8133 30.5612C23.4984 31.0039 22.7664 30.3858 22.6392 28.6676C22.4288 28.821 22.2491 28.9525 22.065 29.084C21.9993 29.0139 21.9292 28.9437 21.8634 28.8736Z" fill="#403B4A"/>
<path d="M39.0857 34.2781C38.8052 34.3877 38.5159 34.4798 38.3231 34.734C38.0513 34.4842 37.8234 34.6989 37.4902 34.8655C37.911 33.9056 38.5159 33.2656 39.3926 32.8799C40.1246 33.0421 39.8791 33.7565 40.2824 34.2825H39.0857V34.2781Z" fill="#EFEFF1"/>
<path d="M29.5778 25.5415C30.1433 25.5459 29.8847 26.0324 30.003 26.291C30.2967 26.931 30.5597 27.5841 30.8358 28.2284C30.8709 28.5484 30.8972 28.8596 30.4326 28.8596C29.8233 28.132 29.2622 27.3869 29.3368 26.3612C29.42 26.0894 29.4989 25.8176 29.5822 25.5415H29.5778Z" fill="#F3F4F8"/>
<path d="M28.3276 23.8503C28.0471 24.9242 27.1704 25.4502 26.2324 25.1039C26.662 24.236 27.1047 23.3944 28.3276 23.8503Z" fill="#F2EFF4"/>
<path d="M24.5788 30.3372C23.4743 30.3065 23.2244 29.6183 23.3077 28.6716C23.803 28.0754 24.3553 27.9352 24.9909 28.4655C25.7404 29.2808 25.2845 29.8331 24.5832 30.3328L24.5788 30.3372Z" fill="#302F38"/>
<path d="M28.2803 27.1111C28.2189 27.2075 28.1576 27.3084 28.0962 27.4048C27.8551 27.5582 27.7455 28.2288 27.2985 27.6152C27.0618 27.2075 26.8207 26.7999 26.584 26.3923C28.1444 25.783 28.2715 25.8356 28.2759 27.1111H28.2803Z" fill="#EBEAEC"/>
<path d="M47.9073 35.7109C47.9818 35.7898 48.052 35.8731 48.1265 35.952C47.3375 37.3371 46.5485 38.7266 45.7639 40.1117C45.6675 40.0591 45.571 40.0022 45.4746 39.9496C46.2241 38.5031 46.9737 37.061 47.9117 35.7109H47.9073Z" fill="#3F6498"/>
<path d="M41.2593 29.7713C41.0533 29.7143 40.9876 29.5565 41.0226 29.3724C41.3382 27.8207 42.1097 26.5364 43.337 25.5414C43.4027 25.4844 43.5868 25.5721 43.7183 25.594C43.6526 25.7869 43.6394 26.0893 43.5123 26.1507C42.1184 26.8126 41.4653 27.8733 41.6187 29.425C41.6275 29.5302 41.3864 29.6573 41.2637 29.7713H41.2593Z" fill="#BBB4C7"/>
<path d="M42.0865 45.9721C41.9725 45.3321 41.2799 45.4198 40.7715 44.85C41.7007 45.0209 42.2574 44.2012 43.1034 44.5037C42.9193 45.1042 42.5423 45.5644 42.0865 45.9765V45.9721Z" fill="#C3C6CD"/>
<path d="M8.43555 58.9429C9.63218 60.1395 10.7411 61.415 11.815 62.7213C10.3861 61.735 9.27275 60.4595 8.43555 58.9429Z" fill="#BE3350"/>
<path d="M42.471 32.1384C41.9582 31.6124 41.5286 31.0207 40.8404 30.6525C40.069 30.2404 40.8273 30.2492 41.0464 30.1265C41.8354 30.5736 42.6113 31.0294 42.471 32.1384Z" fill="#CBCAD6"/>
<path d="M30.2754 22.3459C30.5296 21.2238 30.8671 20.4304 31.8227 19.7554C31.5948 20.86 31.1433 21.5876 30.2754 22.3459Z" fill="#CAC8D7"/>
<path d="M39.1543 20.1719C39.7066 19.6459 40.4035 20.0317 41.0128 19.887C40.592 20.7374 39.9725 20.8323 39.1543 20.1719Z" fill="#C5BCCC"/>
<path d="M41.9512 28.8907C42.0432 27.9264 42.4684 27.1593 43.3187 26.458C43.2311 27.5977 42.5999 28.2508 41.9512 28.8907Z" fill="#BBB8C9"/>
<path d="M29.57 23.4416C29.7892 23.6739 29.8024 23.9413 29.7103 24.2262C28.9871 23.7616 28.2814 23.2575 27.1855 23.4942C28.1236 22.5431 28.8424 23.1173 29.57 23.4416Z" fill="#CAC9D6"/>
<path d="M32.6278 19.4662C32.2727 20.2596 32.1632 21.1801 31.4355 21.7806C31.5057 20.996 32.4218 20.3955 31.9221 19.4662C31.8257 19.2865 32.1018 19.1112 32.3034 19.0717C32.6059 19.0147 32.619 19.2471 32.6234 19.4618L32.6278 19.4662Z" fill="#BAB8C5"/>
<path d="M18.317 27.4015C17.8875 27.8092 17.4623 27.6777 17.0371 27.3884C17.3965 27.0421 17.3659 26.446 17.8349 26.1348C17.997 26.5643 18.1548 26.9807 18.3126 27.3971L18.317 27.4015Z" fill="#C3C4CC"/>
<path d="M31.4608 21.7598C31.2284 22.4874 30.7112 22.9564 30.0888 23.3377C29.874 23.0879 29.9792 22.8468 29.9924 22.6101C30.7288 22.7548 30.9611 22.0184 31.4651 21.7598H31.4608Z" fill="#CAC7D5"/>
<path d="M27.2992 27.611C27.6542 27.8828 27.7989 27.348 28.0969 27.4006C28.075 28.0055 27.7463 28.4789 27.4 28.9348C27.3868 28.9479 27.3342 28.9479 27.3123 28.9348C27.286 28.9216 27.2641 28.8866 27.2422 28.8603C27.2597 28.4439 27.2816 28.0231 27.2992 27.6067V27.611Z" fill="#BEB9C8"/>
<path d="M24.9937 28.4703C24.3888 28.1766 23.8322 28.2818 23.3105 28.6763C23.3237 28.5667 23.3325 28.4572 23.3456 28.3476C23.9198 28.0408 24.5028 27.6463 24.9893 28.4703H24.9937Z" fill="#D4D4D9"/>
<path d="M15.9727 59.7394C17.2789 57.2979 18.6508 54.8959 20.1631 52.5684C19.8299 53.3486 19.8036 54.0017 20.8206 54.2778C20.9214 54.3041 20.9608 54.5627 21.0266 54.7118C20.8469 54.8608 20.6584 54.7951 20.4743 54.7468C20.6803 54.9704 20.9959 55.0931 21.2063 55.3386C21.1142 55.5797 21.0353 55.8339 20.803 55.9873C20.4524 55.9435 20.1674 55.7857 19.9351 55.5271C20.1148 55.7988 20.5269 55.8602 20.5926 56.2372C20.5093 56.373 20.4304 56.5045 20.3472 56.6404C19.9395 56.8903 19.6502 56.5352 19.5187 56.4782C19.6502 56.5133 19.9176 56.9604 20.3384 56.636C20.4114 56.8552 20.2317 57.1912 19.7993 57.6442C19.488 57.6836 19.2426 57.4952 18.9489 57.3943C19.1724 57.6091 19.4793 57.7099 19.5406 58.0387C19.5494 58.2798 19.5932 58.534 19.3215 58.683C18.9752 58.5515 18.664 58.3455 18.2081 58.1132C18.6596 58.363 18.9708 58.5734 19.3302 58.6786C19.3522 59.1082 19.0585 59.323 18.7517 59.5334C18.4843 59.4457 18.2563 59.2835 18.0109 59.1608C18.23 59.3142 18.4843 59.4369 18.5062 59.7525C18.2344 60.0462 17.9539 59.8314 17.7961 59.6693C17.143 59.0074 16.56 59.1827 15.977 59.7394H15.9727Z" fill="#C24864"/>
<path d="M26.8299 40.9712C27.7898 41.0676 28.4648 41.712 29.2275 42.1941C28.6884 42.1941 28.2807 41.8697 27.838 41.6287C27.0403 41.1947 26.7027 41.4183 26.6414 42.4308C26.729 43.1847 27.6539 43.1058 27.9038 43.6976C27.7635 43.8291 27.6276 43.9606 27.4874 44.0921C27.163 44.2893 26.9044 44.0745 26.6151 43.9387C26.8912 44.149 27.2244 44.2455 27.4479 44.4997C27.3076 44.6575 27.1674 44.8109 27.0271 44.9687C26.7553 45.1309 26.5143 45.0126 26.2337 44.8723C26.5055 45.0564 26.6984 45.2536 26.8299 45.5079C26.8737 45.8235 26.7378 46.0382 26.4661 46.1829C26.1592 46.0689 25.9313 45.8103 25.493 45.6788C25.9269 45.8585 26.1811 46.0733 26.4003 46.3363C26.4441 46.6563 26.317 46.8798 26.019 47.0026C25.7165 46.836 25.3965 46.7045 24.9231 46.4547C25.3922 46.7133 25.7121 46.8404 26.0146 47.0113C26.019 47.3313 25.8612 47.5329 25.5675 47.6469C24.9801 47.945 24.5593 47.0464 23.9588 47.4234C23.6827 47.4321 23.4065 47.4409 23.1348 47.4497C24.3665 45.2887 25.6025 43.1277 26.8342 40.9668L26.8299 40.9712Z" fill="#C14965"/>
<path d="M26.6564 50.1362C26.1392 51.3109 25.4817 52.4024 24.7804 53.4719C24.627 52.7136 25.0785 51.9991 24.9075 51.2145C24.8461 50.9252 25.245 50.6666 25.6001 50.557C25.9595 50.4431 26.3014 50.2765 26.6521 50.1362H26.6564Z" fill="#C83A58"/>
<path d="M27.0527 55.1816C28.6439 55.7471 30.1429 56.5098 31.6683 57.2242C29.9545 56.9393 28.4466 56.1898 27.0527 55.1816Z" fill="#B93D58"/>
<path d="M19.5378 58.0385C19.2003 57.8676 18.854 57.7141 18.534 57.5169C18.3455 57.3986 18.0475 57.2451 18.179 56.969C18.3192 56.6753 18.5822 56.8287 18.797 56.9471C19.1564 57.1443 19.5597 57.2758 19.7964 57.6484C19.7087 57.7799 19.6254 57.9114 19.5378 58.0429V58.0385Z" fill="#5D0817"/>
<path d="M27.9043 43.6974C27.3476 43.6974 26.9663 43.3029 26.5367 43.0443C26.151 42.812 26.3833 42.6016 26.6376 42.4307C27.1197 42.7945 27.9964 42.7594 27.8999 43.6974H27.9043Z" fill="#530715"/>
<path d="M26.4021 46.3356C25.8411 46.3224 25.4729 45.9104 25.0258 45.6606C24.9074 45.5948 24.811 45.4721 24.9162 45.3187C24.9995 45.1959 25.1397 45.0995 25.2668 45.1872C25.7008 45.4721 26.3802 45.4765 26.4722 46.1778C26.4416 46.226 26.4153 46.2742 26.4021 46.3312V46.3356Z" fill="#58071A"/>
<path d="M23.9571 47.4231C23.7291 46.9672 23.8299 46.7437 24.3428 46.9628C24.7723 47.1425 25.1581 47.4143 25.5657 47.6466C24.8951 48.5583 24.5006 47.4581 23.9571 47.4231Z" fill="#500613"/>
<path d="M20.6001 56.238C20.565 56.2292 20.53 56.2248 20.4993 56.2073C20.0347 55.9355 19.4736 55.7996 19.1755 55.2956C19.1493 55.2517 19.272 55.0457 19.2939 55.0545C19.9032 55.1904 20.4555 55.4358 20.8105 55.9837C20.7404 56.067 20.6702 56.1503 20.6001 56.2336V56.238Z" fill="#4F0414"/>
<path d="M21.2108 55.3396C21.1056 55.3396 20.9829 55.3702 20.904 55.322C20.4525 55.0546 19.554 54.8223 19.7556 54.3928C19.9967 53.8843 20.5621 54.6382 21.0267 54.7127C21.2459 54.8749 21.2766 55.0897 21.2108 55.3352V55.3396Z" fill="#580416"/>
<path d="M27.4553 44.4993C26.7759 44.5562 26.2718 44.1837 25.9124 43.7059C25.6933 43.4166 26.114 43.307 26.7058 43.6401C26.9732 43.7892 27.2318 43.9426 27.4948 44.096C27.4816 44.2319 27.4685 44.3678 27.4553 44.5036V44.4993Z" fill="#590717"/>
<path d="M18.5063 59.7542C18.1205 59.5263 17.7348 59.3028 17.3491 59.0705C17.1913 58.974 17.0642 58.8381 17.1694 58.654C17.2702 58.4831 17.4718 58.4568 17.6165 58.5795C17.9934 58.8995 18.629 58.917 18.7561 59.5351C18.6728 59.6096 18.5895 59.6797 18.5106 59.7542H18.5063Z" fill="#540312"/>
<path d="M26.8341 45.5038C26.3212 45.2232 25.2956 44.8682 25.5279 44.5219C25.9443 43.9039 26.4615 44.9208 27.0313 44.969C26.9656 45.1487 26.8998 45.3284 26.8341 45.5038Z" fill="#4F0614"/>
<path d="M26.0872 38.4806C26.0741 38.8444 25.9031 38.8663 25.6313 38.7041C25.4253 38.5814 25.3377 38.4543 25.4867 38.2132C25.9426 37.468 26.3809 36.7141 26.8236 35.9602C26.9595 35.7279 27.3101 35.7322 27.2926 35.8462C27.2049 36.4862 28.5199 36.8675 27.5951 37.6433C27.354 37.845 27.24 38.1913 27.0647 38.4718C26.7374 38.1825 26.6833 37.8114 26.9025 37.3584C26.7009 37.525 26.6307 37.7529 26.5562 37.9633C26.4686 38.2044 26.2713 38.3359 26.0828 38.4806H26.0872Z" fill="#64666E"/>
<path d="M26.0944 36.0717C26.0506 36.5013 25.8621 36.8256 25.4063 36.8212C24.8014 36.8125 24.328 36.5407 24.2885 35.8701C24.2622 35.4186 24.6041 35.1468 25.0074 35.1731C25.5421 35.2038 25.9892 35.4668 26.0944 36.0717Z" fill="#26272F"/>
<path d="M26.0879 38.4814C26.421 37.9422 26.7541 37.3987 27.1574 36.7412C27.3634 37.4294 26.2501 37.9072 27.0654 38.4726C26.741 38.8364 26.4123 38.6129 26.0879 38.4814Z" fill="#ADAEB8"/>
<path d="M25.0164 37.7982C24.5999 37.5396 24.166 37.2722 23.7408 36.9873C23.7014 36.961 23.7277 36.8076 23.754 36.7243C23.8022 36.5796 23.9205 36.6454 24.0082 36.6717C24.4334 36.7944 24.7227 37.3423 25.2969 37.0618C25.4284 36.9961 25.4722 37.2327 25.4284 37.3511C25.3626 37.5352 25.2793 37.7237 25.0207 37.7982H25.0164Z" fill="#28242C"/>
<path d="M32.6535 42.3916C31.8425 42.3785 31.1544 41.6465 31.1763 40.818C31.1982 39.9896 31.9302 39.3058 32.7543 39.3497C33.5389 39.3891 34.1788 40.0773 34.1744 40.8619C34.1701 41.7122 33.4819 42.4048 32.6535 42.3916Z" fill="#3E141C"/>
<path d="M26.8157 53.2845C26.7368 53.5168 26.6009 53.7141 26.316 53.6965C25.9916 53.6746 25.8119 53.4861 25.8645 53.153C25.9084 52.8681 26.1188 52.7497 26.3861 52.776C26.6667 52.8067 26.785 53.004 26.8157 53.2845Z" fill="#2C212E"/>
<path d="M27.8794 51.4171C27.8093 51.6669 27.6778 51.8554 27.3929 51.851C27.1168 51.8422 26.9283 51.6757 26.9239 51.4127C26.9195 51.0927 27.1343 50.913 27.4499 50.9349C27.7304 50.9524 27.8488 51.1584 27.8794 51.4214V51.4171Z" fill="#201F27"/>
<path d="M17.7234 46.3016C17.4692 46.2402 17.272 46.0999 17.2676 45.8238C17.2676 45.5564 17.4385 45.3592 17.7059 45.3548C18.0215 45.346 18.2275 45.5476 18.21 45.8676C18.1968 46.135 17.9908 46.2753 17.7191 46.3016H17.7234Z" fill="#282834"/>
<path d="M17.1565 47.6342C17.1039 47.9585 16.9417 48.1339 16.6655 48.1163C16.4026 48.0988 16.2009 47.9498 16.2316 47.6473C16.2579 47.3755 16.4201 47.209 16.7094 47.209C17.0162 47.209 17.0951 47.4369 17.1609 47.6298L17.1565 47.6342Z" fill="#1A1C22"/>
<path d="M35.0521 35.8472C34.9338 36.4916 34.3683 37.2104 33.8774 37.9512C33.7284 38.1791 33.5004 37.9293 33.3339 37.846C31.0765 36.6976 28.9068 35.3914 26.7721 34.0326C26.6055 33.9274 26.3995 33.8485 26.4171 33.5723C26.5091 31.9111 28.3632 30.8722 29.779 31.6963C31.2167 32.5335 32.6501 33.3751 34.0922 34.2035C34.6357 34.5147 35.0565 34.8873 35.0477 35.8472H35.0521Z" fill="#F8F9FA"/>
<path d="M30.809 39.4858C30.6907 39.6523 30.5592 39.8145 30.454 39.9899C29.2617 41.9799 29.0163 42.0105 27.1797 40.3493C27.881 39.157 28.5955 37.9779 29.2749 36.7725C29.516 36.343 29.7395 36.2202 30.1428 36.5578C30.6512 36.9873 31.6769 37.0136 31.7164 37.6755C31.7514 38.2585 31.1378 38.8809 30.809 39.4858Z" fill="#F6F5F8"/>
<path d="M35.4099 34.7421C33.135 33.2254 30.882 31.6694 28.2871 30.7577C28.7561 30.3369 29.3259 30.4771 29.8958 30.8146C31.4211 31.7088 32.9421 32.5986 34.4588 33.506C34.9541 33.804 35.4976 34.0933 35.4099 34.7464V34.7421Z" fill="#C5C0D3"/>
<path d="M23.7461 31.8589C24.4036 31.9159 25.0348 31.9422 25.495 32.6654C24.5964 32.889 24.1932 32.2709 23.7461 31.8589Z" fill="#ACA9B8"/>
<path d="M36.8449 39.542C36.1743 39.2001 35.5037 39.1124 35.2188 38.4111C36.0034 38.3454 36.1655 38.4549 36.8449 39.542Z" fill="#BAB3C7"/>
<path d="M40.2598 36.9261C40.1941 37.3951 40.1196 37.7852 39.6988 37.6318C39.1114 37.417 38.2523 37.7633 37.9849 36.9085C37.9236 36.7069 38.0244 36.2116 38.5022 36.3475C39.107 36.5184 39.8653 36.3475 40.2555 36.9304L40.2598 36.9261Z" fill="#2A2A33"/>
<path d="M39.1894 38.9544C38.8168 38.6169 37.7779 39.2613 37.7166 38.1654C37.6903 37.7271 37.9664 37.5299 38.3916 37.7534C38.9044 38.0208 39.7942 37.5737 39.9214 38.5029C39.9608 38.7791 39.8205 39.2481 39.1894 38.9588V38.9544Z" fill="#2B2736"/>
<path d="M37.9227 30.9945C36.1036 31.1786 34.3854 30.9594 32.9082 29.7584C32.917 29.4515 32.9257 29.1491 32.9301 28.8423C35.731 30.8191 37.892 30.6789 40.5482 28.3557C40.6184 28.2944 40.7367 28.2944 40.8332 28.2681C40.6096 30.1573 40.3817 30.372 37.9227 30.9988V30.9945Z" fill="#CCBED6"/>
<path d="M30.4282 28.8553C30.5641 28.6449 30.7 28.4345 30.8315 28.2241C32.4664 30.4377 34.6142 31.5949 37.4151 31.3932C37.6869 31.3757 37.9718 31.3932 38.2085 31.2091C38.5723 31.1478 38.9361 31.082 39.3832 31.0075C38.8572 31.8885 38.2041 32.2786 37.2223 32.2436C34.4301 32.1428 32.1289 31.1127 30.4238 28.8597L30.4282 28.8553Z" fill="#CABED3"/>
<path d="M41.6639 26.353C41.734 26.4232 41.8042 26.4977 41.8743 26.5678C41.6508 27.0543 41.4228 27.5409 41.0371 27.9354C41.059 27.3349 41.4448 26.879 41.6595 26.353H41.6639Z" fill="#968EA2"/>
<path d="M32.9085 27.8259C30.4933 24.4464 32.7331 20.6987 35.8233 20.2866C38.747 20.2822 40.6186 21.6016 41.0394 23.973C41.4032 26.0287 40.5354 27.9135 38.7601 28.8954C36.9937 29.8728 34.9292 29.623 33.3731 28.2423C33.2197 28.1064 33.0663 27.9661 32.9085 27.8259Z" fill="#0D1226"/>
<path d="M24.8265 29.2369C24.8265 29.6138 24.5811 29.833 24.2655 29.8461C23.8754 29.8637 23.6168 29.5788 23.6211 29.1974C23.6211 28.8073 23.8841 28.5838 24.2962 28.6188C24.6644 28.6495 24.8353 28.8731 24.8309 29.2369H24.8265Z" fill="#E9E8EE"/>
<path d="M19.3324 58.6791C18.5873 59.0693 18.241 58.346 17.7325 58.0918C17.5879 58.0173 17.601 57.8376 17.7325 57.7499C17.829 57.6885 18.0262 57.6403 18.0963 57.6973C18.5127 58.0173 19.1702 58.0436 19.3324 58.6835H19.3368L19.3324 58.6791Z" fill="#540B18"/>
<path d="M20.3397 56.6371C19.9759 56.9965 18.7705 56.7423 18.6347 56.2733C18.6127 56.1944 18.6566 56.0717 18.7136 56.0015C18.8144 55.8744 18.959 55.9095 19.0818 55.9752C19.5025 56.1944 19.9233 56.4179 20.3441 56.6415H20.3354L20.3397 56.6371Z" fill="#4E0715"/>
<path d="M26.0155 47.01C25.3405 47.3212 24.9679 46.7294 24.4857 46.484C24.3542 46.4182 24.3455 46.2517 24.42 46.1289C24.5033 45.993 24.6523 45.9799 24.7706 46.0588C25.2046 46.3481 25.8358 46.3788 26.0199 47.0012L26.0155 47.01Z" fill="#5A0717"/>
<path d="M25.6465 36.0969C25.6377 36.2547 25.5982 36.3819 25.4185 36.3775C25.081 36.3731 24.8224 36.2153 24.7084 35.8997C24.6646 35.777 24.7829 35.6323 24.9407 35.6279C25.2783 35.6279 25.5106 35.7989 25.6465 36.0926V36.0969Z" fill="#DBE1E5"/>
<path d="M32.6838 39.7876C33.2975 39.8884 33.7095 40.1996 33.7183 40.8659C33.7271 41.5321 33.3238 41.931 32.7014 41.9223C32.0921 41.9135 31.6625 41.5278 31.645 40.8703C31.6275 40.1909 32.0921 39.9191 32.6838 39.7876Z" fill="#D9435F"/>
<path d="M28.3494 32.248C28.4809 32.3226 28.6299 32.4102 28.7789 32.4935C29.7652 33.0633 30.7514 33.6463 31.7464 34.203C32.1058 34.4046 32.3688 34.5536 32.0795 35.0577C31.8165 35.5224 31.5755 35.5048 31.1853 35.2681C30.1816 34.6588 29.1603 34.0715 28.1521 33.471C27.933 33.3395 27.5779 33.2562 27.8146 32.8705C27.9549 32.6469 28.0075 32.3445 28.3494 32.248Z" fill="#282039"/>
<path d="M33.5331 35.5845C33.7698 35.5845 33.8925 35.7291 33.9232 35.9483C33.9495 36.1499 33.7873 36.277 33.6295 36.2946C33.406 36.3165 33.2438 36.1762 33.2219 35.9395C33.2043 35.7291 33.3884 35.6765 33.5331 35.5889V35.5845Z" fill="#555756"/>
<path d="M29.8602 39.0686C29.4745 38.9853 29.2158 38.7355 29.229 38.3673C29.2421 37.9947 29.4876 37.7448 29.9216 37.7887C30.2897 37.8237 30.487 38.0429 30.4914 38.3936C30.4914 38.7968 30.2459 39.0116 29.8602 39.0686Z" fill="#3D2B2D"/>
<path d="M28.7699 39.4888C29.2565 39.5107 29.4932 39.7518 29.4976 40.1463C29.4976 40.4925 29.2652 40.738 28.9102 40.7512C28.4982 40.7643 28.2571 40.5276 28.2659 40.1112C28.2746 39.7561 28.4894 39.5501 28.7743 39.4932L28.7699 39.4888Z" fill="#341E2A"/>
<path d="M39.7624 37.1099C39.254 37.2414 38.7937 37.1362 38.1406 36.825C38.8902 36.6452 39.3329 36.8556 39.7624 37.1099Z" fill="#C1BFCB"/>
<path d="M39.7487 38.5121C38.9948 38.7181 38.5477 38.4814 38.1094 38.2009C38.6222 38.0825 39.0868 38.2009 39.7487 38.5121Z" fill="#BCB1C6"/>
<path d="M32.5348 23.4546C32.789 22.9812 33.1221 22.6919 33.7051 22.5692C35.0552 22.2887 36.3964 21.9336 37.7158 21.5216C38.4829 21.2805 39.0571 21.4296 39.5655 21.995C39.6181 22.6306 39.0921 22.7314 38.6889 22.8278C36.9137 23.2486 35.1691 23.7922 33.3851 24.1779C32.8065 24.3006 32.206 24.4058 32.5348 23.4503V23.4546Z" fill="#1C7ACE"/>
<path d="M32.5387 23.4557C32.5519 23.7143 32.4511 24.1176 32.9113 23.9861C35.0986 23.3725 37.3472 22.9911 39.4775 22.1758C39.5257 22.1583 39.5432 22.0619 39.5739 22.0005C39.872 22.1846 39.7974 22.5615 39.9991 22.7939C39.2276 23.4689 38.2195 23.4557 37.3034 23.6924C35.6465 24.122 34.0291 24.7181 32.3196 24.9329C32.5431 24.4639 32.0303 23.8809 32.5387 23.4557Z" fill="#032050"/>
<path d="M32.3184 24.9379C34.5144 24.0744 36.8419 23.6842 39.0949 23.0268C39.393 22.9391 39.6998 22.8733 39.9978 22.7988C40.3923 23.2021 39.9759 23.224 39.7524 23.2854C37.3723 23.9516 34.9878 24.6091 32.6033 25.2578C32.3578 25.3236 32.349 25.1 32.3184 24.9335V24.9379Z" fill="#386DAA"/>
<path d="M30.6296 33.9089C30.9145 34.0842 31.3353 34.3209 31.7298 34.5971C31.8525 34.6804 31.7867 34.8951 31.6509 34.9346C31.1818 35.0705 30.9188 34.6409 30.555 34.4787C30.3885 34.4042 30.1299 34.3385 30.1562 34.0711C30.1737 33.9133 30.3096 33.8607 30.6296 33.9133V33.9089Z" fill="#A74F66"/>
<path d="M29.8571 33.51C29.8176 33.7292 29.7124 33.8695 29.5809 33.83C29.0505 33.6722 28.5465 33.4487 28.2221 32.9753C28.1564 32.8788 28.3536 32.6772 28.4588 32.7298C28.9453 32.9709 29.4056 33.2558 29.8571 33.51Z" fill="#3C709F"/>
<rect x="33.043" width="31.2835" height="65.1333" rx="15.6417" transform="rotate(30.4842 33.043 0)" stroke="black" stroke-width="1.26027"/>
<path d="M91.0764 40.9583V42.0362H92.1543H118.562H119.639V40.9583V17.2456V16.1678H118.562H108.861H107.783V17.2456V34.4912H103.472V17.2456V16.1678H102.394H92.1543H91.0764V17.2456V40.9583ZM120.178 40.9583V42.0362H121.256H130.418H131.496V40.9583V31.5522L136.157 35.8247L136.917 36.522L137.647 35.7923L141.735 31.7041V40.9583V42.0362H142.813H151.975H153.053V40.9583V17.2456V16.1678H151.975H142.813H142.289L141.966 16.5797L136.849 23.0921L131.236 16.5442L130.914 16.1678H130.418H121.256H120.178V17.2456V40.9583Z" fill="white" stroke="black" stroke-width="2.1557"/>
<path d="M61.9749 62.4964V63.5743H63.0527H70.1249H71.2028V62.4964V55.8977L74.3652 58.9763L75.1505 59.7407L75.9018 58.9429L78.6154 56.0611V62.4964V63.5743H79.6932H86.7654H87.8433V62.4964V44.1919V43.114H86.7654H79.6932H79.1694L78.8457 43.526L75.0809 48.3176L70.9433 43.4904L70.6207 43.114H70.1249H63.0527H61.9749V44.1919V62.4964Z" fill="white" stroke="black" stroke-width="2.1557"/>
<path d="M111.557 62.4964V63.5743H112.635H119.707H120.785V62.4964V55.8977L123.947 58.9763L124.733 59.7407L125.484 58.9429L128.197 56.0611V62.4964V63.5743H129.275H136.347H137.425V62.4964V44.1919V43.114H136.347H129.275H128.751L128.428 43.526L124.663 48.3176L120.525 43.4904L120.203 43.114H119.707H112.635H111.557V44.1919V62.4964Z" fill="white" stroke="black" stroke-width="2.1557"/>
<path d="M111.557 44.1919V43.114H110.479H89.4609H88.3831V44.1919V62.5153V63.5932H89.4609H110.479H111.557V62.5153V58.2039V57.1261H110.479H98.0837V55.5093H102.934H104.012V54.4315V51.1979V50.1201H102.934H98.0837V49.0422H110.479H111.557V47.9644V44.1919Z" fill="white" stroke="black" stroke-width="2.1557"/>
<path d="M160.598 44.1919V43.114H159.52H138.502H137.424V44.1919V62.5153V63.5932H138.502H159.52H160.598V62.5153V58.2039V57.1261H159.52H147.125V55.5093H151.975H153.053V54.4315V51.1979V50.1201H151.975H147.125V49.0422H159.52H160.598V47.9644V44.1919Z" fill="white" stroke="black" stroke-width="2.1557"/>
<path d="M183.233 44.1919V43.114H182.155H162.754H161.676H160.598V44.1919V55.5093V56.5872H161.676H173.532V57.1261H161.676H160.598V58.2039V58.7429V62.5153V63.5932H161.676H182.155H183.233V62.5153V51.1979V50.1201H182.155H169.76V49.0422H182.155H183.233V47.9644V44.1919Z" fill="white" stroke="black" stroke-width="2.1557"/>
<mask id="path-116-outside-1_954_233" maskUnits="userSpaceOnUse" x="60.5918" y="14.2456" width="32" height="29" fill="black">
<rect fill="white" x="60.5918" y="14.2456" width="32" height="29"/>
<path fill-rule="evenodd" clip-rule="evenodd" d="M89.9991 17.2456H63.5918V40.9583H73.2924V31.2577H89.9991V17.2456ZM80.8374 21.557H73.2924V25.8684H80.8374V21.557Z"/>
</mask>
<path fill-rule="evenodd" clip-rule="evenodd" d="M89.9991 17.2456H63.5918V40.9583H73.2924V31.2577H89.9991V17.2456ZM80.8374 21.557H73.2924V25.8684H80.8374V21.557Z" fill="white"/>
<path d="M63.5918 17.2456V15.0899H61.4361V17.2456H63.5918ZM89.9991 17.2456H92.1548V15.0899H89.9991V17.2456ZM63.5918 40.9583H61.4361V43.114H63.5918V40.9583ZM73.2924 40.9583V43.114H75.4481V40.9583H73.2924ZM73.2924 31.2577V29.102H71.1367V31.2577H73.2924ZM89.9991 31.2577V33.4134H92.1548V31.2577H89.9991ZM73.2924 21.557V19.4013H71.1367V21.557H73.2924ZM80.8374 21.557H82.9931V19.4013H80.8374V21.557ZM73.2924 25.8684H71.1367V28.0241H73.2924V25.8684ZM80.8374 25.8684V28.0241H82.9931V25.8684H80.8374ZM63.5918 19.4013H89.9991V15.0899H63.5918V19.4013ZM65.7475 40.9583V17.2456H61.4361V40.9583H65.7475ZM73.2924 38.8026H63.5918V43.114H73.2924V38.8026ZM71.1367 31.2577V40.9583H75.4481V31.2577H71.1367ZM89.9991 29.102H73.2924V33.4134H89.9991V29.102ZM87.8434 17.2456V31.2577H92.1548V17.2456H87.8434ZM73.2924 23.7127H80.8374V19.4013H73.2924V23.7127ZM75.4481 25.8684V21.557H71.1367V25.8684H75.4481ZM80.8374 23.7127H73.2924V28.0241H80.8374V23.7127ZM78.6817 21.557V25.8684H82.9931V21.557H78.6817Z" fill="black" mask="url(#path-116-outside-1_954_233)"/>
<mask id="path-118-outside-2_954_233" maskUnits="userSpaceOnUse" x="152.209" y="14.2456" width="32" height="29" fill="black">
<rect fill="white" x="152.209" y="14.2456" width="32" height="29"/>
<path fill-rule="evenodd" clip-rule="evenodd" d="M181.616 17.2456H155.209V40.9583H164.91V31.2577H181.616V17.2456ZM172.455 21.557H164.91V25.8684H172.455V21.557Z"/>
</mask>
<path fill-rule="evenodd" clip-rule="evenodd" d="M181.616 17.2456H155.209V40.9583H164.91V31.2577H181.616V17.2456ZM172.455 21.557H164.91V25.8684H172.455V21.557Z" fill="white"/>
<path d="M155.209 17.2456V15.0899H153.053V17.2456H155.209ZM181.616 17.2456H183.772V15.0899H181.616V17.2456ZM155.209 40.9583H153.053V43.114H155.209V40.9583ZM164.91 40.9583V43.114H167.065V40.9583H164.91ZM164.91 31.2577V29.102H162.754V31.2577H164.91ZM181.616 31.2577V33.4134H183.772V31.2577H181.616ZM164.91 21.557V19.4013H162.754V21.557H164.91ZM172.455 21.557H174.61V19.4013H172.455V21.557ZM164.91 25.8684H162.754V28.0241H164.91V25.8684ZM172.455 25.8684V28.0241H174.61V25.8684H172.455ZM155.209 19.4013H181.616V15.0899H155.209V19.4013ZM157.365 40.9583V17.2456H153.053V40.9583H157.365ZM164.91 38.8026H155.209V43.114H164.91V38.8026ZM162.754 31.2577V40.9583H167.065V31.2577H162.754ZM181.616 29.102H164.91V33.4134H181.616V29.102ZM179.461 17.2456V31.2577H183.772V17.2456H179.461ZM164.91 23.7127H172.455V19.4013H164.91V23.7127ZM167.065 25.8684V21.557H162.754V25.8684H167.065ZM172.455 23.7127H164.91V28.0241H172.455V23.7127ZM170.299 21.557V25.8684H174.61V21.557H170.299Z" fill="black" mask="url(#path-118-outside-2_954_233)"/>
</svg>
