<svg width="82" height="36" viewBox="0 0 82 36" fill="none" xmlns="http://www.w3.org/2000/svg">
<mask id="path-1-outside-1_724_158" maskUnits="userSpaceOnUse" x="0" y="0" width="82" height="36" fill="black">
<rect fill="white" width="82" height="36"/>
<path d="M8.34755 11.6524V18H2L2 2.13111L8.34755 2.13111H13.1082L17.8689 2.13111V3.718H19.4558V10.0656H17.8689V11.6524L8.34755 11.6524ZM8.34755 5.30489V8.47867L13.1082 8.47867L13.1082 5.30489H8.34755ZM36.8992 16.4131V18H22.6172V16.4131H21.0303L21.0303 2.13111L27.3778 2.13111L27.3778 14.8262H32.1385V2.13111L38.486 2.13111V16.4131H36.8992ZM46.4081 10.0656V18H40.0605V2.13111L46.4081 2.13111V3.718H47.995V5.30489H49.5819V6.89178H51.1688V5.30489H52.7556V3.718L54.3425 3.718V2.13111H60.6901V18H54.3425V10.0656H52.7556V11.6524H51.1688V13.2393H49.5819V11.6524H47.995V10.0656H46.4081ZM68.6307 11.6524V18H62.2832V2.13111H68.6307L73.3914 2.13111L78.1521 2.13111V3.718H79.7389V10.0656H78.1521V11.6524L68.6307 11.6524ZM68.6307 5.30489V8.47867H73.3914V5.30489L68.6307 5.30489ZM6.95415 27.8073V34H2L2 21.6146H6.95415V22.8532H8.19269V24.0917H9.43123V25.3302H10.6698V24.0917H11.9083V22.8532H13.1468L13.1468 21.6146L18.101 21.6146V34H13.1468V27.8073H11.9083V29.0458H10.6698V30.2844H9.43123V29.0458H8.19269V27.8073H6.95415ZM20.5829 34V32.7615H19.3444V22.8532H20.5829V21.6146H32.9683V24.0917H24.2985V26.5688H28.0141V29.0458H24.2985V31.5229H32.9683V34H20.5829ZM39.1513 27.8073L39.1513 34H34.1972L34.1972 21.6146H39.1513V22.8532H40.3898V24.0917H41.6284V25.3302H42.8669V24.0917H44.1055V22.8532H45.344V21.6146L50.2982 21.6146L50.2982 34H45.344L45.344 27.8073H44.1055V29.0458H42.8669L42.8669 30.2844H41.6284L41.6284 29.0458H40.3898V27.8073H39.1513ZM52.7801 34V32.7615H51.5415L51.5415 22.8532H52.7801V21.6146H65.1654V24.0917H56.4957V26.5688H60.2113V29.0458H56.4957L56.4957 31.5229H65.1654V34H52.7801ZM66.3943 34V31.5229H75.0641V29.0458H67.6328V27.8073H66.3943V22.8532H67.6328V21.6146H80.0182V24.0917H71.3485V26.5688H75.0641H78.7797V27.8073H80.0182V32.7615H78.7797V34H66.3943Z"/>
</mask>
<path d="M8.34755 11.6524V18H2L2 2.13111L8.34755 2.13111H13.1082L17.8689 2.13111V3.718H19.4558V10.0656H17.8689V11.6524L8.34755 11.6524ZM8.34755 5.30489V8.47867L13.1082 8.47867L13.1082 5.30489H8.34755ZM36.8992 16.4131V18H22.6172V16.4131H21.0303L21.0303 2.13111L27.3778 2.13111L27.3778 14.8262H32.1385V2.13111L38.486 2.13111V16.4131H36.8992ZM46.4081 10.0656V18H40.0605V2.13111L46.4081 2.13111V3.718H47.995V5.30489H49.5819V6.89178H51.1688V5.30489H52.7556V3.718L54.3425 3.718V2.13111H60.6901V18H54.3425V10.0656H52.7556V11.6524H51.1688V13.2393H49.5819V11.6524H47.995V10.0656H46.4081ZM68.6307 11.6524V18H62.2832V2.13111H68.6307L73.3914 2.13111L78.1521 2.13111V3.718H79.7389V10.0656H78.1521V11.6524L68.6307 11.6524ZM68.6307 5.30489V8.47867H73.3914V5.30489L68.6307 5.30489ZM6.95415 27.8073V34H2L2 21.6146H6.95415V22.8532H8.19269V24.0917H9.43123V25.3302H10.6698V24.0917H11.9083V22.8532H13.1468L13.1468 21.6146L18.101 21.6146V34H13.1468V27.8073H11.9083V29.0458H10.6698V30.2844H9.43123V29.0458H8.19269V27.8073H6.95415ZM20.5829 34V32.7615H19.3444V22.8532H20.5829V21.6146H32.9683V24.0917H24.2985V26.5688H28.0141V29.0458H24.2985V31.5229H32.9683V34H20.5829ZM39.1513 27.8073L39.1513 34H34.1972L34.1972 21.6146H39.1513V22.8532H40.3898V24.0917H41.6284V25.3302H42.8669V24.0917H44.1055V22.8532H45.344V21.6146L50.2982 21.6146L50.2982 34H45.344L45.344 27.8073H44.1055V29.0458H42.8669L42.8669 30.2844H41.6284L41.6284 29.0458H40.3898V27.8073H39.1513ZM52.7801 34V32.7615H51.5415L51.5415 22.8532H52.7801V21.6146H65.1654V24.0917H56.4957V26.5688H60.2113V29.0458H56.4957L56.4957 31.5229H65.1654V34H52.7801ZM66.3943 34V31.5229H75.0641V29.0458H67.6328V27.8073H66.3943V22.8532H67.6328V21.6146H80.0182V24.0917H71.3485V26.5688H75.0641H78.7797V27.8073H80.0182V32.7615H78.7797V34H66.3943Z" fill="#F6C929"/>
<path d="M8.34755 11.6524V10.3487H7.04383V11.6524H8.34755ZM8.34755 18L8.34755 19.3037H9.65128L9.65128 18H8.34755ZM2 18H0.696276L0.696276 19.3037H2L2 18ZM2 2.13111L2 0.82739H0.696276L0.696276 2.13111H2ZM17.8689 2.13111H19.1726V0.82739H17.8689V2.13111ZM17.8689 3.718H16.5652V5.02173H17.8689V3.718ZM19.4558 3.718H20.7595V2.41428H19.4558V3.718ZM19.4558 10.0656V11.3693H20.7595V10.0656H19.4558ZM17.8689 10.0656V8.76183H16.5652V10.0656H17.8689ZM17.8689 11.6524V12.9562H19.1726V11.6524H17.8689ZM8.34755 5.30489V4.00117H7.04383V5.30489H8.34755ZM8.34755 8.47867H7.04383V9.78239H8.34755V8.47867ZM13.1082 8.47867V9.78239H14.4119V8.47867H13.1082ZM13.1082 5.30489L14.4119 5.30489V4.00117L13.1082 4.00117V5.30489ZM7.04383 11.6524V18H9.65128V11.6524H7.04383ZM8.34755 16.6963H2L2 19.3037H8.34755L8.34755 16.6963ZM3.30372 18L3.30372 2.13111H0.696276L0.696276 18H3.30372ZM2 3.43484L8.34755 3.43484V0.82739L2 0.82739L2 3.43484ZM8.34755 3.43484H13.1082V0.82739L8.34755 0.82739V3.43484ZM13.1082 3.43484L17.8689 3.43484V0.82739L13.1082 0.82739V3.43484ZM16.5652 2.13111V3.718H19.1726V2.13111H16.5652ZM17.8689 5.02173H19.4558V2.41428H17.8689V5.02173ZM18.1521 3.718V10.0656H20.7595V3.718H18.1521ZM19.4558 8.76183H17.8689V11.3693H19.4558V8.76183ZM16.5652 10.0656V11.6524H19.1726V10.0656H16.5652ZM17.8689 10.3487L8.34755 10.3487V12.9562L17.8689 12.9562V10.3487ZM7.04383 5.30489V8.47867H9.65128V5.30489H7.04383ZM8.34755 9.78239L13.1082 9.78239V7.17494L8.34755 7.17494V9.78239ZM14.4119 8.47867L14.4119 5.30489L11.8045 5.30489L11.8045 8.47867H14.4119ZM13.1082 4.00117H8.34755V6.60862L13.1082 6.60862L13.1082 4.00117ZM36.8992 16.4131V15.1094H35.5954V16.4131H36.8992ZM36.8992 18V19.3037H38.2029V18H36.8992ZM22.6172 18H21.3134V19.3037H22.6172V18ZM22.6172 16.4131H23.9209V15.1094H22.6172V16.4131ZM21.0303 16.4131H19.7265V17.7168H21.0303V16.4131ZM21.0303 2.13111V0.82739L19.7265 0.82739V2.13111H21.0303ZM27.3778 2.13111H28.6815V0.82739L27.3778 0.82739V2.13111ZM27.3778 14.8262H26.0741V16.1299H27.3778V14.8262ZM32.1385 14.8262V16.1299H33.4422V14.8262H32.1385ZM32.1385 2.13111V0.82739L30.8348 0.82739V2.13111H32.1385ZM38.486 2.13111H39.7898V0.82739H38.486V2.13111ZM38.486 16.4131V17.7168H39.7898V16.4131H38.486ZM35.5954 16.4131V18H38.2029V16.4131H35.5954ZM36.8992 16.6963H22.6172V19.3037H36.8992V16.6963ZM23.9209 18V16.4131H21.3134V18H23.9209ZM22.6172 15.1094H21.0303V17.7168H22.6172V15.1094ZM22.334 16.4131L22.334 2.13111L19.7265 2.13111L19.7265 16.4131H22.334ZM21.0303 3.43484L27.3778 3.43484V0.82739L21.0303 0.82739V3.43484ZM26.0741 2.13111L26.0741 14.8262H28.6815L28.6815 2.13111H26.0741ZM27.3778 16.1299H32.1385V13.5225H27.3778L27.3778 16.1299ZM33.4422 14.8262V2.13111H30.8348L30.8348 14.8262H33.4422ZM32.1385 3.43484L38.486 3.43484V0.82739L32.1385 0.82739V3.43484ZM37.1823 2.13111V16.4131H39.7898V2.13111L37.1823 2.13111ZM38.486 15.1094H36.8992V17.7168H38.486V15.1094ZM46.4081 10.0656V8.76183H45.1044V10.0656H46.4081ZM46.4081 18V19.3037H47.7118V18H46.4081ZM40.0605 18H38.7568V19.3037H40.0605V18ZM40.0605 2.13111V0.82739L38.7568 0.82739V2.13111H40.0605ZM46.4081 2.13111H47.7118V0.82739H46.4081V2.13111ZM46.4081 3.718L45.1044 3.718V5.02173L46.4081 5.02173V3.718ZM47.995 3.718H49.2987V2.41428H47.995V3.718ZM47.995 5.30489H46.6913V6.60862H47.995V5.30489ZM49.5819 5.30489H50.8856V4.00117H49.5819V5.30489ZM49.5819 6.89178H48.2781V8.1955H49.5819V6.89178ZM51.1688 6.89178V8.1955H52.4725V6.89178H51.1688ZM51.1688 5.30489V4.00117H49.865V5.30489H51.1688ZM52.7556 5.30489V6.60862H54.0594V5.30489L52.7556 5.30489ZM52.7556 3.718V2.41428H51.4519V3.718H52.7556ZM54.3425 3.718V5.02173H55.6463V3.718H54.3425ZM54.3425 2.13111V0.82739H53.0388V2.13111L54.3425 2.13111ZM60.6901 2.13111H61.9938V0.82739H60.6901V2.13111ZM60.6901 18V19.3037H61.9938V18H60.6901ZM54.3425 18H53.0388V19.3037H54.3425V18ZM54.3425 10.0656H55.6463V8.76183H54.3425V10.0656ZM52.7556 10.0656V8.76183H51.4519V10.0656H52.7556ZM52.7556 11.6524V12.9562H54.0594V11.6524H52.7556ZM51.1688 11.6524V10.3487H49.865V11.6524H51.1688ZM51.1688 13.2393V14.5431H52.4725V13.2393H51.1688ZM49.5819 13.2393H48.2781V14.5431H49.5819V13.2393ZM49.5819 11.6524H50.8856V10.3487H49.5819V11.6524ZM47.995 11.6524H46.6913V12.9562H47.995V11.6524ZM47.995 10.0656H49.2987V8.76183H47.995V10.0656ZM45.1044 10.0656V18H47.7118V10.0656H45.1044ZM46.4081 16.6963H40.0605V19.3037H46.4081V16.6963ZM41.3643 18V2.13111H38.7568V18H41.3643ZM40.0605 3.43484L46.4081 3.43484V0.82739L40.0605 0.82739V3.43484ZM45.1044 2.13111V3.718L47.7118 3.718V2.13111L45.1044 2.13111ZM46.4081 5.02173H47.995V2.41428H46.4081V5.02173ZM46.6913 3.718V5.30489H49.2987V3.718H46.6913ZM47.995 6.60862H49.5819V4.00117H47.995V6.60862ZM48.2781 5.30489V6.89178H50.8856V5.30489H48.2781ZM49.5819 8.1955H51.1688V5.58805H49.5819V8.1955ZM52.4725 6.89178V5.30489H49.865V6.89178H52.4725ZM51.1688 6.60862H52.7556V4.00117H51.1688V6.60862ZM54.0594 5.30489V3.718L51.4519 3.718V5.30489L54.0594 5.30489ZM52.7556 5.02173L54.3425 5.02173V2.41428L52.7556 2.41428V5.02173ZM55.6463 3.718V2.13111L53.0388 2.13111V3.718L55.6463 3.718ZM54.3425 3.43484H60.6901V0.82739L54.3425 0.82739V3.43484ZM59.3864 2.13111V18H61.9938V2.13111H59.3864ZM60.6901 16.6963H54.3425V19.3037H60.6901V16.6963ZM55.6463 18V10.0656H53.0388V18H55.6463ZM54.3425 8.76183H52.7556V11.3693H54.3425V8.76183ZM51.4519 10.0656V11.6524H54.0594V10.0656H51.4519ZM52.7556 10.3487H51.1688V12.9562H52.7556V10.3487ZM49.865 11.6524V13.2393H52.4725V11.6524H49.865ZM51.1688 11.9356H49.5819V14.5431L51.1688 14.5431V11.9356ZM50.8856 13.2393V11.6524H48.2781V13.2393H50.8856ZM49.5819 10.3487H47.995V12.9562H49.5819V10.3487ZM49.2987 11.6524V10.0656H46.6913V11.6524H49.2987ZM47.995 8.76183H46.4081V11.3693H47.995V8.76183ZM68.6307 11.6524V10.3487H67.327V11.6524H68.6307ZM68.6307 18V19.3037H69.9345V18H68.6307ZM62.2832 18H60.9794V19.3037H62.2832V18ZM62.2832 2.13111V0.82739H60.9794V2.13111L62.2832 2.13111ZM78.1521 2.13111H79.4558V0.82739H78.1521V2.13111ZM78.1521 3.718L76.8483 3.718V5.02173L78.1521 5.02173V3.718ZM79.7389 3.718H81.0427V2.41428H79.7389V3.718ZM79.7389 10.0656V11.3693H81.0427V10.0656H79.7389ZM78.1521 10.0656V8.76183H76.8483V10.0656H78.1521ZM78.1521 11.6524V12.9562H79.4558V11.6524H78.1521ZM68.6307 5.30489V4.00117H67.327V5.30489H68.6307ZM68.6307 8.47867H67.327V9.78239H68.6307V8.47867ZM73.3914 8.47867V9.78239L74.6951 9.78239V8.47867L73.3914 8.47867ZM73.3914 5.30489H74.6951V4.00117H73.3914V5.30489ZM67.327 11.6524V18H69.9345V11.6524H67.327ZM68.6307 16.6963H62.2832V19.3037H68.6307V16.6963ZM63.5869 18V2.13111L60.9794 2.13111V18H63.5869ZM62.2832 3.43484H68.6307V0.82739L62.2832 0.82739V3.43484ZM68.6307 3.43484L73.3914 3.43484V0.82739L68.6307 0.82739V3.43484ZM73.3914 3.43484L78.1521 3.43484V0.82739L73.3914 0.82739V3.43484ZM76.8483 2.13111V3.718L79.4558 3.718V2.13111L76.8483 2.13111ZM78.1521 5.02173H79.7389V2.41428H78.1521V5.02173ZM78.4352 3.718V10.0656H81.0427V3.718H78.4352ZM79.7389 8.76183H78.1521V11.3693H79.7389V8.76183ZM76.8483 10.0656V11.6524H79.4558V10.0656H76.8483ZM78.1521 10.3487L68.6307 10.3487V12.9562L78.1521 12.9562V10.3487ZM67.327 5.30489V8.47867H69.9345V5.30489H67.327ZM68.6307 9.78239H73.3914V7.17494H68.6307V9.78239ZM74.6951 8.47867V5.30489H72.0877V8.47867L74.6951 8.47867ZM73.3914 4.00117L68.6307 4.00117V6.60862H73.3914V4.00117ZM6.95415 27.8073V26.5036H5.65043V27.8073H6.95415ZM6.95415 34L6.95415 35.3037H8.25788V34H6.95415ZM2 34H0.696276L0.696276 35.3037H2L2 34ZM2 21.6146L2 20.3109H0.696276L0.696276 21.6146H2ZM6.95415 21.6146H8.25788V20.3109H6.95415V21.6146ZM6.95415 22.8532H5.65043L5.65043 24.1569H6.95415V22.8532ZM8.19269 22.8532H9.49642V21.5494H8.19269V22.8532ZM8.19269 24.0917H6.88897V25.3954H8.19269V24.0917ZM9.43123 24.0917H10.735V22.788H9.43123V24.0917ZM9.43123 25.3302H8.1275V26.634H9.43123V25.3302ZM10.6698 25.3302V26.634H11.9735V25.3302H10.6698ZM10.6698 24.0917V22.788H9.36604V24.0917H10.6698ZM11.9083 24.0917V25.3954H13.212V24.0917H11.9083ZM11.9083 22.8532L11.9083 21.5494H10.6046L10.6046 22.8532H11.9083ZM13.1468 22.8532V24.1569H14.4506V22.8532H13.1468ZM13.1468 21.6146V20.3109H11.8431V21.6146H13.1468ZM18.101 21.6146H19.4047V20.3109H18.101V21.6146ZM18.101 34V35.3037H19.4047V34H18.101ZM13.1468 34H11.8431V35.3037H13.1468V34ZM13.1468 27.8073H14.4506V26.5036H13.1468V27.8073ZM11.9083 27.8073V26.5036H10.6046V27.8073H11.9083ZM11.9083 29.0458V30.3496H13.212V29.0458H11.9083ZM10.6698 29.0458V27.7421H9.36604V29.0458H10.6698ZM10.6698 30.2844V31.5881H11.9735V30.2844H10.6698ZM9.43123 30.2844H8.1275V31.5881H9.43123V30.2844ZM9.43123 29.0458H10.735V27.7421H9.43123V29.0458ZM8.19269 29.0458H6.88897V30.3496H8.19269V29.0458ZM8.19269 27.8073H9.49642V26.5036H8.19269V27.8073ZM5.65043 27.8073V34H8.25788V27.8073H5.65043ZM6.95415 32.6963H2L2 35.3037H6.95415L6.95415 32.6963ZM3.30372 34L3.30372 21.6146H0.696276L0.696276 34H3.30372ZM2 22.9183H6.95415V20.3109H2L2 22.9183ZM5.65043 21.6146V22.8532H8.25788V21.6146H5.65043ZM6.95415 24.1569H8.19269V21.5494H6.95415V24.1569ZM6.88897 22.8532V24.0917H9.49642V22.8532H6.88897ZM8.19269 25.3954H9.43123V22.788H8.19269V25.3954ZM8.1275 24.0917V25.3302H10.735V24.0917H8.1275ZM9.43123 26.634H10.6698V24.0265H9.43123V26.634ZM11.9735 25.3302V24.0917H9.36604V25.3302H11.9735ZM10.6698 25.3954H11.9083V22.788H10.6698V25.3954ZM13.212 24.0917V22.8532H10.6046V24.0917H13.212ZM11.9083 24.1569H13.1468L13.1468 21.5494H11.9083L11.9083 24.1569ZM14.4506 22.8532L14.4506 21.6146H11.8431L11.8431 22.8532H14.4506ZM13.1468 22.9183L18.101 22.9183V20.3109L13.1468 20.3109L13.1468 22.9183ZM16.7973 21.6146L16.7973 34H19.4047V21.6146L16.7973 21.6146ZM18.101 32.6963H13.1468V35.3037H18.101V32.6963ZM14.4506 34V27.8073H11.8431V34H14.4506ZM13.1468 26.5036H11.9083V29.111H13.1468V26.5036ZM10.6046 27.8073V29.0458H13.212V27.8073H10.6046ZM11.9083 27.7421H10.6698V30.3496H11.9083V27.7421ZM9.36604 29.0458V30.2844H11.9735V29.0458H9.36604ZM10.6698 28.9807H9.43123V31.5881H10.6698V28.9807ZM10.735 30.2844V29.0458H8.1275V30.2844H10.735ZM9.43123 27.7421H8.19269V30.3496H9.43123V27.7421ZM9.49642 29.0458V27.8073H6.88897V29.0458H9.49642ZM8.19269 26.5036H6.95415V29.111H8.19269V26.5036ZM20.5829 34H19.2792V35.3037H20.5829V34ZM20.5829 32.7615H21.8866V31.4577H20.5829V32.7615ZM19.3444 32.7615H18.0406V34.0652H19.3444V32.7615ZM19.3444 22.8532V21.5494H18.0406V22.8532H19.3444ZM20.5829 22.8532V24.1569H21.8866V22.8532H20.5829ZM20.5829 21.6146V20.3109H19.2792V21.6146H20.5829ZM32.9683 21.6146H34.272V20.3109H32.9683V21.6146ZM32.9683 24.0917V25.3954H34.272V24.0917H32.9683ZM24.2985 24.0917V22.788H22.9948V24.0917H24.2985ZM24.2985 26.5688H22.9948V27.8725H24.2985V26.5688ZM28.0141 26.5688H29.3179V25.265H28.0141V26.5688ZM28.0141 29.0458V30.3496H29.3179V29.0458H28.0141ZM24.2985 29.0458V27.7421H22.9948V29.0458H24.2985ZM24.2985 31.5229H22.9948V32.8266H24.2985V31.5229ZM32.9683 31.5229L34.272 31.5229V30.2192L32.9683 30.2192V31.5229ZM32.9683 34V35.3037L34.272 35.3037V34L32.9683 34ZM21.8866 34V32.7615H19.2792V34H21.8866ZM20.5829 31.4577H19.3444V34.0652H20.5829V31.4577ZM20.6481 32.7615V22.8532H18.0406V32.7615H20.6481ZM19.3444 24.1569H20.5829V21.5494H19.3444V24.1569ZM21.8866 22.8532V21.6146H19.2792V22.8532H21.8866ZM20.5829 22.9183H32.9683V20.3109H20.5829V22.9183ZM31.6646 21.6146V24.0917H34.272V21.6146H31.6646ZM32.9683 22.788H24.2985V25.3954H32.9683V22.788ZM22.9948 24.0917V26.5688H25.6022V24.0917H22.9948ZM24.2985 27.8725H28.0141V25.265H24.2985V27.8725ZM26.7104 26.5688V29.0458H29.3179V26.5688H26.7104ZM28.0141 27.7421H24.2985V30.3496H28.0141V27.7421ZM22.9948 29.0458V31.5229H25.6022V29.0458H22.9948ZM24.2985 32.8266H32.9683V30.2192H24.2985V32.8266ZM31.6646 31.5229V34L34.272 34V31.5229L31.6646 31.5229ZM32.9683 32.6963H20.5829V35.3037H32.9683V32.6963ZM39.1513 27.8073V26.5036H37.8476V27.8073H39.1513ZM39.1513 34V35.3037H40.455V34H39.1513ZM34.1972 34L32.8934 34V35.3037L34.1972 35.3037V34ZM34.1972 21.6146V20.3109H32.8934V21.6146H34.1972ZM39.1513 21.6146H40.455V20.3109H39.1513V21.6146ZM39.1513 22.8532H37.8476V24.1569H39.1513V22.8532ZM40.3898 22.8532H41.6936V21.5494H40.3898V22.8532ZM40.3898 24.0917H39.0861V25.3954H40.3898V24.0917ZM41.6284 24.0917H42.9321V22.788H41.6284V24.0917ZM41.6284 25.3302H40.3247V26.634H41.6284V25.3302ZM42.8669 25.3302V26.634H44.1706V25.3302H42.8669ZM42.8669 24.0917V22.788H41.5632V24.0917H42.8669ZM44.1055 24.0917V25.3954H45.4092V24.0917H44.1055ZM44.1055 22.8532V21.5494H42.8017V22.8532H44.1055ZM45.344 22.8532V24.1569H46.6477V22.8532H45.344ZM45.344 21.6146V20.3109H44.0403V21.6146H45.344ZM50.2982 21.6146H51.6019V20.3109H50.2982V21.6146ZM50.2982 34V35.3037H51.6019V34H50.2982ZM45.344 34H44.0403V35.3037H45.344V34ZM45.344 27.8073H46.6477V26.5036H45.344V27.8073ZM44.1055 27.8073V26.5036H42.8017V27.8073H44.1055ZM44.1055 29.0458L44.1055 30.3496H45.4092L45.4092 29.0458H44.1055ZM42.8669 29.0458V27.7421H41.5632V29.0458H42.8669ZM42.8669 30.2844V31.5881H44.1706V30.2844H42.8669ZM41.6284 30.2844H40.3247V31.5881H41.6284V30.2844ZM41.6284 29.0458H42.9321V27.7421H41.6284V29.0458ZM40.3898 29.0458H39.0861L39.0861 30.3496H40.3898L40.3898 29.0458ZM40.3898 27.8073H41.6936V26.5036H40.3898V27.8073ZM37.8476 27.8073L37.8476 34H40.455L40.455 27.8073H37.8476ZM39.1513 32.6963H34.1972V35.3037H39.1513V32.6963ZM35.5009 34L35.5009 21.6146H32.8934V34L35.5009 34ZM34.1972 22.9183H39.1513V20.3109H34.1972V22.9183ZM37.8476 21.6146V22.8532H40.455V21.6146H37.8476ZM39.1513 24.1569H40.3898V21.5494H39.1513V24.1569ZM39.0861 22.8532V24.0917H41.6936V22.8532H39.0861ZM40.3898 25.3954H41.6284V22.788H40.3898V25.3954ZM40.3247 24.0917V25.3302H42.9321V24.0917H40.3247ZM41.6284 26.634H42.8669V24.0265H41.6284V26.634ZM44.1706 25.3302V24.0917H41.5632V25.3302H44.1706ZM42.8669 25.3954H44.1055V22.788H42.8669V25.3954ZM45.4092 24.0917V22.8532H42.8017V24.0917H45.4092ZM44.1055 24.1569H45.344V21.5494H44.1055V24.1569ZM46.6477 22.8532V21.6146H44.0403V22.8532H46.6477ZM45.344 22.9183L50.2982 22.9183V20.3109L45.344 20.3109V22.9183ZM48.9944 21.6146L48.9944 34H51.6019L51.6019 21.6146L48.9944 21.6146ZM50.2982 32.6963H45.344V35.3037H50.2982V32.6963ZM46.6477 34L46.6477 27.8073H44.0403L44.0403 34H46.6477ZM45.344 26.5036H44.1055V29.111H45.344V26.5036ZM42.8017 27.8073V29.0458H45.4092V27.8073H42.8017ZM44.1055 27.7421H42.8669L42.8669 30.3496H44.1055L44.1055 27.7421ZM41.5632 29.0458L41.5632 30.2844H44.1706L44.1706 29.0458H41.5632ZM42.8669 28.9807H41.6284L41.6284 31.5881H42.8669L42.8669 28.9807ZM42.9321 30.2844L42.9321 29.0458H40.3247L40.3247 30.2844H42.9321ZM41.6284 27.7421H40.3898L40.3898 30.3496H41.6284L41.6284 27.7421ZM41.6936 29.0458V27.8073H39.0861V29.0458H41.6936ZM40.3898 26.5036H39.1513V29.111H40.3898V26.5036ZM52.7801 34H51.4763V35.3037H52.7801V34ZM52.7801 32.7615H54.0838V31.4577H52.7801V32.7615ZM51.5415 32.7615H50.2378V34.0652H51.5415V32.7615ZM51.5415 22.8532V21.5494H50.2378V22.8532H51.5415ZM52.7801 22.8532V24.1569H54.0838V22.8532H52.7801ZM52.7801 21.6146V20.3109H51.4763V21.6146H52.7801ZM65.1654 21.6146H66.4692V20.3109H65.1654V21.6146ZM65.1654 24.0917V25.3954H66.4692V24.0917H65.1654ZM56.4957 24.0917V22.788H55.192V24.0917H56.4957ZM56.4957 26.5688H55.192V27.8725H56.4957V26.5688ZM60.2113 26.5688H61.515V25.265H60.2113V26.5688ZM60.2113 29.0458L60.2113 30.3496H61.515L61.515 29.0458H60.2113ZM56.4957 29.0458V27.7421H55.192V29.0458H56.4957ZM56.4957 31.5229H55.192V32.8266H56.4957V31.5229ZM65.1654 31.5229H66.4692V30.2192H65.1654V31.5229ZM65.1654 34V35.3037H66.4692V34H65.1654ZM54.0838 34V32.7615H51.4763V34H54.0838ZM52.7801 31.4577H51.5415V34.0652H52.7801V31.4577ZM52.8453 32.7615L52.8453 22.8532H50.2378L50.2378 32.7615H52.8453ZM51.5415 24.1569H52.7801V21.5494H51.5415V24.1569ZM54.0838 22.8532V21.6146H51.4763V22.8532H54.0838ZM52.7801 22.9183H65.1654V20.3109H52.7801V22.9183ZM63.8617 21.6146V24.0917H66.4692V21.6146H63.8617ZM65.1654 22.788H56.4957V25.3954H65.1654V22.788ZM55.192 24.0917V26.5688H57.7994V24.0917H55.192ZM56.4957 27.8725H60.2113V25.265H56.4957V27.8725ZM58.9076 26.5688V29.0458H61.515V26.5688H58.9076ZM60.2113 27.7421H56.4957L56.4957 30.3496H60.2113L60.2113 27.7421ZM55.192 29.0458L55.192 31.5229H57.7994L57.7994 29.0458H55.192ZM56.4957 32.8266H65.1654V30.2192H56.4957V32.8266ZM63.8617 31.5229V34H66.4692V31.5229H63.8617ZM65.1654 32.6963H52.7801V35.3037H65.1654V32.6963ZM66.3943 34H65.0906V35.3037H66.3943V34ZM66.3943 31.5229V30.2192H65.0906V31.5229H66.3943ZM75.0641 31.5229V32.8266H76.3678V31.5229H75.0641ZM75.0641 29.0458H76.3678V27.7421H75.0641V29.0458ZM67.6328 29.0458H66.3291V30.3496H67.6328V29.0458ZM67.6328 27.8073H68.9366V26.5036H67.6328V27.8073ZM66.3943 27.8073H65.0906V29.111H66.3943V27.8073ZM66.3943 22.8532V21.5494H65.0906V22.8532H66.3943ZM67.6328 22.8532V24.1569H68.9366V22.8532H67.6328ZM67.6328 21.6146V20.3109H66.3291V21.6146H67.6328ZM80.0182 21.6146H81.322V20.3109H80.0182V21.6146ZM80.0182 24.0917V25.3954H81.322V24.0917H80.0182ZM71.3485 24.0917V22.788H70.0447V24.0917H71.3485ZM71.3485 26.5688H70.0447V27.8725H71.3485V26.5688ZM78.7797 26.5688H80.0834V25.265H78.7797V26.5688ZM78.7797 27.8073H77.476V29.111H78.7797V27.8073ZM80.0182 27.8073H81.322V26.5036H80.0182V27.8073ZM80.0182 32.7615V34.0652H81.322V32.7615H80.0182ZM78.7797 32.7615V31.4577H77.476V32.7615H78.7797ZM78.7797 34V35.3037H80.0834V34H78.7797ZM67.698 34V31.5229H65.0906V34H67.698ZM66.3943 32.8266H75.0641V30.2192H66.3943V32.8266ZM76.3678 31.5229V29.0458H73.7604V31.5229H76.3678ZM75.0641 27.7421H67.6328V30.3496H75.0641V27.7421ZM68.9366 29.0458V27.8073H66.3291V29.0458H68.9366ZM67.6328 26.5036H66.3943V29.111H67.6328V26.5036ZM67.698 27.8073V22.8532H65.0906V27.8073H67.698ZM66.3943 24.1569H67.6328V21.5494H66.3943V24.1569ZM68.9366 22.8532V21.6146H66.3291V22.8532H68.9366ZM67.6328 22.9183H80.0182V20.3109H67.6328V22.9183ZM78.7145 21.6146V24.0917H81.322V21.6146H78.7145ZM80.0182 22.788H71.3485V25.3954H80.0182V22.788ZM70.0447 24.0917V26.5688H72.6522V24.0917H70.0447ZM71.3485 27.8725H75.0641V25.265H71.3485V27.8725ZM75.0641 27.8725H78.7797V25.265H75.0641V27.8725ZM77.476 26.5688V27.8073H80.0834V26.5688H77.476ZM78.7797 29.111H80.0182V26.5036H78.7797V29.111ZM78.7145 27.8073V32.7615H81.322V27.8073H78.7145ZM80.0182 31.4577H78.7797V34.0652H80.0182V31.4577ZM77.476 32.7615V34H80.0834V32.7615H77.476ZM78.7797 32.6963H66.3943V35.3037H78.7797V32.6963Z" fill="black" mask="url(#path-1-outside-1_724_158)"/>
</svg>
