<svg width="220" height="81" viewBox="0 0 220 81" fill="none" xmlns="http://www.w3.org/2000/svg">
<path d="M96.7433 0L63.3197 74.4554V72.999H57.6743V74.4554H55.3526V72.999H49.7075V74.4554H47.3856V72.999H41.7404V74.4554H39.4185V72.999H33.7735V74.4554H31.4517V72.999H25.8064V74.4554H23.4846V72.999H17.8395V74.4554H15.5176V72.999H9.87244V74.4554H7.55049V72.999H1.90551V74.4554H0V80.7447H68.418H187.422V74.4554V74.4548L219.756 2.42635V0H96.7433Z" fill="#637595"/>
<path d="M187.421 74.4551H68.418V80.7444H187.421V74.4551Z" fill="#4F627D"/>
<path d="M219.755 2.42635V0H96.7422L100.751 2.42635H219.755Z" fill="#A2A8BD"/>
<path d="M96.7433 0L63.3197 74.4554V72.999H57.6743V74.4554H55.3526V72.999H49.7075V74.4554H47.3856V72.999H41.7404V74.4554H39.4185V72.999H33.7735V74.4554H31.4517V72.999H25.8064V74.4554H23.4846V72.999H17.8395V74.4554H15.5176V72.999H9.87244V74.4554H7.55049V72.999H1.90551V74.4554H0V80.7447H68.418V74.4554L100.752 2.42635L96.7433 0Z" fill="#404D68"/>
<path d="M114.593 69.3658C114.508 69.3658 114.424 69.3258 114.371 69.2514C114.284 69.129 114.312 68.9587 114.435 68.8714L192.664 13.1559C192.787 13.0687 192.958 13.0974 193.044 13.2198C193.131 13.3422 193.103 13.5125 192.98 13.5997L114.75 69.3152C114.703 69.3494 114.647 69.3658 114.593 69.3658Z" fill="#404D68"/>
<path d="M104.003 57.9956C103.918 57.9956 103.834 57.9556 103.781 57.8812C103.694 57.7588 103.722 57.5885 103.845 57.5013L158.266 18.7428C158.389 18.6554 158.559 18.6847 158.645 18.8066C158.733 18.929 158.704 19.0993 158.582 19.1865L104.161 57.9451C104.113 57.9791 104.058 57.9956 104.003 57.9956Z" fill="#404D68"/>
<path d="M142.306 66.9279C142.221 66.9279 142.137 66.888 142.084 66.8135C141.996 66.6911 142.025 66.5209 142.147 66.4336L196.569 27.6751C196.692 27.5884 196.862 27.6171 196.949 27.7389C197.036 27.8613 197.007 28.0316 196.885 28.1189L142.463 66.8774C142.415 66.9114 142.36 66.9279 142.306 66.9279Z" fill="#404D68"/>
<path d="M77.1841 73.1088L77.0754 73.0859C76.9377 73.0259 76.8747 72.8652 76.935 72.7273L105.294 7.79978C105.354 7.66194 105.515 7.59972 105.652 7.65931C105.79 7.71948 105.853 7.88017 105.793 8.0179L77.4337 72.9455C77.3891 73.0476 77.2892 73.1088 77.1841 73.1088Z" fill="#404D68"/>
</svg>
