<svg width="89" height="102" viewBox="0 0 89 102" fill="none" xmlns="http://www.w3.org/2000/svg">
<g id="Group 12">
<rect id="Rectangle 6" x="42.2559" y="4.27832" width="40.3139" height="83.935" rx="20.1569" transform="rotate(23.41 42.2559 4.27832)" stroke="black" stroke-width="1.62407"/>
<path id="Vector" d="M20.1394 83.5618C19.6109 83.0639 19.0193 82.608 18.8988 81.8204C18.5842 80.9828 18.3937 80.2267 18.7049 79.2489C19.0091 78.3062 18.6982 77.269 17.5518 76.7453C16.8396 76.4182 16.0292 76.0804 16.0617 75.0576C15.4835 72.1411 15.7088 69.233 16.1857 66.3336C16.321 65.4972 16.7869 64.7563 16.9088 63.9045C16.9885 63.3539 17.3531 62.9899 17.9666 63.2552C18.5024 63.4904 18.6547 63.9383 18.3796 64.4733C18.1957 64.8262 17.9698 65.1616 17.848 65.8313C18.3324 64.7808 18.9329 64.7575 19.7615 64.9677C21.1666 65.3284 22.1548 66.5491 23.6231 66.7311C25.2754 67.2945 26.7515 68.2269 28.3223 68.9598C29.5913 69.5536 29.7231 69.5145 30.291 68.2203C30.6273 67.4443 30.9573 66.6634 31.2999 65.8923C31.7148 64.97 31.4174 64.5003 30.5539 64.1464C28.5697 63.3396 26.7049 62.3018 24.8667 61.2037C23.3367 60.295 21.794 59.4221 20.5586 58.0898C20.1645 57.6663 19.9744 57.2345 19.9188 56.695C19.9583 55.5916 20.5679 54.6792 20.9703 53.7015C21.8079 51.6452 22.7058 49.6156 23.6037 47.586C23.7511 47.2604 23.7327 46.7447 24.2946 46.7319C25.4017 47.3515 26.0838 48.4451 27.0675 49.2166C30.5339 51.9227 34.349 53.9992 38.3213 55.8286C39.0819 56.1781 39.9336 56.3912 40.4283 57.1665C40.7165 58.4797 39.8629 59.4907 39.4094 60.5601C35.5738 69.6024 31.7152 78.6418 27.8321 87.6672C27.6601 88.0699 27.5644 88.5372 27.0808 88.7224C26.2568 88.7791 25.6793 88.2531 25.0547 87.8525C23.2797 86.5758 21.6542 85.1269 20.1331 83.5569L20.1394 83.5618Z" fill="#F83857"/>
<path id="Vector_2" d="M60.9649 62.6784C59.9876 64.9854 58.6124 67.2506 57.6295 69.5583C57.5664 70.3345 57.0411 70.9632 56.7518 71.6594C56.4057 72.4935 56.3017 72.8935 55.3796 72.894C52.8868 72.896 50.5348 72.1975 48.1925 71.4864C46.6551 71.0227 45.1675 70.4104 43.6715 69.8219C43.2107 69.6401 42.7709 69.3987 42.2753 69.7163C40.2386 70.4586 40.2743 72.0763 40.5502 73.7952C41.2492 74.8411 42.5222 74.9165 43.4801 75.5262C45.3254 76.4982 47.3399 76.954 49.3461 77.4336C49.4652 77.4757 49.5751 77.5361 49.6808 77.6084C50.0029 77.8644 50.3874 77.9817 50.7684 78.1166C51.0185 78.2051 51.2657 78.3167 51.4708 78.5018C51.6381 78.6575 51.8775 78.9352 51.7674 79.057C50.7813 80.1925 52.9959 80.9763 51.8031 82.2343C50.801 83.2864 49.9849 84.6456 48.966 85.6999C48.1069 86.6204 47.1114 87.3587 45.978 87.9035C44.1424 88.6606 42.3558 89.5369 40.4293 90.0662C37.76 90.8016 35.0634 90.6752 32.3536 90.4878C32.0145 90.4616 31.8067 90.2085 31.6317 89.9456C31.3848 89.5608 31.0773 89.468 30.6057 89.5664C28.6919 89.9689 27.9603 89.3938 27.9276 87.5252C28.2632 86.0094 29.0659 84.6803 29.6283 83.2501C30.4725 81.7964 31.691 82.3965 32.8412 82.675C32.9926 82.6107 33.123 82.5148 33.2457 82.4028C33.4469 82.19 33.6174 81.9582 33.7199 81.6837C33.7529 81.5828 33.7916 81.4813 33.8358 81.379C33.9299 81.1283 33.9659 80.8677 34.0305 80.6092C34.0833 80.3921 34.1535 80.1784 34.2413 79.9683C34.3755 79.5817 34.6938 79.3032 34.8217 78.9116C34.8253 78.803 34.8457 78.6923 34.8668 78.5873C34.9083 78.3715 34.9863 78.174 35.0936 77.9842C35.1666 77.8386 35.2515 77.6971 35.3245 77.5515C35.406 77.3364 35.4881 77.127 35.5051 76.8972C35.4767 76.6219 35.3452 76.3878 35.1821 76.1746C35.1009 76.0709 35.017 75.9447 34.8993 75.9137C33.5215 75.5895 33.4207 74.6856 33.8203 73.5489C34.8398 71.1229 35.6659 68.607 37.0167 66.3277C37.2992 66.1275 37.6222 66.0704 37.9571 66.063C38.6508 65.9655 39.2618 66.715 39.9902 66.2546C40.1704 66.0558 40.3443 65.8521 40.444 65.6007C40.4833 65.5047 40.5346 65.413 40.5851 65.3156C40.7163 65.0888 40.8181 64.8541 40.8597 64.5928C40.8808 64.4878 40.9201 64.3918 40.9587 64.2903C41.0886 64.0066 41.2234 63.7167 41.223 63.3923C41.2582 63.1261 41.3222 62.862 41.4339 62.6148C41.535 62.3746 41.697 62.1666 41.7799 61.9173C41.8066 61.766 41.8509 61.6182 41.8952 61.4704C41.9676 61.2281 42.1289 61.0145 42.1536 60.7553C41.7646 60.1433 40.9421 60.1202 40.5335 59.5334C40.3652 58.0858 41.0068 57.5223 42.3145 57.9691C42.8972 58.17 43.4455 58.4605 44.0845 58.4723C46.8436 59.1943 49.4544 60.3729 52.2353 61.041C54.7934 61.657 57.3431 62.2513 59.9964 62.2123C60.36 62.207 60.8148 62.1563 60.9635 62.6672L60.9649 62.6784Z" fill="#F83857"/>
<path id="Vector_3" d="M27.7668 41.6564C29.2027 42.9068 30.5852 44.2322 32.282 45.1543C32.9728 45.1711 33.5105 45.5597 34.0756 45.8937C36.5594 47.3784 39.1393 48.6747 41.7424 49.9284C43.4435 50.7475 43.5161 51.0117 42.7524 52.7002C42.1416 54.0624 41.9132 55.6161 40.7877 56.7291C40.2641 57.0047 39.8301 56.6715 39.4022 56.4799C35.2169 54.5859 31.1328 52.4972 27.4626 49.7083C26.3564 48.8666 25.1191 48.0696 24.665 46.6119C24.2988 44.7619 25.5366 43.4073 26.1349 41.8532C26.6787 41.7857 27.2071 41.5494 27.7738 41.6669L27.7668 41.6564Z" fill="#FCFCFC"/>
<path id="Vector_4" d="M61.1185 61.6345C60.9566 61.7514 60.7953 61.8738 60.6278 61.9914C59.2643 62.8379 57.8208 62.3056 56.4632 62.0984C52.6523 61.524 48.9997 60.3437 45.3892 58.9988C44.506 58.6702 44.2963 58.127 44.6592 57.3363C44.9772 56.6423 45.2301 55.9279 45.5845 55.2521C46.8197 52.0878 46.8737 52.0185 50.0373 53.2025C53.2367 54.3992 56.5162 55.2331 59.8822 55.7545C60.2829 55.8186 60.6801 55.9003 60.9846 56.1983C61.8595 56.3686 62.7249 56.2783 63.6688 56.0416C63.3839 57.3691 62.3805 58.3189 62.1846 59.5841C61.6497 59.9066 61.1372 60.2718 60.5016 60.5158C60.7079 60.8943 61.454 60.9895 61.1115 61.624L61.1185 61.6345Z" fill="#FBFBFC"/>
<path id="Vector_5" d="M56.4496 73.2841C55.6022 74.5732 55.4284 76.1999 54.3862 77.3879C53.6719 77.8238 52.9319 77.9156 52.0815 77.8048C48.3721 77.3146 44.8476 76.2493 41.4762 74.63C40.7136 74.2636 40.5522 73.7429 40.8401 72.99C41.1751 72.1117 41.5402 71.2468 41.9172 70.3861C42.3075 69.4952 42.8394 69.3324 43.7282 69.706C46.4484 70.8483 49.2395 71.7826 52.1248 72.4206C53.2659 72.6717 54.4219 72.6763 55.5638 72.8419C55.9175 72.8948 56.3008 72.8188 56.437 73.2743L56.4496 73.2841Z" fill="#FAFBFB"/>
<path id="Vector_6" d="M17.8309 61.8555C17.9137 60.1832 18.9903 58.86 19.4366 57.319C19.7407 57.2016 19.9431 57.3643 20.1335 57.5684C22.8269 60.4216 26.3307 62.0074 29.758 63.7108C30.1579 63.906 30.5486 64.1193 30.9576 64.2962C31.5529 64.5525 31.76 64.9366 31.503 65.5718C31.0908 66.6077 30.6184 67.6168 30.1936 68.6429C29.8868 69.381 29.3304 69.5298 28.6693 69.202C25.3169 67.5519 21.8417 66.1048 18.9805 63.5969C18.4372 63.1179 17.9529 62.6088 17.8253 61.8562L17.8309 61.8555Z" fill="#FAFBFB"/>
<path id="Vector_7" d="M60.9904 56.2036C57.5525 56.1123 54.3348 55.0431 51.1059 54.0208C50.1281 53.7095 49.1405 53.4109 48.2111 52.9855C47.3357 52.5819 46.9291 52.8372 46.6593 53.6904C46.4711 54.2829 46.1693 54.8326 45.9159 55.4048C45.6797 55.4284 45.5762 55.2819 45.5119 55.085C45.4436 54.6722 45.5469 54.2667 45.7315 53.9193C46.246 52.9277 45.7881 52.495 44.9036 52.1096C43.8748 51.6624 43.5765 52.2401 43.2465 53.021C42.7038 54.2894 42.1926 55.5823 41.5358 56.8022C41.3421 57.0766 41.1002 57.2831 40.7429 57.2933C40.6098 57.2756 40.5097 57.2027 40.4334 57.0926C40.4112 56.8677 40.5381 56.7438 40.7267 56.6578C41.4175 55.0239 42.0839 53.3759 42.8175 51.7651C43.0772 51.1979 42.9575 51.0135 42.4155 50.7279C39.8223 49.3706 37.1239 48.2199 34.6269 46.6742C33.8377 46.1859 33.0675 45.6667 32.2874 45.1602C32.4031 45.1287 32.5194 45.1029 32.6294 45.0722C32.9855 44.8231 33.3245 44.9859 33.6305 45.1586C34.2412 45.4926 34.9088 45.5065 35.5666 45.6241C36.714 45.8346 37.3429 45.398 37.8805 44.3636C38.3226 43.5233 38.1338 42.3685 39.1165 41.8026C39.2145 41.9042 39.3125 42.0059 39.4105 42.1076C39.8343 41.4858 39.6549 40.6828 40.0317 40.0497C40.1236 39.8733 40.2618 39.748 40.4608 39.7005C40.5658 39.8127 40.6708 39.9249 40.7709 40.0434C41.3097 40.8075 40.8319 41.4986 40.5679 42.1689C40.1747 43.1739 39.4999 44.0204 38.9477 44.937C38.5885 45.528 38.1991 46.1512 38.646 47.0463C39.0621 46.2718 39.2919 45.5545 39.6554 44.9061C40.5627 43.2737 41.7142 42.8292 43.4533 43.4956C45.539 44.2955 47.577 45.2151 49.6234 46.1109C51.7419 47.0376 52.1717 48.2535 51.2744 50.4254C51.0855 50.8757 50.8434 51.3099 50.7853 52.0798C51.7512 51.5615 51.9313 50.7651 52.0686 49.991C52.3587 48.384 52.8231 46.8522 53.9697 45.6341C54.3723 45.2085 54.775 44.6007 55.539 45.0239C55.5515 45.1248 55.5745 45.2187 55.5927 45.3189C55.5878 46.105 54.8778 46.3923 54.4423 46.8277C53.9065 47.3723 54.2335 47.5765 54.6221 47.8641C54.336 48.9526 53.4645 49.7267 53.1139 50.8004C52.6369 52.2769 52.6948 52.56 54.2322 53.8036C55.2194 54.6032 56.0755 54.6677 57.1277 54.0191C57.202 53.9758 57.2903 53.9534 57.3807 53.9479C57.4935 53.9396 57.6014 53.9376 57.7142 53.9293C58.6586 54.7512 59.7209 55.2853 61.0143 55.2956C61.345 55.3001 61.7204 55.3901 61.8251 55.8211C61.535 55.914 61.1931 55.9109 60.9967 56.2085L60.9904 56.2036Z" fill="#1B1A24"/>
<path id="Vector_8" d="M66.9293 47.5893C68.0597 44.865 69.118 42.1097 70.3388 39.4253C75.6999 27.6323 69.3696 14.4614 56.7062 11.7184C49.3245 10.1187 42.9371 12.4026 37.7902 18.0331C35.1141 20.9607 33.9821 24.6814 32.418 28.1768C31.1396 31.0391 29.9572 33.9407 28.7209 36.8205C28.5137 37.3073 28.3766 37.8536 27.5656 38.3356C28.4425 36.229 29.1973 34.3765 29.9823 32.5374C31.319 29.4117 32.6796 26.2945 34.0219 23.1681C39.2461 10.9596 54.1708 6.88191 64.8027 14.7663C72.0122 20.1156 74.7824 30.3758 71.2293 38.6204C69.9045 41.7047 68.5734 44.7841 67.2479 47.8629C67.0159 47.9201 66.8681 47.8758 66.9293 47.5893Z" fill="#3E6B9F"/>
<path id="Vector_9" d="M55.539 45.0192C53.7134 45.6271 53.2299 47.2353 52.7437 48.8211C52.561 49.4129 52.4505 50.0357 52.3329 50.6479C52.081 51.92 51.4014 52.6817 49.949 52.6286C50.3373 51.6754 50.7347 50.7495 51.0964 49.811C51.6596 48.3409 51.3361 47.3394 49.9536 46.7027C47.6425 45.6462 45.304 44.6444 42.9424 43.6852C41.7735 43.2099 40.6843 43.7435 40.0715 44.9522C39.8294 45.4319 39.6412 45.9334 39.4236 46.4271C39.2101 46.909 38.9855 47.3922 38.7482 47.9111C37.6434 46.2553 37.6395 45.994 39.0179 44.03C39.8738 42.8081 40.6483 41.5736 40.7772 40.0436C40.8834 39.5694 40.7921 39.1083 40.7168 38.6395C40.5963 37.8975 41.0214 38.1122 41.3967 38.2933C42.5664 41.8023 45.2503 43.6607 48.6047 44.5934C50.568 45.1409 52.6331 45.4993 54.5575 44.2189C55.1148 43.8481 55.5833 44.0461 55.7495 44.7426C55.6814 44.8365 55.6078 44.931 55.539 45.0192Z" fill="#F8F8FA"/>
<path id="Vector_10" d="M57.3772 53.943C56.9614 55.133 55.4058 55.3033 54.1877 54.2933C54.1183 54.2393 54.0582 54.1671 54.0148 54.0928C53.5299 53.3504 52.1416 52.9876 52.2648 52.2836C52.4677 51.1201 52.8401 49.8558 53.6621 48.8659C53.9441 48.5235 54.2337 48.1973 54.522 47.8598C54.4504 47.1458 54.8457 47.0285 55.425 47.1558C57.3678 47.9506 57.7455 48.6551 57.6365 51.4463C57.6036 52.2814 57.4676 53.1122 57.3772 53.943Z" fill="#F6F8F9"/>
<path id="Vector_11" d="M56.1212 73.4464C55.2564 72.9902 54.6425 73.1346 53.7367 72.9909C50.1788 72.4363 46.8063 71.2668 43.4922 69.925C42.8507 69.6631 42.5879 69.7469 42.3533 70.3794C41.9059 71.5903 40.7816 72.9878 41.0904 73.9171C41.4154 74.8842 43.2536 75.0659 44.4709 75.4726C47.6844 76.5537 50.888 77.7385 54.3851 77.3899C54.2364 77.5677 54.0828 77.7519 53.9341 77.9297C53.1213 78.8103 52.1296 78.4325 51.2 78.2804C50.6424 78.1902 50.0792 78.0096 49.5982 77.6652L49.587 77.6666C47.4547 77.2254 45.392 76.565 43.3602 75.7869C42.2389 75.2829 40.9408 75.0968 40.1803 73.9674C40.4214 72.2868 41.005 70.7516 42.0501 69.4038C42.5376 68.7001 43.0949 69.1546 43.5922 69.3547C46.4546 70.4965 49.3529 71.5143 52.3712 72.1699C56.0677 72.9691 56.2624 72.2905 57.4203 70.1546C56.9104 71.5499 56.6722 71.5112 56.3319 72.851L56.1212 73.4464Z" fill="#370A17"/>
<path id="Vector_12" d="M17.8304 61.8564C20.8666 65.316 24.9854 67.0873 29.0045 69.019C29.3855 69.1994 29.6846 69.2249 29.8357 68.7451C29.8652 68.6617 29.9129 68.5875 29.948 68.5035C30.4374 67.3556 31.46 66.1017 31.2598 65.0849C31.052 64.0065 29.2823 63.8732 28.2053 63.3124C25.0407 61.6618 21.9111 59.9726 19.4361 57.32C19.5988 57.1176 19.7559 56.916 19.9186 56.7137C21.6806 59.2157 24.3424 60.5304 26.8949 61.9724C28.2906 62.7611 29.7746 63.3909 31.2348 64.0578C31.9533 64.3898 32.2816 64.7418 31.8402 65.5878C31.2422 66.732 30.7661 67.9409 30.2893 69.1441C30.0029 69.8627 29.6174 69.9675 28.9556 69.6341C27.2021 68.7589 25.4246 67.9207 23.6626 67.0693C21.54 66.0634 19.432 65.0387 17.8965 63.1688C17.6684 62.8897 17.3582 62.6835 17.533 62.2576C17.6361 62.1253 17.7329 61.9881 17.836 61.8557L17.8304 61.8564Z" fill="#3D0C16"/>
<path id="Vector_13" d="M39.1199 41.8087C39.0376 42.1547 39.0086 42.5169 38.8661 42.8362C38.3472 44.0219 38.3029 45.8204 36.8861 46.0531C35.7257 46.2427 34.1982 46.3639 33.0992 45.305C32.9767 45.1893 32.784 45.1506 32.6265 45.0734C31.5146 44.3234 32.7285 43.8313 32.8285 43.2155C33.188 42.3057 33.6631 42.2809 33.9846 43.1745C34.4458 44.4606 35.3893 44.7248 36.572 44.6691C37.4678 44.2278 37.7614 43.4287 37.5162 42.5541C37.1789 41.3494 36.1991 40.9758 34.6421 41.1349C35.7751 40.2657 36.4837 39.233 37.6584 39.4799C38.7511 39.7086 38.9519 40.822 39.1087 41.8101L39.1199 41.8087Z" fill="#F6F6F9"/>
<path id="Vector_14" d="M37.116 66.5325C35.9937 68.8177 35.0276 71.1688 34.1279 73.5515C33.0614 76.9737 31.8029 80.3174 29.9071 83.3872C29.3517 84.6913 28.7901 85.9904 28.2347 87.2945C28.0345 87.9284 28.1543 88.7103 27.405 89.0936C27.2993 88.9758 27.1873 88.8531 27.081 88.7297C28.3376 85.096 30.032 81.6414 31.5232 78.1095C34.3323 71.4372 37.2009 64.786 40.0401 58.127C40.1588 57.8448 40.2053 57.5316 40.2876 57.2311C40.3297 57.1121 40.4012 57.0918 40.5069 57.1641L40.5125 57.1634C40.7205 57.3254 40.9537 57.4615 40.9849 57.7593C40.2466 60.0196 39.275 62.1892 38.3573 64.3806C38.0315 65.1496 37.78 65.9663 37.123 66.543L37.116 66.5325Z" fill="#600510"/>
<path id="Vector_15" d="M45.1306 29.2061C45.0337 28.6547 45.3164 28.3179 45.744 28.003C47.3866 26.7917 49.2395 26.3113 51.2461 26.29C51.9166 26.2808 51.9816 26.4833 51.7477 27.0758C51.3854 28.0087 51.0947 28.6937 49.7873 28.7535C47.4051 28.8669 45.7769 30.4237 44.4623 32.3058C44.003 31.1276 44.6365 30.1781 45.1243 29.2012L45.1306 29.2061Z" fill="#F9F9FB"/>
<path id="Vector_16" d="M58.0399 49.2448C59.8404 50.1768 61.4011 51.2865 62.7766 52.647C63.2834 53.1533 63.7761 53.6841 63.9997 54.3849C64.1576 54.8776 63.9926 55.2452 63.5167 55.4921C63.1158 55.7013 62.792 55.7528 62.4526 55.3567C61.3349 54.0553 59.9436 53.0725 58.5572 52.0834C57.4888 51.3167 58.388 50.1692 58.0343 49.2454L58.0399 49.2448Z" fill="#CDBAD5"/>
<path id="Vector_17" d="M55.7491 44.7422C55.4493 44.6656 55.3974 43.8808 54.9746 44.326C53.6372 45.7499 51.9315 45.4436 50.3342 45.3231C46.7437 45.0572 43.9597 43.2625 41.8239 40.4084C41.353 39.7781 41.0902 39.0822 41.3956 38.2873C41.4929 38.3833 41.5958 38.4787 41.6931 38.5748C42.496 39.4029 42.7878 40.6075 43.747 41.3195C47.0736 44.4129 52.0758 45.5054 54.3061 43.6178C54.0953 43.57 53.8675 43.6153 53.6574 43.5276C53.4704 43.4426 53.3402 43.3108 53.3411 43.0887C53.584 42.6146 54.064 42.4469 54.4958 42.2567C55.824 41.6763 56.4708 40.6968 56.381 39.2394C56.417 38.9788 56.5013 38.7407 56.6206 38.5096C57.0407 37.9508 57.2081 37.2812 57.4651 36.646C58.0129 35.9234 58.2108 34.8117 59.4277 34.803C59.6077 34.9685 59.7883 35.1396 59.9626 35.3058C58.1123 36.7706 57.2433 38.6657 57.4808 41.0382C57.4043 41.2013 57.3334 41.3638 57.2576 41.5326C57.0659 41.9605 57.4042 42.0722 57.6794 42.1803C58.5094 42.4929 59.0245 43.112 59.3987 43.8795C59.2168 44.2948 59.0294 44.7108 58.8476 45.1261C58.3965 44.9771 58.3808 44.5294 58.2024 44.193C57.8625 43.5635 57.3227 43.1581 56.6297 43.1701C55.8401 43.1827 56.3137 44.0631 55.9406 44.4054C55.8747 44.516 55.8038 44.6329 55.7379 44.7436L55.7491 44.7422Z" fill="#292233"/>
<path id="Vector_18" d="M30.3632 40.8174C29.7887 40.7748 29.2122 40.6699 28.6411 40.7009C28.0078 40.734 27.549 40.5234 27.4459 39.9215C27.3197 39.1801 27.8867 38.9333 28.4908 38.8014C29.5938 38.5621 30.7077 38.6402 31.8033 38.8002C33.0671 38.9849 34.3195 39.262 35.8179 39.5485C35.0143 40.2743 34.3847 40.842 33.755 41.4096C32.5491 41.6446 31.4156 41.4552 30.3589 40.8293L30.3632 40.8174Z" fill="#CCBBD3"/>
<path id="Vector_19" d="M17.5318 62.2565C18.8816 64.2349 20.986 65.2771 22.8927 66.5603C23.1475 66.7335 23.4073 66.9005 23.6615 67.0682C22.1648 67.2539 21.2881 65.9682 20.0568 65.4949C18.6694 64.9556 18.1737 65.2732 17.9888 66.8102C16.9212 65.9125 17.4515 65.1864 17.8836 64.5408C18.0562 64.2804 18.3891 64.1195 18.1414 63.7746C18.0246 63.6126 17.7746 63.4331 17.6051 63.4427C17.2561 63.4746 17.0975 63.8017 17.0566 64.1141C16.8476 65.8704 15.7224 67.4444 16.401 69.4263C16.6246 70.0816 15.6294 71.1898 15.8324 72.2745C16.0039 73.1981 16.0696 74.1405 16.1795 75.0717C16.1114 75.2111 16.0322 75.2152 15.9483 75.089C15.0312 71.1388 15.3709 67.2717 16.7622 63.4847C16.9286 63.0372 17.0538 62.5321 17.5206 62.2579L17.5318 62.2565Z" fill="#D83C59"/>
<path id="Vector_20" d="M40.8206 57.6594C40.7206 57.4954 40.6149 57.3321 40.5142 57.1624C40.7329 57.0442 40.9516 56.926 41.1703 56.8078C41.794 56.6507 42.2673 57.0246 42.7757 57.2688C43.5874 57.6633 44.1655 57.5517 44.5572 56.6265C44.7945 56.0621 44.8527 55.2921 45.669 55.1282C45.7544 55.2201 45.8342 55.3126 45.9196 55.4045C45.6987 56.4678 44.4485 57.5849 44.9809 58.3897C45.4784 59.1419 46.9405 59.2735 47.9925 59.6324C51.414 60.7845 54.8678 61.8301 58.5052 62.0617C59.2107 62.1051 59.9289 62.0216 60.6372 61.9963C60.7295 62.2353 61.3965 62.1981 60.968 62.6896C55.0218 62.7957 49.5742 60.7282 44.0816 58.8485C42.9665 58.5315 41.9484 57.9407 40.8213 57.665L40.8206 57.6594Z" fill="#3D0D18"/>
<path id="Vector_21" d="M50.5646 29.1347C52.4053 28.9689 53.8675 29.7893 55.2033 30.9212C55.8344 31.0535 56.1555 31.5316 56.4732 32.0272C58.2706 34.8607 57.5145 38.9047 54.7733 40.8956C52.3918 42.6198 49.8701 42.8473 47.2482 41.4424C46.7727 41.1883 46.3063 40.9161 46.1758 40.3232C46.181 40.0892 46.296 39.9156 46.4916 39.7945C47.0886 39.6521 47.4974 40.0568 47.9561 40.3129C50.0541 41.4869 52.3909 41.2367 54.3085 39.627C56.0256 38.1902 56.5842 35.6734 55.7006 33.3696C54.917 31.321 52.9915 30.0687 50.664 30.073C50.1007 30.0746 49.4994 30.2744 48.9939 29.8249C49.2385 28.9521 50.1131 29.5323 50.5597 29.141L50.5646 29.1347Z" fill="#B6AFC6"/>
<path id="Vector_22" d="M27.4046 89.0923C27.6832 88.4942 27.9556 87.8913 28.2343 87.2932C28.3933 88.1614 28.0139 89.3241 29.5131 89.434C29.869 89.4581 30.0294 89.5578 30.3681 89.2141C31.0265 88.5575 31.9258 88.8785 32.0504 89.7908C32.1374 90.4459 32.5124 90.3026 32.8788 90.3198C36.9955 90.5147 41.0278 90.2591 44.6946 88.068C45.097 87.8245 45.5412 87.8263 45.9874 87.8905C40.003 91.5417 33.8057 91.8725 27.4088 89.0804L27.4046 89.0923Z" fill="#CC3D56"/>
<path id="Vector_23" d="M46.2944 40.167C48.9322 42.5262 52.4802 42.5412 55.0311 40.2097C57.4446 38.0091 57.7338 34.2394 55.7036 31.5486C55.5406 31.3355 55.3726 31.1286 55.2047 30.9218C55.2615 30.8294 55.3239 30.7362 55.3808 30.6438C56.7511 30.7697 56.9013 31.9805 57.3903 32.8932C57.8951 34.0714 58.2527 35.2564 57.6575 36.5142C57.4375 37.2644 57.1755 37.997 56.9135 38.7296C56.8413 38.8809 56.7696 39.0378 56.6973 39.189C55.9925 41.6273 52.2946 43.2473 49.2642 42.633C48.2485 42.4289 47.2911 42.0525 46.4215 41.466C44.6312 40.1115 43.5587 38.3492 43.4248 36.0777C43.3965 35.5746 43.2548 34.9832 43.9276 34.7175C44.0249 34.8136 44.1222 34.9097 44.2139 35.0065C44.924 35.4078 44.5597 36.1418 44.6805 36.7017C44.9603 37.9931 45.9571 38.9167 46.2825 40.1627L46.2944 40.167Z" fill="#262032"/>
<path id="Vector_24" d="M49.59 77.6716C51.0289 77.8915 52.4621 78.2031 53.9308 77.9298C54.3435 77.9525 54.3089 78.1788 54.1854 78.4674C52.9778 81.2582 51.4454 83.8163 48.9692 85.6945C49.4066 84.5872 50.575 84.0495 51.0776 83.0081C51.4798 82.167 53.172 81.1715 50.8907 80.4927C50.5601 80.3971 50.8425 80.2881 50.9428 80.1789C52.0137 78.993 51.2714 78.5615 50.1493 78.2795C49.8439 78.2036 49.3555 78.2585 49.5956 77.6709L49.59 77.6716Z" fill="#B93D58"/>
<path id="Vector_25" d="M43.939 34.7212C43.4553 37.4735 44.7006 39.4819 46.6874 41.182C46.9092 41.5017 47.0925 41.8318 46.8925 42.238C46.3484 42.6698 45.8519 42.3842 45.4571 42.0462C43.7664 40.6224 42.4863 39.0225 42.3743 36.6059C42.3186 35.4232 42.117 34.4408 43.3282 33.7896C43.4937 33.7008 43.6618 33.6799 43.8341 33.7382C43.8689 34.064 43.9043 34.3954 43.939 34.7212Z" fill="#F5F6F9"/>
<path id="Vector_26" d="M43.8329 33.739C42.5649 34.4827 42.1555 35.4954 42.5816 36.9566C43.2808 39.3344 44.5346 41.2279 46.798 42.3586C47.4532 42.1805 48.0099 42.5383 48.5948 42.7105C49.7645 43.0548 50.9534 43.0951 52.1586 42.9911C52.5867 42.9551 53.0367 42.7284 53.4069 43.1435C53.5414 43.2179 53.6821 43.2972 53.8166 43.3716C53.6219 44.0959 52.9836 44.0897 52.4315 44.181C48.9419 44.7734 46.0626 43.6338 43.7095 41.0457C42.7589 40.0367 42.3425 38.745 41.8735 37.4884C42.0414 36.9155 42.6641 36.3373 41.8337 35.7915C41.7247 35.4635 41.3199 35.2291 41.5298 34.8104C41.6646 34.4293 41.7946 34.0546 41.9294 33.6736C42.3158 34.081 42.6039 33.8802 42.8852 33.5322C43.1805 33.1598 43.4821 32.7922 43.6779 32.3524L43.6541 32.3895C44.0731 31.5919 44.3863 30.7675 44.427 29.8575C44.4378 29.5772 44.48 29.3215 44.8115 29.2406C44.918 29.2273 45.0245 29.2141 45.1317 29.2065C45.2694 30.3164 44.6296 31.261 44.4697 32.3111C44.2556 32.7873 44.0414 33.2635 43.8329 33.739Z" fill="#302A38"/>
<path id="Vector_27" d="M54.0092 13.9944C48.6597 14.2769 43.9793 16.1441 39.9896 19.7242C41.121 16.6867 49.5703 12.9003 54.0092 13.9944Z" fill="#366FA8"/>
<path id="Vector_28" d="M40.506 57.1571C40.4276 57.1669 40.3568 57.1927 40.2867 57.2242C35.9349 55.1801 31.5873 53.1242 27.7245 50.2054C26.4188 49.2234 25.0394 48.2904 24.3002 46.7371C24.42 46.6938 24.5448 46.6442 24.6646 46.6009C26.2203 48.6789 28.318 50.1261 30.4818 51.4627C33.7483 53.4764 37.0746 55.3745 40.7209 56.641C40.6507 56.809 40.5756 56.9834 40.5053 57.1515L40.506 57.1571Z" fill="#3D0D18"/>
<path id="Vector_29" d="M55.954 44.4042C55.4333 43.7402 55.5621 43.0811 56.0852 42.5267C56.3671 42.2298 58.3623 43.2629 58.6063 43.8531C58.7692 44.2484 58.7856 44.7017 58.8609 45.1249C58.5309 45.9058 58.2002 46.6811 57.8583 47.4578C57.8274 47.5299 57.7356 47.5698 57.6122 47.6762C57.0751 46.5589 56.7175 45.3738 55.9533 44.3986L55.954 44.4042Z" fill="#CDBBD5"/>
<path id="Vector_30" d="M57.035 32.8789C56.5285 32.0993 56.2259 31.1749 55.3801 30.6424C55.2898 29.7315 55.9679 29.0953 56.2202 28.1476C57.192 28.9149 57.9409 29.7213 58.4024 30.7796C58.6324 31.3943 58.8826 32.0349 58.4036 32.6237C58.0431 33.0668 57.6237 33.5401 57.0294 32.8796L57.035 32.8789Z" fill="#F6F8F9"/>
<path id="Vector_31" d="M15.9581 75.0889C16.0366 75.0791 16.1157 75.075 16.1893 75.0715C16.2438 76.0153 17.2128 75.9349 17.6874 76.4111C18.2663 76.9938 19.7061 76.946 19.0392 78.4973C18.9514 78.7074 18.8632 79.4185 18.8544 79.8521C18.8419 80.4855 18.7727 81.1657 18.8933 81.8167C17.9331 80.5926 17.1201 79.316 16.9983 77.6919C16.9256 76.739 15.817 76.1537 15.9574 75.0832L15.9581 75.0889Z" fill="#BE3350"/>
<path id="Vector_32" d="M61.8197 55.8158C61.04 55.7248 60.2406 55.7044 59.4834 55.5195C58.6443 55.3163 57.7631 55.05 57.7088 53.924C58.0181 53.4815 57.7532 52.8598 58.1964 52.395C59.4309 53.1696 60.5553 54.066 61.5913 55.0758C61.7726 55.2525 62.1823 55.435 61.819 55.8102L61.8197 55.8158Z" fill="#CCBAD2"/>
<path id="Vector_33" d="M57.0349 32.8798C58.6588 32.9401 58.3692 31.7523 58.4079 30.7799C59.1816 32.0158 59.5581 33.3522 59.4377 34.8129C58.6378 35.2935 58.2371 36.1002 57.767 36.853C57.5329 36.9389 57.3928 36.9108 57.4638 36.6117C57.6408 35.3318 57.4472 34.0922 57.0349 32.8798Z" fill="#CBBDD4"/>
<path id="Vector_34" d="M32.5425 42.9771C31.9335 43.9406 31.0918 43.4873 30.4643 43.1553C29.6289 42.7069 28.8426 42.1043 28.2031 41.125C29.0305 41.1418 29.7157 41.1593 30.4009 41.1767C30.9799 40.8886 31.545 41.177 32.097 41.2679C32.5328 41.339 33.1803 41.1904 33.3072 41.8463C33.4181 42.4188 32.9715 42.7189 32.5432 42.9827L32.5425 42.9771Z" fill="#CBBBD4"/>
<path id="Vector_35" d="M53.2719 29.1073C52.6687 29.0626 51.7888 29.0352 51.696 28.5173C51.5949 27.9778 52.1273 27.3141 52.3885 26.7125C52.4636 26.5381 52.6059 26.4464 52.8111 26.4949C53.8499 26.7474 54.8361 27.1259 55.7001 27.7586C56.0011 27.9831 55.7242 28.2281 55.6091 28.4472C54.9778 29.1858 54.0931 29.0281 53.2775 29.1066L53.2719 29.1073Z" fill="#F7F5F6"/>
<path id="Vector_36" d="M40.0078 35.5282C40.3405 35.6406 40.7026 35.7152 41.008 35.8822C41.3441 36.0682 42.0287 35.9889 41.8431 36.6494C41.7047 37.139 41.5325 37.6784 40.843 37.7639C39.5482 37.9246 38.335 38.3769 36.9766 38.9894C37.0844 38.3442 37.2151 37.884 37.528 37.4695C38.6842 37.2464 39.2855 36.3123 40.0085 35.5338L40.0078 35.5282Z" fill="#C8BCD1"/>
<path id="Vector_37" d="M46.2913 40.1664C44.7218 38.8016 44.2091 37.0097 44.2228 35.0102C44.8167 31.3563 47.0577 29.2795 50.563 29.1348C50.1527 29.5898 49.4251 29.276 49.0372 29.7738C48.8518 30.2977 48.3388 30.4297 47.9259 30.6801C45.0974 32.4257 44.2959 35.5532 45.9236 38.4419C46.1783 38.8884 46.6621 39.2553 46.5053 39.8724C46.4372 39.9662 46.3643 40.0663 46.2962 40.1601L46.2913 40.1664Z" fill="#E6E8EF"/>
<path id="Vector_38" d="M32.5399 42.9782C32.7609 42.6036 32.9826 42.2345 33.2696 41.7493C32.2658 41.5494 31.332 41.3636 30.4039 41.1771C30.3893 41.0594 30.374 40.9361 30.3594 40.8184C31.5301 40.804 32.6495 41.0635 33.7555 41.3987C33.1703 42.3251 34.7055 41.3491 34.3567 42.0697C34.529 42.1736 34.6339 42.3313 34.7017 42.5107C34.5725 43.6708 35.7256 43.7895 36.2533 44.4185C36.3604 44.5019 36.4731 44.5847 36.5802 44.6682C34.9688 45.443 33.9346 44.7688 33.4994 42.5916C33.2547 42.8212 33.0457 43.0179 32.8311 43.2153C32.7359 43.136 32.6351 43.0575 32.5399 42.9782Z" fill="#403B4A"/>
<path id="Vector_39" d="M55.4264 47.1551C55.085 47.3397 54.7297 47.5034 54.5234 47.8591C54.1362 47.5827 53.8788 47.8936 53.4792 48.1594C53.865 46.865 54.537 45.9506 55.5969 45.3182C56.5588 45.4094 56.3582 46.3621 56.9574 46.9708L55.4271 47.1607L55.4264 47.1551Z" fill="#EFEFF1"/>
<path id="Vector_40" d="M41.8793 37.4929C42.6032 37.4088 42.3496 38.072 42.542 38.384C43.0192 39.1558 43.4592 39.9493 43.9146 40.7295C44.0102 41.1331 44.0932 41.5269 43.499 41.6007C42.6044 40.7668 41.7686 39.9029 41.7011 38.5794C41.7645 38.2186 41.8223 37.8586 41.885 37.4922L41.8793 37.4929Z" fill="#F3F4F8"/>
<path id="Vector_41" d="M40.0064 35.5286C39.8181 36.9465 38.7805 37.7583 37.5259 37.4643C37.9375 36.2862 38.3701 35.1397 40.0064 35.5286Z" fill="#F2EFF4"/>
<path id="Vector_42" d="M36.2516 44.4173C34.8341 44.5533 34.4054 43.7129 34.3616 42.4889C34.9004 41.6479 35.5845 41.3809 36.4814 41.9583C37.5694 42.882 37.0741 43.6607 36.2565 44.411L36.2516 44.4173Z" fill="#302F38"/>
<path id="Vector_43" d="M40.4625 39.7072C40.3993 39.8403 40.3369 39.979 40.2737 40.112C39.9897 40.3465 39.956 41.2215 39.2869 40.5077C38.9195 40.0239 38.5465 39.5409 38.1791 39.0571C40.078 38.0303 40.2489 38.0774 40.4569 39.7079L40.4625 39.7072Z" fill="#EBEAEC"/>
<path id="Vector_44" d="M66.9294 47.5895C67.0373 47.6786 67.1402 47.774 67.248 47.863C66.4588 49.7596 65.6703 51.6618 64.8867 53.5577C64.7551 53.5057 64.6227 53.4481 64.491 53.3962C65.22 51.4274 65.9497 49.4642 66.9351 47.5888L66.9294 47.5895Z" fill="#3F6498"/>
<path id="Vector_45" d="M57.4884 41.0489C57.2159 41.0087 57.1068 40.8174 57.1224 40.5764C57.2798 38.5419 58.0625 36.777 59.4742 35.3098C59.5492 35.2265 59.7986 35.3094 59.9702 35.3165C59.9168 35.5736 59.9479 35.9625 59.7951 36.0612C58.1176 37.1288 57.4507 38.589 57.8931 40.549C57.9211 40.6822 57.6329 40.883 57.4941 41.0482L57.4884 41.0489Z" fill="#BBB4C7"/>
<path id="Vector_46" d="M61.1188 61.6356C60.8715 60.8352 59.9997 61.0573 59.2591 60.4092C60.4746 60.4804 61.0564 59.3438 62.1863 59.5963C62.0461 60.3935 61.6371 61.0419 61.1195 61.6412L61.1188 61.6356Z" fill="#C3C6CD"/>
<path id="Vector_47" d="M20.1406 83.5625C21.8609 84.9029 23.4815 86.3581 25.0622 87.8582C23.0782 86.8237 21.452 85.3692 20.1406 83.5625Z" fill="#BE3350"/>
<path id="Vector_48" d="M59.4116 43.8835C58.6723 43.2922 58.029 42.6036 57.0905 42.242C56.0386 41.8375 57.0097 41.7284 57.2705 41.5366C58.3505 41.9832 59.415 42.443 59.4116 43.8835Z" fill="#CBCAD6"/>
<path id="Vector_49" d="M42.2627 33.2953C42.4097 31.8199 42.7154 30.7518 43.8303 29.7369C43.7141 31.1856 43.2522 32.1878 42.2627 33.2953Z" fill="#CAC8D7"/>
<path id="Vector_50" d="M53.2703 29.1061C53.8931 28.3458 54.8456 28.7285 55.6018 28.4468C55.1986 29.6011 54.4214 29.8209 53.2703 29.1061Z" fill="#C5BCCC"/>
<path id="Vector_51" d="M58.2337 39.8123C58.1984 38.5644 58.6204 37.516 59.5966 36.4841C59.6653 37.9555 58.9618 38.8909 58.2337 39.8123Z" fill="#BBB8C9"/>
<path id="Vector_52" d="M41.5382 34.8082C41.8553 35.0705 41.9145 35.4103 41.842 35.7893C40.8434 35.3099 39.8609 34.7772 38.4971 35.2539C39.5457 33.8886 40.5562 34.5088 41.5382 34.8082Z" fill="#CAC9D6"/>
<path id="Vector_53" d="M44.8094 29.2405C44.4813 30.3115 44.4872 31.506 43.652 32.3895C43.6172 31.3749 44.6934 30.4616 43.9069 29.3525C43.7551 29.138 44.0804 28.8699 44.332 28.7875C44.7097 28.6666 44.7634 28.9616 44.8031 29.2356L44.8094 29.2405Z" fill="#BAB8C5"/>
<path id="Vector_54" d="M27.7676 41.6571C27.2829 42.2466 26.7183 42.1459 26.1286 41.8434C26.5333 41.3435 26.3995 40.5861 26.9499 40.1136C27.2255 40.6372 27.4934 41.1447 27.7613 41.6522L27.7676 41.6571Z" fill="#C3C4CC"/>
<path id="Vector_55" d="M43.6834 32.3567C43.5017 33.3241 42.9147 34.006 42.1793 34.5925C41.8649 34.3071 41.9612 33.9821 41.9405 33.6773C42.9051 33.7454 43.0854 32.7668 43.689 32.3561L43.6834 32.3567Z" fill="#CAC7D5"/>
<path id="Vector_56" d="M39.2924 40.5001C39.7896 40.7913 39.8897 40.0844 40.2792 40.1044C40.3472 40.8814 40.0019 41.539 39.6314 42.1769C39.6167 42.1959 39.5494 42.2042 39.5193 42.1909C39.4836 42.1782 39.45 42.1369 39.4178 42.1067C39.3741 41.5714 39.3354 41.0298 39.2917 40.4945L39.2924 40.5001Z" fill="#BEB9C8"/>
<path id="Vector_57" d="M36.4825 41.9637C35.6623 41.6842 34.9671 41.907 34.3626 42.4943C34.362 42.3521 34.3559 42.2106 34.3553 42.0683C35.0409 41.5848 35.7239 40.9878 36.4769 41.9644L36.4825 41.9637Z" fill="#D4D4D9"/>
<path id="Vector_58" d="M29.9076 83.3855C31.1906 80.0559 32.5639 76.7664 34.1284 73.5498C33.8262 74.6005 33.8963 75.4399 35.2406 75.6316C35.3737 75.6493 35.4652 75.9737 35.5729 76.1539C35.3667 76.373 35.1153 76.3188 34.8722 76.2864C35.1711 76.5396 35.5942 76.6464 35.9022 76.927C35.8228 77.2499 35.7622 77.5875 35.4895 77.8206C35.0341 77.8202 34.6447 77.6636 34.3065 77.3697C34.5795 77.6888 35.1161 77.7019 35.26 78.1735C35.1751 78.3605 35.0951 78.5412 35.0101 78.7282C34.5285 79.1124 34.1022 78.7042 33.9249 78.6522C34.0987 78.6762 34.5116 79.2055 34.9982 78.7239C35.1264 78.9926 34.9499 79.4509 34.4687 80.0988C34.077 80.1986 33.7332 79.9965 33.3416 79.9142C33.6616 80.1534 34.07 80.2337 34.2006 80.6443C34.2501 80.9512 34.3465 81.2694 34.0226 81.5031C33.5589 81.3899 33.1282 81.1758 32.5084 80.9511C33.1254 81.199 33.5568 81.4186 34.0331 81.4961C34.1293 82.042 33.7878 82.3633 33.4288 82.681C33.073 82.6114 32.7557 82.4401 32.4224 82.3221C32.727 82.4835 33.0716 82.6002 33.1497 83.0003C32.8488 83.419 32.4559 83.1888 32.2284 83.0065C31.2881 82.2637 30.5704 82.5804 29.9132 83.3848L29.9076 83.3855Z" fill="#C24864"/>
<path id="Vector_59" d="M40.818 57.6604C42.0609 57.6314 43.0264 58.3483 44.0783 58.8438C43.3888 58.9294 42.816 58.5793 42.2116 58.3412C41.1225 57.9129 40.7264 58.2523 40.8086 59.557C41.0404 60.5072 42.2106 60.2595 42.624 60.9766C42.4655 61.167 42.3126 61.3568 42.1541 61.5472C41.7706 61.8509 41.4058 61.6173 41.0143 61.4894C41.4008 61.7147 41.8421 61.7851 42.1684 62.0748C42.014 62.2988 41.859 62.5173 41.7047 62.7414C41.3829 62.9919 41.0558 62.8788 40.6747 62.744C41.0515 62.9363 41.3295 63.1579 41.538 63.4622C41.6441 63.8588 41.5044 64.155 41.1798 64.3832C40.7694 64.2861 40.4368 63.9915 39.8554 63.8929C40.4389 64.0539 40.7981 64.2882 41.1201 64.5898C41.2269 64.992 41.0999 65.2981 40.7382 65.5023C40.3249 65.3373 39.8949 65.2199 39.2498 64.9756C39.8906 65.2319 40.32 65.3436 40.7339 65.5143C40.7903 65.9228 40.6205 66.2057 40.263 66.398C39.5592 66.8724 38.8785 65.79 38.1703 66.3674C37.8186 66.4225 37.4668 66.4775 37.1206 66.5318C38.3529 63.5728 39.5907 60.6131 40.8229 57.6541L40.818 57.6604Z" fill="#C14965"/>
<path id="Vector_60" d="M42.0441 69.4081C41.569 70.9924 40.9014 72.4926 40.1743 73.9716C39.8577 73.0262 40.3217 72.0409 39.9786 71.0646C39.8542 70.7044 40.3232 70.3103 40.7599 70.1139C41.2015 69.9111 41.6123 69.6438 42.0385 69.4088L42.0441 69.4081Z" fill="#C83A58"/>
<path id="Vector_61" d="M43.3535 75.7988C45.4781 76.2694 47.5162 77.0069 49.5803 77.6785C47.3433 77.5861 45.2961 76.8669 43.3535 75.7988Z" fill="#B93D58"/>
<path id="Vector_62" d="M34.2024 80.6446C33.7436 80.4795 33.2765 80.3383 32.8359 80.1368C32.5761 80.0154 32.1706 79.8665 32.2949 79.4925C32.4277 79.0946 32.7884 79.2491 33.0818 79.3664C33.5728 79.5616 34.1094 79.6657 34.4712 80.1046C34.38 80.2867 34.2943 80.4681 34.2031 80.6502L34.2024 80.6446Z" fill="#5D0817"/>
<path id="Vector_63" d="M42.6278 60.9759C41.9159 61.0643 41.3656 60.6203 40.7752 60.3578C40.245 60.1219 40.5088 59.8159 40.8067 59.557C41.4811 59.9457 42.5966 59.7617 42.6222 60.9766L42.6278 60.9759Z" fill="#530715"/>
<path id="Vector_64" d="M41.1163 64.5893C40.3967 64.6615 39.8604 64.193 39.249 63.9445C39.0872 63.8792 38.9444 63.7375 39.0546 63.5246C39.1416 63.3544 39.3057 63.2089 39.4822 63.3008C40.0824 63.5963 40.9519 63.4941 41.1809 64.3764C41.1493 64.4429 41.1234 64.5087 41.1156 64.5837L41.1163 64.5893Z" fill="#58071A"/>
<path id="Vector_65" d="M38.1656 66.3673C37.8017 65.8205 37.8952 65.5186 38.5858 65.7175C39.1637 65.8792 39.7001 66.1655 40.2583 66.3979C39.5453 67.6703 38.8662 66.3259 38.1656 66.3673Z" fill="#500613"/>
<path id="Vector_66" d="M35.2644 78.1719C35.2181 78.1663 35.1726 78.1663 35.1306 78.1487C34.4933 77.8749 33.7542 77.7902 33.293 77.1928C33.2524 77.141 33.3767 76.858 33.4061 76.8657C34.2068 76.9428 34.9521 77.1691 35.4931 77.8134C35.4166 77.9311 35.3401 78.0487 35.2637 78.1663L35.2644 78.1719Z" fill="#4F0414"/>
<path id="Vector_67" d="M35.9063 76.9275C35.7718 76.9442 35.6197 77.003 35.5111 76.9538C34.8913 76.6835 33.7053 76.529 33.895 75.9477C34.1226 75.2592 34.9654 76.1336 35.5714 76.1552C35.8774 76.3278 35.9507 76.5976 35.9056 76.9219L35.9063 76.9275Z" fill="#580416"/>
<path id="Vector_68" d="M42.1705 62.0745C41.3107 62.2552 40.6069 61.8587 40.0714 61.3048C39.7452 60.9696 40.266 60.7627 41.0756 61.0948C41.4412 61.2429 41.7963 61.3981 42.157 61.5525C42.1617 61.7284 42.1665 61.9043 42.1712 62.0801L42.1705 62.0745Z" fill="#590717"/>
<path id="Vector_69" d="M33.1488 83.0015C32.6194 82.7712 32.0906 82.5465 31.5605 82.3106C31.3434 82.2124 31.1592 82.0588 31.2645 81.8066C31.3663 81.572 31.62 81.5064 31.8245 81.6404C32.3573 81.9898 33.1729 81.9113 33.4336 82.6815C33.3389 82.79 33.2435 82.893 33.1545 83.0008L33.1488 83.0015Z" fill="#540312"/>
<path id="Vector_70" d="M41.5396 63.4553C40.8392 63.1779 39.4712 62.8866 39.7133 62.4069C40.1478 61.5504 40.9706 62.7689 41.707 62.7401C41.6514 62.9803 41.5959 63.2206 41.5396 63.4553Z" fill="#4F0614"/>
<path id="Vector_71" d="M39.4693 54.5946C39.5102 55.0619 39.2951 55.1171 38.9218 54.9528C38.6389 54.8286 38.5066 54.6799 38.6589 54.348C39.1236 53.3227 39.5645 52.2889 40.011 51.2545C40.1479 50.9359 40.5971 50.8858 40.5928 51.0343C40.5822 51.8667 42.3244 52.1457 41.2648 53.2846C40.9884 53.5807 40.8977 54.0417 40.718 54.4283C40.2535 54.1102 40.1255 53.6442 40.3339 53.0302C40.1024 53.2752 40.0489 53.5778 39.987 53.8587C39.9132 54.1809 39.6818 54.3804 39.4637 54.5953L39.4693 54.5946Z" fill="#64666E"/>
<path id="Vector_72" d="M39.0948 51.511C39.1069 52.0673 38.9174 52.5121 38.3337 52.5788C37.5587 52.6636 36.9102 52.3912 36.7533 51.5398C36.648 50.9666 37.0421 50.5648 37.562 50.5344C38.2508 50.4888 38.8643 50.7542 39.0948 51.511Z" fill="#26272F"/>
<path id="Vector_73" d="M39.4695 54.5946C39.81 53.8522 40.1498 53.1042 40.5611 52.1994C40.9338 53.0468 39.5858 53.8345 40.7182 54.4282C40.3611 54.945 39.9052 54.7112 39.4695 54.5946Z" fill="#ADAEB8"/>
<path id="Vector_74" d="M37.9902 53.8899C37.4166 53.6253 36.8192 53.3522 36.2303 53.0553C36.1756 53.0279 36.1849 52.8276 36.2053 52.7169C36.244 52.5243 36.4058 52.5896 36.5221 52.6093C37.0853 52.6988 37.5423 53.3535 38.2321 52.9037C38.3898 52.7987 38.4834 53.0945 38.4461 53.2528C38.3913 53.4986 38.3147 53.7529 37.9958 53.8892L37.9902 53.8899Z" fill="#28242C"/>
<path id="Vector_75" d="M48.4841 58.5528C47.445 58.6647 46.4488 57.8378 46.3453 56.7749C46.2419 55.7119 47.0695 54.7213 48.1303 54.6466C49.14 54.5725 50.0676 55.351 50.1865 56.3551C50.3158 57.4433 49.5457 58.4382 48.4841 58.5528Z" fill="#3E141C"/>
<path id="Vector_76" d="M42.7507 73.4087C42.6866 73.7183 42.5442 73.9921 42.177 74.0149C41.7587 74.0383 41.499 73.8258 41.5134 73.3915C41.5242 73.0201 41.7745 72.8354 42.1206 72.8266C42.4843 72.8213 42.6669 73.0548 42.7507 73.4087Z" fill="#2C212E"/>
<path id="Vector_77" d="M43.8126 70.852C43.7625 71.1827 43.6243 71.4446 43.2592 71.4842C42.9047 71.5168 42.6372 71.3337 42.5899 70.9981C42.5335 70.5895 42.7796 70.3256 43.1867 70.3036C43.5482 70.2815 43.7323 70.5262 43.8133 70.8576L43.8126 70.852Z" fill="#201F27"/>
<path id="Vector_78" d="M30.0184 65.921C29.6836 65.8829 29.4091 65.7348 29.3596 65.3824C29.3172 65.0404 29.5045 64.7611 29.8458 64.713C30.248 64.6517 30.5434 64.8769 30.5718 65.2889C30.5974 65.6329 30.3562 65.845 30.0128 65.9217L30.0184 65.921Z" fill="#282834"/>
<path id="Vector_79" d="M29.4983 67.7168C29.4826 68.1399 29.303 68.3899 28.947 68.4113C28.6079 68.4306 28.3264 68.272 28.3177 67.8804C28.3082 67.5287 28.4891 67.2899 28.8591 67.244C29.2515 67.1953 29.3886 67.4743 29.5033 67.7105L29.4983 67.7168Z" fill="#1A1C22"/>
<path id="Vector_80" d="M50.5164 49.803C50.4674 50.6458 49.8583 51.6549 49.3481 52.6801C49.1936 52.9953 48.8625 52.7119 48.6363 52.6318C45.5672 51.5214 42.5851 50.1953 39.6395 48.7964C39.4098 48.6883 39.1339 48.6201 39.1124 48.2641C38.9665 46.125 41.1728 44.5022 43.1142 45.3314C45.0857 46.1739 47.0523 47.0227 49.028 47.8533C49.7724 48.165 50.3697 48.5747 50.5108 49.8037L50.5164 49.803Z" fill="#F8F9FA"/>
<path id="Vector_81" d="M45.6662 55.1285C45.5413 55.3603 45.3988 55.5886 45.2921 55.8295C44.0832 58.5637 43.7742 58.6418 41.1618 56.8088C41.8695 55.1728 42.5961 53.5515 43.2736 51.9022C43.5138 51.3145 43.7802 51.1221 44.3494 51.4897C45.0679 51.9584 46.3837 51.8293 46.5392 52.6694C46.6766 53.4094 45.9906 54.3028 45.6662 55.1285Z" fill="#F6F5F8"/>
<path id="Vector_82" d="M50.7945 48.3344C47.6445 46.7559 44.5163 45.1235 41.0531 44.3694C41.5861 43.7568 42.3371 43.8458 43.1194 44.187C45.212 45.0884 47.2983 45.985 49.3819 46.9046C50.0626 47.2072 50.8036 47.4909 50.7951 48.34L50.7945 48.3344Z" fill="#C5C0D3"/>
<path id="Vector_83" d="M35.4219 46.4961C36.2718 46.4646 37.0831 46.3981 37.7865 47.25C36.6728 47.6784 36.059 46.9521 35.4219 46.4961Z" fill="#ACA9B8"/>
<path id="Vector_84" d="M53.3943 54.2436C52.4824 53.9128 51.6109 53.9071 51.1352 53.0555C52.1282 52.8468 52.353 52.9613 53.3943 54.2436Z" fill="#BAB3C7"/>
<path id="Vector_85" d="M57.3458 50.3553C57.3362 50.9655 57.3028 51.4762 56.7403 51.3468C55.9551 51.1654 54.9113 51.7446 54.4337 50.6939C54.3233 50.4458 54.3736 49.7964 55.0061 49.8943C55.8068 50.0169 56.7495 49.678 57.3409 50.3616L57.3458 50.3553Z" fill="#2A2A33"/>
<path id="Vector_86" d="M56.3 53.1198C55.77 52.7473 54.5437 53.7361 54.2913 52.3445C54.1881 51.7881 54.51 51.492 55.0892 51.7104C55.7875 51.971 56.8544 51.258 57.1645 52.4262C57.2587 52.7731 57.1538 53.3952 56.3007 53.1254L56.3 53.1198Z" fill="#2B2736"/>
<path id="Vector_87" d="M53.4099 43.143C51.1128 43.6671 48.8807 43.6595 46.801 42.358C46.7635 41.9643 46.7267 41.5761 46.6836 41.183C50.5793 43.2666 53.3206 42.7443 56.3489 39.3518C56.4288 39.2622 56.5802 39.2434 56.6993 39.1944C56.7132 41.6459 56.4558 41.9568 53.4106 43.1486L53.4099 43.143Z" fill="#CCBED6"/>
<path id="Vector_88" d="M43.4925 41.5965C43.6329 41.3059 43.7733 41.0153 43.908 40.7253C46.3502 43.2967 49.2806 44.4357 52.8305 43.7333C53.1753 43.6678 53.5424 43.645 53.8159 43.372C54.2714 43.2358 54.7263 43.0939 55.2862 42.9277C54.7534 44.1379 53.9801 44.7404 52.7188 44.8514C49.1321 45.1656 46.0257 44.2135 43.4876 41.6028L43.4925 41.5965Z" fill="#CABED3"/>
<path id="Vector_89" d="M57.4617 36.6124C57.5626 36.691 57.6641 36.7752 57.7649 36.8537C57.5562 37.5114 57.342 38.1698 56.9113 38.7355C56.844 37.9641 57.2649 37.3199 57.4561 36.6131L57.4617 36.6124Z" fill="#968EA2"/>
<path id="Vector_90" d="M46.5007 39.886C42.8757 35.9474 45.1453 30.7992 49.0319 29.7818C52.7701 29.3122 55.3731 30.7025 56.2875 33.6683C57.079 36.2396 56.2683 38.7877 54.1538 40.3251C52.0499 41.8555 49.3701 41.8636 47.161 40.3448C46.9432 40.1954 46.7247 40.0403 46.5007 39.886Z" fill="#0D1226"/>
<path id="Vector_91" d="M36.3903 42.9728C36.4501 43.4549 36.1709 43.7741 35.7694 43.841C35.2733 43.9254 34.8974 43.602 34.8425 43.1137C34.7806 42.6148 35.0814 42.2871 35.6139 42.2666C36.0896 42.2474 36.3437 42.5062 36.3959 42.9721L36.3903 42.9728Z" fill="#E9E8EE"/>
<path id="Vector_92" d="M34.0337 81.4963C33.1427 82.1135 32.5851 81.2435 31.8945 80.9991C31.6977 80.9267 31.6859 80.6948 31.8402 80.5618C31.9538 80.4681 32.1984 80.3751 32.2971 80.4368C32.8804 80.7799 33.7254 80.7092 34.0344 81.5019L34.04 81.5012L34.0337 81.4963Z" fill="#540B18"/>
<path id="Vector_93" d="M34.9996 78.7249C34.5914 79.2423 33.0095 79.1084 32.7613 78.5302C32.7208 78.4328 32.7573 78.2689 32.8191 78.1701C32.9278 77.9916 33.1184 78.0135 33.2858 78.0781C33.8587 78.2916 34.4323 78.5107 35.0059 78.7298L34.9947 78.7312L34.9996 78.7249Z" fill="#4E0715"/>
<path id="Vector_94" d="M40.7279 65.5139C39.914 66.019 39.3436 65.3214 38.688 65.084C38.5094 65.0208 38.4718 64.8092 38.5476 64.6404C38.6326 64.4534 38.8211 64.4129 38.9849 64.4951C39.5858 64.7962 40.3979 64.7352 40.7321 65.502L40.7279 65.5139Z" fill="#5A0717"/>
<path id="Vector_95" d="M38.526 51.6145C38.5399 51.8177 38.5096 51.9865 38.2791 52.0094C37.8468 52.0574 37.491 51.8966 37.2951 51.5111C37.2196 51.3611 37.348 51.1574 37.5491 51.1267C37.9807 51.0731 38.305 51.2549 38.5253 51.6089L38.526 51.6145Z" fill="#DBE1E5"/>
<path id="Vector_96" d="M48.1104 55.2169C48.9112 55.2484 49.4875 55.581 49.6044 56.4317C49.7214 57.2823 49.269 57.8565 48.4716 57.944C47.691 58.0295 47.0805 57.6044 46.9537 56.7663C46.8234 55.9003 47.3745 55.479 48.1104 55.2169Z" fill="#D9435F"/>
<path id="Vector_97" d="M41.3738 46.264C41.5538 46.3385 41.7583 46.4269 41.9621 46.5098C43.3138 47.082 44.6676 47.671 46.0284 48.225C46.52 48.4258 46.88 48.5747 46.5901 49.2652C46.3275 49.9011 46.0164 49.917 45.4799 49.6762C44.0996 49.0563 42.7002 48.4673 41.3157 47.8593C41.0145 47.7259 40.5472 47.6757 40.7887 47.1449C40.9326 46.8367 40.9519 46.4416 41.3738 46.264Z" fill="#282039"/>
<path id="Vector_98" d="M48.5307 49.7062C48.8337 49.6686 49.0138 49.8343 49.0879 50.11C49.1536 50.3639 48.9661 50.5524 48.7669 50.5999C48.4843 50.6634 48.2544 50.5096 48.1887 50.2101C48.1329 49.9436 48.3602 49.847 48.5314 49.7119L48.5307 49.7062Z" fill="#555756"/>
<path id="Vector_99" d="M44.3848 54.747C43.8783 54.7018 43.5079 54.4233 43.4663 53.9503C43.424 53.4718 43.6982 53.1133 44.2601 53.1005C44.7366 53.0869 45.0236 53.3359 45.0849 53.7836C45.1489 54.2993 44.869 54.613 44.3848 54.747Z" fill="#3D2B2D"/>
<path id="Vector_100" d="M43.0551 55.459C43.6808 55.4098 44.0217 55.6806 44.09 56.1844C44.1449 56.6272 43.8868 56.978 43.4348 57.0512C42.91 57.1334 42.5641 56.8689 42.5092 56.335C42.4641 55.8796 42.7061 55.582 43.0614 55.4639L43.0551 55.459Z" fill="#341E2A"/>
<path id="Vector_101" d="M56.7354 50.6704C56.106 50.9192 55.5007 50.8578 54.6161 50.5634C55.5462 50.2146 56.1457 50.4134 56.7354 50.6704Z" fill="#C1BFCB"/>
<path id="Vector_102" d="M56.9421 52.465C56.0106 52.8481 55.4013 52.6164 54.7962 52.3272C55.4333 52.0945 56.0463 52.1721 56.9421 52.465Z" fill="#BCB1C6"/>
<path id="Vector_103" d="M45.3325 34.354C45.5825 33.7083 45.9626 33.2855 46.6886 33.036C48.3706 32.463 50.0296 31.796 51.6515 31.0597C52.5942 30.6297 53.3522 30.7292 54.0921 31.3716C54.2603 32.176 53.6036 32.3884 53.1032 32.5758C50.8997 33.3956 48.755 34.3676 46.5347 35.144C45.8143 35.3928 45.063 35.6226 45.3318 34.3484L45.3325 34.354Z" fill="#1C7ACE"/>
<path id="Vector_104" d="M45.333 34.3552C45.3909 34.6838 45.3259 35.2155 45.8937 34.9743C48.5934 33.8424 51.4086 32.9978 54.0035 31.6171C54.0624 31.5871 54.0695 31.461 54.099 31.3776C54.5094 31.5657 54.4739 32.0596 54.7686 32.3247C53.8892 33.3104 52.5978 33.4536 51.4638 33.9017C49.4131 34.714 47.4393 35.733 45.2872 36.279C45.4986 35.6437 44.7502 34.9796 45.333 34.3552Z" fill="#032050"/>
<path id="Vector_105" d="M45.2848 36.2843C47.9561 34.8315 50.8708 33.9633 53.6477 32.7649C54.015 32.6054 54.3969 32.4727 54.7663 32.3301C55.3348 32.7832 54.8057 32.8773 54.5296 32.9912C51.5915 34.221 48.6464 35.4403 45.6999 36.6483C45.3965 36.7714 45.3498 36.4869 45.2841 36.2787L45.2848 36.2843Z" fill="#386DAA"/>
<path id="Vector_106" d="M44.5516 48.0272C44.9438 48.2062 45.5195 48.4421 46.0678 48.7327C46.238 48.8197 46.188 49.1048 46.0205 49.1768C45.4423 49.425 45.0378 48.9174 44.5468 48.7678C44.3219 48.6989 43.9808 48.6559 43.972 48.3097C43.9693 48.1052 44.1348 48.0163 44.5523 48.0328L44.5516 48.0272Z" fill="#A74F66"/>
<path id="Vector_107" d="M43.5024 47.6389C43.4867 47.9254 43.3744 48.1215 43.2 48.0919C42.4967 47.9743 41.8166 47.7684 41.3266 47.2144C41.2273 47.1016 41.4475 46.8124 41.5904 46.863C42.2509 47.0941 42.8847 47.3854 43.5024 47.6389Z" fill="#3C709F"/>
<rect id="Rectangle 5" x="42.2559" y="4.27832" width="40.3139" height="83.935" rx="20.1569" transform="rotate(23.41 42.2559 4.27832)" stroke="black" stroke-width="1.62407"/>
</g>
</svg>
