<svg width="90" height="197" viewBox="0 0 90 197" fill="none" xmlns="http://www.w3.org/2000/svg">
<g clip-path="url(#clip0_713_96)">
<mask id="path-1-outside-1_713_96" maskUnits="userSpaceOnUse" x="-971" y="-1" width="1062" height="199" fill="black">
<rect fill="white" x="-971" y="-1" width="1062" height="199"/>
<path d="M-954.905 15.1064H-939.796V30.3108H-954.905V15.1064Z"/>
<path d="M-909.606 0H-894.51V15.1079H-909.606V0Z"/>
<path d="M-894.509 181.414H-879.292V196.522H-894.509V181.414Z"/>
<path d="M-970 105.815H-954.906V120.911H-970V105.815Z"/>
<path d="M-924.701 181.414H-909.606V196.522H-924.701V181.414Z"/>
<path d="M-954.905 166.319H-939.796V181.415H-954.905V166.319Z"/>
<path d="M-939.796 15.1064H-924.7V30.3108H-939.796V15.1064Z"/>
<path d="M-970 75.6113H-954.906V90.707H-970V75.6113Z"/>
<path d="M-954.905 151.225H-939.796V166.319H-954.905V151.225Z"/>
<path d="M-954.905 30.3125H-939.796V45.4216H-954.905V30.3125Z"/>
<path d="M-939.796 0H-924.7V15.1079H-939.796V0Z"/>
<path d="M-939.796 166.319H-924.7V181.415H-939.796V166.319Z"/>
<path d="M-970 90.707H-954.906V105.815H-970V90.707Z"/>
<path d="M-939.796 181.415H-924.7L-924.701 196.522H-939.796L-939.796 181.415Z"/>
<path d="M-970 120.911H-954.906V136.007H-970V120.911Z"/>
<path d="M-924.7 0H-909.606V15.1079H-924.7V0Z"/>
<path d="M-970 60.5156H-954.906V75.6113H-970V60.5156Z"/>
<path d="M-894.509 0H-879.292V15.1079H-894.509V0Z"/>
<path d="M-970 136.007H-954.906L-954.905 151.225L-970 151.224V136.007Z"/>
<path d="M-909.606 181.414H-894.51V196.522H-909.606V181.414Z"/>
<path d="M-970 30.3125H-954.905V45.4216H-970V30.3125Z"/>
<path d="M-970 151.224L-954.905 151.225V166.319L-970 166.319V151.224Z"/>
<path d="M-970 45.4199H-954.906V60.5156H-970V45.4199Z"/>
<path d="M74.6127 15.1064H59.5035V30.3108H74.6127V15.1064Z"/>
<path d="M29.3141 0H14.2184V15.1079H29.3141V0Z"/>
<path d="M14.2162 181.414H-1.00031V196.522H14.2162V181.414Z"/>
<path d="M89.7074 105.815H74.6129V120.911H89.7074V105.815Z"/>
<path d="M44.4079 181.414H29.3122V196.522H44.4079V181.414Z"/>
<path d="M74.6127 166.319H59.5035V181.415H74.6127V166.319Z"/>
<path d="M59.5035 15.1064H44.4079V30.3108H59.5035V15.1064Z"/>
<path d="M89.7074 75.6113H74.6129V90.707H89.7074V75.6113Z"/>
<path d="M74.6127 151.225H59.5035V166.319H74.6127V151.225Z"/>
<path d="M74.6127 30.3125H59.5035V45.4216H74.6127V30.3125Z"/>
<path d="M59.5035 0H44.4079V15.1079H59.5035V0Z"/>
<path d="M59.5035 166.319H44.4079V181.414L59.5035 181.415V166.319Z"/>
<path d="M89.7074 90.707H74.6129V105.815H89.7074V90.707Z"/>
<path d="M59.5035 181.415L44.4079 181.414V196.522H59.5035V181.415Z"/>
<path d="M89.7074 120.911H74.6129V136.007H89.7074V120.911Z"/>
<path d="M44.4079 0H29.3122V15.1079H44.4079V0Z"/>
<path d="M89.7074 60.5156H74.6129V75.6113H89.7074V60.5156Z"/>
<path d="M14.2162 0H-1.00031V15.1079H14.2162V0Z"/>
<path d="M89.7074 136.007H74.6129L74.6127 151.225L89.7074 151.224V136.007Z"/>
<path d="M29.3141 181.414H14.2184V196.522H29.3141V181.414Z"/>
<path d="M89.7074 30.3125H74.6127V45.4216H89.7074V30.3125Z"/>
<path d="M89.7074 151.224L74.6127 151.225V166.319L89.7074 166.319V151.224Z"/>
<path d="M89.7074 45.4199H74.6129V60.5156H89.7074V45.4199Z"/>
</mask>
<path d="M-954.905 15.1064H-939.796V30.3108H-954.905V15.1064Z" fill="#F6C929"/>
<path d="M-909.606 0H-894.51V15.1079H-909.606V0Z" fill="#F6C929"/>
<path d="M-894.509 181.414H-879.292V196.522H-894.509V181.414Z" fill="#F6C929"/>
<path d="M-970 105.815H-954.906V120.911H-970V105.815Z" fill="#F6C929"/>
<path d="M-924.701 181.414H-909.606V196.522H-924.701V181.414Z" fill="#F6C929"/>
<path d="M-954.905 166.319H-939.796V181.415H-954.905V166.319Z" fill="#F6C929"/>
<path d="M-939.796 15.1064H-924.7V30.3108H-939.796V15.1064Z" fill="#F6C929"/>
<path d="M-970 75.6113H-954.906V90.707H-970V75.6113Z" fill="#F6C929"/>
<path d="M-954.905 151.225H-939.796V166.319H-954.905V151.225Z" fill="#F6C929"/>
<path d="M-954.905 30.3125H-939.796V45.4216H-954.905V30.3125Z" fill="#F6C929"/>
<path d="M-939.796 0H-924.7V15.1079H-939.796V0Z" fill="#F6C929"/>
<path d="M-939.796 166.319H-924.7V181.415H-939.796V166.319Z" fill="#F6C929"/>
<path d="M-970 90.707H-954.906V105.815H-970V90.707Z" fill="#F6C929"/>
<path d="M-939.796 181.415H-924.7L-924.701 196.522H-939.796L-939.796 181.415Z" fill="#F6C929"/>
<path d="M-970 120.911H-954.906V136.007H-970V120.911Z" fill="#F6C929"/>
<path d="M-924.7 0H-909.606V15.1079H-924.7V0Z" fill="#F6C929"/>
<path d="M-970 60.5156H-954.906V75.6113H-970V60.5156Z" fill="#F6C929"/>
<path d="M-894.509 0H-879.292V15.1079H-894.509V0Z" fill="#F6C929"/>
<path d="M-970 136.007H-954.906L-954.905 151.225L-970 151.224V136.007Z" fill="#F6C929"/>
<path d="M-909.606 181.414H-894.51V196.522H-909.606V181.414Z" fill="#F6C929"/>
<path d="M-970 30.3125H-954.905V45.4216H-970V30.3125Z" fill="#F6C929"/>
<path d="M-970 151.224L-954.905 151.225V166.319L-970 166.319V151.224Z" fill="#F6C929"/>
<path d="M-970 45.4199H-954.906V60.5156H-970V45.4199Z" fill="#F6C929"/>
<path d="M74.6127 15.1064H59.5035V30.3108H74.6127V15.1064Z" fill="#F6C929"/>
<path d="M29.3141 0H14.2184V15.1079H29.3141V0Z" fill="#F6C929"/>
<path d="M14.2162 181.414H-1.00031V196.522H14.2162V181.414Z" fill="#F6C929"/>
<path d="M89.7074 105.815H74.6129V120.911H89.7074V105.815Z" fill="#F6C929"/>
<path d="M44.4079 181.414H29.3122V196.522H44.4079V181.414Z" fill="#F6C929"/>
<path d="M74.6127 166.319H59.5035V181.415H74.6127V166.319Z" fill="#F6C929"/>
<path d="M59.5035 15.1064H44.4079V30.3108H59.5035V15.1064Z" fill="#F6C929"/>
<path d="M89.7074 75.6113H74.6129V90.707H89.7074V75.6113Z" fill="#F6C929"/>
<path d="M74.6127 151.225H59.5035V166.319H74.6127V151.225Z" fill="#F6C929"/>
<path d="M74.6127 30.3125H59.5035V45.4216H74.6127V30.3125Z" fill="#F6C929"/>
<path d="M59.5035 0H44.4079V15.1079H59.5035V0Z" fill="#F6C929"/>
<path d="M59.5035 166.319H44.4079V181.414L59.5035 181.415V166.319Z" fill="#F6C929"/>
<path d="M89.7074 90.707H74.6129V105.815H89.7074V90.707Z" fill="#F6C929"/>
<path d="M59.5035 181.415L44.4079 181.414V196.522H59.5035V181.415Z" fill="#F6C929"/>
<path d="M89.7074 120.911H74.6129V136.007H89.7074V120.911Z" fill="#F6C929"/>
<path d="M44.4079 0H29.3122V15.1079H44.4079V0Z" fill="#F6C929"/>
<path d="M89.7074 60.5156H74.6129V75.6113H89.7074V60.5156Z" fill="#F6C929"/>
<path d="M14.2162 0H-1.00031V15.1079H14.2162V0Z" fill="#F6C929"/>
<path d="M89.7074 136.007H74.6129L74.6127 151.225L89.7074 151.224V136.007Z" fill="#F6C929"/>
<path d="M29.3141 181.414H14.2184V196.522H29.3141V181.414Z" fill="#F6C929"/>
<path d="M89.7074 30.3125H74.6127V45.4216H89.7074V30.3125Z" fill="#F6C929"/>
<path d="M89.7074 151.224L74.6127 151.225V166.319L89.7074 166.319V151.224Z" fill="#F6C929"/>
<path d="M89.7074 45.4199H74.6129V60.5156H89.7074V45.4199Z" fill="#F6C929"/>
<path d="M-954.905 166.319H-955.405V166.819H-954.905V166.319ZM-939.796 166.319H-939.296V165.819H-939.796V166.319ZM-939.796 181.415H-940.296V181.915H-939.796V181.415ZM-954.905 151.225H-954.405V150.725L-954.905 150.725L-954.905 151.225ZM44.4079 181.414L44.4079 180.914L43.9079 180.914V181.414H44.4079ZM74.6127 166.319V166.819H75.1127V166.319H74.6127ZM59.5035 166.319V165.819H59.0035V166.319H59.5035ZM59.5035 181.415L59.5035 181.915L60.0035 181.915V181.415H59.5035ZM74.6127 151.225L74.6126 150.725L74.1127 150.725V151.225H74.6127ZM-940.296 15.1064V30.3108H-939.296V15.1064H-940.296ZM-909.106 15.1079V0H-910.106V15.1079H-909.106ZM-970 106.315H-954.906V105.315H-970V106.315ZM-954.906 120.411H-970V121.411H-954.906V120.411ZM-910.106 181.414V196.522H-909.106V181.414H-910.106ZM-954.905 166.819H-939.796V165.819H-954.905V166.819ZM-940.296 166.319V181.415H-939.296V166.319H-940.296ZM-970 76.1113H-954.906V75.1113H-970V76.1113ZM-954.906 90.207H-970V91.207H-954.906V90.207ZM-954.405 166.319V151.225H-955.405V166.319H-954.405ZM-954.405 45.4216V30.3125H-955.405V45.4216H-954.405ZM-925.2 0V15.1079H-924.2V0H-925.2ZM-924.7 180.915H-939.796V181.915H-924.7V180.915ZM-954.906 135.507H-970V136.507H-954.906V135.507ZM-970 61.0156H-954.906V60.0156H-970V61.0156ZM-954.905 150.725L-970 150.724L-970 151.724L-954.905 151.725L-954.905 150.725ZM59.0035 15.1064V30.3108H60.0035V15.1064H59.0035ZM89.7074 105.315H74.6129V106.315H89.7074V105.315ZM74.6129 121.411H89.7074V120.411H74.6129V121.411ZM44.9079 196.522V181.414H43.9079V196.522H44.9079ZM74.6127 165.819H59.5035V166.819H74.6127V165.819ZM59.0035 166.319V181.415H60.0035V166.319H59.0035ZM89.7074 75.1113H74.6129V76.1113H89.7074V75.1113ZM74.6129 91.207H89.7074V90.207H74.6129V91.207ZM75.1127 166.319V151.225H74.1127V166.319H75.1127ZM75.1127 45.4216V30.3125H74.1127V45.4216H75.1127ZM43.9079 0V15.1079H44.9079V0H43.9079ZM44.4079 181.914L59.5035 181.915L59.5036 180.915L44.4079 180.914L44.4079 181.914ZM74.6129 136.507H89.7074V135.507H74.6129V136.507ZM89.7074 60.0156H74.6129V61.0156H89.7074V60.0156ZM74.6127 151.725L89.7074 151.724L89.7074 150.724L74.6126 150.725L74.6127 151.725ZM-954.905 15.1064V14.1064H-955.905V15.1064H-954.905ZM-954.905 30.3108H-955.905V31.3108H-954.905V30.3108ZM-894.51 0H-893.51V-1H-894.51V0ZM-894.51 15.1079V16.1079H-893.51V15.1079H-894.51ZM-894.509 181.414V180.414H-895.509V181.414H-894.509ZM-879.292 181.414H-878.292V180.414H-879.292V181.414ZM-879.292 196.522V197.522H-878.292V196.522H-879.292ZM-894.509 196.522H-895.509V197.522H-894.509V196.522ZM-924.701 181.414V180.414H-925.701V181.414H-924.701ZM-954.905 166.319H-953.905V165.319L-954.905 165.319L-954.905 166.319ZM-939.796 166.319H-940.796V167.319H-939.796V166.319ZM-939.796 181.415L-938.796 181.415L-938.796 180.415H-939.796V181.415ZM-954.905 181.415H-955.905V182.415H-954.905V181.415ZM-924.7 15.1064H-923.7V14.1064H-924.7V15.1064ZM-924.7 30.3108V31.3108H-923.7V30.3108H-924.7ZM-954.905 151.225L-955.905 151.225L-955.905 152.225H-954.905V151.225ZM-939.796 151.225H-938.796V150.225H-939.796V151.225ZM-939.796 30.3125H-938.796V29.3125H-939.796V30.3125ZM-939.796 45.4216V46.4216H-938.796V45.4216H-939.796ZM-939.796 0V-1H-940.796V0H-939.796ZM-939.796 15.1079H-940.796V16.1079H-939.796V15.1079ZM-924.7 166.319H-923.7V165.319H-924.7V166.319ZM-924.7 181.415L-923.7 181.415V181.415H-924.7ZM-939.796 196.522L-940.796 196.522L-940.796 197.522H-939.796V196.522ZM-954.906 136.007L-955.906 136.007L-955.906 136.007L-954.906 136.007ZM-894.509 0V-1H-895.509V0H-894.509ZM-879.292 0H-878.292V-1H-879.292V0ZM-879.292 15.1079V16.1079H-878.292V15.1079H-879.292ZM-894.509 15.1079H-895.509V16.1079H-894.509V15.1079ZM-894.51 181.414H-893.51V180.414H-894.51V181.414ZM-894.51 196.522V197.522H-893.51V196.522H-894.51ZM-970 30.3125V29.3125H-971V30.3125H-970ZM-970 45.4216H-971V46.4216H-970V45.4216ZM-970 166.319H-971V167.319L-970 167.319L-970 166.319ZM-970 45.4199V44.4199H-971V45.4199H-970ZM-954.906 45.4199H-953.906V44.4199H-954.906V45.4199ZM74.6127 15.1064H75.6127V14.1064H74.6127V15.1064ZM74.6127 30.3108V31.3108H75.6127V30.3108H74.6127ZM29.3141 0H30.3141V-1H29.3141V0ZM14.2184 0V-1H13.2184V0H14.2184ZM14.2184 15.1079H13.2184V16.1079H14.2184V15.1079ZM29.3141 15.1079V16.1079H30.3141V15.1079H29.3141ZM14.2162 181.414H15.2162V180.414H14.2162V181.414ZM-1.00031 181.414V180.414H-2.00031V181.414H-1.00031ZM-1.00031 196.522H-2.00031V197.522H-1.00031V196.522ZM14.2162 196.522V197.522H15.2162V196.522H14.2162ZM44.4079 181.414V182.414H45.4079V181.414H44.4079ZM29.3122 181.414V180.414H28.3122V181.414H29.3122ZM29.3122 196.522H28.3122V197.522H29.3122V196.522ZM74.6127 166.319L74.6127 165.319L73.6127 165.319V166.319H74.6127ZM59.5035 166.319V167.319H60.5035V166.319H59.5035ZM59.5035 181.415V180.415H58.5035V181.415H59.5035ZM74.6127 181.415V182.415H75.6127V181.415H74.6127ZM44.4079 15.1064V14.1064H43.4079V15.1064H44.4079ZM44.4079 30.3108H43.4079V31.3108H44.4079V30.3108ZM74.6127 151.225V152.225H75.6127L75.6127 151.225L74.6127 151.225ZM59.5035 151.225V150.225H58.5035V151.225H59.5035ZM59.5035 30.3125V29.3125H58.5035V30.3125H59.5035ZM59.5035 45.4216H58.5035V46.4216H59.5035V45.4216ZM59.5035 0H60.5035V-1H59.5035V0ZM59.5035 15.1079V16.1079H60.5035V15.1079H59.5035ZM44.4079 166.319V165.319H43.4079V166.319H44.4079ZM59.5035 196.522V197.522H60.5035V196.522H59.5035ZM74.6129 136.007L75.6129 136.007V136.007H74.6129ZM29.3122 0V-1H28.3122V0H29.3122ZM29.3122 15.1079H28.3122V16.1079H29.3122V15.1079ZM14.2162 0H15.2162V-1H14.2162V0ZM-1.00031 0V-1H-2.00031V0H-1.00031ZM-1.00031 15.1079H-2.00031V16.1079H-1.00031V15.1079ZM14.2162 15.1079V16.1079H15.2162V15.1079H14.2162ZM29.3141 181.414H30.3141V180.414H29.3141V181.414ZM14.2184 181.414V180.414H13.2184V181.414H14.2184ZM14.2184 196.522H13.2184V197.522H14.2184V196.522ZM29.3141 196.522V197.522H30.3141V196.522H29.3141ZM89.7074 30.3125H90.7074V29.3125H89.7074V30.3125ZM89.7074 45.4216V46.4216H90.7074V45.4216H89.7074ZM89.7074 166.319L89.7074 167.319L90.7074 167.319V166.319H89.7074ZM89.7074 45.4199H90.7074V44.4199H89.7074V45.4199ZM74.6129 45.4199V44.4199H73.6129V45.4199H74.6129ZM-954.905 16.1064H-939.796V14.1064H-954.905V16.1064ZM-939.796 29.3108H-954.905V31.3108H-939.796V29.3108ZM-953.905 30.3108V15.1064H-955.905V30.3108H-953.905ZM-909.606 1H-894.51V-1H-909.606V1ZM-895.51 0V15.1079H-893.51V0H-895.51ZM-894.51 14.1079H-909.606V16.1079H-894.51V14.1079ZM-894.509 182.414H-879.292V180.414H-894.509V182.414ZM-880.292 181.414V196.522H-878.292V181.414H-880.292ZM-879.292 195.522H-894.509V197.522H-879.292V195.522ZM-893.509 196.522V181.414H-895.509V196.522H-893.509ZM-955.906 105.815V120.911H-953.906V105.815H-955.906ZM-969 120.911V105.815H-971V120.911H-969ZM-924.701 182.414H-909.606V180.414H-924.701V182.414ZM-909.606 195.522H-924.701V197.522H-909.606V195.522ZM-923.701 196.522V181.414H-925.701V196.522H-923.701ZM-939.796 180.415H-954.905V182.415H-939.796V180.415ZM-953.905 181.415V166.319H-955.905V181.415H-953.905ZM-939.796 16.1064H-924.7V14.1064H-939.796V16.1064ZM-925.7 15.1064V30.3108H-923.7V15.1064H-925.7ZM-924.7 29.3108H-939.796V31.3108H-924.7V29.3108ZM-955.906 75.6113V90.707H-953.906V75.6113H-955.906ZM-969 90.707V75.6113H-971V90.707H-969ZM-954.905 152.225H-939.796V150.225H-954.905V152.225ZM-940.796 151.225V166.319H-938.796V151.225H-940.796ZM-954.905 31.3125H-939.796V29.3125H-954.905V31.3125ZM-940.796 30.3125V45.4216H-938.796V30.3125H-940.796ZM-939.796 44.4216H-954.905V46.4216H-939.796V44.4216ZM-939.796 1H-924.7V-1H-939.796V1ZM-924.7 14.1079H-939.796V16.1079H-924.7V14.1079ZM-938.796 15.1079V0H-940.796V15.1079H-938.796ZM-939.796 167.319H-924.7V165.319H-939.796V167.319ZM-925.7 166.319V181.415H-923.7V166.319H-925.7ZM-955.906 90.707V105.815H-953.906V90.707H-955.906ZM-969 105.815V90.707H-971V105.815H-969ZM-925.7 181.415L-925.701 196.522L-923.701 196.522L-923.7 181.415L-925.7 181.415ZM-924.701 195.522H-939.796V197.522H-924.701V195.522ZM-938.796 196.522L-938.796 181.415L-940.796 181.415L-940.796 196.522L-938.796 196.522ZM-955.906 120.911V136.007H-953.906V120.911H-955.906ZM-969 136.007V120.911H-971V136.007H-969ZM-924.7 1H-909.606V-1H-924.7V1ZM-909.606 14.1079H-924.7V16.1079H-909.606V14.1079ZM-955.906 60.5156V75.6113H-953.906V60.5156H-955.906ZM-969 75.6113V60.5156H-971V75.6113H-969ZM-894.509 1H-879.292V-1H-894.509V1ZM-880.292 0V15.1079H-878.292V0H-880.292ZM-879.292 14.1079H-894.509V16.1079H-879.292V14.1079ZM-893.509 15.1079V0H-895.509V15.1079H-893.509ZM-955.906 136.007L-955.905 151.225L-953.905 151.225L-953.906 136.007L-955.906 136.007ZM-969 151.224V136.007H-971V151.224H-969ZM-909.606 182.414H-894.51V180.414H-909.606V182.414ZM-895.51 181.414V196.522H-893.51V181.414H-895.51ZM-894.51 195.522H-909.606V197.522H-894.51V195.522ZM-970 31.3125H-954.905V29.3125H-970V31.3125ZM-954.905 44.4216H-970V46.4216H-954.905V44.4216ZM-969 45.4216V30.3125H-971V45.4216H-969ZM-954.905 165.319L-970 165.319L-970 167.319L-954.905 167.319L-954.905 165.319ZM-969 166.319V151.224H-971V166.319H-969ZM-970 46.4199H-954.906V44.4199H-970V46.4199ZM-955.906 45.4199V60.5156H-953.906V45.4199H-955.906ZM-969 60.5156V45.4199H-971V60.5156H-969ZM74.6127 14.1064H59.5035V16.1064H74.6127V14.1064ZM59.5035 31.3108H74.6127V29.3108H59.5035V31.3108ZM75.6127 30.3108V15.1064H73.6127V30.3108H75.6127ZM29.3141 -1H14.2184V1H29.3141V-1ZM13.2184 0V15.1079H15.2184V0H13.2184ZM14.2184 16.1079H29.3141V14.1079H14.2184V16.1079ZM30.3141 15.1079V0H28.3141V15.1079H30.3141ZM14.2162 180.414H-1.00031V182.414H14.2162V180.414ZM-2.00031 181.414V196.522H-0.000305176V181.414H-2.00031ZM-1.00031 197.522H14.2162V195.522H-1.00031V197.522ZM15.2162 196.522V181.414H13.2162V196.522H15.2162ZM73.6129 105.815V120.911H75.6129V105.815H73.6129ZM90.7074 120.911V105.815H88.7074V120.911H90.7074ZM44.4079 180.414H29.3122V182.414H44.4079V180.414ZM28.3122 181.414V196.522H30.3122V181.414H28.3122ZM29.3122 197.522H44.4079V195.522H29.3122V197.522ZM59.5035 182.415H74.6127V180.415H59.5035V182.415ZM75.6127 181.415V166.319H73.6127V181.415H75.6127ZM59.5035 14.1064H44.4079V16.1064H59.5035V14.1064ZM43.4079 15.1064V30.3108H45.4079V15.1064H43.4079ZM44.4079 31.3108H59.5035V29.3108H44.4079V31.3108ZM73.6129 75.6113V90.707H75.6129V75.6113H73.6129ZM90.7074 90.707V75.6113H88.7074V90.707H90.7074ZM74.6127 150.225H59.5035V152.225H74.6127V150.225ZM58.5035 151.225V166.319H60.5035V151.225H58.5035ZM74.6127 29.3125H59.5035V31.3125H74.6127V29.3125ZM58.5035 30.3125V45.4216H60.5035V30.3125H58.5035ZM59.5035 46.4216H74.6127V44.4216H59.5035V46.4216ZM59.5035 -1H44.4079V1H59.5035V-1ZM44.4079 16.1079H59.5035V14.1079H44.4079V16.1079ZM60.5035 15.1079V0H58.5035V15.1079H60.5035ZM59.5035 165.319H44.4079V167.319H59.5035V165.319ZM43.4079 166.319V181.414H45.4079V166.319H43.4079ZM73.6129 90.707V105.815H75.6129V90.707H73.6129ZM90.7074 105.815V90.707H88.7074V105.815H90.7074ZM44.4079 197.522H59.5035V195.522H44.4079V197.522ZM60.5035 196.522V181.415H58.5035V196.522H60.5035ZM73.6129 120.911V136.007H75.6129V120.911H73.6129ZM90.7074 136.007V120.911H88.7074V136.007H90.7074ZM44.4079 -1H29.3122V1H44.4079V-1ZM28.3122 0V15.1079H30.3122V0H28.3122ZM29.3122 16.1079H44.4079V14.1079H29.3122V16.1079ZM73.6129 60.5156V75.6113H75.6129V60.5156H73.6129ZM90.7074 75.6113V60.5156H88.7074V75.6113H90.7074ZM14.2162 -1H-1.00031V1H14.2162V-1ZM-2.00031 0V15.1079H-0.000305176V0H-2.00031ZM-1.00031 16.1079H14.2162V14.1079H-1.00031V16.1079ZM15.2162 15.1079V0H13.2162V15.1079H15.2162ZM73.6129 136.007L73.6127 151.225L75.6127 151.225L75.6129 136.007L73.6129 136.007ZM90.7074 151.224V136.007H88.7074V151.224H90.7074ZM29.3141 180.414H14.2184V182.414H29.3141V180.414ZM13.2184 181.414V196.522H15.2184V181.414H13.2184ZM14.2184 197.522H29.3141V195.522H14.2184V197.522ZM30.3141 196.522V181.414H28.3141V196.522H30.3141ZM89.7074 29.3125H74.6127V31.3125H89.7074V29.3125ZM74.6127 46.4216H89.7074V44.4216H74.6127V46.4216ZM90.7074 45.4216V30.3125H88.7074V45.4216H90.7074ZM74.6127 167.319L89.7074 167.319L89.7074 165.319L74.6127 165.319L74.6127 167.319ZM90.7074 166.319V151.224H88.7074V166.319H90.7074ZM89.7074 44.4199H74.6129V46.4199H89.7074V44.4199ZM73.6129 45.4199V60.5156H75.6129V45.4199H73.6129ZM90.7074 60.5156V45.4199H88.7074V60.5156H90.7074Z" fill="black" mask="url(#path-1-outside-1_713_96)"/>
</g>
<defs>
<clipPath id="clip0_713_96">
<rect width="90" height="197" fill="white"/>
</clipPath>
</defs>
</svg>
