<svg width="93" height="294" viewBox="0 0 93 294" fill="none" xmlns="http://www.w3.org/2000/svg">
<path d="M76.6123 15.6064H77.1123V16.1064V30.8125H91.707H92.207V31.3125V45.9199V46.4199V46.4216V46.9216V61.0156V61.5156V62.0156V76.1113V76.6113V77.1113V91.207V91.707V92.207V106.315V106.815V107.315V121.411V121.911V122.411V136.507V137.007V137.507V152.224V152.263V262.297V262.797H91.707L77.1123 262.797V277.393V277.893H76.6123H62.0032L62.0032 292.5V293H61.5032H46.9085H46.4085H45.9085H31.8128H31.3128H30.8128H16.7159H16.2171H16.2159H15.7171H0.999313H0.499313V292.5V277.392V276.892H0.999313H15.7171H16.2159H16.2171H16.7159H30.8128H31.3128H31.8128H45.9075V262.297V261.797H46.4075H61.0032V247.203V246.703H61.5032H76.1123L76.1126 137.507V137.007L76.1126 136.507L76.1126 122.411V121.911V121.411V107.315V106.815V106.315V92.207V91.707V91.207V77.1113V76.6113V76.1113V62.0156V61.5156V61.0156V46.9216H76.1123H61.5032H61.0032V46.4216V31.8108H46.4075H45.9075V31.3108V16.6079H31.8128H31.3128H30.8128H16.7159H16.2171H16.2159H15.7171H0.999313H0.499313V16.1079V1V0.5H0.999313H15.7171H16.2159H16.2171H16.7159H30.8128H31.3128H31.8128H45.9075H46.4075H46.9075H61.5032H62.0032V1L62.0032 15.6064H76.6123Z" fill="#F6C929" stroke="black"/>
</svg>
