<svg width="60" height="60" viewBox="0 0 60 60" fill="none" xmlns="http://www.w3.org/2000/svg">
<rect x="0.5" y="0.5" width="59" height="59" fill="white"/>
<rect x="0.5" y="0.5" width="59" height="59" stroke="black"/>
<path d="M30.0057 23.7107C26.5275 23.7107 23.7221 26.5162 23.7221 29.9943C23.7221 33.4725 26.5275 36.2779 30.0057 36.2779C33.4838 36.2779 36.2893 33.4725 36.2893 29.9943C36.2893 26.5162 33.4838 23.7107 30.0057 23.7107ZM30.0057 34.0795C27.758 34.0795 25.9205 32.2475 25.9205 29.9943C25.9205 27.7412 27.7525 25.9092 30.0057 25.9092C32.2588 25.9092 34.0908 27.7412 34.0908 29.9943C34.0908 32.2475 32.2533 34.0795 30.0057 34.0795ZM38.0119 23.4537C38.0119 24.2686 37.3557 24.9193 36.5463 24.9193C35.7314 24.9193 35.0807 24.2631 35.0807 23.4537C35.0807 22.6443 35.7369 21.9881 36.5463 21.9881C37.3557 21.9881 38.0119 22.6443 38.0119 23.4537ZM42.1736 24.9412C42.0807 22.9779 41.6322 21.2389 40.1939 19.8061C38.7611 18.3732 37.0221 17.9248 35.0588 17.8264C33.0354 17.7115 26.9705 17.7115 24.9471 17.8264C22.9893 17.9193 21.2502 18.3678 19.8119 19.8006C18.3736 21.2334 17.9307 22.9725 17.8322 24.9357C17.7174 26.9592 17.7174 33.024 17.8322 35.0475C17.9252 37.0107 18.3736 38.7498 19.8119 40.1826C21.2502 41.6154 22.9838 42.0639 24.9471 42.1623C26.9705 42.2771 33.0354 42.2771 35.0588 42.1623C37.0221 42.0693 38.7611 41.6209 40.1939 40.1826C41.6268 38.7498 42.0752 37.0107 42.1736 35.0475C42.2885 33.024 42.2885 26.9646 42.1736 24.9412ZM39.5596 37.2186C39.133 38.2904 38.3072 39.1162 37.2299 39.5482C35.6166 40.1881 31.7885 40.0404 30.0057 40.0404C28.2229 40.0404 24.3893 40.1826 22.7814 39.5482C21.7096 39.1217 20.8838 38.2959 20.4518 37.2186C19.8119 35.6053 19.9596 31.7771 19.9596 29.9943C19.9596 28.2115 19.8174 24.3779 20.4518 22.7701C20.8783 21.6982 21.7041 20.8725 22.7814 20.4404C24.3947 19.8006 28.2229 19.9482 30.0057 19.9482C31.7885 19.9482 35.6221 19.8061 37.2299 20.4404C38.3018 20.867 39.1275 21.6928 39.5596 22.7701C40.1994 24.3834 40.0518 28.2115 40.0518 29.9943C40.0518 31.7771 40.1994 35.6107 39.5596 37.2186Z" fill="black"/>
</svg>
