<svg width="60" height="60" viewBox="0 0 60 60" fill="none" xmlns="http://www.w3.org/2000/svg">
<rect x="0.5" y="0.5" width="59" height="59" fill="white"/>
<rect x="0.5" y="0.5" width="59" height="59" stroke="black"/>
<path d="M44.2076 30.6395C47.2975 27.5497 47.2975 22.5458 44.2076 19.4559C41.4732 16.7216 37.1639 16.3661 34.0193 18.6138L33.9318 18.6739C33.1443 19.2372 32.9639 20.3309 33.5271 21.113C34.0904 21.895 35.1842 22.0809 35.9662 21.5177L36.0537 21.4575C37.8092 20.2052 40.21 20.402 41.7303 21.9278C43.4529 23.6505 43.4529 26.4395 41.7303 28.1622L35.5943 34.3091C33.8717 36.0317 31.0826 36.0317 29.36 34.3091C27.8342 32.7833 27.6373 30.3825 28.8896 28.6325L28.9498 28.545C29.5131 27.7575 29.3271 26.6638 28.5451 26.1059C27.7631 25.5481 26.6639 25.7286 26.1061 26.5106L26.0459 26.5981C23.7928 29.7372 24.1482 34.0466 26.8826 36.7809C29.9725 39.8708 34.9764 39.8708 38.0662 36.7809L44.2076 30.6395ZM15.792 29.3599C12.7021 32.4497 12.7021 37.4536 15.792 40.5434C18.5264 43.2778 22.8357 43.6333 25.9803 41.3856L26.0678 41.3255C26.8553 40.7622 27.0357 39.6684 26.4725 38.8864C25.9092 38.1044 24.8154 37.9184 24.0334 38.4817L23.9459 38.5419C22.1904 39.7942 19.7896 39.5974 18.2693 38.0716C16.5467 36.3434 16.5467 33.5544 18.2693 31.8317L24.4053 25.6903C26.1279 23.9677 28.917 23.9677 30.6396 25.6903C32.1654 27.2161 32.3623 29.6169 31.11 31.3724L31.0498 31.4599C30.4865 32.2474 30.6725 33.3411 31.4545 33.8989C32.2365 34.4567 33.3357 34.2763 33.8936 33.4942L33.9537 33.4067C36.2068 30.2622 35.8514 25.9528 33.117 23.2184C30.0271 20.1286 25.0232 20.1286 21.9334 23.2184L15.792 29.3599Z" fill="black"/>
</svg>
