<svg width="60" height="60" viewBox="0 0 60 60" fill="none" xmlns="http://www.w3.org/2000/svg">
<rect x="0.5" y="0.5" width="59" height="59" fill="white"/>
<rect x="0.5" y="0.5" width="59" height="59" stroke="black"/>
<path d="M44.309 22.7858C43.9655 21.4924 42.9535 20.4738 41.6685 20.1281C39.3393 19.5 29.9998 19.5 29.9998 19.5C29.9998 19.5 20.6602 19.5 18.331 20.1281C17.046 20.4739 16.034 21.4924 15.6905 22.7858C15.0664 25.1301 15.0664 30.0212 15.0664 30.0212C15.0664 30.0212 15.0664 34.9124 15.6905 37.2566C16.034 38.55 17.046 39.5262 18.331 39.8719C20.6602 40.5 29.9998 40.5 29.9998 40.5C29.9998 40.5 39.3393 40.5 41.6685 39.8719C42.9535 39.5262 43.9655 38.55 44.309 37.2566C44.9331 34.9124 44.9331 30.0212 44.9331 30.0212C44.9331 30.0212 44.9331 25.1301 44.309 22.7858ZM26.9452 34.462V25.5804L34.7512 30.0213L26.9452 34.462Z" fill="black"/>
</svg>
