<svg width="60" height="60" viewBox="0 0 60 60" fill="none" xmlns="http://www.w3.org/2000/svg">
<rect x="0.5" y="0.5" width="59" height="59" fill="white"/>
<rect x="0.5" y="0.5" width="59" height="59" stroke="black"/>
<path d="M30.0064 16.4375C22.5146 16.4375 16.4414 22.5096 16.4414 30C16.4414 37.4904 22.5146 43.5625 30.0064 43.5625C37.4982 43.5625 43.5714 37.4904 43.5714 30C43.5714 22.5096 37.4982 16.4375 30.0064 16.4375ZM36.294 25.6611C36.0899 27.8057 35.2066 33.0099 34.757 35.4119C34.5669 36.4282 34.1924 36.769 33.83 36.8023C33.0423 36.8748 32.4441 36.2818 31.6811 35.7818C30.4872 34.9993 29.8127 34.5122 28.6538 33.7487C27.3145 32.8663 28.1827 32.3815 28.946 31.5885C29.1457 31.3811 32.6166 28.2247 32.6837 27.9383C32.6921 27.9025 32.7002 27.7688 32.6206 27.6986C32.5411 27.6284 32.4243 27.6522 32.3398 27.6712C32.22 27.6984 30.3128 28.9588 26.6179 31.4524C26.0766 31.8241 25.5863 32.0052 25.1469 31.9957C24.6626 31.9853 23.7309 31.7219 23.0383 31.4968C22.1888 31.2207 21.5136 31.0748 21.5724 30.6059C21.603 30.3616 21.9394 30.1119 22.5815 29.8567C26.536 28.1341 29.173 26.9984 30.4923 26.4496C34.2595 24.883 35.0422 24.6109 35.5525 24.6018C35.6647 24.5999 35.9156 24.6277 36.0781 24.7596C36.1862 24.8535 36.2551 24.9846 36.2712 25.1269C36.2987 25.3035 36.3064 25.4827 36.294 25.6611Z" fill="black"/>
</svg>
