<svg width="60" height="60" viewBox="0 0 60 60" fill="none" xmlns="http://www.w3.org/2000/svg">
<rect x="0.5" y="0.5" width="59" height="59" fill="white"/>
<rect x="0.5" y="0.5" width="59" height="59" stroke="black"/>
<path d="M42.2507 27.4795C39.8431 27.4852 37.4945 26.7344 35.5367 25.333V35.1067C35.5361 36.9169 34.9828 38.6838 33.9508 40.171C32.9189 41.6583 31.4575 42.7951 29.762 43.4294C28.0666 44.0636 26.2179 44.1652 24.4632 43.7204C22.7085 43.2757 21.1314 42.3058 19.9427 40.9405C18.7541 39.5753 18.0106 37.8796 17.8117 36.0804C17.6127 34.2811 17.9678 32.4641 18.8295 30.8721C19.6911 29.2801 21.0183 27.9891 22.6335 27.1718C24.2486 26.3544 26.0748 26.0496 27.8679 26.2982V31.2141C27.0474 30.956 26.1663 30.9637 25.3505 31.2363C24.5347 31.5088 23.8258 32.0321 23.3252 32.7316C22.8245 33.431 22.5577 34.2707 22.5627 35.1308C22.5678 35.991 22.8445 36.8275 23.3534 37.521C23.8622 38.2145 24.5772 38.7294 25.3962 38.9923C26.2152 39.2552 27.0963 39.2526 27.9137 38.9849C28.7311 38.7171 29.443 38.198 29.9477 37.5015C30.4525 36.805 30.7242 35.9669 30.7242 35.1067V16H35.5367C35.5334 16.4064 35.5674 16.8123 35.6384 17.2124C35.8057 18.1057 36.1534 18.9555 36.6603 19.7099C37.1672 20.4642 37.8227 21.1071 38.5866 21.5995C39.6735 22.3181 40.9478 22.7011 42.2507 22.7009V27.4795Z" fill="black"/>
</svg>
