<svg width="50" height="22" viewBox="0 0 50 22" fill="none" xmlns="http://www.w3.org/2000/svg">
<rect x="9.89648" width="9.37407" height="19.5172" rx="4.68704" transform="rotate(30.4842 9.89648 0)" stroke="black" stroke-width="0.37764"/>
<path d="M2.52427 17.662C2.41657 17.532 2.2931 17.4098 2.28785 17.2246C2.23925 17.0224 2.21692 16.8424 2.31674 16.6257C2.41394 16.4169 2.37191 16.1686 2.12236 16.015C1.96737 15.9191 1.79005 15.8179 1.82683 15.5828C1.77692 14.8933 1.9122 14.2287 2.10528 13.5733C2.16045 13.3841 2.28916 13.2265 2.3417 13.0334C2.37585 12.9087 2.47042 12.8351 2.60439 12.9139C2.72129 12.9835 2.74361 13.0912 2.66481 13.2068C2.61227 13.283 2.55054 13.3539 2.50325 13.505C2.64511 13.2764 2.78433 13.2883 2.96953 13.3605C3.28344 13.484 3.47652 13.7939 3.81013 13.878C4.17527 14.0553 4.48918 14.3127 4.83068 14.5268C5.1065 14.7002 5.13802 14.695 5.30614 14.4126C5.40597 14.2431 5.50447 14.0724 5.60561 13.9043C5.72776 13.7033 5.6726 13.5864 5.48346 13.48C5.04871 13.237 4.64811 12.9441 4.25539 12.6381C3.92834 12.3846 3.59735 12.139 3.35043 11.7962C3.27162 11.6872 3.2401 11.5821 3.24272 11.456C3.28344 11.2025 3.45025 11.0094 3.57108 10.7953C3.82327 10.3448 4.08858 9.90219 4.3539 9.45956C4.39724 9.38864 4.40775 9.26911 4.53778 9.28225C4.77551 9.45694 4.9016 9.72882 5.1065 9.93503C5.82889 10.6587 6.6498 11.2472 7.51404 11.783C7.67954 11.8855 7.86999 11.959 7.96193 12.1521C7.99082 12.4634 7.76491 12.6722 7.62963 12.906C6.48562 14.8828 5.33635 16.8582 4.18184 18.8297C4.13061 18.9177 4.09515 19.0227 3.97825 19.0516C3.78649 19.0411 3.66828 18.9032 3.53562 18.7929C3.1626 18.4475 2.82899 18.0666 2.52296 17.6607L2.52427 17.662Z" fill="#F83857"/>
<path d="M12.5422 14.0121C12.2506 14.5165 11.8684 14.9998 11.5755 15.5042C11.5387 15.6815 11.3995 15.8115 11.3128 15.9639C11.209 16.1465 11.1736 16.2358 10.9608 16.2095C10.3855 16.1386 9.86275 15.91 9.34262 15.6789C9.00113 15.5278 8.67539 15.3439 8.34703 15.1653C8.2459 15.1102 8.15133 15.0419 8.02787 15.101C7.53664 15.2139 7.49855 15.5882 7.513 15.9928C7.64434 16.2542 7.93593 16.308 8.13951 16.4761C8.53748 16.7533 8.98931 16.9161 9.43851 17.0843C9.46478 17.0974 9.48842 17.1145 9.51075 17.1342C9.57773 17.2025 9.66311 17.2406 9.74717 17.2826C9.80233 17.3102 9.85618 17.343 9.89821 17.3916C9.93236 17.4323 9.97964 17.5032 9.95075 17.5282C9.69069 17.762 10.1793 18.0063 9.868 18.2624C9.60663 18.4765 9.3794 18.7668 9.11409 18.9809C8.88949 19.1687 8.63862 19.3105 8.36148 19.4038C7.91622 19.526 7.47885 19.677 7.01914 19.744C6.38212 19.8372 5.76349 19.7308 5.14354 19.61C5.06605 19.5943 5.02533 19.5299 4.9925 19.4642C4.94653 19.3683 4.87823 19.3381 4.76659 19.3473C4.31345 19.3854 4.16109 19.2317 4.20706 18.7996C4.32789 18.4594 4.55118 18.1757 4.72193 17.8618C4.95835 17.5505 5.22235 17.7239 5.47978 17.8211C5.51656 17.8106 5.5494 17.7922 5.58092 17.7699C5.63346 17.7265 5.67943 17.6779 5.71095 17.6175C5.72146 17.5952 5.73328 17.5729 5.74641 17.5505C5.77531 17.4954 5.79107 17.4363 5.8134 17.3785C5.83179 17.3299 5.85412 17.2826 5.88039 17.2366C5.92242 17.1512 6.00385 17.0961 6.04457 17.0094C6.04851 16.9844 6.05639 16.9595 6.06427 16.9358C6.08003 16.8872 6.10367 16.8439 6.13388 16.8032C6.1549 16.7717 6.17854 16.7414 6.19955 16.7099C6.22451 16.6626 6.24946 16.6167 6.25997 16.5641C6.26128 16.4998 6.23764 16.442 6.20612 16.3881C6.19036 16.3619 6.1746 16.3303 6.14833 16.3198C5.83967 16.2056 5.8423 15.9941 5.96707 15.7432C6.27179 15.2126 6.53448 14.6557 6.91144 14.1684C6.98236 14.1303 7.05854 14.1264 7.13604 14.1343C7.2989 14.1316 7.41843 14.3221 7.59968 14.2367C7.64697 14.196 7.69294 14.154 7.72315 14.0988C7.73497 14.0778 7.74942 14.0581 7.76386 14.0371C7.80064 13.9885 7.83085 13.9372 7.84792 13.8781C7.85581 13.8545 7.86763 13.8335 7.87945 13.8112C7.91754 13.7494 7.95694 13.6864 7.96613 13.6115C7.9819 13.5511 8.00422 13.492 8.03706 13.4381C8.06727 13.3856 8.11061 13.3423 8.13688 13.2871C8.14739 13.2529 8.16184 13.2201 8.17629 13.1873C8.19993 13.1334 8.24327 13.0888 8.25641 13.0297C8.18417 12.8773 7.99503 12.8484 7.91754 12.7013C7.92016 12.3624 8.08435 12.2508 8.3733 12.3913C8.50202 12.4544 8.62023 12.5371 8.76734 12.5581C9.38334 12.8037 9.95206 13.1505 10.5746 13.3843C11.1473 13.5997 11.7186 13.8098 12.332 13.8768C12.4161 13.886 12.5225 13.8873 12.5422 14.0095V14.0121Z" fill="#F83857"/>
<path d="M5.48482 8.21107C5.78034 8.54075 6.06142 8.88618 6.42656 9.14756C6.58548 9.1712 6.69844 9.27628 6.81928 9.36953C7.34991 9.78327 7.90812 10.1563 8.4729 10.5201C8.84198 10.7578 8.85118 10.8209 8.62658 11.1887C8.44664 11.4855 8.34944 11.8375 8.05786 12.0621C7.92914 12.1107 7.83851 12.0214 7.74526 11.9649C6.83373 11.408 5.95109 10.8091 5.18404 10.0604C4.95287 9.83449 4.69018 9.61515 4.62714 9.26577C4.59562 8.82839 4.92004 8.55126 5.10261 8.20976C5.23001 8.20976 5.35873 8.17036 5.48613 8.2137L5.48482 8.21107Z" fill="#FCFCFC"/>
<path d="M12.6078 13.7763C12.5671 13.7987 12.5264 13.8223 12.4844 13.8446C12.1455 14.0009 11.8277 13.8368 11.5203 13.7501C10.6574 13.5084 9.8483 13.1314 9.05367 12.7177C8.85928 12.6166 8.82644 12.4852 8.93283 12.3132C9.02608 12.1621 9.10489 12.0045 9.20602 11.8587C9.58167 11.1639 9.59612 11.1495 10.2922 11.5133C10.9962 11.881 11.7292 12.1674 12.4909 12.3841C12.5816 12.4104 12.6709 12.4406 12.7326 12.5181C12.9296 12.5824 13.1319 12.5864 13.3565 12.5588C13.2527 12.8569 12.994 13.0474 12.9126 13.3337C12.7799 13.3928 12.6512 13.4624 12.4975 13.5005C12.5343 13.5938 12.7037 13.6371 12.6065 13.7737L12.6078 13.7763Z" fill="#FBFBFC"/>
<path d="M11.199 16.3314C10.9665 16.6046 10.8798 16.975 10.6053 17.2193C10.428 17.2994 10.2546 17.2994 10.0616 17.2495C9.21964 17.0302 8.43682 16.6834 7.70524 16.2132C7.53974 16.1068 7.51741 15.9821 7.60541 15.8166C7.70786 15.6235 7.81688 15.4344 7.92852 15.2465C8.0441 15.0521 8.17151 15.0298 8.3659 15.1415C8.96089 15.483 9.57821 15.7785 10.2257 16.0083C10.4819 16.099 10.7485 16.1331 11.0072 16.204C11.0874 16.2264 11.178 16.2198 11.1964 16.3288L11.199 16.3314Z" fill="#FAFBFB"/>
<path d="M2.61459 12.5872C2.68158 12.2036 2.96791 11.9291 3.11502 11.5863C3.18857 11.5679 3.2306 11.6113 3.26869 11.6638C3.80852 12.3994 4.57163 12.8656 5.31372 13.3569C5.40041 13.4133 5.48447 13.4738 5.57379 13.5263C5.70382 13.6025 5.74059 13.697 5.6631 13.8363C5.53832 14.0635 5.40041 14.2828 5.27301 14.5074C5.18107 14.669 5.04841 14.6874 4.90524 14.5928C4.17891 14.116 3.41842 13.6826 2.83 13.0219C2.71836 12.8958 2.62116 12.7645 2.61328 12.5872H2.61459Z" fill="#FAFBFB"/>
<path d="M12.7349 12.5172C11.9442 12.3977 11.2323 12.0588 10.5165 11.7304C10.2998 11.6306 10.0804 11.5334 9.87815 11.4086C9.6877 11.2904 9.58657 11.3377 9.49988 11.5269C9.43946 11.6582 9.35409 11.7764 9.27922 11.9012C9.22406 11.8999 9.20436 11.8631 9.19516 11.8158C9.19122 11.7186 9.22668 11.628 9.27922 11.5531C9.42633 11.339 9.33307 11.2261 9.14 11.1118C8.9154 10.9791 8.83002 11.1039 8.73151 11.2747C8.56996 11.5518 8.41498 11.8355 8.22847 12.0982C8.17593 12.156 8.1142 12.1967 8.03145 12.1888C8.00124 12.1809 7.98023 12.1612 7.96578 12.1337C7.96709 12.0811 7.99993 12.0562 8.0459 12.0417C8.25211 11.6845 8.45306 11.3233 8.66847 10.9726C8.74465 10.8491 8.72232 10.8031 8.60542 10.7217C8.0459 10.3342 7.45616 9.99144 6.92422 9.56325C6.7561 9.42797 6.59323 9.28612 6.42773 9.14689C6.45532 9.14295 6.4829 9.14033 6.50917 9.13639C6.59848 9.0891 6.67204 9.13639 6.73771 9.18498C6.86905 9.27955 7.02272 9.30188 7.17114 9.34785C7.42989 9.42928 7.58751 9.34654 7.74118 9.12325C7.86727 8.942 7.85676 8.67011 8.09975 8.56766C8.11945 8.59393 8.13915 8.6202 8.15885 8.64647C8.27444 8.51513 8.25605 8.32468 8.36112 8.18939C8.38739 8.1513 8.42286 8.12635 8.47014 8.12109C8.49115 8.14999 8.51217 8.17889 8.53187 8.20909C8.63432 8.40086 8.50429 8.54665 8.42417 8.69376C8.30465 8.91441 8.1247 9.09041 7.97103 9.28612C7.87121 9.41221 7.76351 9.54487 7.841 9.76421C7.95921 9.5974 8.03276 9.43848 8.13521 9.29925C8.39133 8.94856 8.66978 8.87895 9.052 9.08253C9.51039 9.32684 9.95433 9.5974 10.4009 9.86272C10.8632 10.1372 10.9276 10.4301 10.6583 10.9056C10.6019 11.0041 10.5336 11.0974 10.4981 11.2734C10.7358 11.1814 10.8002 11.0028 10.854 10.8281C10.967 10.4656 11.118 10.1254 11.4175 9.87717C11.5226 9.79048 11.6329 9.66176 11.7971 9.78129C11.7971 9.80493 11.7997 9.82726 11.801 9.8509C11.7774 10.0322 11.6053 10.0781 11.4924 10.1661C11.3531 10.2765 11.4228 10.3329 11.5042 10.4104C11.407 10.6534 11.1837 10.8071 11.0721 11.0448C10.9197 11.3719 10.925 11.4389 11.2441 11.7698C11.449 11.9826 11.6447 12.022 11.9061 11.9025C11.9245 11.8946 11.9455 11.892 11.9665 11.8933C11.9928 11.8946 12.0178 11.8972 12.044 11.8986C12.2384 12.1153 12.4683 12.2689 12.7664 12.3084C12.8426 12.3189 12.9267 12.3504 12.9385 12.4528C12.8689 12.466 12.7901 12.4555 12.7362 12.5185L12.7349 12.5172Z" fill="#1B1A24"/>
<path d="M14.3536 10.7012C14.6925 10.1049 15.0156 9.4994 15.3742 8.91492C16.949 6.34713 15.8654 3.12657 13.0218 2.13098C11.3642 1.55044 9.82486 1.89456 8.47596 3.04645C7.77458 3.64538 7.40682 4.47154 6.9458 5.23333C6.56884 5.85722 6.21289 6.49293 5.84513 7.12207C5.7834 7.22846 5.73611 7.35061 5.53516 7.43861C5.79785 6.97759 6.02507 6.57173 6.25886 6.16982C6.65684 5.48683 7.06007 4.80646 7.45935 4.12347C9.01447 1.45587 12.5752 0.942311 14.8028 3.06615C16.3133 4.507 16.6587 6.95395 15.6027 8.75468C15.2087 9.42847 14.8133 10.101 14.4193 10.7734C14.3641 10.78 14.3313 10.7656 14.3536 10.7012Z" fill="#3E6B9F"/>
<path d="M11.7973 9.78156C11.3586 9.86957 11.201 10.2268 11.0434 10.5788C10.9843 10.7102 10.941 10.8507 10.8963 10.9886C10.8017 11.275 10.6231 11.4313 10.2895 11.3774C10.4064 11.1686 10.5246 10.9663 10.6349 10.7601C10.807 10.437 10.761 10.1966 10.4602 10.0101C9.9572 9.70013 9.44627 9.40198 8.92877 9.11302C8.67265 8.96986 8.40602 9.0618 8.23002 9.32317C8.1604 9.42693 8.10261 9.53726 8.03825 9.64497C7.97521 9.75004 7.90954 9.85512 7.83992 9.96807C7.6324 9.55434 7.63897 9.49392 8.0133 9.08018C8.24578 8.82275 8.45987 8.56006 8.53342 8.21069C8.57151 8.1043 8.56363 7.99528 8.55969 7.88495C8.55312 7.71026 8.64507 7.77199 8.7265 7.82453C8.89593 8.66776 9.46203 9.17344 10.2094 9.48473C10.6468 9.66729 11.113 9.80915 11.5937 9.56879C11.733 9.49917 11.8354 9.55828 11.8538 9.72377C11.8354 9.74347 11.8157 9.76318 11.7973 9.78156Z" fill="#F8F8FA"/>
<path d="M11.9655 11.8944C11.8354 12.1571 11.4716 12.1518 11.2194 11.8839C11.205 11.8694 11.1931 11.8511 11.1853 11.8327C11.0946 11.6475 10.7847 11.524 10.8333 11.3651C10.9134 11.1024 11.0355 10.8213 11.2536 10.6164C11.3284 10.5455 11.4046 10.4785 11.4808 10.4089C11.4847 10.2421 11.5793 10.2263 11.7093 10.2723C12.1349 10.5113 12.2019 10.6847 12.0968 11.3257C12.0653 11.5174 12.0101 11.7053 11.9655 11.8944Z" fill="#F6F8F9"/>
<path d="M11.1153 16.356C10.9288 16.226 10.783 16.2417 10.5781 16.1826C9.77294 15.9528 9.02822 15.5863 8.30188 15.1818C8.16134 15.103 8.0983 15.1148 8.02606 15.254C7.88815 15.5207 7.58868 15.8109 7.63334 16.0342C7.68062 16.2667 8.09961 16.3613 8.36887 16.49C9.07944 16.8315 9.78476 17.1966 10.6017 17.2163C10.5623 17.2531 10.5216 17.2912 10.4822 17.328C10.2694 17.5079 10.0514 17.3923 9.84124 17.3306C9.71515 17.2938 9.59037 17.236 9.48924 17.1428H9.48661C9.0072 16.9799 8.55012 16.7684 8.10355 16.5307C7.85925 16.3823 7.56504 16.3022 7.42188 16.0198C7.52564 15.6389 7.70427 15.3013 7.98403 15.0202C8.11669 14.8718 8.23227 14.9927 8.34129 15.0531C8.96911 15.3985 9.60876 15.7164 10.2865 15.9541C11.1166 16.2444 11.181 16.0934 11.5093 15.6336C11.3517 15.941 11.2978 15.9253 11.181 16.2247L11.1153 16.356Z" fill="#370A17"/>
<path d="M2.61325 12.5879C3.21481 13.4731 4.11451 13.9998 4.98664 14.5607C5.06939 14.6132 5.13769 14.6277 5.18628 14.5213C5.19548 14.5029 5.20861 14.4871 5.21912 14.4687C5.36491 14.2179 5.6368 13.9578 5.61972 13.7174C5.60265 13.4626 5.19811 13.3812 4.96563 13.221C4.28263 12.7494 3.60884 12.27 3.11367 11.587C3.15701 11.545 3.19904 11.503 3.24239 11.4609C3.57732 12.0888 4.15392 12.4683 4.70162 12.8742C5.00109 13.0962 5.32551 13.284 5.64336 13.4797C5.79966 13.5769 5.86533 13.6675 5.73924 13.8501C5.5685 14.097 5.42402 14.3623 5.27954 14.6263C5.19285 14.784 5.10091 14.7971 4.95775 14.7012C4.57816 14.449 4.19201 14.2047 3.8098 13.9578C3.34878 13.6649 2.8917 13.3681 2.59092 12.8926C2.54626 12.8217 2.48059 12.7652 2.53313 12.6719C2.56071 12.6443 2.58698 12.6155 2.61456 12.5879H2.61325Z" fill="#3D0C16"/>
<path d="M8.09809 8.56925C8.06919 8.64674 8.05212 8.72949 8.01009 8.7991C7.85641 9.05785 7.79468 9.47158 7.46107 9.48472C7.18787 9.49522 6.83193 9.47946 6.60864 9.20364C6.58369 9.17343 6.54034 9.15898 6.50619 9.13665C6.27109 8.93176 6.5653 8.85295 6.60602 8.71373C6.71503 8.51408 6.82536 8.52196 6.87396 8.73737C6.94357 9.04734 7.15372 9.13534 7.42823 9.15636C7.64758 9.08018 7.7382 8.90417 7.70668 8.69534C7.66334 8.40769 7.44793 8.29342 7.08411 8.28554C7.37044 8.11742 7.56352 7.89939 7.82752 7.99002C8.07313 8.07408 8.08758 8.33677 8.09546 8.56925H8.09809Z" fill="#F6F6F9"/>
<path d="M6.92982 14.2183C6.6054 14.7135 6.31513 15.2283 6.03931 15.7524C5.69519 16.5116 5.30903 17.2471 4.78366 17.9012C4.61816 18.1862 4.45136 18.4699 4.28586 18.7549C4.2215 18.8955 4.22676 19.0793 4.04287 19.1463C4.02186 19.1161 3.99953 19.0846 3.97852 19.0531C4.37255 18.2506 4.86246 17.5019 5.30772 16.7296C6.14701 15.2704 6.99944 13.8177 7.84529 12.3624C7.88076 12.3007 7.90046 12.2297 7.92804 12.1627C7.94118 12.1365 7.95825 12.1339 7.98058 12.1536H7.98189C8.02524 12.1969 8.07515 12.235 8.07383 12.3046C7.83873 12.805 7.5524 13.2779 7.27789 13.7573C7.18069 13.9254 7.09926 14.1066 6.93114 14.2209L6.92982 14.2183Z" fill="#600510"/>
<path d="M9.84783 5.83608C9.84126 5.70605 9.91613 5.63644 10.0238 5.57602C10.4376 5.34354 10.8789 5.28575 11.3425 5.33829C11.4975 5.35536 11.5067 5.40396 11.4358 5.53399C11.3255 5.73889 11.2388 5.88862 10.9354 5.86498C10.3824 5.82295 9.9621 6.13555 9.60485 6.53221C9.53261 6.24719 9.70598 6.04623 9.84652 5.83477L9.84783 5.83608Z" fill="#F9F9FB"/>
<path d="M12.2511 10.8281C12.6399 11.0948 12.9682 11.3955 13.2467 11.7488C13.3491 11.8802 13.4476 12.0168 13.4792 12.1849C13.5015 12.3031 13.4529 12.3832 13.336 12.4266C13.2375 12.4634 13.1613 12.466 13.0943 12.3649C12.8737 12.0326 12.5808 11.7659 12.2892 11.498C12.0646 11.2905 12.3049 11.0514 12.2498 10.8281H12.2511Z" fill="#CDBAD5"/>
<path d="M11.8541 9.72238C11.7871 9.69611 11.7976 9.51354 11.6873 9.60417C11.3379 9.89444 10.9531 9.77492 10.588 9.70136C9.76706 9.53718 9.17601 9.04333 8.7649 8.32356C8.67427 8.16463 8.63355 7.99651 8.72681 7.82182C8.74651 7.84678 8.76753 7.87173 8.78723 7.89669C8.94878 8.11078 8.98162 8.39711 9.18257 8.58888C9.86162 9.39796 10.9846 9.7933 11.5533 9.4216C11.5061 9.40452 11.4522 9.40846 11.4062 9.3822C11.3655 9.35724 11.3392 9.32309 11.3458 9.27187C11.4154 9.16942 11.531 9.14446 11.6361 9.11294C11.9592 9.01706 12.1365 8.80953 12.1575 8.47066C12.1733 8.41156 12.1996 8.35902 12.2337 8.30911C12.3467 8.19222 12.4045 8.04248 12.4819 7.90326C12.6291 7.75221 12.7065 7.50134 12.9876 7.53418C13.0244 7.57752 13.0612 7.62218 13.0966 7.66552C12.6277 7.95054 12.3729 8.36296 12.3598 8.91724C12.3375 8.9527 12.3165 8.98816 12.2941 9.02494C12.2376 9.11819 12.3125 9.15366 12.3729 9.18649C12.5555 9.28237 12.6566 9.43999 12.721 9.62781C12.6671 9.71844 12.612 9.80906 12.5581 9.89969C12.4583 9.85241 12.4675 9.74865 12.436 9.6659C12.3756 9.51091 12.2626 9.4019 12.1024 9.38482C11.9198 9.36512 12.0039 9.58184 11.908 9.65014C11.8896 9.67378 11.8699 9.69874 11.8515 9.72238H11.8541Z" fill="#292233"/>
<path d="M6.10683 8.09117C5.97549 8.0649 5.84546 8.02418 5.7128 8.01499C5.5657 8.00448 5.46587 7.94275 5.45931 7.8009C5.45143 7.62621 5.58934 7.58549 5.7325 7.57236C5.99388 7.54872 6.24869 7.59863 6.49693 7.66693C6.78326 7.74573 7.06434 7.84555 7.40189 7.95457C7.19568 8.09905 7.03413 8.21201 6.87257 8.32496C6.58756 8.34466 6.33143 8.26848 6.10552 8.0938L6.10683 8.09117Z" fill="#CCBBD3"/>
<path d="M2.53188 12.6719C2.78669 13.167 3.24246 13.4678 3.64568 13.8185C3.69954 13.8658 3.7547 13.9118 3.80855 13.9577C3.45786 13.9577 3.29237 13.6359 3.0218 13.4915C2.71708 13.3273 2.59361 13.3864 2.50693 13.7358C2.28627 13.498 2.42944 13.3457 2.54765 13.2091C2.59493 13.1539 2.67636 13.1263 2.62908 13.0396C2.60675 12.9989 2.55421 12.9503 2.51481 12.9477C2.43338 12.9451 2.3874 13.016 2.36902 13.0869C2.27051 13.4862 1.96579 13.8172 2.06561 14.294C2.09845 14.4516 1.83707 14.6788 1.85283 14.9349C1.86597 15.153 1.85415 15.3723 1.85283 15.5903C1.83313 15.6206 1.81474 15.6192 1.79898 15.5877C1.70047 14.6499 1.88961 13.7673 2.31911 12.9333C2.37033 12.8347 2.41367 12.7218 2.52926 12.6719H2.53188Z" fill="#D83C59"/>
<path d="M8.03695 12.2773C8.01856 12.2366 7.99886 12.1959 7.98047 12.1538C8.03432 12.1328 8.08817 12.1118 8.14202 12.0908C8.29044 12.0724 8.38895 12.1722 8.49928 12.2431C8.67528 12.3574 8.81188 12.3482 8.92878 12.1459C8.9997 12.0225 9.03516 11.8465 9.22824 11.832C9.24532 11.8557 9.26108 11.8793 9.27815 11.903C9.19672 12.142 8.87624 12.364 8.97606 12.5649C9.06931 12.7528 9.40293 12.825 9.63541 12.938C10.392 13.3018 11.159 13.642 11.9917 13.7996C12.1533 13.8298 12.3214 13.8311 12.4856 13.8455C12.5 13.9033 12.655 13.9138 12.5421 14.015C11.1669 13.8692 9.96902 13.2361 8.7554 12.6451C8.50716 12.54 8.28913 12.3745 8.03695 12.2786V12.2773Z" fill="#3D0D18"/>
<path d="M11.1046 5.97266C11.5341 5.9871 11.848 6.21827 12.1239 6.51773C12.2657 6.56633 12.3261 6.68586 12.3852 6.80932C12.7189 7.51464 12.4286 8.42617 11.739 8.80707C11.1401 9.13674 10.5517 9.11704 9.98689 8.71775C9.88444 8.64551 9.78462 8.56933 9.77148 8.4288C9.77937 8.37495 9.81089 8.33817 9.85948 8.31584C10.0013 8.30008 10.0841 8.40515 10.1826 8.47739C10.6331 8.80838 11.1795 8.81758 11.6681 8.50104C12.1055 8.21865 12.3064 7.65386 12.1685 7.09696C12.0464 6.6018 11.6379 6.25767 11.1007 6.192C10.9707 6.17624 10.8262 6.20514 10.7224 6.08693C10.8039 5.89254 10.989 6.05146 11.1033 5.97397L11.1046 5.97266Z" fill="#B6AFC6"/>
<path d="M4.04102 19.1453C4.12245 19.0153 4.20257 18.8839 4.284 18.7539C4.29582 18.9588 4.17499 19.2162 4.5178 19.2845C4.59923 19.3003 4.63338 19.3279 4.72138 19.2583C4.89213 19.1256 5.09046 19.2254 5.09308 19.4395C5.0944 19.5932 5.18503 19.5709 5.26909 19.5853C6.21345 19.7482 7.15125 19.8047 8.06015 19.4041C8.15998 19.3594 8.26243 19.3725 8.36356 19.4001C6.87806 20.0713 5.43852 19.9702 4.04233 19.1427L4.04102 19.1453Z" fill="#CC3D56"/>
<path d="M9.80084 8.39631C10.342 9.01626 11.1603 9.12134 11.8157 8.65638C12.4356 8.21769 12.6103 7.35607 12.2189 6.67702C12.1874 6.62317 12.1545 6.57063 12.1217 6.51809C12.1375 6.49839 12.1545 6.47869 12.1703 6.45898C12.4829 6.52728 12.4829 6.81099 12.5696 7.03559C12.6523 7.32192 12.7009 7.60562 12.5275 7.87882C12.4553 8.04562 12.3739 8.20718 12.2924 8.36873C12.2714 8.40157 12.2504 8.43572 12.2294 8.46855C11.9969 9.01101 11.0972 9.27895 10.4155 9.05041C10.187 8.97423 9.97684 8.85996 9.79296 8.69972C9.41863 8.3359 9.22161 7.89852 9.25576 7.37052C9.26364 7.25362 9.24788 7.11308 9.41075 7.07105C9.43045 7.09601 9.45015 7.12096 9.46854 7.14592C9.6209 7.25887 9.51582 7.4178 9.52764 7.55046C9.55522 7.85649 9.75881 8.09816 9.79821 8.395L9.80084 8.39631Z" fill="#262032"/>
<path d="M9.48825 17.1445C9.81399 17.2365 10.1358 17.3494 10.4825 17.3284C10.5771 17.3455 10.5627 17.3967 10.5259 17.4598C10.1673 18.0692 9.74043 18.6156 9.11523 18.9781C9.24789 18.7351 9.53291 18.6445 9.6787 18.4186C9.7956 18.236 10.2146 18.0547 9.7076 17.8328C9.63405 17.8013 9.70234 17.7842 9.72861 17.7618C10.0097 17.5189 9.85076 17.398 9.5999 17.3008C9.5316 17.2746 9.41733 17.2732 9.48957 17.1445H9.48825Z" fill="#B93D58"/>
<path d="M9.41408 7.07212C9.22363 7.69338 9.45348 8.19248 9.86328 8.64168C9.90531 8.7218 9.93814 8.80324 9.88035 8.89124C9.74244 8.9753 9.63605 8.89518 9.55462 8.80586C9.20524 8.4289 8.95569 8.02305 8.99903 7.46221C9.02005 7.1877 9.00166 6.95522 9.29981 6.83964C9.34053 6.82388 9.37993 6.82388 9.41802 6.84226C9.41671 6.91844 9.41539 6.99594 9.41408 7.07212Z" fill="#F5F6F9"/>
<path d="M9.41923 6.84207C9.10532 6.97735 8.98185 7.19933 9.03833 7.5487C9.13159 8.11742 9.36669 8.59026 9.85661 8.916C10.0129 8.89367 10.1311 8.99218 10.2611 9.04866C10.5212 9.16161 10.7944 9.20495 11.0755 9.21546C11.1753 9.2194 11.2856 9.18 11.3592 9.28639C11.3881 9.3074 11.4183 9.32973 11.4472 9.35075C11.3815 9.5123 11.2344 9.4926 11.1044 9.49785C10.2822 9.53463 9.6504 9.18919 9.1815 8.52459C8.99105 8.26453 8.93194 7.95456 8.8597 7.65115C8.91487 7.52375 9.07511 7.40816 8.89911 7.25843C8.88335 7.17962 8.79666 7.11395 8.85708 7.02332C8.89911 6.93926 8.93982 6.85652 8.98185 6.77246C9.05935 6.87753 9.13159 6.83944 9.20645 6.7672C9.28526 6.68971 9.36538 6.61353 9.42317 6.51765L9.41661 6.52553C9.53613 6.35347 9.63201 6.17221 9.66747 5.96338C9.67798 5.89902 9.69505 5.84123 9.77386 5.83203C9.79882 5.83203 9.82377 5.83203 9.84873 5.83334C9.84873 6.09341 9.67404 6.29305 9.60705 6.53078C9.54401 6.63455 9.48096 6.73831 9.41923 6.84207Z" fill="#302A38"/>
<path d="M12.3308 2.57921C11.0883 2.49121 9.95481 2.78805 8.93164 3.49993C9.2797 2.83139 11.3379 2.19963 12.3308 2.57921Z" fill="#366FA8"/>
<path d="M7.98029 12.1513C7.9619 12.1513 7.94482 12.1552 7.92775 12.1605C6.98207 11.5642 6.0377 10.9653 5.22993 10.1811C4.95674 9.91713 4.66515 9.66232 4.53906 9.28273C4.56796 9.27617 4.59817 9.26829 4.62706 9.26172C4.92653 9.78578 5.36916 10.1798 5.83018 10.5502C6.5263 11.1084 7.2395 11.6417 8.04465 12.0383C8.02363 12.0751 8.0013 12.1132 7.98029 12.15V12.1513Z" fill="#3D0D18"/>
<path d="M11.9094 9.65238C11.8082 9.48425 11.8568 9.33583 11.9934 9.22288C12.067 9.16246 12.4978 9.45799 12.5372 9.60115C12.5635 9.69703 12.5543 9.80211 12.5595 9.90193C12.461 10.0727 12.3625 10.2421 12.2614 10.4115C12.2522 10.4273 12.2299 10.4339 12.1983 10.4549C12.1064 10.1817 12.0578 9.89799 11.9094 9.65106V9.65238Z" fill="#CDBBD5"/>
<path d="M12.4878 7.02136C12.3932 6.82697 12.3499 6.605 12.1699 6.4579C12.1752 6.24512 12.3499 6.11771 12.4352 5.90625C12.6375 6.11115 12.7872 6.31867 12.8634 6.57611C12.8989 6.72453 12.9383 6.87951 12.8109 7.00166C12.715 7.0936 12.6047 7.1908 12.4865 7.02136H12.4878Z" fill="#F6F8F9"/>
<path d="M1.80162 15.5873C1.82001 15.5873 1.8384 15.5886 1.85547 15.5899C1.84103 15.8092 2.06694 15.8184 2.16282 15.9419C2.27972 16.0929 2.61333 16.1231 2.415 16.462C2.38873 16.508 2.34801 16.6695 2.33357 16.7694C2.31255 16.9151 2.27709 17.0701 2.28628 17.2238C2.09977 16.9138 1.94873 16.596 1.96712 16.2177C1.97762 15.9957 1.73858 15.8289 1.80162 15.5859V15.5873Z" fill="#BE3350"/>
<path d="M12.9368 12.4517C12.7595 12.4084 12.5756 12.3808 12.4062 12.3165C12.2184 12.2455 12.0227 12.1588 12.0424 11.8975C12.1264 11.8042 12.0831 11.6532 12.1987 11.5586C12.4614 11.7727 12.6952 12.0117 12.9053 12.2744C12.9421 12.3204 13.0314 12.3742 12.9368 12.4504V12.4517Z" fill="#CCBAD2"/>
<path d="M12.4892 7.02338C12.8622 7.0838 12.8294 6.80141 12.8661 6.57812C13.0093 6.88547 13.0579 7.20464 12.9883 7.53825C12.79 7.62625 12.6744 7.80094 12.5443 7.96118C12.4879 7.97432 12.4563 7.96381 12.4813 7.89682C12.5588 7.60655 12.5496 7.31497 12.4892 7.02338Z" fill="#CBBDD4"/>
<path d="M6.54792 8.65126C6.3798 8.85615 6.19854 8.72744 6.06326 8.63287C5.88331 8.50546 5.71913 8.34391 5.59961 8.09961C5.79006 8.12719 5.94767 8.15083 6.10529 8.17448C6.24714 8.12456 6.36929 8.20731 6.49406 8.24409C6.59257 8.27298 6.74625 8.25722 6.75675 8.41221C6.76595 8.54749 6.65431 8.60397 6.54792 8.65257V8.65126Z" fill="#CBBBD4"/>
<path d="M11.7279 6.04451C11.59 6.01692 11.3877 5.9854 11.3812 5.86325C11.3733 5.73585 11.5151 5.59793 11.5926 5.46659C11.615 5.4285 11.6504 5.41142 11.6964 5.4285C11.9289 5.5165 12.1456 5.63208 12.3269 5.80283C12.3899 5.86325 12.319 5.91185 12.2861 5.95913C12.1193 6.11149 11.9197 6.04976 11.7292 6.04451H11.7279Z" fill="#F7F5F6"/>
<path d="M8.48607 7.14648C8.55963 7.18195 8.64106 7.20953 8.70673 7.25681C8.77897 7.30935 8.93921 7.31066 8.87748 7.45777C8.83151 7.56679 8.77635 7.68631 8.61479 7.68631C8.31139 7.68631 8.01849 7.75592 7.6875 7.85837C7.73084 7.71258 7.77419 7.61013 7.85825 7.52344C8.13144 7.50505 8.29694 7.30672 8.48607 7.1478V7.14648Z" fill="#C8BCD1"/>
<path d="M9.80282 8.39711C9.47971 8.03722 9.41273 7.60904 9.47315 7.14802C9.71482 6.32186 10.2914 5.90682 11.1044 5.9738C10.9967 6.06706 10.8378 5.9738 10.7341 6.07756C10.6763 6.19315 10.5541 6.20891 10.4517 6.25488C9.74897 6.57667 9.47446 7.27542 9.76736 7.98863C9.81333 8.09895 9.91447 8.19746 9.86061 8.33537C9.84223 8.35508 9.82252 8.37609 9.80414 8.39579L9.80282 8.39711Z" fill="#E6E8EF"/>
<path d="M6.54874 8.65264C6.61047 8.57252 6.6722 8.49371 6.75232 8.38995C6.52641 8.31508 6.31626 8.24547 6.10742 8.17586C6.10742 8.14827 6.10742 8.11938 6.10742 8.0918C6.37799 8.12201 6.62886 8.21395 6.87447 8.32296C6.71292 8.51998 7.09513 8.33872 6.994 8.49502C7.03077 8.52392 7.05048 8.56332 7.06098 8.60667C6.99794 8.87067 7.26063 8.93109 7.36439 9.09133C7.38672 9.11366 7.41036 9.13599 7.43269 9.15831C7.03865 9.29097 6.81931 9.10578 6.78122 8.59091C6.71817 8.63688 6.66432 8.67628 6.60916 8.71568C6.58946 8.69467 6.56844 8.67365 6.54874 8.65264Z" fill="#403B4A"/>
<path d="M11.7105 10.2706C11.6265 10.3034 11.5398 10.331 11.482 10.4071C11.4005 10.3323 11.3322 10.3966 11.2324 10.4466C11.3585 10.1589 11.5398 9.96715 11.8025 9.85156C12.0218 9.90016 11.9483 10.1143 12.0691 10.2719H11.7105V10.2706Z" fill="#EFEFF1"/>
<path d="M8.8594 7.65234C9.02883 7.65366 8.95134 7.79945 8.9868 7.87694C9.0748 8.06871 9.15361 8.26441 9.23636 8.45748C9.24686 8.55337 9.25474 8.64662 9.11552 8.64662C8.93295 8.42859 8.76483 8.2053 8.78716 7.89796C8.81211 7.81652 8.83575 7.73509 8.86071 7.65234H8.8594Z" fill="#F3F4F8"/>
<path d="M8.48525 7.14776C8.40119 7.46955 8.1385 7.62717 7.85742 7.52341C7.98614 7.26334 8.1188 7.01116 8.48525 7.14776Z" fill="#F2EFF4"/>
<path d="M7.36383 9.08921C7.03284 9.08001 6.95797 8.8738 6.98293 8.5901C7.13135 8.41147 7.29684 8.36944 7.48729 8.52837C7.71189 8.77267 7.57529 8.93816 7.36514 9.08789L7.36383 9.08921Z" fill="#302F38"/>
<path d="M8.47119 8.12348C8.4528 8.15237 8.43442 8.18258 8.41603 8.21148C8.34379 8.25745 8.31095 8.4584 8.17698 8.27452C8.10606 8.15237 8.03382 8.03022 7.96289 7.90807C8.43048 7.7255 8.46857 7.74126 8.46988 8.12348H8.47119Z" fill="#EBEAEC"/>
<path d="M14.352 10.6992C14.3743 10.7229 14.3954 10.7478 14.4177 10.7715C14.1813 11.1865 13.9448 11.6029 13.7097 12.0179C13.6808 12.0022 13.6519 11.9851 13.623 11.9693C13.8476 11.5359 14.0722 11.1038 14.3533 10.6992H14.352Z" fill="#3F6498"/>
<path d="M12.3627 8.92159C12.3009 8.90451 12.2812 8.85723 12.2917 8.80206C12.3863 8.3371 12.6175 7.95227 12.9852 7.65411C13.0049 7.63704 13.0601 7.66331 13.0995 7.66987C13.0798 7.72767 13.0759 7.81829 13.0378 7.83668C12.6201 8.03501 12.4244 8.35286 12.4704 8.81782C12.473 8.84935 12.4008 8.88744 12.364 8.92159H12.3627Z" fill="#BBB4C7"/>
<path d="M12.6089 13.7767C12.5747 13.5849 12.3672 13.6112 12.2148 13.4404C12.4933 13.4917 12.6601 13.2461 12.9136 13.3367C12.8584 13.5166 12.7455 13.6545 12.6089 13.778V13.7767Z" fill="#C3C6CD"/>
<path d="M2.52344 17.6602C2.88201 18.0187 3.21431 18.4009 3.5361 18.7923C3.10792 18.4968 2.77431 18.1146 2.52344 17.6602Z" fill="#BE3350"/>
<path d="M12.7248 9.63021C12.5711 9.4726 12.4424 9.29529 12.2362 9.18496C12.005 9.06149 12.2322 9.06412 12.2979 9.02734C12.5343 9.16132 12.7668 9.29791 12.7248 9.63021Z" fill="#CBCAD6"/>
<path d="M9.07031 6.69617C9.14649 6.35993 9.24763 6.12219 9.53396 5.91992C9.46566 6.25091 9.33037 6.46894 9.07031 6.69617Z" fill="#CAC8D7"/>
<path d="M11.7305 6.04323C11.896 5.88561 12.1048 6.00119 12.2874 5.95785C12.1613 6.21266 11.9756 6.24112 11.7305 6.04323Z" fill="#C5BCCC"/>
<path d="M12.5684 8.6567C12.5959 8.36774 12.7233 8.13789 12.9782 7.92773C12.9519 8.26923 12.7627 8.46493 12.5684 8.6567Z" fill="#BBB8C9"/>
<path d="M8.85709 7.02378C8.92276 7.09339 8.9267 7.17351 8.89912 7.25889C8.6824 7.11966 8.47094 6.96862 8.14258 7.03954C8.42366 6.75452 8.63906 6.92659 8.85709 7.02378Z" fill="#CAC9D6"/>
<path d="M9.77327 5.83177C9.66688 6.0695 9.63405 6.34532 9.41602 6.52526C9.43703 6.29016 9.71154 6.11022 9.56181 5.83177C9.53291 5.77791 9.61566 5.72538 9.67608 5.71356C9.7667 5.69648 9.77065 5.76609 9.77196 5.83045L9.77327 5.83177Z" fill="#BAB8C5"/>
<path d="M5.48509 8.21162C5.35637 8.33377 5.22897 8.29436 5.10156 8.20768C5.20926 8.10391 5.20007 7.92529 5.34061 7.83203C5.38921 7.96075 5.43649 8.08553 5.48378 8.2103L5.48509 8.21162Z" fill="#C3C4CC"/>
<path d="M9.42579 6.51953C9.35617 6.73756 9.20119 6.8781 9.01468 6.99237C8.95032 6.9175 8.98184 6.84527 8.98578 6.77434C9.20644 6.81768 9.27605 6.59702 9.4271 6.51953H9.42579Z" fill="#CAC7D5"/>
<path d="M8.17723 8.27508C8.28362 8.35652 8.32696 8.19628 8.41628 8.21204C8.40971 8.39329 8.3112 8.53514 8.20744 8.67174C8.2035 8.67568 8.18774 8.67568 8.18117 8.67174C8.17329 8.6678 8.16672 8.65729 8.16016 8.64941C8.16541 8.52464 8.17198 8.39855 8.17723 8.27377V8.27508Z" fill="#BEB9C8"/>
<path d="M7.48678 8.53003C7.30553 8.44203 7.13872 8.47356 6.98242 8.59177C6.98636 8.55893 6.98899 8.52609 6.99293 8.49326C7.16499 8.40132 7.33968 8.28311 7.48547 8.53003H7.48678Z" fill="#D4D4D9"/>
<path d="M4.7832 17.9027C5.17461 17.1711 5.58572 16.4513 6.03886 15.7539C5.93903 15.9877 5.93115 16.1834 6.23587 16.2661C6.26608 16.274 6.2779 16.3515 6.2976 16.3962C6.24375 16.4408 6.18728 16.4211 6.13211 16.4067C6.19384 16.4737 6.28841 16.5105 6.35146 16.584C6.32387 16.6562 6.30023 16.7324 6.23062 16.7784C6.12554 16.7653 6.04017 16.718 5.97056 16.6405C6.02441 16.7219 6.14787 16.7403 6.16757 16.8533C6.14262 16.894 6.11898 16.9334 6.09402 16.9741C5.97187 17.049 5.88518 16.9426 5.84578 16.9255C5.88518 16.936 5.9653 17.07 6.09139 16.9728C6.11328 17.0385 6.05943 17.1392 5.92984 17.2749C5.83659 17.2867 5.76303 17.2302 5.67503 17.2C5.74202 17.2644 5.83396 17.2946 5.85235 17.3931C5.85497 17.4653 5.86811 17.5415 5.78667 17.5862C5.68291 17.5468 5.58966 17.485 5.45306 17.4154C5.58834 17.4903 5.6816 17.5533 5.7893 17.5848C5.79587 17.7136 5.70787 17.7779 5.61593 17.841C5.53581 17.8147 5.46751 17.7661 5.39395 17.7293C5.45963 17.7753 5.53581 17.8121 5.54237 17.9066C5.46094 17.9946 5.37688 17.9303 5.3296 17.8817C5.13389 17.6834 4.9592 17.7359 4.78452 17.9027H4.7832Z" fill="#C24864"/>
<path d="M8.03692 12.2767C8.32457 12.3056 8.52684 12.4987 8.75538 12.6432C8.59382 12.6432 8.47167 12.546 8.33901 12.4737C8.09997 12.3437 7.99883 12.4107 7.98044 12.7141C8.00671 12.94 8.28385 12.9164 8.35872 13.0937C8.31669 13.1331 8.27597 13.1725 8.23394 13.2119C8.13674 13.271 8.05925 13.2066 7.97256 13.1659C8.05531 13.229 8.15513 13.2578 8.22212 13.334C8.18009 13.3813 8.13806 13.4273 8.09603 13.4746C8.01459 13.5232 7.94235 13.4877 7.85829 13.4457C7.93973 13.5008 7.99752 13.5599 8.03692 13.6361C8.05006 13.7307 8.00934 13.795 7.92791 13.8384C7.83596 13.8042 7.76767 13.7267 7.63632 13.6873C7.76635 13.7412 7.84253 13.8056 7.9082 13.8844C7.92134 13.9802 7.88325 14.0472 7.79393 14.084C7.70331 14.0341 7.60742 13.9947 7.46557 13.9198C7.60611 13.9973 7.70199 14.0354 7.79262 14.0866C7.79393 14.1825 7.74665 14.2429 7.65865 14.2771C7.48265 14.3664 7.35656 14.0971 7.17662 14.2101C7.09387 14.2127 7.01112 14.2153 6.92969 14.218C7.29877 13.5704 7.66916 12.9229 8.03823 12.2754L8.03692 12.2767Z" fill="#C14965"/>
<path d="M7.98396 15.0234C7.82897 15.3754 7.63195 15.7025 7.4218 16.023C7.37583 15.7957 7.51112 15.5817 7.45989 15.3465C7.4415 15.2599 7.56103 15.1824 7.66742 15.1495C7.77512 15.1154 7.87757 15.0655 7.98264 15.0234H7.98396Z" fill="#C83A58"/>
<path d="M8.10547 16.5352C8.58225 16.7046 9.03145 16.9331 9.48853 17.1472C8.97497 17.0618 8.52314 16.8372 8.10547 16.5352Z" fill="#B93D58"/>
<path d="M5.85244 17.3907C5.75131 17.3395 5.64755 17.2935 5.55167 17.2344C5.49519 17.1989 5.40587 17.153 5.44528 17.0702C5.48731 16.9822 5.56611 17.0282 5.63047 17.0637C5.73818 17.1228 5.85901 17.1622 5.92994 17.2738C5.90367 17.3132 5.87871 17.3526 5.85244 17.392V17.3907Z" fill="#5D0817"/>
<path d="M8.35981 13.0944C8.193 13.0944 8.07873 12.9762 7.95001 12.8987C7.83443 12.8291 7.90404 12.7661 7.98022 12.7148C8.1247 12.8239 8.38739 12.8134 8.3585 13.0944H8.35981Z" fill="#530715"/>
<path d="M7.90994 13.8855C7.74182 13.8816 7.63149 13.7581 7.49752 13.6832C7.46206 13.6635 7.43316 13.6268 7.46468 13.5808C7.48964 13.544 7.53167 13.5151 7.56976 13.5414C7.69979 13.6268 7.90337 13.6281 7.93096 13.8382C7.92176 13.8527 7.91388 13.8671 7.90994 13.8842V13.8855Z" fill="#58071A"/>
<path d="M7.17712 14.2102C7.10882 14.0736 7.13903 14.0066 7.2927 14.0723C7.42142 14.1262 7.537 14.2076 7.65915 14.2772C7.45819 14.5504 7.33998 14.2207 7.17712 14.2102Z" fill="#500613"/>
<path d="M6.17016 16.8508C6.15965 16.8482 6.14914 16.8469 6.13995 16.8416C6.00072 16.7602 5.8326 16.7195 5.74329 16.5684C5.73541 16.5553 5.77218 16.4935 5.77875 16.4962C5.96132 16.5369 6.12681 16.6104 6.2332 16.7746C6.21219 16.7996 6.19117 16.8245 6.17016 16.8495V16.8508Z" fill="#4F0414"/>
<path d="M6.35297 16.5822C6.32144 16.5822 6.28467 16.5914 6.26103 16.577C6.12574 16.4969 5.85649 16.4272 5.9169 16.2985C5.98914 16.1462 6.15858 16.3721 6.2978 16.3944C6.36347 16.443 6.37267 16.5074 6.35297 16.5809V16.5822Z" fill="#580416"/>
<path d="M8.22412 13.3345C8.02054 13.3516 7.86949 13.2399 7.76179 13.0968C7.69612 13.0101 7.82221 12.9773 7.99952 13.0771C8.07964 13.1217 8.15714 13.1677 8.23594 13.2137C8.232 13.2544 8.22806 13.2951 8.22412 13.3358V13.3345Z" fill="#590717"/>
<path d="M5.543 17.9061C5.42741 17.8378 5.31183 17.7708 5.19625 17.7012C5.14896 17.6723 5.11087 17.6316 5.1424 17.5764C5.17261 17.5252 5.23302 17.5173 5.27637 17.5541C5.38932 17.6499 5.57977 17.6552 5.61786 17.8404C5.59291 17.8627 5.56795 17.8837 5.54431 17.9061H5.543Z" fill="#540312"/>
<path d="M8.03823 13.635C7.88456 13.5509 7.57721 13.4445 7.64682 13.3408C7.7716 13.1556 7.92659 13.4603 8.09734 13.4748C8.07763 13.5286 8.05793 13.5825 8.03823 13.635Z" fill="#4F0614"/>
<path d="M7.81362 11.531C7.80968 11.64 7.75846 11.6465 7.67702 11.5979C7.61529 11.5612 7.58902 11.5231 7.63368 11.4508C7.77028 11.2276 7.90162 11.0016 8.03428 10.7757C8.075 10.7061 8.18007 10.7074 8.17482 10.7416C8.14855 10.9333 8.54258 11.0476 8.26545 11.2801C8.19321 11.3405 8.15906 11.4443 8.10652 11.5283C8.00845 11.4416 7.99225 11.3304 8.05792 11.1947C7.9975 11.2446 7.97649 11.3129 7.95416 11.376C7.92789 11.4482 7.86879 11.4876 7.81231 11.531H7.81362Z" fill="#64666E"/>
<path d="M7.81696 10.8088C7.80382 10.9376 7.74734 11.0348 7.61075 11.0334C7.42949 11.0308 7.28764 10.9494 7.27582 10.7484C7.26794 10.6131 7.37038 10.5317 7.49122 10.5396C7.65146 10.5488 7.78543 10.6276 7.81696 10.8088Z" fill="#26272F"/>
<path d="M7.81445 11.5292C7.91427 11.3677 8.0141 11.2048 8.13493 11.0078C8.19667 11.214 7.86305 11.3572 8.10735 11.5266C8.01016 11.6356 7.91165 11.5687 7.81445 11.5292Z" fill="#ADAEB8"/>
<path d="M7.49176 11.3255C7.36698 11.248 7.23695 11.1679 7.10954 11.0825C7.09772 11.0746 7.1056 11.0286 7.11348 11.0037C7.12793 10.9603 7.16339 10.98 7.18966 10.9879C7.31707 11.0247 7.40376 11.1889 7.57582 11.1048C7.61522 11.0851 7.62835 11.156 7.61522 11.1915C7.59552 11.2467 7.57056 11.3031 7.49307 11.3255H7.49176Z" fill="#28242C"/>
<path d="M9.78067 12.7012C9.53769 12.6973 9.33148 12.4779 9.33804 12.2297C9.34461 11.9814 9.56396 11.7765 9.81088 11.7897C10.046 11.8015 10.2378 12.0077 10.2364 12.2428C10.2351 12.4976 10.0289 12.7051 9.78067 12.7012Z" fill="#3E141C"/>
<path d="M8.03187 15.9659C8.00823 16.0355 7.96751 16.0946 7.88214 16.0894C7.78495 16.0828 7.7311 16.0263 7.74686 15.9265C7.75999 15.8412 7.82304 15.8057 7.90316 15.8136C7.98722 15.8228 8.02268 15.8819 8.03187 15.9659Z" fill="#2C212E"/>
<path d="M8.3508 15.4067C8.32979 15.4816 8.29039 15.5381 8.20501 15.5368C8.12226 15.5341 8.06579 15.4842 8.06447 15.4054C8.06316 15.3095 8.12752 15.2557 8.22209 15.2623C8.30615 15.2675 8.34161 15.3292 8.3508 15.408V15.4067Z" fill="#201F27"/>
<path d="M5.30652 13.8736C5.23034 13.8552 5.17124 13.8132 5.16992 13.7305C5.16992 13.6503 5.22115 13.5912 5.30127 13.5899C5.39583 13.5873 5.45757 13.6477 5.45231 13.7436C5.44837 13.8237 5.38664 13.8657 5.30521 13.8736H5.30652Z" fill="#282834"/>
<path d="M5.13744 14.2739C5.12168 14.3711 5.07308 14.4236 4.99033 14.4184C4.91153 14.4131 4.85111 14.3685 4.8603 14.2778C4.86818 14.1964 4.91678 14.1465 5.00347 14.1465C5.09541 14.1465 5.11905 14.2148 5.13875 14.2726L5.13744 14.2739Z" fill="#1A1C22"/>
<path d="M10.4999 10.7405C10.4644 10.9335 10.295 11.1489 10.1479 11.3709C10.1032 11.4392 10.0349 11.3643 9.98504 11.3394C9.30861 10.9953 8.65846 10.6039 8.01881 10.1967C7.9689 10.1652 7.90717 10.1415 7.91242 10.0588C7.94001 9.56098 8.49559 9.2497 8.91983 9.49662C9.35064 9.74749 9.78014 9.99967 10.2123 10.2479C10.3751 10.3412 10.5012 10.4528 10.4986 10.7405H10.4999Z" fill="#F8F9FA"/>
<path d="M9.23011 11.832C9.19465 11.8819 9.15524 11.9305 9.12372 11.983C8.76646 12.5793 8.69291 12.5885 8.14258 12.0907C8.35273 11.7335 8.56682 11.3802 8.7704 11.019C8.84264 10.8903 8.90963 10.8535 9.03047 10.9546C9.18283 11.0833 9.49017 11.0912 9.50199 11.2895C9.5125 11.4642 9.32862 11.6507 9.23011 11.832Z" fill="#F6F5F8"/>
<path d="M10.609 10.4107C9.92728 9.95623 9.25217 9.48995 8.47461 9.21676C8.61515 9.09067 8.7859 9.1327 8.95664 9.23383C9.41372 9.50177 9.86949 9.7684 10.3239 10.0403C10.4724 10.1296 10.6352 10.2163 10.609 10.412V10.4107Z" fill="#C5C0D3"/>
<path d="M7.11133 9.54688C7.30834 9.56395 7.49748 9.57183 7.63539 9.78855C7.36614 9.85553 7.2453 9.67034 7.11133 9.54688Z" fill="#ACA9B8"/>
<path d="M11.0361 11.8493C10.8352 11.7468 10.6342 11.7205 10.5488 11.5104C10.7839 11.4907 10.8325 11.5235 11.0361 11.8493Z" fill="#BAB3C7"/>
<path d="M12.0615 11.0651C12.0418 11.2056 12.0195 11.3225 11.8934 11.2766C11.7174 11.2122 11.46 11.316 11.3798 11.0599C11.3615 10.9994 11.3917 10.851 11.5348 10.8917C11.7161 10.943 11.9433 10.8917 12.0602 11.0664L12.0615 11.0651Z" fill="#2A2A33"/>
<path d="M11.7426 11.6728C11.631 11.5717 11.3197 11.7648 11.3013 11.4364C11.2934 11.3051 11.3762 11.246 11.5036 11.313C11.6572 11.3931 11.9239 11.2591 11.962 11.5376C11.9738 11.6203 11.9318 11.7608 11.7426 11.6741V11.6728Z" fill="#2B2736"/>
<path d="M11.36 9.28571C10.8149 9.34088 10.3001 9.2752 9.85742 8.91532C9.86005 8.82338 9.86268 8.73275 9.86399 8.64081C10.7033 9.23318 11.3508 9.19114 12.1468 8.49502C12.1678 8.47663 12.2032 8.47663 12.2321 8.46875C12.1651 9.03484 12.0968 9.0992 11.36 9.28703V9.28571Z" fill="#CCBED6"/>
<path d="M9.11459 8.64812C9.15531 8.58508 9.19603 8.52203 9.23543 8.45898C9.72535 9.12227 10.3689 9.46902 11.2082 9.4086C11.2897 9.40335 11.375 9.40861 11.446 9.35344C11.555 9.33505 11.664 9.31535 11.798 9.29302C11.6403 9.55702 11.4446 9.67392 11.1504 9.66341C10.3138 9.6332 9.62421 9.32454 9.11328 8.64943L9.11459 8.64812Z" fill="#CABED3"/>
<path d="M12.4808 7.89844C12.5018 7.91945 12.5228 7.94178 12.5438 7.9628C12.4768 8.10859 12.4086 8.25438 12.293 8.37259C12.2995 8.19265 12.4151 8.05605 12.4795 7.89844H12.4808Z" fill="#968EA2"/>
<path d="M9.85832 8.33725C9.13461 7.32459 9.80578 6.20159 10.7318 6.07813C11.6078 6.07681 12.1687 6.47216 12.2948 7.18274C12.4038 7.79874 12.1437 8.36352 11.6118 8.65773C11.0824 8.95063 10.4638 8.87576 9.99754 8.46203C9.95157 8.42131 9.9056 8.37928 9.85832 8.33725Z" fill="#0D1226"/>
<path d="M7.43739 8.76049C7.43739 8.87345 7.36383 8.93912 7.26926 8.94306C7.15237 8.94831 7.07487 8.86294 7.07619 8.74867C7.07619 8.63177 7.15499 8.56479 7.27846 8.5753C7.38879 8.58449 7.44001 8.65148 7.4387 8.76049H7.43739Z" fill="#E9E8EE"/>
<path d="M5.78975 17.5831C5.56647 17.7 5.4627 17.4833 5.31034 17.4071C5.267 17.3847 5.27094 17.3309 5.31034 17.3046C5.33924 17.2862 5.39835 17.2718 5.41936 17.2889C5.54414 17.3847 5.74115 17.3926 5.78975 17.5844H5.79106L5.78975 17.5831Z" fill="#540B18"/>
<path d="M6.09273 16.97C5.98372 17.0777 5.62252 17.0015 5.5818 16.861C5.57523 16.8373 5.58837 16.8005 5.60544 16.7795C5.63565 16.7414 5.679 16.7519 5.71577 16.7716C5.84186 16.8373 5.96795 16.9043 6.09404 16.9713H6.09142L6.09273 16.97Z" fill="#4E0715"/>
<path d="M7.79099 14.0867C7.58872 14.1799 7.47707 14.0026 7.33259 13.9291C7.29319 13.9094 7.29056 13.8594 7.31289 13.8227C7.33785 13.782 7.38251 13.778 7.41797 13.8017C7.548 13.8883 7.73713 13.8975 7.7923 14.084L7.79099 14.0867Z" fill="#5A0717"/>
<path d="M7.68423 10.8163C7.6816 10.8636 7.66978 10.9017 7.61593 10.9004C7.51479 10.8991 7.4373 10.8518 7.40315 10.7572C7.39002 10.7204 7.42548 10.6771 7.47276 10.6758C7.5739 10.6758 7.64351 10.727 7.68423 10.815V10.8163Z" fill="#DBE1E5"/>
<path d="M9.7919 11.9219C9.97578 11.9521 10.0992 12.0453 10.1019 12.245C10.1045 12.4446 9.98366 12.5641 9.79715 12.5615C9.61458 12.5589 9.48587 12.4433 9.48061 12.2463C9.47536 12.0427 9.61458 11.9613 9.7919 11.9219Z" fill="#D9435F"/>
<path d="M8.49424 9.66406C8.53365 9.68639 8.5783 9.71266 8.62296 9.73762C8.91849 9.90836 9.21401 10.0831 9.51216 10.2499C9.61986 10.3103 9.69867 10.3549 9.61198 10.506C9.53318 10.6452 9.46094 10.64 9.34404 10.569C9.04326 10.3865 8.73723 10.2105 8.43514 10.0305C8.36947 9.99111 8.26308 9.96615 8.334 9.85057C8.37603 9.78359 8.39179 9.69296 8.49424 9.66406Z" fill="#282039"/>
<path d="M10.0448 10.6621C10.1157 10.6621 10.1525 10.7055 10.1617 10.7711C10.1696 10.8315 10.121 10.8696 10.0737 10.8749C10.0067 10.8815 9.95809 10.8394 9.95152 10.7685C9.94627 10.7055 10.0014 10.6897 10.0448 10.6634V10.6621Z" fill="#555756"/>
<path d="M8.94319 11.7073C8.8276 11.6823 8.75011 11.6075 8.75405 11.4971C8.75799 11.3855 8.83154 11.3106 8.96157 11.3238C9.0719 11.3343 9.13101 11.3999 9.13232 11.505C9.13232 11.6259 9.05877 11.6902 8.94319 11.7073Z" fill="#3D2B2D"/>
<path d="M8.61596 11.832C8.76175 11.8386 8.83268 11.9108 8.83399 12.029C8.83399 12.1328 8.76438 12.2064 8.65799 12.2103C8.53453 12.2142 8.46229 12.1433 8.46491 12.0185C8.46754 11.9122 8.5319 11.8504 8.61727 11.8333L8.61596 11.832Z" fill="#341E2A"/>
<path d="M11.9098 11.1192C11.7574 11.1586 11.6195 11.127 11.4238 11.0338C11.6484 10.9799 11.7811 11.043 11.9098 11.1192Z" fill="#C1BFCB"/>
<path d="M11.9072 11.5404C11.6813 11.6021 11.5474 11.5312 11.416 11.4471C11.5697 11.4116 11.7089 11.4471 11.9072 11.5404Z" fill="#BCB1C6"/>
<path d="M9.74478 7.0285C9.82096 6.88665 9.92078 6.79996 10.0955 6.76318C10.5 6.67912 10.9019 6.57273 11.2973 6.44927C11.5271 6.37703 11.6992 6.42169 11.8515 6.59112C11.8673 6.78157 11.7097 6.81178 11.5889 6.84068C11.0569 6.96677 10.5342 7.12963 9.99958 7.24522C9.82621 7.28199 9.64627 7.31351 9.74478 7.02718V7.0285Z" fill="#1C7ACE"/>
<path d="M9.74787 7.02786C9.75181 7.10535 9.7216 7.22619 9.85951 7.18679C10.5149 7.0029 11.1887 6.88864 11.8271 6.64433C11.8415 6.63908 11.8468 6.61019 11.8559 6.5918C11.9453 6.64696 11.9229 6.75992 11.9834 6.82953C11.7522 7.0318 11.4501 7.02786 11.1756 7.09879C10.6791 7.2275 10.1944 7.40613 9.6822 7.47049C9.74918 7.32995 9.59551 7.15526 9.74787 7.02786Z" fill="#032050"/>
<path d="M9.68164 7.47299C10.3397 7.21424 11.0371 7.09735 11.7122 6.90033C11.8015 6.87406 11.8935 6.85436 11.9828 6.83203C12.101 6.95287 11.9762 6.95944 11.9092 6.97782C11.196 7.17747 10.4815 7.37448 9.76701 7.56887C9.69346 7.58858 9.69083 7.52159 9.68164 7.47168V7.47299Z" fill="#386DAA"/>
<path d="M9.17561 10.1608C9.26099 10.2134 9.38708 10.2843 9.50529 10.3671C9.54206 10.392 9.52236 10.4564 9.48165 10.4682C9.34111 10.5089 9.2623 10.3802 9.15328 10.3316C9.10337 10.3093 9.02588 10.2896 9.03376 10.2094C9.03901 10.1622 9.07973 10.1464 9.17561 10.1622V10.1608Z" fill="#A74F66"/>
<path d="M8.94502 10.0411C8.9332 10.1067 8.90168 10.1488 8.86227 10.1369C8.70335 10.0897 8.5523 10.0227 8.45511 9.88082C8.4354 9.85193 8.49451 9.79151 8.52603 9.80727C8.67182 9.87951 8.80973 9.96488 8.94502 10.0411Z" fill="#3C709F"/>
<rect x="9.89648" width="9.37407" height="19.5172" rx="4.68704" transform="rotate(30.4842 9.89648 0)" stroke="black" stroke-width="0.37764"/>
<mask id="path-110-outside-1_929_93" maskUnits="userSpaceOnUse" x="17" y="4" width="33" height="15" fill="black">
<rect fill="white" x="17" y="4" width="33" height="15"/>
<path d="M20.5156 8.77335V11.2889H18V5H24.2889V5.62889H24.9178V8.14445H24.2889V8.77335H20.5156ZM20.5156 6.25778V7.51556H22.4022V6.25778H20.5156Z"/>
<path d="M31.8307 10.66V11.2889H26.1707V10.66H25.5418V5H28.0573V10.0311H29.944V5H32.4596V10.66H31.8307Z"/>
<path d="M35.5991 8.14445V11.2889H33.0836V5H35.5991V5.62889H36.228V6.25778H36.8569V6.88667H37.4858V6.25778H38.1147V5.62889H38.7436V5H41.2591V11.2889H38.7436V8.14445H38.1147V8.77335H37.4858V9.40224H36.8569V8.77335H36.228V8.14445H35.5991Z"/>
<path d="M44.406 8.77335V11.2889H41.8905V5H48.1794V5.62889H48.8083V8.14445H48.1794V8.77335H44.406ZM44.406 6.25778V7.51556H46.2927V6.25778H44.406Z"/>
<path d="M19.9634 15.2903V17.7445H18V12.8361H19.9634V13.3269H20.4542V13.8178H20.945V14.3086H21.4359V13.8178H21.9267V13.3269H22.4175V12.8361H24.3809V17.7445H22.4175V15.2903H21.9267V15.7811H21.4359V16.272H20.945V15.7811H20.4542V15.2903H19.9634Z"/>
<path d="M25.3645 17.7445V17.2537H24.8737V13.3269H25.3645V12.8361H30.2729V13.8178H26.837V14.7995H28.3095V15.7811H26.837V16.7628H30.2729V17.7445H25.3645Z"/>
<path d="M32.7232 15.2903V17.7445H30.7599V12.8361H32.7232V13.3269H33.2141V13.8178H33.7049V14.3086H34.1957V13.8178H34.6866V13.3269H35.1774V12.8361H37.1408V17.7445H35.1774V15.2903H34.6866V15.7811H34.1957V16.272H33.7049V15.7811H33.2141V15.2903H32.7232Z"/>
<path d="M38.1244 17.7445V17.2537H37.6335V13.3269H38.1244V12.8361H43.0327V13.8178H39.5969V14.7995H41.0694V15.7811H39.5969V16.7628H43.0327V17.7445H38.1244Z"/>
<path d="M43.5197 17.7445V16.7628H46.9556V15.7811H44.0106V15.2903H43.5197V13.3269H44.0106V12.8361H48.919V13.8178H45.4831V14.7995H48.4281V15.2903H48.919V17.2537H48.4281V17.7445H43.5197Z"/>
</mask>
<path d="M20.5156 8.77335V11.2889H18V5H24.2889V5.62889H24.9178V8.14445H24.2889V8.77335H20.5156ZM20.5156 6.25778V7.51556H22.4022V6.25778H20.5156Z" fill="white"/>
<path d="M31.8307 10.66V11.2889H26.1707V10.66H25.5418V5H28.0573V10.0311H29.944V5H32.4596V10.66H31.8307Z" fill="white"/>
<path d="M35.5991 8.14445V11.2889H33.0836V5H35.5991V5.62889H36.228V6.25778H36.8569V6.88667H37.4858V6.25778H38.1147V5.62889H38.7436V5H41.2591V11.2889H38.7436V8.14445H38.1147V8.77335H37.4858V9.40224H36.8569V8.77335H36.228V8.14445H35.5991Z" fill="white"/>
<path d="M44.406 8.77335V11.2889H41.8905V5H48.1794V5.62889H48.8083V8.14445H48.1794V8.77335H44.406ZM44.406 6.25778V7.51556H46.2927V6.25778H44.406Z" fill="white"/>
<path d="M19.9634 15.2903V17.7445H18V12.8361H19.9634V13.3269H20.4542V13.8178H20.945V14.3086H21.4359V13.8178H21.9267V13.3269H22.4175V12.8361H24.3809V17.7445H22.4175V15.2903H21.9267V15.7811H21.4359V16.272H20.945V15.7811H20.4542V15.2903H19.9634Z" fill="white"/>
<path d="M25.3645 17.7445V17.2537H24.8737V13.3269H25.3645V12.8361H30.2729V13.8178H26.837V14.7995H28.3095V15.7811H26.837V16.7628H30.2729V17.7445H25.3645Z" fill="white"/>
<path d="M32.7232 15.2903V17.7445H30.7599V12.8361H32.7232V13.3269H33.2141V13.8178H33.7049V14.3086H34.1957V13.8178H34.6866V13.3269H35.1774V12.8361H37.1408V17.7445H35.1774V15.2903H34.6866V15.7811H34.1957V16.272H33.7049V15.7811H33.2141V15.2903H32.7232Z" fill="white"/>
<path d="M38.1244 17.7445V17.2537H37.6335V13.3269H38.1244V12.8361H43.0327V13.8178H39.5969V14.7995H41.0694V15.7811H39.5969V16.7628H43.0327V17.7445H38.1244Z" fill="white"/>
<path d="M43.5197 17.7445V16.7628H46.9556V15.7811H44.0106V15.2903H43.5197V13.3269H44.0106V12.8361H48.919V13.8178H45.4831V14.7995H48.4281V15.2903H48.919V17.2537H48.4281V17.7445H43.5197Z" fill="white"/>
<path d="M20.5156 8.77335V11.2889H18V5H24.2889V5.62889H24.9178V8.14445H24.2889V8.77335H20.5156ZM20.5156 6.25778V7.51556H22.4022V6.25778H20.5156Z" stroke="black" stroke-width="1.03334" mask="url(#path-110-outside-1_929_93)"/>
<path d="M31.8307 10.66V11.2889H26.1707V10.66H25.5418V5H28.0573V10.0311H29.944V5H32.4596V10.66H31.8307Z" stroke="black" stroke-width="1.03334" mask="url(#path-110-outside-1_929_93)"/>
<path d="M35.5991 8.14445V11.2889H33.0836V5H35.5991V5.62889H36.228V6.25778H36.8569V6.88667H37.4858V6.25778H38.1147V5.62889H38.7436V5H41.2591V11.2889H38.7436V8.14445H38.1147V8.77335H37.4858V9.40224H36.8569V8.77335H36.228V8.14445H35.5991Z" stroke="black" stroke-width="1.03334" mask="url(#path-110-outside-1_929_93)"/>
<path d="M44.406 8.77335V11.2889H41.8905V5H48.1794V5.62889H48.8083V8.14445H48.1794V8.77335H44.406ZM44.406 6.25778V7.51556H46.2927V6.25778H44.406Z" stroke="black" stroke-width="1.03334" mask="url(#path-110-outside-1_929_93)"/>
<path d="M19.9634 15.2903V17.7445H18V12.8361H19.9634V13.3269H20.4542V13.8178H20.945V14.3086H21.4359V13.8178H21.9267V13.3269H22.4175V12.8361H24.3809V17.7445H22.4175V15.2903H21.9267V15.7811H21.4359V16.272H20.945V15.7811H20.4542V15.2903H19.9634Z" stroke="black" stroke-width="1.03334" mask="url(#path-110-outside-1_929_93)"/>
<path d="M25.3645 17.7445V17.2537H24.8737V13.3269H25.3645V12.8361H30.2729V13.8178H26.837V14.7995H28.3095V15.7811H26.837V16.7628H30.2729V17.7445H25.3645Z" stroke="black" stroke-width="1.03334" mask="url(#path-110-outside-1_929_93)"/>
<path d="M32.7232 15.2903V17.7445H30.7599V12.8361H32.7232V13.3269H33.2141V13.8178H33.7049V14.3086H34.1957V13.8178H34.6866V13.3269H35.1774V12.8361H37.1408V17.7445H35.1774V15.2903H34.6866V15.7811H34.1957V16.272H33.7049V15.7811H33.2141V15.2903H32.7232Z" stroke="black" stroke-width="1.03334" mask="url(#path-110-outside-1_929_93)"/>
<path d="M38.1244 17.7445V17.2537H37.6335V13.3269H38.1244V12.8361H43.0327V13.8178H39.5969V14.7995H41.0694V15.7811H39.5969V16.7628H43.0327V17.7445H38.1244Z" stroke="black" stroke-width="1.03334" mask="url(#path-110-outside-1_929_93)"/>
<path d="M43.5197 17.7445V16.7628H46.9556V15.7811H44.0106V15.2903H43.5197V13.3269H44.0106V12.8361H48.919V13.8178H45.4831V14.7995H48.4281V15.2903H48.919V17.2537H48.4281V17.7445H43.5197Z" stroke="black" stroke-width="1.03334" mask="url(#path-110-outside-1_929_93)"/>
</svg>
