<svg width="30" height="22" viewBox="0 0 30 22" fill="none" xmlns="http://www.w3.org/2000/svg">
<path d="M2.74545 8.48232C2.98059 8.64215 3.21304 8.7502 3.3847 8.92254C5.61569 11.1376 7.8428 13.3565 10.066 15.5794C10.2107 15.7299 10.3886 15.8445 10.5855 15.9142C10.8957 16.0089 11.1318 15.8249 11.3481 15.6106C13.0731 13.8843 14.7998 12.1579 16.5283 10.4316L26.5606 0.410192C27.1096 -0.138069 27.4091 -0.137171 27.9625 0.415555C28.499 0.951316 29.0354 1.48708 29.5718 2.02284C30.1405 2.58985 30.1423 2.8872 29.5799 3.45153L14.911 18.1055C13.7272 19.2877 12.5441 20.4694 11.3615 21.6504C10.8948 22.1156 10.5399 22.1174 10.0759 21.6504C6.834 18.4138 3.59272 15.1761 0.352038 11.9371C-0.11824 11.4665 -0.116452 11.1272 0.352038 10.6557C0.950167 10.0557 1.54382 9.45115 2.15357 8.8636C2.30825 8.71806 2.51568 8.62876 2.74545 8.48232Z" fill="black"/>
</svg>
