<svg width="133" height="57" viewBox="0 0 133 57" fill="none" xmlns="http://www.w3.org/2000/svg">
<rect x="25.793" width="24.4205" height="50.8444" rx="12.2103" transform="rotate(30.4842 25.793 0)" stroke="black" stroke-width="0.983795"/>
<path d="M6.5843 46.0116C6.30372 45.6728 5.98208 45.3546 5.9684 44.8722C5.84179 44.3452 5.78363 43.8764 6.04367 43.3119C6.29688 42.7678 6.18738 42.1211 5.53727 41.7208C5.13351 41.471 4.67158 41.2076 4.76739 40.5951C4.63737 38.7987 4.9898 37.0673 5.49278 35.3599C5.63649 34.8672 5.97182 34.4566 6.10869 33.9536C6.19765 33.6285 6.44401 33.4369 6.79302 33.6422C7.09755 33.8236 7.15572 34.1042 6.95042 34.4053C6.81355 34.6037 6.65273 34.7885 6.52955 35.182C6.89909 34.5866 7.26179 34.6174 7.74424 34.8056C8.56202 35.1272 9.06501 35.9348 9.93411 36.1537C10.8853 36.6157 11.7031 37.2863 12.5928 37.844C13.3113 38.2957 13.3934 38.282 13.8314 37.5464C14.0914 37.105 14.3481 36.6602 14.6115 36.2222C14.9298 35.6987 14.786 35.3941 14.2933 35.117C13.1608 34.484 12.1171 33.7209 11.0941 32.9237C10.2421 32.2633 9.3798 31.6234 8.73653 30.7304C8.53123 30.4464 8.44911 30.1727 8.45595 29.8442C8.56202 29.1838 8.99658 28.6808 9.31137 28.1231C9.96833 26.9494 10.6595 25.7963 11.3507 24.6432C11.4636 24.4585 11.491 24.1471 11.8297 24.1813C12.449 24.6364 12.7775 25.3447 13.3113 25.8819C15.1932 27.7672 17.3318 29.3001 19.5832 30.6962C20.0144 30.9631 20.5105 31.1547 20.75 31.6577C20.8253 32.4686 20.2368 33.0126 19.8843 33.6217C16.9041 38.7713 13.9101 43.9175 10.9024 49.0534C10.769 49.2827 10.6766 49.5564 10.3721 49.6317C9.87252 49.6043 9.56457 49.2451 9.21898 48.9576C8.24723 48.0577 7.37813 47.0654 6.58088 46.0082L6.5843 46.0116Z" fill="#F83857"/>
<path d="M32.6836 36.5028C31.924 37.8167 30.9282 39.0759 30.1652 40.3898C30.0694 40.8517 29.7067 41.1905 29.4809 41.5874C29.2106 42.063 29.1182 42.2957 28.5639 42.2272C27.0652 42.0425 25.7034 41.4471 24.3484 40.8449C23.4587 40.4514 22.6102 39.9724 21.7547 39.507C21.4913 39.3633 21.2449 39.1854 20.9233 39.3393C19.6436 39.6336 19.5443 40.6088 19.582 41.6627C19.9242 42.3436 20.6838 42.4839 21.2141 42.9218C22.2509 43.6438 23.4279 44.0681 24.5982 44.5061C24.6666 44.5403 24.7282 44.5848 24.7863 44.6361C24.9609 44.814 25.1833 44.9132 25.4022 45.0227C25.546 45.0946 25.6862 45.1801 25.7957 45.3067C25.8847 45.4128 26.0079 45.5976 25.9326 45.6626C25.2551 46.2717 26.528 46.9081 25.717 47.5753C25.0361 48.133 24.4442 48.8892 23.753 49.447C23.1679 49.9363 22.5144 50.3058 21.7924 50.5487C20.6324 50.867 19.493 51.2604 18.2954 51.435C16.6359 51.6779 15.0243 51.4007 13.4093 51.0859C13.2074 51.0449 13.1013 50.8772 13.0158 50.7061C12.896 50.4564 12.7181 50.3777 12.4273 50.4016C11.2468 50.5008 10.8499 50.1005 10.9696 48.9748C11.2844 48.0886 11.8661 47.3495 12.3109 46.5317C12.9268 45.7208 13.6146 46.1724 14.2852 46.4256C14.381 46.3983 14.4666 46.3504 14.5487 46.2922C14.6856 46.1793 14.8053 46.0527 14.8875 45.8953C14.9148 45.8371 14.9456 45.7789 14.9798 45.7208C15.0551 45.5771 15.0962 45.4231 15.1543 45.2725C15.2022 45.1459 15.2604 45.0227 15.3288 44.903C15.4383 44.6806 15.6505 44.5369 15.7566 44.311C15.7668 44.246 15.7874 44.181 15.8079 44.1194C15.8489 43.9928 15.9105 43.8799 15.9892 43.7738C16.044 43.6917 16.1056 43.613 16.1603 43.5309C16.2253 43.4077 16.2903 43.288 16.3177 43.1511C16.3211 42.9834 16.2595 42.8329 16.1774 42.6926C16.1364 42.6241 16.0953 42.542 16.0269 42.5147C15.2228 42.217 15.2296 41.6661 15.5547 41.0125C16.3485 39.6302 17.0328 38.1794 18.0149 36.91C18.1996 36.8107 18.3981 36.8005 18.6 36.821C19.0243 36.8142 19.3356 37.3103 19.8078 37.0879C19.931 36.9818 20.0508 36.8723 20.1295 36.7286C20.1602 36.6739 20.1979 36.6225 20.2355 36.5678C20.3313 36.4412 20.41 36.3077 20.4545 36.1538C20.475 36.0922 20.5058 36.0374 20.5366 35.9793C20.6359 35.8184 20.7385 35.6542 20.7625 35.4592C20.8035 35.3018 20.8617 35.1478 20.9472 35.0075C21.0259 34.8706 21.1388 34.7577 21.2073 34.614C21.2347 34.5251 21.2723 34.4395 21.3099 34.354C21.3715 34.2137 21.4844 34.0973 21.5187 33.9434C21.3305 33.5465 20.8377 33.4712 20.6359 33.088C20.6427 32.2052 21.0704 31.9143 21.8232 32.2804C22.1585 32.4447 22.4665 32.6602 22.8497 32.715C24.4544 33.3548 25.936 34.2582 27.5579 34.8672C29.0497 35.4284 30.5382 35.9758 32.1361 36.1503C32.3551 36.1743 32.6322 36.1777 32.6836 36.4959V36.5028Z" fill="#F83857"/>
<path d="M14.2966 21.3899C15.0664 22.2487 15.7987 23.1486 16.7499 23.8295C17.1639 23.8911 17.4582 24.1649 17.773 24.4078C19.1553 25.4856 20.6096 26.4574 22.0809 27.4052C23.0424 28.0245 23.0663 28.1888 22.4812 29.1468C22.0124 29.9201 21.7592 30.8371 20.9996 31.4222C20.6643 31.5488 20.4282 31.3162 20.1853 31.169C17.8106 29.7182 15.5113 28.158 13.513 26.2076C12.9108 25.6191 12.2265 25.0477 12.0622 24.1375C11.9801 22.9981 12.8252 22.2761 13.3009 21.3865C13.6328 21.3865 13.9681 21.2838 14.3 21.3967L14.2966 21.3899Z" fill="#FCFCFC"/>
<path d="M32.8546 35.8871C32.7485 35.9453 32.6424 36.0069 32.5329 36.0651C31.6501 36.4722 30.8221 36.0445 30.0214 35.8187C27.7734 35.1891 25.6656 34.2071 23.5955 33.1293C23.0891 32.8658 23.0036 32.5236 23.2807 32.0754C23.5237 31.6819 23.729 31.2713 23.9924 30.8915C24.971 29.0814 25.0087 29.0438 26.8222 29.9916C28.6562 30.9497 30.5655 31.6956 32.55 32.2602C32.7861 32.3286 33.0188 32.4073 33.1796 32.6092C33.6929 32.7768 34.2198 32.7871 34.8049 32.7152C34.5346 33.492 33.8605 33.9881 33.6484 34.734C33.3028 34.888 32.9675 35.0693 32.5672 35.1686C32.663 35.4115 33.1044 35.5244 32.8512 35.8803L32.8546 35.8871Z" fill="#FBFBFC"/>
<path d="M29.1774 42.5428C28.5718 43.2545 28.346 44.2194 27.6308 44.8558C27.1689 45.0646 26.7173 45.0646 26.2143 44.9345C24.021 44.3631 21.9817 43.4598 20.0758 42.2348C19.6447 41.9577 19.5865 41.6326 19.8157 41.2015C20.0826 40.6985 20.3666 40.2058 20.6575 39.7165C20.9586 39.2101 21.2905 39.1519 21.7969 39.4427C23.3469 40.3324 24.9551 41.1023 26.642 41.7011C27.3092 41.9371 28.0038 42.0261 28.6779 42.2109C28.8866 42.2691 29.1227 42.2519 29.1706 42.5359L29.1774 42.5428Z" fill="#FAFBFB"/>
<path d="M6.81592 32.7904C6.99043 31.7913 7.73635 31.0761 8.11958 30.1831C8.31119 30.1352 8.42068 30.2481 8.51991 30.385C9.92622 32.3011 11.9142 33.5158 13.8475 34.7955C14.0733 34.9426 14.2923 35.1 14.5249 35.2369C14.8637 35.4353 14.9595 35.6817 14.7576 36.0444C14.4326 36.6364 14.0733 37.2078 13.7414 37.7929C13.5019 38.2137 13.1563 38.2616 12.7833 38.0153C10.8911 36.7732 8.90999 35.6441 7.37708 33.923C7.08623 33.5945 6.83303 33.2523 6.8125 32.7904H6.81592Z" fill="#FAFBFB"/>
<path d="M33.1848 32.6125C31.1249 32.3011 29.2704 31.4183 27.4056 30.5629C26.841 30.3029 26.2696 30.0497 25.7426 29.7246C25.2465 29.4166 24.983 29.5398 24.7572 30.0325C24.5998 30.3747 24.3774 30.6827 24.1824 31.0077C24.0386 31.0043 23.9873 30.9085 23.9634 30.7853C23.9531 30.5321 24.0455 30.296 24.1824 30.101C24.5656 29.5433 24.3226 29.249 23.8197 28.9513C23.2345 28.6057 23.0121 28.9308 22.7555 29.3756C22.3346 30.0976 21.9309 30.8366 21.445 31.521C21.3081 31.6715 21.1473 31.7776 20.9318 31.7571C20.8531 31.7365 20.7983 31.6852 20.7607 31.6134C20.7641 31.4765 20.8496 31.4115 20.9694 31.3738C21.5066 30.4432 22.0301 29.5022 22.5913 28.5886C22.7897 28.267 22.7316 28.1472 22.427 27.9351C20.9694 26.9257 19.4331 26.0326 18.0473 24.9172C17.6093 24.5647 17.185 24.1952 16.7539 23.8325C16.8258 23.8222 16.8976 23.8154 16.966 23.8051C17.1987 23.6819 17.3903 23.8051 17.5614 23.9317C17.9036 24.1781 18.3039 24.2362 18.6906 24.356C19.3646 24.5681 19.7752 24.3526 20.1756 23.7709C20.5041 23.2987 20.4767 22.5904 21.1097 22.3235C21.161 22.392 21.2123 22.4604 21.2637 22.5288C21.5648 22.1867 21.5169 21.6905 21.7906 21.3381C21.859 21.2389 21.9514 21.1738 22.0746 21.1602C22.1293 21.2354 22.1841 21.3107 22.2354 21.3894C22.5023 21.889 22.1636 22.2688 21.9548 22.652C21.6435 23.2268 21.1747 23.6853 20.7744 24.1952C20.5143 24.5237 20.2337 24.8692 20.4356 25.4407C20.7436 25.0061 20.9352 24.5921 21.2021 24.2294C21.8693 23.3158 22.5947 23.1345 23.5904 23.6648C24.7846 24.3013 25.9411 25.0061 27.1045 25.6973C28.3089 26.4124 28.4766 27.1755 27.7751 28.4141C27.628 28.6707 27.45 28.9137 27.3577 29.3722C27.977 29.1327 28.1446 28.6673 28.2849 28.2122C28.5792 27.2678 28.9727 26.3816 29.7528 25.7349C30.0266 25.5091 30.314 25.1738 30.7417 25.4851C30.7417 25.5467 30.7485 25.6049 30.752 25.6665C30.6904 26.1387 30.2421 26.2584 29.9479 26.4877C29.5852 26.7751 29.7665 26.9223 29.9787 27.1241C29.7255 27.7571 29.1438 28.1575 28.8529 28.7768C28.456 29.6288 28.4697 29.8033 29.3012 30.6656C29.835 31.2199 30.3448 31.3225 31.0257 31.0111C31.0736 30.9906 31.1283 30.9838 31.1831 30.9872C31.2515 30.9906 31.3165 30.9975 31.385 31.0009C31.8914 31.5655 32.4902 31.9658 33.2669 32.0684C33.4653 32.0958 33.6843 32.1779 33.7151 32.4448C33.5338 32.479 33.3285 32.4517 33.1882 32.6159L33.1848 32.6125Z" fill="#1B1A24"/>
<path d="M37.395 27.8765C38.2778 26.3231 39.1195 24.7457 40.0536 23.223C44.1562 16.5337 41.3333 8.14373 33.9254 5.55011C29.6073 4.03773 25.5971 4.93421 22.083 7.93501C20.2558 9.4953 19.2978 11.6475 18.0968 13.6321C17.1147 15.2574 16.1875 16.9135 15.2294 18.5525C15.0686 18.8296 14.9454 19.1478 14.4219 19.3771C15.1062 18.1761 15.6982 17.1188 16.3072 16.0717C17.344 14.2925 18.3944 12.5201 19.4346 10.7408C23.4859 3.79137 32.762 2.4535 38.5652 7.98634C42.5001 11.7399 43.4 18.1145 40.649 22.8056C39.6225 24.5609 38.5926 26.3128 37.5661 28.0647C37.4224 28.0818 37.3368 28.0442 37.395 27.8765Z" fill="#3E6B9F"/>
<path d="M30.742 25.4818C29.5992 25.7111 29.1886 26.6418 28.778 27.5588C28.624 27.9009 28.5111 28.2671 28.3948 28.6263C28.1484 29.3723 27.6831 29.7794 26.814 29.6391C27.1185 29.0951 27.4264 28.5682 27.7139 28.031C28.1621 27.1892 28.0423 26.5631 27.2588 26.0772C25.9483 25.2697 24.6173 24.4929 23.2691 23.7402C22.6019 23.3672 21.9073 23.6067 21.4488 24.2876C21.2674 24.558 21.1169 24.8454 20.9492 25.126C20.785 25.3997 20.6139 25.6734 20.4325 25.9677C19.8919 24.8899 19.909 24.7325 20.8842 23.6546C21.4898 22.984 22.0476 22.2997 22.2392 21.3895C22.3384 21.1123 22.3179 20.8283 22.3076 20.5409C22.2905 20.0858 22.53 20.2467 22.7422 20.3835C23.1836 22.5802 24.6583 23.8976 26.6052 24.7085C27.7447 25.1841 28.9594 25.5537 30.2117 24.9275C30.5744 24.7461 30.8413 24.9001 30.8892 25.3313C30.8413 25.3826 30.7899 25.4339 30.742 25.4818Z" fill="#F8F8FA"/>
<path d="M31.1777 30.9831C30.839 31.6674 29.8912 31.6537 29.2342 30.9557C29.1966 30.9181 29.1658 30.8702 29.1452 30.8223C28.9091 30.3398 28.1016 30.0182 28.2282 29.6041C28.4369 28.9198 28.7552 28.1876 29.3232 27.6538C29.5182 27.469 29.7167 27.2945 29.9151 27.1132C29.9254 26.6786 30.1717 26.6376 30.5105 26.7573C31.6191 27.3801 31.7936 27.8317 31.5199 29.5015C31.4378 30.0011 31.294 30.4904 31.1777 30.9831Z" fill="#F6F8F9"/>
<path d="M28.9674 42.6141C28.4816 42.2754 28.1018 42.3164 27.568 42.1624C25.4705 41.5636 23.5304 40.609 21.6382 39.5551C21.2721 39.3498 21.1079 39.3806 20.9197 39.7433C20.5604 40.4379 19.7803 41.1941 19.8966 41.7758C20.0198 42.3814 21.1113 42.6278 21.8127 42.9631C23.6639 43.8527 25.5013 44.804 27.6296 44.8553C27.5269 44.9511 27.4208 45.0503 27.3182 45.1461C26.7639 45.6149 26.1959 45.3138 25.6484 45.153C25.3199 45.0572 24.9949 44.9066 24.7314 44.6637H24.7246C23.4757 44.2394 22.2849 43.6885 21.1216 43.0692C20.4851 42.6825 19.7187 42.4738 19.3457 41.7381C19.616 40.7459 20.0814 39.8665 20.8102 39.1342C21.1558 38.7476 21.4569 39.0624 21.7409 39.2198C23.3764 40.1197 25.0428 40.9477 26.8084 41.5671C28.9709 42.3232 29.1385 41.9298 29.9939 40.7322C29.5833 41.533 29.4431 41.4919 29.1385 42.272L28.9674 42.6141Z" fill="#370A17"/>
<path d="M6.81605 32.7903C8.38317 35.0965 10.727 36.4686 12.999 37.9296C13.2146 38.0665 13.3925 38.1041 13.5191 37.827C13.5431 37.7791 13.5773 37.738 13.6046 37.6901C13.9844 37.0366 14.6927 36.3591 14.6483 35.7329C14.6038 35.0691 13.5499 34.857 12.9443 34.4395C11.165 33.2112 9.40967 31.9622 8.1197 30.183C8.23262 30.0735 8.34211 29.964 8.45503 29.8545C9.32755 31.4901 10.8297 32.4789 12.2565 33.5362C13.0366 34.1145 13.8818 34.6038 14.7098 35.1136C15.117 35.3668 15.2881 35.6029 14.9596 36.0785C14.5148 36.7218 14.1384 37.413 13.762 38.1007C13.5362 38.5113 13.2967 38.5455 12.9237 38.2958C11.9349 37.6388 10.9289 37.0024 9.93319 36.3591C8.73218 35.5961 7.54144 34.8228 6.75788 33.5841C6.64154 33.3993 6.47046 33.2522 6.60732 33.0093C6.67918 32.9374 6.74761 32.8621 6.81947 32.7903H6.81605Z" fill="#3D0C16"/>
<path d="M21.1086 22.3271C21.0333 22.5289 20.9888 22.7445 20.8793 22.9258C20.479 23.5999 20.3181 24.6777 19.449 24.712C18.7373 24.7393 17.8101 24.6983 17.2284 23.9797C17.1634 23.901 17.0505 23.8634 16.9615 23.8052C16.349 23.2714 17.1155 23.0661 17.2215 22.7034C17.5055 22.1833 17.793 22.2039 17.9196 22.765C18.1009 23.5725 18.6484 23.8018 19.3635 23.8565C19.9349 23.6581 20.171 23.1996 20.0889 22.6555C19.976 21.9062 19.4148 21.6085 18.467 21.588C19.2129 21.15 19.7159 20.582 20.4037 20.8181C21.0435 21.0371 21.0812 21.7214 21.1017 22.3271H21.1086Z" fill="#F6F6F9"/>
<path d="M18.0596 37.0405C17.2144 38.3304 16.4582 39.6717 15.7397 41.037C14.8432 43.0147 13.8372 44.9308 12.4686 46.6348C12.0374 47.3773 11.6029 48.1164 11.1718 48.8589C11.0041 49.225 11.0178 49.7041 10.5388 49.8786C10.484 49.7999 10.4258 49.7178 10.3711 49.6356C11.3976 47.545 12.6739 45.5947 13.8338 43.5827C16.0203 39.7812 18.2409 35.9969 20.4445 32.2057C20.5369 32.0448 20.5882 31.8601 20.6601 31.6856C20.6943 31.6171 20.7388 31.6103 20.7969 31.6616H20.8003C20.9133 31.7745 21.0433 31.8738 21.0399 32.0551C20.4274 33.3588 19.6815 34.5906 18.9663 35.8395C18.7131 36.2774 18.501 36.7496 18.063 37.0473L18.0596 37.0405Z" fill="#600510"/>
<path d="M25.6635 15.1991C25.6464 14.8604 25.8414 14.679 26.122 14.5216C27.1998 13.916 28.3495 13.7654 29.5574 13.9023C29.9611 13.9468 29.9851 14.0734 29.8003 14.4121C29.5129 14.9459 29.2871 15.336 28.4966 15.2744C27.0561 15.1649 25.9612 15.9793 25.0305 17.0126C24.8423 16.2701 25.294 15.7466 25.6601 15.1957L25.6635 15.1991Z" fill="#F9F9FB"/>
<path d="M31.9289 28.209C32.9418 28.9036 33.7972 29.6871 34.5226 30.6076C34.7895 30.9497 35.0461 31.3056 35.1282 31.7436C35.1864 32.0515 35.0598 32.2602 34.7552 32.3732C34.4986 32.469 34.3002 32.4758 34.1257 32.2123C33.5508 31.3467 32.7878 30.6521 32.0282 29.954C31.4431 29.4134 32.0692 28.7907 31.9255 28.209H31.9289Z" fill="#CDBAD5"/>
<path d="M30.8866 25.3312C30.7121 25.2627 30.7394 24.7871 30.452 25.0232C29.5419 25.7794 28.5393 25.468 27.5881 25.2764C25.4495 24.8487 23.9098 23.5622 22.8388 21.6871C22.6027 21.2731 22.4966 20.8351 22.7396 20.38C22.7909 20.445 22.8457 20.51 22.897 20.5751C23.3178 21.1328 23.4034 21.8787 23.9269 22.3783C25.6959 24.486 28.6214 25.516 30.103 24.5476C29.9798 24.5031 29.8396 24.5134 29.7198 24.445C29.6137 24.38 29.5453 24.291 29.5624 24.1575C29.7437 23.8907 30.0449 23.8256 30.3186 23.7435C31.1603 23.4937 31.6222 22.9531 31.677 22.0703C31.718 21.9164 31.7865 21.7795 31.8754 21.6495C32.1697 21.3449 32.3203 20.9549 32.5221 20.5922C32.9054 20.1987 33.1072 19.5451 33.8395 19.6307C33.9353 19.7436 34.0311 19.8599 34.1235 19.9728C32.9019 20.7153 32.2381 21.7898 32.2039 23.2337C32.1458 23.3261 32.091 23.4185 32.0328 23.5143C31.8857 23.7572 32.0807 23.8496 32.2381 23.9351C32.7138 24.1849 32.9772 24.5955 33.1449 25.0848C33.0046 25.3209 32.8609 25.557 32.7206 25.7931C32.4606 25.6699 32.4845 25.3996 32.4024 25.184C32.245 24.7803 31.9507 24.4963 31.5333 24.4518C31.0577 24.4005 31.2767 24.9651 31.0269 25.143C30.979 25.2046 30.9276 25.2696 30.8797 25.3312H30.8866Z" fill="#292233"/>
<path d="M15.9182 21.078C15.576 21.0096 15.2373 20.9035 14.8917 20.8795C14.5085 20.8522 14.2484 20.6914 14.2313 20.3218C14.2108 19.8667 14.5701 19.7607 14.943 19.7264C15.6239 19.6649 16.2877 19.7949 16.9344 19.9728C17.6804 20.1781 18.4126 20.4381 19.292 20.7221C18.7548 21.0985 18.3339 21.3928 17.913 21.6871C17.1705 21.7384 16.5033 21.5399 15.9148 21.0848L15.9182 21.078Z" fill="#CCBBD3"/>
<path d="M6.60474 33.0098C7.26855 34.2997 8.45587 35.0833 9.50632 35.9969C9.64661 36.1201 9.79032 36.2398 9.93061 36.3596C9.01702 36.3596 8.58589 35.5213 7.88103 35.1449C7.0872 34.7172 6.76556 34.8712 6.53973 35.7813C5.96489 35.162 6.33785 34.7651 6.64581 34.4092C6.76899 34.2655 6.98113 34.1937 6.85795 33.9678C6.79978 33.8618 6.66291 33.7352 6.56026 33.7283C6.34812 33.7215 6.22836 33.9062 6.18046 34.091C5.92383 35.1312 5.13 35.9935 5.39005 37.2355C5.47559 37.6461 4.79468 38.2381 4.83574 38.9053C4.86996 39.4733 4.83916 40.0447 4.83574 40.6127C4.78442 40.6914 4.73651 40.688 4.69545 40.6059C4.43883 38.1628 4.93155 35.8634 6.05043 33.6907C6.18388 33.4341 6.29679 33.1398 6.5979 33.0098H6.60474Z" fill="#D83C59"/>
<path d="M20.9479 31.9822C20.9 31.8761 20.8487 31.7701 20.8008 31.6606C20.9411 31.6058 21.0814 31.5511 21.2216 31.4963C21.6083 31.4484 21.8649 31.7085 22.1523 31.8932C22.6108 32.1909 22.9667 32.167 23.2712 31.64C23.456 31.3184 23.5484 30.8599 24.0514 30.8223C24.0959 30.8839 24.1369 30.9454 24.1814 31.007C23.9693 31.6298 23.1344 32.208 23.3944 32.7316C23.6373 33.2209 24.5065 33.4091 25.1121 33.7033C27.083 34.6511 29.0812 35.5373 31.2506 35.9479C31.6714 36.0266 32.1094 36.03 32.5371 36.0677C32.5748 36.2182 32.9785 36.2456 32.6842 36.5091C29.1018 36.1293 25.9812 34.48 22.8196 32.9403C22.1729 32.6665 21.6049 32.2354 20.9479 31.9856V31.9822Z" fill="#3D0D18"/>
<path d="M28.9339 15.5625C30.0528 15.6001 30.8706 16.2024 31.5892 16.9825C31.9587 17.1091 32.1161 17.4205 32.2701 17.7421C33.1392 19.5795 32.383 21.9542 30.5866 22.9465C29.0263 23.8053 27.4934 23.754 26.0221 22.7138C25.7552 22.5256 25.4952 22.3271 25.4609 21.961C25.4815 21.8207 25.5636 21.7249 25.6902 21.6668C26.0597 21.6257 26.2753 21.8994 26.5319 22.0876C27.7056 22.9499 29.129 22.9738 30.4018 22.1492C31.5412 21.4136 32.0648 19.9422 31.7055 18.4914C31.3873 17.2015 30.3231 16.305 28.9237 16.1339C28.5849 16.0929 28.2085 16.1681 27.9382 15.8602C28.1504 15.3538 28.6328 15.7678 28.9305 15.5659L28.9339 15.5625Z" fill="#B6AFC6"/>
<path d="M10.5391 49.8781C10.7512 49.5393 10.9599 49.1971 11.1721 48.8584C11.2029 49.3922 10.8881 50.0628 11.7811 50.2408C11.9933 50.2818 12.0822 50.3537 12.3115 50.1723C12.7563 49.8267 13.273 50.0868 13.2798 50.6445C13.2832 51.0448 13.5193 50.9867 13.7383 51.0243C16.1985 51.4486 18.6416 51.5957 21.0094 50.5521C21.2694 50.4358 21.5363 50.47 21.7998 50.5419C17.9299 52.2903 14.1797 52.0269 10.5425 49.8712L10.5391 49.8781Z" fill="#CC3D56"/>
<path d="M25.5432 21.8751C26.9529 23.4901 29.0846 23.7639 30.792 22.5526C32.4071 21.4097 32.8621 19.1651 31.8425 17.3961C31.7604 17.2558 31.6748 17.119 31.5893 16.9821C31.6303 16.9308 31.6748 16.8795 31.7159 16.8281C32.5302 17.0061 32.5302 17.7451 32.7561 18.3302C32.9716 19.0762 33.0982 19.8152 32.6466 20.527C32.4584 20.9615 32.2462 21.3824 32.0341 21.8032C31.9794 21.8888 31.9246 21.9777 31.8699 22.0633C31.2642 23.4764 28.9204 24.1745 27.1445 23.5791C26.5492 23.3806 26.0017 23.0829 25.5227 22.6655C24.5475 21.7177 24.0342 20.5783 24.1232 19.2028C24.1437 18.8982 24.1027 18.5321 24.527 18.4226C24.5783 18.4876 24.6296 18.5526 24.6775 18.6177C25.0744 18.9119 24.8007 19.3259 24.8315 19.6715C24.9033 20.4688 25.4337 21.0984 25.5363 21.8717L25.5432 21.8751Z" fill="#262032"/>
<path d="M24.7276 44.667C25.5762 44.9065 26.4145 45.2008 27.3178 45.146C27.5642 45.1905 27.5265 45.324 27.4307 45.4882C26.4966 47.0758 25.3846 48.4993 23.7559 49.4436C24.1014 48.8106 24.844 48.5745 25.2238 47.986C25.5283 47.5104 26.6198 47.0382 25.299 46.46C25.1074 46.3778 25.2853 46.3333 25.3538 46.2752C26.086 45.6422 25.672 45.3274 25.0185 45.0742C24.8405 45.0057 24.5428 45.0023 24.731 44.667H24.7276Z" fill="#B93D58"/>
<path d="M24.5334 18.4266C24.0373 20.0451 24.6361 21.3453 25.7037 22.5155C25.8132 22.7243 25.8987 22.9364 25.7481 23.1657C25.3889 23.3846 25.1117 23.1759 24.8996 22.9432C23.9894 21.9612 23.3393 20.9039 23.4522 19.4429C23.5069 18.7277 23.459 18.1221 24.2358 17.821C24.3418 17.7799 24.4445 17.7799 24.5437 17.8278C24.5403 18.0263 24.5369 18.2282 24.5334 18.4266Z" fill="#F5F6F9"/>
<path d="M24.5449 17.8266C23.7272 18.179 23.4055 18.7573 23.5527 19.6674C23.7956 21.149 24.4081 22.3808 25.6844 23.2294C26.0915 23.1712 26.3995 23.4279 26.7382 23.575C27.4157 23.8692 28.1274 23.9822 28.8597 24.0095C29.1197 24.0198 29.4071 23.9172 29.5987 24.1943C29.674 24.2491 29.7527 24.3072 29.828 24.362C29.6569 24.7828 29.2737 24.7315 28.9349 24.7452C26.793 24.841 25.1472 23.9411 23.9256 22.2097C23.4295 21.5322 23.2755 20.7247 23.0873 19.9343C23.231 19.6024 23.6485 19.3013 23.19 18.9112C23.1489 18.7059 22.9231 18.5349 23.0805 18.2988C23.19 18.0798 23.296 17.8642 23.4055 17.6452C23.6074 17.919 23.7956 17.8197 23.9906 17.6315C24.1959 17.4297 24.4046 17.2312 24.5552 16.9814L24.5381 17.002C24.8495 16.5537 25.0992 16.0815 25.1916 15.5375C25.219 15.3698 25.2635 15.2193 25.4688 15.1953C25.5338 15.1953 25.5988 15.1953 25.6638 15.1987C25.6638 15.8762 25.2087 16.3963 25.0342 17.0156C24.87 17.286 24.7058 17.5563 24.5449 17.8266Z" fill="#302A38"/>
<path d="M32.1326 6.71786C28.8957 6.48861 25.9428 7.26191 23.2773 9.11645C24.1841 7.37482 29.5458 5.729 32.1326 6.71786Z" fill="#366FA8"/>
<path d="M20.7968 31.6576C20.7489 31.6576 20.7044 31.6678 20.6599 31.6815C18.1963 30.1281 15.7362 28.5678 13.6318 26.5251C12.9201 25.8373 12.1605 25.1735 11.832 24.1846C11.9073 24.1675 11.986 24.147 12.0613 24.1299C12.8414 25.4951 13.9945 26.5216 15.1955 27.4865C17.009 28.9408 18.867 30.33 20.9645 31.3633C20.9097 31.4591 20.8516 31.5583 20.7968 31.6541V31.6576Z" fill="#3D0D18"/>
<path d="M31.0349 25.1437C30.7715 24.7058 30.8981 24.3191 31.2539 24.0248C31.4455 23.8674 32.5679 24.6373 32.6705 25.0103C32.7389 25.2601 32.715 25.5338 32.7287 25.7938C32.4721 26.2387 32.2154 26.6801 31.952 27.1215C31.928 27.1625 31.8698 27.1796 31.7877 27.2344C31.5482 26.5227 31.4216 25.7836 31.0349 25.1403V25.1437Z" fill="#CDBBD5"/>
<path d="M32.5429 18.2956C32.2965 17.7892 32.1836 17.211 31.7148 16.8277C31.7285 16.2734 32.1836 15.9415 32.406 15.3906C32.933 15.9244 33.323 16.465 33.5215 17.1357C33.6139 17.5223 33.7165 17.9261 33.3846 18.2443C33.1348 18.4838 32.8474 18.737 32.5395 18.2956H32.5429Z" fill="#F6F8F9"/>
<path d="M4.70146 40.605C4.74936 40.605 4.79727 40.6084 4.84175 40.6118C4.80411 41.1832 5.39264 41.2072 5.64242 41.5288C5.94695 41.9223 6.81605 42.001 6.29938 42.8838C6.23095 43.0036 6.12487 43.4244 6.08723 43.6845C6.03249 44.0643 5.9401 44.4681 5.96406 44.8684C5.47818 44.0609 5.08469 43.2328 5.13259 42.2474C5.15996 41.6691 4.53722 41.2346 4.70146 40.6016V40.605Z" fill="#BE3350"/>
<path d="M33.7107 32.442C33.2488 32.3291 32.7697 32.2572 32.3283 32.0895C31.839 31.9048 31.3292 31.6789 31.3805 30.998C31.5995 30.7551 31.4866 30.3616 31.7877 30.1152C32.472 30.673 33.0811 31.2957 33.6286 31.98C33.7244 32.0998 33.957 32.2401 33.7107 32.4385V32.442Z" fill="#CCBAD2"/>
<path d="M32.5431 18.2967C33.5148 18.4541 33.4293 17.7184 33.5251 17.1367C33.898 17.9374 34.0246 18.7689 33.8433 19.638C33.3266 19.8672 33.0255 20.3223 32.6868 20.7397C32.5396 20.774 32.4575 20.7466 32.5225 20.5721C32.7244 19.8159 32.7005 19.0563 32.5431 18.2967Z" fill="#CBBDD4"/>
<path d="M17.0681 22.5387C16.6301 23.0724 16.1579 22.7371 15.8055 22.4908C15.3367 22.1589 14.909 21.738 14.5977 21.1016C15.0938 21.1734 15.5044 21.235 15.915 21.2966C16.2845 21.1666 16.6028 21.3821 16.9278 21.4779C17.1844 21.5532 17.5848 21.5122 17.6121 21.9159C17.6361 22.2684 17.3453 22.4155 17.0681 22.5421V22.5387Z" fill="#CBBBD4"/>
<path d="M30.5623 15.747C30.2031 15.6752 29.6761 15.593 29.659 15.2748C29.6385 14.9429 30.008 14.5837 30.2099 14.2415C30.2681 14.1423 30.3605 14.0978 30.4802 14.1423C31.0859 14.3715 31.6504 14.6726 32.1226 15.1174C32.2869 15.2748 32.1021 15.4014 32.0166 15.5246C31.582 15.9215 31.0619 15.7607 30.5658 15.747H30.5623Z" fill="#F7F5F6"/>
<path d="M22.1116 18.6172C22.3032 18.7096 22.5154 18.7814 22.6865 18.9046C22.8747 19.0415 23.2921 19.0449 23.1313 19.4281C23.0115 19.7121 22.8678 20.0235 22.447 20.0235C21.6565 20.0235 20.8935 20.2048 20.0312 20.4717C20.1442 20.0919 20.2571 19.825 20.4761 19.5992C21.1878 19.5513 21.6189 19.0346 22.1116 18.6206V18.6172Z" fill="#C8BCD1"/>
<path d="M25.5438 21.8752C24.7021 20.9376 24.5276 19.8222 24.685 18.6212C25.3146 16.4689 26.8167 15.3877 28.9347 15.5622C28.6541 15.8051 28.2401 15.5622 27.9698 15.8325C27.8192 16.1336 27.501 16.1747 27.2341 16.2944C25.4035 17.1327 24.6884 18.9531 25.4514 20.811C25.5712 21.0985 25.8347 21.3551 25.6944 21.7144C25.6465 21.7657 25.5951 21.8204 25.5472 21.8718L25.5438 21.8752Z" fill="#E6E8EF"/>
<path d="M17.0677 22.5392C17.2285 22.3305 17.3893 22.1252 17.598 21.8548C17.0095 21.6598 16.462 21.4785 15.918 21.2971C15.918 21.2253 15.918 21.15 15.918 21.0781C16.6228 21.1568 17.2764 21.3963 17.9162 21.6803C17.4954 22.1936 18.4911 21.7214 18.2276 22.1286C18.3234 22.2039 18.3747 22.3065 18.4021 22.4194C18.2379 23.1072 18.9222 23.2646 19.1925 23.682C19.2507 23.7402 19.3123 23.7984 19.3704 23.8565C18.3439 24.2021 17.7725 23.7197 17.6733 22.3784C17.509 22.4981 17.3688 22.6008 17.225 22.7034C17.1737 22.6487 17.119 22.5939 17.0677 22.5392Z" fill="#403B4A"/>
<path d="M30.5111 26.7575C30.2921 26.8431 30.0663 26.9149 29.9157 27.1134C29.7036 26.9183 29.5257 27.086 29.2656 27.216C29.5941 26.4667 30.0663 25.9671 30.7506 25.666C31.3221 25.7926 31.1304 26.3503 31.4452 26.7609H30.5111V26.7575Z" fill="#EFEFF1"/>
<path d="M23.0899 19.9385C23.5313 19.9419 23.3294 20.3217 23.4218 20.5236C23.651 21.0231 23.8563 21.533 24.0719 22.036C24.0993 22.2857 24.1198 22.5287 23.7571 22.5287C23.2815 21.9607 22.8435 21.379 22.9017 20.5783C22.9667 20.3662 23.0283 20.154 23.0933 19.9385H23.0899Z" fill="#F3F4F8"/>
<path d="M22.1121 18.6176C21.8931 19.4559 21.2088 19.8665 20.4766 19.5962C20.8119 18.9187 21.1575 18.2617 22.1121 18.6176Z" fill="#F2EFF4"/>
<path d="M19.1893 23.682C18.3271 23.658 18.132 23.1208 18.197 22.3818C18.5837 21.9164 19.0148 21.8069 19.511 22.2209C20.0961 22.8574 19.7402 23.2885 19.1927 23.6786L19.1893 23.682Z" fill="#302F38"/>
<path d="M22.0742 21.1635C22.0263 21.2388 21.9784 21.3175 21.9305 21.3928C21.7423 21.5126 21.6567 22.0361 21.3077 21.557C21.123 21.2388 20.9348 20.9206 20.75 20.6024C21.9681 20.1268 22.0673 20.1678 22.0708 21.1635H22.0742Z" fill="#EBEAEC"/>
<path d="M37.3971 27.877C37.4552 27.9385 37.51 28.0036 37.5682 28.0651C36.9523 29.1464 36.3364 30.2311 35.7239 31.3123C35.6486 31.2713 35.5733 31.2268 35.498 31.1857C36.0832 30.0566 36.6683 28.9308 37.4005 27.877H37.3971Z" fill="#3F6498"/>
<path d="M32.2093 23.2405C32.0485 23.196 31.9972 23.0729 32.0246 22.9292C32.2709 21.7179 32.8731 20.7153 33.8312 19.9386C33.8825 19.8941 34.0262 19.9626 34.1289 19.9797C34.0776 20.1302 34.0673 20.3663 33.9681 20.4142C32.88 20.9309 32.3702 21.7589 32.4899 22.9702C32.4968 23.0523 32.3086 23.1516 32.2128 23.2405H32.2093Z" fill="#BBB4C7"/>
<path d="M32.8546 35.8866C32.7657 35.387 32.225 35.4554 31.8281 35.0106C32.5535 35.1441 32.9881 34.5042 33.6485 34.7403C33.5047 35.2091 33.2105 35.5684 32.8546 35.89V35.8866Z" fill="#C3C6CD"/>
<path d="M6.58398 46.0117C7.5181 46.9458 8.38378 47.9415 9.22209 48.9612C8.10663 48.1913 7.23752 47.1956 6.58398 46.0117Z" fill="#BE3350"/>
<path d="M33.1543 25.0881C32.7539 24.6775 32.4186 24.2156 31.8814 23.9282C31.2792 23.6065 31.8711 23.6134 32.0422 23.5176C32.6581 23.8666 33.2638 24.2224 33.1543 25.0881Z" fill="#CBCAD6"/>
<path d="M23.6348 17.4441C23.8332 16.5681 24.0967 15.9488 24.8426 15.4219C24.6647 16.2841 24.3123 16.8521 23.6348 17.4441Z" fill="#CAC8D7"/>
<path d="M30.5625 15.747C30.9936 15.3364 31.5377 15.6375 32.0133 15.5246C31.6848 16.1884 31.2012 16.2625 30.5625 15.747Z" fill="#C5BCCC"/>
<path d="M32.75 22.5533C32.8219 21.8006 33.1538 21.2018 33.8176 20.6543C33.7491 21.5439 33.2564 22.0538 32.75 22.5533Z" fill="#BBB8C9"/>
<path d="M23.084 18.2989C23.2551 18.4802 23.2654 18.689 23.1935 18.9114C22.629 18.5487 22.0781 18.1552 21.2227 18.3399C21.9549 17.5974 22.516 18.0457 23.084 18.2989Z" fill="#CAC9D6"/>
<path d="M25.4678 15.1956C25.1906 15.815 25.1051 16.5335 24.5371 17.0023C24.5919 16.3898 25.307 15.921 24.9169 15.1956C24.8416 15.0553 25.0572 14.9185 25.2146 14.8877C25.4507 14.8432 25.461 15.0245 25.4644 15.1922L25.4678 15.1956Z" fill="#BAB8C5"/>
<path d="M14.298 21.3893C13.9626 21.7075 13.6307 21.6048 13.2988 21.379C13.5794 21.1087 13.5555 20.6433 13.9216 20.4004C14.0482 20.7357 14.1714 21.0608 14.2945 21.3858L14.298 21.3893Z" fill="#C3C4CC"/>
<path d="M24.5582 16.9863C24.3768 17.5543 23.9731 17.9204 23.4872 18.2181C23.3195 18.0231 23.4017 17.8349 23.4119 17.6501C23.9868 17.763 24.1681 17.1882 24.5616 16.9863H24.5582Z" fill="#CAC7D5"/>
<path d="M21.3121 21.5538C21.5892 21.766 21.7021 21.3485 21.9348 21.3896C21.9177 21.8618 21.6611 22.2313 21.3908 22.5872C21.3805 22.5974 21.3394 22.5974 21.3223 22.5872C21.3018 22.5769 21.2847 22.5495 21.2676 22.529C21.2813 22.2039 21.2984 21.8755 21.3121 21.5504V21.5538Z" fill="#BEB9C8"/>
<path d="M19.5112 22.2234C19.039 21.9941 18.6044 22.0762 18.1973 22.3842C18.2075 22.2986 18.2144 22.2131 18.2246 22.1276C18.6729 21.888 19.128 21.5801 19.5078 22.2234H19.5112Z" fill="#D4D4D9"/>
<path d="M12.4688 46.635C13.4884 44.7291 14.5594 42.854 15.7399 41.0371C15.4798 41.6462 15.4593 42.156 16.2531 42.3716C16.3318 42.3921 16.3626 42.594 16.4139 42.7103C16.2736 42.8266 16.1265 42.7753 15.9828 42.7377C16.1436 42.9122 16.39 43.008 16.5542 43.1996C16.4824 43.3878 16.4208 43.5863 16.2394 43.706C15.9657 43.6718 15.7433 43.5486 15.5619 43.3467C15.7022 43.5589 16.0239 43.6068 16.0752 43.901C16.0102 44.0071 15.9486 44.1098 15.8836 44.2158C15.5654 44.4109 15.3395 44.1337 15.2369 44.0892C15.3395 44.1166 15.5483 44.4656 15.8767 44.2124C15.9338 44.3835 15.7935 44.6458 15.4559 44.9994C15.2129 45.0302 15.0213 44.8831 14.7921 44.8044C14.9666 44.972 15.2061 45.0507 15.254 45.3074C15.2608 45.4955 15.2951 45.694 15.0829 45.8103C14.8126 45.7077 14.5697 45.5469 14.2138 45.3655C14.5662 45.5606 14.8092 45.7248 15.0898 45.8069C15.1069 46.1422 14.8776 46.3099 14.6381 46.4741C14.4294 46.4057 14.2514 46.2791 14.0598 46.1833C14.2309 46.3031 14.4294 46.3989 14.4465 46.6452C14.2343 46.8745 14.0153 46.7068 13.8922 46.5802C13.3823 46.0635 12.9273 46.2004 12.4722 46.635H12.4688Z" fill="#C24864"/>
<path d="M20.947 31.9829C21.6963 32.0582 22.2233 32.5612 22.8186 32.9376C22.3978 32.9376 22.0795 32.6844 21.734 32.4962C21.1112 32.1574 20.8477 32.3319 20.7998 33.1223C20.8683 33.7109 21.5902 33.6493 21.7853 34.1112C21.6758 34.2138 21.5697 34.3165 21.4602 34.4191C21.207 34.5731 21.0051 34.4055 20.7793 34.2994C20.9949 34.4636 21.2549 34.5389 21.4294 34.7374C21.3199 34.8605 21.2104 34.9803 21.1009 35.1035C20.8888 35.2301 20.7006 35.1377 20.4816 35.0282C20.6938 35.1719 20.8443 35.3259 20.947 35.5243C20.9812 35.7707 20.8751 35.9384 20.663 36.0513C20.4235 35.9623 20.2455 35.7604 19.9034 35.6578C20.2421 35.7981 20.4406 35.9657 20.6116 36.171C20.6459 36.4208 20.5466 36.5953 20.314 36.6911C20.0779 36.5611 19.8281 36.4585 19.4585 36.2634C19.8247 36.4653 20.0744 36.5645 20.3105 36.698C20.314 36.9478 20.1908 37.1052 19.9615 37.1941C19.503 37.4268 19.1745 36.7253 18.7058 37.0196C18.4902 37.0265 18.2746 37.0333 18.0625 37.0401C19.024 35.3533 19.9889 33.6664 20.9504 31.9795L20.947 31.9829Z" fill="#C14965"/>
<path d="M20.8081 39.1377C20.4043 40.0547 19.8911 40.9067 19.3436 41.7416C19.2239 41.1496 19.5763 40.5919 19.4428 39.9794C19.3949 39.7536 19.7063 39.5517 19.9835 39.4662C20.264 39.3772 20.5309 39.2472 20.8047 39.1377H20.8081Z" fill="#C83A58"/>
<path d="M21.1191 43.0762C22.3612 43.5176 23.5314 44.1129 24.7222 44.6707C23.3843 44.4483 22.2072 43.8632 21.1191 43.0762Z" fill="#B93D58"/>
<path d="M15.254 45.3068C14.9906 45.1734 14.7203 45.0536 14.4705 44.8996C14.3233 44.8072 14.0907 44.6875 14.1933 44.4719C14.3028 44.2427 14.5081 44.3624 14.6758 44.4548C14.9564 44.6088 15.2711 44.7114 15.4559 45.0023C15.3875 45.1049 15.3225 45.2076 15.254 45.3102V45.3068Z" fill="#5D0817"/>
<path d="M21.786 34.1109C21.3514 34.1109 21.0537 33.803 20.7184 33.6011C20.4173 33.4198 20.5986 33.2555 20.7971 33.1221C21.1735 33.4061 21.8578 33.3787 21.7825 34.1109H21.786Z" fill="#530715"/>
<path d="M20.6092 36.1709C20.1712 36.1607 19.8838 35.839 19.5348 35.644C19.4424 35.5927 19.3671 35.4969 19.4493 35.3771C19.5143 35.2813 19.6238 35.206 19.723 35.2745C20.0617 35.4969 20.5921 35.5003 20.664 36.0478C20.64 36.0854 20.6195 36.123 20.6092 36.1675V36.1709Z" fill="#58071A"/>
<path d="M18.7033 37.0193C18.5253 36.6634 18.604 36.4889 19.0044 36.66C19.3397 36.8003 19.6408 37.0124 19.959 37.1938C19.4355 37.9055 19.1275 37.0467 18.7033 37.0193Z" fill="#500613"/>
<path d="M16.0798 43.9006C16.0524 43.8938 16.025 43.8904 16.0011 43.8767C15.6384 43.6645 15.2004 43.5585 14.9677 43.165C14.9472 43.1308 15.043 42.9699 15.0601 42.9768C15.5357 43.0828 15.9668 43.2745 16.244 43.7022C16.1892 43.7672 16.1345 43.8322 16.0798 43.8972V43.9006Z" fill="#4F0414"/>
<path d="M16.5591 43.1999C16.4769 43.1999 16.3811 43.2239 16.3195 43.1862C15.9671 42.9775 15.2657 42.7961 15.4231 42.4608C15.6112 42.0639 16.0526 42.6524 16.4153 42.7106C16.5864 42.8372 16.6104 43.0049 16.5591 43.1965V43.1999Z" fill="#580416"/>
<path d="M21.4301 34.737C20.8997 34.7815 20.5062 34.4906 20.2257 34.1177C20.0546 33.8918 20.3831 33.8063 20.845 34.0663C21.0537 34.1827 21.2556 34.3024 21.4609 34.4222C21.4506 34.5283 21.4404 34.6343 21.4301 34.7404V34.737Z" fill="#590717"/>
<path d="M14.4467 46.6444C14.1456 46.4665 13.8445 46.292 13.5434 46.1106C13.4202 46.0353 13.321 45.9293 13.4031 45.7856C13.4818 45.6521 13.6392 45.6316 13.7521 45.7274C14.0464 45.9772 14.5425 45.9909 14.6417 46.4733C14.5767 46.5315 14.5117 46.5862 14.4501 46.6444H14.4467Z" fill="#540312"/>
<path d="M20.9483 35.5212C20.548 35.3022 19.7473 35.025 19.9287 34.7547C20.2537 34.2722 20.6575 35.0661 21.1023 35.1037C21.051 35.244 20.9997 35.3843 20.9483 35.5212Z" fill="#4F0614"/>
<path d="M20.3668 30.0397C20.3566 30.3237 20.2231 30.3408 20.011 30.2142C19.8502 30.1184 19.7817 30.0192 19.8981 29.831C20.2539 29.2493 20.5961 28.6608 20.9417 28.0723C21.0478 27.8909 21.3215 27.8943 21.3078 27.9833C21.2394 28.4829 22.2659 28.7806 21.5439 29.3862C21.3557 29.5436 21.2667 29.8139 21.1299 30.0329C20.8744 29.8071 20.8322 29.5174 21.0033 29.1638C20.8459 29.2938 20.7911 29.4717 20.733 29.636C20.6645 29.8242 20.5105 29.9268 20.3634 30.0397H20.3668Z" fill="#64666E"/>
<path d="M20.3698 28.1579C20.3356 28.4932 20.1885 28.7464 19.8326 28.743C19.3604 28.7362 18.9909 28.524 18.9601 28.0005C18.9396 27.6481 19.2065 27.4359 19.5212 27.4564C19.9387 27.4804 20.2877 27.6857 20.3698 28.1579Z" fill="#26272F"/>
<path d="M20.3652 30.0391C20.6253 29.6182 20.8853 29.1939 21.2001 28.6807C21.3609 29.2179 20.4918 29.5908 21.1283 30.0322C20.8751 30.3162 20.6184 30.1417 20.3652 30.0391Z" fill="#ADAEB8"/>
<path d="M19.527 29.5056C19.202 29.3038 18.8632 29.095 18.5313 28.8726C18.5005 28.8521 18.5211 28.7323 18.5416 28.6673C18.5792 28.5544 18.6716 28.6057 18.7401 28.6263C19.072 28.7221 19.2978 29.1498 19.746 28.9308C19.8487 28.8795 19.8829 29.0642 19.8487 29.1566C19.7973 29.3003 19.7323 29.4475 19.5305 29.5056H19.527Z" fill="#28242C"/>
<path d="M25.4875 33.091C24.8545 33.0808 24.3173 32.5094 24.3344 31.8627C24.3515 31.216 24.9229 30.6822 25.5662 30.7164C26.1787 30.7472 26.6782 31.2844 26.6748 31.8969C26.6714 32.5607 26.1342 33.1013 25.4875 33.091Z" fill="#3E141C"/>
<path d="M20.9351 41.594C20.8735 41.7754 20.7675 41.9294 20.5451 41.9157C20.2919 41.8986 20.1516 41.7514 20.1926 41.4914C20.2268 41.269 20.3911 41.1766 20.5998 41.1971C20.8188 41.2211 20.9112 41.3751 20.9351 41.594Z" fill="#2C212E"/>
<path d="M21.7636 40.1366C21.7088 40.3316 21.6062 40.4787 21.3837 40.4753C21.1682 40.4685 21.0211 40.3385 21.0176 40.1332C21.0142 39.8834 21.1819 39.7431 21.4282 39.7602C21.6472 39.7739 21.7396 39.9347 21.7636 40.14V40.1366Z" fill="#201F27"/>
<path d="M13.8383 36.1436C13.6398 36.0957 13.4858 35.9862 13.4824 35.7706C13.4824 35.5619 13.6159 35.4079 13.8246 35.4045C14.0709 35.3977 14.2318 35.5551 14.2181 35.8049C14.2078 36.0136 14.047 36.1231 13.8349 36.1436H13.8383Z" fill="#282834"/>
<path d="M13.3924 37.1835C13.3513 37.4367 13.2247 37.5735 13.0091 37.5598C12.8038 37.5462 12.6464 37.4298 12.6704 37.1937C12.6909 36.9816 12.8175 36.8516 13.0433 36.8516C13.2829 36.8516 13.3444 37.0295 13.3958 37.18L13.3924 37.1835Z" fill="#1A1C22"/>
<path d="M27.3626 27.9832C27.2702 28.4861 26.8288 29.0473 26.4456 29.6256C26.3293 29.8035 26.1513 29.6085 26.0213 29.5434C24.2591 28.647 22.5654 27.6273 20.8991 26.5666C20.769 26.4845 20.6082 26.4229 20.6219 26.2073C20.6938 24.9105 22.1411 24.0996 23.2463 24.7428C24.3686 25.3964 25.4875 26.0533 26.6133 26.7C27.0375 26.943 27.366 27.2338 27.3592 27.9832H27.3626Z" fill="#F8F9FA"/>
<path d="M24.0519 30.8238C23.9595 30.9538 23.8569 31.0805 23.7747 31.2173C22.844 32.7708 22.6524 32.7947 21.2188 31.4979C21.7662 30.5672 22.3239 29.6468 22.8543 28.7058C23.0425 28.3705 23.217 28.2747 23.5318 28.5381C23.9287 28.8735 24.7294 28.894 24.7602 29.4107C24.7876 29.8658 24.3085 30.3516 24.0519 30.8238Z" fill="#F6F5F8"/>
<path d="M27.6403 27.1204C25.8644 25.9365 24.1057 24.7218 22.0801 24.0101C22.4462 23.6816 22.891 23.7911 23.3358 24.0545C24.5266 24.7526 25.7139 25.4472 26.8978 26.1554C27.2844 26.3881 27.7087 26.614 27.6403 27.1238V27.1204Z" fill="#C5C0D3"/>
<path d="M18.5352 24.8691C19.0484 24.9136 19.5411 24.9342 19.9004 25.4987C19.199 25.6732 18.8842 25.1908 18.5352 24.8691Z" fill="#ACA9B8"/>
<path d="M28.7636 30.8672C28.2401 30.6004 27.7165 30.5319 27.4941 29.9844C28.1066 29.9331 28.2332 30.0187 28.7636 30.8672Z" fill="#BAB3C7"/>
<path d="M31.4291 28.8253C31.3778 29.1914 31.3196 29.4959 30.9911 29.3762C30.5326 29.2085 29.862 29.4788 29.6533 28.8116C29.6054 28.6542 29.684 28.2676 30.057 28.3736C30.5292 28.5071 31.1212 28.3736 31.4257 28.8287L31.4291 28.8253Z" fill="#2A2A33"/>
<path d="M30.5944 30.4084C30.3035 30.1449 29.4926 30.6479 29.4447 29.7925C29.4242 29.4503 29.6397 29.2963 29.9716 29.4708C30.372 29.6796 31.0666 29.3306 31.1658 30.056C31.1966 30.2715 31.0871 30.6376 30.5944 30.4118V30.4084Z" fill="#2B2736"/>
<path d="M29.6019 24.1947C28.1819 24.3384 26.8406 24.1673 25.6875 23.2298C25.6943 22.9903 25.7012 22.7542 25.7046 22.5146C27.8911 24.0578 29.5779 23.9483 31.6515 22.1348C31.7062 22.0869 31.7986 22.0869 31.8739 22.0664C31.6994 23.5411 31.5215 23.7088 29.6019 24.1981V24.1947Z" fill="#CCBED6"/>
<path d="M23.7534 22.5259C23.8595 22.3617 23.9656 22.1974 24.0682 22.0332C25.3445 23.7611 27.0211 24.6645 29.2076 24.5071C29.4197 24.4934 29.6421 24.5071 29.8269 24.3634C30.1109 24.3155 30.3949 24.2641 30.7439 24.206C30.3333 24.8937 29.8235 25.1982 29.057 25.1709C26.8774 25.0922 25.081 24.2881 23.75 22.5293L23.7534 22.5259Z" fill="#CABED3"/>
<path d="M32.5245 20.5713C32.5792 20.626 32.6339 20.6842 32.6887 20.739C32.5142 21.1188 32.3363 21.4986 32.0352 21.8065C32.0523 21.3377 32.3534 20.9819 32.521 20.5713H32.5245Z" fill="#968EA2"/>
<path d="M25.6906 21.7212C23.8053 19.0831 25.5537 16.1576 27.966 15.8359C30.2483 15.8325 31.7093 16.8624 32.0378 18.7136C32.3218 20.3183 31.6443 21.7897 30.2585 22.5561C28.8796 23.3191 27.268 23.1241 26.0533 22.0463C25.9335 21.9402 25.8138 21.8307 25.6906 21.7212Z" fill="#0D1226"/>
<path d="M19.3805 22.8232C19.3805 23.1174 19.1888 23.2885 18.9425 23.2988C18.638 23.3125 18.4361 23.09 18.4395 22.7924C18.4395 22.4878 18.6448 22.3133 18.9664 22.3407C19.2539 22.3646 19.3873 22.5392 19.3839 22.8232H19.3805Z" fill="#E9E8EE"/>
<path d="M15.0915 45.8058C14.5098 46.1104 14.2395 45.5458 13.8426 45.3473C13.7297 45.2892 13.74 45.1489 13.8426 45.0804C13.9179 45.0325 14.0719 44.9949 14.1266 45.0394C14.4517 45.2891 14.9649 45.3097 15.0915 45.8092H15.0949L15.0915 45.8058Z" fill="#540B18"/>
<path d="M15.8765 44.2123C15.5925 44.4929 14.6516 44.2944 14.5455 43.9283C14.5284 43.8667 14.5626 43.7709 14.6071 43.7162C14.6858 43.6169 14.7987 43.6443 14.8945 43.6956C15.223 43.8667 15.5515 44.0412 15.88 44.2157H15.8731L15.8765 44.2123Z" fill="#4E0715"/>
<path d="M20.3075 36.6984C19.7806 36.9413 19.4897 36.4794 19.1134 36.2878C19.0107 36.2364 19.0039 36.1064 19.062 36.0106C19.127 35.9045 19.2434 35.8943 19.3358 35.9559C19.6745 36.1817 20.1672 36.2056 20.3109 36.6915L20.3075 36.6984Z" fill="#5A0717"/>
<path d="M20.0207 28.1786C20.0138 28.3018 19.983 28.401 19.8428 28.3976C19.5793 28.3942 19.3774 28.271 19.2884 28.0246C19.2542 27.9288 19.3466 27.8159 19.4698 27.8125C19.7333 27.8125 19.9146 27.9459 20.0207 28.1752V28.1786Z" fill="#DBE1E5"/>
<path d="M25.5125 31.0586C25.9915 31.1373 26.3132 31.3802 26.32 31.9003C26.3268 32.4204 26.012 32.7318 25.5262 32.7249C25.0506 32.7181 24.7152 32.417 24.7015 31.9037C24.6879 31.3734 25.0506 31.1612 25.5125 31.0586Z" fill="#D9435F"/>
<path d="M22.1328 25.1738C22.2355 25.232 22.3518 25.3004 22.4682 25.3654C23.238 25.8103 24.0079 26.2653 24.7846 26.6999C25.0652 26.8573 25.2705 26.9736 25.0447 27.3671C24.8394 27.7298 24.6512 27.7161 24.3467 27.5314C23.5631 27.0557 22.7659 26.5972 21.9789 26.1285C21.8078 26.0258 21.5306 25.9608 21.7154 25.6597C21.8249 25.4852 21.866 25.2491 22.1328 25.1738Z" fill="#282039"/>
<path d="M26.1774 27.7773C26.3622 27.7773 26.458 27.8903 26.482 28.0613C26.5025 28.2187 26.3759 28.318 26.2527 28.3317C26.0782 28.3488 25.9516 28.2393 25.9345 28.0545C25.9208 27.8903 26.0645 27.8492 26.1774 27.7808V27.7773Z" fill="#555756"/>
<path d="M23.3095 30.4972C23.0084 30.4321 22.8065 30.2371 22.8168 29.9497C22.827 29.6588 23.0187 29.4638 23.3574 29.498C23.6448 29.5254 23.7988 29.6965 23.8022 29.9702C23.8022 30.285 23.6106 30.4527 23.3095 30.4972Z" fill="#3D2B2D"/>
<path d="M22.4562 30.8262C22.836 30.8433 23.0207 31.0315 23.0242 31.3394C23.0242 31.6097 22.8428 31.8013 22.5657 31.8116C22.244 31.8219 22.0558 31.6371 22.0627 31.312C22.0695 31.0349 22.2372 30.8741 22.4596 30.8296L22.4562 30.8262Z" fill="#341E2A"/>
<path d="M31.0375 28.9682C30.6406 29.0708 30.2813 28.9887 29.7715 28.7458C30.3566 28.6055 30.7022 28.7697 31.0375 28.9682Z" fill="#C1BFCB"/>
<path d="M31.0278 30.0633C30.4392 30.2241 30.0902 30.0393 29.748 29.8204C30.1484 29.728 30.5111 29.8204 31.0278 30.0633Z" fill="#BCB1C6"/>
<path d="M25.3991 18.3095C25.5975 17.9399 25.8576 17.7141 26.3126 17.6183C27.3665 17.3993 28.4136 17.1221 29.4435 16.8005C30.0423 16.6123 30.4905 16.7286 30.8874 17.17C30.9285 17.6662 30.5179 17.7449 30.2031 17.8202C28.8173 18.1486 27.4555 18.5729 26.0629 18.874C25.6112 18.9698 25.1424 19.052 25.3991 18.306V18.3095Z" fill="#1C7ACE"/>
<path d="M25.3995 18.3098C25.4098 18.5117 25.3311 18.8265 25.6904 18.7238C27.3978 18.2448 29.1531 17.9471 30.816 17.3107C30.8537 17.297 30.8673 17.2217 30.8913 17.1738C31.124 17.3175 31.0658 17.6118 31.2232 17.7931C30.621 18.3201 29.834 18.3098 29.1189 18.4946C27.8255 18.8299 26.5629 19.2953 25.2284 19.4629C25.4029 19.0968 25.0026 18.6417 25.3995 18.3098Z" fill="#032050"/>
<path d="M25.2285 19.4666C26.9428 18.7926 28.7597 18.4881 30.5184 17.9748C30.7511 17.9064 30.9906 17.855 31.2233 17.7969C31.5312 18.1117 31.2062 18.1288 31.0317 18.1767C29.1737 18.6968 27.3123 19.21 25.4509 19.7164C25.2593 19.7678 25.2525 19.5933 25.2285 19.4632V19.4666Z" fill="#386DAA"/>
<path d="M23.9101 26.471C24.1325 26.6078 24.4609 26.7926 24.7689 27.0082C24.8647 27.0732 24.8134 27.2408 24.7073 27.2716C24.3412 27.3777 24.1359 27.0424 23.8519 26.9158C23.7219 26.8576 23.52 26.8063 23.5405 26.5976C23.5542 26.4744 23.6603 26.4333 23.9101 26.4744V26.471Z" fill="#A74F66"/>
<path d="M23.308 26.1588C23.2772 26.3298 23.1951 26.4393 23.0924 26.4085C22.6784 26.2854 22.2849 26.1108 22.0317 25.7413C21.9804 25.666 22.1344 25.5086 22.2165 25.5497C22.5963 25.7379 22.9556 25.9603 23.308 26.1588Z" fill="#3C709F"/>
<rect x="25.793" width="24.4205" height="50.8444" rx="12.2103" transform="rotate(30.4842 25.793 0)" stroke="black" stroke-width="0.983795"/>
<mask id="path-110-outside-1_360_95033" maskUnits="userSpaceOnUse" x="48.4531" y="13.082" width="84" height="37" fill="black">
<rect fill="white" x="48.4531" y="13.082" width="84" height="37"/>
<path d="M57.0065 24.912V31.4654H50.4531V15.082H66.8364V16.7204H68.4748V23.2737H66.8364V24.912H57.0065ZM57.0065 18.3587V21.6354H61.9215V18.3587H57.0065Z"/>
<path d="M86.4836 29.827V31.4654H71.7386V29.827H70.1003V15.082H76.6536V28.1887H81.5686V15.082H88.122V29.827H86.4836Z"/>
<path d="M96.3008 23.2737V31.4654H89.7475V15.082H96.3008V16.7204H97.9392V18.3587H99.5775V19.997H101.216V18.3587H102.854V16.7204H104.492V15.082H111.046V31.4654H104.492V23.2737H102.854V24.912H101.216V26.5504H99.5775V24.912H97.9392V23.2737H96.3008Z"/>
<path d="M119.244 24.912V31.4654H112.691V15.082H129.074V16.7204H130.712V23.2737H129.074V24.912H119.244ZM119.244 18.3587V21.6354H124.159V18.3587H119.244Z"/>
<path d="M55.5679 41.8894V48.2829H50.4531V35.496H55.5679V36.7747H56.8466V38.0534H58.1253V39.3321H59.404V38.0534H60.6826V36.7747H61.9613V35.496H67.0761V48.2829H61.9613V41.8894H60.6826V43.1681H59.404V44.4468H58.1253V43.1681H56.8466V41.8894H55.5679Z"/>
<path d="M69.6385 48.2829V47.0042H68.3598V36.7747H69.6385V35.496H82.4254V38.0534H73.4745V40.6107H77.3106V43.1681H73.4745V45.7255H82.4254V48.2829H69.6385Z"/>
<path d="M88.8088 41.8894V48.2829H83.694V35.496H88.8088V36.7747H90.0875V38.0534H91.3662V39.3321H92.6449V38.0534H93.9236V36.7747H95.2023V35.496H100.317V48.2829H95.2023V41.8894H93.9236V43.1681H92.6449V44.4468H91.3662V43.1681H90.0875V41.8894H88.8088Z"/>
<path d="M102.879 48.2829V47.0042H101.601V36.7747H102.879V35.496H115.666V38.0534H106.715V40.6107H110.552V43.1681H106.715V45.7255H115.666V48.2829H102.879Z"/>
<path d="M116.935 48.2829V45.7255H125.886V43.1681H118.214V41.8894H116.935V36.7747H118.214V35.496H131.001V38.0534H122.05V40.6107H129.722V41.8894H131.001V47.0042H129.722V48.2829H116.935Z"/>
</mask>
<path d="M57.0065 24.912V31.4654H50.4531V15.082H66.8364V16.7204H68.4748V23.2737H66.8364V24.912H57.0065ZM57.0065 18.3587V21.6354H61.9215V18.3587H57.0065Z" fill="white"/>
<path d="M86.4836 29.827V31.4654H71.7386V29.827H70.1003V15.082H76.6536V28.1887H81.5686V15.082H88.122V29.827H86.4836Z" fill="white"/>
<path d="M96.3008 23.2737V31.4654H89.7475V15.082H96.3008V16.7204H97.9392V18.3587H99.5775V19.997H101.216V18.3587H102.854V16.7204H104.492V15.082H111.046V31.4654H104.492V23.2737H102.854V24.912H101.216V26.5504H99.5775V24.912H97.9392V23.2737H96.3008Z" fill="white"/>
<path d="M119.244 24.912V31.4654H112.691V15.082H129.074V16.7204H130.712V23.2737H129.074V24.912H119.244ZM119.244 18.3587V21.6354H124.159V18.3587H119.244Z" fill="white"/>
<path d="M55.5679 41.8894V48.2829H50.4531V35.496H55.5679V36.7747H56.8466V38.0534H58.1253V39.3321H59.404V38.0534H60.6826V36.7747H61.9613V35.496H67.0761V48.2829H61.9613V41.8894H60.6826V43.1681H59.404V44.4468H58.1253V43.1681H56.8466V41.8894H55.5679Z" fill="white"/>
<path d="M69.6385 48.2829V47.0042H68.3598V36.7747H69.6385V35.496H82.4254V38.0534H73.4745V40.6107H77.3106V43.1681H73.4745V45.7255H82.4254V48.2829H69.6385Z" fill="white"/>
<path d="M88.8088 41.8894V48.2829H83.694V35.496H88.8088V36.7747H90.0875V38.0534H91.3662V39.3321H92.6449V38.0534H93.9236V36.7747H95.2023V35.496H100.317V48.2829H95.2023V41.8894H93.9236V43.1681H92.6449V44.4468H91.3662V43.1681H90.0875V41.8894H88.8088Z" fill="white"/>
<path d="M102.879 48.2829V47.0042H101.601V36.7747H102.879V35.496H115.666V38.0534H106.715V40.6107H110.552V43.1681H106.715V45.7255H115.666V48.2829H102.879Z" fill="white"/>
<path d="M116.935 48.2829V45.7255H125.886V43.1681H118.214V41.8894H116.935V36.7747H118.214V35.496H131.001V38.0534H122.05V40.6107H129.722V41.8894H131.001V47.0042H129.722V48.2829H116.935Z" fill="white"/>
<path d="M57.0065 24.912V31.4654H50.4531V15.082H66.8364V16.7204H68.4748V23.2737H66.8364V24.912H57.0065ZM57.0065 18.3587V21.6354H61.9215V18.3587H57.0065Z" stroke="black" stroke-width="2.69198" mask="url(#path-110-outside-1_360_95033)"/>
<path d="M86.4836 29.827V31.4654H71.7386V29.827H70.1003V15.082H76.6536V28.1887H81.5686V15.082H88.122V29.827H86.4836Z" stroke="black" stroke-width="2.69198" mask="url(#path-110-outside-1_360_95033)"/>
<path d="M96.3008 23.2737V31.4654H89.7475V15.082H96.3008V16.7204H97.9392V18.3587H99.5775V19.997H101.216V18.3587H102.854V16.7204H104.492V15.082H111.046V31.4654H104.492V23.2737H102.854V24.912H101.216V26.5504H99.5775V24.912H97.9392V23.2737H96.3008Z" stroke="black" stroke-width="2.69198" mask="url(#path-110-outside-1_360_95033)"/>
<path d="M119.244 24.912V31.4654H112.691V15.082H129.074V16.7204H130.712V23.2737H129.074V24.912H119.244ZM119.244 18.3587V21.6354H124.159V18.3587H119.244Z" stroke="black" stroke-width="2.69198" mask="url(#path-110-outside-1_360_95033)"/>
<path d="M55.5679 41.8894V48.2829H50.4531V35.496H55.5679V36.7747H56.8466V38.0534H58.1253V39.3321H59.404V38.0534H60.6826V36.7747H61.9613V35.496H67.0761V48.2829H61.9613V41.8894H60.6826V43.1681H59.404V44.4468H58.1253V43.1681H56.8466V41.8894H55.5679Z" stroke="black" stroke-width="2.69198" mask="url(#path-110-outside-1_360_95033)"/>
<path d="M69.6385 48.2829V47.0042H68.3598V36.7747H69.6385V35.496H82.4254V38.0534H73.4745V40.6107H77.3106V43.1681H73.4745V45.7255H82.4254V48.2829H69.6385Z" stroke="black" stroke-width="2.69198" mask="url(#path-110-outside-1_360_95033)"/>
<path d="M88.8088 41.8894V48.2829H83.694V35.496H88.8088V36.7747H90.0875V38.0534H91.3662V39.3321H92.6449V38.0534H93.9236V36.7747H95.2023V35.496H100.317V48.2829H95.2023V41.8894H93.9236V43.1681H92.6449V44.4468H91.3662V43.1681H90.0875V41.8894H88.8088Z" stroke="black" stroke-width="2.69198" mask="url(#path-110-outside-1_360_95033)"/>
<path d="M102.879 48.2829V47.0042H101.601V36.7747H102.879V35.496H115.666V38.0534H106.715V40.6107H110.552V43.1681H106.715V45.7255H115.666V48.2829H102.879Z" stroke="black" stroke-width="2.69198" mask="url(#path-110-outside-1_360_95033)"/>
<path d="M116.935 48.2829V45.7255H125.886V43.1681H118.214V41.8894H116.935V36.7747H118.214V35.496H131.001V38.0534H122.05V40.6107H129.722V41.8894H131.001V47.0042H129.722V48.2829H116.935Z" stroke="black" stroke-width="2.69198" mask="url(#path-110-outside-1_360_95033)"/>
</svg>
