<svg width="16" height="19" viewBox="0 0 16 19" fill="none" xmlns="http://www.w3.org/2000/svg">
<path d="M0 8.84592C2.40119 11.8705 4.72936 14.5934 6.96734 18.0371C9.4005 12.4033 11.8909 6.74989 16 0.627524L14.8928 0.0371094C11.4231 4.32085 8.72743 8.37578 6.38513 13.1947C4.75628 11.4865 2.12389 9.06923 0.516585 7.82729L0 8.84592Z" fill="#094CE5"/>
<path d="M0 8.84592C2.40119 11.8705 4.72936 14.5934 6.96734 18.0371C9.4005 12.4033 11.8909 6.74989 16 0.627524L14.8928 0.0371094C11.4231 4.32085 8.72743 8.37578 6.38513 13.1947C4.75628 11.4865 2.12389 9.06923 0.516585 7.82729L0 8.84592Z" fill="#094CE5"/>
</svg>
