<svg width="60" height="56" viewBox="0 0 60 56" fill="none" xmlns="http://www.w3.org/2000/svg">
<path d="M43.556 21.5009V26.7987L48.7449 27.085V32.3599H59.373V27.0897H54.1395V21.8305L48.9103 21.5684V16.226H43.6645V10.8587H38.3596V5.38196H33.0906V0H27.7667V5.15772H22.4707C22.3919 6.94887 22.3186 8.61359 22.2409 10.3812H16.9503V15.6432H11.5132V20.9737H6.0757V26.1809H0.722092V31.5025H11.2387V26.4699H16.6946V21.1963H22.0983V15.921H27.4345C27.5368 14.1237 27.6337 12.4324 27.7332 10.6886H32.93V16.0927H38.2335V21.5009H43.556Z" fill="#FFCE00"/>
<path d="M43.556 44.7597V50.0575L48.7449 50.3438V55.6187H59.373V50.3485H54.1395V45.0893L48.9103 44.8272V39.4848H43.6645V34.1174H38.3596V28.6408H33.0906V23.2588H27.7667V28.4165H22.4707C22.3919 30.2077 22.3186 31.8724 22.2409 33.64H16.9503V38.902H11.5132V44.2325H6.0757V49.4397H0.722092V54.7613H11.2387V49.7287H16.6946V44.4551H22.0983V39.1798H27.4345C27.5368 37.3825 27.6337 35.6912 27.7332 33.9474H32.93V39.3515H38.2335V44.7597H43.556Z" fill="#FFCE00"/>
</svg>
