<svg width="403" height="124" viewBox="0 0 403 124" fill="none" xmlns="http://www.w3.org/2000/svg">
<g clip-path="url(#clip0_360_91745)">
<path d="M211.207 78.499H201.254V113.318H211.207V78.499Z" fill="#FFCC66"/>
<path d="M201.255 78.499H194.121V113.318H201.255V78.499Z" fill="#CC9933"/>
<path d="M236.261 12.5742H201.256V78.4987H236.261V12.5742Z" fill="#CCFF66"/>
<path d="M201.256 12.5742H175.52V78.4987H201.256V12.5742Z" fill="#99CC33"/>
<path d="M116.031 78.499H106.078V113.318H116.031V78.499Z" fill="#FFCC66"/>
<path d="M106.074 78.499H98.9395V113.318H106.074V78.499Z" fill="#CC9933"/>
<path d="M141.083 3.38281H106.078V78.4988H141.083V3.38281Z" fill="#CCFF66"/>
<path d="M106.076 3.38281H80.3398V78.4988H106.076V3.38281Z" fill="#99CC33"/>
<path d="M75.5234 88.1408V93.707H103.141V88.1408H75.5234Z" fill="#FFCC66"/>
<path d="M76.7764 58.8857H72.6211V93.7044H76.7764V58.8857Z" fill="#FFCC66"/>
<path d="M72.6195 58.8857H69.6406V93.7044H72.6195V58.8857Z" fill="#CC9933"/>
<path d="M91.7347 29.9082H72.1016V72.0377H91.7347V29.9082Z" fill="#CCFF66"/>
<path d="M72.1006 29.9082H57.666V72.0377H72.1006V29.9082Z" fill="#99CC33"/>
<path d="M309.751 78.499H299.799V113.318H309.751V78.499Z" fill="#FFCC66"/>
<path d="M299.798 78.499H292.664V113.318H299.798V78.499Z" fill="#CC9933"/>
<path d="M299.799 12.5742H274.062V78.4987H299.799V12.5742Z" fill="#99CC33"/>
<path d="M349.132 28.9766H344.977V63.7953H349.132V28.9766Z" fill="#FFCC66"/>
<path d="M344.975 28.9775H341.996V63.7962H344.975V28.9775Z" fill="#CC9933"/>
<path d="M364.086 0H344.453V42.1295H364.086V0Z" fill="#CCFF66"/>
<path d="M333.574 58.2296V63.7959H346.137V58.2296H333.574Z" fill="#FFCC66"/>
<path d="M344.454 0H330.02V42.1295H344.454V0Z" fill="#99CC33"/>
<path d="M334.804 12.5752H299.799V78.4997H334.804V12.5752Z" fill="#CCFF66"/>
<path d="M31.9654 104.764C31.9654 103.465 30.912 102.412 29.6126 102.412C28.3132 102.412 27.2598 103.465 27.2598 104.764V114.053C27.2598 115.352 28.3132 116.405 29.6126 116.405C30.912 116.405 31.9654 115.352 31.9654 114.053V104.764Z" fill="#339999"/>
<path d="M21.3739 92.6267C20.4551 91.7081 18.9654 91.7081 18.0465 92.6267C17.1277 93.5453 17.1277 95.0347 18.0465 95.9534L27.4556 105.36C28.3745 106.279 29.8642 106.279 30.7831 105.36C31.7019 104.442 31.7019 102.952 30.7831 102.034L21.3739 92.6267Z" fill="#339999"/>
<path d="M38.1051 99.8689C39.024 98.9502 39.024 97.4608 38.1051 96.5422C37.1863 95.6236 35.6965 95.6236 34.7777 96.5422L29.5065 101.812C28.5876 102.731 28.5876 104.22 29.5065 105.139C30.4253 106.058 31.915 106.058 32.8339 105.139L38.1051 99.8689Z" fill="#339999"/>
<path d="M44.8822 114.062C44.8822 114.947 45.5998 115.664 46.4851 115.664C47.3703 115.664 48.0879 114.947 48.0879 114.062V107.73C48.0879 106.845 47.3703 106.128 46.4851 106.128C45.5998 106.128 44.8822 106.845 44.8822 107.73V114.062Z" fill="#339999"/>
<path d="M45.6869 105.875C45.061 106.501 45.061 107.516 45.6869 108.141C46.3129 108.767 47.3277 108.767 47.9537 108.141L54.369 101.727C54.9949 101.102 54.9949 100.087 54.369 99.4613C53.7431 98.8355 52.7282 98.8355 52.1023 99.4613L45.6869 105.875Z" fill="#339999"/>
<path d="M44.2932 107.989C44.9192 108.614 45.934 108.614 46.56 107.989C47.1859 107.363 47.1859 106.348 46.56 105.722L42.9653 102.128C42.3393 101.503 41.3245 101.503 40.6985 102.128C40.0726 102.754 40.0726 103.769 40.6985 104.395L44.2932 107.989Z" fill="#339999"/>
<path d="M176.634 105.886C176.634 104.754 175.716 103.836 174.584 103.836C173.451 103.836 172.533 104.754 172.533 105.886V113.983C172.533 115.115 173.451 116.033 174.584 116.033C175.716 116.033 176.634 115.115 176.634 113.983V105.886Z" fill="#339999"/>
<path d="M167.404 95.3063C166.604 94.5058 165.305 94.5058 164.505 95.3063C163.704 96.1069 163.704 97.4048 164.505 98.2054L172.708 106.407C173.508 107.207 174.807 107.207 175.607 106.407C176.408 105.606 176.408 104.308 175.607 103.507L167.404 95.3063Z" fill="#339999"/>
<path d="M181.987 101.616C182.788 100.816 182.788 99.5176 181.987 98.7171C181.186 97.9165 179.888 97.9166 179.087 98.7171L174.492 103.312C173.691 104.112 173.691 105.41 174.492 106.211C175.292 107.011 176.591 107.011 177.391 106.211L181.987 101.616Z" fill="#339999"/>
<path d="M187.893 113.992C187.893 114.763 188.519 115.389 189.29 115.389C190.062 115.389 190.688 114.763 190.688 113.992V108.474C190.688 107.702 190.062 107.077 189.29 107.077C188.519 107.077 187.893 107.702 187.893 108.474V113.992Z" fill="#339999"/>
<path d="M188.596 106.851C188.05 107.397 188.05 108.281 188.596 108.827C189.142 109.372 190.026 109.372 190.572 108.827L196.164 103.236C196.71 102.69 196.71 101.806 196.164 101.261C195.618 100.715 194.734 100.715 194.188 101.261L188.596 106.851Z" fill="#339999"/>
<path d="M187.382 108.697C187.927 109.242 188.812 109.242 189.358 108.697C189.903 108.151 189.903 107.267 189.358 106.721L186.225 103.589C185.679 103.044 184.795 103.044 184.249 103.589C183.703 104.135 183.703 105.019 184.249 105.565L187.382 108.697Z" fill="#339999"/>
<path d="M213.688 113.672C213.688 114.804 214.606 115.722 215.739 115.722C216.871 115.722 217.789 114.804 217.789 113.672V105.575C217.789 104.443 216.871 103.525 215.739 103.525C214.606 103.525 213.688 104.443 213.688 105.575V113.672Z" fill="#339999"/>
<path d="M214.718 103.197C213.917 103.998 213.917 105.296 214.718 106.096C215.519 106.897 216.817 106.897 217.618 106.096L225.821 97.8952C226.622 97.0947 226.622 95.7967 225.821 94.9962C225.02 94.1956 223.722 94.1956 222.921 94.9962L214.718 103.197Z" fill="#339999"/>
<path d="M212.934 105.903C213.734 106.703 215.033 106.703 215.833 105.903C216.634 105.102 216.634 103.804 215.833 103.004L211.238 98.4092C210.437 97.6086 209.139 97.6086 208.338 98.4092C207.537 99.2097 207.537 100.508 208.338 101.308L212.934 105.903Z" fill="#339999"/>
<path d="M292.177 107.428C292.177 106.657 291.552 106.031 290.78 106.031C290.008 106.031 289.383 106.657 289.383 107.428V112.946C289.383 113.717 290.008 114.343 290.78 114.343C291.552 114.343 292.177 113.717 292.177 112.946V107.428Z" fill="#339999"/>
<path d="M285.884 100.218C285.338 99.6728 284.454 99.6728 283.908 100.218C283.362 100.764 283.362 101.648 283.908 102.194L289.5 107.784C290.046 108.33 290.93 108.33 291.476 107.785C292.021 107.239 292.021 106.355 291.476 105.809L285.884 100.218Z" fill="#339999"/>
<path d="M295.822 104.52C296.368 103.974 296.368 103.09 295.822 102.544C295.276 101.999 294.392 101.999 293.846 102.544L290.713 105.676C290.168 106.222 290.168 107.106 290.713 107.652C291.259 108.197 292.143 108.197 292.689 107.652L295.822 104.52Z" fill="#339999"/>
<path d="M345.531 104.517C345.531 103.385 344.613 102.467 343.48 102.467C342.348 102.467 341.43 103.385 341.43 104.517V112.614C341.43 113.746 342.348 114.664 343.48 114.664C344.613 114.664 345.531 113.746 345.531 112.614V104.517Z" fill="#339999"/>
<path d="M336.297 93.9353C335.496 93.1347 334.198 93.1347 333.397 93.9352C332.596 94.7358 332.596 96.0337 333.397 96.8343L341.6 105.035C342.401 105.836 343.699 105.836 344.5 105.035C345.301 104.235 345.301 102.937 344.5 102.136L336.297 93.9353Z" fill="#339999"/>
<path d="M350.88 100.248C351.68 99.4474 351.68 98.1495 350.88 97.3489C350.079 96.5484 348.781 96.5484 347.98 97.3489L343.384 101.943C342.584 102.744 342.584 104.042 343.384 104.842C344.185 105.643 345.483 105.643 346.284 104.842L350.88 100.248Z" fill="#339999"/>
<path d="M357.493 105.484C356.947 106.03 356.947 106.914 357.493 107.46C358.038 108.005 358.923 108.005 359.468 107.46L365.06 101.869C365.606 101.323 365.606 100.439 365.06 99.8934C364.515 99.3479 363.63 99.3479 363.085 99.8934L357.493 105.484Z" fill="#339999"/>
<path d="M356.274 107.326C356.82 107.871 357.705 107.871 358.25 107.326C358.796 106.78 358.796 105.896 358.25 105.35L355.118 102.218C354.572 101.673 353.687 101.673 353.142 102.218C352.596 102.764 352.596 103.648 353.142 104.194L356.274 107.326Z" fill="#339999"/>
<path d="M397.656 113.318H5.34378C2.39249 113.318 0 115.71 0 118.659C0 121.609 2.39249 124 5.34378 124H397.656C400.608 124 403 121.609 403 118.659C403 115.71 400.608 113.318 397.656 113.318Z" fill="#336666"/>
</g>
<defs>
<clipPath id="clip0_360_91745">
<rect width="403" height="124" fill="white"/>
</clipPath>
</defs>
</svg>
