<svg width="29" height="35" viewBox="0 0 29 35" fill="none" xmlns="http://www.w3.org/2000/svg">
<rect x="15.9707" width="15.1199" height="31.4803" rx="7.55997" transform="rotate(30.4842 15.9707 0)" stroke="black" stroke-width="0.609116"/>
<path d="M4.0773 28.4875C3.90358 28.2778 3.70444 28.0808 3.69596 27.782C3.61758 27.4558 3.58156 27.1656 3.74257 26.816C3.89934 26.4792 3.83155 26.0788 3.42903 25.8309C3.17904 25.6762 2.89304 25.5131 2.95236 25.1339C2.87186 24.0217 3.09006 22.9497 3.40149 21.8926C3.49047 21.5875 3.69808 21.3333 3.78282 21.0218C3.8379 20.8206 3.99044 20.7019 4.20653 20.8291C4.39508 20.9413 4.43109 21.1151 4.30398 21.3015C4.21924 21.4244 4.11967 21.5388 4.0434 21.7824C4.2722 21.4138 4.49676 21.4328 4.79548 21.5494C5.3018 21.7485 5.61323 22.2485 6.15133 22.384C6.74028 22.6701 7.24661 23.0853 7.79742 23.4306C8.24231 23.7102 8.29316 23.7018 8.56433 23.2463C8.72534 22.973 8.88423 22.6976 9.04735 22.4264C9.24438 22.1023 9.1554 21.9137 8.85033 21.7421C8.1491 21.3502 7.50295 20.8778 6.86951 20.3842C6.342 19.9753 5.80813 19.5791 5.40985 19.0262C5.28274 18.8504 5.23189 18.6809 5.23613 18.4775C5.3018 18.0686 5.57086 17.7572 5.76576 17.4119C6.17252 16.6852 6.60046 15.9713 7.0284 15.2573C7.09831 15.1429 7.11526 14.9502 7.32499 14.9713C7.70845 15.2531 7.91182 15.6916 8.24231 16.0242C9.4075 17.1915 10.7316 18.1406 12.1256 19.005C12.3925 19.1703 12.6997 19.2889 12.848 19.6003C12.8946 20.1024 12.5302 20.4392 12.312 20.8163C10.4668 24.0047 8.61306 27.191 6.75087 30.3709C6.66825 30.5128 6.61105 30.6823 6.4225 30.7289C6.1132 30.712 5.92253 30.4895 5.70856 30.3116C5.1069 29.7544 4.56879 29.14 4.07518 28.4854L4.0773 28.4875Z" fill="#F83857"/>
<path d="M20.242 22.5995C19.7716 23.4131 19.1551 24.1927 18.6827 25.0062C18.6234 25.2922 18.3988 25.5019 18.259 25.7477C18.0916 26.0421 18.0345 26.1862 17.6912 26.1438C16.7633 26.0294 15.9202 25.6608 15.0812 25.2879C14.5304 25.0443 14.005 24.7477 13.4754 24.4596C13.3123 24.3706 13.1597 24.2605 12.9606 24.3558C12.1683 24.538 12.1068 25.1418 12.1301 25.7943C12.342 26.2159 12.8123 26.3027 13.1407 26.5739C13.7826 27.0209 14.5113 27.2836 15.2359 27.5548C15.2783 27.576 15.3164 27.6035 15.3524 27.6353C15.4604 27.7454 15.5981 27.8069 15.7337 27.8747C15.8227 27.9192 15.9096 27.9721 15.9774 28.0505C16.0324 28.1162 16.1087 28.2306 16.0621 28.2708C15.6426 28.6479 16.4307 29.042 15.9286 29.4551C15.507 29.8004 15.1405 30.2686 14.7126 30.6139C14.3503 30.9169 13.9457 31.1457 13.4987 31.2961C12.7805 31.4931 12.075 31.7367 11.3336 31.8448C10.3061 31.9952 9.30825 31.8236 8.30831 31.6287C8.18331 31.6033 8.11764 31.4995 8.06468 31.3935C7.99053 31.2389 7.88037 31.1902 7.70029 31.205C6.9694 31.2664 6.72365 31.0186 6.7978 30.3216C6.9927 29.7729 7.35285 29.3153 7.62826 28.8089C8.0096 28.3068 8.43542 28.5865 8.85065 28.7433C8.90997 28.7263 8.96293 28.6967 9.01378 28.6606C9.09852 28.5907 9.17266 28.5123 9.22351 28.4149C9.24046 28.3789 9.25952 28.3429 9.28071 28.3068C9.32732 28.2179 9.35274 28.1225 9.38875 28.0293C9.41841 27.9509 9.45443 27.8747 9.4968 27.8005C9.56459 27.6628 9.69594 27.5738 9.76161 27.434C9.76797 27.3938 9.78068 27.3535 9.79339 27.3154C9.81881 27.237 9.85695 27.1671 9.90567 27.1014C9.93957 27.0506 9.9777 27.0018 10.0116 26.951C10.0519 26.8747 10.0921 26.8006 10.1091 26.7158C10.1112 26.612 10.073 26.5188 10.0222 26.432C9.99677 26.3896 9.97135 26.3387 9.92898 26.3218C9.43112 26.1375 9.43536 25.7964 9.63662 25.3918C10.1281 24.5359 10.5518 23.6376 11.1598 22.8516C11.2742 22.7902 11.3971 22.7839 11.5221 22.7966C11.7848 22.7923 11.9776 23.0995 12.2699 22.9618C12.3462 22.8961 12.4204 22.8283 12.4691 22.7394C12.4882 22.7055 12.5115 22.6737 12.5348 22.6398C12.5941 22.5614 12.6428 22.4788 12.6703 22.3835C12.6831 22.3453 12.7021 22.3114 12.7212 22.2754C12.7826 22.1758 12.8462 22.0741 12.861 21.9534C12.8864 21.8559 12.9225 21.7606 12.9754 21.6737C13.0241 21.589 13.0941 21.5191 13.1364 21.4301C13.1534 21.375 13.1767 21.3221 13.2 21.2691C13.2381 21.1822 13.308 21.1102 13.3292 21.0149C13.2127 20.7691 12.9076 20.7225 12.7826 20.4853C12.7869 19.9387 13.0517 19.7586 13.5178 19.9853C13.7254 20.087 13.916 20.2204 14.1533 20.2543C15.1469 20.6505 16.0642 21.2098 17.0684 21.5869C17.9921 21.9343 18.9136 22.2733 19.903 22.3813C20.0386 22.3962 20.2102 22.3983 20.242 22.5953V22.5995Z" fill="#F83857"/>
<path d="M8.85169 13.2424C9.32836 13.7742 9.78172 14.3314 10.3707 14.7529C10.627 14.7911 10.8092 14.9606 11.0041 15.111C11.86 15.7783 12.7604 16.38 13.6713 16.9668C14.2666 17.3503 14.2815 17.4519 13.9192 18.0451C13.629 18.5239 13.4722 19.0917 13.0019 19.454C12.7943 19.5323 12.6481 19.3883 12.4977 19.2972C11.0274 18.3989 9.60377 17.4329 8.36655 16.2253C7.99369 15.8609 7.56998 15.5071 7.46829 14.9436C7.41745 14.2381 7.94073 13.7911 8.2352 13.2403C8.4407 13.2403 8.64831 13.1768 8.85381 13.2467L8.85169 13.2424Z" fill="#FCFCFC"/>
<path d="M20.3444 22.2192C20.2787 22.2553 20.213 22.2934 20.1452 22.3294C19.5986 22.5815 19.086 22.3167 18.5902 22.1769C17.1984 21.7871 15.8933 21.179 14.6116 20.5117C14.2981 20.3486 14.2451 20.1367 14.4167 19.8592C14.5672 19.6156 14.6943 19.3614 14.8574 19.1262C15.4633 18.0055 15.4866 17.9822 16.6094 18.569C17.7449 19.1622 18.9271 19.6241 20.1558 19.9736C20.302 20.016 20.4461 20.0647 20.5456 20.1897C20.8634 20.2935 21.1897 20.2999 21.5519 20.2554C21.3846 20.7363 20.9672 21.0435 20.8359 21.5053C20.6219 21.6006 20.4143 21.7129 20.1664 21.7744C20.2257 21.9248 20.499 21.9947 20.3422 22.215L20.3444 22.2192Z" fill="#FBFBFC"/>
<path d="M18.0676 26.3398C17.6926 26.7805 17.5528 27.3779 17.11 27.772C16.824 27.9012 16.5443 27.9012 16.2329 27.8207C14.8749 27.4669 13.6123 26.9076 12.4323 26.1492C12.1653 25.9776 12.1293 25.7763 12.2713 25.5094C12.4365 25.198 12.6124 24.8929 12.7924 24.59C12.9789 24.2764 13.1844 24.2404 13.4979 24.4205C14.4576 24.9713 15.4533 25.448 16.4977 25.8187C16.9108 25.9649 17.3409 26.02 17.7582 26.1344C17.8875 26.1704 18.0337 26.1598 18.0633 26.3356L18.0676 26.3398Z" fill="#FAFBFB"/>
<path d="M4.22282 20.3014C4.33087 19.6828 4.7927 19.24 5.02998 18.6871C5.14862 18.6575 5.21641 18.7274 5.27785 18.8121C6.14856 19.9985 7.37942 20.7506 8.57639 21.5429C8.71621 21.634 8.8518 21.7314 8.99586 21.8162C9.20559 21.939 9.26491 22.0916 9.13992 22.3161C8.93866 22.6826 8.71621 23.0364 8.51071 23.3987C8.36242 23.6593 8.14845 23.6889 7.91753 23.5364C6.74598 22.7674 5.51936 22.0683 4.57026 21.0027C4.39019 20.7993 4.23341 20.5874 4.2207 20.3014H4.22282Z" fill="#FAFBFB"/>
<path d="M20.5521 20.1913C19.2767 19.9985 18.1285 19.4519 16.9739 18.9223C16.6243 18.7613 16.2705 18.6045 15.9443 18.4033C15.6371 18.2126 15.474 18.2889 15.3341 18.5939C15.2367 18.8058 15.099 18.9964 14.9782 19.1977C14.8892 19.1956 14.8575 19.1363 14.8426 19.06C14.8363 18.9032 14.8935 18.757 14.9782 18.6363C15.2155 18.291 15.0651 18.1088 14.7537 17.9245C14.3914 17.7105 14.2537 17.9118 14.0948 18.1872C13.8342 18.6342 13.5842 19.0918 13.2834 19.5155C13.1987 19.6087 13.0991 19.6744 12.9656 19.6617C12.9169 19.6489 12.883 19.6172 12.8597 19.5727C12.8618 19.4879 12.9148 19.4477 12.9889 19.4244C13.3215 18.8481 13.6457 18.2655 13.9931 17.6999C14.116 17.5008 14.08 17.4266 13.8914 17.2953C12.9889 16.6703 12.0377 16.1174 11.1797 15.4267C10.9085 15.2085 10.6458 14.9797 10.3789 14.7552C10.4234 14.7488 10.4679 14.7446 10.5103 14.7382C10.6543 14.6619 10.773 14.7382 10.8789 14.8166C11.0907 14.9691 11.3386 15.0051 11.578 15.0793C11.9953 15.2106 12.2496 15.0772 12.4974 14.717C12.7008 14.4247 12.6839 13.9861 13.0758 13.8209C13.1076 13.8633 13.1393 13.9056 13.1711 13.948C13.3576 13.7361 13.3279 13.429 13.4974 13.2107C13.5397 13.1493 13.5969 13.1091 13.6732 13.1006C13.7071 13.1472 13.741 13.1938 13.7728 13.2425C13.938 13.5518 13.7283 13.787 13.5991 14.0243C13.4063 14.3802 13.116 14.6641 12.8682 14.9797C12.7072 15.1831 12.5334 15.3971 12.6584 15.7509C12.8491 15.4818 12.9677 15.2255 13.133 15.0009C13.5461 14.4353 13.9952 14.323 14.6117 14.6513C15.3511 15.0454 16.0671 15.4818 16.7874 15.9097C17.5332 16.3525 17.637 16.8249 17.2027 17.5919C17.1116 17.7507 17.0014 17.9012 16.9442 18.185C17.3277 18.0367 17.4315 17.7486 17.5183 17.4669C17.7005 16.8822 17.9442 16.3335 18.4272 15.9331C18.5967 15.7932 18.7746 15.5856 19.0394 15.7784C19.0394 15.8165 19.0437 15.8525 19.0458 15.8907C19.0077 16.183 18.7301 16.2572 18.5479 16.3991C18.3234 16.5771 18.4356 16.6682 18.567 16.7932C18.4102 17.1851 18.0501 17.433 17.87 17.8164C17.6243 18.3439 17.6327 18.452 18.1475 18.9858C18.478 19.329 18.7937 19.3926 19.2153 19.1998C19.2449 19.1871 19.2788 19.1829 19.3127 19.185C19.3551 19.1871 19.3953 19.1913 19.4377 19.1935C19.7513 19.543 20.122 19.7909 20.6029 19.8544C20.7258 19.8714 20.8614 19.9222 20.8804 20.0875C20.7681 20.1087 20.641 20.0917 20.5542 20.1934L20.5521 20.1913Z" fill="#1B1A24"/>
<path d="M23.1574 17.2596C23.7039 16.2978 24.2251 15.3212 24.8035 14.3785C27.3436 10.2367 25.5958 5.04212 21.0092 3.43628C18.3356 2.49989 15.8527 3.05494 13.677 4.91289C12.5457 5.87893 11.9525 7.21149 11.2089 8.44023C10.6009 9.44653 10.0268 10.4719 9.43357 11.4867C9.33399 11.6583 9.25773 11.8553 8.93359 11.9972C9.3573 11.2536 9.7238 10.599 10.1009 9.95074C10.7428 8.8491 11.3932 7.75171 12.0372 6.65008C14.5456 2.34736 20.2889 1.51901 23.8819 4.94467C26.3182 7.26869 26.8754 11.2155 25.1721 14.12C24.5365 15.2068 23.8988 16.2915 23.2633 17.3762C23.1743 17.3868 23.1213 17.3635 23.1574 17.2596Z" fill="#3E6B9F"/>
<path d="M19.0354 15.7766C18.3278 15.9185 18.0736 16.4947 17.8194 17.0625C17.724 17.2744 17.6541 17.501 17.5821 17.7235C17.4296 18.1853 17.1414 18.4374 16.6033 18.3506C16.7919 18.0137 16.9826 17.6875 17.1605 17.3549C17.438 16.8337 17.3639 16.446 16.8787 16.1452C16.0674 15.6452 15.2432 15.1643 14.4085 14.6982C13.9954 14.4673 13.5654 14.6156 13.2815 15.0372C13.1692 15.2046 13.076 15.3825 12.9722 15.5562C12.8705 15.7257 12.7646 15.8952 12.6523 16.0774C12.3176 15.4101 12.3282 15.3126 12.9319 14.6453C13.3069 14.23 13.6522 13.8063 13.7709 13.2428C13.8323 13.0712 13.8196 12.8954 13.8132 12.7174C13.8026 12.4357 13.9509 12.5352 14.0823 12.62C14.3556 13.9801 15.2687 14.7957 16.4741 15.2978C17.1796 15.5923 17.9317 15.8211 18.707 15.4334C18.9316 15.3211 19.0968 15.4164 19.1265 15.6833C19.0968 15.7151 19.0651 15.7469 19.0354 15.7766Z" fill="#F8F8FA"/>
<path d="M19.3091 19.1841C19.0993 19.6078 18.5125 19.5993 18.1057 19.1671C18.0824 19.1438 18.0634 19.1142 18.0507 19.0845C17.9045 18.7858 17.4045 18.5867 17.4829 18.3303C17.6121 17.9066 17.8091 17.4533 18.1608 17.1228C18.2816 17.0084 18.4045 16.9003 18.5273 16.788C18.5337 16.519 18.6862 16.4936 18.8959 16.5677C19.5824 16.9533 19.6904 17.2329 19.5209 18.2668C19.4701 18.5761 19.3811 18.879 19.3091 19.1841Z" fill="#F6F8F9"/>
<path d="M17.9378 26.3844C17.6369 26.1746 17.4018 26.2 17.0713 26.1047C15.7726 25.7339 14.5714 25.1429 13.3999 24.4904C13.1732 24.3633 13.0715 24.3823 12.955 24.6069C12.7325 25.0369 12.2495 25.5051 12.3216 25.8653C12.3978 26.2403 13.0736 26.3928 13.5079 26.6004C14.654 27.1512 15.7917 27.7402 17.1094 27.772C17.0459 27.8313 16.9802 27.8927 16.9166 27.952C16.5734 28.2423 16.2218 28.0558 15.8828 27.9563C15.6794 27.897 15.4782 27.8037 15.315 27.6533H15.3108C14.5375 27.3906 13.8003 27.0495 13.08 26.6661C12.6859 26.4267 12.2114 26.2975 11.9805 25.842C12.1478 25.2276 12.436 24.6832 12.8872 24.2298C13.1012 23.9904 13.2876 24.1853 13.4634 24.2828C14.4761 24.8399 15.5078 25.3526 16.601 25.7361C17.9399 26.2043 18.0437 25.9607 18.5733 25.2192C18.3191 25.715 18.2322 25.6895 18.0437 26.1725L17.9378 26.3844Z" fill="#370A17"/>
<path d="M4.22311 20.3026C5.19339 21.7304 6.64458 22.58 8.05128 23.4846C8.18475 23.5693 8.29491 23.5926 8.3733 23.421C8.38813 23.3914 8.40931 23.3659 8.42626 23.3363C8.66142 22.9316 9.09995 22.5122 9.07241 22.1245C9.04487 21.7135 8.39236 21.5821 8.01739 21.3237C6.91575 20.5631 5.82895 19.7899 5.03027 18.6882C5.10018 18.6204 5.16797 18.5527 5.23788 18.4849C5.77811 19.4975 6.70814 20.1098 7.59156 20.7644C8.07459 21.1224 8.59786 21.4254 9.11054 21.741C9.36265 21.8978 9.46857 22.044 9.2652 22.3385C8.98979 22.7367 8.75675 23.1647 8.52371 23.5905C8.38389 23.8447 8.23559 23.8659 8.00467 23.7113C7.39242 23.3045 6.76958 22.9105 6.15309 22.5122C5.40948 22.0397 4.67224 21.561 4.1871 20.7941C4.11507 20.6797 4.00914 20.5886 4.09388 20.4381C4.13837 20.3937 4.18074 20.347 4.22523 20.3026H4.22311Z" fill="#3D0C16"/>
<path d="M13.0705 13.824C13.0239 13.949 12.9964 14.0825 12.9286 14.1948C12.6807 14.6121 12.5811 15.2795 12.043 15.3007C11.6024 15.3176 11.0283 15.2922 10.6681 14.8473C10.6279 14.7986 10.558 14.7753 10.5029 14.7392C10.1237 14.4088 10.5982 14.2816 10.6639 14.0571C10.8397 13.7351 11.0177 13.7478 11.0961 14.0952C11.2083 14.5952 11.5473 14.7371 11.9901 14.771C12.3439 14.6481 12.4901 14.3643 12.4392 14.0274C12.3693 13.5635 12.0219 13.3792 11.435 13.3664C11.8969 13.0953 12.2083 12.7436 12.6341 12.8898C13.0303 13.0254 13.0536 13.4491 13.0663 13.824H13.0705Z" fill="#F6F6F9"/>
<path d="M11.1861 22.9332C10.6628 23.7319 10.1946 24.5623 9.74974 25.4076C9.19469 26.6321 8.57185 27.8185 7.72444 28.8735C7.4575 29.3333 7.18845 29.7909 6.92151 30.2506C6.81771 30.4773 6.82618 30.7739 6.52959 30.8819C6.49569 30.8332 6.45968 30.7823 6.42578 30.7315C7.06134 29.4371 7.85155 28.2295 8.56973 26.9838C9.92346 24.6301 11.2984 22.2871 12.6627 19.9397C12.7199 19.8402 12.7517 19.7258 12.7962 19.6177C12.8174 19.5753 12.8449 19.5711 12.8809 19.6029H12.883C12.953 19.6728 13.0335 19.7342 13.0313 19.8465C12.6521 20.6537 12.1903 21.4163 11.7475 22.1896C11.5907 22.4608 11.4594 22.7531 11.1882 22.9374L11.1861 22.9332Z" fill="#600510"/>
<path d="M15.8919 9.41199C15.8813 9.20226 16.0021 9.08998 16.1758 8.99252C16.8431 8.61755 17.555 8.52433 18.3028 8.60907C18.5528 8.63661 18.5676 8.715 18.4532 8.92473C18.2753 9.25522 18.1354 9.49673 17.6461 9.4586C16.7542 9.39081 16.0762 9.89501 15.5 10.5348C15.3835 10.0751 15.6631 9.75096 15.8898 9.40987L15.8919 9.41199Z" fill="#F9F9FB"/>
<path d="M19.7682 17.4653C20.3952 17.8954 20.9249 18.3805 21.374 18.9504C21.5392 19.1623 21.6981 19.3826 21.749 19.6538C21.785 19.8444 21.7066 19.9737 21.5181 20.0436C21.3592 20.1029 21.2363 20.1071 21.1282 19.944C20.7723 19.408 20.2999 18.978 19.8296 18.5458C19.4673 18.2111 19.855 17.8255 19.766 17.4653H19.7682Z" fill="#CDBAD5"/>
<path d="M19.1277 15.6831C19.0197 15.6407 19.0366 15.3463 18.8587 15.4924C18.2951 15.9606 17.6744 15.7679 17.0855 15.6492C15.7614 15.3844 14.808 14.5878 14.1449 13.4269C13.9988 13.1705 13.9331 12.8994 14.0835 12.6176C14.1153 12.6579 14.1492 12.6981 14.181 12.7384C14.4415 13.0837 14.4945 13.5455 14.8186 13.8548C15.9139 15.1598 17.7252 15.7975 18.6426 15.198C18.5663 15.1704 18.4794 15.1768 18.4053 15.1344C18.3396 15.0942 18.2972 15.0391 18.3078 14.9565C18.4201 14.7912 18.6065 14.751 18.776 14.7001C19.2972 14.5455 19.5832 14.2107 19.6171 13.6642C19.6425 13.5688 19.6849 13.4841 19.74 13.4036C19.9222 13.215 20.0154 12.9735 20.1404 12.749C20.3776 12.5053 20.5026 12.1007 20.956 12.1537C21.0153 12.2236 21.0746 12.2956 21.1318 12.3655C20.3755 12.8252 19.9645 13.4904 19.9433 14.3845C19.9073 14.4417 19.8734 14.4989 19.8374 14.5582C19.7463 14.7086 19.8671 14.7658 19.9645 14.8188C20.259 14.9734 20.4221 15.2276 20.5259 15.5306C20.4391 15.6768 20.3501 15.8229 20.2632 15.9691C20.1022 15.8928 20.1171 15.7255 20.0662 15.592C19.9688 15.342 19.7866 15.1662 19.5281 15.1386C19.2336 15.1069 19.3692 15.4564 19.2146 15.5666C19.1849 15.6047 19.1531 15.645 19.1235 15.6831H19.1277Z" fill="#292233"/>
<path d="M9.86136 13.05C9.64951 13.0077 9.43977 12.942 9.2258 12.9272C8.98853 12.9102 8.82752 12.8106 8.81693 12.5818C8.80421 12.3001 9.02666 12.2344 9.25758 12.2132C9.67917 12.1751 10.0902 12.2556 10.4906 12.3657C10.9524 12.4929 11.4058 12.6539 11.9502 12.8297C11.6176 13.0627 11.357 13.2449 11.0965 13.4271C10.6367 13.4589 10.2236 13.336 9.85924 13.0543L9.86136 13.05Z" fill="#CCBBD3"/>
<path d="M4.09248 20.438C4.50347 21.2367 5.2386 21.7218 5.88899 22.2875C5.97585 22.3637 6.06482 22.4379 6.15168 22.512C5.58604 22.512 5.3191 21.993 4.88269 21.7599C4.39119 21.4951 4.19205 21.5905 4.05223 22.154C3.69631 21.7705 3.92723 21.5248 4.1179 21.3045C4.19417 21.2155 4.32552 21.171 4.24925 21.0312C4.21323 20.9655 4.12849 20.8871 4.06494 20.8829C3.93359 20.8786 3.85944 20.993 3.82978 21.1074C3.67089 21.7515 3.17939 22.2853 3.3404 23.0544C3.39337 23.3086 2.97178 23.6751 2.9972 24.0882C3.01839 24.4399 2.99932 24.7937 2.9972 25.1453C2.96542 25.1941 2.93576 25.192 2.91034 25.1411C2.75145 23.6285 3.05652 22.2048 3.74928 20.8596C3.8319 20.7007 3.90181 20.5185 4.08824 20.438H4.09248Z" fill="#D83C59"/>
<path d="M12.9739 19.8017C12.9442 19.736 12.9125 19.6703 12.8828 19.6025C12.9697 19.5686 13.0565 19.5347 13.1434 19.5008C13.3828 19.4712 13.5417 19.6322 13.7196 19.7466C14.0035 19.9309 14.2238 19.9161 14.4124 19.5898C14.5268 19.3907 14.584 19.1068 14.8954 19.0835C14.923 19.1216 14.9484 19.1598 14.9759 19.1979C14.8446 19.5835 14.3276 19.9415 14.4887 20.2656C14.6391 20.5686 15.1772 20.6851 15.5522 20.8673C16.7724 21.4541 18.0096 22.0028 19.3528 22.257C19.6134 22.3058 19.8845 22.3079 20.1493 22.3312C20.1727 22.4244 20.4226 22.4414 20.2404 22.6045C18.0224 22.3693 16.0903 21.3482 14.1327 20.3949C13.7323 20.2254 13.3807 19.9584 12.9739 19.8038V19.8017Z" fill="#3D0D18"/>
<path d="M17.9218 9.63525C18.6145 9.65856 19.1209 10.0314 19.5658 10.5144C19.7946 10.5928 19.892 10.7856 19.9873 10.9848C20.5254 12.1224 20.0573 13.5927 18.945 14.207C17.979 14.7388 17.0299 14.707 16.1189 14.063C15.9537 13.9464 15.7927 13.8236 15.7715 13.5969C15.7842 13.51 15.835 13.4507 15.9134 13.4147C16.1422 13.3893 16.2757 13.5588 16.4346 13.6753C17.1612 14.2091 18.0425 14.224 18.8306 13.7134C19.5361 13.2579 19.8602 12.347 19.6378 11.4487C19.4408 10.65 18.7819 10.095 17.9154 9.98905C17.7057 9.96362 17.4727 10.0102 17.3053 9.81956C17.4366 9.50602 17.7354 9.76236 17.9197 9.63737L17.9218 9.63525Z" fill="#B6AFC6"/>
<path d="M6.5293 30.8823C6.66065 30.6726 6.78988 30.4607 6.92122 30.251C6.94029 30.5815 6.74539 30.9967 7.29832 31.1069C7.42967 31.1323 7.48475 31.1768 7.62669 31.0645C7.9021 30.8505 8.222 31.0115 8.22623 31.3568C8.22835 31.6047 8.37453 31.5687 8.51012 31.592C10.0333 31.8547 11.546 31.9458 13.012 31.2996C13.173 31.2276 13.3382 31.2488 13.5014 31.2933C11.1053 32.3759 8.78341 32.2127 6.53142 30.8781L6.5293 30.8823Z" fill="#CC3D56"/>
<path d="M15.815 13.5443C16.6878 14.5442 18.0077 14.7137 19.0648 13.9637C20.0648 13.2561 20.3465 11.8664 19.7152 10.7711C19.6644 10.6842 19.6114 10.5995 19.5584 10.5148C19.5839 10.483 19.6114 10.4512 19.6368 10.4194C20.141 10.5296 20.141 10.9872 20.2809 11.3495C20.4143 11.8113 20.4927 12.2689 20.2131 12.7096C20.0965 12.9786 19.9652 13.2392 19.8339 13.4998C19.8 13.5527 19.7661 13.6078 19.7322 13.6608C19.3572 14.5357 17.906 14.9679 16.8065 14.5993C16.4379 14.4764 16.0989 14.2921 15.8023 14.0336C15.1985 13.4468 14.8807 12.7413 14.9358 11.8897C14.9485 11.7011 14.9231 11.4745 15.1858 11.4067C15.2176 11.4469 15.2494 11.4872 15.279 11.5274C15.5248 11.7096 15.3553 11.966 15.3744 12.1799C15.4189 12.6735 15.7472 13.0634 15.8108 13.5421L15.815 13.5443Z" fill="#262032"/>
<path d="M15.3126 27.6562C15.838 27.8045 16.357 27.9867 16.9163 27.9528C17.0689 27.9804 17.0456 28.063 16.9862 28.1647C16.4079 29.1477 15.7194 30.029 14.7109 30.6137C14.9249 30.2218 15.3846 30.0756 15.6198 29.7112C15.8083 29.4167 16.4841 29.1244 15.6664 28.7664C15.5478 28.7155 15.6579 28.688 15.7003 28.652C16.1537 28.26 15.8973 28.0651 15.4927 27.9084C15.3825 27.866 15.1982 27.8639 15.3147 27.6562H15.3126Z" fill="#B93D58"/>
<path d="M15.1891 11.4097C14.8819 12.4117 15.2526 13.2168 15.9136 13.9413C15.9814 14.0705 16.0344 14.2019 15.9411 14.3438C15.7187 14.4794 15.5471 14.3502 15.4157 14.2061C14.8522 13.5981 14.4497 12.9435 14.5196 12.0389C14.5535 11.5961 14.5238 11.2211 15.0048 11.0347C15.0704 11.0093 15.134 11.0093 15.1954 11.0389C15.1933 11.1618 15.1912 11.2868 15.1891 11.4097Z" fill="#F5F6F9"/>
<path d="M15.2025 11.0383C14.6962 11.2565 14.4971 11.6146 14.5882 12.1781C14.7386 13.0954 15.1178 13.8581 15.908 14.3835C16.1601 14.3475 16.3508 14.5063 16.5605 14.5974C16.98 14.7796 17.4206 14.8495 17.874 14.8665C18.035 14.8729 18.213 14.8093 18.3316 14.9809C18.3782 15.0148 18.4269 15.0508 18.4735 15.0847C18.3676 15.3453 18.1303 15.3135 17.9206 15.322C16.5944 15.3813 15.5754 14.8241 14.8191 13.7522C14.5119 13.3327 14.4166 12.8327 14.3001 12.3433C14.389 12.1378 14.6475 11.9514 14.3636 11.7099C14.3382 11.5828 14.1984 11.4769 14.2958 11.3307C14.3636 11.1951 14.4293 11.0616 14.4971 10.926C14.6221 11.0955 14.7386 11.0341 14.8593 10.9176C14.9865 10.7926 15.1157 10.6697 15.2089 10.515L15.1983 10.5278C15.3911 10.2502 15.5457 9.95788 15.6029 9.62103C15.6199 9.51722 15.6474 9.42401 15.7745 9.40918C15.8148 9.40918 15.855 9.40918 15.8953 9.4113C15.8953 9.83076 15.6135 10.1528 15.5055 10.5362C15.4038 10.7036 15.3021 10.871 15.2025 11.0383Z" fill="#302A38"/>
<path d="M19.8988 4.15908C17.8946 4.01714 16.0663 4.49592 14.416 5.64416C14.9774 4.56583 18.2972 3.54682 19.8988 4.15908Z" fill="#366FA8"/>
<path d="M12.8748 19.6007C12.8451 19.6007 12.8176 19.607 12.79 19.6155C11.2647 18.6537 9.74145 17.6877 8.43856 16.4229C7.99791 15.9971 7.5276 15.5861 7.32422 14.9738C7.37083 14.9632 7.41955 14.9505 7.46616 14.9399C7.94918 15.7852 8.66313 16.4208 9.40673 17.0182C10.5295 17.9186 11.6799 18.7787 12.9786 19.4185C12.9447 19.4778 12.9086 19.5393 12.8748 19.5986V19.6007Z" fill="#3D0D18"/>
<path d="M19.2158 15.567C19.0527 15.2959 19.1311 15.0565 19.3514 14.8743C19.4701 14.7768 20.1649 15.2535 20.2285 15.4844C20.2709 15.6391 20.256 15.8086 20.2645 15.9696C20.1056 16.245 19.9467 16.5183 19.7836 16.7916C19.7688 16.817 19.7328 16.8276 19.6819 16.8615C19.5336 16.4208 19.4552 15.9632 19.2158 15.5649V15.567Z" fill="#CDBBD5"/>
<path d="M20.1514 11.3289C19.9988 11.0154 19.9289 10.6573 19.6387 10.4201C19.6471 10.0769 19.9289 9.87136 20.0666 9.53027C20.3929 9.86076 20.6344 10.1955 20.7573 10.6107C20.8145 10.8501 20.878 11.1001 20.6725 11.2971C20.5179 11.4454 20.3399 11.6022 20.1492 11.3289H20.1514Z" fill="#F6F8F9"/>
<path d="M2.91164 25.1403C2.9413 25.1403 2.97096 25.1424 2.9985 25.1445C2.97519 25.4983 3.33958 25.5132 3.49423 25.7123C3.68278 25.9559 4.22089 26.0047 3.90099 26.5512C3.85862 26.6254 3.79294 26.886 3.76964 27.047C3.73574 27.2821 3.67854 27.5321 3.69337 27.78C3.39254 27.28 3.14891 26.7673 3.17857 26.1572C3.19552 25.7992 2.80995 25.5301 2.91164 25.1382V25.1403Z" fill="#BE3350"/>
<path d="M20.8727 20.0856C20.5867 20.0157 20.2901 19.9712 20.0168 19.8674C19.7138 19.753 19.3982 19.6132 19.4299 19.1916C19.5655 19.0412 19.4956 18.7976 19.6821 18.645C20.1058 18.9903 20.4829 19.3759 20.8218 19.7996C20.8811 19.8738 21.0252 19.9606 20.8727 20.0835V20.0856Z" fill="#CCBAD2"/>
<path d="M20.1536 11.3271C20.7553 11.4245 20.7023 10.969 20.7616 10.6089C20.9925 11.1046 21.0709 11.6194 20.9586 12.1575C20.6388 12.2995 20.4523 12.5812 20.2426 12.8397C20.1515 12.8609 20.1006 12.8439 20.1409 12.7359C20.2659 12.2677 20.2511 11.7974 20.1536 11.3271Z" fill="#CBBDD4"/>
<path d="M10.5706 13.9542C10.2994 14.2847 10.0071 14.0771 9.78885 13.9246C9.49862 13.7191 9.2338 13.4585 9.04102 13.0645C9.3482 13.1089 9.60242 13.1471 9.85665 13.1852C10.0854 13.1047 10.2825 13.2382 10.4837 13.2975C10.6426 13.3441 10.8905 13.3187 10.9074 13.5687C10.9223 13.7869 10.7422 13.878 10.5706 13.9564V13.9542Z" fill="#CBBBD4"/>
<path d="M18.925 9.74939C18.7026 9.7049 18.3763 9.65406 18.3657 9.45703C18.353 9.25154 18.5818 9.02909 18.7068 8.81724C18.7428 8.7558 18.8 8.72826 18.8742 8.7558C19.2492 8.89774 19.5987 9.08417 19.8911 9.35958C19.9928 9.45703 19.8784 9.53542 19.8254 9.61169C19.5564 9.85743 19.2343 9.75786 18.9272 9.74939H18.925Z" fill="#F7F5F6"/>
<path d="M13.6943 11.5269C13.813 11.5841 13.9443 11.6285 14.0502 11.7048C14.1667 11.7896 14.4252 11.7917 14.3256 12.0289C14.2515 12.2048 14.1625 12.3976 13.9019 12.3976C13.4125 12.3976 12.9401 12.5099 12.4062 12.6751C12.4762 12.4399 12.5461 12.2747 12.6817 12.1349C13.1223 12.1052 13.3892 11.7853 13.6943 11.529V11.5269Z" fill="#C8BCD1"/>
<path d="M15.814 13.5435C15.2929 12.963 15.1848 12.2724 15.2823 11.5288C15.6721 10.1962 16.6021 9.52679 17.9135 9.63483C17.7398 9.78525 17.4834 9.63483 17.3161 9.8022C17.2229 9.98863 17.0258 10.0141 16.8606 10.0882C15.7272 10.6072 15.2844 11.7343 15.7568 12.8846C15.831 13.0626 15.9941 13.2215 15.9073 13.4439C15.8776 13.4757 15.8458 13.5096 15.8162 13.5414L15.814 13.5435Z" fill="#E6E8EF"/>
<path d="M10.5692 13.9544C10.6688 13.8252 10.7684 13.6981 10.8976 13.5307C10.5332 13.41 10.1943 13.2977 9.85742 13.1854C9.85742 13.1409 9.85742 13.0943 9.85742 13.0498C10.2938 13.0985 10.6985 13.2468 11.0946 13.4227C10.8341 13.7404 11.4506 13.4481 11.2874 13.7002C11.3467 13.7468 11.3785 13.8104 11.3955 13.8803C11.2938 14.3061 11.7175 14.4035 11.8848 14.662C11.9209 14.698 11.959 14.734 11.995 14.77C11.3595 14.984 11.0057 14.6853 10.9442 13.8548C10.8425 13.929 10.7557 13.9925 10.6667 14.0561C10.6349 14.0222 10.601 13.9883 10.5692 13.9544Z" fill="#403B4A"/>
<path d="M18.8942 16.5674C18.7586 16.6204 18.6188 16.6649 18.5256 16.7877C18.3942 16.667 18.2841 16.7708 18.123 16.8513C18.3264 16.3873 18.6188 16.078 19.0425 15.8916C19.3963 15.97 19.2776 16.3153 19.4725 16.5695H18.8942V16.5674Z" fill="#EFEFF1"/>
<path d="M14.2994 12.3457C14.5727 12.3478 14.4477 12.583 14.5049 12.708C14.6469 13.0173 14.774 13.3329 14.9075 13.6444C14.9244 13.799 14.9371 13.9494 14.7125 13.9494C14.4181 13.5978 14.1469 13.2376 14.1829 12.7419C14.2232 12.6105 14.2613 12.4792 14.3016 12.3457H14.2994Z" fill="#F3F4F8"/>
<path d="M13.6923 11.5268C13.5568 12.0458 13.1331 12.3 12.6797 12.1327C12.8873 11.7132 13.1013 11.3064 13.6923 11.5268Z" fill="#F2EFF4"/>
<path d="M11.8832 14.6624C11.3493 14.6476 11.2286 14.315 11.2688 13.8574C11.5082 13.5692 11.7752 13.5015 12.0823 13.7578C12.4446 14.1518 12.2243 14.4188 11.8853 14.6603L11.8832 14.6624Z" fill="#302F38"/>
<path d="M13.6656 13.1037C13.6359 13.1503 13.6063 13.199 13.5766 13.2456C13.4601 13.3198 13.4071 13.6439 13.191 13.3473C13.0766 13.1503 12.9601 12.9533 12.8457 12.7562C13.5999 12.4618 13.6613 12.4872 13.6635 13.1037H13.6656Z" fill="#EBEAEC"/>
<path d="M23.1562 17.2603C23.1923 17.2984 23.2262 17.3386 23.2622 17.3768C22.8808 18.0462 22.4995 18.7178 22.1203 19.3873C22.0737 19.3618 22.0271 19.3343 21.9805 19.3089C22.3427 18.6098 22.705 17.9128 23.1584 17.2603H23.1562Z" fill="#3F6498"/>
<path d="M19.9449 14.3895C19.8453 14.3619 19.8135 14.2857 19.8305 14.1967C19.983 13.4467 20.3559 12.826 20.9491 12.3451C20.9809 12.3176 21.0698 12.3599 21.1334 12.3705C21.1016 12.4637 21.0953 12.6099 21.0338 12.6396C20.3601 12.9595 20.0445 13.4721 20.1186 14.2221C20.1229 14.2729 20.0063 14.3344 19.947 14.3895H19.9449Z" fill="#BBB4C7"/>
<path d="M20.3484 22.2185C20.2934 21.9092 19.9586 21.9515 19.7129 21.6761C20.162 21.7588 20.4311 21.3626 20.8399 21.5088C20.751 21.799 20.5688 22.0215 20.3484 22.2206V22.2185Z" fill="#C3C6CD"/>
<path d="M4.08008 28.4888C4.65844 29.0671 5.19442 29.6836 5.71346 30.3149C5.02282 29.8383 4.48472 29.2218 4.08008 28.4888Z" fill="#BE3350"/>
<path d="M20.5318 15.5334C20.2839 15.2792 20.0763 14.9932 19.7437 14.8153C19.3708 14.6161 19.7373 14.6204 19.8432 14.561C20.2246 14.7771 20.5995 14.9975 20.5318 15.5334Z" fill="#CBCAD6"/>
<path d="M14.6367 10.8004C14.7596 10.258 14.9227 9.87459 15.3846 9.54834C15.2744 10.0822 15.0562 10.4339 14.6367 10.8004Z" fill="#CAC8D7"/>
<path d="M18.9258 9.74987C19.1927 9.49564 19.5296 9.68207 19.824 9.61216C19.6207 10.0232 19.3212 10.0691 18.9258 9.74987Z" fill="#C5BCCC"/>
<path d="M20.2812 13.9629C20.3257 13.4968 20.5312 13.1261 20.9422 12.7871C20.8999 13.3379 20.5948 13.6536 20.2812 13.9629Z" fill="#BBB8C9"/>
<path d="M14.297 11.3304C14.4029 11.4427 14.4093 11.5719 14.3648 11.7096C14.0152 11.4851 13.6742 11.2414 13.1445 11.3558C13.5979 10.8961 13.9453 11.1736 14.297 11.3304Z" fill="#CAC9D6"/>
<path d="M15.7676 9.40827C15.596 9.79172 15.5431 10.2366 15.1914 10.5268C15.2253 10.1476 15.6681 9.8574 15.4266 9.40827C15.38 9.32141 15.5134 9.23667 15.6109 9.2176C15.7571 9.19006 15.7634 9.30234 15.7655 9.40615L15.7676 9.40827Z" fill="#BAB8C5"/>
<path d="M8.85689 13.2436C8.64928 13.4406 8.44378 13.3771 8.23828 13.2372C8.412 13.0699 8.39717 12.7818 8.62385 12.6313C8.70224 12.839 8.77851 13.0402 8.85477 13.2415L8.85689 13.2436Z" fill="#C3C4CC"/>
<path d="M15.2101 10.5166C15.0979 10.8683 14.8479 11.095 14.5471 11.2793C14.4432 11.1585 14.4941 11.042 14.5004 10.9276C14.8564 10.9975 14.9686 10.6416 15.2123 10.5166H15.2101Z" fill="#CAC7D5"/>
<path d="M13.1975 13.3442C13.3691 13.4755 13.439 13.2171 13.583 13.2425C13.5724 13.5349 13.4136 13.7637 13.2462 13.984C13.2398 13.9903 13.2144 13.9903 13.2038 13.984C13.1911 13.9776 13.1805 13.9607 13.1699 13.948C13.1784 13.7467 13.189 13.5433 13.1975 13.3421V13.3442Z" fill="#BEB9C8"/>
<path d="M12.0811 13.7609C11.7887 13.619 11.5197 13.6698 11.2676 13.8605C11.2739 13.8075 11.2782 13.7545 11.2845 13.7016C11.5621 13.5533 11.8438 13.3626 12.079 13.7609H12.0811Z" fill="#D4D4D9"/>
<path d="M7.72266 28.8741C8.35398 27.6941 9.01707 26.5331 9.74796 25.4082C9.58696 25.7853 9.57425 26.101 10.0657 26.2344C10.1145 26.2471 10.1335 26.3721 10.1653 26.4442C10.0785 26.5162 9.98736 26.4844 9.89838 26.4611C9.99795 26.5692 10.1505 26.6285 10.2522 26.7471C10.2077 26.8636 10.1696 26.9865 10.0573 27.0607C9.88779 27.0395 9.75008 26.9632 9.6378 26.8382C9.72466 26.9696 9.9238 26.9992 9.95558 27.1814C9.91533 27.2471 9.8772 27.3106 9.83694 27.3763C9.63992 27.4971 9.5001 27.3255 9.43654 27.2979C9.5001 27.3149 9.62933 27.531 9.83271 27.3742C9.86801 27.4801 9.78116 27.6425 9.57213 27.8615C9.42171 27.8805 9.30308 27.7894 9.16113 27.7407C9.26918 27.8445 9.41748 27.8932 9.44713 28.0521C9.45137 28.1686 9.47256 28.2915 9.34121 28.3635C9.17384 28.3 9.02343 28.2004 8.8031 28.0881C9.02131 28.2089 9.17173 28.3106 9.34545 28.3614C9.35604 28.569 9.2141 28.6728 9.0658 28.7745C8.93657 28.7322 8.82641 28.6538 8.70777 28.5945C8.8137 28.6686 8.93657 28.7279 8.94716 28.8805C8.81581 29.0224 8.68023 28.9186 8.60396 28.8402C8.2883 28.5203 8.00654 28.6051 7.72478 28.8741H7.72266Z" fill="#C24864"/>
<path d="M12.9734 19.8019C13.4374 19.8485 13.7636 20.16 14.1322 20.393C13.8717 20.393 13.6746 20.2362 13.4607 20.1197C13.0751 19.91 12.912 20.018 12.8823 20.5074C12.9247 20.8718 13.3717 20.8336 13.4925 21.1196C13.4247 21.1832 13.359 21.2468 13.2912 21.3103C13.1344 21.4056 13.0094 21.3018 12.8696 21.2362C13.0031 21.3379 13.1641 21.3845 13.2721 21.5073C13.2043 21.5836 13.1365 21.6578 13.0688 21.734C12.9374 21.8124 12.8209 21.7552 12.6853 21.6874C12.8166 21.7764 12.9099 21.8717 12.9734 21.9946C12.9946 22.1471 12.9289 22.2509 12.7976 22.3208C12.6493 22.2658 12.5391 22.1408 12.3273 22.0772C12.537 22.1641 12.6599 22.2679 12.7658 22.395C12.787 22.5496 12.7255 22.6577 12.5815 22.717C12.4353 22.6365 12.2807 22.573 12.0519 22.4522C12.2785 22.5772 12.4332 22.6386 12.5794 22.7213C12.5815 22.8759 12.5052 22.9734 12.3633 23.0284C12.0794 23.1725 11.876 22.7382 11.5858 22.9204C11.4523 22.9246 11.3188 22.9289 11.1875 22.9331C11.7828 21.8887 12.3802 20.8442 12.9755 19.7998L12.9734 19.8019Z" fill="#C14965"/>
<path d="M12.8813 24.2324C12.6314 24.8002 12.3136 25.3277 11.9746 25.8446C11.9005 25.4781 12.1187 25.1328 12.0361 24.7536C12.0064 24.6138 12.1992 24.4888 12.3708 24.4358C12.5445 24.3807 12.7097 24.3002 12.8792 24.2324H12.8813Z" fill="#C83A58"/>
<path d="M13.082 26.6704C13.8511 26.9437 14.5756 27.3123 15.3128 27.6576C14.4845 27.5199 13.7557 27.1577 13.082 26.6704Z" fill="#B93D58"/>
<path d="M9.44392 28.0508C9.28079 27.9682 9.11343 27.8941 8.95878 27.7987C8.86768 27.7415 8.72362 27.6674 8.78718 27.5339C8.85497 27.392 8.98208 27.4661 9.08589 27.5233C9.25961 27.6187 9.45451 27.6822 9.56891 27.8623C9.52654 27.9258 9.48629 27.9894 9.44392 28.053V28.0508Z" fill="#5D0817"/>
<path d="M13.4923 21.1206C13.2233 21.1206 13.039 20.9299 12.8314 20.8049C12.6449 20.6926 12.7572 20.5909 12.8801 20.5083C13.1131 20.6841 13.5368 20.6672 13.4902 21.1206H13.4923Z" fill="#530715"/>
<path d="M12.7634 22.3951C12.4922 22.3888 12.3143 22.1896 12.0982 22.0689C12.041 22.0371 11.9944 21.9778 12.0452 21.9036C12.0855 21.8443 12.1533 21.7977 12.2147 21.8401C12.4244 21.9778 12.7528 21.9799 12.7973 22.3189C12.7825 22.3422 12.7698 22.3655 12.7634 22.393V22.3951Z" fill="#58071A"/>
<path d="M11.5831 22.9197C11.4729 22.6994 11.5216 22.5914 11.7695 22.6973C11.9771 22.7841 12.1635 22.9155 12.3606 23.0278C12.0364 23.4684 11.8458 22.9367 11.5831 22.9197Z" fill="#500613"/>
<path d="M9.95592 27.181C9.93897 27.1768 9.92202 27.1747 9.90719 27.1662C9.68263 27.0348 9.41146 26.9692 9.2674 26.7255C9.25469 26.7044 9.31401 26.6048 9.3246 26.609C9.61908 26.6747 9.88601 26.7933 10.0576 27.0581C10.0237 27.0984 9.98982 27.1386 9.95592 27.1789V27.181Z" fill="#4F0414"/>
<path d="M10.2506 26.7468C10.1997 26.7468 10.1404 26.7616 10.1023 26.7383C9.88408 26.6091 9.44979 26.4968 9.54724 26.2892C9.66376 26.0434 9.93704 26.4078 10.1616 26.4438C10.2675 26.5222 10.2824 26.626 10.2506 26.7446V26.7468Z" fill="#580416"/>
<path d="M13.2683 21.5075C12.94 21.5351 12.6963 21.355 12.5226 21.1241C12.4167 20.9842 12.6201 20.9313 12.9061 21.0923C13.0353 21.1643 13.1603 21.2385 13.2874 21.3126C13.281 21.3783 13.2747 21.444 13.2683 21.5096V21.5075Z" fill="#590717"/>
<path d="M8.94601 28.8809C8.75958 28.7708 8.57315 28.6627 8.38672 28.5504C8.31045 28.5038 8.24901 28.4381 8.29986 28.3492C8.34858 28.2665 8.44604 28.2538 8.51595 28.3132C8.69814 28.4678 9.00533 28.4763 9.06676 28.775C9.02651 28.811 8.98626 28.8449 8.94813 28.8809H8.94601Z" fill="#540312"/>
<path d="M12.9718 21.9929C12.724 21.8573 12.2282 21.6857 12.3405 21.5184C12.5418 21.2197 12.7918 21.7112 13.0672 21.7345C13.0354 21.8213 13.0036 21.9082 12.9718 21.9929Z" fill="#4F0614"/>
<path d="M12.6134 18.5991C12.607 18.775 12.5244 18.7855 12.3931 18.7072C12.2935 18.6478 12.2511 18.5864 12.3232 18.4699C12.5435 18.1097 12.7553 17.7454 12.9693 17.381C13.035 17.2687 13.2045 17.2708 13.196 17.3259C13.1536 17.6352 13.7892 17.8195 13.3422 18.1945C13.2257 18.2919 13.1706 18.4593 13.0858 18.5949C12.9276 18.4551 12.9015 18.2757 13.0074 18.0568C12.91 18.1373 12.8761 18.2474 12.8401 18.3491C12.7977 18.4657 12.7024 18.5292 12.6113 18.5991H12.6134Z" fill="#64666E"/>
<path d="M12.6118 17.4332C12.5906 17.6408 12.4995 17.7976 12.2792 17.7955C11.9868 17.7912 11.758 17.6599 11.739 17.3357C11.7263 17.1175 11.8915 16.9862 12.0864 16.9989C12.3449 17.0137 12.561 17.1408 12.6118 17.4332Z" fill="#26272F"/>
<path d="M12.6133 18.5984C12.7743 18.3378 12.9353 18.0751 13.1302 17.7573C13.2298 18.0899 12.6917 18.3209 13.0857 18.5941C12.9289 18.77 12.7701 18.6619 12.6133 18.5984Z" fill="#ADAEB8"/>
<path d="M12.093 18.2683C11.8918 18.1434 11.682 18.0141 11.4765 17.8764C11.4575 17.8637 11.4702 17.7896 11.4829 17.7493C11.5062 17.6794 11.5634 17.7112 11.6057 17.7239C11.8112 17.7832 11.9511 18.048 12.2286 17.9124C12.2922 17.8807 12.3133 17.9951 12.2922 18.0523C12.2604 18.1412 12.2201 18.2323 12.0951 18.2683H12.093Z" fill="#28242C"/>
<path d="M15.7825 20.4893C15.3906 20.4829 15.058 20.1291 15.0686 19.7287C15.0792 19.3283 15.433 18.9978 15.8313 19.019C16.2105 19.0381 16.5198 19.3707 16.5177 19.7499C16.5156 20.1609 16.1829 20.4956 15.7825 20.4893Z" fill="#3E141C"/>
<path d="M12.9621 25.7528C12.924 25.8651 12.8583 25.9605 12.7206 25.952C12.5639 25.9414 12.477 25.8503 12.5024 25.6893C12.5236 25.5516 12.6253 25.4944 12.7545 25.5071C12.8901 25.5219 12.9473 25.6173 12.9621 25.7528Z" fill="#2C212E"/>
<path d="M13.4775 24.8506C13.4436 24.9714 13.38 25.0625 13.2423 25.0603C13.1089 25.0561 13.0178 24.9756 13.0157 24.8485C13.0135 24.6938 13.1173 24.607 13.2699 24.6176C13.4055 24.626 13.4627 24.7256 13.4775 24.8527V24.8506Z" fill="#201F27"/>
<path d="M8.56994 22.3781C8.44706 22.3485 8.35173 22.2807 8.34961 22.1472C8.34961 22.018 8.43223 21.9227 8.56146 21.9205C8.714 21.9163 8.81357 22.0138 8.80509 22.1684C8.79874 22.2976 8.69917 22.3654 8.56782 22.3781H8.56994Z" fill="#282834"/>
<path d="M8.29616 23.0234C8.27074 23.1801 8.19235 23.2649 8.05888 23.2564C7.93177 23.2479 7.83432 23.1759 7.84915 23.0297C7.86186 22.8984 7.94025 22.8179 8.08007 22.8179C8.22836 22.8179 8.2665 22.928 8.29828 23.0212L8.29616 23.0234Z" fill="#1A1C22"/>
<path d="M16.9455 17.3259C16.8883 17.6373 16.615 17.9847 16.3777 18.3428C16.3057 18.4529 16.1955 18.3322 16.115 18.2919C15.024 17.7369 13.9753 17.1056 12.9436 16.4488C12.8631 16.398 12.7635 16.3598 12.772 16.2264C12.8165 15.4235 13.7126 14.9214 14.3969 15.3196C15.0918 15.7243 15.7845 16.131 16.4815 16.5314C16.7442 16.6819 16.9476 16.8619 16.9434 17.3259H16.9455Z" fill="#F8F9FA"/>
<path d="M14.8909 19.0836C14.8337 19.1641 14.7701 19.2425 14.7193 19.3273C14.143 20.2891 14.0244 20.3039 13.1367 19.501C13.4757 18.9247 13.821 18.3549 14.1494 17.7723C14.2659 17.5647 14.3739 17.5053 14.5688 17.6685C14.8146 17.8761 15.3103 17.8888 15.3294 18.2087C15.3463 18.4905 15.0497 18.7913 14.8909 19.0836Z" fill="#F6F5F8"/>
<path d="M17.1125 16.7919C16.013 16.0589 14.9241 15.3068 13.6699 14.8662C13.8966 14.6628 14.172 14.7306 14.4474 14.8937C15.1847 15.3259 15.9198 15.756 16.6528 16.1945C16.8922 16.3386 17.1549 16.4784 17.1125 16.794V16.7919Z" fill="#C5C0D3"/>
<path d="M11.4785 15.3979C11.7963 15.4255 12.1014 15.4382 12.3238 15.7878C11.8895 15.8958 11.6946 15.5971 11.4785 15.3979Z" fill="#ACA9B8"/>
<path d="M17.8133 19.111C17.4892 18.9458 17.165 18.9034 17.0273 18.5644C17.4066 18.5327 17.4849 18.5856 17.8133 19.111Z" fill="#BAB3C7"/>
<path d="M19.4609 17.8465C19.4291 18.0732 19.3931 18.2618 19.1897 18.1876C18.9058 18.0838 18.4906 18.2512 18.3613 17.8381C18.3317 17.7406 18.3804 17.5012 18.6113 17.5669C18.9037 17.6495 19.2702 17.5669 19.4587 17.8487L19.4609 17.8465Z" fill="#2A2A33"/>
<path d="M18.947 18.8279C18.767 18.6648 18.2649 18.9762 18.2352 18.4466C18.2225 18.2348 18.356 18.1394 18.5615 18.2475C18.8093 18.3767 19.2394 18.1606 19.3008 18.6097C19.3199 18.7432 19.2521 18.9699 18.947 18.8301V18.8279Z" fill="#2B2736"/>
<path d="M18.3318 14.9803C17.4526 15.0693 16.6221 14.9634 15.9082 14.3829C15.9124 14.2346 15.9167 14.0884 15.9188 13.9401C17.2725 14.8956 18.317 14.8278 19.6008 13.705C19.6347 13.6753 19.6919 13.6753 19.7385 13.6626C19.6304 14.5757 19.5203 14.6795 18.3318 14.9824V14.9803Z" fill="#CCBED6"/>
<path d="M14.7092 13.9472C14.7748 13.8455 14.8405 13.7438 14.9041 13.6421C15.6943 14.7119 16.7323 15.2712 18.0861 15.1738C18.2174 15.1653 18.3551 15.1738 18.4695 15.0848C18.6454 15.0551 18.8212 15.0234 19.0373 14.9874C18.7831 15.4132 18.4674 15.6017 17.9929 15.5848C16.6434 15.536 15.5311 15.0382 14.707 13.9493L14.7092 13.9472Z" fill="#CABED3"/>
<path d="M20.1369 12.7363C20.1708 12.7702 20.2047 12.8062 20.2386 12.8401C20.1306 13.0753 20.0204 13.3104 19.834 13.5011C19.8446 13.2109 20.031 12.9906 20.1348 12.7363H20.1369Z" fill="#968EA2"/>
<path d="M15.905 13.4481C14.7377 11.8147 15.8203 10.0033 17.3138 9.8042C18.7269 9.80209 19.6315 10.4398 19.8349 11.5859C20.0107 12.5795 19.5912 13.4904 18.7332 13.965C17.8795 14.4374 16.8816 14.3167 16.1296 13.6493C16.0554 13.5837 15.9813 13.5159 15.905 13.4481Z" fill="#0D1226"/>
<path d="M12.0025 14.132C12.0025 14.3142 11.8839 14.4201 11.7314 14.4265C11.5428 14.4349 11.4178 14.2972 11.4199 14.1129C11.4199 13.9244 11.5471 13.8163 11.7462 13.8333C11.9242 13.8481 12.0068 13.9562 12.0047 14.132H12.0025Z" fill="#E9E8EE"/>
<path d="M9.34678 28.3609C8.98663 28.5494 8.81926 28.1998 8.57352 28.077C8.5036 28.041 8.50996 27.9541 8.57352 27.9117C8.62012 27.8821 8.71546 27.8588 8.74935 27.8863C8.95061 28.041 9.26839 28.0537 9.34678 28.363H9.34889L9.34678 28.3609Z" fill="#540B18"/>
<path d="M9.8347 27.3739C9.65886 27.5476 9.07627 27.4247 9.01059 27.1981C9 27.1599 9.02118 27.1006 9.04873 27.0667C9.09745 27.0053 9.16736 27.0222 9.22668 27.054C9.43006 27.1599 9.63344 27.268 9.83682 27.376H9.83258L9.8347 27.3739Z" fill="#4E0715"/>
<path d="M12.579 22.721C12.2527 22.8714 12.0727 22.5854 11.8396 22.4667C11.7761 22.435 11.7718 22.3545 11.8078 22.2951C11.8481 22.2295 11.9201 22.2231 11.9773 22.2612C12.1871 22.4011 12.4921 22.4159 12.5811 22.7167L12.579 22.721Z" fill="#5A0717"/>
<path d="M12.3992 17.4469C12.395 17.5232 12.3759 17.5846 12.2891 17.5825C12.1259 17.5804 12.0009 17.5041 11.9459 17.3516C11.9247 17.2922 11.9819 17.2223 12.0581 17.2202C12.2213 17.2202 12.3335 17.3028 12.3992 17.4448V17.4469Z" fill="#DBE1E5"/>
<path d="M15.8012 19.2305C16.0977 19.2792 16.2969 19.4296 16.3011 19.7516C16.3054 20.0736 16.1105 20.2664 15.8096 20.2622C15.5152 20.258 15.3075 20.0715 15.2991 19.7537C15.2906 19.4254 15.5152 19.294 15.8012 19.2305Z" fill="#D9435F"/>
<path d="M13.7045 15.5854C13.7681 15.6215 13.8401 15.6638 13.9121 15.7041C14.3888 15.9795 14.8654 16.2613 15.3464 16.5303C15.5201 16.6278 15.6472 16.6998 15.5074 16.9434C15.3802 17.168 15.2637 17.1595 15.0752 17.0451C14.59 16.7506 14.0964 16.4668 13.6092 16.1765C13.5032 16.113 13.3316 16.0727 13.446 15.8863C13.5138 15.7782 13.5393 15.6321 13.7045 15.5854Z" fill="#282039"/>
<path d="M16.2096 17.1978C16.324 17.1978 16.3833 17.2677 16.3981 17.3736C16.4108 17.471 16.3324 17.5325 16.2562 17.541C16.1481 17.5515 16.0697 17.4838 16.0592 17.3694C16.0507 17.2677 16.1397 17.2422 16.2096 17.1999V17.1978Z" fill="#555756"/>
<path d="M14.4362 18.8827C14.2497 18.8425 14.1247 18.7217 14.1311 18.5438C14.1374 18.3637 14.2561 18.2429 14.4658 18.2641C14.6438 18.2811 14.7391 18.387 14.7412 18.5565C14.7412 18.7514 14.6226 18.8552 14.4362 18.8827Z" fill="#3D2B2D"/>
<path d="M13.9059 19.0859C14.141 19.0965 14.2554 19.213 14.2575 19.4037C14.2575 19.5711 14.1452 19.6897 13.9736 19.6961C13.7745 19.7024 13.658 19.588 13.6622 19.3868C13.6665 19.2152 13.7703 19.1156 13.908 19.0881L13.9059 19.0859Z" fill="#341E2A"/>
<path d="M19.2214 17.9348C18.9756 17.9984 18.7532 17.9475 18.4375 17.7971C18.7998 17.7102 19.0137 17.8119 19.2214 17.9348Z" fill="#C1BFCB"/>
<path d="M19.2123 18.6136C18.8479 18.7132 18.6318 18.5988 18.4199 18.4632C18.6678 18.406 18.8924 18.4632 19.2123 18.6136Z" fill="#BCB1C6"/>
<path d="M15.7248 11.336C15.8477 11.1072 16.0087 10.9674 16.2905 10.9081C16.943 10.7725 17.5912 10.6009 18.2289 10.4018C18.5997 10.2853 18.8772 10.3573 19.1229 10.6306C19.1483 10.9378 18.8941 10.9865 18.6992 11.0331C17.8412 11.2365 16.998 11.4992 16.1358 11.6856C15.8562 11.7449 15.5659 11.7958 15.7248 11.3339V11.336Z" fill="#1C7ACE"/>
<path d="M15.7264 11.3362C15.7328 11.4612 15.684 11.6561 15.9065 11.5925C16.9636 11.2959 18.0504 11.1116 19.08 10.7176C19.1033 10.7091 19.1118 10.6625 19.1266 10.6328C19.2707 10.7218 19.2347 10.904 19.3321 11.0163C18.9593 11.3425 18.472 11.3362 18.0292 11.4506C17.2284 11.6582 16.4467 11.9463 15.6205 12.0501C15.7285 11.8234 15.4807 11.5417 15.7264 11.3362Z" fill="#032050"/>
<path d="M15.6211 12.0529C16.6825 11.6355 17.8074 11.447 18.8963 11.1292C19.0404 11.0868 19.1887 11.0551 19.3327 11.019C19.5234 11.2139 19.3222 11.2245 19.2141 11.2542C18.0638 11.5762 16.9113 11.894 15.7588 12.2075C15.6402 12.2393 15.6359 12.1313 15.6211 12.0508V12.0529Z" fill="#386DAA"/>
<path d="M14.8059 16.3888C14.9436 16.4735 15.147 16.5879 15.3376 16.7214C15.3969 16.7616 15.3652 16.8654 15.2995 16.8845C15.0728 16.9502 14.9457 16.7426 14.7699 16.6642C14.6894 16.6282 14.5644 16.5964 14.5771 16.4671C14.5855 16.3909 14.6512 16.3655 14.8059 16.3909V16.3888Z" fill="#A74F66"/>
<path d="M14.4333 16.1962C14.4142 16.3021 14.3634 16.3699 14.2998 16.3509C14.0435 16.2746 13.7998 16.1665 13.6431 15.9377C13.6113 15.8911 13.7066 15.7937 13.7575 15.8191C13.9926 15.9356 14.2151 16.0733 14.4333 16.1962Z" fill="#3C709F"/>
<rect x="15.9707" width="15.1199" height="31.4803" rx="7.55997" transform="rotate(30.4842 15.9707 0)" stroke="black" stroke-width="0.609116"/>
</svg>
