<svg width="43" height="53" viewBox="0 0 43 53" fill="none" xmlns="http://www.w3.org/2000/svg">
<path d="M26.7899 33.9263H25.0039V30.8421H26.7899V33.9263Z" fill="#FF943D"/>
<path d="M21.4325 33.9263H19.6465V30.8421H21.4325V33.9263Z" fill="#FFA72F"/>
<path d="M25.0048 43.1802H23.2188V40.096H25.0048V43.1802Z" fill="#FF943D"/>
<path d="M23.2196 43.1802H21.4336V40.096H23.2196V43.1802Z" fill="#FF943D"/>
<path d="M19.6454 46.2642H17.8594V43.1799H19.6454V46.2642Z" fill="#FF8D2F"/>
<path d="M17.8602 46.2642H16.0742V43.1799H17.8602V46.2642Z" fill="#FF8D2F"/>
<path d="M26.7899 40.0962H25.0039V37.012H26.7899V40.0962Z" fill="#FF943D"/>
<path d="M26.7899 37.0103H25.0039V33.926H26.7899V37.0103Z" fill="#FF943D"/>
<path d="M28.5751 33.9263H26.7891V30.8421H28.5751V33.9263Z" fill="#FF943D"/>
<path d="M28.5751 30.8423H26.7891V27.7581H28.5751V30.8423Z" fill="#FF8D2F"/>
<path d="M28.5751 27.7583H26.7891V24.6741H28.5751V27.7583Z" fill="#FF8D2F"/>
<path d="M21.4325 43.1801H19.6465V40.0959H21.4325V43.1801Z" fill="#FF8D2F"/>
<path d="M19.6454 43.1801H17.8594V40.0958H19.6454V43.1801Z" fill="#FF8D2F"/>
<path d="M12.5028 33.9263H10.7168V30.8421H12.5028V33.9263Z" fill="#FFA72F"/>
<path d="M8.93055 43.1802H7.14453V40.096H8.93055V43.1802Z" fill="#FF8D2F"/>
<path d="M10.7157 43.1802H8.92969V40.096H10.7157V43.1802Z" fill="#FF8D2F"/>
<path d="M14.288 46.2642H12.502V43.1799H14.288V46.2642Z" fill="#FF8D2F"/>
<path d="M16.0751 46.2642H14.2891V43.1799H16.0751V46.2642Z" fill="#FF8D2F"/>
<path d="M7.14543 40.0962H5.35938V37.012H7.14543V40.0962Z" fill="#FF8D2F"/>
<path d="M7.14543 37.0103H5.35938V33.926H7.14543V37.0103Z" fill="#FF8D2F"/>
<path d="M5.35828 33.9263H3.57227V30.8421H5.35828V33.9263Z" fill="#FF8D2F"/>
<path d="M5.35828 30.8421H3.57227V27.7579H5.35828V30.8421Z" fill="#FF8D2F"/>
<path d="M5.35828 27.7583H3.57227V24.6741H5.35828V27.7583Z" fill="#FF8D2F"/>
<path d="M12.5028 43.1801H10.7168V40.0958H12.5028V43.1801Z" fill="#FF8D2F"/>
<path d="M25.0048 15.4204H23.2188V12.3362H25.0048V15.4204Z" fill="#FF8D2F"/>
<path d="M26.7899 21.5903H25.0039V18.5061H26.7899V21.5903Z" fill="#FF8D2F"/>
<path d="M25.0048 40.0961H23.2188V37.0119H25.0048V40.0961Z" fill="#FFA82F"/>
<path d="M23.2196 40.0961H21.4336V37.0119H23.2196V40.0961Z" fill="#FFA82F"/>
<path d="M25.0048 37.0102H23.2188V33.9259H25.0048V37.0102Z" fill="#FFA82F"/>
<path d="M26.7899 30.8441H25.0039V27.7599H26.7899V30.8441Z" fill="#FFA82F"/>
<path d="M26.7899 27.7582H25.0039V24.674H26.7899V27.7582Z" fill="#FFA82F"/>
<path d="M23.2196 37.0102H21.4336V33.9259H23.2196V37.0102Z" fill="#FFA82F"/>
<path d="M25.0048 33.9281H23.2188V30.8439H25.0048V33.9281Z" fill="#FFA82F"/>
<path d="M25.0048 30.8441H23.2188V27.7599H25.0048V30.8441Z" fill="#FFA82F"/>
<path d="M25.0048 27.7582H23.2188V24.674H25.0048V27.7582Z" fill="#FFA82F"/>
<path d="M23.2196 33.9281H21.4336V30.8439H23.2196V33.9281Z" fill="#FFA82F"/>
<path d="M23.2196 30.8441H21.4336V27.7599H23.2196V30.8441Z" fill="#FFA82F"/>
<path d="M23.2196 27.7582H21.4336V24.674H23.2196V27.7582Z" fill="#FFA82F"/>
<path d="M17.8602 40.0961H16.0742V37.0119H17.8602V40.0961Z" fill="#FFA82F"/>
<path d="M19.6454 40.0961H17.8594V37.0119H19.6454V40.0961Z" fill="#FFA82F"/>
<path d="M21.4325 40.0961H19.6465V37.0119H21.4325V40.0961Z" fill="#FFA82F"/>
<path d="M17.8602 37.0102H16.0742V33.9259H17.8602V37.0102Z" fill="#FFA82F"/>
<path d="M19.6454 37.0102H17.8594V33.9259H19.6454V37.0102Z" fill="#FFA82F"/>
<path d="M21.4325 30.8441H19.6465V27.7599H21.4325V30.8441Z" fill="#FFA82F"/>
<path d="M21.4325 27.7582H19.6465V24.674H21.4325V27.7582Z" fill="#FFA82F"/>
<path d="M19.6454 30.8441H17.8594V27.7599H19.6454V30.8441Z" fill="#FFA82F"/>
<path d="M17.8602 33.9281H16.0742V30.8439H17.8602V33.9281Z" fill="#FFA82F"/>
<path d="M19.6454 33.9281H17.8594V30.8439H19.6454V33.9281Z" fill="#FFA82F"/>
<path d="M21.4325 37.0102H19.6465V33.9259H21.4325V37.0102Z" fill="#FFA82F"/>
<path d="M17.8602 43.18H16.0742V40.0958H17.8602V43.18Z" fill="#FFA82F"/>
<path d="M21.4325 33.9281H19.6465V30.8439H21.4325V33.9281Z" fill="#FFA82F"/>
<path d="M16.0751 40.0961H14.2891V37.0119H16.0751V40.0961Z" fill="#FFA82F"/>
<path d="M14.288 40.0961H12.502V37.0119H14.288V40.0961Z" fill="#FFA82F"/>
<path d="M16.0751 37.0102H14.2891V33.9259H16.0751V37.0102Z" fill="#FFA82F"/>
<path d="M14.288 43.1801H12.502V40.0959H14.288V43.1801Z" fill="#FFA82F"/>
<path d="M16.0732 43.18H14.2871V40.0957H16.0732V43.18Z" fill="#FFA82F"/>
<path d="M26.7899 24.6742H25.0039V21.59H26.7899V24.6742Z" fill="#FFA82F"/>
<path d="M25.0048 21.5902H23.2188V18.506H25.0048V21.5902Z" fill="#FFA82F"/>
<path d="M25.0048 24.6742H23.2188V21.59H25.0048V24.6742Z" fill="#FFA82F"/>
<path d="M23.2196 24.6742H21.4336V21.59H23.2196V24.6742Z" fill="#FFA82F"/>
<path d="M21.4325 21.5903H19.6465V18.5061H21.4325V21.5903Z" fill="#FFA72F"/>
<path d="M23.2196 12.3364H21.4336V9.25221H23.2196V12.3364Z" fill="#FF8D2F"/>
<path d="M19.6454 9.25244H17.8594V6.16822H19.6454V9.25244Z" fill="#FF8D2F"/>
<path d="M21.4325 9.25244H19.6465V6.16822H21.4325V9.25244Z" fill="#FF8D2F"/>
<path d="M17.8602 9.25244H16.0742V6.16822H17.8602V9.25244Z" fill="#FF8D2F"/>
<path d="M26.7899 18.5044H25.0039V15.4202H26.7899V18.5044Z" fill="#FF8D2F"/>
<path d="M28.5751 24.6743H26.7891V21.5901H28.5751V24.6743Z" fill="#FF8D2F"/>
<path d="M21.4325 12.3363H19.6465V9.25207H21.4325V12.3363Z" fill="#FF8D2F"/>
<path d="M21.4325 49.348H19.6465V46.2638H21.4325V49.348Z" fill="#FFD92F"/>
<path d="M19.6454 49.3481H17.8594V46.2639H19.6454V49.3481Z" fill="#FFD92F"/>
<path d="M17.8602 49.3481H16.0742V46.2639H17.8602V49.3481Z" fill="#FFD92F"/>
<path d="M25.0048 46.2642H23.2188V43.1799H25.0048V46.2642Z" fill="#FFE880"/>
<path d="M26.7899 43.1802H25.0039V40.096H26.7899V43.1802Z" fill="#FFE880"/>
<path d="M28.5751 40.0962H26.7891V37.012H28.5751V40.0962Z" fill="#FFE880"/>
<path d="M28.5751 37.0122H26.7891V33.928H28.5751V37.0122Z" fill="#FFE880"/>
<path d="M30.3622 33.9263H28.5762V30.8421H30.3622V33.9263Z" fill="#FFE880"/>
<path d="M30.3622 30.8423H28.5762V27.7581H30.3622V30.8423Z" fill="#FFE880"/>
<path d="M30.3622 27.7583H28.5762V24.6741H30.3622V27.7583Z" fill="#FFD92F"/>
<path d="M23.2177 46.2642H21.4316V43.1799H23.2177V46.2642Z" fill="#FFE880"/>
<path d="M21.4306 46.2642H19.6445V43.1799H21.4306V46.2642Z" fill="#FFE880"/>
<path d="M12.5009 49.3481H10.7148V46.2639H12.5009V49.3481Z" fill="#FFD92F"/>
<path d="M14.288 49.3481H12.502V46.2639H14.288V49.3481Z" fill="#FFD92F"/>
<path d="M16.0732 49.3481H14.2871V46.2639H16.0732V49.3481Z" fill="#FFD92F"/>
<path d="M8.93055 46.2642H7.14453V43.1799H8.93055V46.2642Z" fill="#FFD92F"/>
<path d="M7.14348 43.1802H5.35742V40.096H7.14348V43.1802Z" fill="#FFD92F"/>
<path d="M5.35828 40.0959H3.57227V37.0117H5.35828V40.0959Z" fill="#FFD92F"/>
<path d="M5.35633 37.0122H3.57031V33.928H5.35633V37.0122Z" fill="#FFD92F"/>
<path d="M3.57121 33.9263H1.78516V30.8421H3.57121V33.9263Z" fill="#FFD92F"/>
<path d="M3.57121 30.8423H1.78516V27.7581H3.57121V30.8423Z" fill="#FFD92F"/>
<path d="M3.57121 27.7583H1.78516V24.6741H3.57121V27.7583Z" fill="#FFD92F"/>
<path d="M10.7157 46.2642H8.92969V43.1799H10.7157V46.2642Z" fill="#FFD92F"/>
<path d="M12.5009 46.2642H10.7148V43.1799H12.5009V46.2642Z" fill="#FFD92F"/>
<path d="M21.4306 6.16846H19.6445V3.08424H21.4306V6.16846Z" fill="#FFD92F"/>
<path d="M19.6454 6.16846H17.8594V3.08424H19.6454V6.16846Z" fill="#FFD92F"/>
<path d="M17.8602 6.16846H16.0742V3.08424H17.8602V6.16846Z" fill="#FFD92F"/>
<path d="M25.0028 9.25256H23.2168V6.16834H25.0028V9.25256Z" fill="#FFD92F"/>
<path d="M26.7899 12.3364H25.0039V9.25221H26.7899V12.3364Z" fill="#FFD92F"/>
<path d="M28.5751 15.4224H26.7891V12.3381H28.5751V15.4224Z" fill="#FFD92F"/>
<path d="M28.5751 18.5063H26.7891V15.4221H28.5751V18.5063Z" fill="#FFD92F"/>
<path d="M30.3622 21.5903H28.5762V18.5061H30.3622V21.5903Z" fill="#FFD92F"/>
<path d="M30.3622 24.6724H28.5762V21.5881H30.3622V24.6724Z" fill="#FFD92F"/>
<path d="M23.2177 9.25253H21.4316V6.16831H23.2177V9.25253Z" fill="#FFD92F"/>
<path d="M25.0048 12.3364H23.2188V9.25221H25.0048V12.3364Z" fill="#FFD92F"/>
<path d="M26.7899 15.4224H25.0039V12.3381H26.7899V15.4224Z" fill="#FFD92F"/>
<path d="M28.5751 21.5903H26.7891V18.5061H28.5751V21.5903Z" fill="#FFD92F"/>
<path d="M12.5009 6.16846H10.7148V3.08424H12.5009V6.16846Z" fill="#FFD92F"/>
<path d="M14.288 6.16846H12.502V3.08424H14.288V6.16846Z" fill="#FFD92F"/>
<path d="M16.0732 6.16846H14.2871V3.08424H16.0732V6.16846Z" fill="#FFD92F"/>
<path d="M8.9286 9.25256H7.14258V6.16834H8.9286V9.25256Z" fill="#FFD92F"/>
<path d="M7.14348 12.3364H5.35742V9.25221H7.14348V12.3364Z" fill="#FFD92F"/>
<path d="M5.35633 15.4204H3.57031V12.3362H5.35633V15.4204Z" fill="#FFD92F"/>
<path d="M5.35633 18.5063H3.57031V15.4221H5.35633V18.5063Z" fill="#FFD92F"/>
<path d="M3.57121 21.5905H1.78516V18.5063H3.57121V21.5905Z" fill="#FFD92F"/>
<path d="M3.57121 24.6743H1.78516V21.5901H3.57121V24.6743Z" fill="#FFD92F"/>
<path d="M10.7157 9.25253H8.92969V6.16831H10.7157V9.25253Z" fill="#FFD92F"/>
<path d="M21.4325 52.4321H19.6465V49.3479H21.4325V52.4321Z" fill="#FF8D2F"/>
<path d="M19.6454 52.4321H17.8594V49.3479H19.6454V52.4321Z" fill="#FF8D2F"/>
<path d="M17.8602 52.4321H16.0742V49.3479H17.8602V52.4321Z" fill="#FF8D2F"/>
<path d="M32.1493 27.7583H30.3633V24.6741H32.1493V27.7583Z" fill="#FF8D2F"/>
<path d="M32.1493 30.842H30.3633V27.7578H32.1493V30.842Z" fill="#FF8D2F"/>
<path d="M32.1493 33.9263H30.3633V30.8421H32.1493V33.9263Z" fill="#FF943D"/>
<path d="M30.3622 37.0103H28.5762V33.926H30.3622V37.0103Z" fill="#FF8D2F"/>
<path d="M30.3622 40.0962H28.5762V37.012H30.3622V40.0962Z" fill="#FF8D2F"/>
<path d="M28.5751 43.1802H26.7891V40.096H28.5751V43.1802Z" fill="#FF943D"/>
<path d="M26.7899 46.2622H25.0039V43.178H26.7899V46.2622Z" fill="#FF8D2F"/>
<path d="M23.2196 49.3481H21.4336V46.2639H23.2196V49.3481Z" fill="#FF8D2F"/>
<path d="M25.0048 49.3481H23.2188V46.2639H25.0048V49.3481Z" fill="#FF8D2F"/>
<path d="M12.5028 52.4321H10.7168V49.3479H12.5028V52.4321Z" fill="#FFA52F"/>
<path d="M14.288 52.4321H12.502V49.3479H14.288V52.4321Z" fill="#FFA52F"/>
<path d="M16.0751 52.4321H14.2891V49.3479H16.0751V52.4321Z" fill="#FF8D2F"/>
<path d="M1.78602 27.7583H0V24.6741H1.78602V27.7583Z" fill="#FF8D2F"/>
<path d="M1.78602 30.8421H0V27.7579H1.78602V30.8421Z" fill="#FF8D2F"/>
<path d="M1.78602 33.9263H0V30.8421H1.78602V33.9263Z" fill="#FF8D2F"/>
<path d="M3.57121 37.0103H1.78516V33.926H3.57121V37.0103Z" fill="#FF8D2F"/>
<path d="M3.57121 40.0962H1.78516V37.012H3.57121V40.0962Z" fill="#FF8D2F"/>
<path d="M5.35828 43.1801H3.57227V40.0959H5.35828V43.1801Z" fill="#FF8D2F"/>
<path d="M7.14543 46.2622H5.35938V43.178H7.14543V46.2622Z" fill="#FFA52F"/>
<path d="M10.7157 49.3481H8.92969V46.2639H10.7157V49.3481Z" fill="#FFA52F"/>
<path d="M8.93055 49.3481H7.14453V46.2639H8.93055V49.3481Z" fill="#FFA52F"/>
<path d="M21.4325 3.08424H19.6465V2.43187e-05H21.4325V3.08424Z" fill="#FF8D2F"/>
<path d="M31.7976 3.08447H21.4336V0.000253201H31.7976V3.08447Z" fill="#FF8D2F"/>
<path d="M19.6454 3.08423H17.8594V9.05991e-06H19.6454V3.08423Z" fill="#FF8D2F"/>
<path d="M17.8602 3.08424H16.0742V2.43187e-05H17.8602V3.08424Z" fill="#FF8D2F"/>
<path d="M32.1493 24.6743H30.3633V21.5901H32.1493V24.6743Z" fill="#FF8D2F"/>
<path d="M32.1493 21.5903H30.3633V18.5061H32.1493V21.5903Z" fill="#FF8D2F"/>
<path d="M30.3622 18.5044H28.5762V15.4202H30.3622V18.5044Z" fill="#FF8D2F"/>
<path d="M30.3622 15.4204H28.5762V12.3362H30.3622V15.4204Z" fill="#FF8D2F"/>
<path d="M28.5751 12.3364H26.7891V9.25221H28.5751V12.3364Z" fill="#FF8D2F"/>
<path d="M26.7899 9.25244H25.0039V6.16822H26.7899V9.25244Z" fill="#FF8D2F"/>
<path d="M23.2196 6.16846H21.4336V3.08424H23.2196V6.16846Z" fill="#FF8D2F"/>
<path d="M25.0048 6.16846H23.2188V3.08424H25.0048V6.16846Z" fill="#FF8D2F"/>
<path d="M34.9254 6.16846H25.0039V3.08424H34.9254V6.16846Z" fill="#FFD92F"/>
<path d="M12.5028 3.08423H10.7168V9.05991e-06H12.5028V3.08423Z" fill="#FF8D2F"/>
<path d="M14.288 3.08424H12.502V2.43187e-05H14.288V3.08424Z" fill="#FF8D2F"/>
<path d="M16.0751 3.08423H14.2891V9.05991e-06H16.0751V3.08423Z" fill="#FF8D2F"/>
<path d="M1.78602 24.6743H0V21.5901H1.78602V24.6743Z" fill="#FF8D2F"/>
<path d="M1.78602 21.5903H0V18.5061H1.78602V21.5903Z" fill="#FF8D2F"/>
<path d="M3.57121 18.5063H1.78516V15.4221H3.57121V18.5063Z" fill="#FF8D2F"/>
<path d="M3.57121 15.4204H1.78516V12.3362H3.57121V15.4204Z" fill="#FF8D2F"/>
<path d="M5.35828 12.3363H3.57227V9.25207H5.35828V12.3363Z" fill="#FF8D2F"/>
<path d="M7.14543 9.25244H5.35938V6.16822H7.14543V9.25244Z" fill="#FF8D2F"/>
<path d="M10.7157 6.16846H8.92969V3.08424H10.7157V6.16846Z" fill="#FF8D2F"/>
<path d="M8.93055 6.16846H7.14453V3.08424H8.93055V6.16846Z" fill="#FF8D2F"/>
<path d="M12.5009 21.5903H10.7148V18.5061H12.5009V21.5903Z" fill="#FFA72F"/>
<path d="M19.6474 27.7583H17.8613V24.6741H19.6474V27.7583Z" fill="#FFC12F"/>
<path d="M17.8622 30.8442H16.0762V27.76H17.8622V30.8442Z" fill="#FFC12F"/>
<path d="M17.8622 27.7583H16.0762V24.6741H17.8622V27.7583Z" fill="#FFC12F"/>
<path d="M8.93055 40.0959H7.14453V37.0117H8.93055V40.0959Z" fill="#FFC12F"/>
<path d="M10.7177 40.096H8.93164V37.0118H10.7177V40.096Z" fill="#FFC12F"/>
<path d="M8.93055 37.0122H7.14453V33.928H8.93055V37.0122Z" fill="#FFC12F"/>
<path d="M7.14543 33.9263H5.35938V30.8421H7.14543V33.9263Z" fill="#FFC12F"/>
<path d="M10.7177 37.0122H8.93164V33.928H10.7177V37.0122Z" fill="#FFC12F"/>
<path d="M8.93055 33.9263H7.14453V30.8421H8.93055V33.9263Z" fill="#FFC12F"/>
<path d="M8.93055 30.8442H7.14453V27.76H8.93055V30.8442Z" fill="#FFC12F"/>
<path d="M10.7177 33.9263H8.93164V30.8421H10.7177V33.9263Z" fill="#FFC12F"/>
<path d="M10.7177 30.8442H8.93164V27.76H10.7177V30.8442Z" fill="#FFC12F"/>
<path d="M10.7177 27.7603H8.93164V24.676H10.7177V27.7603Z" fill="#FFC12F"/>
<path d="M12.5028 40.0959H10.7168V37.0117H12.5028V40.0959Z" fill="#FFC12F"/>
<path d="M14.2899 37.0122H12.5039V33.928H14.2899V37.0122Z" fill="#FFC12F"/>
<path d="M12.5048 30.8442H10.7188V27.76H12.5048V30.8442Z" fill="#FFC12F"/>
<path d="M12.5048 27.7603H10.7188V24.676H12.5048V27.7603Z" fill="#FFC12F"/>
<path d="M14.2899 30.8442H12.5039V27.76H14.2899V30.8442Z" fill="#FFC12F"/>
<path d="M14.2899 27.7583H12.5039V24.6741H14.2899V27.7583Z" fill="#FFC12F"/>
<path d="M16.0751 33.9263H14.2891V30.8421H16.0751V33.9263Z" fill="#FFC12F"/>
<path d="M16.0751 30.8442H14.2891V27.76H16.0751V30.8442Z" fill="#FFC12F"/>
<path d="M16.0751 27.7583H14.2891V24.6741H16.0751V27.7583Z" fill="#FFC12F"/>
<path d="M14.2899 33.9263H12.5039V30.8421H14.2899V33.9263Z" fill="#FFC12F"/>
<path d="M12.5048 37.0122H10.7188V33.928H12.5048V37.0122Z" fill="#FFC12F"/>
<path d="M12.5048 33.9263H10.7188V30.8421H12.5048V33.9263Z" fill="#FFC12F"/>
<path d="M23.2196 15.4224H21.4336V12.3381H23.2196V15.4224Z" fill="#FFC12F"/>
<path d="M25.0048 18.5063H23.2188V15.4221H25.0048V18.5063Z" fill="#FFC12F"/>
<path d="M23.2196 18.5063H21.4336V15.4221H23.2196V18.5063Z" fill="#FFC12F"/>
<path d="M23.2196 21.5905H21.4336V18.5063H23.2196V21.5905Z" fill="#FFC12F"/>
<path d="M17.8622 15.4224H16.0762V12.3381H17.8622V15.4224Z" fill="#FFC12F"/>
<path d="M19.6474 15.4224H17.8613V12.3381H19.6474V15.4224Z" fill="#FFC12F"/>
<path d="M21.4345 15.4224H19.6484V12.3381H21.4345V15.4224Z" fill="#FFC12F"/>
<path d="M17.8622 18.5063H16.0762V15.4221H17.8622V18.5063Z" fill="#FFC12F"/>
<path d="M19.6474 18.5063H17.8613V15.4221H19.6474V18.5063Z" fill="#FFC12F"/>
<path d="M21.4345 24.6743H19.6484V21.5901H21.4345V24.6743Z" fill="#FFC12F"/>
<path d="M19.6474 24.6743H17.8613V21.5901H19.6474V24.6743Z" fill="#FFC12F"/>
<path d="M17.8622 21.5903H16.0762V18.5061H17.8622V21.5903Z" fill="#FFC12F"/>
<path d="M17.8622 24.6743H16.0762V21.5901H17.8622V24.6743Z" fill="#FFC12F"/>
<path d="M19.6474 21.5903H17.8613V18.5061H19.6474V21.5903Z" fill="#FFC12F"/>
<path d="M21.4345 18.5063H19.6484V15.4221H21.4345V18.5063Z" fill="#FFC12F"/>
<path d="M19.6474 12.3384H17.8613V9.25416H19.6474V12.3384Z" fill="#FFC12F"/>
<path d="M21.4345 21.5906H19.6484V18.5064H21.4345V21.5906Z" fill="#FFC12F"/>
<path d="M16.0751 18.5063H14.2891V15.4221H16.0751V18.5063Z" fill="#FFC12F"/>
<path d="M12.5048 24.6743H10.7188V21.5901H12.5048V24.6743Z" fill="#FFC12F"/>
<path d="M14.2899 24.6743H12.5039V21.5901H14.2899V24.6743Z" fill="#FFC12F"/>
<path d="M16.0751 21.5903H14.2891V18.5061H16.0751V21.5903Z" fill="#FFC12F"/>
<path d="M16.0751 24.6743H14.2891V21.5901H16.0751V24.6743Z" fill="#FFC12F"/>
<path d="M14.2899 21.5903H12.5039V18.5061H14.2899V21.5903Z" fill="#FFC12F"/>
<path d="M8.93055 12.3364H7.14453V9.25221H8.93055V12.3364Z" fill="#FF8D2F"/>
<path d="M10.7157 12.3364H8.92969V9.25221H10.7157V12.3364Z" fill="#FF8D2F"/>
<path d="M14.288 9.25244H12.502V6.16822H14.288V9.25244Z" fill="#FF8D2F"/>
<path d="M12.5009 9.25244H10.7148V6.16822H12.5009V9.25244Z" fill="#FF8D2F"/>
<path d="M16.0751 9.25244H14.2891V6.16822H16.0751V9.25244Z" fill="#FF8D2F"/>
<path d="M7.14543 15.4204H5.35938V12.3362H7.14543V15.4204Z" fill="#FF8D2F"/>
<path d="M7.14543 18.5044H5.35938V15.4202H7.14543V18.5044Z" fill="#FF8D2F"/>
<path d="M5.35828 21.5903H3.57227V18.5061H5.35828V21.5903Z" fill="#FF8D2F"/>
<path d="M5.35828 24.6743H3.57227V21.5901H5.35828V24.6743Z" fill="#FF8D2F"/>
<path d="M7.14543 30.8423H5.35938V27.7581H7.14543V30.8423Z" fill="#FFD92F"/>
<path d="M7.14543 27.7583H5.35938V24.6741H7.14543V27.7583Z" fill="#FFD92F"/>
<path d="M8.93055 27.7583H7.14453V24.6741H8.93055V27.7583Z" fill="#FFD92F"/>
<path d="M17.8622 12.3364H16.0762V9.25221H17.8622V12.3364Z" fill="#FFD92F"/>
<path d="M8.93055 15.4204H7.14453V12.3362H8.93055V15.4204Z" fill="#FFD92F"/>
<path d="M10.7177 15.4204H8.93164V12.3362H10.7177V15.4204Z" fill="#FFD92F"/>
<path d="M8.93055 18.5063H7.14453V15.4221H8.93055V18.5063Z" fill="#FFD92F"/>
<path d="M7.14543 21.5903H5.35938V18.5061H7.14543V21.5903Z" fill="#FFD92F"/>
<path d="M7.14543 24.6724H5.35938V21.5881H7.14543V24.6724Z" fill="#FFD92F"/>
<path d="M10.7177 18.5063H8.93164V15.4221H10.7177V18.5063Z" fill="#FFD92F"/>
<path d="M8.93055 21.5903H7.14453V18.5061H8.93055V21.5903Z" fill="#FFD92F"/>
<path d="M8.93055 24.6724H7.14453V21.5881H8.93055V24.6724Z" fill="#FFD92F"/>
<path d="M10.7177 21.5903H8.93164V18.5061H10.7177V21.5903Z" fill="#FFD92F"/>
<path d="M10.7177 24.6724H8.93164V21.5881H10.7177V24.6724Z" fill="#FFD92F"/>
<path d="M16.0751 15.4204H14.2891V12.3362H16.0751V15.4204Z" fill="#FFD92F"/>
<path d="M14.2899 15.4204H12.5039V12.3362H14.2899V15.4204Z" fill="#FFD92F"/>
<path d="M12.5048 15.4204H10.7188V12.3362H12.5048V15.4204Z" fill="#FFD92F"/>
<path d="M14.2899 18.5044H12.5039V15.4202H14.2899V18.5044Z" fill="#FFD92F"/>
<path d="M12.5048 18.5063H10.7188V15.4221H12.5048V18.5063Z" fill="#FFD92F"/>
<path d="M12.5028 12.3363H10.7168V9.25208H12.5028V12.3363Z" fill="#FFD92F"/>
<path d="M14.2899 12.3364H12.5039V9.25221H14.2899V12.3364Z" fill="#FFD92F"/>
<path d="M16.0751 12.3364H14.2891V9.25221H16.0751V12.3364Z" fill="#FFD92F"/>
<path d="M12.5048 21.5903H10.7188V18.5061H12.5048V21.5903Z" fill="#FFD92F"/>
<path d="M26.7903 6.16849L36.3145 6.16849V9.25271L26.7903 9.25271V6.16849Z" fill="#FFA52F"/>
<path d="M28.5754 9.25244L38.4062 9.25244V12.3367L28.5754 12.3367V9.25244Z" fill="#FF8D2F"/>
<path d="M30.3638 12.3364L40.3906 12.3364V15.4206L30.3638 15.4206V12.3364Z" fill="#FFA52F"/>
<path d="M30.3638 15.4204L40.3906 15.4204V18.5046H30.3638V15.4204Z" fill="#FFD92F"/>
<path d="M31.7976 52.4321H21.4336V49.3479H31.7976V52.4321Z" fill="#FFA52F"/>
<path d="M34.9254 49.3481H25.0039V46.2639H34.9254V49.3481Z" fill="#FFE880"/>
<path d="M26.7903 43.1801H36.3145V46.2643H26.7903V43.1801Z" fill="#FFA52F"/>
<path d="M28.5754 40.0962H38.4062V43.1804H28.5754V40.0962Z" fill="#FFE880"/>
<path d="M30.3638 33.9263H40.3906V40.0947H30.3638V33.9263Z" fill="#FFBD2F"/>
<path d="M32.1497 21.5903H42.3789V30.8431H32.1497V21.5903Z" fill="#FFBD2F"/>
<path d="M32.1497 18.5063H42.3789V21.5906H32.1497V18.5063Z" fill="#FFA52F"/>
<path d="M32.1477 30.842H42.377V33.9263H32.1477V30.842Z" fill="#FFE880"/>
</svg>
