<svg width="85" height="79" viewBox="0 0 85 79" fill="none" xmlns="http://www.w3.org/2000/svg">
<path d="M61.6881 30.5395V38.0644L69.0583 38.471V45.9635H84.1543V38.4778H76.7206V31.0076L69.2932 30.6354V23.0471H61.8421V15.4234H54.3072V7.64444H46.8232V0H39.2612V7.32594H31.7388C31.627 9.87005 31.5228 12.2346 31.4124 14.7453H23.8978V22.2194H16.175V29.7907H8.45169V37.1869H0.847527V44.7456H15.7851V37.5973H23.5346V30.1068H31.2099V22.6139H38.7894C38.9347 20.061 39.0723 17.6587 39.2137 15.1819H46.5951V22.8578H54.128V30.5395H61.6881Z" fill="white"/>
<path d="M61.6881 63.5762V71.101L69.0583 71.5076V79.0001H84.1543V71.5144H76.7206V64.0442L69.2932 63.672V56.0837H61.8421V48.4601H54.3072V40.6811H46.8232V33.0366H39.2612V40.3626H31.7388C31.627 42.9067 31.5228 45.2712 31.4124 47.7819H23.8978V55.256H16.175V62.8274H8.45169V70.2235H0.847527V77.7822H15.7851V70.6339H23.5346V63.1434H31.2099V55.6505H38.7894C38.9347 53.0977 39.0723 50.6954 39.2137 48.2185H46.5951V55.8944H54.128V63.5762H61.6881Z" fill="white"/>
</svg>
