<svg width="36" height="36" viewBox="0 0 36 36" fill="none" xmlns="http://www.w3.org/2000/svg">
<path d="M17.8102 34.6087C27.0317 34.6087 34.5072 27.1333 34.5072 17.9118C34.5072 8.69032 27.0317 1.21484 17.8102 1.21484C8.58876 1.21484 1.11328 8.69032 1.11328 17.9118C1.11328 27.1333 8.58876 34.6087 17.8102 34.6087Z" fill="#ED4C5C"/>
<path d="M22.9849 21.8075L23.0406 18.8021L20.0352 17.9116L23.0406 17.0211L22.9849 14.0156L24.8216 16.4089L27.8271 15.5184L25.9904 17.9116L27.8271 20.3048L24.8216 19.4143L22.9849 21.8075Z" fill="white"/>
<path d="M18.479 24.5898C14.8057 24.5898 11.8559 21.5843 11.8559 17.911C11.8559 14.2376 14.8057 11.2322 18.479 11.2322C19.8704 11.2322 21.1505 11.6774 22.2637 12.401C20.7609 10.6756 18.5347 9.5625 16.0301 9.5625C11.4663 9.5625 7.79297 13.2915 7.79297 17.911C7.79297 22.5305 11.4663 26.2594 16.0301 26.2594C18.5347 26.2594 20.7609 25.1463 22.2637 23.421C21.2062 24.1445 19.9261 24.5898 18.479 24.5898Z" fill="white"/>
</svg>
