<svg width="65" height="36" viewBox="0 0 65 36" fill="none" xmlns="http://www.w3.org/2000/svg">
<path d="M41.1429 14.3184H38.8242V16.637H41.1429V14.3184Z" fill="#8FBC2E"/>
<path d="M41.1429 12H38.8242V14.3187H41.1429V12Z" fill="#5F8208"/>
<path d="M41.1429 32.8677H38.8242V35.1863H41.1429V32.8677Z" fill="#4F6801"/>
<path d="M41.1429 28.2305H38.8242V30.5491H41.1429V28.2305Z" fill="#8FBC2E"/>
<path d="M41.1429 16.6372H38.8242V18.9559H41.1429V16.6372Z" fill="#769929"/>
<path d="M41.1429 21.2744H38.8242V23.5931H41.1429V21.2744Z" fill="#769929"/>
<path d="M41.1429 18.9556H38.8242V21.2742H41.1429V18.9556Z" fill="#A4D85B"/>
<path d="M41.1429 23.5933H38.8242V25.9119H41.1429V23.5933Z" fill="#769929"/>
<path d="M41.1429 25.9116H38.8242V28.2303H41.1429V25.9116Z" fill="#769929"/>
<path d="M43.4612 23.5933H41.1426V25.9119H43.4612V23.5933Z" fill="#A4D85B"/>
<path d="M43.4612 25.9116H41.1426V28.2303H43.4612V25.9116Z" fill="#A4D85B"/>
<path d="M43.4612 28.2305H41.1426V30.5491H43.4612V28.2305Z" fill="#8FBC2E"/>
<path d="M43.4612 21.2744H41.1426V23.5931H43.4612V21.2744Z" fill="#A4D85B"/>
<path d="M43.4612 14.3184H41.1426V16.637H43.4612V14.3184Z" fill="#8FBC2E"/>
<path d="M43.4612 18.9556H41.1426V21.2742H43.4612V18.9556Z" fill="#A4D85B"/>
<path d="M43.4612 16.6372H41.1426V18.9559H43.4612V16.6372Z" fill="#A4D85B"/>
<path d="M43.4612 30.5488H41.1426V32.8675H43.4612V30.5488Z" fill="#5F8208"/>
<path d="M43.4612 12H41.1426V14.3187H43.4612V12Z" fill="#5F8208"/>
<path d="M43.4612 32.8677H41.1426V35.1863H43.4612V32.8677Z" fill="#4F6801"/>
<path d="M38.8226 32.8677H36.5039V35.1863H38.8226V32.8677Z" fill="#4F6801"/>
<path d="M38.8226 30.5488H36.5039V32.8675H38.8226V30.5488Z" fill="#5F8208"/>
<path d="M38.8226 28.2305H36.5039V30.5491H38.8226V28.2305Z" fill="#8FBC2E"/>
<path d="M38.8226 16.6372H36.5039V18.9559H38.8226V16.6372Z" fill="#769929"/>
<path d="M38.8226 25.9116H36.5039V28.2303H38.8226V25.9116Z" fill="#769929"/>
<path d="M38.8226 21.2744H36.5039V23.5931H38.8226V21.2744Z" fill="#769929"/>
<path d="M38.8226 23.5933H36.5039V25.9119H38.8226V23.5933Z" fill="#A4D85B"/>
<path d="M38.8226 18.9556H36.5039V21.2742H38.8226V18.9556Z" fill="#A4D85B"/>
<path d="M38.8226 14.3184H36.5039V16.637H38.8226V14.3184Z" fill="#8FBC2E"/>
<path d="M38.8226 12H36.5039V14.3187H38.8226V12Z" fill="#5F8208"/>
<path d="M48.098 25.9116H45.7793V28.2303H48.098V25.9116Z" fill="#A4D85B"/>
<path d="M48.098 28.2305H45.7793V30.5491H48.098V28.2305Z" fill="#8FBC2E"/>
<path d="M48.098 32.8677H45.7793V35.1863H48.098V32.8677Z" fill="#4F6801"/>
<path d="M48.098 30.5488H45.7793V32.8675H48.098V30.5488Z" fill="#5F8208"/>
<path d="M48.098 23.5933H45.7793V25.9119H48.098V23.5933Z" fill="#A4D85B"/>
<path d="M48.098 18.9556H45.7793V21.2742H48.098V18.9556Z" fill="#A4D85B"/>
<path d="M48.098 16.6372H45.7793V18.9559H48.098V16.6372Z" fill="#A4D85B"/>
<path d="M48.098 21.2744H45.7793V23.5931H48.098V21.2744Z" fill="#769929"/>
<path d="M48.098 14.3184H45.7793V16.637H48.098V14.3184Z" fill="#8FBC2E"/>
<path d="M48.098 12H45.7793V14.3187H48.098V12Z" fill="#5F8208"/>
<path d="M45.7796 16.6372H43.4609V18.9559H45.7796V16.6372Z" fill="#A4D85B"/>
<path d="M45.7796 14.3184H43.4609V16.637H45.7796V14.3184Z" fill="#8FBC2E"/>
<path d="M45.7796 12H43.4609V14.3187H45.7796V12Z" fill="#5F8208"/>
<path d="M45.7796 18.9556H43.4609V21.2742H45.7796V18.9556Z" fill="#A4D85B"/>
<path d="M45.7796 25.9116H43.4609V28.2303H45.7796V25.9116Z" fill="#A4D85B"/>
<path d="M45.7796 21.2744H43.4609V23.5931H45.7796V21.2744Z" fill="#A4D85B"/>
<path d="M45.7796 32.8677H43.4609V35.1863H45.7796V32.8677Z" fill="#4F6801"/>
<path d="M45.7796 23.5933H43.4609V25.9119H45.7796V23.5933Z" fill="#A4D85B"/>
<path d="M45.7796 28.2305H43.4609V30.5491H45.7796V28.2305Z" fill="#8FBC2E"/>
<path d="M45.7796 30.5488H43.4609V32.8675H45.7796V30.5488Z" fill="#5F8208"/>
<path d="M41.1429 30.5488H38.8242V32.8675H41.1429V30.5488Z" fill="#5F8208"/>
<path d="M24.9124 14.3184H22.5938V16.637H24.9124V14.3184Z" fill="#8FBC2E"/>
<path d="M24.9124 16.6372H22.5938V18.9559H24.9124V16.6372Z" fill="#A4D85B"/>
<path d="M24.9124 18.9556H22.5938V21.2742H24.9124V18.9556Z" fill="#A4D85B"/>
<path d="M24.9124 12H22.5938V14.3187H24.9124V12Z" fill="#5F8208"/>
<path d="M15.637 23.5933H13.3184V25.9119H15.637V23.5933Z" fill="#8FBC2E"/>
<path d="M13.3187 23.5933H11V25.9119H13.3187V23.5933Z" fill="#5F8208"/>
<path d="M22.594 23.5933H20.2754V25.9119H22.594V23.5933Z" fill="#A4D85B"/>
<path d="M24.9124 21.2744H22.5938V23.5931H24.9124V21.2744Z" fill="#769929"/>
<path d="M17.9554 23.5933H15.6367V25.9119H17.9554V23.5933Z" fill="#A4D85B"/>
<path d="M24.9124 23.5933H22.5938V25.9119H24.9124V23.5933Z" fill="#A4D85B"/>
<path d="M20.2757 23.5933H17.957V25.9119H20.2757V23.5933Z" fill="#A4D85B"/>
<path d="M27.2308 12H24.9121V14.3187H27.2308V12Z" fill="#5F8208"/>
<path d="M27.2308 18.9556H24.9121V21.2742H27.2308V18.9556Z" fill="#A4D85B"/>
<path d="M27.2308 16.6372H24.9121V18.9559H27.2308V16.6372Z" fill="#A4D85B"/>
<path d="M27.2308 21.2744H24.9121V23.5931H27.2308V21.2744Z" fill="#A4D85B"/>
<path d="M27.2308 14.3184H24.9121V16.637H27.2308V14.3184Z" fill="#8FBC2E"/>
<path d="M27.2308 23.5933H24.9121V25.9119H27.2308V23.5933Z" fill="#A4D85B"/>
<path d="M13.3187 25.9116H11V28.2303H13.3187V25.9116Z" fill="#5F8208"/>
<path d="M15.637 25.9116H13.3184V28.2303H15.637V25.9116Z" fill="#8FBC2E"/>
<path d="M22.594 25.9116H20.2754V28.2303H22.594V25.9116Z" fill="#A4D85B"/>
<path d="M27.2308 25.9116H24.9121V28.2303H27.2308V25.9116Z" fill="#A4D85B"/>
<path d="M24.9124 25.9116H22.5938V28.2303H24.9124V25.9116Z" fill="#A4D85B"/>
<path d="M20.2757 25.9116H17.957V28.2303H20.2757V25.9116Z" fill="#A4D85B"/>
<path d="M17.9554 25.9116H15.6367V28.2303H17.9554V25.9116Z" fill="#769929"/>
<path d="M13.3187 14.3184H11V16.637H13.3187V14.3184Z" fill="#5F8208"/>
<path d="M15.637 12H13.3184V14.3187H15.637V12Z" fill="#5F8208"/>
<path d="M17.9554 14.3184H15.6367V16.637H17.9554V14.3184Z" fill="#8FBC2E"/>
<path d="M17.9554 16.6372H15.6367V18.9559H17.9554V16.6372Z" fill="#769929"/>
<path d="M15.637 16.6372H13.3184V18.9559H15.637V16.6372Z" fill="#8FBC2E"/>
<path d="M17.9554 12H15.6367V14.3187H17.9554V12Z" fill="#5F8208"/>
<path d="M22.594 12H20.2754V14.3187H22.594V12Z" fill="#5F8208"/>
<path d="M15.637 14.3184H13.3184V16.637H15.637V14.3184Z" fill="#8FBC2E"/>
<path d="M13.3187 12H11V14.3187H13.3187V12Z" fill="#5F8208"/>
<path d="M13.3187 16.6372H11V18.9559H13.3187V16.6372Z" fill="#5F8208"/>
<path d="M15.637 21.2744H13.3184V23.5931H15.637V21.2744Z" fill="#8FBC2E"/>
<path d="M20.2757 21.2744H17.957V23.5931H20.2757V21.2744Z" fill="#A4D85B"/>
<path d="M13.3187 21.2744H11V23.5931H13.3187V21.2744Z" fill="#5F8208"/>
<path d="M22.594 16.6372H20.2754V18.9559H22.594V16.6372Z" fill="#A4D85B"/>
<path d="M22.594 14.3184H20.2754V16.637H22.594V14.3184Z" fill="#8FBC2E"/>
<path d="M22.594 18.9556H20.2754V21.2742H22.594V18.9556Z" fill="#A4D85B"/>
<path d="M22.594 21.2744H20.2754V23.5931H22.594V21.2744Z" fill="#A4D85B"/>
<path d="M17.9554 21.2744H15.6367V23.5931H17.9554V21.2744Z" fill="#A4D85B"/>
<path d="M20.2757 14.3184H17.957V16.637H20.2757V14.3184Z" fill="#8FBC2E"/>
<path d="M20.2757 16.6372H17.957V18.9559H20.2757V16.6372Z" fill="#A4D85B"/>
<path d="M20.2757 18.9556H17.957V21.2742H20.2757V18.9556Z" fill="#A4D85B"/>
<path d="M20.2757 12H17.957V14.3187H20.2757V12Z" fill="#5F8208"/>
<path d="M15.637 18.9556H13.3184V21.2742H15.637V18.9556Z" fill="#8FBC2E"/>
<path d="M13.3187 18.9556H11V21.2742H13.3187V18.9556Z" fill="#5F8208"/>
<path d="M17.9554 18.9556H15.6367V21.2742H17.9554V18.9556Z" fill="#A4D85B"/>
<path d="M24.9124 32.8677H22.5938V35.1863H24.9124V32.8677Z" fill="#4F6801"/>
<path d="M22.594 32.8677H20.2754V35.1863H22.594V32.8677Z" fill="#4F6801"/>
<path d="M34.1858 30.5488H31.8672V32.8675H34.1858V30.5488Z" fill="#5F8208"/>
<path d="M15.637 32.8677H13.3184V35.1863H15.637V32.8677Z" fill="#4F6801"/>
<path d="M20.2757 32.8677H17.957V35.1863H20.2757V32.8677Z" fill="#4F6801"/>
<path d="M34.1858 32.8677H31.8672V35.1863H34.1858V32.8677Z" fill="#4F6801"/>
<path d="M31.8675 32.8677H29.5488V35.1863H31.8675V32.8677Z" fill="#4F6801"/>
<path d="M29.5491 32.8677H27.2305V35.1863H29.5491V32.8677Z" fill="#4F6801"/>
<path d="M27.2308 32.8677H24.9121V35.1863H27.2308V32.8677Z" fill="#4F6801"/>
<path d="M17.9554 32.8677H15.6367V35.1863H17.9554V32.8677Z" fill="#4F6801"/>
<path d="M34.1858 16.6372H31.8672V18.9559H34.1858V16.6372Z" fill="#A4D85B"/>
<path d="M34.1858 18.9556H31.8672V21.2742H34.1858V18.9556Z" fill="#A4D85B"/>
<path d="M34.1858 21.2744H31.8672V23.5931H34.1858V21.2744Z" fill="#A4D85B"/>
<path d="M34.1858 23.5933H31.8672V25.9119H34.1858V23.5933Z" fill="#A4D85B"/>
<path d="M34.1858 25.9116H31.8672V28.2303H34.1858V25.9116Z" fill="#A4D85B"/>
<path d="M34.1858 28.2305H31.8672V30.5491H34.1858V28.2305Z" fill="#8FBC2E"/>
<path d="M34.1858 12H31.8672V14.3187H34.1858V12Z" fill="#5F8208"/>
<path d="M34.1858 14.3184H31.8672V16.637H34.1858V14.3184Z" fill="#8FBC2E"/>
<path d="M36.5062 12H34.1875V14.3187H36.5062V12Z" fill="#5F8208"/>
<path d="M36.5062 14.3184H34.1875V16.637H36.5062V14.3184Z" fill="#8FBC2E"/>
<path d="M36.5062 16.6372H34.1875V18.9559H36.5062V16.6372Z" fill="#769929"/>
<path d="M36.5062 28.2305H34.1875V30.5491H36.5062V28.2305Z" fill="#8FBC2E"/>
<path d="M36.5062 32.8677H34.1875V35.1863H36.5062V32.8677Z" fill="#4F6801"/>
<path d="M36.5062 30.5488H34.1875V32.8675H36.5062V30.5488Z" fill="#5F8208"/>
<path d="M36.5062 25.9116H34.1875V28.2303H36.5062V25.9116Z" fill="#769929"/>
<path d="M36.5062 21.2744H34.1875V23.5931H36.5062V21.2744Z" fill="#769929"/>
<path d="M36.5062 18.9556H34.1875V21.2742H36.5062V18.9556Z" fill="#769929"/>
<path d="M36.5062 23.5933H34.1875V25.9119H36.5062V23.5933Z" fill="#A4D85B"/>
<path d="M29.5491 18.9556H27.2305V21.2742H29.5491V18.9556Z" fill="#A4D85B"/>
<path d="M20.2757 28.2305H17.957V30.5491H20.2757V28.2305Z" fill="#8FBC2E"/>
<path d="M13.3187 28.2305H11V30.5491H13.3187V28.2305Z" fill="#5F8208"/>
<path d="M15.637 28.2305H13.3184V30.5491H15.637V28.2305Z" fill="#8FBC2E"/>
<path d="M22.594 28.2305H20.2754V30.5491H22.594V28.2305Z" fill="#8FBC2E"/>
<path d="M17.9554 28.2305H15.6367V30.5491H17.9554V28.2305Z" fill="#8FBC2E"/>
<path d="M29.5491 25.9116H27.2305V28.2303H29.5491V25.9116Z" fill="#A4D85B"/>
<path d="M29.5491 28.2305H27.2305V30.5491H29.5491V28.2305Z" fill="#8FBC2E"/>
<path d="M24.9124 28.2305H22.5938V30.5491H24.9124V28.2305Z" fill="#8FBC2E"/>
<path d="M27.2308 28.2305H24.9121V30.5491H27.2308V28.2305Z" fill="#8FBC2E"/>
<path d="M29.5491 23.5933H27.2305V25.9119H29.5491V23.5933Z" fill="#A4D85B"/>
<path d="M29.5491 21.2744H27.2305V23.5931H29.5491V21.2744Z" fill="#A4D85B"/>
<path d="M29.5491 12H27.2305V14.3187H29.5491V12Z" fill="#5F8208"/>
<path d="M29.5491 16.6372H27.2305V18.9559H29.5491V16.6372Z" fill="#A4D85B"/>
<path d="M29.5491 14.3184H27.2305V16.637H29.5491V14.3184Z" fill="#8FBC2E"/>
<path d="M29.5491 30.5488H27.2305V32.8675H29.5491V30.5488Z" fill="#5F8208"/>
<path d="M31.8675 30.5488H29.5488V32.8675H31.8675V30.5488Z" fill="#5F8208"/>
<path d="M27.2308 30.5488H24.9121V32.8675H27.2308V30.5488Z" fill="#5F8208"/>
<path d="M24.9124 30.5488H22.5938V32.8675H24.9124V30.5488Z" fill="#5F8208"/>
<path d="M31.8675 25.9116H29.5488V28.2303H31.8675V25.9116Z" fill="#A4D85B"/>
<path d="M31.8675 23.5933H29.5488V25.9119H31.8675V23.5933Z" fill="#A4D85B"/>
<path d="M31.8675 21.2744H29.5488V23.5931H31.8675V21.2744Z" fill="#A4D85B"/>
<path d="M31.8675 18.9556H29.5488V21.2742H31.8675V18.9556Z" fill="#A4D85B"/>
<path d="M31.8675 28.2305H29.5488V30.5491H31.8675V28.2305Z" fill="#8FBC2E"/>
<path d="M22.594 30.5488H20.2754V32.8675H22.594V30.5488Z" fill="#5F8208"/>
<path d="M17.9554 30.5488H15.6367V32.8675H17.9554V30.5488Z" fill="#5F8208"/>
<path d="M20.2757 30.5488H17.957V32.8675H20.2757V30.5488Z" fill="#5F8208"/>
<path d="M15.637 30.5488H13.3184V32.8675H15.637V30.5488Z" fill="#5F8208"/>
<path d="M13.3187 30.5488H11V32.8675H13.3187V30.5488Z" fill="#5F8208"/>
<path d="M31.8675 12H29.5488V14.3187H31.8675V12Z" fill="#5F8208"/>
<path d="M31.8675 14.3184H29.5488V16.637H31.8675V14.3184Z" fill="#8FBC2E"/>
<path d="M31.8675 16.6372H29.5488V18.9559H31.8675V16.6372Z" fill="#A4D85B"/>
<path d="M62.0101 30.5488H59.6914V32.8675H62.0101V30.5488Z" fill="#5F8208"/>
<path d="M62.0101 32.8677H59.6914V35.1863H62.0101V32.8677Z" fill="#4F6801"/>
<path d="M62.0101 18.9556H59.6914V21.2742H62.0101V18.9556Z" fill="#5F8208"/>
<path d="M62.0101 28.2305H59.6914V30.5491H62.0101V28.2305Z" fill="#5F8208"/>
<path d="M62.0101 21.2744H59.6914V23.5931H62.0101V21.2744Z" fill="#5F8208"/>
<path d="M62.0101 23.5933H59.6914V25.9119H62.0101V23.5933Z" fill="#5F8208"/>
<path d="M62.0101 25.9116H59.6914V28.2303H62.0101V25.9116Z" fill="#5F8208"/>
<path d="M62.0101 12H59.6914V14.3187H62.0101V12Z" fill="#5F8208"/>
<path d="M62.0101 14.3184H59.6914V16.637H62.0101V14.3184Z" fill="#5F8208"/>
<path d="M62.0101 16.6372H59.6914V18.9559H62.0101V16.6372Z" fill="#5F8208"/>
<path d="M59.6917 25.9116H57.373V28.2303H59.6917V25.9116Z" fill="#8FBC2E"/>
<path d="M59.6917 23.5933H57.373V25.9119H59.6917V23.5933Z" fill="#8FBC2E"/>
<path d="M59.6917 28.2305H57.373V30.5491H59.6917V28.2305Z" fill="#8FBC2E"/>
<path d="M59.6917 21.2744H57.373V23.5931H59.6917V21.2744Z" fill="#8FBC2E"/>
<path d="M59.6917 18.9556H57.373V21.2742H59.6917V18.9556Z" fill="#8FBC2E"/>
<path d="M59.6917 14.3184H57.373V16.637H59.6917V14.3184Z" fill="#8FBC2E"/>
<path d="M59.6917 12H57.373V14.3187H59.6917V12Z" fill="#5F8208"/>
<path d="M59.6917 16.6372H57.373V18.9559H59.6917V16.6372Z" fill="#8FBC2E"/>
<path d="M59.6917 30.5488H57.373V32.8675H59.6917V30.5488Z" fill="#5F8208"/>
<path d="M59.6917 32.8677H57.373V35.1863H59.6917V32.8677Z" fill="#4F6801"/>
<path d="M64.3284 30.5488H62.0098V32.8675H64.3284V30.5488Z" fill="#4F6801"/>
<path d="M64.3284 18.9556H62.0098V21.2742H64.3284V18.9556Z" fill="#4F6801"/>
<path d="M64.3284 23.5933H62.0098V25.9119H64.3284V23.5933Z" fill="#4F6801"/>
<path d="M64.3284 16.6372H62.0098V18.9559H64.3284V16.6372Z" fill="#4F6801"/>
<path d="M64.3284 14.3184H62.0098V16.637H64.3284V14.3184Z" fill="#4F6801"/>
<path d="M64.3284 25.9116H62.0098V28.2303H64.3284V25.9116Z" fill="#4F6801"/>
<path d="M64.3284 32.8677H62.0098V35.1863H64.3284V32.8677Z" fill="#4F6801"/>
<path d="M64.3284 28.2305H62.0098V30.5491H64.3284V28.2305Z" fill="#4F6801"/>
<path d="M64.3284 21.2744H62.0098V23.5931H64.3284V21.2744Z" fill="#4F6801"/>
<path d="M52.7347 12H50.416V14.3187H52.7347V12Z" fill="#5F8208"/>
<path d="M52.7347 14.3184H50.416V16.637H52.7347V14.3184Z" fill="#8FBC2E"/>
<path d="M52.7347 16.6372H50.416V18.9559H52.7347V16.6372Z" fill="#A4D85B"/>
<path d="M52.7347 23.5933H50.416V25.9119H52.7347V23.5933Z" fill="#A4D85B"/>
<path d="M52.7347 21.2744H50.416V23.5931H52.7347V21.2744Z" fill="#A4D85B"/>
<path d="M52.7347 32.8677H50.416V35.1863H52.7347V32.8677Z" fill="#4F6801"/>
<path d="M52.7347 30.5488H50.416V32.8675H52.7347V30.5488Z" fill="#5F8208"/>
<path d="M52.7347 25.9116H50.416V28.2303H52.7347V25.9116Z" fill="#A4D85B"/>
<path d="M52.7347 28.2305H50.416V30.5491H52.7347V28.2305Z" fill="#8FBC2E"/>
<path d="M52.7347 18.9556H50.416V21.2742H52.7347V18.9556Z" fill="#A4D85B"/>
<path d="M50.4163 23.5933H48.0977V25.9119H50.4163V23.5933Z" fill="#A4D85B"/>
<path d="M50.4163 25.9116H48.0977V28.2303H50.4163V25.9116Z" fill="#A4D85B"/>
<path d="M50.4163 18.9556H48.0977V21.2742H50.4163V18.9556Z" fill="#A4D85B"/>
<path d="M50.4163 21.2744H48.0977V23.5931H50.4163V21.2744Z" fill="#A4D85B"/>
<path d="M50.4163 12H48.0977V14.3187H50.4163V12Z" fill="#5F8208"/>
<path d="M50.4163 28.2305H48.0977V30.5491H50.4163V28.2305Z" fill="#8FBC2E"/>
<path d="M50.4163 14.3184H48.0977V16.637H50.4163V14.3184Z" fill="#8FBC2E"/>
<path d="M50.4163 16.6372H48.0977V18.9559H50.4163V16.6372Z" fill="#A4D85B"/>
<path d="M50.4163 30.5488H48.0977V32.8675H50.4163V30.5488Z" fill="#5F8208"/>
<path d="M50.4163 32.8677H48.0977V35.1863H50.4163V32.8677Z" fill="#4F6801"/>
<path d="M57.3733 21.2744H55.0547V23.5931H57.3733V21.2744Z" fill="#A4D85B"/>
<path d="M57.3733 18.9556H55.0547V21.2742H57.3733V18.9556Z" fill="#A4D85B"/>
<path d="M57.3733 23.5933H55.0547V25.9119H57.3733V23.5933Z" fill="#A4D85B"/>
<path d="M57.3733 16.6372H55.0547V18.9559H57.3733V16.6372Z" fill="#769929"/>
<path d="M57.3733 14.3184H55.0547V16.637H57.3733V14.3184Z" fill="#8FBC2E"/>
<path d="M57.3733 25.9116H55.0547V28.2303H57.3733V25.9116Z" fill="#769929"/>
<path d="M57.3733 12H55.0547V14.3187H57.3733V12Z" fill="#5F8208"/>
<path d="M57.3733 28.2305H55.0547V30.5491H57.3733V28.2305Z" fill="#8FBC2E"/>
<path d="M57.3733 32.8677H55.0547V35.1863H57.3733V32.8677Z" fill="#4F6801"/>
<path d="M57.3733 30.5488H55.0547V32.8675H57.3733V30.5488Z" fill="#5F8208"/>
<path d="M55.055 30.5488H52.7363V32.8675H55.055V30.5488Z" fill="#5F8208"/>
<path d="M55.055 14.3184H52.7363V16.637H55.055V14.3184Z" fill="#8FBC2E"/>
<path d="M55.055 12H52.7363V14.3187H55.055V12Z" fill="#5F8208"/>
<path d="M55.055 16.6372H52.7363V18.9559H55.055V16.6372Z" fill="#A4D85B"/>
<path d="M55.055 32.8677H52.7363V35.1863H55.055V32.8677Z" fill="#4F6801"/>
<path d="M55.055 28.2305H52.7363V30.5491H55.055V28.2305Z" fill="#8FBC2E"/>
<path d="M55.055 23.5933H52.7363V25.9119H55.055V23.5933Z" fill="#A4D85B"/>
<path d="M55.055 21.2744H52.7363V23.5931H55.055V21.2744Z" fill="#A4D85B"/>
<path d="M55.055 25.9116H52.7363V28.2303H55.055V25.9116Z" fill="#A4D85B"/>
<path d="M55.055 18.9556H52.7363V21.2742H55.055V18.9556Z" fill="#A4D85B"/>
<path d="M12.6553 27.0078H11.9805V27.8325H12.6553V27.0078Z" fill="#787F84"/>
<path d="M11.9815 27.0078H11.3066V27.8325H11.9815V27.0078Z" fill="#787F84"/>
<path d="M13.3311 26.1846H12.6562V27.0081H13.3311V26.1846Z" fill="#787F84"/>
<path d="M12.6553 26.1846H11.9805V27.0081H12.6553V26.1846Z" fill="#787F84"/>
<path d="M11.9815 26.1846H11.3066V27.0081H11.9815V26.1846Z" fill="#787F84"/>
<path d="M11.3057 26.1846H10.6309V27.0081H11.3057V26.1846Z" fill="#787F84"/>
<path d="M14.6807 25.3599H14.0059V26.1845H14.6807V25.3599Z" fill="#91969A"/>
<path d="M14.0069 25.3599H13.332V26.1845H14.0069V25.3599Z" fill="#787F84"/>
<path d="M13.3311 25.3599H12.6562V26.1845H13.3311V25.3599Z" fill="#787F84"/>
<path d="M12.6553 25.3599H11.9805V26.1845H12.6553V25.3599Z" fill="#6C6E78"/>
<path d="M11.9815 25.3599H11.3066V26.1845H11.9815V25.3599Z" fill="#6C6E78"/>
<path d="M11.3057 25.3599H10.6309V26.1845H11.3057V25.3599Z" fill="#787F84"/>
<path d="M10.6299 25.3599H9.95508V26.1845H10.6299V25.3599Z" fill="#787F84"/>
<path d="M9.95607 25.3599H9.28125V26.1845H9.95607V25.3599Z" fill="#94989D"/>
<path d="M15.3565 24.5352H14.6816V25.3598H15.3565V24.5352Z" fill="#787F84"/>
<path d="M14.6807 24.5352H14.0059V25.3598H14.6807V24.5352Z" fill="#787F84"/>
<path d="M14.0069 24.5352H13.332V25.3598H14.0069V24.5352Z" fill="#787F84"/>
<path d="M13.3311 24.5352H12.6562V25.3598H13.3311V24.5352Z" fill="#696B76"/>
<path d="M12.6553 24.5352H11.9805V25.3598H12.6553V24.5352Z" fill="#696B76"/>
<path d="M11.9815 24.5352H11.3066V25.3598H11.9815V24.5352Z" fill="#696B76"/>
<path d="M11.3057 24.5352H10.6309V25.3598H11.3057V24.5352Z" fill="#696B76"/>
<path d="M10.6299 24.5352H9.95508V25.3598H10.6299V24.5352Z" fill="#7A8086"/>
<path d="M9.95607 24.5352H9.28125V25.3598H9.95607V24.5352Z" fill="#7D8489"/>
<path d="M9.28029 24.5352H8.60547V25.3598H9.28029V24.5352Z" fill="#7E8389"/>
<path d="M16.7061 23.7114H16.0312V24.5349H16.7061V23.7114Z" fill="#787F84"/>
<path d="M16.0322 23.7114H15.3574V24.5349H16.0322V23.7114Z" fill="#787F84"/>
<path d="M15.3565 23.7114H14.6816V24.5349H15.3565V23.7114Z" fill="#787F84"/>
<path d="M14.6807 23.7114H14.0059V24.5349H14.6807V23.7114Z" fill="#696B76"/>
<path d="M14.0069 23.7114H13.332V24.5349H14.0069V23.7114Z" fill="#696B76"/>
<path d="M13.3311 23.7114H12.6562V24.5349H13.3311V23.7114Z" fill="#696B76"/>
<path d="M12.6553 23.7114H11.9805V24.5349H12.6553V23.7114Z" fill="#696B76"/>
<path d="M11.9815 23.7114H11.3066V24.5349H11.9815V23.7114Z" fill="#6F717C"/>
<path d="M11.3057 23.7114H10.6309V24.5349H11.3057V23.7114Z" fill="#6F717C"/>
<path d="M10.6299 23.7114H9.95508V24.5349H10.6299V23.7114Z" fill="#6F717C"/>
<path d="M9.95607 23.7114H9.28125V24.5349H9.95607V23.7114Z" fill="#6F717C"/>
<path d="M9.28029 23.7114H8.60547V24.5349H9.28029V23.7114Z" fill="#868B91"/>
<path d="M8.60451 23.7114H7.92969V24.5349H8.60451V23.7114Z" fill="#868B91"/>
<path d="M7.93068 23.7114H7.25586V24.5349H7.93068V23.7114Z" fill="#868B91"/>
<path d="M18.0576 22.8882H17.3828V23.7128H18.0576V22.8882Z" fill="#999CA1"/>
<path d="M17.3819 22.8882H16.707V23.7128H17.3819V22.8882Z" fill="#787F84"/>
<path d="M16.7061 22.8882H16.0312V23.7128H16.7061V22.8882Z" fill="#787F84"/>
<path d="M16.0322 22.8882H15.3574V23.7128H16.0322V22.8882Z" fill="#777E83"/>
<path d="M15.3565 22.8882H14.6816V23.7128H15.3565V22.8882Z" fill="#696B76"/>
<path d="M14.6807 22.8882H14.0059V23.7128H14.6807V22.8882Z" fill="#696B76"/>
<path d="M14.0069 22.8882H13.332V23.7128H14.0069V22.8882Z" fill="#696B76"/>
<path d="M13.3311 22.8882H12.6562V23.7128H13.3311V22.8882Z" fill="#6F717C"/>
<path d="M12.6553 22.8882H11.9805V23.7128H12.6553V22.8882Z" fill="#6F717C"/>
<path d="M11.9815 22.8882H11.3066V23.7128H11.9815V22.8882Z" fill="#6F717C"/>
<path d="M11.3057 22.8882H10.6309V23.7128H11.3057V22.8882Z" fill="#6F717C"/>
<path d="M10.6299 22.8882H9.95508V23.7128H10.6299V22.8882Z" fill="#727380"/>
<path d="M9.95607 22.8882H9.28125V23.7128H9.95607V22.8882Z" fill="#797986"/>
<path d="M9.28029 22.8882H8.60547V23.7128H9.28029V22.8882Z" fill="#797986"/>
<path d="M8.60451 22.8882H7.92969V23.7128H8.60451V22.8882Z" fill="#858991"/>
<path d="M7.93068 22.8882H7.25586V23.7128H7.93068V22.8882Z" fill="#868B91"/>
<path d="M7.2549 22.8882H6.58008V23.7128H7.2549V22.8882Z" fill="#868B91"/>
<path d="M6.58028 22.8882H5.9043V23.7128H6.58028V22.8882Z" fill="#A4A7AC"/>
<path d="M18.7315 22.0635H18.0566V22.8881H18.7315V22.0635Z" fill="#787F84"/>
<path d="M18.0576 22.0635H17.3828V22.8881H18.0576V22.0635Z" fill="#787F84"/>
<path d="M17.3819 22.0635H16.707V22.8881H17.3819V22.0635Z" fill="#787F84"/>
<path d="M16.7061 22.0635H16.0312V22.8881H16.7061V22.0635Z" fill="#696B76"/>
<path d="M16.0322 22.0635H15.3574V22.8881H16.0322V22.0635Z" fill="#696B76"/>
<path d="M15.3565 22.0635H14.6816V22.8881H15.3565V22.0635Z" fill="#696B76"/>
<path d="M14.6807 22.0635H14.0059V22.8881H14.6807V22.0635Z" fill="#6F717C"/>
<path d="M14.0069 22.0635H13.332V22.8881H14.0069V22.0635Z" fill="#6F717C"/>
<path d="M13.3311 22.0635H12.6562V22.8881H13.3311V22.0635Z" fill="#6F717C"/>
<path d="M12.6553 22.0635H11.9805V22.8881H12.6553V22.0635Z" fill="#70717C"/>
<path d="M11.9815 22.0635H11.3066V22.8881H11.9815V22.0635Z" fill="#797986"/>
<path d="M11.3057 22.0635H10.6309V22.8881H11.3057V22.0635Z" fill="#797986"/>
<path d="M10.6299 22.0635H9.95508V22.8881H10.6299V22.0635Z" fill="#797986"/>
<path d="M9.95607 22.0635H9.28125V22.8881H9.95607V22.0635Z" fill="#797986"/>
<path d="M9.28029 22.0635H8.60547V22.8881H9.28029V22.0635Z" fill="#797986"/>
<path d="M8.60451 22.0635H7.92969V22.8881H8.60451V22.0635Z" fill="#797986"/>
<path d="M7.93068 22.0635H7.25586V22.8881H7.93068V22.0635Z" fill="#797986"/>
<path d="M7.2549 22.0635H6.58008V22.8881H7.2549V22.0635Z" fill="#848990"/>
<path d="M6.58028 22.0635H5.9043V22.8881H6.58028V22.0635Z" fill="#868B91"/>
<path d="M5.90529 22.0635H5.23047V22.8881H5.90529V22.0635Z" fill="#868B91"/>
<path d="M19.4072 21.2397H18.7324V22.0632H19.4072V21.2397Z" fill="#787F84"/>
<path d="M18.7315 21.2397H18.0566V22.0632H18.7315V21.2397Z" fill="#787F84"/>
<path d="M18.0576 21.2397H17.3828V22.0632H18.0576V21.2397Z" fill="#6C6E78"/>
<path d="M17.3819 21.2397H16.707V22.0632H17.3819V21.2397Z" fill="#696B76"/>
<path d="M16.7061 21.2397H16.0312V22.0632H16.7061V21.2397Z" fill="#696B76"/>
<path d="M16.0322 21.2397H15.3574V22.0632H16.0322V21.2397Z" fill="#6F717C"/>
<path d="M15.3565 21.2397H14.6816V22.0632H15.3565V21.2397Z" fill="#6F717C"/>
<path d="M14.6807 21.2397H14.0059V22.0632H14.6807V21.2397Z" fill="#6F717C"/>
<path d="M14.0069 21.2397H13.332V22.0632H14.0069V21.2397Z" fill="#6F717C"/>
<path d="M13.3311 21.2397H12.6562V22.0632H13.3311V21.2397Z" fill="#7D808A"/>
<path d="M12.6553 21.2397H11.9805V22.0632H12.6553V21.2397Z" fill="#7D808A"/>
<path d="M11.9815 21.2397H11.3066V22.0632H11.9815V21.2397Z" fill="#7D808A"/>
<path d="M11.3057 21.2397H10.6309V22.0632H11.3057V21.2397Z" fill="#7D808A"/>
<path d="M10.6299 21.2397H9.95508V22.0632H10.6299V21.2397Z" fill="#797986"/>
<path d="M9.95607 21.2397H9.28125V22.0632H9.95607V21.2397Z" fill="#797986"/>
<path d="M9.28029 21.2397H8.60547V22.0632H9.28029V21.2397Z" fill="#797986"/>
<path d="M8.60451 21.2397H7.92969V22.0632H8.60451V21.2397Z" fill="#797986"/>
<path d="M7.93068 21.2397H7.25586V22.0632H7.93068V21.2397Z" fill="#797986"/>
<path d="M7.2549 21.2397H6.58008V22.0632H7.2549V21.2397Z" fill="#797986"/>
<path d="M6.58028 21.2397H5.9043V22.0632H6.58028V21.2397Z" fill="#7B7C87"/>
<path d="M5.90529 21.2397H5.23047V22.0632H5.90529V21.2397Z" fill="#868B91"/>
<path d="M5.23147 21.2397H4.55664V22.0632H5.23147V21.2397Z" fill="#868B91"/>
<path d="M20.083 20.4165H19.4082V21.2412H20.083V20.4165Z" fill="#787F84"/>
<path d="M19.4072 20.4165H18.7324V21.2412H19.4072V20.4165Z" fill="#787F84"/>
<path d="M18.7315 20.4165H18.0566V21.2412H18.7315V20.4165Z" fill="#696B76"/>
<path d="M18.0576 20.4165H17.3828V21.2412H18.0576V20.4165Z" fill="#696B76"/>
<path d="M17.3819 20.4165H16.707V21.2412H17.3819V20.4165Z" fill="#696B76"/>
<path d="M16.7061 20.4165H16.0312V21.2412H16.7061V20.4165Z" fill="#6F717C"/>
<path d="M16.0322 20.4165H15.3574V21.2412H16.0322V20.4165Z" fill="#6F717C"/>
<path d="M15.3565 20.4165H14.6816V21.2412H15.3565V20.4165Z" fill="#777884"/>
<path d="M14.6807 20.4165H14.0059V21.2412H14.6807V20.4165Z" fill="#797986"/>
<path d="M14.0069 20.4165H13.332V21.2412H14.0069V20.4165Z" fill="#797986"/>
<path d="M13.3311 20.4165H12.6562V21.2412H13.3311V20.4165Z" fill="#868B91"/>
<path d="M12.6553 20.4165H11.9805V21.2412H12.6553V20.4165Z" fill="#868B91"/>
<path d="M11.9815 20.4165H11.3066V21.2412H11.9815V20.4165Z" fill="#868B91"/>
<path d="M11.3057 20.4165H10.6309V21.2412H11.3057V20.4165Z" fill="#868B91"/>
<path d="M10.6299 20.4165H9.95508V21.2412H10.6299V20.4165Z" fill="#797986"/>
<path d="M9.95607 20.4165H9.28125V21.2412H9.95607V20.4165Z" fill="#797986"/>
<path d="M9.28029 20.4165H8.60547V21.2412H9.28029V20.4165Z" fill="#797986"/>
<path d="M8.60451 20.4165H7.92969V21.2412H8.60451V20.4165Z" fill="#797986"/>
<path d="M7.93068 20.4165H7.25586V21.2412H7.93068V20.4165Z" fill="#797986"/>
<path d="M7.2549 20.4165H6.58008V21.2412H7.2549V20.4165Z" fill="#797986"/>
<path d="M6.58028 20.4165H5.9043V21.2412H6.58028V20.4165Z" fill="#797986"/>
<path d="M5.90529 20.4165H5.23047V21.2412H5.90529V20.4165Z" fill="#797986"/>
<path d="M5.23147 20.4165H4.55664V21.2412H5.23147V20.4165Z" fill="#868B91"/>
<path d="M4.55373 20.4165H3.87891V21.2412H4.55373V20.4165Z" fill="#868B91"/>
<path d="M20.7588 19.5913H20.084V20.416H20.7588V19.5913Z" fill="#787F84"/>
<path d="M20.083 19.5913H19.4082V20.416H20.083V19.5913Z" fill="#787F84"/>
<path d="M19.4072 19.5913H18.7324V20.416H19.4072V19.5913Z" fill="#696B76"/>
<path d="M18.7315 19.5913H18.0566V20.416H18.7315V19.5913Z" fill="#696B76"/>
<path d="M18.0576 19.5913H17.3828V20.416H18.0576V19.5913Z" fill="#696B76"/>
<path d="M17.3819 19.5913H16.707V20.416H17.3819V19.5913Z" fill="#6F717C"/>
<path d="M16.7061 19.5913H16.0312V20.416H16.7061V19.5913Z" fill="#6F717C"/>
<path d="M16.0322 19.5913H15.3574V20.416H16.0322V19.5913Z" fill="#797986"/>
<path d="M15.3565 19.5913H14.6816V20.416H15.3565V19.5913Z" fill="#797986"/>
<path d="M14.6807 19.5913H14.0059V20.416H14.6807V19.5913Z" fill="#797986"/>
<path d="M14.0069 19.5913H13.332V20.416H14.0069V19.5913Z" fill="#797986"/>
<path d="M13.3311 19.5913H12.6562V20.416H13.3311V19.5913Z" fill="#868B91"/>
<path d="M12.6553 19.5913H11.9805V20.416H12.6553V19.5913Z" fill="#868B91"/>
<path d="M11.9815 19.5913H11.3066V20.416H11.9815V19.5913Z" fill="#868B91"/>
<path d="M11.3057 19.5913H10.6309V20.416H11.3057V19.5913Z" fill="#868B91"/>
<path d="M10.6299 19.5913H9.95508V20.416H10.6299V19.5913Z" fill="#797986"/>
<path d="M9.95607 19.5913H9.28125V20.416H9.95607V19.5913Z" fill="#797986"/>
<path d="M9.28029 19.5913H8.60547V20.416H9.28029V19.5913Z" fill="#797986"/>
<path d="M8.60451 19.5913H7.92969V20.416H8.60451V19.5913Z" fill="#797986"/>
<path d="M7.93068 19.5913H7.25586V20.416H7.93068V19.5913Z" fill="#797986"/>
<path d="M7.2549 19.5913H6.58008V20.416H7.2549V19.5913Z" fill="#797986"/>
<path d="M6.58028 19.5913H5.9043V20.416H6.58028V19.5913Z" fill="#797986"/>
<path d="M5.90529 19.5913H5.23047V20.416H5.90529V19.5913Z" fill="#797986"/>
<path d="M5.23147 19.5913H4.55664V20.416H5.23147V19.5913Z" fill="#797986"/>
<path d="M4.55373 19.5913H3.87891V20.416H4.55373V19.5913Z" fill="#868B91"/>
<path d="M3.8799 19.5913H3.20508V20.416H3.8799V19.5913Z" fill="#868B91"/>
<path d="M20.7588 18.7671H20.084V19.5917H20.7588V18.7671Z" fill="#787F84"/>
<path d="M20.083 18.7671H19.4082V19.5917H20.083V18.7671Z" fill="#787F84"/>
<path d="M19.4072 18.7671H18.7324V19.5917H19.4072V18.7671Z" fill="#696B76"/>
<path d="M18.7315 18.7671H18.0566V19.5917H18.7315V18.7671Z" fill="#696B76"/>
<path d="M18.0576 18.7671H17.3828V19.5917H18.0576V18.7671Z" fill="#6F717C"/>
<path d="M17.3819 18.7671H16.707V19.5917H17.3819V18.7671Z" fill="#6F717C"/>
<path d="M16.7061 18.7671H16.0312V19.5917H16.7061V18.7671Z" fill="#797986"/>
<path d="M16.0322 18.7671H15.3574V19.5917H16.0322V18.7671Z" fill="#797986"/>
<path d="M15.3565 18.7671H14.6816V19.5917H15.3565V18.7671Z" fill="#797986"/>
<path d="M14.6807 18.7671H14.0059V19.5917H14.6807V18.7671Z" fill="#797986"/>
<path d="M14.0069 18.7671H13.332V19.5917H14.0069V18.7671Z" fill="#797986"/>
<path d="M13.3311 18.7671H12.6562V19.5917H13.3311V18.7671Z" fill="#868B91"/>
<path d="M12.6553 18.7671H11.9805V19.5917H12.6553V18.7671Z" fill="#868B91"/>
<path d="M11.9815 18.7671H11.3066V19.5917H11.9815V18.7671Z" fill="#868B91"/>
<path d="M11.3057 18.7671H10.6309V19.5917H11.3057V18.7671Z" fill="#868B91"/>
<path d="M10.6299 18.7671H9.95508V19.5917H10.6299V18.7671Z" fill="#797986"/>
<path d="M9.95607 18.7671H9.28125V19.5917H9.95607V18.7671Z" fill="#797986"/>
<path d="M9.28029 18.7671H8.60547V19.5917H9.28029V18.7671Z" fill="#797986"/>
<path d="M8.60451 18.7671H7.92969V19.5917H8.60451V18.7671Z" fill="#797986"/>
<path d="M7.93068 18.7671H7.25586V19.5917H7.93068V18.7671Z" fill="#797986"/>
<path d="M7.2549 18.7671H6.58008V19.5917H7.2549V18.7671Z" fill="#797986"/>
<path d="M6.58028 18.7671H5.9043V19.5917H6.58028V18.7671Z" fill="#797986"/>
<path d="M5.90529 18.7671H5.23047V19.5917H5.90529V18.7671Z" fill="#797986"/>
<path d="M5.23147 18.7671H4.55664V19.5917H5.23147V18.7671Z" fill="#797986"/>
<path d="M4.55373 18.7671H3.87891V19.5917H4.55373V18.7671Z" fill="#868B91"/>
<path d="M3.8799 18.7671H3.20508V19.5917H3.8799V18.7671Z" fill="#868B91"/>
<path d="M21.4326 17.9434H20.7578V18.7669H21.4326V17.9434Z" fill="#787F84"/>
<path d="M20.7588 17.9434H20.084V18.7669H20.7588V17.9434Z" fill="#787F84"/>
<path d="M20.083 17.9434H19.4082V18.7669H20.083V17.9434Z" fill="#696B76"/>
<path d="M19.4072 17.9434H18.7324V18.7669H19.4072V17.9434Z" fill="#696B76"/>
<path d="M18.7315 17.9434H18.0566V18.7669H18.7315V17.9434Z" fill="#6B6C77"/>
<path d="M18.0576 17.9434H17.3828V18.7669H18.0576V17.9434Z" fill="#6F717C"/>
<path d="M17.3819 17.9434H16.707V18.7669H17.3819V17.9434Z" fill="#6F717C"/>
<path d="M16.7061 17.9434H16.0312V18.7669H16.7061V17.9434Z" fill="#797986"/>
<path d="M16.0322 17.9434H15.3574V18.7669H16.0322V17.9434Z" fill="#797986"/>
<path d="M15.3565 17.9434H14.6816V18.7669H15.3565V17.9434Z" fill="#797986"/>
<path d="M14.6807 17.9434H14.0059V18.7669H14.6807V17.9434Z" fill="#797986"/>
<path d="M14.0069 17.9434H13.332V18.7669H14.0069V17.9434Z" fill="#797986"/>
<path d="M13.3311 17.9434H12.6562V18.7669H13.3311V17.9434Z" fill="#868B91"/>
<path d="M12.6553 17.9434H11.9805V18.7669H12.6553V17.9434Z" fill="#868B91"/>
<path d="M11.9815 17.9434H11.3066V18.7669H11.9815V17.9434Z" fill="#868B91"/>
<path d="M11.3057 17.9434H10.6309V18.7669H11.3057V17.9434Z" fill="#868B91"/>
<path d="M10.6299 17.9434H9.95508V18.7669H10.6299V17.9434Z" fill="#797986"/>
<path d="M9.95607 17.9434H9.28125V18.7669H9.95607V17.9434Z" fill="#797986"/>
<path d="M9.28029 17.9434H8.60547V18.7669H9.28029V17.9434Z" fill="#797986"/>
<path d="M8.60451 17.9434H7.92969V18.7669H8.60451V17.9434Z" fill="#797986"/>
<path d="M7.93068 17.9434H7.25586V18.7669H7.93068V17.9434Z" fill="#797986"/>
<path d="M7.2549 17.9434H6.58008V18.7669H7.2549V17.9434Z" fill="#797986"/>
<path d="M6.58028 17.9434H5.9043V18.7669H6.58028V17.9434Z" fill="#797986"/>
<path d="M5.90529 17.9434H5.23047V18.7669H5.90529V17.9434Z" fill="#797986"/>
<path d="M5.23147 17.9434H4.55664V18.7669H5.23147V17.9434Z" fill="#797986"/>
<path d="M4.55373 17.9434H3.87891V18.7669H4.55373V17.9434Z" fill="#797986"/>
<path d="M3.8799 17.9434H3.20508V18.7669H3.8799V17.9434Z" fill="#868B91"/>
<path d="M3.20412 17.9434H2.5293V18.7669H3.20412V17.9434Z" fill="#868B91"/>
<path d="M21.4326 17.1201H20.7578V17.9448H21.4326V17.1201Z" fill="#787F84"/>
<path d="M20.7588 17.1201H20.084V17.9448H20.7588V17.1201Z" fill="#787F84"/>
<path d="M20.083 17.1201H19.4082V17.9448H20.083V17.1201Z" fill="#696B76"/>
<path d="M19.4072 17.1201H18.7324V17.9448H19.4072V17.1201Z" fill="#696B76"/>
<path d="M18.7315 17.1201H18.0566V17.9448H18.7315V17.1201Z" fill="#6F717C"/>
<path d="M18.0576 17.1201H17.3828V17.9448H18.0576V17.1201Z" fill="#6F717C"/>
<path d="M17.3819 17.1201H16.707V17.9448H17.3819V17.1201Z" fill="#797986"/>
<path d="M16.7061 17.1201H16.0312V17.9448H16.7061V17.1201Z" fill="#797986"/>
<path d="M16.0322 17.1201H15.3574V17.9448H16.0322V17.1201Z" fill="#797986"/>
<path d="M15.3565 17.1201H14.6816V17.9448H15.3565V17.1201Z" fill="#797986"/>
<path d="M14.6807 17.1201H14.0059V17.9448H14.6807V17.1201Z" fill="#797986"/>
<path d="M14.0069 17.1201H13.332V17.9448H14.0069V17.1201Z" fill="#797986"/>
<path d="M13.3311 17.1201H12.6562V17.9448H13.3311V17.1201Z" fill="#868B91"/>
<path d="M12.6553 17.1201H11.9805V17.9448H12.6553V17.1201Z" fill="#868B91"/>
<path d="M11.9815 17.1201H11.3066V17.9448H11.9815V17.1201Z" fill="#868B91"/>
<path d="M11.3057 17.1201H10.6309V17.9448H11.3057V17.1201Z" fill="#868B91"/>
<path d="M10.6299 17.1201H9.95508V17.9448H10.6299V17.1201Z" fill="#797986"/>
<path d="M9.95607 17.1201H9.28125V17.9448H9.95607V17.1201Z" fill="#797986"/>
<path d="M9.28029 17.1201H8.60547V17.9448H9.28029V17.1201Z" fill="#797986"/>
<path d="M8.60451 17.1201H7.92969V17.9448H8.60451V17.1201Z" fill="#797986"/>
<path d="M7.93068 17.1201H7.25586V17.9448H7.93068V17.1201Z" fill="#797986"/>
<path d="M7.2549 17.1201H6.58008V17.9448H7.2549V17.1201Z" fill="#797986"/>
<path d="M6.58028 17.1201H5.9043V17.9448H6.58028V17.1201Z" fill="#797986"/>
<path d="M5.90529 17.1201H5.23047V17.9448H5.90529V17.1201Z" fill="#797986"/>
<path d="M5.23147 17.1201H4.55664V17.9448H5.23147V17.1201Z" fill="#797986"/>
<path d="M4.55373 17.1201H3.87891V17.9448H4.55373V17.1201Z" fill="#797986"/>
<path d="M3.8799 17.1201H3.20508V17.9448H3.8799V17.1201Z" fill="#868B91"/>
<path d="M3.20412 17.1201H2.5293V17.9448H3.20412V17.1201Z" fill="#868B91"/>
<path d="M21.4326 16.2954H20.7578V17.1201H21.4326V16.2954Z" fill="#787F84"/>
<path d="M20.7588 16.2954H20.084V17.1201H20.7588V16.2954Z" fill="#787F84"/>
<path d="M20.083 16.2954H19.4082V17.1201H20.083V16.2954Z" fill="#696B76"/>
<path d="M19.4072 16.2954H18.7324V17.1201H19.4072V16.2954Z" fill="#696B76"/>
<path d="M18.7315 16.2954H18.0566V17.1201H18.7315V16.2954Z" fill="#6F717C"/>
<path d="M18.0576 16.2954H17.3828V17.1201H18.0576V16.2954Z" fill="#6F717C"/>
<path d="M17.3819 16.2954H16.707V17.1201H17.3819V16.2954Z" fill="#797986"/>
<path d="M16.7061 16.2954H16.0312V17.1201H16.7061V16.2954Z" fill="#797986"/>
<path d="M16.0322 16.2954H15.3574V17.1201H16.0322V16.2954Z" fill="#797986"/>
<path d="M15.3565 16.2954H14.6816V17.1201H15.3565V16.2954Z" fill="#797986"/>
<path d="M14.6807 16.2954H14.0059V17.1201H14.6807V16.2954Z" fill="#797986"/>
<path d="M14.0069 16.2954H13.332V17.1201H14.0069V16.2954Z" fill="#797986"/>
<path d="M13.3311 16.2954H12.6562V17.1201H13.3311V16.2954Z" fill="#868B91"/>
<path d="M12.6553 16.2954H11.9805V17.1201H12.6553V16.2954Z" fill="#868B91"/>
<path d="M11.9815 16.2954H11.3066V17.1201H11.9815V16.2954Z" fill="#868B91"/>
<path d="M11.3057 16.2954H10.6309V17.1201H11.3057V16.2954Z" fill="#868B91"/>
<path d="M10.6299 16.2954H9.95508V17.1201H10.6299V16.2954Z" fill="#797986"/>
<path d="M9.95607 16.2954H9.28125V17.1201H9.95607V16.2954Z" fill="#797986"/>
<path d="M9.28029 16.2954H8.60547V17.1201H9.28029V16.2954Z" fill="#797986"/>
<path d="M8.60451 16.2954H7.92969V17.1201H8.60451V16.2954Z" fill="#797986"/>
<path d="M7.93068 16.2954H7.25586V17.1201H7.93068V16.2954Z" fill="#797986"/>
<path d="M7.2549 16.2954H6.58008V17.1201H7.2549V16.2954Z" fill="#797986"/>
<path d="M6.58028 16.2954H5.9043V17.1201H6.58028V16.2954Z" fill="#797986"/>
<path d="M5.90529 16.2954H5.23047V17.1201H5.90529V16.2954Z" fill="#797986"/>
<path d="M5.23147 16.2954H4.55664V17.1201H5.23147V16.2954Z" fill="#797986"/>
<path d="M4.55373 16.2954H3.87891V17.1201H4.55373V16.2954Z" fill="#797986"/>
<path d="M3.8799 16.2954H3.20508V17.1201H3.8799V16.2954Z" fill="#858991"/>
<path d="M3.20412 16.2954H2.5293V17.1201H3.20412V16.2954Z" fill="#868B91"/>
<path d="M21.4326 15.4722H20.7578V16.2957H21.4326V15.4722Z" fill="#787F84"/>
<path d="M20.7588 15.4722H20.084V16.2957H20.7588V15.4722Z" fill="#787F84"/>
<path d="M20.083 15.4722H19.4082V16.2957H20.083V15.4722Z" fill="#696B76"/>
<path d="M19.4072 15.4722H18.7324V16.2957H19.4072V15.4722Z" fill="#696B76"/>
<path d="M18.7315 15.4722H18.0566V16.2957H18.7315V15.4722Z" fill="#6F717C"/>
<path d="M18.0576 15.4722H17.3828V16.2957H18.0576V15.4722Z" fill="#6F717C"/>
<path d="M17.3819 15.4722H16.707V16.2957H17.3819V15.4722Z" fill="#797986"/>
<path d="M16.7061 15.4722H16.0312V16.2957H16.7061V15.4722Z" fill="#797986"/>
<path d="M16.0322 15.4722H15.3574V16.2957H16.0322V15.4722Z" fill="#797986"/>
<path d="M15.3565 15.4722H14.6816V16.2957H15.3565V15.4722Z" fill="#797986"/>
<path d="M14.6807 15.4722H14.0059V16.2957H14.6807V15.4722Z" fill="#797986"/>
<path d="M14.0069 15.4722H13.332V16.2957H14.0069V15.4722Z" fill="#797986"/>
<path d="M13.3311 15.4722H12.6562V16.2957H13.3311V15.4722Z" fill="#868B91"/>
<path d="M12.6553 15.4722H11.9805V16.2957H12.6553V15.4722Z" fill="#868B91"/>
<path d="M11.9815 15.4722H11.3066V16.2957H11.9815V15.4722Z" fill="#868B91"/>
<path d="M11.3057 15.4722H10.6309V16.2957H11.3057V15.4722Z" fill="#868B91"/>
<path d="M10.6299 15.4722H9.95508V16.2957H10.6299V15.4722Z" fill="#797986"/>
<path d="M9.95607 15.4722H9.28125V16.2957H9.95607V15.4722Z" fill="#797986"/>
<path d="M9.28029 15.4722H8.60547V16.2957H9.28029V15.4722Z" fill="#797986"/>
<path d="M8.60451 15.4722H7.92969V16.2957H8.60451V15.4722Z" fill="#797986"/>
<path d="M7.93068 15.4722H7.25586V16.2957H7.93068V15.4722Z" fill="#797986"/>
<path d="M7.2549 15.4722H6.58008V16.2957H7.2549V15.4722Z" fill="#797986"/>
<path d="M6.58028 15.4722H5.9043V16.2957H6.58028V15.4722Z" fill="#797986"/>
<path d="M5.90529 15.4722H5.23047V16.2957H5.90529V15.4722Z" fill="#797986"/>
<path d="M5.23147 15.4722H4.55664V16.2957H5.23147V15.4722Z" fill="#797986"/>
<path d="M4.55373 15.4722H3.87891V16.2957H4.55373V15.4722Z" fill="#797986"/>
<path d="M3.8799 15.4722H3.20508V16.2957H3.8799V15.4722Z" fill="#7A7B87"/>
<path d="M3.20412 15.4722H2.5293V16.2957H3.20412V15.4722Z" fill="#868B91"/>
<path d="M22.1084 14.6475H21.4336V15.4721H22.1084V14.6475Z" fill="#7E8389"/>
<path d="M21.4326 14.6475H20.7578V15.4721H21.4326V14.6475Z" fill="#787F84"/>
<path d="M20.7588 14.6475H20.084V15.4721H20.7588V14.6475Z" fill="#696B76"/>
<path d="M20.083 14.6475H19.4082V15.4721H20.083V14.6475Z" fill="#696B76"/>
<path d="M19.4072 14.6475H18.7324V15.4721H19.4072V14.6475Z" fill="#696B76"/>
<path d="M18.7315 14.6475H18.0566V15.4721H18.7315V14.6475Z" fill="#6F717C"/>
<path d="M18.0576 14.6475H17.3828V15.4721H18.0576V14.6475Z" fill="#70727D"/>
<path d="M17.3819 14.6475H16.707V15.4721H17.3819V14.6475Z" fill="#797986"/>
<path d="M16.7061 14.6475H16.0312V15.4721H16.7061V14.6475Z" fill="#797986"/>
<path d="M16.0322 14.6475H15.3574V15.4721H16.0322V14.6475Z" fill="#797986"/>
<path d="M15.3565 14.6475H14.6816V15.4721H15.3565V14.6475Z" fill="#868B91"/>
<path d="M14.6807 14.6475H14.0059V15.4721H14.6807V14.6475Z" fill="#868B91"/>
<path d="M14.0069 14.6475H13.332V15.4721H14.0069V14.6475Z" fill="#868B91"/>
<path d="M13.3311 14.6475H12.6562V15.4721H13.3311V14.6475Z" fill="#868B91"/>
<path d="M12.6553 14.6475H11.9805V15.4721H12.6553V14.6475Z" fill="#868B91"/>
<path d="M11.9815 14.6475H11.3066V15.4721H11.9815V14.6475Z" fill="#868B91"/>
<path d="M11.3057 14.6475H10.6309V15.4721H11.3057V14.6475Z" fill="#868B91"/>
<path d="M10.6299 14.6475H9.95508V15.4721H10.6299V14.6475Z" fill="#868B91"/>
<path d="M9.95607 14.6475H9.28125V15.4721H9.95607V14.6475Z" fill="#868B91"/>
<path d="M9.28029 14.6475H8.60547V15.4721H9.28029V14.6475Z" fill="#868B91"/>
<path d="M8.60451 14.6475H7.92969V15.4721H8.60451V14.6475Z" fill="#797986"/>
<path d="M7.93068 14.6475H7.25586V15.4721H7.93068V14.6475Z" fill="#797986"/>
<path d="M7.2549 14.6475H6.58008V15.4721H7.2549V14.6475Z" fill="#797986"/>
<path d="M6.58028 14.6475H5.9043V15.4721H6.58028V14.6475Z" fill="#797986"/>
<path d="M5.90529 14.6475H5.23047V15.4721H5.90529V14.6475Z" fill="#797986"/>
<path d="M5.23147 14.6475H4.55664V15.4721H5.23147V14.6475Z" fill="#797986"/>
<path d="M4.55373 14.6475H3.87891V15.4721H4.55373V14.6475Z" fill="white"/>
<path d="M3.8799 14.6475H3.20508V15.4721H3.8799V14.6475Z" fill="#797986"/>
<path d="M3.20412 14.6475H2.5293V15.4721H3.20412V14.6475Z" fill="#868B91"/>
<path d="M2.52834 14.6475H1.85352V15.4721H2.52834V14.6475Z" fill="#8C9197"/>
<path d="M22.1084 13.8237H21.4336V14.6472H22.1084V13.8237Z" fill="#787F84"/>
<path d="M21.4326 13.8237H20.7578V14.6472H21.4326V13.8237Z" fill="#787F84"/>
<path d="M20.7588 13.8237H20.084V14.6472H20.7588V13.8237Z" fill="#696B76"/>
<path d="M20.083 13.8237H19.4082V14.6472H20.083V13.8237Z" fill="#696B76"/>
<path d="M19.4072 13.8237H18.7324V14.6472H19.4072V13.8237Z" fill="#696B76"/>
<path d="M18.7315 13.8237H18.0566V14.6472H18.7315V13.8237Z" fill="#6F717C"/>
<path d="M18.0576 13.8237H17.3828V14.6472H18.0576V13.8237Z" fill="#767884"/>
<path d="M17.3819 13.8237H16.707V14.6472H17.3819V13.8237Z" fill="#797986"/>
<path d="M16.7061 13.8237H16.0312V14.6472H16.7061V13.8237Z" fill="#797986"/>
<path d="M16.0322 13.8237H15.3574V14.6472H16.0322V13.8237Z" fill="#797986"/>
<path d="M15.3565 13.8237H14.6816V14.6472H15.3565V13.8237Z" fill="#868B91"/>
<path d="M14.6807 13.8237H14.0059V14.6472H14.6807V13.8237Z" fill="#868B91"/>
<path d="M14.0069 13.8237H13.332V14.6472H14.0069V13.8237Z" fill="#868B91"/>
<path d="M13.3311 13.8237H12.6562V14.6472H13.3311V13.8237Z" fill="#868B91"/>
<path d="M12.6553 13.8237H11.9805V14.6472H12.6553V13.8237Z" fill="#868B91"/>
<path d="M11.9815 13.8237H11.3066V14.6472H11.9815V13.8237Z" fill="#868B91"/>
<path d="M11.3057 13.8237H10.6309V14.6472H11.3057V13.8237Z" fill="#868B91"/>
<path d="M10.6299 13.8237H9.95508V14.6472H10.6299V13.8237Z" fill="#868B91"/>
<path d="M9.95607 13.8237H9.28125V14.6472H9.95607V13.8237Z" fill="#868B91"/>
<path d="M9.28029 13.8237H8.60547V14.6472H9.28029V13.8237Z" fill="#868B91"/>
<path d="M8.60451 13.8237H7.92969V14.6472H8.60451V13.8237Z" fill="#797986"/>
<path d="M7.93068 13.8237H7.25586V14.6472H7.93068V13.8237Z" fill="#797986"/>
<path d="M7.2549 13.8237H6.58008V14.6472H7.2549V13.8237Z" fill="#797986"/>
<path d="M6.58028 13.8237H5.9043V14.6472H6.58028V13.8237Z" fill="#797986"/>
<path d="M5.90529 13.8237H5.23047V14.6472H5.90529V13.8237Z" fill="#797986"/>
<path d="M5.23147 13.8237H4.55664V14.6472H5.23147V13.8237Z" fill="#797986"/>
<path d="M4.55373 13.8237H3.87891V14.6472H4.55373V13.8237Z" fill="white"/>
<path d="M3.8799 13.8237H3.20508V14.6472H3.8799V13.8237Z" fill="#797986"/>
<path d="M3.20412 13.8237H2.5293V14.6472H3.20412V13.8237Z" fill="#868B91"/>
<path d="M2.52834 13.8237H1.85352V14.6472H2.52834V13.8237Z" fill="#868B91"/>
<path d="M22.1084 12.999H21.4336V13.8237H22.1084V12.999Z" fill="#787F84"/>
<path d="M21.4326 12.999H20.7578V13.8237H21.4326V12.999Z" fill="#787F84"/>
<path d="M20.7588 12.999H20.084V13.8237H20.7588V12.999Z" fill="#696B76"/>
<path d="M20.083 12.999H19.4082V13.8237H20.083V12.999Z" fill="#696B76"/>
<path d="M19.4072 12.999H18.7324V13.8237H19.4072V12.999Z" fill="#696B76"/>
<path d="M18.7315 12.999H18.0566V13.8237H18.7315V12.999Z" fill="#6F717C"/>
<path d="M18.0576 12.999H17.3828V13.8237H18.0576V12.999Z" fill="#797986"/>
<path d="M17.3819 12.999H16.707V13.8237H17.3819V12.999Z" fill="#797986"/>
<path d="M16.7061 12.999H16.0312V13.8237H16.7061V12.999Z" fill="#797986"/>
<path d="M16.0322 12.999H15.3574V13.8237H16.0322V12.999Z" fill="#797986"/>
<path d="M15.3565 12.999H14.6816V13.8237H15.3565V12.999Z" fill="#868B91"/>
<path d="M14.6807 12.999H14.0059V13.8237H14.6807V12.999Z" fill="#868B91"/>
<path d="M14.0069 12.999H13.332V13.8237H14.0069V12.999Z" fill="#868B91"/>
<path d="M13.3311 12.999H12.6562V13.8237H13.3311V12.999Z" fill="#868B91"/>
<path d="M12.6553 12.999H11.9805V13.8237H12.6553V12.999Z" fill="#868B91"/>
<path d="M11.9815 12.999H11.3066V13.8237H11.9815V12.999Z" fill="#868B91"/>
<path d="M11.3057 12.999H10.6309V13.8237H11.3057V12.999Z" fill="#868B91"/>
<path d="M10.6299 12.999H9.95508V13.8237H10.6299V12.999Z" fill="#868B91"/>
<path d="M9.95607 12.999H9.28125V13.8237H9.95607V12.999Z" fill="#868B91"/>
<path d="M9.28029 12.999H8.60547V13.8237H9.28029V12.999Z" fill="#868B91"/>
<path d="M8.60451 12.999H7.92969V13.8237H8.60451V12.999Z" fill="#797986"/>
<path d="M7.93068 12.999H7.25586V13.8237H7.93068V12.999Z" fill="#797986"/>
<path d="M7.2549 12.999H6.58008V13.8237H7.2549V12.999Z" fill="#797986"/>
<path d="M6.58028 12.999H5.9043V13.8237H6.58028V12.999Z" fill="#797986"/>
<path d="M5.90529 12.999H5.23047V13.8237H5.90529V12.999Z" fill="#797986"/>
<path d="M5.23147 12.999H4.55664V13.8237H5.23147V12.999Z" fill="#797986"/>
<path d="M4.55373 12.999H3.87891V13.8237H4.55373V12.999Z" fill="white"/>
<path d="M3.8799 12.999H3.20508V13.8237H3.8799V12.999Z" fill="#797986"/>
<path d="M3.20412 12.999H2.5293V13.8237H3.20412V12.999Z" fill="#868B91"/>
<path d="M2.52834 12.999H1.85352V13.8237H2.52834V12.999Z" fill="#868B91"/>
<path d="M22.1084 12.1753H21.4336V12.9988H22.1084V12.1753Z" fill="#787F84"/>
<path d="M21.4326 12.1753H20.7578V12.9988H21.4326V12.1753Z" fill="#787F84"/>
<path d="M20.7588 12.1753H20.084V12.9988H20.7588V12.1753Z" fill="#696B76"/>
<path d="M20.083 12.1753H19.4082V12.9988H20.083V12.1753Z" fill="#696B76"/>
<path d="M19.4072 12.1753H18.7324V12.9988H19.4072V12.1753Z" fill="#6C6E78"/>
<path d="M18.7315 12.1753H18.0566V12.9988H18.7315V12.1753Z" fill="#6F717C"/>
<path d="M18.0576 12.1753H17.3828V12.9988H18.0576V12.1753Z" fill="#797986"/>
<path d="M17.3819 12.1753H16.707V12.9988H17.3819V12.1753Z" fill="#797986"/>
<path d="M16.7061 12.1753H16.0312V12.9988H16.7061V12.1753Z" fill="#797986"/>
<path d="M16.0322 12.1753H15.3574V12.9988H16.0322V12.1753Z" fill="#797986"/>
<path d="M15.3565 12.1753H14.6816V12.9988H15.3565V12.1753Z" fill="#797986"/>
<path d="M14.6807 12.1753H14.0059V12.9988H14.6807V12.1753Z" fill="#797986"/>
<path d="M14.0069 12.1753H13.332V12.9988H14.0069V12.1753Z" fill="#797986"/>
<path d="M13.3311 12.1753H12.6562V12.9988H13.3311V12.1753Z" fill="#868B91"/>
<path d="M12.6553 12.1753H11.9805V12.9988H12.6553V12.1753Z" fill="#868B91"/>
<path d="M11.9815 12.1753H11.3066V12.9988H11.9815V12.1753Z" fill="#868B91"/>
<path d="M11.3057 12.1753H10.6309V12.9988H11.3057V12.1753Z" fill="#868B91"/>
<path d="M10.6299 12.1753H9.95508V12.9988H10.6299V12.1753Z" fill="#797986"/>
<path d="M9.95607 12.1753H9.28125V12.9988H9.95607V12.1753Z" fill="#797986"/>
<path d="M9.28029 12.1753H8.60547V12.9988H9.28029V12.1753Z" fill="#797986"/>
<path d="M8.60451 12.1753H7.92969V12.9988H8.60451V12.1753Z" fill="#797986"/>
<path d="M7.93068 12.1753H7.25586V12.9988H7.93068V12.1753Z" fill="#797986"/>
<path d="M7.2549 12.1753H6.58008V12.9988H7.2549V12.1753Z" fill="#797986"/>
<path d="M6.58028 12.1753H5.9043V12.9988H6.58028V12.1753Z" fill="#797986"/>
<path d="M5.90529 12.1753H5.23047V12.9988H5.90529V12.1753Z" fill="#797986"/>
<path d="M5.23147 12.1753H4.55664V12.9988H5.23147V12.1753Z" fill="#797986"/>
<path d="M4.55373 12.1753H3.87891V12.9988H4.55373V12.1753Z" fill="white"/>
<path d="M3.8799 12.1753H3.20508V12.9988H3.8799V12.1753Z" fill="#797986"/>
<path d="M3.20412 12.1753H2.5293V12.9988H3.20412V12.1753Z" fill="#868B91"/>
<path d="M2.52834 12.1753H1.85352V12.9988H2.52834V12.1753Z" fill="#868B91"/>
<path d="M22.1084 11.3521H21.4336V12.1767H22.1084V11.3521Z" fill="#787F84"/>
<path d="M21.4326 11.3521H20.7578V12.1767H21.4326V11.3521Z" fill="#787F84"/>
<path d="M20.7588 11.3521H20.084V12.1767H20.7588V11.3521Z" fill="#696B76"/>
<path d="M20.083 11.3521H19.4082V12.1767H20.083V11.3521Z" fill="#696B76"/>
<path d="M19.4072 11.3521H18.7324V12.1767H19.4072V11.3521Z" fill="#6E707B"/>
<path d="M18.7315 11.3521H18.0566V12.1767H18.7315V11.3521Z" fill="#6F717C"/>
<path d="M18.0576 11.3521H17.3828V12.1767H18.0576V11.3521Z" fill="#797986"/>
<path d="M17.3819 11.3521H16.707V12.1767H17.3819V11.3521Z" fill="#797986"/>
<path d="M16.7061 11.3521H16.0312V12.1767H16.7061V11.3521Z" fill="#797986"/>
<path d="M16.0322 11.3521H15.3574V12.1767H16.0322V11.3521Z" fill="#797986"/>
<path d="M15.3565 11.3521H14.6816V12.1767H15.3565V11.3521Z" fill="#797986"/>
<path d="M14.6807 11.3521H14.0059V12.1767H14.6807V11.3521Z" fill="#797986"/>
<path d="M14.0069 11.3521H13.332V12.1767H14.0069V11.3521Z" fill="#797986"/>
<path d="M13.3311 11.3521H12.6562V12.1767H13.3311V11.3521Z" fill="#868B91"/>
<path d="M12.6553 11.3521H11.9805V12.1767H12.6553V11.3521Z" fill="#868B91"/>
<path d="M11.9815 11.3521H11.3066V12.1767H11.9815V11.3521Z" fill="#868B91"/>
<path d="M11.3057 11.3521H10.6309V12.1767H11.3057V11.3521Z" fill="#868B91"/>
<path d="M10.6299 11.3521H9.95508V12.1767H10.6299V11.3521Z" fill="#797986"/>
<path d="M9.95607 11.3521H9.28125V12.1767H9.95607V11.3521Z" fill="#797986"/>
<path d="M9.28029 11.3521H8.60547V12.1767H9.28029V11.3521Z" fill="#797986"/>
<path d="M8.60451 11.3521H7.92969V12.1767H8.60451V11.3521Z" fill="#797986"/>
<path d="M7.93068 11.3521H7.25586V12.1767H7.93068V11.3521Z" fill="#797986"/>
<path d="M7.2549 11.3521H6.58008V12.1767H7.2549V11.3521Z" fill="#797986"/>
<path d="M6.58028 11.3521H5.9043V12.1767H6.58028V11.3521Z" fill="#797986"/>
<path d="M5.90529 11.3521H5.23047V12.1767H5.90529V11.3521Z" fill="#797986"/>
<path d="M5.23147 11.3521H4.55664V12.1767H5.23147V11.3521Z" fill="white"/>
<path d="M4.55373 11.3521H3.87891V12.1767H4.55373V11.3521Z" fill="white"/>
<path d="M3.8799 11.3521H3.20508V12.1767H3.8799V11.3521Z" fill="#797986"/>
<path d="M3.20412 11.3521H2.5293V12.1767H3.20412V11.3521Z" fill="#868B91"/>
<path d="M2.52834 11.3521H1.85352V12.1767H2.52834V11.3521Z" fill="#868B91"/>
<path d="M22.1084 10.5288H21.4336V11.3523H22.1084V10.5288Z" fill="#787F84"/>
<path d="M21.4326 10.5288H20.7578V11.3523H21.4326V10.5288Z" fill="#787F84"/>
<path d="M20.7588 10.5288H20.084V11.3523H20.7588V10.5288Z" fill="#696B76"/>
<path d="M20.083 10.5288H19.4082V11.3523H20.083V10.5288Z" fill="#696B76"/>
<path d="M19.4072 10.5288H18.7324V11.3523H19.4072V10.5288Z" fill="#6F717C"/>
<path d="M18.7315 10.5288H18.0566V11.3523H18.7315V10.5288Z" fill="#6F717C"/>
<path d="M18.0576 10.5288H17.3828V11.3523H18.0576V10.5288Z" fill="#797986"/>
<path d="M17.3819 10.5288H16.707V11.3523H17.3819V10.5288Z" fill="#797986"/>
<path d="M16.7061 10.5288H16.0312V11.3523H16.7061V10.5288Z" fill="#797986"/>
<path d="M16.0322 10.5288H15.3574V11.3523H16.0322V10.5288Z" fill="#797986"/>
<path d="M15.3565 10.5288H14.6816V11.3523H15.3565V10.5288Z" fill="#797986"/>
<path d="M14.6807 10.5288H14.0059V11.3523H14.6807V10.5288Z" fill="#797986"/>
<path d="M14.0069 10.5288H13.332V11.3523H14.0069V10.5288Z" fill="#797986"/>
<path d="M13.3311 10.5288H12.6562V11.3523H13.3311V10.5288Z" fill="#868B91"/>
<path d="M12.6553 10.5288H11.9805V11.3523H12.6553V10.5288Z" fill="#868B91"/>
<path d="M11.9815 10.5288H11.3066V11.3523H11.9815V10.5288Z" fill="#868B91"/>
<path d="M11.3057 10.5288H10.6309V11.3523H11.3057V10.5288Z" fill="#868B91"/>
<path d="M10.6299 10.5288H9.95508V11.3523H10.6299V10.5288Z" fill="#797986"/>
<path d="M9.95607 10.5288H9.28125V11.3523H9.95607V10.5288Z" fill="#797986"/>
<path d="M9.28029 10.5288H8.60547V11.3523H9.28029V10.5288Z" fill="#797986"/>
<path d="M8.60451 10.5288H7.92969V11.3523H8.60451V10.5288Z" fill="#797986"/>
<path d="M7.93068 10.5288H7.25586V11.3523H7.93068V10.5288Z" fill="#797986"/>
<path d="M7.2549 10.5288H6.58008V11.3523H7.2549V10.5288Z" fill="#797986"/>
<path d="M6.58028 10.5288H5.9043V11.3523H6.58028V10.5288Z" fill="#797986"/>
<path d="M5.90529 10.5288H5.23047V11.3523H5.90529V10.5288Z" fill="#797986"/>
<path d="M5.23147 10.5288H4.55664V11.3523H5.23147V10.5288Z" fill="white"/>
<path d="M4.55373 10.5288H3.87891V11.3523H4.55373V10.5288Z" fill="white"/>
<path d="M3.8799 10.5288H3.20508V11.3523H3.8799V10.5288Z" fill="#797986"/>
<path d="M3.20412 10.5288H2.5293V11.3523H3.20412V10.5288Z" fill="#868B91"/>
<path d="M2.52834 10.5288H1.85352V11.3523H2.52834V10.5288Z" fill="#868B91"/>
<path d="M22.1084 9.7041H21.4336V10.5288H22.1084V9.7041Z" fill="#787F84"/>
<path d="M21.4326 9.7041H20.7578V10.5288H21.4326V9.7041Z" fill="#787F84"/>
<path d="M20.7588 9.7041H20.084V10.5288H20.7588V9.7041Z" fill="#696B76"/>
<path d="M20.083 9.7041H19.4082V10.5288H20.083V9.7041Z" fill="#696B76"/>
<path d="M19.4072 9.7041H18.7324V10.5288H19.4072V9.7041Z" fill="#6F717C"/>
<path d="M18.7315 9.7041H18.0566V10.5288H18.7315V9.7041Z" fill="#6F717C"/>
<path d="M18.0576 9.7041H17.3828V10.5288H18.0576V9.7041Z" fill="#797986"/>
<path d="M17.3819 9.7041H16.707V10.5288H17.3819V9.7041Z" fill="#797986"/>
<path d="M16.7061 9.7041H16.0312V10.5288H16.7061V9.7041Z" fill="#797986"/>
<path d="M16.0322 9.7041H15.3574V10.5288H16.0322V9.7041Z" fill="#797986"/>
<path d="M15.3565 9.7041H14.6816V10.5288H15.3565V9.7041Z" fill="#797986"/>
<path d="M14.6807 9.7041H14.0059V10.5288H14.6807V9.7041Z" fill="#797986"/>
<path d="M14.0069 9.7041H13.332V10.5288H14.0069V9.7041Z" fill="#797986"/>
<path d="M13.3311 9.7041H12.6562V10.5288H13.3311V9.7041Z" fill="#797986"/>
<path d="M12.6553 9.7041H11.9805V10.5288H12.6553V9.7041Z" fill="#797986"/>
<path d="M11.9815 9.7041H11.3066V10.5288H11.9815V9.7041Z" fill="#797986"/>
<path d="M11.3057 9.7041H10.6309V10.5288H11.3057V9.7041Z" fill="#797986"/>
<path d="M10.6299 9.7041H9.95508V10.5288H10.6299V9.7041Z" fill="#797986"/>
<path d="M9.95607 9.7041H9.28125V10.5288H9.95607V9.7041Z" fill="#797986"/>
<path d="M9.28029 9.7041H8.60547V10.5288H9.28029V9.7041Z" fill="#797986"/>
<path d="M8.60451 9.7041H7.92969V10.5288H8.60451V9.7041Z" fill="#797986"/>
<path d="M7.93068 9.7041H7.25586V10.5288H7.93068V9.7041Z" fill="#797986"/>
<path d="M7.2549 9.7041H6.58008V10.5288H7.2549V9.7041Z" fill="#797986"/>
<path d="M6.58028 9.7041H5.9043V10.5288H6.58028V9.7041Z" fill="#797986"/>
<path d="M5.90529 9.7041H5.23047V10.5288H5.90529V9.7041Z" fill="white"/>
<path d="M5.23147 9.7041H4.55664V10.5288H5.23147V9.7041Z" fill="white"/>
<path d="M4.55373 9.7041H3.87891V10.5288H4.55373V9.7041Z" fill="white"/>
<path d="M3.8799 9.7041H3.20508V10.5288H3.8799V9.7041Z" fill="#797986"/>
<path d="M3.20412 9.7041H2.5293V10.5288H3.20412V9.7041Z" fill="#868B91"/>
<path d="M2.52834 9.7041H1.85352V10.5288H2.52834V9.7041Z" fill="#868B91"/>
<path d="M22.1084 8.88037H21.4336V9.70503H22.1084V8.88037Z" fill="#787F84"/>
<path d="M21.4326 8.88037H20.7578V9.70503H21.4326V8.88037Z" fill="#787F84"/>
<path d="M20.7588 8.88037H20.084V9.70503H20.7588V8.88037Z" fill="#696B76"/>
<path d="M20.083 8.88037H19.4082V9.70503H20.083V8.88037Z" fill="#696B76"/>
<path d="M19.4072 8.88037H18.7324V9.70503H19.4072V8.88037Z" fill="#6F717C"/>
<path d="M18.7315 8.88037H18.0566V9.70503H18.7315V8.88037Z" fill="#6F717C"/>
<path d="M18.0576 8.88037H17.3828V9.70503H18.0576V8.88037Z" fill="#797986"/>
<path d="M17.3819 8.88037H16.707V9.70503H17.3819V8.88037Z" fill="#797986"/>
<path d="M16.7061 8.88037H16.0312V9.70503H16.7061V8.88037Z" fill="#797986"/>
<path d="M16.0322 8.88037H15.3574V9.70503H16.0322V8.88037Z" fill="#797986"/>
<path d="M15.3565 8.88037H14.6816V9.70503H15.3565V8.88037Z" fill="#797986"/>
<path d="M14.6807 8.88037H14.0059V9.70503H14.6807V8.88037Z" fill="#797986"/>
<path d="M14.0069 8.88037H13.332V9.70503H14.0069V8.88037Z" fill="#797986"/>
<path d="M13.3311 8.88037H12.6562V9.70503H13.3311V8.88037Z" fill="#797986"/>
<path d="M12.6553 8.88037H11.9805V9.70503H12.6553V8.88037Z" fill="#797986"/>
<path d="M11.9815 8.88037H11.3066V9.70503H11.9815V8.88037Z" fill="#797986"/>
<path d="M11.3057 8.88037H10.6309V9.70503H11.3057V8.88037Z" fill="#797986"/>
<path d="M10.6299 8.88037H9.95508V9.70503H10.6299V8.88037Z" fill="#797986"/>
<path d="M9.95607 8.88037H9.28125V9.70503H9.95607V8.88037Z" fill="#797986"/>
<path d="M9.28029 8.88037H8.60547V9.70503H9.28029V8.88037Z" fill="#797986"/>
<path d="M8.60451 8.88037H7.92969V9.70503H8.60451V8.88037Z" fill="#797986"/>
<path d="M7.93068 8.88037H7.25586V9.70503H7.93068V8.88037Z" fill="#797986"/>
<path d="M7.2549 8.88037H6.58008V9.70503H7.2549V8.88037Z" fill="#797986"/>
<path d="M6.58028 8.88037H5.9043V9.70503H6.58028V8.88037Z" fill="#797986"/>
<path d="M5.90529 8.88037H5.23047V9.70503H5.90529V8.88037Z" fill="#797986"/>
<path d="M5.23147 8.88037H4.55664V9.70503H5.23147V8.88037Z" fill="#797986"/>
<path d="M4.55373 8.88037H3.87891V9.70503H4.55373V8.88037Z" fill="#797986"/>
<path d="M3.8799 8.88037H3.20508V9.70503H3.8799V8.88037Z" fill="#797986"/>
<path d="M3.20412 8.88037H2.5293V9.70503H3.20412V8.88037Z" fill="#868B91"/>
<path d="M2.52834 8.88037H1.85352V9.70503H2.52834V8.88037Z" fill="#868B91"/>
<path d="M22.1084 8.05566H21.4336V8.87916H22.1084V8.05566Z" fill="#787F84"/>
<path d="M21.4326 8.05566H20.7578V8.87916H21.4326V8.05566Z" fill="#787F84"/>
<path d="M20.7588 8.05566H20.084V8.87916H20.7588V8.05566Z" fill="#787F84"/>
<path d="M20.083 8.05566H19.4082V8.87916H20.083V8.05566Z" fill="#7D8489"/>
<path d="M19.4072 8.05566H18.7324V8.87916H19.4072V8.05566Z" fill="#7D8489"/>
<path d="M18.7315 8.05566H18.0566V8.87916H18.7315V8.05566Z" fill="#7D8489"/>
<path d="M18.0576 8.05566H17.3828V8.87916H18.0576V8.05566Z" fill="#868B91"/>
<path d="M17.3819 8.05566H16.707V8.87916H17.3819V8.05566Z" fill="#858A91"/>
<path d="M16.7061 8.05566H16.0312V8.87916H16.7061V8.05566Z" fill="#797986"/>
<path d="M16.0322 8.05566H15.3574V8.87916H16.0322V8.05566Z" fill="#797986"/>
<path d="M15.3565 8.05566H14.6816V8.87916H15.3565V8.05566Z" fill="#797986"/>
<path d="M14.6807 8.05566H14.0059V8.87916H14.6807V8.05566Z" fill="#797986"/>
<path d="M14.0069 8.05566H13.332V8.87916H14.0069V8.05566Z" fill="#797986"/>
<path d="M13.3311 8.05566H12.6562V8.87916H13.3311V8.05566Z" fill="#797986"/>
<path d="M12.6553 8.05566H11.9805V8.87916H12.6553V8.05566Z" fill="#797986"/>
<path d="M11.9815 8.05566H11.3066V8.87916H11.9815V8.05566Z" fill="#797986"/>
<path d="M11.3057 8.05566H10.6309V8.87916H11.3057V8.05566Z" fill="#797986"/>
<path d="M10.6299 8.05566H9.95508V8.87916H10.6299V8.05566Z" fill="#797986"/>
<path d="M9.95607 8.05566H9.28125V8.87916H9.95607V8.05566Z" fill="#797986"/>
<path d="M9.28029 8.05566H8.60547V8.87916H9.28029V8.05566Z" fill="#797986"/>
<path d="M8.60451 8.05566H7.92969V8.87916H8.60451V8.05566Z" fill="#797986"/>
<path d="M7.93068 8.05566H7.25586V8.87916H7.93068V8.05566Z" fill="#797986"/>
<path d="M7.2549 8.05566H6.58008V8.87916H7.2549V8.05566Z" fill="#81858E"/>
<path d="M6.58028 8.05566H5.9043V8.87916H6.58028V8.05566Z" fill="#868B91"/>
<path d="M5.90529 8.05566H5.23047V8.87916H5.90529V8.05566Z" fill="#868B91"/>
<path d="M5.23147 8.05566H4.55664V8.87916H5.23147V8.05566Z" fill="#868B91"/>
<path d="M4.55373 8.05566H3.87891V8.87916H4.55373V8.05566Z" fill="#868B91"/>
<path d="M3.8799 8.05566H3.20508V8.87916H3.8799V8.05566Z" fill="#868B91"/>
<path d="M3.20412 8.05566H2.5293V8.87916H3.20412V8.05566Z" fill="#868B91"/>
<path d="M2.52834 8.05566H1.85352V8.87916H2.52834V8.05566Z" fill="#868B91"/>
<path d="M18.7315 7.23242H18.0566V8.05708H18.7315V7.23242Z" fill="#7D8489"/>
<path d="M18.0576 7.23242H17.3828V8.05708H18.0576V7.23242Z" fill="#868B91"/>
<path d="M17.3819 7.23242H16.707V8.05708H17.3819V7.23242Z" fill="#868B91"/>
<path d="M16.7061 7.23242H16.0312V8.05708H16.7061V7.23242Z" fill="#868B91"/>
<path d="M16.0322 7.23242H15.3574V8.05708H16.0322V7.23242Z" fill="#868B91"/>
<path d="M15.3565 7.23242H14.6816V8.05708H15.3565V7.23242Z" fill="#868B91"/>
<path d="M14.6807 7.23242H14.0059V8.05708H14.6807V7.23242Z" fill="#797986"/>
<path d="M14.0069 7.23242H13.332V8.05708H14.0069V7.23242Z" fill="#797986"/>
<path d="M13.3311 7.23242H12.6562V8.05708H13.3311V7.23242Z" fill="#797986"/>
<path d="M12.6553 7.23242H11.9805V8.05708H12.6553V7.23242Z" fill="#797986"/>
<path d="M11.9815 7.23242H11.3066V8.05708H11.9815V7.23242Z" fill="#797986"/>
<path d="M11.3057 7.23242H10.6309V8.05708H11.3057V7.23242Z" fill="#797986"/>
<path d="M10.6299 7.23242H9.95508V8.05708H10.6299V7.23242Z" fill="#797986"/>
<path d="M9.95607 7.23242H9.28125V8.05708H9.95607V7.23242Z" fill="#797986"/>
<path d="M9.28029 7.23242H8.60547V8.05708H9.28029V7.23242Z" fill="#868B91"/>
<path d="M8.60451 7.23242H7.92969V8.05708H8.60451V7.23242Z" fill="#868B91"/>
<path d="M7.93068 7.23242H7.25586V8.05708H7.93068V7.23242Z" fill="#868B91"/>
<path d="M7.2549 7.23242H6.58008V8.05708H7.2549V7.23242Z" fill="#868B91"/>
<path d="M6.58028 7.23242H5.9043V8.05708H6.58028V7.23242Z" fill="#868B91"/>
<path d="M5.90529 7.23242H5.23047V8.05708H5.90529V7.23242Z" fill="#868B91"/>
<path d="M15.3565 6.4082H14.6816V7.2317H15.3565V6.4082Z" fill="#868B91"/>
<path d="M14.6807 6.4082H14.0059V7.2317H14.6807V6.4082Z" fill="#868B91"/>
<path d="M14.0069 6.4082H13.332V7.2317H14.0069V6.4082Z" fill="#868B91"/>
<path d="M13.3311 6.4082H12.6562V7.2317H13.3311V6.4082Z" fill="#838890"/>
<path d="M12.6553 6.4082H11.9805V7.2317H12.6553V6.4082Z" fill="#797986"/>
<path d="M11.9815 6.4082H11.3066V7.2317H11.9815V6.4082Z" fill="#797986"/>
<path d="M11.3057 6.4082H10.6309V7.2317H11.3057V6.4082Z" fill="#838890"/>
<path d="M10.6299 6.4082H9.95508V7.2317H10.6299V6.4082Z" fill="#868B91"/>
<path d="M9.95607 6.4082H9.28125V7.2317H9.95607V6.4082Z" fill="#868B91"/>
<path d="M9.28029 6.4082H8.60547V7.2317H9.28029V6.4082Z" fill="#868B91"/>
<path d="M14.0069 5.58447H13.332V6.40797H14.0069V5.58447Z" fill="#868B91"/>
<path d="M13.3311 5.58447H12.6562V6.40797H13.3311V5.58447Z" fill="#868B91"/>
<path d="M12.6553 5.58447H11.9805V6.40797H12.6553V5.58447Z" fill="#868B91"/>
<path d="M11.9815 5.58447H11.3066V6.40797H11.9815V5.58447Z" fill="#868B91"/>
<path d="M11.3057 5.58447H10.6309V6.40797H11.3057V5.58447Z" fill="#868B91"/>
<path d="M10.6299 5.58447H9.95508V6.40797H10.6299V5.58447Z" fill="#868B91"/>
<path d="M12.6553 4.75928H11.9805V5.58393H12.6553V4.75928Z" fill="#868B91"/>
<path d="M11.9815 4.75928H11.3066V5.58393H11.9815V4.75928Z" fill="#868B91"/>
<path d="M16.094 24.0742H15.498V24.6616H16.094V24.0742Z" fill="#95817B"/>
<path d="M8.34466 24.0742H7.74805V24.6616H8.34466V24.0742Z" fill="#95817B"/>
<path d="M16.6897 23.4873H16.0938V24.074H16.6897V23.4873Z" fill="#95817B"/>
<path d="M7.7483 23.4873H7.15234V24.074H7.7483V23.4873Z" fill="#95817B"/>
<path d="M17.2856 22.8989H16.6895V23.4871H17.2856V22.8989Z" fill="#95817B"/>
<path d="M8.34466 22.8989H7.74805V23.4871H8.34466V22.8989Z" fill="#5F4E4A"/>
<path d="M7.15259 22.8989H6.55664V23.4871H7.15259V22.8989Z" fill="#95817B"/>
<path d="M12.5161 21.7256H11.9199V22.3125H12.5161V21.7256Z" fill="#4A7A2F"/>
<path d="M11.9221 21.7256H11.3262V22.3125H11.9221V21.7256Z" fill="#4A7A2F"/>
<path d="M14.9006 19.377H14.3047V19.9641H14.9006V19.377Z" fill="#177533"/>
<path d="M12.5161 19.377H11.9199V19.9641H12.5161V19.377Z" fill="#56AF32"/>
<path d="M11.9221 19.377H11.3262V19.9641H11.9221V19.377Z" fill="#82BB27"/>
<path d="M20.2659 18.79H19.6699V19.3774H20.2659V18.79Z" fill="#62504C"/>
<path d="M16.6897 18.79H16.0938V19.3774H16.6897V18.79Z" fill="#426040"/>
<path d="M15.4968 18.79H14.9004V19.3774H15.4968V18.79Z" fill="#4A7A2F"/>
<path d="M12.5161 18.79H11.9199V19.3774H12.5161V18.79Z" fill="#82BB27"/>
<path d="M8.94014 18.79H8.34375V19.3774H8.94014V18.79Z" fill="#4A7A2F"/>
<path d="M7.7483 18.79H7.15234V19.3774H7.7483V18.79Z" fill="#426040"/>
<path d="M4.17212 18.79H3.57617V19.3774H4.17212V18.79Z" fill="#62504C"/>
<path d="M20.8616 18.2021H20.2656V18.7895H20.8616V18.2021Z" fill="#95817B"/>
<path d="M16.094 18.2026H15.498V18.79H16.094V18.2026Z" fill="#4A7A2F"/>
<path d="M8.34466 18.2026H7.74805V18.79H8.34466V18.2026Z" fill="#4A7A2F"/>
<path d="M3.57642 18.2021H2.98047V18.7895H3.57642V18.2021Z" fill="#95817B"/>
<path d="M16.094 17.6157H15.498V18.2029H16.094V17.6157Z" fill="#4A7A2F"/>
<path d="M7.7483 17.6157H7.15234V18.2029H7.7483V17.6157Z" fill="#4A7A2F"/>
<path d="M16.6897 17.0278H16.0938V17.6152H16.6897V17.0278Z" fill="#4A7A2F"/>
<path d="M7.7483 17.0278H7.15234V17.6152H7.7483V17.0278Z" fill="#4A7A2F"/>
<path d="M22.0549 15.2661H21.459V15.8539H22.0549V15.2661Z" fill="#95817B"/>
<path d="M2.38523 15.2661H1.78906V15.8539H2.38523V15.2661Z" fill="#95817B"/>
<path d="M17.8811 14.6797H17.2852V15.2666H17.8811V14.6797Z" fill="#4A7A2F"/>
<path d="M13.7092 14.6797H13.1133V15.2666H13.7092V14.6797Z" fill="#D0E09C"/>
<path d="M10.729 14.6797H10.1328V15.2666H10.729V14.6797Z" fill="#D0E09C"/>
<path d="M6.55711 14.6797H5.96094V15.2666H6.55711V14.6797Z" fill="#4A7A2F"/>
<path d="M16.094 14.0923H15.498V14.6792H16.094V14.0923Z" fill="#D0E09C"/>
<path d="M8.34466 14.0923H7.74805V14.6792H8.34466V14.0923Z" fill="#D0E09C"/>
<path d="M16.094 13.5054H15.498V14.0925H16.094V13.5054Z" fill="#D0E09C"/>
<path d="M8.34466 13.5049H7.74805V14.092H8.34466V13.5049Z" fill="#D0E09C"/>
<path d="M16.094 12.9189H15.498V13.5061H16.094V12.9189Z" fill="#D0E09C"/>
<path d="M8.34466 12.9189H7.74805V13.5061H8.34466V12.9189Z" fill="#D0E09C"/>
<path d="M16.094 12.3306H15.498V12.9181H16.094V12.3306Z" fill="#D0E09C"/>
<path d="M8.34466 12.3306H7.74805V12.9181H8.34466V12.3306Z" fill="#D0E09C"/>
<path d="M13.7092 11.1562H13.1133V11.7436H13.7092V11.1562Z" fill="#D0E09C"/>
<path d="M10.729 11.1562H10.1328V11.7436H10.729V11.1562Z" fill="#D0E09C"/>
<path d="M7.15351 11.1559V10.5692V9.98164H6.55756V9.39488V8.80688V8.21996V7.6326V7.04541H5.96144H5.36548H4.76953V7.6326V8.21996V8.80688V9.39488V9.98164V10.5692H5.36548V11.1559V11.7433H5.96144H6.55756H7.15351H7.74946V11.1559H7.15351Z" fill="#DDDC03"/>
<path d="M16.094 5.87158H15.498V6.45872H16.094V5.87158Z" fill="#4A7A2F"/>
<path d="M14.304 16.4414V17.0282H13.708V17.6155V18.2027H13.112V18.7901H12.5161V19.3774V19.9646H11.9199V20.5513H12.5161H13.112H13.708V19.9646H14.304V19.3774H14.8999V18.7901H15.4962V18.2027V17.6155V17.0282V16.4414H14.8999H14.304Z" fill="#3CAA36"/>
<path d="M18.4766 7.63283H17.8802H17.2843H16.6881V7.04564H16.0922H15.4962H14.8999V6.45872H14.304H13.708V5.87158H13.112H12.5161H11.9199V6.45872V7.04564H12.5161V7.63283H13.112V8.22019H13.708H14.304V8.8071H14.8999H15.4962H16.0922V9.39511H16.6881H17.2843H17.8802V8.8071H18.4766H19.0728V8.22019V7.63283H18.4766Z" fill="#3CAA36"/>
<path d="M11.9221 19.9639H11.3262V20.5506H11.9221V19.9639Z" fill="#6EB52E"/>
<path d="M16.094 8.80713H15.498V9.39513H16.094V8.80713Z" fill="#6EB52E"/>
<path d="M18.4779 7.04541H17.8815H17.2856H16.6895V7.6326H17.2856H17.8815H18.4779H19.0741V7.04541H18.4779Z" fill="#6EB52E"/>
<path d="M12.5161 7.04541H11.9199V7.63255H12.5161V7.04541Z" fill="#6EB52E"/>
<path d="M11.9221 5.87158H11.3262V6.45872V7.04564H11.9221V6.45872V5.87158Z" fill="#6EB52E"/>
<path d="M8.34466 5.87158H7.74805V6.45872H8.34466V5.87158Z" fill="#4A7A2F"/>
<path d="M5.36548 10.5698H4.76953V11.1565V11.7439H5.36548V11.1565V10.5698Z" fill="#94C122"/>
<path d="M19.0736 6.45916H18.4774H17.881H17.285H16.6889H16.0929H15.497V5.87203H14.9006H14.3046H13.7087V6.45916H14.3046H14.9006V7.04608H15.497H16.0929H16.6889H17.285H17.881H18.4774H19.0736V7.63322V8.22057V8.80749H18.4774H17.881V9.3955H17.285H16.6889H16.0929H15.497V8.80749H14.9006H14.3046V8.22057H13.7087H13.1127V7.63322H12.5168H11.9206V7.04608H11.3246V6.45916V5.87203H11.9206H12.5168H13.1127H13.7087V5.28467H13.1127H12.5168H11.9206H11.3246H10.7287H10.1325V5.87203H9.53655H8.9406H8.3442V6.45916H7.74781H7.15186H6.55591H5.95973H5.36378H4.76783H4.17188V7.04608V7.63322V8.22057V8.80749V9.3955V9.9822H4.76783V9.3955V8.80749V8.22057V7.63322V7.04608H5.36378H5.95973H6.55591V7.63322V8.22057V8.80749V9.3955V9.9822H7.15186V10.5698V11.1565H7.74781V11.7438H7.15186H6.55591H5.95973H5.36378V12.3308V12.9183V13.5055H5.95973V14.0926V14.6795H6.55591V15.2664V15.8542H7.15186V16.4411V17.0279H7.74781V17.6152V18.2023H8.34442V18.7897H8.94082V19.3771V19.9642H9.53677V20.5509H10.1327H10.7289V21.1385H11.3248V21.7252H11.9208H12.517V21.1385H13.1129V20.5509H12.517H11.9208H11.3248V19.9642V19.3771H11.9208V18.7897H12.517H13.1129V18.2023H13.7089V17.6152V17.0279H14.3048V16.4411H14.9008H15.4972V17.0279V17.6152H16.0931V17.0279H16.6891V16.4411V15.8542H17.2853V15.2664V14.6795H17.8812V14.0926V13.5055H18.4776V12.9183V12.3308V11.7438H19.0738V11.1565V10.5698V9.9822V9.3955H19.6697V8.80749V8.22057V7.63322V7.04608V6.45916H19.0736ZM12.5169 17.0281H11.9207H11.3247H10.7288V16.4414V15.8545V15.2667H10.1326V14.6798H9.53666H8.94071H8.34431H7.74781V14.0929V13.5057V12.9186V12.331H8.34442V11.7441H8.94082H9.53677H10.1327V11.1567H10.7289V10.57V9.98247H11.3248V9.39577H11.9208H12.517V9.98247H13.1129V10.57V11.1567H13.7089V11.7441H14.3048H14.9008H15.4972V12.331H16.0931V12.9186V13.5057V14.0929V14.6798H15.4972H14.9008H14.3048H13.7089V15.2667H13.1129V15.8545V16.4414V17.0281H12.5169Z" fill="#94C122"/>
<path d="M12.5161 4.69775H11.9199V5.28468H12.5161V4.69775Z" fill="#4A7A2F"/>
<path d="M11.9221 4.69775H11.3262V5.28468H11.9221V4.69775Z" fill="#4A7A2F"/>
<path d="M15.4972 19.3774H14.9009V19.9645H14.305H13.709V20.5513H13.1131V21.1389H12.5171V21.7256V22.3125H11.9209H11.325V21.7256V21.1389H10.7291V20.5513H10.1329H9.53695V19.9645H8.941V19.3774H8.34466V18.79H7.74805V19.3774V19.9645H8.34466V20.5513V21.1389H8.941V21.7256H9.53695V22.3125H10.1329V22.8993H10.7291H11.325H11.9209H12.5171H13.1131H13.709V22.3125H14.305V21.7256H14.9009V21.1389H15.4972V20.5513V19.9645H16.0932V19.3774V18.79H15.4972V19.3774Z" fill="#0F4523"/>
<path d="M19.6697 5.28403H19.0737H18.4776H17.8812H17.2853H16.6891H16.0932V4.69706H15.4972H14.9008H14.3049V4.11035H13.709H13.113H12.5171H11.9209H11.325H10.729H10.1329H9.53691V4.69706H8.94096H8.34462H7.74801V5.28403H7.15205H6.5561H5.95998H5.36403H4.76808H4.17212H3.57617V5.87139V6.45852V7.04544V7.63264V8.21999V8.80691V9.39491V9.98168V10.5692H4.17212V11.1559V11.7433V12.3303V12.9178V13.505V14.0921V14.6791H4.76808V15.266H5.36403V15.8538V16.4407H5.95998V17.0275V17.6148H6.5561V18.202V18.7894H7.15205H7.74801V18.202H7.15205V17.6148V17.0275V16.4407V15.8538H6.5561V15.266H5.95998V14.6791V14.0921V13.505H5.36403V12.9178V12.3303V11.7433H4.76808V11.1559V10.5692V9.98168H4.17212V9.39491V8.80691V8.21999V7.63264V7.04544V6.45852H4.76808H5.36403H5.95998H6.5561H7.15205H7.74801V5.87139H8.34462H8.94096H9.53691H10.1329V5.28403H10.729H11.325V4.69706H11.9209H12.5171V5.28403H13.113H13.709V5.87139H14.3049H14.9008H15.4972H16.0932V6.45852H16.6891H17.2853H17.8812H18.4776H19.0737H19.6697V7.04544V7.63264V8.21999V8.80691V9.39491H19.0737V9.98168V10.5692V11.1559V11.7433H18.4776V12.3303V12.9178V13.505H17.8812V14.0921V14.6791V15.266H17.2853V15.8538H16.6891V16.4407V17.0275V17.6148H16.0932V18.202V18.7894H16.6891H17.2853V18.202V17.6148H17.8812V17.0275V16.4407H18.4776V15.8538V15.266H19.0737V14.6791V14.0921H19.6697V13.505V12.9178V12.3303V11.7433V11.1559V10.5692V9.98168H20.2657V9.39491V8.80691V8.21999V7.63264V7.04544V6.45852V5.87139V5.28403H19.6697Z" fill="#0F4523"/>
<path d="M11.3262 22.8989V23.4871H11.9221H12.5182V22.8989H11.9221H11.3262Z" fill="#72816A"/>
<path d="M16.094 19.9644H15.498V20.5511H16.094V19.9644Z" fill="#72816A"/>
<path d="M8.34466 19.9644H7.74805V20.5511H8.34466V19.9644Z" fill="#72816A"/>
<path d="M16.6897 19.377H16.0938V19.9641H16.6897V19.377Z" fill="#72816A"/>
<path d="M7.7483 19.377H7.15234V19.9641H7.7483V19.377Z" fill="#72816A"/>
<path d="M19.0747 15.2661H18.4785V15.8539H19.0747V15.2661Z" fill="#72816A"/>
<path d="M5.36548 15.2661H4.76953V15.8539H5.36548V15.2661Z" fill="#72816A"/>
<path d="M3.57617 11.1565V11.7439V12.3309H4.17212V11.7439V11.1565V10.5698H3.57617V11.1565Z" fill="#72816A"/>
<path d="M19.6699 10.57V11.1567V11.744V12.331H20.2659V11.744V11.1567V10.57V9.98242H19.6699V10.57Z" fill="#72816A"/>
<path d="M3.57642 9.39555V8.80754V8.22063V7.63327V7.04608V6.45916V5.87203V5.28467H2.98047V5.87203V6.45916V7.04608V7.63327V8.22063V8.80754V9.39555V9.98231V10.5699H3.57642V9.98231V9.39555Z" fill="#72816A"/>
<path d="M20.2656 5.28467V5.87203V6.45916V7.04608V7.63327V8.22063V8.80755V9.39555V9.98231H20.8615V9.39555V8.80755V8.22063V7.63327V7.04608V6.45916V5.87203V5.28467H20.2656Z" fill="#72816A"/>
<path d="M16.6897 4.69727H16.0938V5.28419H16.6897V4.69727Z" fill="#72816A"/>
<path d="M7.7483 4.69775H7.15234V5.28468H7.7483V4.69775Z" fill="#72816A"/>
<path d="M11.3262 3.52246V4.11046H11.9221H12.5182V3.52246H11.9221H11.3262Z" fill="#72816A"/>
<path d="M16.6897 1.76123H16.0938V2.34945H16.6897V1.76123Z" fill="#95817B"/>
<path d="M1.78931 5.28414V4.69717V4.11046V3.52246H1.19336V4.11046V4.69717V5.28414V5.8715V6.45863V7.04556V7.63275V8.2201V8.80702H1.78931V9.39502V9.98179V10.5694V11.1561H2.38548V11.7434V12.3304V12.918V13.5051H2.98138V14.0922V14.6792V15.2661H3.57734V15.8539H4.17329V16.4408V17.0276V17.615V18.2021H4.76924V18.7895H5.36519V19.3769V19.964H5.96115V20.5507H6.55726V21.1383H7.15322V21.725V22.3119H7.74917V22.8987H8.34578H8.94212V23.4869H9.53807V24.0736H10.134V24.661H10.7302H11.3261V24.0736V23.4869V22.8987H10.7302H10.134V22.3119H9.53807V21.725H8.94212V21.1383H8.34578V20.5507H7.74917V19.964H7.15322V19.3769V18.7895H6.55726V18.2021V17.615H5.96115V17.0276V16.4408H5.36519V15.8539H4.76924V15.2661V14.6792H4.17329V14.0922V13.5051V12.918V12.3304H3.57734V11.7434V11.1561V10.5694H2.98138V9.98179V9.39502V8.80702V8.2201V7.63275V7.04556V6.45863V5.8715V5.28414H2.38548H1.78931Z" fill="#DADADA"/>
<path d="M20.8621 4.11086V3.52286H20.2662H19.6702H19.0743H18.4781H17.8817H17.2858H16.6896H16.0937V2.9361H15.4977H14.9013H14.3054H13.7095V2.34961H13.1135H12.5176V2.9361V3.52286V4.11086H13.1135H13.7095H14.3054V4.69757H14.9013H15.4977H16.0937H16.6896V5.28454H17.2858H17.8817H18.4781H19.0743H19.6702H20.2662H20.8621V4.69757V4.11086Z" fill="#DADADA"/>
<path d="M22.054 3.52246V4.11046V4.69717V5.28414H21.458H20.8621V5.8715V6.45863V7.04556V7.63275V8.2201V8.80702V9.39502V9.98179H20.2662V10.5694V11.1561V11.7434V12.3304H19.6702V12.918V13.5051V14.0922H19.0743V14.6792V15.2661V15.8539H18.4781V16.4408H17.8817V17.0276V17.615H17.2858V18.2021V18.7895H16.6896V19.3769V19.964H16.0937V20.5507H15.4977V21.1383H14.9013V21.725H14.3054V22.3119H13.7095V22.8987H13.1135H12.5176V23.4869V24.0736V24.661H13.1135H13.7095V24.0736H14.3054V23.4869H14.9013V22.8987H15.4977V22.3119H16.0937V21.725H16.6896V21.1383H17.2858V20.5507H17.8817V19.964H18.4781V19.3769V18.7895H19.0743V18.2021H19.6702V17.615V17.0276V16.4408V15.8539H20.2662V15.2661H20.8621V14.6792V14.0922V13.5051H21.458V12.918V12.3304V11.7434V11.1561H22.054V10.5694V9.98179V9.39502V8.80702V8.2201H22.6502V7.63275V7.04556V6.45863V5.8715V5.28414V4.69717V4.11046V3.52246H22.054Z" fill="#DADADA"/>
<path d="M10.1331 2.34961V2.9361H9.53716H8.94121H8.34487H7.74826V3.52286H7.1523H6.55635H5.96023H5.36428H4.76833H4.17237H3.57642H2.98047V4.11086V4.69757V5.28454H3.57642H4.17237H4.76833H5.36428H5.96023H6.55635H7.1523V4.69757H7.74826H8.34487H8.94121H9.53716V4.11086H10.1331H10.7293H11.3252V3.52286V2.9361V2.34961H10.7293H10.1331Z" fill="#DADADA"/>
<path d="M11.9221 1.76123H11.3262V2.34945H11.9221H12.5182V1.76123H11.9221Z" fill="#DADADA"/>
<path d="M7.7483 1.76123H7.15234V2.34945H7.7483V1.76123Z" fill="#95817B"/>
<path d="M11.3262 24.6606V25.2478H11.9221H12.5182V24.6606H11.9221H11.3262Z" fill="#8B7973"/>
<path d="M11.3262 23.4873V24.074H11.9221H12.5182V23.4873H11.9221H11.3262Z" fill="#8B7973"/>
<path d="M15.4968 22.8989H14.9004V23.4871H15.4968V22.8989Z" fill="#8B7973"/>
<path d="M8.94014 22.8989H8.34375V23.4871H8.94014V22.8989Z" fill="#8B7973"/>
<path d="M16.094 22.3125H15.498V22.8992H16.094V22.3125Z" fill="#8B7973"/>
<path d="M7.7483 22.3125H7.15234V22.8992H7.7483V22.3125Z" fill="#8B7973"/>
<path d="M16.6897 21.7251H16.0938V22.312H16.6897V21.7251Z" fill="#8B7973"/>
<path d="M19.0747 18.79H18.4785V19.3774H19.0747V18.79Z" fill="#8B7973"/>
<path d="M5.36548 18.79H4.76953V19.3774H5.36548V18.79Z" fill="#8B7973"/>
<path d="M19.6699 16.4419V17.0287H20.2659V16.4419V15.855H19.6699V16.4419Z" fill="#8B7973"/>
<path d="M3.57617 16.4419V17.0287V17.616H4.17212V17.0287V16.4419V15.855H3.57617V16.4419Z" fill="#8B7973"/>
<path d="M20.8616 15.2661H20.2656V15.8539H20.8616V15.2661Z" fill="#8B7973"/>
<path d="M3.57642 15.2661H2.98047V15.8539H3.57642V15.2661Z" fill="#8B7973"/>
<path d="M22.0549 11.1562H21.459V11.7436H22.0549V11.1562Z" fill="#8B7973"/>
<path d="M2.38523 11.1562H1.78906V11.7436H2.38523V11.1562Z" fill="#8B7973"/>
<path d="M22.054 2.93555H21.4581H20.8621H20.2662H19.6703H19.0743H18.4782H17.8818H17.2859H16.6897H16.0938V3.5223H16.6897H17.2859H17.8818H18.4782H19.0743H19.6703H20.2662H20.8621V4.11031H21.4581H22.054V3.5223H22.6502V2.93555H22.054Z" fill="#8B7973"/>
<path d="M11.3262 2.93604V3.52279H11.9221H12.5182V2.93604H11.9221H11.3262Z" fill="#8B7973"/>
<path d="M6.55726 2.93604H5.96115H5.36519H4.76924H4.17329H3.57734H2.98138H2.38548H1.78931H1.19336V3.52279H1.78931V4.1108H2.38548H2.98138V3.52279H3.57734H4.17329H4.76924H5.36519H5.96115H6.55726H7.15322H7.74917V2.93604H7.15322H6.55726Z" fill="#8B7973"/>
<path d="M11.3262 1.17432V1.76124H11.9221H12.5182V1.17432H11.9221H11.3262Z" fill="#8B7973"/>
<path d="M11.9221 24.0742H11.3262V24.6616H11.9221H12.5182V24.0742H11.9221Z" fill="#323231"/>
<path d="M7.7483 22.8989H7.15234V23.4871H7.7483V22.8989Z" fill="#323231"/>
<path d="M22.0532 5.28403V4.69706V4.11035H21.4573H20.8613V4.69706V5.28403H21.4573H22.0532Z" fill="#323231"/>
<path d="M1.78906 4.11035V4.69706V5.28403H2.38523H2.98113V4.69706V4.11035H2.38523H1.78906Z" fill="#323231"/>
<path d="M23.2459 2.34947H22.65H22.0538H21.4578H20.8619H20.266H19.67H19.0741H18.4779H17.8815H17.2856H16.6894H16.0935V1.76125H15.4975H14.9011H14.3052V1.17433H13.7093H13.1133V0.586922H12.5174V0H11.9212H11.3253V0.586922H10.7294V1.17433H10.1332H9.53722V1.76125H8.94127H8.34493H7.74832V2.34947H7.15237H6.55642H5.9603H5.36435H4.76839H4.17244H3.57649H2.98053H2.38464H1.78846H1.19251H0.596118H0V2.93596V3.52272V4.11072V4.69743V5.2844V5.87176V6.45889V7.04581V7.63301V8.22036V8.80728V9.39528H0.596118V9.98205V10.5696V11.1563V11.7437H1.19251V12.3307V12.9182V13.5054V14.0925H1.78846V14.6795V15.2664H2.38464V15.8542V16.4411V17.0279H2.98053V17.6152V18.2023H3.57649V18.7898H4.17244V19.3771V19.9642V20.551H4.76839V21.1386H5.36435V21.7253V22.3122H5.9603V22.899H6.55642H7.15237V22.3122V21.7253V21.1386H6.55642V20.551H5.9603V19.9642H5.36435V19.3771H4.76839V18.7898V18.2023H4.17244V17.6152H3.57649V17.0279V16.4411V15.8542H2.98053V15.2664V14.6795V14.0925V13.5054H2.38464V12.9182V12.3307V11.7437H1.78846V11.1563V10.5696V9.98205V9.39528V8.80728H1.19251V8.22036V7.63301V7.04581V6.45889V5.87176V5.2844V4.69743V4.11072V3.52272V2.93596H1.78846H2.38464H2.98053H3.57649H4.17244H4.76839H5.36435H5.9603H6.55642H7.15237H7.74832H8.34493H8.94127H9.53722H10.1332V2.34947H10.7294H11.3253V1.76125V1.17433H11.9212H12.5174V1.76125V2.34947H13.1133H13.7093V2.93596H14.3052H14.9011H15.4975H16.0935H16.6894H17.2856H17.8815H18.4779H19.0741H19.67H20.266H20.8619H21.4578H22.0538H22.65V3.52272V4.11072V4.69743V5.2844V5.87176V6.45889V7.04581V7.63301V8.22036H22.0538V8.80728V9.39528V9.98205V10.5696V11.1563V11.7437H21.4578V12.3307V12.9182V13.5054H20.8619V14.0925V14.6795V15.2664V15.8542H20.266V16.4411V17.0279H19.67V17.6152V18.2023H19.0741V18.7898V19.3771H18.4779V19.9642H17.8815V20.551H17.2856V21.1386H16.6894V21.7253V22.3122H16.0935V22.899H15.4975V23.4872H14.9011H14.3052V24.0739H13.7093V24.6612H13.1133H12.5174V25.2484H11.9212H11.3253V24.6612H10.7294H10.1332V24.0739H9.53722V23.4872H8.94127H8.34493H7.74832V24.0739H8.34493V24.6612H8.94127V25.2484H9.53722V25.8353H10.1332H10.7294V26.4227H11.3253H11.9212H12.5174H13.1133V25.8353H13.7093H14.3052V25.2484H14.9011V24.6612H15.4975V24.0739H16.0935V23.4872H16.6894V22.899H17.2856H17.8815V22.3122H18.4779V21.7253V21.1386H19.0741V20.551H19.67V19.9642V19.3771V18.7898H20.266V18.2023H20.8619V17.6152V17.0279V16.4411H21.4578V15.8542V15.2664H22.0538V14.6795V14.0925H22.65V13.5054V12.9182V12.3307V11.7437H23.2459V11.1563V10.5696V9.98205V9.39528V8.80728H23.8418V8.22036V7.63301V7.04581V6.45889V5.87176V5.2844V4.69743V4.11072V3.52272V2.93596V2.34947H23.2459Z" fill="#323231"/>
<path d="M11.9221 2.9361H12.5182V2.34961H11.9221H11.3262V2.9361H11.9221Z" fill="#323231"/>
<path d="M8.66543 11.6989C8.73597 11.7498 8.80571 11.7842 8.85721 11.839C9.5265 12.5438 10.1946 13.2498 10.8616 13.9571C10.905 14.005 10.9584 14.0414 11.0174 14.0636C11.1105 14.0937 11.1813 14.0352 11.2462 13.967C11.7637 13.4177 12.2817 12.8684 12.8003 12.3191L15.81 9.13052C15.9747 8.95607 16.0645 8.95635 16.2306 9.13222C16.3915 9.30269 16.5524 9.47316 16.7134 9.64363C16.8839 9.82404 16.8845 9.91865 16.7158 10.0982L12.3151 14.7608C11.96 15.137 11.605 15.513 11.2503 15.8888C11.1103 16.0368 11.0038 16.0374 10.8646 15.8888C9.892 14.8589 8.91961 13.8287 7.94741 12.7982C7.80632 12.6484 7.80686 12.5405 7.94741 12.3905C8.12685 12.1995 8.30494 12.0072 8.48787 11.8202C8.53427 11.7739 8.5965 11.7455 8.66543 11.6989Z" fill="white"/>
</svg>
